solid OpenSCAD_Model
  facet normal 0 -1 0
    outer loop
      vertex -16.8658 -19.9808 0
      vertex 16.8658 -19.9808 10.01
      vertex -16.8658 -19.9808 10.01
    endloop
  endfacet
  facet normal 0 -1 -0
    outer loop
      vertex 16.8658 -19.9808 10.01
      vertex -16.8658 -19.9808 0
      vertex 16.8658 -19.9808 0
    endloop
  endfacet
  facet normal -0.207913 -0.978147 0
    outer loop
      vertex -17.5816 -19.8287 0
      vertex -16.8658 -19.9808 10.01
      vertex -17.5816 -19.8287 10.01
    endloop
  endfacet
  facet normal -0.207913 -0.978147 -0
    outer loop
      vertex -16.8658 -19.9808 10.01
      vertex -17.5816 -19.8287 0
      vertex -16.8658 -19.9808 0
    endloop
  endfacet
  facet normal 1 -0 0
    outer loop
      vertex 20 -16.5 10.01
      vertex 20 16.5 0
      vertex 20 16.5 10.01
    endloop
  endfacet
  facet normal 1 0 0
    outer loop
      vertex 20 16.5 0
      vertex 20 -16.5 10.01
      vertex 20 -16.5 0
    endloop
  endfacet
  facet normal 0.207913 -0.978147 0
    outer loop
      vertex 16.8658 -19.9808 0
      vertex 17.5816 -19.8287 10.01
      vertex 16.8658 -19.9808 10.01
    endloop
  endfacet
  facet normal 0.207913 -0.978147 0
    outer loop
      vertex 17.5816 -19.8287 10.01
      vertex 16.8658 -19.9808 0
      vertex 17.5816 -19.8287 0
    endloop
  endfacet
  facet normal 0.951057 0.309017 0
    outer loop
      vertex 19.9235 17.2277 10.01
      vertex 19.6974 17.9236 0
      vertex 19.6974 17.9236 10.01
    endloop
  endfacet
  facet normal 0.951057 0.309017 0
    outer loop
      vertex 19.6974 17.9236 0
      vertex 19.9235 17.2277 10.01
      vertex 19.9235 17.2277 0
    endloop
  endfacet
  facet normal -0.866025 0.5 0
    outer loop
      vertex -19.6974 17.9236 0
      vertex -19.3316 18.5572 10.01
      vertex -19.3316 18.5572 0
    endloop
  endfacet
  facet normal -0.866025 0.5 0
    outer loop
      vertex -19.3316 18.5572 10.01
      vertex -19.6974 17.9236 0
      vertex -19.6974 17.9236 10.01
    endloop
  endfacet
  facet normal 0 1 -0
    outer loop
      vertex 16.8658 19.9808 0
      vertex -16.8658 19.9808 10.01
      vertex 16.8658 19.9808 10.01
    endloop
  endfacet
  facet normal 0 1 0
    outer loop
      vertex -16.8658 19.9808 10.01
      vertex 16.8658 19.9808 0
      vertex -16.8658 19.9808 0
    endloop
  endfacet
  facet normal 0.587787 -0.809016 0
    outer loop
      vertex 18.25 -19.5311 0
      vertex 18.842 -19.101 10.01
      vertex 18.25 -19.5311 10.01
    endloop
  endfacet
  facet normal 0.587787 -0.809016 0
    outer loop
      vertex 18.842 -19.101 10.01
      vertex 18.25 -19.5311 0
      vertex 18.842 -19.101 0
    endloop
  endfacet
  facet normal -0.587787 -0.809016 0
    outer loop
      vertex -18.842 -19.101 0
      vertex -18.25 -19.5311 10.01
      vertex -18.842 -19.101 10.01
    endloop
  endfacet
  facet normal -0.587787 -0.809016 -0
    outer loop
      vertex -18.25 -19.5311 10.01
      vertex -18.842 -19.101 0
      vertex -18.25 -19.5311 0
    endloop
  endfacet
  facet normal -1 0 0
    outer loop
      vertex -20 -16.5 0
      vertex -20 16.5 10.01
      vertex -20 16.5 0
    endloop
  endfacet
  facet normal -1 -0 0
    outer loop
      vertex -20 16.5 10.01
      vertex -20 -16.5 0
      vertex -20 -16.5 10.01
    endloop
  endfacet
  facet normal -0.406734 0.913546 0
    outer loop
      vertex -17.5816 19.8287 0
      vertex -18.25 19.5311 10.01
      vertex -17.5816 19.8287 10.01
    endloop
  endfacet
  facet normal -0.406734 0.913546 0
    outer loop
      vertex -18.25 19.5311 10.01
      vertex -17.5816 19.8287 0
      vertex -18.25 19.5311 0
    endloop
  endfacet
  facet normal 0.587787 0.809016 -0
    outer loop
      vertex 18.842 19.101 0
      vertex 18.25 19.5311 10.01
      vertex 18.842 19.101 10.01
    endloop
  endfacet
  facet normal 0.587787 0.809016 0
    outer loop
      vertex 18.25 19.5311 10.01
      vertex 18.842 19.101 0
      vertex 18.25 19.5311 0
    endloop
  endfacet
  facet normal 0.951057 -0.309017 0
    outer loop
      vertex 19.6974 -17.9236 10.01
      vertex 19.9235 -17.2277 0
      vertex 19.9235 -17.2277 10.01
    endloop
  endfacet
  facet normal 0.951057 -0.309017 0
    outer loop
      vertex 19.9235 -17.2277 0
      vertex 19.6974 -17.9236 10.01
      vertex 19.6974 -17.9236 0
    endloop
  endfacet
  facet normal 0.994522 -0.10453 0
    outer loop
      vertex 19.9235 -17.2277 10.01
      vertex 20 -16.5 0
      vertex 20 -16.5 10.01
    endloop
  endfacet
  facet normal 0.994522 -0.10453 0
    outer loop
      vertex 20 -16.5 0
      vertex 19.9235 -17.2277 10.01
      vertex 19.9235 -17.2277 0
    endloop
  endfacet
  facet normal 0.743146 -0.66913 0
    outer loop
      vertex 18.842 -19.101 10.01
      vertex 19.3316 -18.5572 0
      vertex 19.3316 -18.5572 10.01
    endloop
  endfacet
  facet normal 0.743146 -0.66913 0
    outer loop
      vertex 19.3316 -18.5572 0
      vertex 18.842 -19.101 10.01
      vertex 18.842 -19.101 0
    endloop
  endfacet
  facet normal 0.406734 -0.913546 0
    outer loop
      vertex 17.5816 -19.8287 0
      vertex 18.25 -19.5311 10.01
      vertex 17.5816 -19.8287 10.01
    endloop
  endfacet
  facet normal 0.406734 -0.913546 0
    outer loop
      vertex 18.25 -19.5311 10.01
      vertex 17.5816 -19.8287 0
      vertex 18.25 -19.5311 0
    endloop
  endfacet
  facet normal -0.406734 -0.913546 0
    outer loop
      vertex -18.25 -19.5311 0
      vertex -17.5816 -19.8287 10.01
      vertex -18.25 -19.5311 10.01
    endloop
  endfacet
  facet normal -0.406734 -0.913546 -0
    outer loop
      vertex -17.5816 -19.8287 10.01
      vertex -18.25 -19.5311 0
      vertex -17.5816 -19.8287 0
    endloop
  endfacet
  facet normal -0.994522 0.10453 0
    outer loop
      vertex -20 16.5 0
      vertex -19.9235 17.2277 10.01
      vertex -19.9235 17.2277 0
    endloop
  endfacet
  facet normal -0.994522 0.10453 0
    outer loop
      vertex -19.9235 17.2277 10.01
      vertex -20 16.5 0
      vertex -20 16.5 10.01
    endloop
  endfacet
  facet normal 0 0 1
    outer loop
      vertex 16.5 16.5 10.01
      vertex 20 16.5 10.01
      vertex 19.9235 17.2277 10.01
    endloop
  endfacet
  facet normal 0 0 1
    outer loop
      vertex 20 16.5 10.01
      vertex 16.5 16.5 10.01
      vertex 20 -16.5 10.01
    endloop
  endfacet
  facet normal 0 0 1
    outer loop
      vertex 16.5 16.5 10.01
      vertex 19.9235 17.2277 10.01
      vertex 19.6974 17.9236 10.01
    endloop
  endfacet
  facet normal 0 0 1
    outer loop
      vertex 16.5 -16.5 10.01
      vertex 20 -16.5 10.01
      vertex 16.5 16.5 10.01
    endloop
  endfacet
  facet normal 0 0 1
    outer loop
      vertex 16.5 16.5 10.01
      vertex 19.6974 17.9236 10.01
      vertex 19.3316 18.5572 10.01
    endloop
  endfacet
  facet normal 0 0 1
    outer loop
      vertex 20 -16.5 10.01
      vertex 16.5 -16.5 10.01
      vertex 19.9235 -17.2277 10.01
    endloop
  endfacet
  facet normal 0 0 1
    outer loop
      vertex 16.5 16.5 10.01
      vertex 19.3316 18.5572 10.01
      vertex 18.842 19.101 10.01
    endloop
  endfacet
  facet normal 0 0 1
    outer loop
      vertex 19.9235 -17.2277 10.01
      vertex 16.5 -16.5 10.01
      vertex 19.6974 -17.9236 10.01
    endloop
  endfacet
  facet normal 0 0 1
    outer loop
      vertex 16.5 16.5 10.01
      vertex 18.842 19.101 10.01
      vertex 18.25 19.5311 10.01
    endloop
  endfacet
  facet normal 0 0 1
    outer loop
      vertex 19.6974 -17.9236 10.01
      vertex 16.5 -16.5 10.01
      vertex 19.3316 -18.5572 10.01
    endloop
  endfacet
  facet normal 0 0 1
    outer loop
      vertex 16.5 16.5 10.01
      vertex 18.25 19.5311 10.01
      vertex 17.5816 19.8287 10.01
    endloop
  endfacet
  facet normal 0 0 1
    outer loop
      vertex 19.3316 -18.5572 10.01
      vertex 16.5 -16.5 10.01
      vertex 18.842 -19.101 10.01
    endloop
  endfacet
  facet normal 0 0 1
    outer loop
      vertex 16.5 16.5 10.01
      vertex 17.5816 19.8287 10.01
      vertex 16.8658 19.9808 10.01
    endloop
  endfacet
  facet normal 0 0 1
    outer loop
      vertex 18.842 -19.101 10.01
      vertex 16.5 -16.5 10.01
      vertex 18.25 -19.5311 10.01
    endloop
  endfacet
  facet normal 0 0 1
    outer loop
      vertex 18.25 -19.5311 10.01
      vertex 16.5 -16.5 10.01
      vertex 17.5816 -19.8287 10.01
    endloop
  endfacet
  facet normal 0 0 1
    outer loop
      vertex 16.8658 19.9808 10.01
      vertex -16.5 16.5 10.01
      vertex 16.5 16.5 10.01
    endloop
  endfacet
  facet normal -0 0 1
    outer loop
      vertex -17.5816 19.8287 10.01
      vertex -16.5 16.5 10.01
      vertex -16.8658 19.9808 10.01
    endloop
  endfacet
  facet normal -0 0 1
    outer loop
      vertex -16.8658 19.9808 10.01
      vertex -16.5 16.5 10.01
      vertex 16.8658 19.9808 10.01
    endloop
  endfacet
  facet normal 0 0 1
    outer loop
      vertex 17.5816 -19.8287 10.01
      vertex 16.5 -16.5 10.01
      vertex 16.8658 -19.9808 10.01
    endloop
  endfacet
  facet normal -0 0 1
    outer loop
      vertex -16.5 -16.5 10.01
      vertex 16.8658 -19.9808 10.01
      vertex 16.5 -16.5 10.01
    endloop
  endfacet
  facet normal 0 0 1
    outer loop
      vertex -16.5 -16.5 10.01
      vertex -16.8658 -19.9808 10.01
      vertex 16.8658 -19.9808 10.01
    endloop
  endfacet
  facet normal 0 0 1
    outer loop
      vertex -16.5 16.5 10.01
      vertex -20 16.5 10.01
      vertex -16.5 -16.5 10.01
    endloop
  endfacet
  facet normal -0 0 1
    outer loop
      vertex -18.25 19.5311 10.01
      vertex -16.5 16.5 10.01
      vertex -17.5816 19.8287 10.01
    endloop
  endfacet
  facet normal 0 0 1
    outer loop
      vertex -20 -16.5 10.01
      vertex -16.5 -16.5 10.01
      vertex -20 16.5 10.01
    endloop
  endfacet
  facet normal -0 0 1
    outer loop
      vertex -18.842 19.101 10.01
      vertex -16.5 16.5 10.01
      vertex -18.25 19.5311 10.01
    endloop
  endfacet
  facet normal 0 -0 1
    outer loop
      vertex -19.9235 -17.2277 10.01
      vertex -16.5 -16.5 10.01
      vertex -20 -16.5 10.01
    endloop
  endfacet
  facet normal -0 0 1
    outer loop
      vertex -19.3316 18.5572 10.01
      vertex -16.5 16.5 10.01
      vertex -18.842 19.101 10.01
    endloop
  endfacet
  facet normal 0 0 1
    outer loop
      vertex -16.5 -16.5 10.01
      vertex -17.5816 -19.8287 10.01
      vertex -16.8658 -19.9808 10.01
    endloop
  endfacet
  facet normal -0 0 1
    outer loop
      vertex -19.6974 17.9236 10.01
      vertex -16.5 16.5 10.01
      vertex -19.3316 18.5572 10.01
    endloop
  endfacet
  facet normal 0 0 1
    outer loop
      vertex -16.5 -16.5 10.01
      vertex -18.25 -19.5311 10.01
      vertex -17.5816 -19.8287 10.01
    endloop
  endfacet
  facet normal -0 0 1
    outer loop
      vertex -19.9235 17.2277 10.01
      vertex -16.5 16.5 10.01
      vertex -19.6974 17.9236 10.01
    endloop
  endfacet
  facet normal 0 0 1
    outer loop
      vertex -16.5 -16.5 10.01
      vertex -18.842 -19.101 10.01
      vertex -18.25 -19.5311 10.01
    endloop
  endfacet
  facet normal 0 0 1
    outer loop
      vertex -16.5 16.5 10.01
      vertex -19.9235 17.2277 10.01
      vertex -20 16.5 10.01
    endloop
  endfacet
  facet normal 0 0 1
    outer loop
      vertex -16.5 -16.5 10.01
      vertex -19.3316 -18.5572 10.01
      vertex -18.842 -19.101 10.01
    endloop
  endfacet
  facet normal 0 0 1
    outer loop
      vertex -16.5 -16.5 10.01
      vertex -19.6974 -17.9236 10.01
      vertex -19.3316 -18.5572 10.01
    endloop
  endfacet
  facet normal 0 0 1
    outer loop
      vertex -16.5 -16.5 10.01
      vertex -19.9235 -17.2277 10.01
      vertex -19.6974 -17.9236 10.01
    endloop
  endfacet
  facet normal -0.743146 0.66913 0
    outer loop
      vertex -19.3316 18.5572 0
      vertex -18.842 19.101 10.01
      vertex -18.842 19.101 0
    endloop
  endfacet
  facet normal -0.743146 0.66913 0
    outer loop
      vertex -18.842 19.101 10.01
      vertex -19.3316 18.5572 0
      vertex -19.3316 18.5572 10.01
    endloop
  endfacet
  facet normal -0.207913 0.978147 0
    outer loop
      vertex -16.8658 19.9808 0
      vertex -17.5816 19.8287 10.01
      vertex -16.8658 19.9808 10.01
    endloop
  endfacet
  facet normal -0.207913 0.978147 0
    outer loop
      vertex -17.5816 19.8287 10.01
      vertex -16.8658 19.9808 0
      vertex -17.5816 19.8287 0
    endloop
  endfacet
  facet normal -0.587787 0.809016 0
    outer loop
      vertex -18.25 19.5311 0
      vertex -18.842 19.101 10.01
      vertex -18.25 19.5311 10.01
    endloop
  endfacet
  facet normal -0.587787 0.809016 0
    outer loop
      vertex -18.842 19.101 10.01
      vertex -18.25 19.5311 0
      vertex -18.842 19.101 0
    endloop
  endfacet
  facet normal 0.207913 0.978147 -0
    outer loop
      vertex 17.5816 19.8287 0
      vertex 16.8658 19.9808 10.01
      vertex 17.5816 19.8287 10.01
    endloop
  endfacet
  facet normal 0.207913 0.978147 0
    outer loop
      vertex 16.8658 19.9808 10.01
      vertex 17.5816 19.8287 0
      vertex 16.8658 19.9808 0
    endloop
  endfacet
  facet normal 0.743146 0.66913 0
    outer loop
      vertex 19.3316 18.5572 10.01
      vertex 18.842 19.101 0
      vertex 18.842 19.101 10.01
    endloop
  endfacet
  facet normal 0.743146 0.66913 0
    outer loop
      vertex 18.842 19.101 0
      vertex 19.3316 18.5572 10.01
      vertex 19.3316 18.5572 0
    endloop
  endfacet
  facet normal 0.866025 0.5 0
    outer loop
      vertex 19.6974 17.9236 10.01
      vertex 19.3316 18.5572 0
      vertex 19.3316 18.5572 10.01
    endloop
  endfacet
  facet normal 0.866025 0.5 0
    outer loop
      vertex 19.3316 18.5572 0
      vertex 19.6974 17.9236 10.01
      vertex 19.6974 17.9236 0
    endloop
  endfacet
  facet normal 0.994522 0.10453 0
    outer loop
      vertex 20 16.5 10.01
      vertex 19.9235 17.2277 0
      vertex 19.9235 17.2277 10.01
    endloop
  endfacet
  facet normal 0.994522 0.10453 0
    outer loop
      vertex 19.9235 17.2277 0
      vertex 20 16.5 10.01
      vertex 20 16.5 0
    endloop
  endfacet
  facet normal 0.866025 -0.5 0
    outer loop
      vertex 19.3316 -18.5572 10.01
      vertex 19.6974 -17.9236 0
      vertex 19.6974 -17.9236 10.01
    endloop
  endfacet
  facet normal 0.866025 -0.5 0
    outer loop
      vertex 19.6974 -17.9236 0
      vertex 19.3316 -18.5572 10.01
      vertex 19.3316 -18.5572 0
    endloop
  endfacet
  facet normal -0.994522 -0.10453 0
    outer loop
      vertex -19.9235 -17.2277 0
      vertex -20 -16.5 10.01
      vertex -20 -16.5 0
    endloop
  endfacet
  facet normal -0.994522 -0.10453 0
    outer loop
      vertex -20 -16.5 10.01
      vertex -19.9235 -17.2277 0
      vertex -19.9235 -17.2277 10.01
    endloop
  endfacet
  facet normal -0.866025 -0.5 0
    outer loop
      vertex -19.3316 -18.5572 0
      vertex -19.6974 -17.9236 10.01
      vertex -19.6974 -17.9236 0
    endloop
  endfacet
  facet normal -0.866025 -0.5 0
    outer loop
      vertex -19.6974 -17.9236 10.01
      vertex -19.3316 -18.5572 0
      vertex -19.3316 -18.5572 10.01
    endloop
  endfacet
  facet normal 0 0 -1
    outer loop
      vertex 16.8658 -19.9808 0
      vertex 20 -16.5 0
      vertex 19.9235 -17.2277 0
    endloop
  endfacet
  facet normal 0 0 -1
    outer loop
      vertex -20 -16.5 0
      vertex 20 -16.5 0
      vertex 16.8658 -19.9808 0
    endloop
  endfacet
  facet normal 0 0 -1
    outer loop
      vertex 16.8658 -19.9808 0
      vertex 19.9235 -17.2277 0
      vertex 19.6974 -17.9236 0
    endloop
  endfacet
  facet normal 0 0 -1
    outer loop
      vertex 20 -16.5 0
      vertex -20 -16.5 0
      vertex 20 16.5 0
    endloop
  endfacet
  facet normal 0 0 -1
    outer loop
      vertex 16.8658 -19.9808 0
      vertex 19.6974 -17.9236 0
      vertex 19.3316 -18.5572 0
    endloop
  endfacet
  facet normal 0 0 -1
    outer loop
      vertex 20 16.5 0
      vertex 16.8658 19.9808 0
      vertex 19.9235 17.2277 0
    endloop
  endfacet
  facet normal 0 0 -1
    outer loop
      vertex 16.8658 -19.9808 0
      vertex 19.3316 -18.5572 0
      vertex 18.842 -19.101 0
    endloop
  endfacet
  facet normal 0 0 -1
    outer loop
      vertex 19.9235 17.2277 0
      vertex 16.8658 19.9808 0
      vertex 19.6974 17.9236 0
    endloop
  endfacet
  facet normal 0 0 -1
    outer loop
      vertex 16.8658 -19.9808 0
      vertex 18.842 -19.101 0
      vertex 18.25 -19.5311 0
    endloop
  endfacet
  facet normal 0 0 -1
    outer loop
      vertex 19.6974 17.9236 0
      vertex 16.8658 19.9808 0
      vertex 19.3316 18.5572 0
    endloop
  endfacet
  facet normal 0 0 -1
    outer loop
      vertex 16.8658 -19.9808 0
      vertex 18.25 -19.5311 0
      vertex 17.5816 -19.8287 0
    endloop
  endfacet
  facet normal 0 0 -1
    outer loop
      vertex 19.3316 18.5572 0
      vertex 16.8658 19.9808 0
      vertex 18.842 19.101 0
    endloop
  endfacet
  facet normal 0 0 -1
    outer loop
      vertex 18.842 19.101 0
      vertex 16.8658 19.9808 0
      vertex 18.25 19.5311 0
    endloop
  endfacet
  facet normal 0 0 -1
    outer loop
      vertex 18.25 19.5311 0
      vertex 16.8658 19.9808 0
      vertex 17.5816 19.8287 0
    endloop
  endfacet
  facet normal 0 0 -1
    outer loop
      vertex -20 -16.5 0
      vertex 16.8658 -19.9808 0
      vertex -16.8658 -19.9808 0
    endloop
  endfacet
  facet normal 0 0 -1
    outer loop
      vertex -20 16.5 0
      vertex 20 16.5 0
      vertex -20 -16.5 0
    endloop
  endfacet
  facet normal 0 0 -1
    outer loop
      vertex -20 -16.5 0
      vertex -16.8658 -19.9808 0
      vertex -17.5816 -19.8287 0
    endloop
  endfacet
  facet normal 0 0 -1
    outer loop
      vertex 20 16.5 0
      vertex -20 16.5 0
      vertex 16.8658 19.9808 0
    endloop
  endfacet
  facet normal 0 0 -1
    outer loop
      vertex -20 -16.5 0
      vertex -17.5816 -19.8287 0
      vertex -18.25 -19.5311 0
    endloop
  endfacet
  facet normal -0 0 -1
    outer loop
      vertex 16.8658 19.9808 0
      vertex -20 16.5 0
      vertex -16.8658 19.9808 0
    endloop
  endfacet
  facet normal 0 0 -1
    outer loop
      vertex -20 -16.5 0
      vertex -18.25 -19.5311 0
      vertex -18.842 -19.101 0
    endloop
  endfacet
  facet normal 0 0 -1
    outer loop
      vertex -16.8658 19.9808 0
      vertex -20 16.5 0
      vertex -17.5816 19.8287 0
    endloop
  endfacet
  facet normal 0 0 -1
    outer loop
      vertex -20 -16.5 0
      vertex -18.842 -19.101 0
      vertex -19.3316 -18.5572 0
    endloop
  endfacet
  facet normal 0 0 -1
    outer loop
      vertex -17.5816 19.8287 0
      vertex -20 16.5 0
      vertex -18.25 19.5311 0
    endloop
  endfacet
  facet normal 0 0 -1
    outer loop
      vertex -20 -16.5 0
      vertex -19.3316 -18.5572 0
      vertex -19.6974 -17.9236 0
    endloop
  endfacet
  facet normal 0 0 -1
    outer loop
      vertex -18.25 19.5311 0
      vertex -20 16.5 0
      vertex -18.842 19.101 0
    endloop
  endfacet
  facet normal 0 0 -1
    outer loop
      vertex -20 -16.5 0
      vertex -19.6974 -17.9236 0
      vertex -19.9235 -17.2277 0
    endloop
  endfacet
  facet normal 0 0 -1
    outer loop
      vertex -18.842 19.101 0
      vertex -20 16.5 0
      vertex -19.3316 18.5572 0
    endloop
  endfacet
  facet normal 0 0 -1
    outer loop
      vertex -19.3316 18.5572 0
      vertex -20 16.5 0
      vertex -19.6974 17.9236 0
    endloop
  endfacet
  facet normal 0 0 -1
    outer loop
      vertex -19.6974 17.9236 0
      vertex -20 16.5 0
      vertex -19.9235 17.2277 0
    endloop
  endfacet
  facet normal -0.951057 0.309017 0
    outer loop
      vertex -19.9235 17.2277 0
      vertex -19.6974 17.9236 10.01
      vertex -19.6974 17.9236 0
    endloop
  endfacet
  facet normal -0.951057 0.309017 0
    outer loop
      vertex -19.6974 17.9236 10.01
      vertex -19.9235 17.2277 0
      vertex -19.9235 17.2277 10.01
    endloop
  endfacet
  facet normal 0.406734 0.913546 -0
    outer loop
      vertex 18.25 19.5311 0
      vertex 17.5816 19.8287 10.01
      vertex 18.25 19.5311 10.01
    endloop
  endfacet
  facet normal 0.406734 0.913546 0
    outer loop
      vertex 17.5816 19.8287 10.01
      vertex 18.25 19.5311 0
      vertex 17.5816 19.8287 0
    endloop
  endfacet
  facet normal -0.951057 -0.309017 0
    outer loop
      vertex -19.6974 -17.9236 0
      vertex -19.9235 -17.2277 10.01
      vertex -19.9235 -17.2277 0
    endloop
  endfacet
  facet normal -0.951057 -0.309017 0
    outer loop
      vertex -19.9235 -17.2277 10.01
      vertex -19.6974 -17.9236 0
      vertex -19.6974 -17.9236 10.01
    endloop
  endfacet
  facet normal -0.743146 -0.66913 0
    outer loop
      vertex -18.842 -19.101 0
      vertex -19.3316 -18.5572 10.01
      vertex -19.3316 -18.5572 0
    endloop
  endfacet
  facet normal -0.743146 -0.66913 0
    outer loop
      vertex -19.3316 -18.5572 10.01
      vertex -18.842 -19.101 0
      vertex -18.842 -19.101 10.01
    endloop
  endfacet
  facet normal -1 0 0
    outer loop
      vertex 16.5 -16.5 6.99
      vertex 16.5 16.5 10.01
      vertex 16.5 16.5 6.99
    endloop
  endfacet
  facet normal -1 -0 0
    outer loop
      vertex 16.5 16.5 10.01
      vertex 16.5 -16.5 6.99
      vertex 16.5 -16.5 10.01
    endloop
  endfacet
  facet normal 1 -0 0
    outer loop
      vertex -16.5 -16.5 10.01
      vertex -16.5 16.5 6.99
      vertex -16.5 16.5 10.01
    endloop
  endfacet
  facet normal 1 0 0
    outer loop
      vertex -16.5 16.5 6.99
      vertex -16.5 -16.5 10.01
      vertex -16.5 -16.5 6.99
    endloop
  endfacet
  facet normal 0 1 -0
    outer loop
      vertex 16.5 -16.5 6.99
      vertex -16.5 -16.5 10.01
      vertex 16.5 -16.5 10.01
    endloop
  endfacet
  facet normal 0 1 0
    outer loop
      vertex -16.5 -16.5 10.01
      vertex 16.5 -16.5 6.99
      vertex -16.5 -16.5 6.99
    endloop
  endfacet
  facet normal 0 -1 0
    outer loop
      vertex -16.5 16.5 6.99
      vertex 16.5 16.5 10.01
      vertex -16.5 16.5 10.01
    endloop
  endfacet
  facet normal 0 -1 -0
    outer loop
      vertex 16.5 16.5 10.01
      vertex -16.5 16.5 6.99
      vertex 16.5 16.5 6.99
    endloop
  endfacet
  facet normal -0.707107 0 0.707107
    outer loop
      vertex 5.66516 -10.0387 5
      vertex 7.65516 10.1842 6.99
      vertex 5.66516 10.1842 5
    endloop
  endfacet
  facet normal -0.707107 0 0.707107
    outer loop
      vertex 7.65516 10.1842 6.99
      vertex 5.66516 -10.0387 5
      vertex 7.65516 -10.0387 6.99
    endloop
  endfacet
  facet normal 0 -0.709046 0.705162
    outer loop
      vertex -6.68683 3.62823 5
      vertex 1.20316 5.60733 6.99
      vertex -6.89484 5.60733 6.99
    endloop
  endfacet
  facet normal 0 -0.709046 0.705162
    outer loop
      vertex 1.20316 5.60733 6.99
      vertex -6.68683 3.62823 5
      vertex 3.19316 3.62823 5
    endloop
  endfacet
  facet normal -0 0 1
    outer loop
      vertex -6.21483 -1.64975 5
      vertex -3.74283 -4.62175 5
      vertex -3.74283 -1.64975 5
    endloop
  endfacet
  facet normal 0 -0 1
    outer loop
      vertex -5.88452 -7.38574 5
      vertex -3.74283 -4.62175 5
      vertex -6.00437 -6.87437 5
    endloop
  endfacet
  facet normal 0 -0 1
    outer loop
      vertex -5.4693 -8.28874 5
      vertex -3.74283 -4.62175 5
      vertex -5.57615 -8.06299 5
    endloop
  endfacet
  facet normal 0 0 1
    outer loop
      vertex -3.74283 -4.62175 5
      vertex -5.4693 -8.28874 5
      vertex -4.90683 -9.01074 5
    endloop
  endfacet
  facet normal 0 0 1
    outer loop
      vertex -5.4693 -8.28874 5
      vertex -5.49906 -8.2323 5
      vertex -5.47908 -8.27618 5
    endloop
  endfacet
  facet normal 0 0 1
    outer loop
      vertex -5.4693 -8.28874 5
      vertex -5.57615 -8.06299 5
      vertex -5.49906 -8.2323 5
    endloop
  endfacet
  facet normal 0 0 1
    outer loop
      vertex -3.74283 -4.62175 5
      vertex -4.90683 -9.01074 5
      vertex -4.19014 -9.58212 5
    endloop
  endfacet
  facet normal 0 -0 1
    outer loop
      vertex -5.57615 -8.06299 5
      vertex -3.74283 -4.62175 5
      vertex -5.70464 -7.78081 5
    endloop
  endfacet
  facet normal 0 0 1
    outer loop
      vertex -3.74283 -4.62175 5
      vertex -5.88452 -7.38574 5
      vertex -5.70464 -7.78081 5
    endloop
  endfacet
  facet normal 0 0 1
    outer loop
      vertex -5.88452 -7.38574 5
      vertex -6.00437 -6.87437 5
      vertex -5.88782 -7.37849 5
    endloop
  endfacet
  facet normal 0 -0 1
    outer loop
      vertex -6.13307 -6.31767 5
      vertex -3.74283 -4.62175 5
      vertex -6.13804 -6.24324 5
    endloop
  endfacet
  facet normal 0 0 1
    outer loop
      vertex -3.74283 -4.62175 5
      vertex -6.13307 -6.31767 5
      vertex -6.00437 -6.87437 5
    endloop
  endfacet
  facet normal 0 0 1
    outer loop
      vertex -3.74283 -4.62175 5
      vertex -6.1882 -5.49237 5
      vertex -6.13804 -6.24324 5
    endloop
  endfacet
  facet normal 0 0 1
    outer loop
      vertex -3.74283 -4.62175 5
      vertex -6.21483 -1.64975 5
      vertex -6.21483 -5.09375 5
    endloop
  endfacet
  facet normal 0 0 1
    outer loop
      vertex -3.74283 -4.62175 5
      vertex -6.21483 -5.09375 5
      vertex -6.1882 -5.49237 5
    endloop
  endfacet
  facet normal -0 0 1
    outer loop
      vertex -6.68683 3.62823 5
      vertex 3.19316 1.68425 5
      vertex 3.19316 3.62823 5
    endloop
  endfacet
  facet normal 0 0 1
    outer loop
      vertex 3.19316 1.68425 5
      vertex -6.68683 3.62823 5
      vertex -6.68683 1.68425 5
    endloop
  endfacet
  facet normal -0 0 1
    outer loop
      vertex 3.19316 1.68425 5
      vertex 5.66516 -10.0387 5
      vertex 5.66516 10.1842 5
    endloop
  endfacet
  facet normal 0 0 1
    outer loop
      vertex 5.66516 -10.0387 5
      vertex 3.41516 -7.62175 5
      vertex 3.72116 -10.0387 5
    endloop
  endfacet
  facet normal -0 0 1
    outer loop
      vertex 3.12616 -4.30106 5
      vertex 5.66516 -10.0387 5
      vertex 3.19316 -3.06573 5
    endloop
  endfacet
  facet normal 0 0 1
    outer loop
      vertex 3.19316 3.62823 5
      vertex 5.66516 10.1842 5
      vertex 3.19316 10.1842 5
    endloop
  endfacet
  facet normal 0 0 1
    outer loop
      vertex 3.19316 1.68425 5
      vertex 5.66516 10.1842 5
      vertex 3.19316 3.62823 5
    endloop
  endfacet
  facet normal 0 0 1
    outer loop
      vertex 5.66516 -10.0387 5
      vertex 3.19316 1.68425 5
      vertex 3.19316 -3.06573 5
    endloop
  endfacet
  facet normal 0 0 1
    outer loop
      vertex 5.66516 -10.0387 5
      vertex 3.12616 -4.30106 5
      vertex 3.41516 -7.62175 5
    endloop
  endfacet
  facet normal -0 0 1
    outer loop
      vertex 2.92516 -5.368 5
      vertex 3.41516 -7.62175 5
      vertex 3.12616 -4.30106 5
    endloop
  endfacet
  facet normal -0 0 1
    outer loop
      vertex 2.59016 -6.26656 5
      vertex 3.41516 -7.62175 5
      vertex 2.92516 -5.368 5
    endloop
  endfacet
  facet normal 0 0 1
    outer loop
      vertex 3.41516 -7.62175 5
      vertex 2.59016 -6.26656 5
      vertex 3.27615 -7.62175 5
    endloop
  endfacet
  facet normal -0 0 1
    outer loop
      vertex 2.12115 -6.99675 5
      vertex 3.27615 -7.62175 5
      vertex 2.59016 -6.26656 5
    endloop
  endfacet
  facet normal 0 0 1
    outer loop
      vertex 3.27615 -7.62175 5
      vertex 2.12115 -6.99675 5
      vertex 3.08198 -7.96574 5
    endloop
  endfacet
  facet normal 0 0 1
    outer loop
      vertex 3.08198 -7.96574 5
      vertex 2.12115 -6.99675 5
      vertex 2.97385 -8.1573 5
    endloop
  endfacet
  facet normal 0 0 1
    outer loop
      vertex 2.97385 -8.1573 5
      vertex 2.12115 -6.99675 5
      vertex 2.9351 -8.20799 5
    endloop
  endfacet
  facet normal -0 0 1
    outer loop
      vertex 1.54204 -7.562 5
      vertex 2.9351 -8.20799 5
      vertex 2.12115 -6.99675 5
    endloop
  endfacet
  facet normal 0 0 1
    outer loop
      vertex 2.9351 -8.20799 5
      vertex 1.54204 -7.562 5
      vertex 2.87337 -8.28874 5
    endloop
  endfacet
  facet normal 0 0 1
    outer loop
      vertex 2.87337 -8.28874 5
      vertex 1.54204 -7.562 5
      vertex 2.59491 -8.653 5
    endloop
  endfacet
  facet normal -0 0 1
    outer loop
      vertex 1.44371 -7.62175 5
      vertex 2.59491 -8.653 5
      vertex 1.54204 -7.562 5
    endloop
  endfacet
  facet normal 0 0 1
    outer loop
      vertex 2.59491 -8.653 5
      vertex 1.44371 -7.62175 5
      vertex 2.13934 -9.10881 5
    endloop
  endfacet
  facet normal -0 0 1
    outer loop
      vertex 0.877655 -7.96574 5
      vertex 2.13934 -9.10881 5
      vertex 1.44371 -7.62175 5
    endloop
  endfacet
  facet normal 0 0 1
    outer loop
      vertex 2.13934 -9.10881 5
      vertex 0.877655 -7.96574 5
      vertex 1.60716 -9.52475 5
    endloop
  endfacet
  facet normal 0 0 1
    outer loop
      vertex 1.60716 -9.52475 5
      vertex 0.877655 -7.96574 5
      vertex 0.997971 -9.87125 5
    endloop
  endfacet
  facet normal -0 0 1
    outer loop
      vertex 0.128036 -8.20799 5
      vertex 0.997971 -9.87125 5
      vertex 0.877655 -7.96574 5
    endloop
  endfacet
  facet normal 0 0 1
    outer loop
      vertex 0.997971 -9.87125 5
      vertex 0.128036 -8.20799 5
      vertex 0.312408 -10.1187 5
    endloop
  endfacet
  facet normal -0 0 1
    outer loop
      vertex -0.706818 -8.28874 5
      vertex 0.312408 -10.1187 5
      vertex 0.128036 -8.20799 5
    endloop
  endfacet
  facet normal 0 0 1
    outer loop
      vertex 0.312408 -10.1187 5
      vertex -0.706818 -8.28874 5
      vertex -0.449509 -10.2672 5
    endloop
  endfacet
  facet normal 0 0 1
    outer loop
      vertex -0.706818 -8.28874 5
      vertex -1.28783 -10.3167 5
      vertex -0.449509 -10.2672 5
    endloop
  endfacet
  facet normal 0 0 1
    outer loop
      vertex -1.3672 -8.2323 5
      vertex -1.28783 -10.3167 5
      vertex -0.706818 -8.28874 5
    endloop
  endfacet
  facet normal 0 0 1
    outer loop
      vertex -2.38063 -10.2351 5
      vertex -1.3672 -8.2323 5
      vertex -1.95633 -8.06299 5
    endloop
  endfacet
  facet normal 0 0 1
    outer loop
      vertex -1.3672 -8.2323 5
      vertex -2.38063 -10.2351 5
      vertex -1.28783 -10.3167 5
    endloop
  endfacet
  facet normal 0 0 1
    outer loop
      vertex -3.34807 -9.99025 5
      vertex -1.95633 -8.06299 5
      vertex -2.4742 -7.78081 5
    endloop
  endfacet
  facet normal 0 0 1
    outer loop
      vertex -4.19014 -9.58212 5
      vertex -2.4742 -7.78081 5
      vertex -2.92082 -7.38574 5
    endloop
  endfacet
  facet normal 0 0 1
    outer loop
      vertex -4.19014 -9.58212 5
      vertex -2.92082 -7.38574 5
      vertex -3.28046 -6.87437 5
    endloop
  endfacet
  facet normal 0 0 1
    outer loop
      vertex -1.95633 -8.06299 5
      vertex -3.34807 -9.99025 5
      vertex -2.38063 -10.2351 5
    endloop
  endfacet
  facet normal 0 0 1
    outer loop
      vertex -4.19014 -9.58212 5
      vertex -3.28046 -6.87437 5
      vertex -3.53732 -6.24324 5
    endloop
  endfacet
  facet normal 0 0 1
    outer loop
      vertex -4.19014 -9.58212 5
      vertex -3.53732 -6.24324 5
      vertex -3.69145 -5.49237 5
    endloop
  endfacet
  facet normal 0 0 1
    outer loop
      vertex -2.4742 -7.78081 5
      vertex -4.19014 -9.58212 5
      vertex -3.34807 -9.99025 5
    endloop
  endfacet
  facet normal 0 0 1
    outer loop
      vertex -4.19014 -9.58212 5
      vertex -3.69145 -5.49237 5
      vertex -3.74283 -4.62175 5
    endloop
  endfacet
  facet normal 0.674343 0.219107 0.705162
    outer loop
      vertex -8.50478 0.874845 6.99
      vertex -6.68683 1.68425 5
      vertex -8.63334 1.27051 6.99
    endloop
  endfacet
  facet normal 0.147419 -0.693552 0.705162
    outer loop
      vertex -6.68683 3.62823 5
      vertex -6.89484 5.60733 6.99
      vertex -7.30177 5.52084 6.99
    endloop
  endfacet
  facet normal 0.705162 0.0741161 0.705162
    outer loop
      vertex -8.63334 1.27051 6.99
      vertex -6.68683 1.68425 5
      vertex -8.67683 1.68425 6.99
    endloop
  endfacet
  facet normal 0.147419 0.693552 0.705162
    outer loop
      vertex -6.68683 1.68425 5
      vertex -7.12496 -0.0733565 6.82026
      vertex -6.86873 -0.0464254 6.74021
    endloop
  endfacet
  facet normal 0.147419 0.693552 0.705162
    outer loop
      vertex -7.12496 -0.0733565 6.82026
      vertex -6.68683 1.68425 5
      vertex -7.26777 -0.103712 6.87997
    endloop
  endfacet
  facet normal 0 0.709046 0.705162
    outer loop
      vertex 3.19316 1.68425 5
      vertex -2.29965 -0.294848 6.99
      vertex 1.20316 -0.294848 6.99
    endloop
  endfacet
  facet normal 2.95274e-07 0.709046 0.705162
    outer loop
      vertex -2.29965 -0.294848 6.99
      vertex 3.19316 1.68425 5
      vertex -2.45899 -0.223904 6.91867
    endloop
  endfacet
  facet normal -5.99708e-08 0.709046 0.705162
    outer loop
      vertex -2.45899 -0.223904 6.91867
      vertex 3.19316 1.68425 5
      vertex -2.84686 -0.0978795 6.79195
    endloop
  endfacet
  facet normal -1.48509e-07 0.709047 0.705162
    outer loop
      vertex -2.84686 -0.0978795 6.79195
      vertex 3.19316 1.68425 5
      vertex -3.21329 -0.0199915 6.71363
    endloop
  endfacet
  facet normal 5.42704e-07 0.709047 0.705161
    outer loop
      vertex -3.21329 -0.0199915 6.71363
      vertex -6.68683 1.68425 5
      vertex -3.56762 0.0172501 6.67618
    endloop
  endfacet
  facet normal -0 0.709046 0.705162
    outer loop
      vertex -6.68683 1.68425 5
      vertex -3.21329 -0.0199915 6.71363
      vertex 3.19316 1.68425 5
    endloop
  endfacet
  facet normal 0 0.709046 0.705162
    outer loop
      vertex -3.56762 0.0172501 6.67618
      vertex -6.68683 1.68425 5
      vertex -6.39004 0.0172501 6.67618
    endloop
  endfacet
  facet normal -7.10242e-07 0.709046 0.705162
    outer loop
      vertex -6.74437 -0.0199915 6.71363
      vertex -6.68683 1.68425 5
      vertex -6.86873 -0.0464254 6.74021
    endloop
  endfacet
  facet normal -4.27965e-07 0.709046 0.705162
    outer loop
      vertex -6.39004 0.0172501 6.67618
      vertex -6.68683 1.68425 5
      vertex -6.74437 -0.0199915 6.71363
    endloop
  endfacet
  facet normal 0.526923 -0.474446 0.705162
    outer loop
      vertex -6.68683 3.62823 5
      vertex -8.0184 5.10709 6.99
      vertex -8.29677 4.79793 6.99
    endloop
  endfacet
  facet normal 0.705162 -0.0741161 0.705162
    outer loop
      vertex -6.68683 3.62823 5
      vertex -8.63334 4.04198 6.99
      vertex -8.67683 3.62823 6.99
    endloop
  endfacet
  facet normal 0.416768 0.57363 0.705162
    outer loop
      vertex -7.68183 -0.0391396 6.99
      vertex -6.68683 1.68425 5
      vertex -8.0184 0.205392 6.99
    endloop
  endfacet
  facet normal 0.614052 -0.354523 0.705162
    outer loop
      vertex -6.68683 3.62823 5
      vertex -8.29677 4.79793 6.99
      vertex -8.50478 4.43764 6.99
    endloop
  endfacet
  facet normal 0.707107 -0 0.707107
    outer loop
      vertex -8.67683 1.68425 6.99
      vertex -6.68683 3.62823 5
      vertex -8.67683 3.62823 6.99
    endloop
  endfacet
  facet normal 0.707107 0 0.707107
    outer loop
      vertex -6.68683 3.62823 5
      vertex -8.67683 1.68425 6.99
      vertex -6.68683 1.68425 5
    endloop
  endfacet
  facet normal 0.288396 0.647746 0.705162
    outer loop
      vertex -7.68183 -0.0391396 6.99
      vertex -7.26777 -0.103712 6.87997
      vertex -6.68683 1.68425 5
    endloop
  endfacet
  facet normal 0.288396 0.647746 0.705162
    outer loop
      vertex -7.26777 -0.103712 6.87997
      vertex -7.68183 -0.0391396 6.99
      vertex -7.48542 -0.126588 6.99
    endloop
  endfacet
  facet normal 0.614052 0.354523 0.705162
    outer loop
      vertex -8.29677 0.514557 6.99
      vertex -6.68683 1.68425 5
      vertex -8.50478 0.874845 6.99
    endloop
  endfacet
  facet normal 0.288395 -0.647746 0.705162
    outer loop
      vertex -6.68683 3.62823 5
      vertex -7.30177 5.52084 6.99
      vertex -7.68183 5.35162 6.99
    endloop
  endfacet
  facet normal 0.674343 -0.219107 0.705162
    outer loop
      vertex -6.68683 3.62823 5
      vertex -8.50478 4.43764 6.99
      vertex -8.63334 4.04198 6.99
    endloop
  endfacet
  facet normal 0.526923 0.474446 0.705162
    outer loop
      vertex -8.0184 0.205392 6.99
      vertex -6.68683 1.68425 5
      vertex -8.29677 0.514557 6.99
    endloop
  endfacet
  facet normal 0.416768 -0.57363 0.705162
    outer loop
      vertex -6.68683 3.62823 5
      vertex -7.68183 5.35162 6.99
      vertex -8.0184 5.10709 6.99
    endloop
  endfacet
  facet normal 0.707107 0 0.707107
    outer loop
      vertex 3.19316 -3.06573 5
      vertex 1.20316 -0.294848 6.99
      vertex 1.20316 -3.06573 6.99
    endloop
  endfacet
  facet normal 0.707107 0 0.707107
    outer loop
      vertex 1.20316 -0.294848 6.99
      vertex 3.19316 -3.06573 5
      vertex 3.19316 1.68425 5
    endloop
  endfacet
  facet normal 0.707107 -0 0.707107
    outer loop
      vertex 1.20316 5.60733 6.99
      vertex 3.19316 10.1842 5
      vertex 1.20316 10.1842 6.99
    endloop
  endfacet
  facet normal 0.707107 0 0.707107
    outer loop
      vertex 3.19316 10.1842 5
      vertex 1.20316 5.60733 6.99
      vertex 3.19316 3.62823 5
    endloop
  endfacet
  facet normal -0.674343 -0.219108 0.705162
    outer loop
      vertex 7.61167 10.598 6.99
      vertex 7.48312 10.9937 6.99
      vertex 5.66516 10.1842 5
    endloop
  endfacet
  facet normal 0.705162 -0.0741159 0.705162
    outer loop
      vertex 3.19316 10.1842 5
      vertex 1.24665 10.598 6.99
      vertex 1.20316 10.1842 6.99
    endloop
  endfacet
  facet normal 0.147418 -0.693552 0.705162
    outer loop
      vertex 3.19316 10.1842 5
      vertex 2.98515 12.1633 6.99
      vertex 2.57822 12.0769 6.99
    endloop
  endfacet
  facet normal 0 -0.709046 0.705162
    outer loop
      vertex 3.19316 10.1842 5
      vertex 5.87317 12.1633 6.99
      vertex 2.98515 12.1633 6.99
    endloop
  endfacet
  facet normal 0 -0.709046 0.705162
    outer loop
      vertex 5.87317 12.1633 6.99
      vertex 3.19316 10.1842 5
      vertex 5.66516 10.1842 5
    endloop
  endfacet
  facet normal 0.526924 -0.474445 0.705162
    outer loop
      vertex 3.19316 10.1842 5
      vertex 1.86159 11.6631 6.99
      vertex 1.58322 11.3539 6.99
    endloop
  endfacet
  facet normal 0.288395 -0.647746 0.705162
    outer loop
      vertex 3.19316 10.1842 5
      vertex 2.57822 12.0769 6.99
      vertex 2.19816 11.9076 6.99
    endloop
  endfacet
  facet normal 0.674343 -0.219108 0.705162
    outer loop
      vertex 3.19316 10.1842 5
      vertex 1.37521 10.9937 6.99
      vertex 1.24665 10.598 6.99
    endloop
  endfacet
  facet normal -0.288395 -0.647746 0.705162
    outer loop
      vertex 6.66016 11.9076 6.99
      vertex 6.2801 12.0769 6.99
      vertex 5.66516 10.1842 5
    endloop
  endfacet
  facet normal -0.526924 -0.474445 0.705162
    outer loop
      vertex 7.2751 11.3539 6.99
      vertex 6.99673 11.6631 6.99
      vertex 5.66516 10.1842 5
    endloop
  endfacet
  facet normal -0.705162 -0.0741161 0.705162
    outer loop
      vertex 7.65516 10.1842 6.99
      vertex 7.61167 10.598 6.99
      vertex 5.66516 10.1842 5
    endloop
  endfacet
  facet normal 0.416768 -0.57363 0.705162
    outer loop
      vertex 3.19316 10.1842 5
      vertex 2.19816 11.9076 6.99
      vertex 1.86159 11.6631 6.99
    endloop
  endfacet
  facet normal 0.614052 -0.354523 0.705162
    outer loop
      vertex 3.19316 10.1842 5
      vertex 1.58322 11.3539 6.99
      vertex 1.37521 10.9937 6.99
    endloop
  endfacet
  facet normal -0.614052 -0.354523 0.705162
    outer loop
      vertex 7.48312 10.9937 6.99
      vertex 7.2751 11.3539 6.99
      vertex 5.66516 10.1842 5
    endloop
  endfacet
  facet normal -0.147418 -0.693552 0.705162
    outer loop
      vertex 6.2801 12.0769 6.99
      vertex 5.87317 12.1633 6.99
      vertex 5.66516 10.1842 5
    endloop
  endfacet
  facet normal -0.416768 -0.57363 0.705162
    outer loop
      vertex 6.99673 11.6631 6.99
      vertex 6.66016 11.9076 6.99
      vertex 5.66516 10.1842 5
    endloop
  endfacet
  facet normal 0.706587 -0.0383239 0.706587
    outer loop
      vertex 1.15009 -4.04419 6.99
      vertex 3.19316 -3.06573 5
      vertex 1.20316 -3.06573 6.99
    endloop
  endfacet
  facet normal 0.706587 -0.0383239 0.706587
    outer loop
      vertex 3.19316 -3.06573 5
      vertex 1.15009 -4.04419 6.99
      vertex 3.12616 -4.30106 5
    endloop
  endfacet
  facet normal 0.694977 -0.130929 0.707011
    outer loop
      vertex 0.997998 -4.85151 6.99
      vertex 3.12616 -4.30106 5
      vertex 1.15009 -4.04419 6.99
    endloop
  endfacet
  facet normal 0.694977 -0.130929 0.707011
    outer loop
      vertex 3.12616 -4.30106 5
      vertex 0.997998 -4.85151 6.99
      vertex 2.92516 -5.368 5
    endloop
  endfacet
  facet normal -0.674343 0.219108 0.705162
    outer loop
      vertex 7.48312 -10.8481 6.99
      vertex 7.61167 -10.4525 6.99
      vertex 5.66516 -10.0387 5
    endloop
  endfacet
  facet normal -0.526924 0.474445 0.705162
    outer loop
      vertex 6.99673 -11.5176 6.99
      vertex 7.2751 -11.2084 6.99
      vertex 5.66516 -10.0387 5
    endloop
  endfacet
  facet normal 0.674343 0.219109 0.705162
    outer loop
      vertex 2.49139 -10.5068 6.32146
      vertex 3.72116 -10.0387 5
      vertex 2.55866 -10.2858 6.18848
    endloop
  endfacet
  facet normal 0.674343 0.219108 0.705162
    outer loop
      vertex 3.72116 -10.0387 5
      vertex 2.49139 -10.5068 6.32146
      vertex 2.46119 -10.5997 6.37921
    endloop
  endfacet
  facet normal -0.147418 0.693552 0.705162
    outer loop
      vertex 5.87317 -12.0178 6.99
      vertex 6.2801 -11.9313 6.99
      vertex 5.66516 -10.0387 5
    endloop
  endfacet
  facet normal 0.702729 0.0889685 0.705872
    outer loop
      vertex 3.26637 -8.04784 5.20184
      vertex 3.41516 -7.62175 5
      vertex 3.33153 -7.71642 5.09519
    endloop
  endfacet
  facet normal 0.70273 0.0889681 0.705872
    outer loop
      vertex 3.41516 -7.62175 5
      vertex 3.26637 -8.04784 5.20184
      vertex 3.72116 -10.0387 5
    endloop
  endfacet
  facet normal 0.702731 0.0889685 0.705871
    outer loop
      vertex 3.22303 -8.26825 5.27276
      vertex 3.72116 -10.0387 5
      vertex 3.26637 -8.04784 5.20184
    endloop
  endfacet
  facet normal 0.702732 0.0889689 0.70587
    outer loop
      vertex 3.21069 -8.32938 5.29275
      vertex 3.72116 -10.0387 5
      vertex 3.22303 -8.26825 5.27276
    endloop
  endfacet
  facet normal 0.702729 0.0889674 0.705873
    outer loop
      vertex 3.19295 -8.39533 5.31873
      vertex 3.72116 -10.0387 5
      vertex 3.21069 -8.32938 5.29275
    endloop
  endfacet
  facet normal 0.702732 0.0889689 0.70587
    outer loop
      vertex 3.16469 -8.5004 5.3601
      vertex 3.72116 -10.0387 5
      vertex 3.19295 -8.39533 5.31873
    endloop
  endfacet
  facet normal 0.70273 0.0889681 0.705872
    outer loop
      vertex 3.03723 -8.97436 5.54674
      vertex 3.72116 -10.0387 5
      vertex 3.16469 -8.5004 5.3601
    endloop
  endfacet
  facet normal 0.702731 0.0889686 0.705871
    outer loop
      vertex 2.9977 -9.10035 5.60196
      vertex 3.72116 -10.0387 5
      vertex 3.03723 -8.97436 5.54674
    endloop
  endfacet
  facet normal 0.70273 0.0889679 0.705872
    outer loop
      vertex 2.75957 -9.79765 5.92692
      vertex 3.72116 -10.0387 5
      vertex 2.9977 -9.10035 5.60196
    endloop
  endfacet
  facet normal 0.70273 0.0889679 0.705872
    outer loop
      vertex 3.72116 -10.0387 5
      vertex 2.75957 -9.79765 5.92692
      vertex 2.55866 -10.2858 6.18848
    endloop
  endfacet
  facet normal 0.288395 0.647746 0.705162
    outer loop
      vertex 3.10622 -11.9313 6.99
      vertex 3.72116 -10.0387 5
      vertex 2.72616 -11.7621 6.99
    endloop
  endfacet
  facet normal 0.526924 0.474445 0.705162
    outer loop
      vertex 2.3635 -11.0251 6.67816
      vertex 2.38959 -11.5176 6.99
      vertex 3.72116 -10.0387 5
    endloop
  endfacet
  facet normal 0.526924 0.474445 0.705162
    outer loop
      vertex 2.38959 -11.5176 6.99
      vertex 2.3635 -11.0251 6.67816
      vertex 2.30113 -11.4194 6.99
    endloop
  endfacet
  facet normal -0.705162 0.0741161 0.705162
    outer loop
      vertex 7.61167 -10.4525 6.99
      vertex 7.65516 -10.0387 6.99
      vertex 5.66516 -10.0387 5
    endloop
  endfacet
  facet normal -0.614052 0.354523 0.705162
    outer loop
      vertex 7.2751 -11.2084 6.99
      vertex 7.48312 -10.8481 6.99
      vertex 5.66516 -10.0387 5
    endloop
  endfacet
  facet normal -0.416767 0.573631 0.705162
    outer loop
      vertex 6.66016 -11.7621 6.99
      vertex 6.99673 -11.5176 6.99
      vertex 5.66516 -10.0387 5
    endloop
  endfacet
  facet normal 0 0.709046 0.705162
    outer loop
      vertex 5.66516 -10.0387 5
      vertex 3.51315 -12.0178 6.99
      vertex 5.87317 -12.0178 6.99
    endloop
  endfacet
  facet normal 0 0.709046 0.705162
    outer loop
      vertex 3.51315 -12.0178 6.99
      vertex 5.66516 -10.0387 5
      vertex 3.72116 -10.0387 5
    endloop
  endfacet
  facet normal 0.147418 0.693552 0.705162
    outer loop
      vertex 3.51315 -12.0178 6.99
      vertex 3.72116 -10.0387 5
      vertex 3.10622 -11.9313 6.99
    endloop
  endfacet
  facet normal -0.288396 0.647746 0.705162
    outer loop
      vertex 6.2801 -11.9313 6.99
      vertex 6.66016 -11.7621 6.99
      vertex 5.66516 -10.0387 5
    endloop
  endfacet
  facet normal 0.614052 0.354523 0.705162
    outer loop
      vertex 2.39839 -10.8952 6.58245
      vertex 3.72116 -10.0387 5
      vertex 2.46119 -10.5997 6.37921
    endloop
  endfacet
  facet normal 0.614051 0.354525 0.705162
    outer loop
      vertex 3.72116 -10.0387 5
      vertex 2.39839 -10.8952 6.58245
      vertex 2.3635 -11.0251 6.67816
    endloop
  endfacet
  facet normal 0.416768 0.57363 0.705162
    outer loop
      vertex 2.72616 -11.7621 6.99
      vertex 3.72116 -10.0387 5
      vertex 2.38959 -11.5176 6.99
    endloop
  endfacet
  facet normal 0 0.709045 0.705163
    outer loop
      vertex 3.33153 -7.71642 5.09519
      vertex 3.41516 -7.62175 5
      vertex 3.27615 -7.62175 5
    endloop
  endfacet
  facet normal 0.367267 -0.604352 0.707017
    outer loop
      vertex 1.44371 -7.62175 5
      vertex 1.54204 -7.562 5
      vertex 1.01458 -6.87847 5.85827
    endloop
  endfacet
  facet normal 0.663198 -0.247247 0.706426
    outer loop
      vertex 0.804585 -5.37031 6.99
      vertex 2.92516 -5.368 5
      vertex 0.997998 -4.85151 6.99
    endloop
  endfacet
  facet normal 0.663198 -0.247247 0.706426
    outer loop
      vertex 2.92516 -5.368 5
      vertex 0.804585 -5.37031 6.99
      vertex 2.59016 -6.26656 5
    endloop
  endfacet
  facet normal 0.595441 -0.382456 0.706524
    outer loop
      vertex 0.575702 -5.72665 6.99
      vertex 2.59016 -6.26656 5
      vertex 0.804585 -5.37031 6.99
    endloop
  endfacet
  facet normal 0.595441 -0.382457 0.706524
    outer loop
      vertex 2.59016 -6.26656 5
      vertex 0.575702 -5.72665 6.99
      vertex 2.12115 -6.99675 5
    endloop
  endfacet
  facet normal 0.494104 -0.506228 0.70682
    outer loop
      vertex 2.12115 -6.99675 5
      vertex 1.01458 -6.87847 5.85827
      vertex 1.54204 -7.562 5
    endloop
  endfacet
  facet normal 0.494103 -0.506228 0.70682
    outer loop
      vertex 0.575702 -5.72665 6.99
      vertex 1.01458 -6.87847 5.85827
      vertex 2.12115 -6.99675 5
    endloop
  endfacet
  facet normal 0.494103 -0.506228 0.70682
    outer loop
      vertex 1.01458 -6.87847 5.85827
      vertex 0.575702 -5.72665 6.99
      vertex 0.319057 -5.97715 6.99
    endloop
  endfacet
  facet normal 0.367267 -0.604352 0.707017
    outer loop
      vertex 1.01458 -6.87847 5.85827
      vertex 0.877655 -7.96574 5
      vertex 1.44371 -7.62175 5
    endloop
  endfacet
  facet normal 0.367267 -0.604352 0.707017
    outer loop
      vertex 0.0456991 -6.14327 6.99
      vertex 1.01458 -6.87847 5.85827
      vertex 0.319057 -5.97715 6.99
    endloop
  endfacet
  facet normal 0.367267 -0.604352 0.707017
    outer loop
      vertex 1.01458 -6.87847 5.85827
      vertex 0.0456991 -6.14327 6.99
      vertex 0.877655 -7.96574 5
    endloop
  endfacet
  facet normal -0.617166 0.348376 0.705507
    outer loop
      vertex 3.08198 -7.96574 5
      vertex 3.33153 -7.71642 5.09519
      vertex 3.27615 -7.62175 5
    endloop
  endfacet
  facet normal -0.617166 0.348376 0.705507
    outer loop
      vertex 3.33153 -7.71642 5.09519
      vertex 3.08198 -7.96574 5
      vertex 3.26637 -8.04784 5.20184
    endloop
  endfacet
  facet normal -0.561844 0.429512 0.707001
    outer loop
      vertex 2.9351 -8.20799 5
      vertex 3.21069 -8.32938 5.29275
      vertex 2.97385 -8.1573 5
    endloop
  endfacet
  facet normal -0.561846 0.429509 0.707002
    outer loop
      vertex 3.21069 -8.32938 5.29275
      vertex 2.9351 -8.20799 5
      vertex 3.19295 -8.39533 5.31873
    endloop
  endfacet
  facet normal -0.617166 0.348376 0.705507
    outer loop
      vertex 2.97385 -8.1573 5
      vertex 3.26637 -8.04784 5.20184
      vertex 3.08198 -7.96574 5
    endloop
  endfacet
  facet normal -0.617166 0.348376 0.705507
    outer loop
      vertex 3.26637 -8.04784 5.20184
      vertex 2.97385 -8.1573 5
      vertex 3.22303 -8.26825 5.27276
    endloop
  endfacet
  facet normal 0.217438 -0.672846 0.707106
    outer loop
      vertex 0.0456991 -6.14327 6.99
      vertex 0.128036 -8.20799 5
      vertex 0.877655 -7.96574 5
    endloop
  endfacet
  facet normal 0.217438 -0.672846 0.707106
    outer loop
      vertex 0.128036 -8.20799 5
      vertex 0.0456991 -6.14327 6.99
      vertex -0.278745 -6.24812 6.99
    endloop
  endfacet
  facet normal -0.614048 0.35453 0.705162
    outer loop
      vertex 3.21069 -8.32938 5.29275
      vertex 3.22303 -8.26825 5.27276
      vertex 2.97385 -8.1573 5
    endloop
  endfacet
  facet normal 0 0.709046 0.705162
    outer loop
      vertex -1.07982 -12.2958 6.99
      vertex -1.28783 -10.3167 5
      vertex -1.49584 -12.2958 6.99
    endloop
  endfacet
  facet normal 0.557972 0.434682 0.706908
    outer loop
      vertex -5.4693 -8.28874 5
      vertex -6.51677 -10.1804 6.99
      vertex -4.90683 -9.01074 5
    endloop
  endfacet
  facet normal 0.557972 0.434682 0.706908
    outer loop
      vertex -6.51677 -10.1804 6.99
      vertex -5.4693 -8.28874 5
      vertex -7.07924 -9.45843 6.99
    endloop
  endfacet
  facet normal -0.3496 0.614647 0.707099
    outer loop
      vertex 2.3635 -11.0251 6.67816
      vertex 1.99297 -11.5946 6.99
      vertex 2.30113 -11.4194 6.99
    endloop
  endfacet
  facet normal -0.349597 0.614649 0.707098
    outer loop
      vertex 0.997971 -9.87125 5
      vertex 2.3635 -11.0251 6.67816
      vertex 2.39839 -10.8952 6.58245
    endloop
  endfacet
  facet normal -0.349599 0.614647 0.707099
    outer loop
      vertex 0.997971 -9.87125 5
      vertex 2.39839 -10.8952 6.58245
      vertex 1.60716 -9.52475 5
    endloop
  endfacet
  facet normal -0.3496 0.614647 0.707099
    outer loop
      vertex 2.3635 -11.0251 6.67816
      vertex 0.997971 -9.87125 5
      vertex 1.99297 -11.5946 6.99
    endloop
  endfacet
  facet normal 0.288395 0.647746 0.705162
    outer loop
      vertex -3.96301 -11.8829 6.99
      vertex -3.34807 -9.99025 5
      vertex -4.34307 -11.7136 6.99
    endloop
  endfacet
  facet normal -0.147418 0.693552 0.705162
    outer loop
      vertex 0.52042 -12.0978 6.99
      vertex 0.927352 -12.0113 6.99
      vertex 0.312408 -10.1187 5
    endloop
  endfacet
  facet normal -0.526924 0.474445 0.705162
    outer loop
      vertex 2.9977 -9.10035 5.60196
      vertex 3.03723 -8.97436 5.54674
      vertex 2.59491 -8.653 5
    endloop
  endfacet
  facet normal 0.308803 0.637141 0.706181
    outer loop
      vertex -4.19014 -9.58212 5
      vertex -4.34307 -11.7136 6.99
      vertex -3.34807 -9.99025 5
    endloop
  endfacet
  facet normal 0.308803 0.637141 0.706181
    outer loop
      vertex -4.34307 -11.7136 6.99
      vertex -4.19014 -9.58212 5
      vertex -5.18514 -11.3055 6.99
    endloop
  endfacet
  facet normal 0.441195 0.553396 0.70647
    outer loop
      vertex -4.90683 -9.01074 5
      vertex -5.52171 -11.061 6.99
      vertex -4.19014 -9.58212 5
    endloop
  endfacet
  facet normal 0.441195 0.553396 0.70647
    outer loop
      vertex -5.52171 -11.061 6.99
      vertex -4.90683 -9.01074 5
      vertex -6.2384 -10.4896 6.99
    endloop
  endfacet
  facet normal -0.135531 0.695385 0.705742
    outer loop
      vertex -0.449509 -10.2672 5
      vertex 0.52042 -12.0978 6.99
      vertex 0.312408 -10.1187 5
    endloop
  endfacet
  facet normal -0.135531 0.695385 0.705742
    outer loop
      vertex 0.52042 -12.0978 6.99
      vertex -0.449509 -10.2672 5
      vertex -0.241497 -12.2463 6.99
    endloop
  endfacet
  facet normal 0.0526777 0.705303 0.706946
    outer loop
      vertex -2.38063 -10.2351 5
      vertex -1.49584 -12.2958 6.99
      vertex -1.28783 -10.3167 5
    endloop
  endfacet
  facet normal 0.0526776 0.705303 0.706946
    outer loop
      vertex -1.49584 -12.2958 6.99
      vertex -2.38063 -10.2351 5
      vertex -2.58864 -12.2142 6.99
    endloop
  endfacet
  facet normal 0.147418 0.693552 0.705162
    outer loop
      vertex -2.58864 -12.2142 6.99
      vertex -2.38063 -10.2351 5
      vertex -2.99557 -12.1277 6.99
    endloop
  endfacet
  facet normal -0.0417012 0.706247 0.706737
    outer loop
      vertex -0.449509 -10.2672 5
      vertex -1.07982 -12.2958 6.99
      vertex -0.241497 -12.2463 6.99
    endloop
  endfacet
  facet normal -0.0417012 0.706247 0.706737
    outer loop
      vertex -1.07982 -12.2958 6.99
      vertex -0.449509 -10.2672 5
      vertex -1.28783 -10.3167 5
    endloop
  endfacet
  facet normal -0.561848 0.429506 0.707002
    outer loop
      vertex 2.59491 -8.653 5
      vertex 3.16469 -8.5004 5.3601
      vertex 2.87337 -8.28874 5
    endloop
  endfacet
  facet normal -0.561848 0.429506 0.707002
    outer loop
      vertex 3.16469 -8.5004 5.3601
      vertex 2.59491 -8.653 5
      vertex 3.03723 -8.97436 5.54674
    endloop
  endfacet
  facet normal 0.526924 0.474445 0.705162
    outer loop
      vertex -6.2384 -10.4896 6.99
      vertex -4.90683 -9.01074 5
      vertex -6.51677 -10.1804 6.99
    endloop
  endfacet
  facet normal 0.416768 0.57363 0.705162
    outer loop
      vertex -5.18514 -11.3055 6.99
      vertex -4.19014 -9.58212 5
      vertex -5.52171 -11.061 6.99
    endloop
  endfacet
  facet normal 0.173698 0.686241 0.70633
    outer loop
      vertex -3.34807 -9.99025 5
      vertex -2.99557 -12.1277 6.99
      vertex -2.38063 -10.2351 5
    endloop
  endfacet
  facet normal 0.173698 0.686241 0.70633
    outer loop
      vertex -2.99557 -12.1277 6.99
      vertex -3.34807 -9.99025 5
      vertex -3.96301 -11.8829 6.99
    endloop
  endfacet
  facet normal -0.24017 0.665266 0.706922
    outer loop
      vertex 0.312408 -10.1187 5
      vertex 1.61291 -11.7638 6.99
      vertex 0.997971 -9.87125 5
    endloop
  endfacet
  facet normal -0.24017 0.665266 0.706922
    outer loop
      vertex 1.61291 -11.7638 6.99
      vertex 0.312408 -10.1187 5
      vertex 0.927352 -12.0113 6.99
    endloop
  endfacet
  facet normal -0.288396 0.647746 0.705162
    outer loop
      vertex 1.61291 -11.7638 6.99
      vertex 1.99297 -11.5946 6.99
      vertex 0.997971 -9.87125 5
    endloop
  endfacet
  facet normal -0.416767 0.573631 0.705162
    outer loop
      vertex 2.46119 -10.5997 6.37921
      vertex 1.60716 -9.52475 5
      vertex 2.39839 -10.8952 6.58245
    endloop
  endfacet
  facet normal -0.416768 0.57363 0.705162
    outer loop
      vertex 1.60716 -9.52475 5
      vertex 2.46119 -10.5997 6.37921
      vertex 2.49139 -10.5068 6.32146
    endloop
  endfacet
  facet normal -0.50048 0.500212 0.706616
    outer loop
      vertex 2.13934 -9.10881 5
      vertex 2.9977 -9.10035 5.60196
      vertex 2.59491 -8.653 5
    endloop
  endfacet
  facet normal -0.500481 0.500212 0.706617
    outer loop
      vertex 2.9977 -9.10035 5.60196
      vertex 2.13934 -9.10881 5
      vertex 2.75957 -9.79765 5.92692
    endloop
  endfacet
  facet normal -0.435967 0.557805 0.706248
    outer loop
      vertex 1.60716 -9.52475 5
      vertex 2.75957 -9.79765 5.92692
      vertex 2.13934 -9.10881 5
    endloop
  endfacet
  facet normal -0.435967 0.557805 0.706248
    outer loop
      vertex 2.75957 -9.79765 5.92692
      vertex 1.60716 -9.52475 5
      vertex 2.55866 -10.2858 6.18848
    endloop
  endfacet
  facet normal -0.435966 0.557806 0.706248
    outer loop
      vertex 2.55866 -10.2858 6.18848
      vertex 1.60716 -9.52475 5
      vertex 2.49139 -10.5068 6.32146
    endloop
  endfacet
  facet normal 0.0680769 -0.703834 0.707095
    outer loop
      vertex -0.278745 -6.24812 6.99
      vertex -0.706818 -8.28874 5
      vertex 0.128036 -8.20799 5
    endloop
  endfacet
  facet normal 0.0680771 -0.703834 0.707094
    outer loop
      vertex -0.706818 -8.28874 5
      vertex -0.278745 -6.24812 6.99
      vertex -0.719667 -6.29077 6.99
    endloop
  endfacet
  facet normal -0.56185 0.429503 0.707002
    outer loop
      vertex 2.87337 -8.28874 5
      vertex 3.19295 -8.39533 5.31873
      vertex 2.9351 -8.20799 5
    endloop
  endfacet
  facet normal -0.56185 0.429503 0.707002
    outer loop
      vertex 3.19295 -8.39533 5.31873
      vertex 2.87337 -8.28874 5
      vertex 3.16469 -8.5004 5.3601
    endloop
  endfacet
  facet normal 0.64355 0.293021 0.707094
    outer loop
      vertex -5.49906 -8.2323 5
      vertex -7.29703 -9.08559 6.99
      vertex -5.47908 -8.27618 5
    endloop
  endfacet
  facet normal 0.64355 0.293021 0.707094
    outer loop
      vertex -7.29703 -9.08559 6.99
      vertex -5.49906 -8.2323 5
      vertex -7.31702 -9.04171 6.99
    endloop
  endfacet
  facet normal 0.55796 0.434698 0.706908
    outer loop
      vertex -5.47908 -8.27618 5
      vertex -7.07924 -9.45843 6.99
      vertex -5.4693 -8.28874 5
    endloop
  endfacet
  facet normal 0.55796 0.434698 0.706908
    outer loop
      vertex -7.07924 -9.45843 6.99
      vertex -5.47908 -8.27618 5
      vertex -7.08902 -9.44588 6.99
    endloop
  endfacet
  facet normal -0.0602218 -0.704605 0.70704
    outer loop
      vertex -1.00837 -6.26609 6.99
      vertex -0.706818 -8.28874 5
      vertex -0.719667 -6.29077 6.99
    endloop
  endfacet
  facet normal -0.0602217 -0.704605 0.70704
    outer loop
      vertex -0.706818 -8.28874 5
      vertex -1.00837 -6.26609 6.99
      vertex -1.3672 -8.2323 5
    endloop
  endfacet
  facet normal 0.614052 0.354523 0.705162
    outer loop
      vertex -7.08902 -9.44588 6.99
      vertex -5.47908 -8.27618 5
      vertex -7.29703 -9.08559 6.99
    endloop
  endfacet
  facet normal -0.19537 -0.679798 0.706899
    outer loop
      vertex -1.19429 -6.21266 6.99
      vertex -1.3672 -8.2323 5
      vertex -1.00837 -6.26609 6.99
    endloop
  endfacet
  facet normal -0.19537 -0.679798 0.706899
    outer loop
      vertex -1.3672 -8.2323 5
      vertex -1.19429 -6.21266 6.99
      vertex -1.95633 -8.06299 5
    endloop
  endfacet
  facet normal 0.643551 0.293019 0.707094
    outer loop
      vertex -5.57615 -8.06299 5
      vertex -7.31702 -9.04171 6.99
      vertex -5.49906 -8.2323 5
    endloop
  endfacet
  facet normal 0.643551 0.293019 0.707094
    outer loop
      vertex -7.31702 -9.04171 6.99
      vertex -5.57615 -8.06299 5
      vertex -7.39411 -8.87239 6.99
    endloop
  endfacet
  facet normal 0.643549 0.293023 0.707094
    outer loop
      vertex -5.70464 -7.78081 5
      vertex -7.39411 -8.87239 6.99
      vertex -5.57615 -8.06299 5
    endloop
  endfacet
  facet normal 0.643549 0.293023 0.707094
    outer loop
      vertex -7.39411 -8.87239 6.99
      vertex -5.70464 -7.78081 5
      vertex -7.52259 -8.59021 6.99
    endloop
  endfacet
  facet normal -0.33838 -0.621008 0.706999
    outer loop
      vertex -1.32262 -6.14273 6.99
      vertex -1.95633 -8.06299 5
      vertex -1.19429 -6.21266 6.99
    endloop
  endfacet
  facet normal -0.338381 -0.621008 0.706999
    outer loop
      vertex -1.95633 -8.06299 5
      vertex -1.32262 -6.14273 6.99
      vertex -2.4742 -7.78081 5
    endloop
  endfacet
  facet normal 0.64355 0.293021 0.707094
    outer loop
      vertex -5.88452 -7.38574 5
      vertex -7.52259 -8.59021 6.99
      vertex -5.70464 -7.78081 5
    endloop
  endfacet
  facet normal 0.64355 0.293021 0.707094
    outer loop
      vertex -7.52259 -8.59021 6.99
      vertex -5.88452 -7.38574 5
      vertex -7.70247 -8.19515 6.99
    endloop
  endfacet
  facet normal -0.468504 -0.529645 0.707093
    outer loop
      vertex -1.42799 -6.04954 6.99
      vertex -2.4742 -7.78081 5
      vertex -1.32262 -6.14273 6.99
    endloop
  endfacet
  facet normal -0.468502 -0.529646 0.707093
    outer loop
      vertex -2.4742 -7.78081 5
      vertex -1.42799 -6.04954 6.99
      vertex -2.92082 -7.38574 5
    endloop
  endfacet
  facet normal 0.688989 0.159289 0.707051
    outer loop
      vertex -6.00437 -6.87437 5
      vertex -7.83433 -7.79224 6.99
      vertex -5.88782 -7.37849 5
    endloop
  endfacet
  facet normal 0.688989 0.159289 0.707051
    outer loop
      vertex -7.83433 -7.79224 6.99
      vertex -6.00437 -6.87437 5
      vertex -7.95088 -7.28812 6.99
    endloop
  endfacet
  facet normal -0.578426 -0.406796 0.707065
    outer loop
      vertex -1.52483 -5.91184 6.99
      vertex -2.92082 -7.38574 5
      vertex -1.42799 -6.04954 6.99
    endloop
  endfacet
  facet normal -0.578426 -0.406795 0.707065
    outer loop
      vertex -2.92082 -7.38574 5
      vertex -1.52483 -5.91184 6.99
      vertex -3.28046 -6.87437 5
    endloop
  endfacet
  facet normal 0.643532 0.293061 0.707094
    outer loop
      vertex -5.88782 -7.37849 5
      vertex -7.70247 -8.19515 6.99
      vertex -5.88452 -7.38574 5
    endloop
  endfacet
  facet normal 0.643532 0.293061 0.707094
    outer loop
      vertex -7.70247 -8.19515 6.99
      vertex -5.88782 -7.37849 5
      vertex -7.70577 -8.1879 6.99
    endloop
  endfacet
  facet normal 0.674343 0.219108 0.705162
    outer loop
      vertex -7.70577 -8.1879 6.99
      vertex -5.88782 -7.37849 5
      vertex -7.83433 -7.79224 6.99
    endloop
  endfacet
  facet normal 0.705162 0.0741161 0.705162
    outer loop
      vertex -8.07959 -6.73142 6.99
      vertex -6.13307 -6.31767 5
      vertex -8.12307 -6.31767 6.99
    endloop
  endfacet
  facet normal -0.655113 -0.266625 0.706922
    outer loop
      vertex -3.53732 -6.24324 5
      vertex -1.52483 -5.91184 6.99
      vertex -1.62385 -5.66852 6.99
    endloop
  endfacet
  facet normal -0.655113 -0.266626 0.706921
    outer loop
      vertex -1.52483 -5.91184 6.99
      vertex -3.53732 -6.24324 5
      vertex -3.28046 -6.87437 5
    endloop
  endfacet
  facet normal 0.688989 0.15929 0.707051
    outer loop
      vertex -6.13307 -6.31767 5
      vertex -7.95088 -7.28812 6.99
      vertex -6.00437 -6.87437 5
    endloop
  endfacet
  facet normal 0.688989 0.15929 0.707051
    outer loop
      vertex -7.95088 -7.28812 6.99
      vertex -6.13307 -6.31767 5
      vertex -8.07959 -6.73142 6.99
    endloop
  endfacet
  facet normal 0.706319 0.0471767 0.706319
    outer loop
      vertex -8.12307 -6.31767 6.99
      vertex -6.13804 -6.24324 5
      vertex -8.12804 -6.24324 6.99
    endloop
  endfacet
  facet normal 0.706319 0.0471767 0.706319
    outer loop
      vertex -6.13804 -6.24324 5
      vertex -8.12307 -6.31767 6.99
      vertex -6.13307 -6.31767 5
    endloop
  endfacet
  facet normal -0.692673 -0.142183 0.707098
    outer loop
      vertex -3.69145 -5.49237 5
      vertex -1.62385 -5.66852 6.99
      vertex -1.71817 -5.20902 6.99
    endloop
  endfacet
  facet normal -0.692673 -0.142183 0.707098
    outer loop
      vertex -1.62385 -5.66852 6.99
      vertex -3.69145 -5.49237 5
      vertex -3.53732 -6.24324 5
    endloop
  endfacet
  facet normal 0.706319 0.0471816 0.706319
    outer loop
      vertex -8.12804 -6.24324 6.99
      vertex -6.1882 -5.49237 5
      vertex -8.1782 -5.49237 6.99
    endloop
  endfacet
  facet normal 0.706319 0.0471816 0.706319
    outer loop
      vertex -6.1882 -5.49237 5
      vertex -8.12804 -6.24324 6.99
      vertex -6.13804 -6.24324 5
    endloop
  endfacet
  facet normal 0.707107 -0 0.707107
    outer loop
      vertex -8.20483 -5.09375 6.99
      vertex -6.21483 -1.64975 5
      vertex -8.20483 -1.64975 6.99
    endloop
  endfacet
  facet normal 0.707107 0 0.707107
    outer loop
      vertex -6.21483 -1.64975 5
      vertex -8.20483 -5.09375 6.99
      vertex -6.21483 -5.09375 5
    endloop
  endfacet
  facet normal 0.706319 0.0471816 0.706319
    outer loop
      vertex -8.1782 -5.49237 6.99
      vertex -6.21483 -5.09375 5
      vertex -8.20483 -5.09375 6.99
    endloop
  endfacet
  facet normal 0.706319 0.0471816 0.706319
    outer loop
      vertex -6.21483 -5.09375 5
      vertex -8.1782 -5.49237 6.99
      vertex -6.1882 -5.49237 5
    endloop
  endfacet
  facet normal -0.706492 -0.0416909 0.706492
    outer loop
      vertex -3.74283 -4.62175 5
      vertex -1.71817 -5.20902 6.99
      vertex -1.75283 -4.62175 6.99
    endloop
  endfacet
  facet normal -0.706492 -0.0416909 0.706492
    outer loop
      vertex -1.71817 -5.20902 6.99
      vertex -3.74283 -4.62175 5
      vertex -3.69145 -5.49237 5
    endloop
  endfacet
  facet normal 0.705162 -0.0741161 0.705162
    outer loop
      vertex -6.21483 -1.64975 5
      vertex -8.16134 -1.23601 6.99
      vertex -8.20483 -1.64975 6.99
    endloop
  endfacet
  facet normal -0.707107 0 0.707107
    outer loop
      vertex -3.74283 -4.62175 5
      vertex -1.75283 -1.64975 6.99
      vertex -3.74283 -1.64975 5
    endloop
  endfacet
  facet normal -0.707107 0 0.707107
    outer loop
      vertex -1.75283 -1.64975 6.99
      vertex -3.74283 -4.62175 5
      vertex -1.75283 -4.62175 6.99
    endloop
  endfacet
  facet normal 0.288395 -0.647746 0.705162
    outer loop
      vertex -6.86873 -0.0464254 6.74021
      vertex -6.21483 -1.64975 5
      vertex -6.74437 -0.0199915 6.71363
    endloop
  endfacet
  facet normal 0.288396 -0.647745 0.705162
    outer loop
      vertex -6.21483 -1.64975 5
      vertex -6.86873 -0.0464254 6.74021
      vertex -7.12496 -0.0733565 6.82026
    endloop
  endfacet
  facet normal 0.526924 -0.474445 0.705162
    outer loop
      vertex -6.21483 -1.64975 5
      vertex -7.5464 -0.170892 6.99
      vertex -7.82477 -0.480057 6.99
    endloop
  endfacet
  facet normal -0.147418 -0.693552 0.705162
    outer loop
      vertex -3.21329 -0.0199915 6.71363
      vertex -3.56762 0.0172501 6.67618
      vertex -3.74283 -1.64975 5
    endloop
  endfacet
  facet normal -0.614052 -0.354523 0.705162
    outer loop
      vertex -1.92487 -0.840344 6.99
      vertex -2.13289 -0.480057 6.99
      vertex -3.74283 -1.64975 5
    endloop
  endfacet
  facet normal 0.674343 -0.219107 0.705162
    outer loop
      vertex -6.21483 -1.64975 5
      vertex -8.03278 -0.840344 6.99
      vertex -8.16134 -1.23601 6.99
    endloop
  endfacet
  facet normal -0.705162 -0.0741159 0.705162
    outer loop
      vertex -1.75283 -1.64975 6.99
      vertex -1.79632 -1.23601 6.99
      vertex -3.74283 -1.64975 5
    endloop
  endfacet
  facet normal 0 -0.709046 0.705162
    outer loop
      vertex -6.21483 -1.64975 5
      vertex -3.56762 0.0172501 6.67618
      vertex -6.39004 0.0172501 6.67618
    endloop
  endfacet
  facet normal 0 -0.709046 0.705162
    outer loop
      vertex -3.56762 0.0172501 6.67618
      vertex -6.21483 -1.64975 5
      vertex -3.74283 -1.64975 5
    endloop
  endfacet
  facet normal 0.614052 -0.354523 0.705162
    outer loop
      vertex -6.21483 -1.64975 5
      vertex -7.82477 -0.480057 6.99
      vertex -8.03278 -0.840344 6.99
    endloop
  endfacet
  facet normal 0.416768 -0.57363 0.705162
    outer loop
      vertex -7.26777 -0.103712 6.87997
      vertex -6.21483 -1.64975 5
      vertex -7.12496 -0.0733565 6.82026
    endloop
  endfacet
  facet normal 0.416767 -0.573632 0.705161
    outer loop
      vertex -7.5464 -0.170892 6.99
      vertex -7.26777 -0.103712 6.87997
      vertex -7.48542 -0.126588 6.99
    endloop
  endfacet
  facet normal 0.416767 -0.573631 0.705162
    outer loop
      vertex -7.26777 -0.103712 6.87997
      vertex -7.5464 -0.170892 6.99
      vertex -6.21483 -1.64975 5
    endloop
  endfacet
  facet normal -0.416767 -0.57363 0.705162
    outer loop
      vertex -2.45899 -0.223904 6.91867
      vertex -2.84686 -0.0978795 6.79195
      vertex -3.74283 -1.64975 5
    endloop
  endfacet
  facet normal 0.147418 -0.693552 0.705162
    outer loop
      vertex -6.21483 -1.64975 5
      vertex -6.39004 0.0172501 6.67618
      vertex -6.74437 -0.0199915 6.71363
    endloop
  endfacet
  facet normal -0.674343 -0.219108 0.705162
    outer loop
      vertex -1.79632 -1.23601 6.99
      vertex -1.92487 -0.840344 6.99
      vertex -3.74283 -1.64975 5
    endloop
  endfacet
  facet normal -0.288396 -0.647746 0.705162
    outer loop
      vertex -2.84686 -0.0978795 6.79195
      vertex -3.21329 -0.0199915 6.71363
      vertex -3.74283 -1.64975 5
    endloop
  endfacet
  facet normal -0.526923 -0.474444 0.705163
    outer loop
      vertex -2.45899 -0.223904 6.91867
      vertex -2.13289 -0.480057 6.99
      vertex -2.29965 -0.294848 6.99
    endloop
  endfacet
  facet normal -0.526923 -0.474445 0.705162
    outer loop
      vertex -2.13289 -0.480057 6.99
      vertex -2.45899 -0.223904 6.91867
      vertex -3.74283 -1.64975 5
    endloop
  endfacet
  facet normal -0 0 1
    outer loop
      vertex -1.75283 -1.64975 6.99
      vertex 1.20316 -3.06573 6.99
      vertex 1.20316 -0.294848 6.99
    endloop
  endfacet
  facet normal 0 0 1
    outer loop
      vertex -1.75283 -4.62175 6.99
      vertex 1.20316 -3.06573 6.99
      vertex -1.75283 -1.64975 6.99
    endloop
  endfacet
  facet normal 0 0 1
    outer loop
      vertex 1.20316 -3.06573 6.99
      vertex -1.75283 -4.62175 6.99
      vertex 1.15009 -4.04419 6.99
    endloop
  endfacet
  facet normal 0 0 1
    outer loop
      vertex 1.15009 -4.04419 6.99
      vertex -1.75283 -4.62175 6.99
      vertex 0.997998 -4.85151 6.99
    endloop
  endfacet
  facet normal 0 0 1
    outer loop
      vertex 0.997998 -4.85151 6.99
      vertex -1.75283 -4.62175 6.99
      vertex 0.804585 -5.37031 6.99
    endloop
  endfacet
  facet normal -0 -0 1
    outer loop
      vertex -1.71817 -5.20902 6.99
      vertex 0.575702 -5.72665 6.99
      vertex -1.75283 -4.62175 6.99
    endloop
  endfacet
  facet normal 0 0 1
    outer loop
      vertex 0.575702 -5.72665 6.99
      vertex -1.71817 -5.20902 6.99
      vertex 0.319057 -5.97715 6.99
    endloop
  endfacet
  facet normal 0 0 1
    outer loop
      vertex 0.319057 -5.97715 6.99
      vertex -1.71817 -5.20902 6.99
      vertex 0.0456991 -6.14327 6.99
    endloop
  endfacet
  facet normal 0 0 1
    outer loop
      vertex 0.0456991 -6.14327 6.99
      vertex -1.71817 -5.20902 6.99
      vertex -0.278745 -6.24812 6.99
    endloop
  endfacet
  facet normal 0 0 1
    outer loop
      vertex -0.278745 -6.24812 6.99
      vertex -1.71817 -5.20902 6.99
      vertex -0.719667 -6.29077 6.99
    endloop
  endfacet
  facet normal -0 -0 1
    outer loop
      vertex -1.62385 -5.66852 6.99
      vertex -0.719667 -6.29077 6.99
      vertex -1.71817 -5.20902 6.99
    endloop
  endfacet
  facet normal 0 0 1
    outer loop
      vertex -0.719667 -6.29077 6.99
      vertex -1.62385 -5.66852 6.99
      vertex -1.00837 -6.26609 6.99
    endloop
  endfacet
  facet normal -0 -0 1
    outer loop
      vertex -1.52483 -5.91184 6.99
      vertex -1.00837 -6.26609 6.99
      vertex -1.62385 -5.66852 6.99
    endloop
  endfacet
  facet normal 0 0 1
    outer loop
      vertex -1.00837 -6.26609 6.99
      vertex -1.52483 -5.91184 6.99
      vertex -1.19429 -6.21266 6.99
    endloop
  endfacet
  facet normal 0 0 1
    outer loop
      vertex -1.19429 -6.21266 6.99
      vertex -1.52483 -5.91184 6.99
      vertex -1.32262 -6.14273 6.99
    endloop
  endfacet
  facet normal 0 0 1
    outer loop
      vertex 0.804585 -5.37031 6.99
      vertex -1.75283 -4.62175 6.99
      vertex 0.575702 -5.72665 6.99
    endloop
  endfacet
  facet normal 0 0 1
    outer loop
      vertex 1.20316 -0.294848 6.99
      vertex -1.79632 -1.23601 6.99
      vertex -1.75283 -1.64975 6.99
    endloop
  endfacet
  facet normal 0 0 1
    outer loop
      vertex 1.20316 -0.294848 6.99
      vertex -1.92487 -0.840344 6.99
      vertex -1.79632 -1.23601 6.99
    endloop
  endfacet
  facet normal 0 0 1
    outer loop
      vertex 1.20316 -0.294848 6.99
      vertex -2.13289 -0.480057 6.99
      vertex -1.92487 -0.840344 6.99
    endloop
  endfacet
  facet normal 0 -0 1
    outer loop
      vertex -2.13289 -0.480057 6.99
      vertex 1.20316 -0.294848 6.99
      vertex -2.29965 -0.294848 6.99
    endloop
  endfacet
  facet normal 0 0 1
    outer loop
      vertex -1.32262 -6.14273 6.99
      vertex -1.52483 -5.91184 6.99
      vertex -1.42799 -6.04954 6.99
    endloop
  endfacet
  facet normal 0 0 1
    outer loop
      vertex -7.68183 -0.0391396 6.99
      vertex -7.5464 -0.170892 6.99
      vertex -7.48542 -0.126588 6.99
    endloop
  endfacet
  facet normal 0 0 1
    outer loop
      vertex -7.68183 -0.0391396 6.99
      vertex -7.82477 -0.480057 6.99
      vertex -7.5464 -0.170892 6.99
    endloop
  endfacet
  facet normal 0 0 1
    outer loop
      vertex -8.0184 0.205392 6.99
      vertex -7.82477 -0.480057 6.99
      vertex -7.68183 -0.0391396 6.99
    endloop
  endfacet
  facet normal 0 0 1
    outer loop
      vertex -8.0184 0.205392 6.99
      vertex -8.03278 -0.840344 6.99
      vertex -7.82477 -0.480057 6.99
    endloop
  endfacet
  facet normal 0 0 1
    outer loop
      vertex -8.29677 0.514557 6.99
      vertex -8.03278 -0.840344 6.99
      vertex -8.0184 0.205392 6.99
    endloop
  endfacet
  facet normal 0 0 1
    outer loop
      vertex -8.03278 -0.840344 6.99
      vertex -8.29677 0.514557 6.99
      vertex -8.16134 -1.23601 6.99
    endloop
  endfacet
  facet normal 0 0 1
    outer loop
      vertex -8.16134 -1.23601 6.99
      vertex -8.50478 0.874845 6.99
      vertex -8.20483 -1.64975 6.99
    endloop
  endfacet
  facet normal 0 0 1
    outer loop
      vertex -8.50478 0.874845 6.99
      vertex -8.16134 -1.23601 6.99
      vertex -8.29677 0.514557 6.99
    endloop
  endfacet
  facet normal 0 0 1
    outer loop
      vertex 7.65516 -10.0387 6.99
      vertex 16.5 16.5 6.99
      vertex 7.65516 10.1842 6.99
    endloop
  endfacet
  facet normal 0 0 1
    outer loop
      vertex 16.5 16.5 6.99
      vertex 7.61167 10.598 6.99
      vertex 7.65516 10.1842 6.99
    endloop
  endfacet
  facet normal 0 0 1
    outer loop
      vertex 16.5 16.5 6.99
      vertex 7.48312 10.9937 6.99
      vertex 7.61167 10.598 6.99
    endloop
  endfacet
  facet normal 0 0 1
    outer loop
      vertex 16.5 16.5 6.99
      vertex 7.2751 11.3539 6.99
      vertex 7.48312 10.9937 6.99
    endloop
  endfacet
  facet normal 0 0 1
    outer loop
      vertex 16.5 16.5 6.99
      vertex 6.99673 11.6631 6.99
      vertex 7.2751 11.3539 6.99
    endloop
  endfacet
  facet normal 0 0 1
    outer loop
      vertex 16.5 16.5 6.99
      vertex 6.66016 11.9076 6.99
      vertex 6.99673 11.6631 6.99
    endloop
  endfacet
  facet normal 0 0 1
    outer loop
      vertex 16.5 16.5 6.99
      vertex 6.2801 12.0769 6.99
      vertex 6.66016 11.9076 6.99
    endloop
  endfacet
  facet normal 0 0 1
    outer loop
      vertex 16.5 16.5 6.99
      vertex 5.87317 12.1633 6.99
      vertex 6.2801 12.0769 6.99
    endloop
  endfacet
  facet normal 0 0 1
    outer loop
      vertex 16.5 16.5 6.99
      vertex 2.98515 12.1633 6.99
      vertex 5.87317 12.1633 6.99
    endloop
  endfacet
  facet normal -0 0 1
    outer loop
      vertex -16.5 16.5 6.99
      vertex 2.98515 12.1633 6.99
      vertex 16.5 16.5 6.99
    endloop
  endfacet
  facet normal 0 0 1
    outer loop
      vertex 1.20316 10.1842 6.99
      vertex -6.89484 5.60733 6.99
      vertex 1.20316 5.60733 6.99
    endloop
  endfacet
  facet normal 0 0 1
    outer loop
      vertex 1.24665 10.598 6.99
      vertex -6.89484 5.60733 6.99
      vertex 1.20316 10.1842 6.99
    endloop
  endfacet
  facet normal 0 0 1
    outer loop
      vertex 1.37521 10.9937 6.99
      vertex -6.89484 5.60733 6.99
      vertex 1.24665 10.598 6.99
    endloop
  endfacet
  facet normal 0 0 1
    outer loop
      vertex -16.5 16.5 6.99
      vertex 1.37521 10.9937 6.99
      vertex 1.58322 11.3539 6.99
    endloop
  endfacet
  facet normal 0 0 1
    outer loop
      vertex -16.5 16.5 6.99
      vertex 1.58322 11.3539 6.99
      vertex 1.86159 11.6631 6.99
    endloop
  endfacet
  facet normal 0 0 1
    outer loop
      vertex -16.5 16.5 6.99
      vertex 1.86159 11.6631 6.99
      vertex 2.19816 11.9076 6.99
    endloop
  endfacet
  facet normal 0 0 1
    outer loop
      vertex 1.37521 10.9937 6.99
      vertex -16.5 16.5 6.99
      vertex -6.89484 5.60733 6.99
    endloop
  endfacet
  facet normal 0 0 1
    outer loop
      vertex -6.89484 5.60733 6.99
      vertex -16.5 16.5 6.99
      vertex -7.30177 5.52084 6.99
    endloop
  endfacet
  facet normal 0 0 1
    outer loop
      vertex -8.67683 3.62823 6.99
      vertex -16.5 16.5 6.99
      vertex -8.67683 1.68425 6.99
    endloop
  endfacet
  facet normal 0 0 1
    outer loop
      vertex -8.63334 4.04198 6.99
      vertex -16.5 16.5 6.99
      vertex -8.67683 3.62823 6.99
    endloop
  endfacet
  facet normal 0 0 1
    outer loop
      vertex -8.50478 4.43764 6.99
      vertex -16.5 16.5 6.99
      vertex -8.63334 4.04198 6.99
    endloop
  endfacet
  facet normal 0 0 1
    outer loop
      vertex -8.29677 4.79793 6.99
      vertex -16.5 16.5 6.99
      vertex -8.50478 4.43764 6.99
    endloop
  endfacet
  facet normal 0 0 1
    outer loop
      vertex -8.0184 5.10709 6.99
      vertex -16.5 16.5 6.99
      vertex -8.29677 4.79793 6.99
    endloop
  endfacet
  facet normal 0 0 1
    outer loop
      vertex -7.68183 5.35162 6.99
      vertex -16.5 16.5 6.99
      vertex -8.0184 5.10709 6.99
    endloop
  endfacet
  facet normal 0 0 1
    outer loop
      vertex -7.30177 5.52084 6.99
      vertex -16.5 16.5 6.99
      vertex -7.68183 5.35162 6.99
    endloop
  endfacet
  facet normal 0 0 1
    outer loop
      vertex 2.57822 12.0769 6.99
      vertex -16.5 16.5 6.99
      vertex 2.19816 11.9076 6.99
    endloop
  endfacet
  facet normal 0 0 1
    outer loop
      vertex 2.98515 12.1633 6.99
      vertex -16.5 16.5 6.99
      vertex 2.57822 12.0769 6.99
    endloop
  endfacet
  facet normal 0 0 1
    outer loop
      vertex 16.5 16.5 6.99
      vertex 7.65516 -10.0387 6.99
      vertex 16.5 -16.5 6.99
    endloop
  endfacet
  facet normal -0 0 1
    outer loop
      vertex 7.61167 -10.4525 6.99
      vertex 16.5 -16.5 6.99
      vertex 7.65516 -10.0387 6.99
    endloop
  endfacet
  facet normal -0 0 1
    outer loop
      vertex 7.48312 -10.8481 6.99
      vertex 16.5 -16.5 6.99
      vertex 7.61167 -10.4525 6.99
    endloop
  endfacet
  facet normal -0 0 1
    outer loop
      vertex 7.2751 -11.2084 6.99
      vertex 16.5 -16.5 6.99
      vertex 7.48312 -10.8481 6.99
    endloop
  endfacet
  facet normal -0 0 1
    outer loop
      vertex 6.99673 -11.5176 6.99
      vertex 16.5 -16.5 6.99
      vertex 7.2751 -11.2084 6.99
    endloop
  endfacet
  facet normal -0 0 1
    outer loop
      vertex 6.66016 -11.7621 6.99
      vertex 16.5 -16.5 6.99
      vertex 6.99673 -11.5176 6.99
    endloop
  endfacet
  facet normal -0 0 1
    outer loop
      vertex 6.2801 -11.9313 6.99
      vertex 16.5 -16.5 6.99
      vertex 6.66016 -11.7621 6.99
    endloop
  endfacet
  facet normal -0 0 1
    outer loop
      vertex 5.87317 -12.0178 6.99
      vertex 16.5 -16.5 6.99
      vertex 6.2801 -11.9313 6.99
    endloop
  endfacet
  facet normal -0 0 1
    outer loop
      vertex 3.51315 -12.0178 6.99
      vertex 16.5 -16.5 6.99
      vertex 5.87317 -12.0178 6.99
    endloop
  endfacet
  facet normal -0 0 1
    outer loop
      vertex 0.927352 -12.0113 6.99
      vertex 3.51315 -12.0178 6.99
      vertex 3.10622 -11.9313 6.99
    endloop
  endfacet
  facet normal 0 0 1
    outer loop
      vertex 1.99297 -11.5946 6.99
      vertex 2.38959 -11.5176 6.99
      vertex 2.30113 -11.4194 6.99
    endloop
  endfacet
  facet normal -0 0 1
    outer loop
      vertex 1.99297 -11.5946 6.99
      vertex 2.72616 -11.7621 6.99
      vertex 2.38959 -11.5176 6.99
    endloop
  endfacet
  facet normal 0 0 1
    outer loop
      vertex 1.61291 -11.7638 6.99
      vertex 2.72616 -11.7621 6.99
      vertex 1.99297 -11.5946 6.99
    endloop
  endfacet
  facet normal 0 0 1
    outer loop
      vertex 2.72616 -11.7621 6.99
      vertex 1.61291 -11.7638 6.99
      vertex 3.10622 -11.9313 6.99
    endloop
  endfacet
  facet normal 0 0 1
    outer loop
      vertex 0.927352 -12.0113 6.99
      vertex 3.10622 -11.9313 6.99
      vertex 1.61291 -11.7638 6.99
    endloop
  endfacet
  facet normal 0 0 1
    outer loop
      vertex 3.51315 -12.0178 6.99
      vertex 0.927352 -12.0113 6.99
      vertex 0.52042 -12.0978 6.99
    endloop
  endfacet
  facet normal 0 0 1
    outer loop
      vertex 3.51315 -12.0178 6.99
      vertex 0.52042 -12.0978 6.99
      vertex -0.241497 -12.2463 6.99
    endloop
  endfacet
  facet normal 0 0 1
    outer loop
      vertex 3.51315 -12.0178 6.99
      vertex -0.241497 -12.2463 6.99
      vertex 16.5 -16.5 6.99
    endloop
  endfacet
  facet normal -0 0 1
    outer loop
      vertex -1.07982 -12.2958 6.99
      vertex 16.5 -16.5 6.99
      vertex -0.241497 -12.2463 6.99
    endloop
  endfacet
  facet normal 0 0 1
    outer loop
      vertex -16.5 -16.5 6.99
      vertex -1.07982 -12.2958 6.99
      vertex -1.49584 -12.2958 6.99
    endloop
  endfacet
  facet normal 0 0 1
    outer loop
      vertex -16.5 -16.5 6.99
      vertex -1.49584 -12.2958 6.99
      vertex -2.58864 -12.2142 6.99
    endloop
  endfacet
  facet normal 0 0 1
    outer loop
      vertex -16.5 -16.5 6.99
      vertex -2.58864 -12.2142 6.99
      vertex -2.99557 -12.1277 6.99
    endloop
  endfacet
  facet normal 0 0 1
    outer loop
      vertex -16.5 -16.5 6.99
      vertex -7.07924 -9.45843 6.99
      vertex -7.08902 -9.44588 6.99
    endloop
  endfacet
  facet normal 0 0 1
    outer loop
      vertex -16.5 -16.5 6.99
      vertex -7.39411 -8.87239 6.99
      vertex -7.52259 -8.59021 6.99
    endloop
  endfacet
  facet normal 0 0 1
    outer loop
      vertex -7.39411 -8.87239 6.99
      vertex -16.5 -16.5 6.99
      vertex -7.31702 -9.04171 6.99
    endloop
  endfacet
  facet normal 0 0 1
    outer loop
      vertex -16.5 -16.5 6.99
      vertex -7.70247 -8.19515 6.99
      vertex -7.70577 -8.1879 6.99
    endloop
  endfacet
  facet normal 0 0 1
    outer loop
      vertex -7.70247 -8.19515 6.99
      vertex -16.5 -16.5 6.99
      vertex -7.52259 -8.59021 6.99
    endloop
  endfacet
  facet normal 0 0 1
    outer loop
      vertex -16.5 -16.5 6.99
      vertex -7.95088 -7.28812 6.99
      vertex -8.07959 -6.73142 6.99
    endloop
  endfacet
  facet normal 0 0 1
    outer loop
      vertex -16.5 -16.5 6.99
      vertex -8.12804 -6.24324 6.99
      vertex -8.1782 -5.49237 6.99
    endloop
  endfacet
  facet normal 0 0 1
    outer loop
      vertex -16.5 -16.5 6.99
      vertex -8.1782 -5.49237 6.99
      vertex -8.20483 -5.09375 6.99
    endloop
  endfacet
  facet normal 0 0 1
    outer loop
      vertex -8.63334 1.27051 6.99
      vertex -8.20483 -1.64975 6.99
      vertex -8.50478 0.874845 6.99
    endloop
  endfacet
  facet normal 0 0 1
    outer loop
      vertex -16.5 -16.5 6.99
      vertex -8.20483 -1.64975 6.99
      vertex -8.63334 1.27051 6.99
    endloop
  endfacet
  facet normal 0 0 1
    outer loop
      vertex -8.20483 -1.64975 6.99
      vertex -16.5 -16.5 6.99
      vertex -8.20483 -5.09375 6.99
    endloop
  endfacet
  facet normal 0 0 1
    outer loop
      vertex -16.5 -16.5 6.99
      vertex -8.63334 1.27051 6.99
      vertex -8.67683 1.68425 6.99
    endloop
  endfacet
  facet normal 0 0 1
    outer loop
      vertex -16.5 -16.5 6.99
      vertex -8.67683 1.68425 6.99
      vertex -16.5 16.5 6.99
    endloop
  endfacet
  facet normal 0 0 1
    outer loop
      vertex -8.12804 -6.24324 6.99
      vertex -16.5 -16.5 6.99
      vertex -8.12307 -6.31767 6.99
    endloop
  endfacet
  facet normal 0 0 1
    outer loop
      vertex -8.12307 -6.31767 6.99
      vertex -16.5 -16.5 6.99
      vertex -8.07959 -6.73142 6.99
    endloop
  endfacet
  facet normal 0 0 1
    outer loop
      vertex -7.95088 -7.28812 6.99
      vertex -16.5 -16.5 6.99
      vertex -7.83433 -7.79224 6.99
    endloop
  endfacet
  facet normal 0 0 1
    outer loop
      vertex -1.07982 -12.2958 6.99
      vertex -16.5 -16.5 6.99
      vertex 16.5 -16.5 6.99
    endloop
  endfacet
  facet normal 0 0 1
    outer loop
      vertex -3.96301 -11.8829 6.99
      vertex -16.5 -16.5 6.99
      vertex -2.99557 -12.1277 6.99
    endloop
  endfacet
  facet normal 0 0 1
    outer loop
      vertex -4.34307 -11.7136 6.99
      vertex -16.5 -16.5 6.99
      vertex -3.96301 -11.8829 6.99
    endloop
  endfacet
  facet normal 0 0 1
    outer loop
      vertex -5.18514 -11.3055 6.99
      vertex -16.5 -16.5 6.99
      vertex -4.34307 -11.7136 6.99
    endloop
  endfacet
  facet normal 0 0 1
    outer loop
      vertex -5.52171 -11.061 6.99
      vertex -16.5 -16.5 6.99
      vertex -5.18514 -11.3055 6.99
    endloop
  endfacet
  facet normal 0 0 1
    outer loop
      vertex -6.2384 -10.4896 6.99
      vertex -16.5 -16.5 6.99
      vertex -5.52171 -11.061 6.99
    endloop
  endfacet
  facet normal 0 0 1
    outer loop
      vertex -6.51677 -10.1804 6.99
      vertex -16.5 -16.5 6.99
      vertex -6.2384 -10.4896 6.99
    endloop
  endfacet
  facet normal 0 0 1
    outer loop
      vertex -7.07924 -9.45843 6.99
      vertex -16.5 -16.5 6.99
      vertex -6.51677 -10.1804 6.99
    endloop
  endfacet
  facet normal 0 0 1
    outer loop
      vertex -7.29703 -9.08559 6.99
      vertex -16.5 -16.5 6.99
      vertex -7.08902 -9.44588 6.99
    endloop
  endfacet
  facet normal 0 0 1
    outer loop
      vertex -7.31702 -9.04171 6.99
      vertex -16.5 -16.5 6.99
      vertex -7.29703 -9.08559 6.99
    endloop
  endfacet
  facet normal 0 0 1
    outer loop
      vertex -7.83433 -7.79224 6.99
      vertex -16.5 -16.5 6.99
      vertex -7.70577 -8.1879 6.99
    endloop
  endfacet
endsolid OpenSCAD_Model
