solid OpenSCAD_Model
  facet normal 0 -1 0
    outer loop
      vertex -16.8658 -19.9808 0
      vertex 16.8658 -19.9808 10.01
      vertex -16.8658 -19.9808 10.01
    endloop
  endfacet
  facet normal 0 -1 -0
    outer loop
      vertex 16.8658 -19.9808 10.01
      vertex -16.8658 -19.9808 0
      vertex 16.8658 -19.9808 0
    endloop
  endfacet
  facet normal -0.207913 -0.978147 0
    outer loop
      vertex -17.5816 -19.8287 0
      vertex -16.8658 -19.9808 10.01
      vertex -17.5816 -19.8287 10.01
    endloop
  endfacet
  facet normal -0.207913 -0.978147 -0
    outer loop
      vertex -16.8658 -19.9808 10.01
      vertex -17.5816 -19.8287 0
      vertex -16.8658 -19.9808 0
    endloop
  endfacet
  facet normal 1 -0 0
    outer loop
      vertex 20 -16.5 10.01
      vertex 20 16.5 0
      vertex 20 16.5 10.01
    endloop
  endfacet
  facet normal 1 0 0
    outer loop
      vertex 20 16.5 0
      vertex 20 -16.5 10.01
      vertex 20 -16.5 0
    endloop
  endfacet
  facet normal 0.207913 -0.978147 0
    outer loop
      vertex 16.8658 -19.9808 0
      vertex 17.5816 -19.8287 10.01
      vertex 16.8658 -19.9808 10.01
    endloop
  endfacet
  facet normal 0.207913 -0.978147 0
    outer loop
      vertex 17.5816 -19.8287 10.01
      vertex 16.8658 -19.9808 0
      vertex 17.5816 -19.8287 0
    endloop
  endfacet
  facet normal 0.951057 0.309017 0
    outer loop
      vertex 19.9235 17.2277 10.01
      vertex 19.6974 17.9236 0
      vertex 19.6974 17.9236 10.01
    endloop
  endfacet
  facet normal 0.951057 0.309017 0
    outer loop
      vertex 19.6974 17.9236 0
      vertex 19.9235 17.2277 10.01
      vertex 19.9235 17.2277 0
    endloop
  endfacet
  facet normal -0.866025 0.5 0
    outer loop
      vertex -19.6974 17.9236 0
      vertex -19.3316 18.5572 10.01
      vertex -19.3316 18.5572 0
    endloop
  endfacet
  facet normal -0.866025 0.5 0
    outer loop
      vertex -19.3316 18.5572 10.01
      vertex -19.6974 17.9236 0
      vertex -19.6974 17.9236 10.01
    endloop
  endfacet
  facet normal 0 1 -0
    outer loop
      vertex 16.8658 19.9808 0
      vertex -16.8658 19.9808 10.01
      vertex 16.8658 19.9808 10.01
    endloop
  endfacet
  facet normal 0 1 0
    outer loop
      vertex -16.8658 19.9808 10.01
      vertex 16.8658 19.9808 0
      vertex -16.8658 19.9808 0
    endloop
  endfacet
  facet normal 0.587787 -0.809016 0
    outer loop
      vertex 18.25 -19.5311 0
      vertex 18.842 -19.101 10.01
      vertex 18.25 -19.5311 10.01
    endloop
  endfacet
  facet normal 0.587787 -0.809016 0
    outer loop
      vertex 18.842 -19.101 10.01
      vertex 18.25 -19.5311 0
      vertex 18.842 -19.101 0
    endloop
  endfacet
  facet normal -0.587787 -0.809016 0
    outer loop
      vertex -18.842 -19.101 0
      vertex -18.25 -19.5311 10.01
      vertex -18.842 -19.101 10.01
    endloop
  endfacet
  facet normal -0.587787 -0.809016 -0
    outer loop
      vertex -18.25 -19.5311 10.01
      vertex -18.842 -19.101 0
      vertex -18.25 -19.5311 0
    endloop
  endfacet
  facet normal -1 0 0
    outer loop
      vertex -20 -16.5 0
      vertex -20 16.5 10.01
      vertex -20 16.5 0
    endloop
  endfacet
  facet normal -1 -0 0
    outer loop
      vertex -20 16.5 10.01
      vertex -20 -16.5 0
      vertex -20 -16.5 10.01
    endloop
  endfacet
  facet normal -0.406734 0.913546 0
    outer loop
      vertex -17.5816 19.8287 0
      vertex -18.25 19.5311 10.01
      vertex -17.5816 19.8287 10.01
    endloop
  endfacet
  facet normal -0.406734 0.913546 0
    outer loop
      vertex -18.25 19.5311 10.01
      vertex -17.5816 19.8287 0
      vertex -18.25 19.5311 0
    endloop
  endfacet
  facet normal 0.587787 0.809016 -0
    outer loop
      vertex 18.842 19.101 0
      vertex 18.25 19.5311 10.01
      vertex 18.842 19.101 10.01
    endloop
  endfacet
  facet normal 0.587787 0.809016 0
    outer loop
      vertex 18.25 19.5311 10.01
      vertex 18.842 19.101 0
      vertex 18.25 19.5311 0
    endloop
  endfacet
  facet normal 0.951057 -0.309017 0
    outer loop
      vertex 19.6974 -17.9236 10.01
      vertex 19.9235 -17.2277 0
      vertex 19.9235 -17.2277 10.01
    endloop
  endfacet
  facet normal 0.951057 -0.309017 0
    outer loop
      vertex 19.9235 -17.2277 0
      vertex 19.6974 -17.9236 10.01
      vertex 19.6974 -17.9236 0
    endloop
  endfacet
  facet normal 0.994522 -0.10453 0
    outer loop
      vertex 19.9235 -17.2277 10.01
      vertex 20 -16.5 0
      vertex 20 -16.5 10.01
    endloop
  endfacet
  facet normal 0.994522 -0.10453 0
    outer loop
      vertex 20 -16.5 0
      vertex 19.9235 -17.2277 10.01
      vertex 19.9235 -17.2277 0
    endloop
  endfacet
  facet normal 0.743146 -0.66913 0
    outer loop
      vertex 18.842 -19.101 10.01
      vertex 19.3316 -18.5572 0
      vertex 19.3316 -18.5572 10.01
    endloop
  endfacet
  facet normal 0.743146 -0.66913 0
    outer loop
      vertex 19.3316 -18.5572 0
      vertex 18.842 -19.101 10.01
      vertex 18.842 -19.101 0
    endloop
  endfacet
  facet normal 0.406734 -0.913546 0
    outer loop
      vertex 17.5816 -19.8287 0
      vertex 18.25 -19.5311 10.01
      vertex 17.5816 -19.8287 10.01
    endloop
  endfacet
  facet normal 0.406734 -0.913546 0
    outer loop
      vertex 18.25 -19.5311 10.01
      vertex 17.5816 -19.8287 0
      vertex 18.25 -19.5311 0
    endloop
  endfacet
  facet normal -0.406734 -0.913546 0
    outer loop
      vertex -18.25 -19.5311 0
      vertex -17.5816 -19.8287 10.01
      vertex -18.25 -19.5311 10.01
    endloop
  endfacet
  facet normal -0.406734 -0.913546 -0
    outer loop
      vertex -17.5816 -19.8287 10.01
      vertex -18.25 -19.5311 0
      vertex -17.5816 -19.8287 0
    endloop
  endfacet
  facet normal -0.994522 0.10453 0
    outer loop
      vertex -20 16.5 0
      vertex -19.9235 17.2277 10.01
      vertex -19.9235 17.2277 0
    endloop
  endfacet
  facet normal -0.994522 0.10453 0
    outer loop
      vertex -19.9235 17.2277 10.01
      vertex -20 16.5 0
      vertex -20 16.5 10.01
    endloop
  endfacet
  facet normal 0 0 1
    outer loop
      vertex 16.5 16.5 10.01
      vertex 20 16.5 10.01
      vertex 19.9235 17.2277 10.01
    endloop
  endfacet
  facet normal 0 0 1
    outer loop
      vertex 20 16.5 10.01
      vertex 16.5 16.5 10.01
      vertex 20 -16.5 10.01
    endloop
  endfacet
  facet normal 0 0 1
    outer loop
      vertex 16.5 16.5 10.01
      vertex 19.9235 17.2277 10.01
      vertex 19.6974 17.9236 10.01
    endloop
  endfacet
  facet normal 0 0 1
    outer loop
      vertex 16.5 -16.5 10.01
      vertex 20 -16.5 10.01
      vertex 16.5 16.5 10.01
    endloop
  endfacet
  facet normal 0 0 1
    outer loop
      vertex 16.5 16.5 10.01
      vertex 19.6974 17.9236 10.01
      vertex 19.3316 18.5572 10.01
    endloop
  endfacet
  facet normal 0 0 1
    outer loop
      vertex 20 -16.5 10.01
      vertex 16.5 -16.5 10.01
      vertex 19.9235 -17.2277 10.01
    endloop
  endfacet
  facet normal 0 0 1
    outer loop
      vertex 16.5 16.5 10.01
      vertex 19.3316 18.5572 10.01
      vertex 18.842 19.101 10.01
    endloop
  endfacet
  facet normal 0 0 1
    outer loop
      vertex 19.9235 -17.2277 10.01
      vertex 16.5 -16.5 10.01
      vertex 19.6974 -17.9236 10.01
    endloop
  endfacet
  facet normal 0 0 1
    outer loop
      vertex 16.5 16.5 10.01
      vertex 18.842 19.101 10.01
      vertex 18.25 19.5311 10.01
    endloop
  endfacet
  facet normal 0 0 1
    outer loop
      vertex 19.6974 -17.9236 10.01
      vertex 16.5 -16.5 10.01
      vertex 19.3316 -18.5572 10.01
    endloop
  endfacet
  facet normal 0 0 1
    outer loop
      vertex 16.5 16.5 10.01
      vertex 18.25 19.5311 10.01
      vertex 17.5816 19.8287 10.01
    endloop
  endfacet
  facet normal 0 0 1
    outer loop
      vertex 19.3316 -18.5572 10.01
      vertex 16.5 -16.5 10.01
      vertex 18.842 -19.101 10.01
    endloop
  endfacet
  facet normal 0 0 1
    outer loop
      vertex 16.5 16.5 10.01
      vertex 17.5816 19.8287 10.01
      vertex 16.8658 19.9808 10.01
    endloop
  endfacet
  facet normal 0 0 1
    outer loop
      vertex 18.842 -19.101 10.01
      vertex 16.5 -16.5 10.01
      vertex 18.25 -19.5311 10.01
    endloop
  endfacet
  facet normal 0 0 1
    outer loop
      vertex 18.25 -19.5311 10.01
      vertex 16.5 -16.5 10.01
      vertex 17.5816 -19.8287 10.01
    endloop
  endfacet
  facet normal 0 0 1
    outer loop
      vertex 16.8658 19.9808 10.01
      vertex -16.5 16.5 10.01
      vertex 16.5 16.5 10.01
    endloop
  endfacet
  facet normal -0 0 1
    outer loop
      vertex -17.5816 19.8287 10.01
      vertex -16.5 16.5 10.01
      vertex -16.8658 19.9808 10.01
    endloop
  endfacet
  facet normal -0 0 1
    outer loop
      vertex -16.8658 19.9808 10.01
      vertex -16.5 16.5 10.01
      vertex 16.8658 19.9808 10.01
    endloop
  endfacet
  facet normal 0 0 1
    outer loop
      vertex 17.5816 -19.8287 10.01
      vertex 16.5 -16.5 10.01
      vertex 16.8658 -19.9808 10.01
    endloop
  endfacet
  facet normal -0 0 1
    outer loop
      vertex -16.5 -16.5 10.01
      vertex 16.8658 -19.9808 10.01
      vertex 16.5 -16.5 10.01
    endloop
  endfacet
  facet normal 0 0 1
    outer loop
      vertex -16.5 -16.5 10.01
      vertex -16.8658 -19.9808 10.01
      vertex 16.8658 -19.9808 10.01
    endloop
  endfacet
  facet normal 0 0 1
    outer loop
      vertex -16.5 16.5 10.01
      vertex -20 16.5 10.01
      vertex -16.5 -16.5 10.01
    endloop
  endfacet
  facet normal -0 0 1
    outer loop
      vertex -18.25 19.5311 10.01
      vertex -16.5 16.5 10.01
      vertex -17.5816 19.8287 10.01
    endloop
  endfacet
  facet normal 0 0 1
    outer loop
      vertex -20 -16.5 10.01
      vertex -16.5 -16.5 10.01
      vertex -20 16.5 10.01
    endloop
  endfacet
  facet normal -0 0 1
    outer loop
      vertex -18.842 19.101 10.01
      vertex -16.5 16.5 10.01
      vertex -18.25 19.5311 10.01
    endloop
  endfacet
  facet normal 0 -0 1
    outer loop
      vertex -19.9235 -17.2277 10.01
      vertex -16.5 -16.5 10.01
      vertex -20 -16.5 10.01
    endloop
  endfacet
  facet normal -0 0 1
    outer loop
      vertex -19.3316 18.5572 10.01
      vertex -16.5 16.5 10.01
      vertex -18.842 19.101 10.01
    endloop
  endfacet
  facet normal 0 0 1
    outer loop
      vertex -16.5 -16.5 10.01
      vertex -17.5816 -19.8287 10.01
      vertex -16.8658 -19.9808 10.01
    endloop
  endfacet
  facet normal -0 0 1
    outer loop
      vertex -19.6974 17.9236 10.01
      vertex -16.5 16.5 10.01
      vertex -19.3316 18.5572 10.01
    endloop
  endfacet
  facet normal 0 0 1
    outer loop
      vertex -16.5 -16.5 10.01
      vertex -18.25 -19.5311 10.01
      vertex -17.5816 -19.8287 10.01
    endloop
  endfacet
  facet normal -0 0 1
    outer loop
      vertex -19.9235 17.2277 10.01
      vertex -16.5 16.5 10.01
      vertex -19.6974 17.9236 10.01
    endloop
  endfacet
  facet normal 0 0 1
    outer loop
      vertex -16.5 -16.5 10.01
      vertex -18.842 -19.101 10.01
      vertex -18.25 -19.5311 10.01
    endloop
  endfacet
  facet normal 0 0 1
    outer loop
      vertex -16.5 16.5 10.01
      vertex -19.9235 17.2277 10.01
      vertex -20 16.5 10.01
    endloop
  endfacet
  facet normal 0 0 1
    outer loop
      vertex -16.5 -16.5 10.01
      vertex -19.3316 -18.5572 10.01
      vertex -18.842 -19.101 10.01
    endloop
  endfacet
  facet normal 0 0 1
    outer loop
      vertex -16.5 -16.5 10.01
      vertex -19.6974 -17.9236 10.01
      vertex -19.3316 -18.5572 10.01
    endloop
  endfacet
  facet normal 0 0 1
    outer loop
      vertex -16.5 -16.5 10.01
      vertex -19.9235 -17.2277 10.01
      vertex -19.6974 -17.9236 10.01
    endloop
  endfacet
  facet normal -0.743146 0.66913 0
    outer loop
      vertex -19.3316 18.5572 0
      vertex -18.842 19.101 10.01
      vertex -18.842 19.101 0
    endloop
  endfacet
  facet normal -0.743146 0.66913 0
    outer loop
      vertex -18.842 19.101 10.01
      vertex -19.3316 18.5572 0
      vertex -19.3316 18.5572 10.01
    endloop
  endfacet
  facet normal -0.207913 0.978147 0
    outer loop
      vertex -16.8658 19.9808 0
      vertex -17.5816 19.8287 10.01
      vertex -16.8658 19.9808 10.01
    endloop
  endfacet
  facet normal -0.207913 0.978147 0
    outer loop
      vertex -17.5816 19.8287 10.01
      vertex -16.8658 19.9808 0
      vertex -17.5816 19.8287 0
    endloop
  endfacet
  facet normal -0.587787 0.809016 0
    outer loop
      vertex -18.25 19.5311 0
      vertex -18.842 19.101 10.01
      vertex -18.25 19.5311 10.01
    endloop
  endfacet
  facet normal -0.587787 0.809016 0
    outer loop
      vertex -18.842 19.101 10.01
      vertex -18.25 19.5311 0
      vertex -18.842 19.101 0
    endloop
  endfacet
  facet normal 0.207913 0.978147 -0
    outer loop
      vertex 17.5816 19.8287 0
      vertex 16.8658 19.9808 10.01
      vertex 17.5816 19.8287 10.01
    endloop
  endfacet
  facet normal 0.207913 0.978147 0
    outer loop
      vertex 16.8658 19.9808 10.01
      vertex 17.5816 19.8287 0
      vertex 16.8658 19.9808 0
    endloop
  endfacet
  facet normal 0.743146 0.66913 0
    outer loop
      vertex 19.3316 18.5572 10.01
      vertex 18.842 19.101 0
      vertex 18.842 19.101 10.01
    endloop
  endfacet
  facet normal 0.743146 0.66913 0
    outer loop
      vertex 18.842 19.101 0
      vertex 19.3316 18.5572 10.01
      vertex 19.3316 18.5572 0
    endloop
  endfacet
  facet normal 0.866025 0.5 0
    outer loop
      vertex 19.6974 17.9236 10.01
      vertex 19.3316 18.5572 0
      vertex 19.3316 18.5572 10.01
    endloop
  endfacet
  facet normal 0.866025 0.5 0
    outer loop
      vertex 19.3316 18.5572 0
      vertex 19.6974 17.9236 10.01
      vertex 19.6974 17.9236 0
    endloop
  endfacet
  facet normal 0.994522 0.10453 0
    outer loop
      vertex 20 16.5 10.01
      vertex 19.9235 17.2277 0
      vertex 19.9235 17.2277 10.01
    endloop
  endfacet
  facet normal 0.994522 0.10453 0
    outer loop
      vertex 19.9235 17.2277 0
      vertex 20 16.5 10.01
      vertex 20 16.5 0
    endloop
  endfacet
  facet normal 0.866025 -0.5 0
    outer loop
      vertex 19.3316 -18.5572 10.01
      vertex 19.6974 -17.9236 0
      vertex 19.6974 -17.9236 10.01
    endloop
  endfacet
  facet normal 0.866025 -0.5 0
    outer loop
      vertex 19.6974 -17.9236 0
      vertex 19.3316 -18.5572 10.01
      vertex 19.3316 -18.5572 0
    endloop
  endfacet
  facet normal -0.994522 -0.10453 0
    outer loop
      vertex -19.9235 -17.2277 0
      vertex -20 -16.5 10.01
      vertex -20 -16.5 0
    endloop
  endfacet
  facet normal -0.994522 -0.10453 0
    outer loop
      vertex -20 -16.5 10.01
      vertex -19.9235 -17.2277 0
      vertex -19.9235 -17.2277 10.01
    endloop
  endfacet
  facet normal -0.866025 -0.5 0
    outer loop
      vertex -19.3316 -18.5572 0
      vertex -19.6974 -17.9236 10.01
      vertex -19.6974 -17.9236 0
    endloop
  endfacet
  facet normal -0.866025 -0.5 0
    outer loop
      vertex -19.6974 -17.9236 10.01
      vertex -19.3316 -18.5572 0
      vertex -19.3316 -18.5572 10.01
    endloop
  endfacet
  facet normal 0 0 -1
    outer loop
      vertex 16.8658 -19.9808 0
      vertex 20 -16.5 0
      vertex 19.9235 -17.2277 0
    endloop
  endfacet
  facet normal 0 0 -1
    outer loop
      vertex -20 -16.5 0
      vertex 20 -16.5 0
      vertex 16.8658 -19.9808 0
    endloop
  endfacet
  facet normal 0 0 -1
    outer loop
      vertex 16.8658 -19.9808 0
      vertex 19.9235 -17.2277 0
      vertex 19.6974 -17.9236 0
    endloop
  endfacet
  facet normal 0 0 -1
    outer loop
      vertex 20 -16.5 0
      vertex -20 -16.5 0
      vertex 20 16.5 0
    endloop
  endfacet
  facet normal 0 0 -1
    outer loop
      vertex 16.8658 -19.9808 0
      vertex 19.6974 -17.9236 0
      vertex 19.3316 -18.5572 0
    endloop
  endfacet
  facet normal 0 0 -1
    outer loop
      vertex 20 16.5 0
      vertex 16.8658 19.9808 0
      vertex 19.9235 17.2277 0
    endloop
  endfacet
  facet normal 0 0 -1
    outer loop
      vertex 16.8658 -19.9808 0
      vertex 19.3316 -18.5572 0
      vertex 18.842 -19.101 0
    endloop
  endfacet
  facet normal 0 0 -1
    outer loop
      vertex 19.9235 17.2277 0
      vertex 16.8658 19.9808 0
      vertex 19.6974 17.9236 0
    endloop
  endfacet
  facet normal 0 0 -1
    outer loop
      vertex 16.8658 -19.9808 0
      vertex 18.842 -19.101 0
      vertex 18.25 -19.5311 0
    endloop
  endfacet
  facet normal 0 0 -1
    outer loop
      vertex 19.6974 17.9236 0
      vertex 16.8658 19.9808 0
      vertex 19.3316 18.5572 0
    endloop
  endfacet
  facet normal 0 0 -1
    outer loop
      vertex 16.8658 -19.9808 0
      vertex 18.25 -19.5311 0
      vertex 17.5816 -19.8287 0
    endloop
  endfacet
  facet normal 0 0 -1
    outer loop
      vertex 19.3316 18.5572 0
      vertex 16.8658 19.9808 0
      vertex 18.842 19.101 0
    endloop
  endfacet
  facet normal 0 0 -1
    outer loop
      vertex 18.842 19.101 0
      vertex 16.8658 19.9808 0
      vertex 18.25 19.5311 0
    endloop
  endfacet
  facet normal 0 0 -1
    outer loop
      vertex 18.25 19.5311 0
      vertex 16.8658 19.9808 0
      vertex 17.5816 19.8287 0
    endloop
  endfacet
  facet normal 0 0 -1
    outer loop
      vertex -20 -16.5 0
      vertex 16.8658 -19.9808 0
      vertex -16.8658 -19.9808 0
    endloop
  endfacet
  facet normal 0 0 -1
    outer loop
      vertex -20 16.5 0
      vertex 20 16.5 0
      vertex -20 -16.5 0
    endloop
  endfacet
  facet normal 0 0 -1
    outer loop
      vertex -20 -16.5 0
      vertex -16.8658 -19.9808 0
      vertex -17.5816 -19.8287 0
    endloop
  endfacet
  facet normal 0 0 -1
    outer loop
      vertex 20 16.5 0
      vertex -20 16.5 0
      vertex 16.8658 19.9808 0
    endloop
  endfacet
  facet normal 0 0 -1
    outer loop
      vertex -20 -16.5 0
      vertex -17.5816 -19.8287 0
      vertex -18.25 -19.5311 0
    endloop
  endfacet
  facet normal -0 0 -1
    outer loop
      vertex 16.8658 19.9808 0
      vertex -20 16.5 0
      vertex -16.8658 19.9808 0
    endloop
  endfacet
  facet normal 0 0 -1
    outer loop
      vertex -20 -16.5 0
      vertex -18.25 -19.5311 0
      vertex -18.842 -19.101 0
    endloop
  endfacet
  facet normal 0 0 -1
    outer loop
      vertex -16.8658 19.9808 0
      vertex -20 16.5 0
      vertex -17.5816 19.8287 0
    endloop
  endfacet
  facet normal 0 0 -1
    outer loop
      vertex -20 -16.5 0
      vertex -18.842 -19.101 0
      vertex -19.3316 -18.5572 0
    endloop
  endfacet
  facet normal 0 0 -1
    outer loop
      vertex -17.5816 19.8287 0
      vertex -20 16.5 0
      vertex -18.25 19.5311 0
    endloop
  endfacet
  facet normal 0 0 -1
    outer loop
      vertex -20 -16.5 0
      vertex -19.3316 -18.5572 0
      vertex -19.6974 -17.9236 0
    endloop
  endfacet
  facet normal 0 0 -1
    outer loop
      vertex -18.25 19.5311 0
      vertex -20 16.5 0
      vertex -18.842 19.101 0
    endloop
  endfacet
  facet normal 0 0 -1
    outer loop
      vertex -20 -16.5 0
      vertex -19.6974 -17.9236 0
      vertex -19.9235 -17.2277 0
    endloop
  endfacet
  facet normal 0 0 -1
    outer loop
      vertex -18.842 19.101 0
      vertex -20 16.5 0
      vertex -19.3316 18.5572 0
    endloop
  endfacet
  facet normal 0 0 -1
    outer loop
      vertex -19.3316 18.5572 0
      vertex -20 16.5 0
      vertex -19.6974 17.9236 0
    endloop
  endfacet
  facet normal 0 0 -1
    outer loop
      vertex -19.6974 17.9236 0
      vertex -20 16.5 0
      vertex -19.9235 17.2277 0
    endloop
  endfacet
  facet normal -0.951057 0.309017 0
    outer loop
      vertex -19.9235 17.2277 0
      vertex -19.6974 17.9236 10.01
      vertex -19.6974 17.9236 0
    endloop
  endfacet
  facet normal -0.951057 0.309017 0
    outer loop
      vertex -19.6974 17.9236 10.01
      vertex -19.9235 17.2277 0
      vertex -19.9235 17.2277 10.01
    endloop
  endfacet
  facet normal 0.406734 0.913546 -0
    outer loop
      vertex 18.25 19.5311 0
      vertex 17.5816 19.8287 10.01
      vertex 18.25 19.5311 10.01
    endloop
  endfacet
  facet normal 0.406734 0.913546 0
    outer loop
      vertex 17.5816 19.8287 10.01
      vertex 18.25 19.5311 0
      vertex 17.5816 19.8287 0
    endloop
  endfacet
  facet normal -0.951057 -0.309017 0
    outer loop
      vertex -19.6974 -17.9236 0
      vertex -19.9235 -17.2277 10.01
      vertex -19.9235 -17.2277 0
    endloop
  endfacet
  facet normal -0.951057 -0.309017 0
    outer loop
      vertex -19.9235 -17.2277 10.01
      vertex -19.6974 -17.9236 0
      vertex -19.6974 -17.9236 10.01
    endloop
  endfacet
  facet normal -0.743146 -0.66913 0
    outer loop
      vertex -18.842 -19.101 0
      vertex -19.3316 -18.5572 10.01
      vertex -19.3316 -18.5572 0
    endloop
  endfacet
  facet normal -0.743146 -0.66913 0
    outer loop
      vertex -19.3316 -18.5572 10.01
      vertex -18.842 -19.101 0
      vertex -18.842 -19.101 10.01
    endloop
  endfacet
  facet normal -1 0 0
    outer loop
      vertex 16.5 -16.5 6.99
      vertex 16.5 16.5 10.01
      vertex 16.5 16.5 6.99
    endloop
  endfacet
  facet normal -1 -0 0
    outer loop
      vertex 16.5 16.5 10.01
      vertex 16.5 -16.5 6.99
      vertex 16.5 -16.5 10.01
    endloop
  endfacet
  facet normal 1 -0 0
    outer loop
      vertex -16.5 -16.5 10.01
      vertex -16.5 16.5 6.99
      vertex -16.5 16.5 10.01
    endloop
  endfacet
  facet normal 1 0 0
    outer loop
      vertex -16.5 16.5 6.99
      vertex -16.5 -16.5 10.01
      vertex -16.5 -16.5 6.99
    endloop
  endfacet
  facet normal 0 1 -0
    outer loop
      vertex 16.5 -16.5 6.99
      vertex -16.5 -16.5 10.01
      vertex 16.5 -16.5 10.01
    endloop
  endfacet
  facet normal 0 1 0
    outer loop
      vertex -16.5 -16.5 10.01
      vertex 16.5 -16.5 6.99
      vertex -16.5 -16.5 6.99
    endloop
  endfacet
  facet normal 0 -1 0
    outer loop
      vertex -16.5 16.5 6.99
      vertex 16.5 16.5 10.01
      vertex -16.5 16.5 10.01
    endloop
  endfacet
  facet normal 0 -1 -0
    outer loop
      vertex 16.5 16.5 10.01
      vertex -16.5 16.5 6.99
      vertex 16.5 16.5 6.99
    endloop
  endfacet
  facet normal 0 -0.709046 0.705162
    outer loop
      vertex -8.97865 3.59375 5
      vertex -7.60766 5.57285 6.99
      vertex -9.18666 5.57285 6.99
    endloop
  endfacet
  facet normal 0 -0.709046 0.705162
    outer loop
      vertex -7.60766 5.57285 6.99
      vertex -8.97865 3.59375 5
      vertex -5.61766 3.59375 5
    endloop
  endfacet
  facet normal 0.147418 0.693552 0.705162
    outer loop
      vertex -9.18666 -0.329348 6.99
      vertex -8.97865 1.64975 5
      vertex -9.5936 -0.242852 6.99
    endloop
  endfacet
  facet normal 0.707107 -0 0.707107
    outer loop
      vertex -10.9687 1.64975 6.99
      vertex -8.97865 3.59375 5
      vertex -10.9687 3.59375 6.99
    endloop
  endfacet
  facet normal 0.707107 0 0.707107
    outer loop
      vertex -8.97865 3.59375 5
      vertex -10.9687 1.64975 6.99
      vertex -8.97865 1.64975 5
    endloop
  endfacet
  facet normal -0 0.709046 0.705162
    outer loop
      vertex -8.97865 1.64975 5
      vertex -7.60766 -0.329348 6.99
      vertex -5.61766 1.64975 5
    endloop
  endfacet
  facet normal 0 0.709046 0.705162
    outer loop
      vertex -7.60766 -0.329348 6.99
      vertex -8.97865 1.64975 5
      vertex -9.18666 -0.329348 6.99
    endloop
  endfacet
  facet normal -0.707107 0 0.707107
    outer loop
      vertex -3.14566 -4.65625 5
      vertex -1.15566 10.1497 6.99
      vertex -3.14566 10.1497 5
    endloop
  endfacet
  facet normal -0.707107 0 0.707107
    outer loop
      vertex -1.15566 10.1497 6.99
      vertex -3.14566 -4.65625 5
      vertex -1.15566 -4.65625 6.99
    endloop
  endfacet
  facet normal -0 0 1
    outer loop
      vertex -8.97865 3.59375 5
      vertex -5.61766 1.64975 5
      vertex -5.61766 3.59375 5
    endloop
  endfacet
  facet normal 0 0 1
    outer loop
      vertex -5.61766 1.64975 5
      vertex -8.97865 3.59375 5
      vertex -8.97865 1.64975 5
    endloop
  endfacet
  facet normal -0 0 1
    outer loop
      vertex -5.61766 3.59375 5
      vertex -3.14566 -4.65625 5
      vertex -3.14566 10.1497 5
    endloop
  endfacet
  facet normal 0 0 1
    outer loop
      vertex -5.61766 -5.12823 5
      vertex -3.14566 -4.65625 5
      vertex -5.61766 1.64975 5
    endloop
  endfacet
  facet normal 0 -0 1
    outer loop
      vertex -5.59103 -5.52687 5
      vertex -3.14566 -4.65625 5
      vertex -5.61766 -5.12823 5
    endloop
  endfacet
  facet normal 0 -0 1
    outer loop
      vertex -5.54088 -6.27774 5
      vertex -3.14566 -4.65625 5
      vertex -5.59103 -5.52687 5
    endloop
  endfacet
  facet normal 0 -0 1
    outer loop
      vertex -5.28735 -7.42024 5
      vertex -3.14566 -4.65625 5
      vertex -5.4072 -6.90887 5
    endloop
  endfacet
  facet normal 0 -0 1
    outer loop
      vertex -4.97898 -8.09749 5
      vertex -3.14566 -4.65625 5
      vertex -5.10747 -7.81531 5
    endloop
  endfacet
  facet normal 0 0 1
    outer loop
      vertex -3.14566 -4.65625 5
      vertex -4.87213 -8.32324 5
      vertex -4.30966 -9.04524 5
    endloop
  endfacet
  facet normal 0 0 1
    outer loop
      vertex -4.87213 -8.32324 5
      vertex -4.90189 -8.2668 5
      vertex -4.88191 -8.31068 5
    endloop
  endfacet
  facet normal 0 0 1
    outer loop
      vertex -3.14566 -4.65625 5
      vertex -4.30966 -9.04524 5
      vertex -3.59297 -9.61662 5
    endloop
  endfacet
  facet normal 0 -0 1
    outer loop
      vertex -4.87213 -8.32324 5
      vertex -3.14566 -4.65625 5
      vertex -4.97898 -8.09749 5
    endloop
  endfacet
  facet normal 0 0 1
    outer loop
      vertex -3.14566 -4.65625 5
      vertex -5.28735 -7.42024 5
      vertex -5.10747 -7.81531 5
    endloop
  endfacet
  facet normal 0 0 1
    outer loop
      vertex -3.14566 -4.65625 5
      vertex -5.5359 -6.35217 5
      vertex -5.4072 -6.90887 5
    endloop
  endfacet
  facet normal 0 -0 1
    outer loop
      vertex -5.5359 -6.35217 5
      vertex -3.14566 -4.65625 5
      vertex -5.54088 -6.27774 5
    endloop
  endfacet
  facet normal 0 0 1
    outer loop
      vertex -5.61766 3.59375 5
      vertex -3.14566 10.1497 5
      vertex -5.61766 10.1497 5
    endloop
  endfacet
  facet normal 0 0 1
    outer loop
      vertex -3.14566 -4.65625 5
      vertex -5.61766 3.59375 5
      vertex -5.61766 1.64975 5
    endloop
  endfacet
  facet normal 0 0 1
    outer loop
      vertex -4.87213 -8.32324 5
      vertex -4.97898 -8.09749 5
      vertex -4.90189 -8.2668 5
    endloop
  endfacet
  facet normal 0 0 1
    outer loop
      vertex -5.28735 -7.42024 5
      vertex -5.4072 -6.90887 5
      vertex -5.29065 -7.41299 5
    endloop
  endfacet
  facet normal -0 0 1
    outer loop
      vertex 3.79033 -3.10023 5
      vertex 6.26233 -10.0732 5
      vertex 6.26233 3.59375 5
    endloop
  endfacet
  facet normal 0 0 1
    outer loop
      vertex 6.26233 -10.0732 5
      vertex 4.01233 -7.65625 5
      vertex 4.31833 -10.0732 5
    endloop
  endfacet
  facet normal 0 0 1
    outer loop
      vertex 6.26233 -10.0732 5
      vertex 3.72595 -4.33556 5
      vertex 4.01233 -7.65625 5
    endloop
  endfacet
  facet normal 0 0 1
    outer loop
      vertex 3.79033 -3.10023 5
      vertex 6.26233 3.59375 5
      vertex 3.79033 3.59375 5
    endloop
  endfacet
  facet normal 0 0 1
    outer loop
      vertex 6.26233 -10.0732 5
      vertex 3.79033 -3.10023 5
      vertex 3.72595 -4.33556 5
    endloop
  endfacet
  facet normal -0 0 1
    outer loop
      vertex 3.53282 -5.4025 5
      vertex 4.01233 -7.65625 5
      vertex 3.72595 -4.33556 5
    endloop
  endfacet
  facet normal -0 0 1
    outer loop
      vertex 3.21095 -6.30106 5
      vertex 4.01233 -7.65625 5
      vertex 3.53282 -5.4025 5
    endloop
  endfacet
  facet normal 0 0 1
    outer loop
      vertex 4.01233 -7.65625 5
      vertex 3.21095 -6.30106 5
      vertex 3.87332 -7.65625 5
    endloop
  endfacet
  facet normal -0 0 1
    outer loop
      vertex 2.76033 -7.03125 5
      vertex 3.87332 -7.65625 5
      vertex 3.21095 -6.30106 5
    endloop
  endfacet
  facet normal 0 0 1
    outer loop
      vertex 3.87332 -7.65625 5
      vertex 2.76033 -7.03125 5
      vertex 3.68079 -8.00024 5
    endloop
  endfacet
  facet normal 0 0 1
    outer loop
      vertex 3.68079 -8.00024 5
      vertex 2.76033 -7.03125 5
      vertex 3.57358 -8.1918 5
    endloop
  endfacet
  facet normal 0 0 1
    outer loop
      vertex 3.57358 -8.1918 5
      vertex 2.76033 -7.03125 5
      vertex 3.53561 -8.24249 5
    endloop
  endfacet
  facet normal -0 0 1
    outer loop
      vertex 2.19434 -7.5965 5
      vertex 3.53561 -8.24249 5
      vertex 2.76033 -7.03125 5
    endloop
  endfacet
  facet normal 0 0 1
    outer loop
      vertex 3.53561 -8.24249 5
      vertex 2.19434 -7.5965 5
      vertex 3.47514 -8.32324 5
    endloop
  endfacet
  facet normal 0 0 1
    outer loop
      vertex 3.47514 -8.32324 5
      vertex 2.19434 -7.5965 5
      vertex 3.20233 -8.6875 5
    endloop
  endfacet
  facet normal -0 0 1
    outer loop
      vertex 2.09562 -7.65625 5
      vertex 3.20233 -8.6875 5
      vertex 2.19434 -7.5965 5
    endloop
  endfacet
  facet normal 0 0 1
    outer loop
      vertex 3.20233 -8.6875 5
      vertex 2.09562 -7.65625 5
      vertex 2.75958 -9.14331 5
    endloop
  endfacet
  facet normal -0 0 1
    outer loop
      vertex 1.52733 -8.00024 5
      vertex 2.75958 -9.14331 5
      vertex 2.09562 -7.65625 5
    endloop
  endfacet
  facet normal 0 0 1
    outer loop
      vertex 2.75958 -9.14331 5
      vertex 1.52733 -8.00024 5
      vertex 2.24533 -9.55925 5
    endloop
  endfacet
  facet normal 0 0 1
    outer loop
      vertex 2.24533 -9.55925 5
      vertex 1.52733 -8.00024 5
      vertex 1.64932 -9.90575 5
    endloop
  endfacet
  facet normal -0 0 1
    outer loop
      vertex 0.759323 -8.24249 5
      vertex 1.64932 -9.90575 5
      vertex 1.52733 -8.00024 5
    endloop
  endfacet
  facet normal 0 0 1
    outer loop
      vertex 1.64932 -9.90575 5
      vertex 0.759323 -8.24249 5
      vertex 0.961334 -10.1532 5
    endloop
  endfacet
  facet normal -0 0 1
    outer loop
      vertex -0.10965 -8.32324 5
      vertex 0.961334 -10.1532 5
      vertex 0.759323 -8.24249 5
    endloop
  endfacet
  facet normal 0 0 1
    outer loop
      vertex 0.961334 -10.1532 5
      vertex -0.10965 -8.32324 5
      vertex 0.181335 -10.3017 5
    endloop
  endfacet
  facet normal 0 0 1
    outer loop
      vertex -0.10965 -8.32324 5
      vertex -0.690659 -10.3512 5
      vertex 0.181335 -10.3017 5
    endloop
  endfacet
  facet normal 0 0 1
    outer loop
      vertex -0.770035 -8.2668 5
      vertex -0.690659 -10.3512 5
      vertex -0.10965 -8.32324 5
    endloop
  endfacet
  facet normal 0 0 1
    outer loop
      vertex -1.78346 -10.2696 5
      vertex -0.770035 -8.2668 5
      vertex -1.35916 -8.09749 5
    endloop
  endfacet
  facet normal 0 0 1
    outer loop
      vertex -0.770035 -8.2668 5
      vertex -1.78346 -10.2696 5
      vertex -0.690659 -10.3512 5
    endloop
  endfacet
  facet normal 0 0 1
    outer loop
      vertex -2.7509 -10.0247 5
      vertex -1.35916 -8.09749 5
      vertex -1.87703 -7.81531 5
    endloop
  endfacet
  facet normal 0 0 1
    outer loop
      vertex -3.59297 -9.61662 5
      vertex -1.87703 -7.81531 5
      vertex -2.32365 -7.42024 5
    endloop
  endfacet
  facet normal 0 0 1
    outer loop
      vertex -3.59297 -9.61662 5
      vertex -2.32365 -7.42024 5
      vertex -2.68329 -6.90887 5
    endloop
  endfacet
  facet normal 0 0 1
    outer loop
      vertex -1.35916 -8.09749 5
      vertex -2.7509 -10.0247 5
      vertex -1.78346 -10.2696 5
    endloop
  endfacet
  facet normal 0 0 1
    outer loop
      vertex -3.59297 -9.61662 5
      vertex -2.68329 -6.90887 5
      vertex -2.94016 -6.27774 5
    endloop
  endfacet
  facet normal 0 0 1
    outer loop
      vertex -3.59297 -9.61662 5
      vertex -2.94016 -6.27774 5
      vertex -3.09428 -5.52687 5
    endloop
  endfacet
  facet normal 0 0 1
    outer loop
      vertex -1.87703 -7.81531 5
      vertex -3.59297 -9.61662 5
      vertex -2.7509 -10.0247 5
    endloop
  endfacet
  facet normal 0 0 1
    outer loop
      vertex -3.59297 -9.61662 5
      vertex -3.09428 -5.52687 5
      vertex -3.14566 -4.65625 5
    endloop
  endfacet
  facet normal 0.614052 0.354523 0.705162
    outer loop
      vertex -10.5886 0.480057 6.99
      vertex -8.97865 1.64975 5
      vertex -10.7966 0.840344 6.99
    endloop
  endfacet
  facet normal 0.705162 0.0741161 0.705162
    outer loop
      vertex -10.9252 1.23601 6.99
      vertex -8.97865 1.64975 5
      vertex -10.9687 1.64975 6.99
    endloop
  endfacet
  facet normal 0.416768 -0.57363 0.705162
    outer loop
      vertex -8.97865 3.59375 5
      vertex -9.97365 5.31714 6.99
      vertex -10.3102 5.07261 6.99
    endloop
  endfacet
  facet normal 0.614052 -0.354523 0.705162
    outer loop
      vertex -8.97865 3.59375 5
      vertex -10.5886 4.76344 6.99
      vertex -10.7966 4.40316 6.99
    endloop
  endfacet
  facet normal 0.147419 -0.693552 0.705162
    outer loop
      vertex -8.97865 3.59375 5
      vertex -9.18666 5.57285 6.99
      vertex -9.5936 5.48635 6.99
    endloop
  endfacet
  facet normal 0.674343 -0.219107 0.705162
    outer loop
      vertex -8.97865 3.59375 5
      vertex -10.7966 4.40316 6.99
      vertex -10.9252 4.00749 6.99
    endloop
  endfacet
  facet normal 0.705162 -0.0741161 0.705162
    outer loop
      vertex -8.97865 3.59375 5
      vertex -10.9252 4.00749 6.99
      vertex -10.9687 3.59375 6.99
    endloop
  endfacet
  facet normal 0.416768 0.57363 0.705162
    outer loop
      vertex -9.97365 -0.0736397 6.99
      vertex -8.97865 1.64975 5
      vertex -10.3102 0.170892 6.99
    endloop
  endfacet
  facet normal 0.674343 0.219107 0.705162
    outer loop
      vertex -10.7966 0.840344 6.99
      vertex -8.97865 1.64975 5
      vertex -10.9252 1.23601 6.99
    endloop
  endfacet
  facet normal 0.288396 -0.647746 0.705162
    outer loop
      vertex -8.97865 3.59375 5
      vertex -9.5936 5.48635 6.99
      vertex -9.97365 5.31714 6.99
    endloop
  endfacet
  facet normal 0.526923 -0.474446 0.705162
    outer loop
      vertex -8.97865 3.59375 5
      vertex -10.3102 5.07261 6.99
      vertex -10.5886 4.76344 6.99
    endloop
  endfacet
  facet normal 0.288396 0.647746 0.705162
    outer loop
      vertex -9.5936 -0.242852 6.99
      vertex -8.97865 1.64975 5
      vertex -9.97365 -0.0736397 6.99
    endloop
  endfacet
  facet normal 0.526923 0.474446 0.705162
    outer loop
      vertex -10.3102 0.170892 6.99
      vertex -8.97865 1.64975 5
      vertex -10.5886 0.480057 6.99
    endloop
  endfacet
  facet normal 0.707107 0 0.707107
    outer loop
      vertex -5.61766 -5.12823 5
      vertex -7.60766 -0.329348 6.99
      vertex -7.60766 -5.12823 6.99
    endloop
  endfacet
  facet normal 0.707107 0 0.707107
    outer loop
      vertex -7.60766 -0.329348 6.99
      vertex -5.61766 -5.12823 5
      vertex -5.61766 1.64975 5
    endloop
  endfacet
  facet normal 0.707107 -0 0.707107
    outer loop
      vertex -7.60766 5.57285 6.99
      vertex -5.61766 10.1497 5
      vertex -7.60766 10.1497 6.99
    endloop
  endfacet
  facet normal 0.707107 0 0.707107
    outer loop
      vertex -5.61766 10.1497 5
      vertex -7.60766 5.57285 6.99
      vertex -5.61766 3.59375 5
    endloop
  endfacet
  facet normal 0.614052 -0.354523 0.705162
    outer loop
      vertex -5.61766 10.1497 5
      vertex -7.2276 11.3194 6.99
      vertex -7.43562 10.9592 6.99
    endloop
  endfacet
  facet normal 0.705162 -0.0741161 0.705162
    outer loop
      vertex -5.61766 10.1497 5
      vertex -7.56417 10.5635 6.99
      vertex -7.60766 10.1497 6.99
    endloop
  endfacet
  facet normal 0.147418 -0.693552 0.705162
    outer loop
      vertex -5.61766 10.1497 5
      vertex -5.82567 12.1288 6.99
      vertex -6.2326 12.0424 6.99
    endloop
  endfacet
  facet normal 0.674343 -0.219108 0.705162
    outer loop
      vertex -5.61766 10.1497 5
      vertex -7.43562 10.9592 6.99
      vertex -7.56417 10.5635 6.99
    endloop
  endfacet
  facet normal -0.147418 -0.693552 0.705162
    outer loop
      vertex -2.53072 12.0424 6.99
      vertex -2.93765 12.1288 6.99
      vertex -3.14566 10.1497 5
    endloop
  endfacet
  facet normal -0.705162 -0.0741159 0.705162
    outer loop
      vertex -1.15566 10.1497 6.99
      vertex -1.19915 10.5635 6.99
      vertex -3.14566 10.1497 5
    endloop
  endfacet
  facet normal 0 -0.709046 0.705162
    outer loop
      vertex -5.61766 10.1497 5
      vertex -2.93765 12.1288 6.99
      vertex -5.82567 12.1288 6.99
    endloop
  endfacet
  facet normal 0 -0.709046 0.705162
    outer loop
      vertex -2.93765 12.1288 6.99
      vertex -5.61766 10.1497 5
      vertex -3.14566 10.1497 5
    endloop
  endfacet
  facet normal 0.288395 -0.647746 0.705162
    outer loop
      vertex -5.61766 10.1497 5
      vertex -6.2326 12.0424 6.99
      vertex -6.61266 11.8731 6.99
    endloop
  endfacet
  facet normal -0.526924 -0.474445 0.705162
    outer loop
      vertex -1.53572 11.3194 6.99
      vertex -1.81409 11.6286 6.99
      vertex -3.14566 10.1497 5
    endloop
  endfacet
  facet normal 0.416768 -0.57363 0.705162
    outer loop
      vertex -5.61766 10.1497 5
      vertex -6.61266 11.8731 6.99
      vertex -6.94923 11.6286 6.99
    endloop
  endfacet
  facet normal 0.526924 -0.474445 0.705162
    outer loop
      vertex -5.61766 10.1497 5
      vertex -6.94923 11.6286 6.99
      vertex -7.2276 11.3194 6.99
    endloop
  endfacet
  facet normal -0.288395 -0.647746 0.705162
    outer loop
      vertex -2.15066 11.8731 6.99
      vertex -2.53072 12.0424 6.99
      vertex -3.14566 10.1497 5
    endloop
  endfacet
  facet normal -0.614052 -0.354523 0.705162
    outer loop
      vertex -1.32771 10.9592 6.99
      vertex -1.53572 11.3194 6.99
      vertex -3.14566 10.1497 5
    endloop
  endfacet
  facet normal -0.674343 -0.219108 0.705162
    outer loop
      vertex -1.19915 10.5635 6.99
      vertex -1.32771 10.9592 6.99
      vertex -3.14566 10.1497 5
    endloop
  endfacet
  facet normal -0.416768 -0.57363 0.705162
    outer loop
      vertex -1.81409 11.6286 6.99
      vertex -2.15066 11.8731 6.99
      vertex -3.14566 10.1497 5
    endloop
  endfacet
  facet normal -0.44499 0.550168 0.706611
    outer loop
      vertex 2.24533 -9.55925 5
      vertex 3.37004 -9.82129 5.91231
      vertex 2.75958 -9.14331 5
    endloop
  endfacet
  facet normal -0.44499 0.550168 0.706611
    outer loop
      vertex 3.37004 -9.82129 5.91231
      vertex 2.24533 -9.55925 5
      vertex 3.17096 -10.3171 6.173
    endloop
  endfacet
  facet normal -0.44499 0.550168 0.706611
    outer loop
      vertex 3.17096 -10.3171 6.173
      vertex 2.24533 -9.55925 5
      vertex 3.11094 -10.5206 6.29363
    endloop
  endfacet
  facet normal -0.566004 0.423901 0.707069
    outer loop
      vertex 3.20233 -8.6875 5
      vertex 3.76432 -8.53335 5.35745
      vertex 3.47514 -8.32324 5
    endloop
  endfacet
  facet normal -0.566004 0.423901 0.707069
    outer loop
      vertex 3.76432 -8.53335 5.35745
      vertex 3.20233 -8.6875 5
      vertex 3.63988 -9.0054 5.54084
    endloop
  endfacet
  facet normal 0.416768 0.57363 0.705162
    outer loop
      vertex -4.58797 -11.34 6.99
      vertex -3.59297 -9.61662 5
      vertex -4.92454 -11.0955 6.99
    endloop
  endfacet
  facet normal -0.147418 0.693552 0.705162
    outer loop
      vertex 1.16935 -12.1323 6.99
      vertex 1.57628 -12.0458 6.99
      vertex 0.961334 -10.1532 5
    endloop
  endfacet
  facet normal -0.507782 0.493231 0.706315
    outer loop
      vertex 2.75958 -9.14331 5
      vertex 3.60078 -9.13002 5.59547
      vertex 3.20233 -8.6875 5
    endloop
  endfacet
  facet normal -0.507782 0.493231 0.706315
    outer loop
      vertex 3.60078 -9.13002 5.59547
      vertex 2.75958 -9.14331 5
      vertex 3.37004 -9.82129 5.91231
    endloop
  endfacet
  facet normal 0.0526777 0.705303 0.706946
    outer loop
      vertex -1.78346 -10.2696 5
      vertex -0.89867 -12.3303 6.99
      vertex -0.690659 -10.3512 5
    endloop
  endfacet
  facet normal 0.0526777 0.705303 0.706946
    outer loop
      vertex -0.89867 -12.3303 6.99
      vertex -1.78346 -10.2696 5
      vertex -1.99147 -12.2487 6.99
    endloop
  endfacet
  facet normal -0.355393 0.61131 0.707104
    outer loop
      vertex 2.98003 -11.0456 6.65422
      vertex 2.64432 -11.6291 6.99
      vertex 2.91463 -11.472 6.99
    endloop
  endfacet
  facet normal -0.355393 0.611309 0.707105
    outer loop
      vertex 1.64932 -9.90575 5
      vertex 2.98003 -11.0456 6.65422
      vertex 3.0187 -10.8988 6.54675
    endloop
  endfacet
  facet normal -0.355392 0.611309 0.707105
    outer loop
      vertex 1.64932 -9.90575 5
      vertex 3.0187 -10.8988 6.54675
      vertex 2.24533 -9.55925 5
    endloop
  endfacet
  facet normal -0.355392 0.611309 0.707105
    outer loop
      vertex 2.98003 -11.0456 6.65422
      vertex 1.64932 -9.90575 5
      vertex 2.64432 -11.6291 6.99
    endloop
  endfacet
  facet normal 0.441195 0.553396 0.70647
    outer loop
      vertex -4.30966 -9.04524 5
      vertex -4.92454 -11.0955 6.99
      vertex -3.59297 -9.61662 5
    endloop
  endfacet
  facet normal 0.441195 0.553396 0.70647
    outer loop
      vertex -4.92454 -11.0955 6.99
      vertex -4.30966 -9.04524 5
      vertex -5.64123 -10.5241 6.99
    endloop
  endfacet
  facet normal 0.173698 0.686241 0.70633
    outer loop
      vertex -2.7509 -10.0247 5
      vertex -2.39841 -12.1622 6.99
      vertex -1.78346 -10.2696 5
    endloop
  endfacet
  facet normal 0.173698 0.686241 0.70633
    outer loop
      vertex -2.39841 -12.1622 6.99
      vertex -2.7509 -10.0247 5
      vertex -3.36584 -11.9174 6.99
    endloop
  endfacet
  facet normal -0.239416 0.665524 0.706935
    outer loop
      vertex 0.961334 -10.1532 5
      vertex 2.26427 -11.7983 6.99
      vertex 1.64932 -9.90575 5
    endloop
  endfacet
  facet normal -0.239416 0.665524 0.706935
    outer loop
      vertex 2.26427 -11.7983 6.99
      vertex 0.961334 -10.1532 5
      vertex 1.57628 -12.0458 6.99
    endloop
  endfacet
  facet normal -0.288396 0.647746 0.705162
    outer loop
      vertex 2.26427 -11.7983 6.99
      vertex 2.64432 -11.6291 6.99
      vertex 1.64932 -9.90575 5
    endloop
  endfacet
  facet normal -0.132476 0.695839 0.705874
    outer loop
      vertex 0.181335 -10.3017 5
      vertex 1.16935 -12.1323 6.99
      vertex 0.961334 -10.1532 5
    endloop
  endfacet
  facet normal -0.132476 0.695839 0.705874
    outer loop
      vertex 1.16935 -12.1323 6.99
      vertex 0.181335 -10.3017 5
      vertex 0.389347 -12.2808 6.99
    endloop
  endfacet
  facet normal 0 0.709046 0.705162
    outer loop
      vertex -0.482647 -12.3303 6.99
      vertex -0.690659 -10.3512 5
      vertex -0.89867 -12.3303 6.99
    endloop
  endfacet
  facet normal -0.0400981 0.706377 0.706699
    outer loop
      vertex 0.181335 -10.3017 5
      vertex -0.482647 -12.3303 6.99
      vertex 0.389347 -12.2808 6.99
    endloop
  endfacet
  facet normal -0.0400981 0.706377 0.706699
    outer loop
      vertex -0.482647 -12.3303 6.99
      vertex 0.181335 -10.3017 5
      vertex -0.690659 -10.3512 5
    endloop
  endfacet
  facet normal -0.526925 0.474444 0.705162
    outer loop
      vertex 3.60078 -9.13002 5.59547
      vertex 3.63988 -9.0054 5.54084
      vertex 3.20233 -8.6875 5
    endloop
  endfacet
  facet normal 0.147418 0.693552 0.705162
    outer loop
      vertex -1.99147 -12.2487 6.99
      vertex -1.78346 -10.2696 5
      vertex -2.39841 -12.1622 6.99
    endloop
  endfacet
  facet normal -0.416767 0.57363 0.705162
    outer loop
      vertex 3.07667 -10.6261 6.35917
      vertex 2.24533 -9.55925 5
      vertex 3.0187 -10.8988 6.54675
    endloop
  endfacet
  facet normal -0.416763 0.573634 0.705162
    outer loop
      vertex 2.24533 -9.55925 5
      vertex 3.07667 -10.6261 6.35917
      vertex 3.11094 -10.5206 6.29363
    endloop
  endfacet
  facet normal 0.557972 0.434682 0.706908
    outer loop
      vertex -4.87213 -8.32324 5
      vertex -5.9196 -10.2149 6.99
      vertex -4.30966 -9.04524 5
    endloop
  endfacet
  facet normal 0.557972 0.434682 0.706908
    outer loop
      vertex -5.9196 -10.2149 6.99
      vertex -4.87213 -8.32324 5
      vertex -6.48207 -9.49293 6.99
    endloop
  endfacet
  facet normal 0.288395 0.647746 0.705162
    outer loop
      vertex -3.36584 -11.9174 6.99
      vertex -2.7509 -10.0247 5
      vertex -3.7459 -11.7481 6.99
    endloop
  endfacet
  facet normal 0.308803 0.637141 0.706181
    outer loop
      vertex -3.59297 -9.61662 5
      vertex -3.7459 -11.7481 6.99
      vertex -2.7509 -10.0247 5
    endloop
  endfacet
  facet normal 0.308803 0.637141 0.706181
    outer loop
      vertex -3.7459 -11.7481 6.99
      vertex -3.59297 -9.61662 5
      vertex -4.58797 -11.34 6.99
    endloop
  endfacet
  facet normal 0.526924 0.474445 0.705162
    outer loop
      vertex -5.64123 -10.5241 6.99
      vertex -4.30966 -9.04524 5
      vertex -5.9196 -10.2149 6.99
    endloop
  endfacet
  facet normal 0.0654286 -0.704099 0.707081
    outer loop
      vertex 0.363172 -6.28088 6.99
      vertex -0.10965 -8.32324 5
      vertex 0.759323 -8.24249 5
    endloop
  endfacet
  facet normal 0.0654292 -0.704099 0.707081
    outer loop
      vertex -0.10965 -8.32324 5
      vertex 0.363172 -6.28088 6.99
      vertex -0.118344 -6.32562 6.99
    endloop
  endfacet
  facet normal -0.566004 0.423901 0.70707
    outer loop
      vertex 3.47514 -8.32324 5
      vertex 3.79191 -8.4287 5.3168
      vertex 3.53561 -8.24249 5
    endloop
  endfacet
  facet normal -0.566003 0.423903 0.707069
    outer loop
      vertex 3.79191 -8.4287 5.3168
      vertex 3.47514 -8.32324 5
      vertex 3.76432 -8.53335 5.35745
    endloop
  endfacet
  facet normal -0.0602222 -0.704605 0.70704
    outer loop
      vertex -0.411204 -6.30059 6.99
      vertex -0.10965 -8.32324 5
      vertex -0.118344 -6.32562 6.99
    endloop
  endfacet
  facet normal -0.0602217 -0.704605 0.70704
    outer loop
      vertex -0.10965 -8.32324 5
      vertex -0.411204 -6.30059 6.99
      vertex -0.770035 -8.2668 5
    endloop
  endfacet
  facet normal 0.55796 0.434698 0.706908
    outer loop
      vertex -4.88191 -8.31068 5
      vertex -6.48207 -9.49293 6.99
      vertex -4.87213 -8.32324 5
    endloop
  endfacet
  facet normal 0.55796 0.434698 0.706908
    outer loop
      vertex -6.48207 -9.49293 6.99
      vertex -4.88191 -8.31068 5
      vertex -6.49186 -9.48038 6.99
    endloop
  endfacet
  facet normal 0.614052 0.354523 0.705162
    outer loop
      vertex -6.49186 -9.48038 6.99
      vertex -4.88191 -8.31068 5
      vertex -6.69987 -9.12009 6.99
    endloop
  endfacet
  facet normal 0.64355 0.293021 0.707094
    outer loop
      vertex -4.90189 -8.2668 5
      vertex -6.69987 -9.12009 6.99
      vertex -4.88191 -8.31068 5
    endloop
  endfacet
  facet normal 0.64355 0.293021 0.707094
    outer loop
      vertex -6.69987 -9.12009 6.99
      vertex -4.90189 -8.2668 5
      vertex -6.71985 -9.07621 6.99
    endloop
  endfacet
  facet normal 0.643551 0.293019 0.707094
    outer loop
      vertex -4.97898 -8.09749 5
      vertex -6.71985 -9.07621 6.99
      vertex -4.90189 -8.2668 5
    endloop
  endfacet
  facet normal 0.643551 0.293019 0.707094
    outer loop
      vertex -6.71985 -9.07621 6.99
      vertex -4.97898 -8.09749 5
      vertex -6.79694 -8.90689 6.99
    endloop
  endfacet
  facet normal -0.19537 -0.679798 0.706899
    outer loop
      vertex -0.597124 -6.24716 6.99
      vertex -0.770035 -8.2668 5
      vertex -0.411204 -6.30059 6.99
    endloop
  endfacet
  facet normal -0.19537 -0.679798 0.706899
    outer loop
      vertex -0.770035 -8.2668 5
      vertex -0.597124 -6.24716 6.99
      vertex -1.35916 -8.09749 5
    endloop
  endfacet
  facet normal 0.643549 0.293023 0.707094
    outer loop
      vertex -5.10747 -7.81531 5
      vertex -6.79694 -8.90689 6.99
      vertex -4.97898 -8.09749 5
    endloop
  endfacet
  facet normal 0.643549 0.293023 0.707094
    outer loop
      vertex -6.79694 -8.90689 6.99
      vertex -5.10747 -7.81531 5
      vertex -6.92542 -8.62471 6.99
    endloop
  endfacet
  facet normal -0.33838 -0.621008 0.706999
    outer loop
      vertex -0.725457 -6.17723 6.99
      vertex -1.35916 -8.09749 5
      vertex -0.597124 -6.24716 6.99
    endloop
  endfacet
  facet normal -0.338381 -0.621008 0.706999
    outer loop
      vertex -1.35916 -8.09749 5
      vertex -0.725457 -6.17723 6.99
      vertex -1.87703 -7.81531 5
    endloop
  endfacet
  facet normal 0.64355 0.293021 0.707094
    outer loop
      vertex -5.28735 -7.42024 5
      vertex -6.92542 -8.62471 6.99
      vertex -5.10747 -7.81531 5
    endloop
  endfacet
  facet normal 0.64355 0.293021 0.707094
    outer loop
      vertex -6.92542 -8.62471 6.99
      vertex -5.28735 -7.42024 5
      vertex -7.1053 -8.22965 6.99
    endloop
  endfacet
  facet normal -0.468504 -0.529645 0.707093
    outer loop
      vertex -0.830817 -6.08404 6.99
      vertex -1.87703 -7.81531 5
      vertex -0.725457 -6.17723 6.99
    endloop
  endfacet
  facet normal -0.468502 -0.529646 0.707093
    outer loop
      vertex -1.87703 -7.81531 5
      vertex -0.830817 -6.08404 6.99
      vertex -2.32365 -7.42024 5
    endloop
  endfacet
  facet normal 0.212713 -0.674368 0.707094
    outer loop
      vertex 0.702509 -6.17384 6.99
      vertex 0.759323 -8.24249 5
      vertex 1.52733 -8.00024 5
    endloop
  endfacet
  facet normal 0.212712 -0.674368 0.707094
    outer loop
      vertex 0.759323 -8.24249 5
      vertex 0.702509 -6.17384 6.99
      vertex 0.363172 -6.28088 6.99
    endloop
  endfacet
  facet normal -0.618326 0.346069 0.705627
    outer loop
      vertex 3.57358 -8.1918 5
      vertex 3.86437 -8.08198 5.20096
      vertex 3.68079 -8.00024 5
    endloop
  endfacet
  facet normal -0.618326 0.346069 0.705627
    outer loop
      vertex 3.86437 -8.08198 5.20096
      vertex 3.57358 -8.1918 5
      vertex 3.8215 -8.30219 5.27139
    endloop
  endfacet
  facet normal -0.566001 0.423904 0.70707
    outer loop
      vertex 3.53561 -8.24249 5
      vertex 3.80923 -8.36301 5.29128
      vertex 3.57358 -8.1918 5
    endloop
  endfacet
  facet normal -0.565999 0.423907 0.70707
    outer loop
      vertex 3.80923 -8.36301 5.29128
      vertex 3.53561 -8.24249 5
      vertex 3.79191 -8.4287 5.3168
    endloop
  endfacet
  facet normal -0.614055 0.354518 0.705162
    outer loop
      vertex 3.80923 -8.36301 5.29128
      vertex 3.8215 -8.30219 5.27139
      vertex 3.57358 -8.1918 5
    endloop
  endfacet
  facet normal -0.707107 0 0.707107
    outer loop
      vertex 6.26233 -10.0732 5
      vertex 8.25233 3.59375 6.99
      vertex 6.26233 3.59375 5
    endloop
  endfacet
  facet normal -0.707107 0 0.707107
    outer loop
      vertex 8.25233 3.59375 6.99
      vertex 6.26233 -10.0732 5
      vertex 8.25233 -10.0732 6.99
    endloop
  endfacet
  facet normal 0.6026 -0.371881 0.7061
    outer loop
      vertex 1.2005 -5.78035 6.99
      vertex 3.21095 -6.30106 5
      vertex 1.41282 -5.4363 6.99
    endloop
  endfacet
  facet normal 0.6026 -0.371881 0.7061
    outer loop
      vertex 3.21095 -6.30106 5
      vertex 1.2005 -5.78035 6.99
      vertex 2.76033 -7.03125 5
    endloop
  endfacet
  facet normal 0.666622 -0.238788 0.706113
    outer loop
      vertex 1.59976 -4.91443 6.99
      vertex 3.21095 -6.30106 5
      vertex 3.53282 -5.4025 5
    endloop
  endfacet
  facet normal 0.666622 -0.238788 0.706113
    outer loop
      vertex 3.21095 -6.30106 5
      vertex 1.59976 -4.91443 6.99
      vertex 1.41282 -5.4363 6.99
    endloop
  endfacet
  facet normal -0.416767 0.573631 0.705162
    outer loop
      vertex 7.25733 -11.7966 6.99
      vertex 7.5939 -11.5521 6.99
      vertex 6.26233 -10.0732 5
    endloop
  endfacet
  facet normal 0.288395 0.647746 0.705162
    outer loop
      vertex 3.70339 -11.9658 6.99
      vertex 4.31833 -10.0732 5
      vertex 3.32333 -11.7966 6.99
    endloop
  endfacet
  facet normal -0.526924 0.474445 0.705162
    outer loop
      vertex 7.5939 -11.5521 6.99
      vertex 7.87227 -11.2429 6.99
      vertex 6.26233 -10.0732 5
    endloop
  endfacet
  facet normal 0.147418 0.693552 0.705162
    outer loop
      vertex 4.11032 -12.0523 6.99
      vertex 4.31833 -10.0732 5
      vertex 3.70339 -11.9658 6.99
    endloop
  endfacet
  facet normal 0.674343 0.219108 0.705162
    outer loop
      vertex 3.11094 -10.5206 6.29363
      vertex 4.31833 -10.0732 5
      vertex 3.17096 -10.3171 6.173
    endloop
  endfacet
  facet normal 0.674341 0.219113 0.705162
    outer loop
      vertex 4.31833 -10.0732 5
      vertex 3.11094 -10.5206 6.29363
      vertex 3.07667 -10.6261 6.35917
    endloop
  endfacet
  facet normal -0.705162 0.0741161 0.705162
    outer loop
      vertex 8.20884 -10.487 6.99
      vertex 8.25233 -10.0732 6.99
      vertex 6.26233 -10.0732 5
    endloop
  endfacet
  facet normal 0.702731 0.0889673 0.705871
    outer loop
      vertex 3.86437 -8.08198 5.20096
      vertex 4.01233 -7.65625 5
      vertex 3.92886 -7.75074 5.09501
    endloop
  endfacet
  facet normal 0.70273 0.0889681 0.705872
    outer loop
      vertex 4.01233 -7.65625 5
      vertex 3.86437 -8.08198 5.20096
      vertex 4.31833 -10.0732 5
    endloop
  endfacet
  facet normal 0.70273 0.0889682 0.705872
    outer loop
      vertex 3.8215 -8.30219 5.27139
      vertex 4.31833 -10.0732 5
      vertex 3.86437 -8.08198 5.20096
    endloop
  endfacet
  facet normal 0.70273 0.0889679 0.705872
    outer loop
      vertex 3.80923 -8.36301 5.29128
      vertex 4.31833 -10.0732 5
      vertex 3.8215 -8.30219 5.27139
    endloop
  endfacet
  facet normal 0.702731 0.0889683 0.705871
    outer loop
      vertex 3.79191 -8.4287 5.3168
      vertex 4.31833 -10.0732 5
      vertex 3.80923 -8.36301 5.29128
    endloop
  endfacet
  facet normal 0.702731 0.0889684 0.705871
    outer loop
      vertex 3.76432 -8.53335 5.35745
      vertex 4.31833 -10.0732 5
      vertex 3.79191 -8.4287 5.3168
    endloop
  endfacet
  facet normal 0.702731 0.0889684 0.705871
    outer loop
      vertex 3.63988 -9.0054 5.54084
      vertex 4.31833 -10.0732 5
      vertex 3.76432 -8.53335 5.35745
    endloop
  endfacet
  facet normal 0.70273 0.0889677 0.705872
    outer loop
      vertex 3.60078 -9.13002 5.59547
      vertex 4.31833 -10.0732 5
      vertex 3.63988 -9.0054 5.54084
    endloop
  endfacet
  facet normal 0.70273 0.088968 0.705872
    outer loop
      vertex 3.37004 -9.82129 5.91231
      vertex 4.31833 -10.0732 5
      vertex 3.60078 -9.13002 5.59547
    endloop
  endfacet
  facet normal 0.70273 0.088968 0.705872
    outer loop
      vertex 4.31833 -10.0732 5
      vertex 3.37004 -9.82129 5.91231
      vertex 3.17096 -10.3171 6.173
    endloop
  endfacet
  facet normal -0.614052 0.354524 0.705162
    outer loop
      vertex 7.87227 -11.2429 6.99
      vertex 8.08028 -10.8826 6.99
      vertex 6.26233 -10.0732 5
    endloop
  endfacet
  facet normal -0.674343 0.219107 0.705162
    outer loop
      vertex 8.08028 -10.8826 6.99
      vertex 8.20884 -10.487 6.99
      vertex 6.26233 -10.0732 5
    endloop
  endfacet
  facet normal 0 0.709046 0.705162
    outer loop
      vertex 6.26233 -10.0732 5
      vertex 4.11032 -12.0523 6.99
      vertex 6.47034 -12.0523 6.99
    endloop
  endfacet
  facet normal 0 0.709046 0.705162
    outer loop
      vertex 4.11032 -12.0523 6.99
      vertex 6.26233 -10.0732 5
      vertex 4.31833 -10.0732 5
    endloop
  endfacet
  facet normal 0.614053 0.354521 0.705162
    outer loop
      vertex 3.0187 -10.8988 6.54675
      vertex 4.31833 -10.0732 5
      vertex 3.07667 -10.6261 6.35917
    endloop
  endfacet
  facet normal 0.614053 0.354522 0.705162
    outer loop
      vertex 4.31833 -10.0732 5
      vertex 3.0187 -10.8988 6.54675
      vertex 2.98003 -11.0456 6.65422
    endloop
  endfacet
  facet normal 0.526923 0.474446 0.705162
    outer loop
      vertex 2.98003 -11.0456 6.65422
      vertex 2.98676 -11.5521 6.99
      vertex 4.31833 -10.0732 5
    endloop
  endfacet
  facet normal 0.526923 0.474446 0.705162
    outer loop
      vertex 2.98676 -11.5521 6.99
      vertex 2.98003 -11.0456 6.65422
      vertex 2.91463 -11.472 6.99
    endloop
  endfacet
  facet normal 0.416768 0.57363 0.705162
    outer loop
      vertex 3.32333 -11.7966 6.99
      vertex 4.31833 -10.0732 5
      vertex 2.98676 -11.5521 6.99
    endloop
  endfacet
  facet normal -0.147418 0.693552 0.705162
    outer loop
      vertex 6.47034 -12.0523 6.99
      vertex 6.87727 -11.9658 6.99
      vertex 6.26233 -10.0732 5
    endloop
  endfacet
  facet normal -0.288396 0.647746 0.705162
    outer loop
      vertex 6.87727 -11.9658 6.99
      vertex 7.25733 -11.7966 6.99
      vertex 6.26233 -10.0732 5
    endloop
  endfacet
  facet normal 0 0.709047 0.705161
    outer loop
      vertex 3.92886 -7.75074 5.09501
      vertex 4.01233 -7.65625 5
      vertex 3.87332 -7.65625 5
    endloop
  endfacet
  facet normal 0.366201 -0.604983 0.707031
    outer loop
      vertex 2.09562 -7.65625 5
      vertex 2.19434 -7.5965 5
      vertex 1.67378 -6.9256 5.84369
    endloop
  endfacet
  facet normal 0.69596 -0.125978 0.706944
    outer loop
      vertex 1.59976 -4.91443 6.99
      vertex 3.72595 -4.33556 5
      vertex 1.74865 -4.0919 6.99
    endloop
  endfacet
  facet normal 0.69596 -0.125978 0.706944
    outer loop
      vertex 3.72595 -4.33556 5
      vertex 1.59976 -4.91443 6.99
      vertex 3.53282 -5.4025 5
    endloop
  endfacet
  facet normal 0.500003 -0.500665 0.706634
    outer loop
      vertex 2.76033 -7.03125 5
      vertex 1.67378 -6.9256 5.84369
      vertex 2.19434 -7.5965 5
    endloop
  endfacet
  facet normal 0.500004 -0.500665 0.706634
    outer loop
      vertex 1.2005 -5.78035 6.99
      vertex 1.67378 -6.9256 5.84369
      vertex 2.76033 -7.03125 5
    endloop
  endfacet
  facet normal 0.500003 -0.500665 0.706634
    outer loop
      vertex 1.67378 -6.9256 5.84369
      vertex 1.2005 -5.78035 6.99
      vertex 0.966494 -6.01405 6.99
    endloop
  endfacet
  facet normal 0.366203 -0.604982 0.707031
    outer loop
      vertex 1.67378 -6.9256 5.84369
      vertex 1.52733 -8.00024 5
      vertex 2.09562 -7.65625 5
    endloop
  endfacet
  facet normal 0.366203 -0.604981 0.707031
    outer loop
      vertex 0.702509 -6.17384 6.99
      vertex 1.67378 -6.9256 5.84369
      vertex 0.966494 -6.01405 6.99
    endloop
  endfacet
  facet normal 0.366203 -0.604982 0.707031
    outer loop
      vertex 1.67378 -6.9256 5.84369
      vertex 0.702509 -6.17384 6.99
      vertex 1.52733 -8.00024 5
    endloop
  endfacet
  facet normal -0.618326 0.346072 0.705626
    outer loop
      vertex 3.68079 -8.00024 5
      vertex 3.92886 -7.75074 5.09501
      vertex 3.87332 -7.65625 5
    endloop
  endfacet
  facet normal -0.618325 0.34607 0.705627
    outer loop
      vertex 3.92886 -7.75074 5.09501
      vertex 3.68079 -8.00024 5
      vertex 3.86437 -8.08198 5.20096
    endloop
  endfacet
  facet normal 0.706627 -0.0368247 0.706627
    outer loop
      vertex 1.74865 -4.0919 6.99
      vertex 3.79033 -3.10023 5
      vertex 1.80033 -3.10023 6.99
    endloop
  endfacet
  facet normal 0.706627 -0.0368248 0.706627
    outer loop
      vertex 3.79033 -3.10023 5
      vertex 1.74865 -4.0919 6.99
      vertex 3.72595 -4.33556 5
    endloop
  endfacet
  facet normal 0.674343 0.219108 0.705162
    outer loop
      vertex -7.1086 -8.2224 6.99
      vertex -5.29065 -7.41299 5
      vertex -7.23716 -7.82674 6.99
    endloop
  endfacet
  facet normal -0.578426 -0.406796 0.707065
    outer loop
      vertex -0.927657 -5.94634 6.99
      vertex -2.32365 -7.42024 5
      vertex -0.830817 -6.08404 6.99
    endloop
  endfacet
  facet normal -0.578426 -0.406795 0.707065
    outer loop
      vertex -2.32365 -7.42024 5
      vertex -0.927657 -5.94634 6.99
      vertex -2.68329 -6.90887 5
    endloop
  endfacet
  facet normal 0.688989 0.159289 0.707051
    outer loop
      vertex -5.4072 -6.90887 5
      vertex -7.23716 -7.82674 6.99
      vertex -5.29065 -7.41299 5
    endloop
  endfacet
  facet normal 0.688989 0.159289 0.707051
    outer loop
      vertex -7.23716 -7.82674 6.99
      vertex -5.4072 -6.90887 5
      vertex -7.35371 -7.32262 6.99
    endloop
  endfacet
  facet normal 0.643532 0.293061 0.707094
    outer loop
      vertex -5.29065 -7.41299 5
      vertex -7.1053 -8.22965 6.99
      vertex -5.28735 -7.42024 5
    endloop
  endfacet
  facet normal 0.643532 0.293061 0.707094
    outer loop
      vertex -7.1053 -8.22965 6.99
      vertex -5.29065 -7.41299 5
      vertex -7.1086 -8.2224 6.99
    endloop
  endfacet
  facet normal 0.705162 0.0741161 0.705162
    outer loop
      vertex -7.48242 -6.76592 6.99
      vertex -5.5359 -6.35217 5
      vertex -7.5259 -6.35217 6.99
    endloop
  endfacet
  facet normal -0.655113 -0.266625 0.706922
    outer loop
      vertex -2.94016 -6.27774 5
      vertex -0.927657 -5.94634 6.99
      vertex -1.02668 -5.70302 6.99
    endloop
  endfacet
  facet normal -0.655113 -0.266626 0.706921
    outer loop
      vertex -0.927657 -5.94634 6.99
      vertex -2.94016 -6.27774 5
      vertex -2.68329 -6.90887 5
    endloop
  endfacet
  facet normal 0.688989 0.15929 0.707051
    outer loop
      vertex -5.5359 -6.35217 5
      vertex -7.35371 -7.32262 6.99
      vertex -5.4072 -6.90887 5
    endloop
  endfacet
  facet normal 0.688989 0.15929 0.707051
    outer loop
      vertex -7.35371 -7.32262 6.99
      vertex -5.5359 -6.35217 5
      vertex -7.48242 -6.76592 6.99
    endloop
  endfacet
  facet normal 0.706319 0.0471767 0.706319
    outer loop
      vertex -7.5259 -6.35217 6.99
      vertex -5.54088 -6.27774 5
      vertex -7.53088 -6.27774 6.99
    endloop
  endfacet
  facet normal 0.706319 0.0471767 0.706319
    outer loop
      vertex -5.54088 -6.27774 5
      vertex -7.5259 -6.35217 6.99
      vertex -5.5359 -6.35217 5
    endloop
  endfacet
  facet normal 0.707107 -0 0.707107
    outer loop
      vertex 1.80033 -3.10023 6.99
      vertex 3.79033 3.59375 5
      vertex 1.80033 3.59375 6.99
    endloop
  endfacet
  facet normal 0.707107 0 0.707107
    outer loop
      vertex 3.79033 3.59375 5
      vertex 1.80033 -3.10023 6.99
      vertex 3.79033 -3.10023 5
    endloop
  endfacet
  facet normal 0.614052 -0.354523 0.705162
    outer loop
      vertex 3.79033 3.59375 5
      vertex 2.18039 4.76344 6.99
      vertex 1.97237 4.40316 6.99
    endloop
  endfacet
  facet normal 0.705162 -0.0741159 0.705162
    outer loop
      vertex 3.79033 3.59375 5
      vertex 1.84382 4.00749 6.99
      vertex 1.80033 3.59375 6.99
    endloop
  endfacet
  facet normal 0.147419 -0.693552 0.705162
    outer loop
      vertex 3.79033 3.59375 5
      vertex 3.58232 5.57285 6.99
      vertex 3.17539 5.48635 6.99
    endloop
  endfacet
  facet normal 0.674343 -0.219108 0.705162
    outer loop
      vertex 3.79033 3.59375 5
      vertex 1.97237 4.40316 6.99
      vertex 1.84382 4.00749 6.99
    endloop
  endfacet
  facet normal -0.147419 -0.693552 0.705162
    outer loop
      vertex 6.87727 5.48635 6.99
      vertex 6.47034 5.57285 6.99
      vertex 6.26233 3.59375 5
    endloop
  endfacet
  facet normal -0.705162 -0.0741161 0.705162
    outer loop
      vertex 8.25233 3.59375 6.99
      vertex 8.20884 4.00749 6.99
      vertex 6.26233 3.59375 5
    endloop
  endfacet
  facet normal 0 -0.709046 0.705162
    outer loop
      vertex 3.79033 3.59375 5
      vertex 6.47034 5.57285 6.99
      vertex 3.58232 5.57285 6.99
    endloop
  endfacet
  facet normal 0 -0.709046 0.705162
    outer loop
      vertex 6.47034 5.57285 6.99
      vertex 3.79033 3.59375 5
      vertex 6.26233 3.59375 5
    endloop
  endfacet
  facet normal 0.288395 -0.647746 0.705162
    outer loop
      vertex 3.79033 3.59375 5
      vertex 3.17539 5.48635 6.99
      vertex 2.79533 5.31714 6.99
    endloop
  endfacet
  facet normal -0.526924 -0.474445 0.705162
    outer loop
      vertex 7.87227 4.76344 6.99
      vertex 7.5939 5.07261 6.99
      vertex 6.26233 3.59375 5
    endloop
  endfacet
  facet normal 0.416767 -0.57363 0.705162
    outer loop
      vertex 3.79033 3.59375 5
      vertex 2.79533 5.31714 6.99
      vertex 2.45876 5.07261 6.99
    endloop
  endfacet
  facet normal 0.526924 -0.474445 0.705162
    outer loop
      vertex 3.79033 3.59375 5
      vertex 2.45876 5.07261 6.99
      vertex 2.18039 4.76344 6.99
    endloop
  endfacet
  facet normal -0.416767 -0.57363 0.705162
    outer loop
      vertex 7.5939 5.07261 6.99
      vertex 7.25733 5.31714 6.99
      vertex 6.26233 3.59375 5
    endloop
  endfacet
  facet normal -0.674343 -0.219107 0.705162
    outer loop
      vertex 8.20884 4.00749 6.99
      vertex 8.08028 4.40316 6.99
      vertex 6.26233 3.59375 5
    endloop
  endfacet
  facet normal -0.614052 -0.354523 0.705162
    outer loop
      vertex 8.08028 4.40316 6.99
      vertex 7.87227 4.76344 6.99
      vertex 6.26233 3.59375 5
    endloop
  endfacet
  facet normal -0.288395 -0.647746 0.705162
    outer loop
      vertex 7.25733 5.31714 6.99
      vertex 6.87727 5.48635 6.99
      vertex 6.26233 3.59375 5
    endloop
  endfacet
  facet normal 0.706319 0.0471807 0.706319
    outer loop
      vertex -7.53088 -6.27774 6.99
      vertex -5.59103 -5.52687 5
      vertex -7.58103 -5.52687 6.99
    endloop
  endfacet
  facet normal 0.706319 0.0471807 0.706319
    outer loop
      vertex -5.59103 -5.52687 5
      vertex -7.53088 -6.27774 6.99
      vertex -5.54088 -6.27774 5
    endloop
  endfacet
  facet normal -0.692673 -0.142183 0.707098
    outer loop
      vertex -3.09428 -5.52687 5
      vertex -1.02668 -5.70302 6.99
      vertex -1.12101 -5.24352 6.99
    endloop
  endfacet
  facet normal -0.692673 -0.142183 0.707098
    outer loop
      vertex -1.02668 -5.70302 6.99
      vertex -3.09428 -5.52687 5
      vertex -2.94016 -6.27774 5
    endloop
  endfacet
  facet normal 0.706319 0.0471815 0.706319
    outer loop
      vertex -5.61766 -5.12823 5
      vertex -7.58103 -5.52687 6.99
      vertex -5.59103 -5.52687 5
    endloop
  endfacet
  facet normal 0.706319 0.0471815 0.706319
    outer loop
      vertex -7.58103 -5.52687 6.99
      vertex -5.61766 -5.12823 5
      vertex -7.60766 -5.12823 6.99
    endloop
  endfacet
  facet normal -0.706492 -0.0416909 0.706492
    outer loop
      vertex -3.14566 -4.65625 5
      vertex -1.12101 -5.24352 6.99
      vertex -1.15566 -4.65625 6.99
    endloop
  endfacet
  facet normal -0.706492 -0.0416909 0.706492
    outer loop
      vertex -1.12101 -5.24352 6.99
      vertex -3.14566 -4.65625 5
      vertex -3.09428 -5.52687 5
    endloop
  endfacet
  facet normal 0 0 1
    outer loop
      vertex -7.60766 -0.329348 6.99
      vertex -9.18666 -0.329348 6.99
      vertex -7.60766 -5.12823 6.99
    endloop
  endfacet
  facet normal 0 0 1
    outer loop
      vertex 16.5 16.5 6.99
      vertex 8.25233 3.59375 6.99
      vertex 16.5 -16.5 6.99
    endloop
  endfacet
  facet normal 0 0 1
    outer loop
      vertex 16.5 16.5 6.99
      vertex 8.20884 4.00749 6.99
      vertex 8.25233 3.59375 6.99
    endloop
  endfacet
  facet normal 0 0 1
    outer loop
      vertex 16.5 16.5 6.99
      vertex 8.08028 4.40316 6.99
      vertex 8.20884 4.00749 6.99
    endloop
  endfacet
  facet normal 0 0 1
    outer loop
      vertex 16.5 16.5 6.99
      vertex 7.87227 4.76344 6.99
      vertex 8.08028 4.40316 6.99
    endloop
  endfacet
  facet normal 0 0 1
    outer loop
      vertex 16.5 16.5 6.99
      vertex 7.5939 5.07261 6.99
      vertex 7.87227 4.76344 6.99
    endloop
  endfacet
  facet normal 0 0 1
    outer loop
      vertex 16.5 16.5 6.99
      vertex 7.25733 5.31714 6.99
      vertex 7.5939 5.07261 6.99
    endloop
  endfacet
  facet normal 0 0 1
    outer loop
      vertex 16.5 16.5 6.99
      vertex 6.87727 5.48635 6.99
      vertex 7.25733 5.31714 6.99
    endloop
  endfacet
  facet normal 0 0 1
    outer loop
      vertex 16.5 16.5 6.99
      vertex 6.47034 5.57285 6.99
      vertex 6.87727 5.48635 6.99
    endloop
  endfacet
  facet normal -0 0 1
    outer loop
      vertex -1.32771 10.9592 6.99
      vertex 6.47034 5.57285 6.99
      vertex 16.5 16.5 6.99
    endloop
  endfacet
  facet normal -0 -0 1
    outer loop
      vertex -1.19915 10.5635 6.99
      vertex 6.47034 5.57285 6.99
      vertex -1.32771 10.9592 6.99
    endloop
  endfacet
  facet normal -0 -0 1
    outer loop
      vertex -1.15566 10.1497 6.99
      vertex 3.58232 5.57285 6.99
      vertex -1.19915 10.5635 6.99
    endloop
  endfacet
  facet normal 0 0 1
    outer loop
      vertex 3.58232 5.57285 6.99
      vertex -1.15566 10.1497 6.99
      vertex 3.17539 5.48635 6.99
    endloop
  endfacet
  facet normal 0 0 1
    outer loop
      vertex -1.15566 -4.65625 6.99
      vertex 1.80033 -3.10023 6.99
      vertex 1.80033 3.59375 6.99
    endloop
  endfacet
  facet normal 0 0 1
    outer loop
      vertex 1.80033 -3.10023 6.99
      vertex -1.15566 -4.65625 6.99
      vertex 1.74865 -4.0919 6.99
    endloop
  endfacet
  facet normal 0 0 1
    outer loop
      vertex 1.74865 -4.0919 6.99
      vertex -1.15566 -4.65625 6.99
      vertex 1.59976 -4.91443 6.99
    endloop
  endfacet
  facet normal 0 0 1
    outer loop
      vertex 1.59976 -4.91443 6.99
      vertex -1.15566 -4.65625 6.99
      vertex 1.41282 -5.4363 6.99
    endloop
  endfacet
  facet normal -0 -0 1
    outer loop
      vertex -1.12101 -5.24352 6.99
      vertex 1.41282 -5.4363 6.99
      vertex -1.15566 -4.65625 6.99
    endloop
  endfacet
  facet normal 0 0 1
    outer loop
      vertex 1.41282 -5.4363 6.99
      vertex -1.12101 -5.24352 6.99
      vertex 1.2005 -5.78035 6.99
    endloop
  endfacet
  facet normal 0 0 1
    outer loop
      vertex -1.15566 10.1497 6.99
      vertex 1.80033 3.59375 6.99
      vertex 1.84382 4.00749 6.99
    endloop
  endfacet
  facet normal 0 0 1
    outer loop
      vertex 1.2005 -5.78035 6.99
      vertex -1.12101 -5.24352 6.99
      vertex 0.966494 -6.01405 6.99
    endloop
  endfacet
  facet normal 0 0 1
    outer loop
      vertex 0.966494 -6.01405 6.99
      vertex -1.12101 -5.24352 6.99
      vertex 0.702509 -6.17384 6.99
    endloop
  endfacet
  facet normal 0 0 1
    outer loop
      vertex 0.702509 -6.17384 6.99
      vertex -1.12101 -5.24352 6.99
      vertex 0.363172 -6.28088 6.99
    endloop
  endfacet
  facet normal 0 0 1
    outer loop
      vertex 0.363172 -6.28088 6.99
      vertex -1.12101 -5.24352 6.99
      vertex -0.118344 -6.32562 6.99
    endloop
  endfacet
  facet normal -0 -0 1
    outer loop
      vertex -1.02668 -5.70302 6.99
      vertex -0.118344 -6.32562 6.99
      vertex -1.12101 -5.24352 6.99
    endloop
  endfacet
  facet normal 0 0 1
    outer loop
      vertex -0.118344 -6.32562 6.99
      vertex -1.02668 -5.70302 6.99
      vertex -0.411204 -6.30059 6.99
    endloop
  endfacet
  facet normal -0 -0 1
    outer loop
      vertex -0.927657 -5.94634 6.99
      vertex -0.411204 -6.30059 6.99
      vertex -1.02668 -5.70302 6.99
    endloop
  endfacet
  facet normal 0 0 1
    outer loop
      vertex -0.411204 -6.30059 6.99
      vertex -0.927657 -5.94634 6.99
      vertex -0.597124 -6.24716 6.99
    endloop
  endfacet
  facet normal 0 0 1
    outer loop
      vertex -0.597124 -6.24716 6.99
      vertex -0.927657 -5.94634 6.99
      vertex -0.725457 -6.17723 6.99
    endloop
  endfacet
  facet normal 0 0 1
    outer loop
      vertex 1.80033 3.59375 6.99
      vertex -1.15566 10.1497 6.99
      vertex -1.15566 -4.65625 6.99
    endloop
  endfacet
  facet normal 0 0 1
    outer loop
      vertex 1.97237 4.40316 6.99
      vertex -1.15566 10.1497 6.99
      vertex 1.84382 4.00749 6.99
    endloop
  endfacet
  facet normal 0 0 1
    outer loop
      vertex 2.18039 4.76344 6.99
      vertex -1.15566 10.1497 6.99
      vertex 1.97237 4.40316 6.99
    endloop
  endfacet
  facet normal 0 0 1
    outer loop
      vertex 2.45876 5.07261 6.99
      vertex -1.15566 10.1497 6.99
      vertex 2.18039 4.76344 6.99
    endloop
  endfacet
  facet normal 0 0 1
    outer loop
      vertex 3.17539 5.48635 6.99
      vertex -1.15566 10.1497 6.99
      vertex 2.79533 5.31714 6.99
    endloop
  endfacet
  facet normal 0 0 1
    outer loop
      vertex 2.79533 5.31714 6.99
      vertex -1.15566 10.1497 6.99
      vertex 2.45876 5.07261 6.99
    endloop
  endfacet
  facet normal 0 0 1
    outer loop
      vertex 6.47034 5.57285 6.99
      vertex -1.19915 10.5635 6.99
      vertex 3.58232 5.57285 6.99
    endloop
  endfacet
  facet normal 0 0 1
    outer loop
      vertex 16.5 16.5 6.99
      vertex -1.53572 11.3194 6.99
      vertex -1.32771 10.9592 6.99
    endloop
  endfacet
  facet normal 0 0 1
    outer loop
      vertex 16.5 16.5 6.99
      vertex -1.81409 11.6286 6.99
      vertex -1.53572 11.3194 6.99
    endloop
  endfacet
  facet normal 0 0 1
    outer loop
      vertex 16.5 16.5 6.99
      vertex -2.15066 11.8731 6.99
      vertex -1.81409 11.6286 6.99
    endloop
  endfacet
  facet normal 0 0 1
    outer loop
      vertex 16.5 16.5 6.99
      vertex -2.53072 12.0424 6.99
      vertex -2.15066 11.8731 6.99
    endloop
  endfacet
  facet normal 0 0 1
    outer loop
      vertex 16.5 16.5 6.99
      vertex -2.93765 12.1288 6.99
      vertex -2.53072 12.0424 6.99
    endloop
  endfacet
  facet normal -0 0 1
    outer loop
      vertex -16.5 16.5 6.99
      vertex -2.93765 12.1288 6.99
      vertex 16.5 16.5 6.99
    endloop
  endfacet
  facet normal 0 0 1
    outer loop
      vertex -7.60766 10.1497 6.99
      vertex -9.18666 5.57285 6.99
      vertex -7.60766 5.57285 6.99
    endloop
  endfacet
  facet normal 0 0 1
    outer loop
      vertex -16.5 16.5 6.99
      vertex -7.60766 10.1497 6.99
      vertex -7.56417 10.5635 6.99
    endloop
  endfacet
  facet normal 0 0 1
    outer loop
      vertex -16.5 16.5 6.99
      vertex -7.56417 10.5635 6.99
      vertex -7.43562 10.9592 6.99
    endloop
  endfacet
  facet normal 0 0 1
    outer loop
      vertex -7.60766 10.1497 6.99
      vertex -9.5936 5.48635 6.99
      vertex -9.18666 5.57285 6.99
    endloop
  endfacet
  facet normal 0 0 1
    outer loop
      vertex -7.60766 10.1497 6.99
      vertex -9.97365 5.31714 6.99
      vertex -9.5936 5.48635 6.99
    endloop
  endfacet
  facet normal 0 0 1
    outer loop
      vertex -7.60766 10.1497 6.99
      vertex -10.3102 5.07261 6.99
      vertex -9.97365 5.31714 6.99
    endloop
  endfacet
  facet normal 0 0 1
    outer loop
      vertex -7.60766 10.1497 6.99
      vertex -16.5 16.5 6.99
      vertex -10.3102 5.07261 6.99
    endloop
  endfacet
  facet normal 0 0 1
    outer loop
      vertex -10.3102 5.07261 6.99
      vertex -16.5 16.5 6.99
      vertex -10.5886 4.76344 6.99
    endloop
  endfacet
  facet normal 0 0 1
    outer loop
      vertex -10.9687 3.59375 6.99
      vertex -16.5 16.5 6.99
      vertex -10.9687 1.64975 6.99
    endloop
  endfacet
  facet normal 0 0 1
    outer loop
      vertex -10.9252 4.00749 6.99
      vertex -16.5 16.5 6.99
      vertex -10.9687 3.59375 6.99
    endloop
  endfacet
  facet normal 0 0 1
    outer loop
      vertex -10.7966 4.40316 6.99
      vertex -16.5 16.5 6.99
      vertex -10.9252 4.00749 6.99
    endloop
  endfacet
  facet normal 0 0 1
    outer loop
      vertex -10.5886 4.76344 6.99
      vertex -16.5 16.5 6.99
      vertex -10.7966 4.40316 6.99
    endloop
  endfacet
  facet normal 0 0 1
    outer loop
      vertex -7.2276 11.3194 6.99
      vertex -16.5 16.5 6.99
      vertex -7.43562 10.9592 6.99
    endloop
  endfacet
  facet normal 0 0 1
    outer loop
      vertex -6.94923 11.6286 6.99
      vertex -16.5 16.5 6.99
      vertex -7.2276 11.3194 6.99
    endloop
  endfacet
  facet normal 0 0 1
    outer loop
      vertex -6.61266 11.8731 6.99
      vertex -16.5 16.5 6.99
      vertex -6.94923 11.6286 6.99
    endloop
  endfacet
  facet normal 0 0 1
    outer loop
      vertex -6.2326 12.0424 6.99
      vertex -16.5 16.5 6.99
      vertex -6.61266 11.8731 6.99
    endloop
  endfacet
  facet normal 0 0 1
    outer loop
      vertex -5.82567 12.1288 6.99
      vertex -16.5 16.5 6.99
      vertex -6.2326 12.0424 6.99
    endloop
  endfacet
  facet normal 0 0 1
    outer loop
      vertex -2.93765 12.1288 6.99
      vertex -16.5 16.5 6.99
      vertex -5.82567 12.1288 6.99
    endloop
  endfacet
  facet normal -0 0 1
    outer loop
      vertex 8.25233 -10.0732 6.99
      vertex 16.5 -16.5 6.99
      vertex 8.25233 3.59375 6.99
    endloop
  endfacet
  facet normal -0 0 1
    outer loop
      vertex 8.20884 -10.487 6.99
      vertex 16.5 -16.5 6.99
      vertex 8.25233 -10.0732 6.99
    endloop
  endfacet
  facet normal -0 0 1
    outer loop
      vertex 8.08028 -10.8826 6.99
      vertex 16.5 -16.5 6.99
      vertex 8.20884 -10.487 6.99
    endloop
  endfacet
  facet normal -0 0 1
    outer loop
      vertex 7.87227 -11.2429 6.99
      vertex 16.5 -16.5 6.99
      vertex 8.08028 -10.8826 6.99
    endloop
  endfacet
  facet normal -0 0 1
    outer loop
      vertex 7.5939 -11.5521 6.99
      vertex 16.5 -16.5 6.99
      vertex 7.87227 -11.2429 6.99
    endloop
  endfacet
  facet normal -0 0 1
    outer loop
      vertex 7.25733 -11.7966 6.99
      vertex 16.5 -16.5 6.99
      vertex 7.5939 -11.5521 6.99
    endloop
  endfacet
  facet normal -0 0 1
    outer loop
      vertex 6.87727 -11.9658 6.99
      vertex 16.5 -16.5 6.99
      vertex 7.25733 -11.7966 6.99
    endloop
  endfacet
  facet normal -0 0 1
    outer loop
      vertex 6.47034 -12.0523 6.99
      vertex 16.5 -16.5 6.99
      vertex 6.87727 -11.9658 6.99
    endloop
  endfacet
  facet normal -0 0 1
    outer loop
      vertex 4.11032 -12.0523 6.99
      vertex 16.5 -16.5 6.99
      vertex 6.47034 -12.0523 6.99
    endloop
  endfacet
  facet normal -0 0 1
    outer loop
      vertex 1.57628 -12.0458 6.99
      vertex 4.11032 -12.0523 6.99
      vertex 3.70339 -11.9658 6.99
    endloop
  endfacet
  facet normal 0 0 1
    outer loop
      vertex 2.64432 -11.6291 6.99
      vertex 2.98676 -11.5521 6.99
      vertex 2.91463 -11.472 6.99
    endloop
  endfacet
  facet normal -0 0 1
    outer loop
      vertex 2.64432 -11.6291 6.99
      vertex 3.32333 -11.7966 6.99
      vertex 2.98676 -11.5521 6.99
    endloop
  endfacet
  facet normal 0 0 1
    outer loop
      vertex 2.26427 -11.7983 6.99
      vertex 3.32333 -11.7966 6.99
      vertex 2.64432 -11.6291 6.99
    endloop
  endfacet
  facet normal 0 0 1
    outer loop
      vertex 3.32333 -11.7966 6.99
      vertex 2.26427 -11.7983 6.99
      vertex 3.70339 -11.9658 6.99
    endloop
  endfacet
  facet normal 0 0 1
    outer loop
      vertex 1.57628 -12.0458 6.99
      vertex 3.70339 -11.9658 6.99
      vertex 2.26427 -11.7983 6.99
    endloop
  endfacet
  facet normal 0 0 1
    outer loop
      vertex 4.11032 -12.0523 6.99
      vertex 1.57628 -12.0458 6.99
      vertex 1.16935 -12.1323 6.99
    endloop
  endfacet
  facet normal 0 0 1
    outer loop
      vertex 4.11032 -12.0523 6.99
      vertex 1.16935 -12.1323 6.99
      vertex 0.389347 -12.2808 6.99
    endloop
  endfacet
  facet normal 0 0 1
    outer loop
      vertex 4.11032 -12.0523 6.99
      vertex 0.389347 -12.2808 6.99
      vertex 16.5 -16.5 6.99
    endloop
  endfacet
  facet normal -0 0 1
    outer loop
      vertex -0.482647 -12.3303 6.99
      vertex 16.5 -16.5 6.99
      vertex 0.389347 -12.2808 6.99
    endloop
  endfacet
  facet normal 0 0 1
    outer loop
      vertex -16.5 -16.5 6.99
      vertex -0.482647 -12.3303 6.99
      vertex -0.89867 -12.3303 6.99
    endloop
  endfacet
  facet normal 0 0 1
    outer loop
      vertex -16.5 -16.5 6.99
      vertex -0.89867 -12.3303 6.99
      vertex -1.99147 -12.2487 6.99
    endloop
  endfacet
  facet normal 0 0 1
    outer loop
      vertex -16.5 -16.5 6.99
      vertex -1.99147 -12.2487 6.99
      vertex -2.39841 -12.1622 6.99
    endloop
  endfacet
  facet normal 0 0 1
    outer loop
      vertex -16.5 -16.5 6.99
      vertex -6.48207 -9.49293 6.99
      vertex -6.49186 -9.48038 6.99
    endloop
  endfacet
  facet normal 0 0 1
    outer loop
      vertex -16.5 -16.5 6.99
      vertex -6.79694 -8.90689 6.99
      vertex -6.92542 -8.62471 6.99
    endloop
  endfacet
  facet normal 0 0 1
    outer loop
      vertex -6.79694 -8.90689 6.99
      vertex -16.5 -16.5 6.99
      vertex -6.71985 -9.07621 6.99
    endloop
  endfacet
  facet normal 0 0 1
    outer loop
      vertex -16.5 -16.5 6.99
      vertex -7.1053 -8.22965 6.99
      vertex -7.1086 -8.2224 6.99
    endloop
  endfacet
  facet normal 0 0 1
    outer loop
      vertex -7.1053 -8.22965 6.99
      vertex -16.5 -16.5 6.99
      vertex -6.92542 -8.62471 6.99
    endloop
  endfacet
  facet normal 0 0 1
    outer loop
      vertex -16.5 -16.5 6.99
      vertex -7.35371 -7.32262 6.99
      vertex -7.48242 -6.76592 6.99
    endloop
  endfacet
  facet normal 0 0 1
    outer loop
      vertex -10.3102 0.170892 6.99
      vertex -7.53088 -6.27774 6.99
      vertex -7.58103 -5.52687 6.99
    endloop
  endfacet
  facet normal 0 0 1
    outer loop
      vertex -10.3102 0.170892 6.99
      vertex -7.58103 -5.52687 6.99
      vertex -7.60766 -5.12823 6.99
    endloop
  endfacet
  facet normal 0 0 1
    outer loop
      vertex -9.5936 -0.242852 6.99
      vertex -7.60766 -5.12823 6.99
      vertex -9.18666 -0.329348 6.99
    endloop
  endfacet
  facet normal 0 0 1
    outer loop
      vertex -9.97365 -0.0736397 6.99
      vertex -7.60766 -5.12823 6.99
      vertex -9.5936 -0.242852 6.99
    endloop
  endfacet
  facet normal 0 0 1
    outer loop
      vertex -10.3102 0.170892 6.99
      vertex -7.60766 -5.12823 6.99
      vertex -9.97365 -0.0736397 6.99
    endloop
  endfacet
  facet normal 0 0 1
    outer loop
      vertex -16.5 -16.5 6.99
      vertex -7.53088 -6.27774 6.99
      vertex -10.3102 0.170892 6.99
    endloop
  endfacet
  facet normal 0 0 1
    outer loop
      vertex -7.53088 -6.27774 6.99
      vertex -16.5 -16.5 6.99
      vertex -7.5259 -6.35217 6.99
    endloop
  endfacet
  facet normal 0 0 1
    outer loop
      vertex -7.5259 -6.35217 6.99
      vertex -16.5 -16.5 6.99
      vertex -7.48242 -6.76592 6.99
    endloop
  endfacet
  facet normal 0 0 1
    outer loop
      vertex -7.35371 -7.32262 6.99
      vertex -16.5 -16.5 6.99
      vertex -7.23716 -7.82674 6.99
    endloop
  endfacet
  facet normal 0 0 1
    outer loop
      vertex -16.5 -16.5 6.99
      vertex -10.3102 0.170892 6.99
      vertex -10.5886 0.480057 6.99
    endloop
  endfacet
  facet normal 0 0 1
    outer loop
      vertex -16.5 -16.5 6.99
      vertex -10.5886 0.480057 6.99
      vertex -10.7966 0.840344 6.99
    endloop
  endfacet
  facet normal 0 0 1
    outer loop
      vertex -16.5 -16.5 6.99
      vertex -10.9687 1.64975 6.99
      vertex -16.5 16.5 6.99
    endloop
  endfacet
  facet normal 0 0 1
    outer loop
      vertex -10.9687 1.64975 6.99
      vertex -16.5 -16.5 6.99
      vertex -10.9252 1.23601 6.99
    endloop
  endfacet
  facet normal 0 0 1
    outer loop
      vertex -0.482647 -12.3303 6.99
      vertex -16.5 -16.5 6.99
      vertex 16.5 -16.5 6.99
    endloop
  endfacet
  facet normal 0 0 1
    outer loop
      vertex -3.36584 -11.9174 6.99
      vertex -16.5 -16.5 6.99
      vertex -2.39841 -12.1622 6.99
    endloop
  endfacet
  facet normal 0 0 1
    outer loop
      vertex -3.7459 -11.7481 6.99
      vertex -16.5 -16.5 6.99
      vertex -3.36584 -11.9174 6.99
    endloop
  endfacet
  facet normal 0 0 1
    outer loop
      vertex -4.58797 -11.34 6.99
      vertex -16.5 -16.5 6.99
      vertex -3.7459 -11.7481 6.99
    endloop
  endfacet
  facet normal 0 0 1
    outer loop
      vertex -4.92454 -11.0955 6.99
      vertex -16.5 -16.5 6.99
      vertex -4.58797 -11.34 6.99
    endloop
  endfacet
  facet normal 0 0 1
    outer loop
      vertex -5.64123 -10.5241 6.99
      vertex -16.5 -16.5 6.99
      vertex -4.92454 -11.0955 6.99
    endloop
  endfacet
  facet normal 0 0 1
    outer loop
      vertex -5.9196 -10.2149 6.99
      vertex -16.5 -16.5 6.99
      vertex -5.64123 -10.5241 6.99
    endloop
  endfacet
  facet normal 0 0 1
    outer loop
      vertex -6.48207 -9.49293 6.99
      vertex -16.5 -16.5 6.99
      vertex -5.9196 -10.2149 6.99
    endloop
  endfacet
  facet normal 0 0 1
    outer loop
      vertex -6.69987 -9.12009 6.99
      vertex -16.5 -16.5 6.99
      vertex -6.49186 -9.48038 6.99
    endloop
  endfacet
  facet normal 0 0 1
    outer loop
      vertex -6.71985 -9.07621 6.99
      vertex -16.5 -16.5 6.99
      vertex -6.69987 -9.12009 6.99
    endloop
  endfacet
  facet normal 0 0 1
    outer loop
      vertex -7.23716 -7.82674 6.99
      vertex -16.5 -16.5 6.99
      vertex -7.1086 -8.2224 6.99
    endloop
  endfacet
  facet normal 0 0 1
    outer loop
      vertex -10.9252 1.23601 6.99
      vertex -16.5 -16.5 6.99
      vertex -10.7966 0.840344 6.99
    endloop
  endfacet
  facet normal 0 0 1
    outer loop
      vertex -0.725457 -6.17723 6.99
      vertex -0.927657 -5.94634 6.99
      vertex -0.830817 -6.08404 6.99
    endloop
  endfacet
endsolid OpenSCAD_Model
