solid OpenSCAD_Model
  facet normal 0 -1 0
    outer loop
      vertex -16.8136 -19.4836 0
      vertex 16.8136 -19.4836 8.01
      vertex -16.8136 -19.4836 8.01
    endloop
  endfacet
  facet normal 0 -1 -0
    outer loop
      vertex 16.8136 -19.4836 8.01
      vertex -16.8136 -19.4836 0
      vertex 16.8136 -19.4836 0
    endloop
  endfacet
  facet normal 1 -0 0
    outer loop
      vertex 19.5 -16.5 8.01
      vertex 19.5 16.5 0
      vertex 19.5 16.5 8.01
    endloop
  endfacet
  facet normal 1 0 0
    outer loop
      vertex 19.5 16.5 0
      vertex 19.5 -16.5 8.01
      vertex 19.5 -16.5 0
    endloop
  endfacet
  facet normal -0.207914 -0.978147 0
    outer loop
      vertex -17.4271 -19.3532 0
      vertex -16.8136 -19.4836 8.01
      vertex -17.4271 -19.3532 8.01
    endloop
  endfacet
  facet normal -0.207914 -0.978147 -0
    outer loop
      vertex -16.8136 -19.4836 8.01
      vertex -17.4271 -19.3532 0
      vertex -16.8136 -19.4836 0
    endloop
  endfacet
  facet normal 0.207914 0.978147 -0
    outer loop
      vertex 17.4271 19.3532 0
      vertex 16.8136 19.4836 8.01
      vertex 17.4271 19.3532 8.01
    endloop
  endfacet
  facet normal 0.207914 0.978147 0
    outer loop
      vertex 16.8136 19.4836 8.01
      vertex 17.4271 19.3532 0
      vertex 16.8136 19.4836 0
    endloop
  endfacet
  facet normal 0.866027 0.499997 0
    outer loop
      vertex 19.2406 17.7202 8.01
      vertex 18.9271 18.2634 0
      vertex 18.9271 18.2634 8.01
    endloop
  endfacet
  facet normal 0.866027 0.499997 0
    outer loop
      vertex 18.9271 18.2634 0
      vertex 19.2406 17.7202 8.01
      vertex 19.2406 17.7202 0
    endloop
  endfacet
  facet normal 0.994522 0.104529 0
    outer loop
      vertex 19.5 16.5 8.01
      vertex 19.4344 17.1237 0
      vertex 19.4344 17.1237 8.01
    endloop
  endfacet
  facet normal 0.994522 0.104529 0
    outer loop
      vertex 19.4344 17.1237 0
      vertex 19.5 16.5 8.01
      vertex 19.5 16.5 0
    endloop
  endfacet
  facet normal -0.866027 0.499997 0
    outer loop
      vertex -19.2406 17.7202 0
      vertex -18.9271 18.2634 8.01
      vertex -18.9271 18.2634 0
    endloop
  endfacet
  facet normal -0.866027 0.499997 0
    outer loop
      vertex -18.9271 18.2634 8.01
      vertex -19.2406 17.7202 0
      vertex -19.2406 17.7202 8.01
    endloop
  endfacet
  facet normal 0.951056 -0.309018 0
    outer loop
      vertex 19.2406 -17.7202 8.01
      vertex 19.4344 -17.1237 0
      vertex 19.4344 -17.1237 8.01
    endloop
  endfacet
  facet normal 0.951056 -0.309018 0
    outer loop
      vertex 19.4344 -17.1237 0
      vertex 19.2406 -17.7202 8.01
      vertex 19.2406 -17.7202 0
    endloop
  endfacet
  facet normal 0.994522 -0.104529 0
    outer loop
      vertex 19.4344 -17.1237 8.01
      vertex 19.5 -16.5 0
      vertex 19.5 -16.5 8.01
    endloop
  endfacet
  facet normal 0.994522 -0.104529 0
    outer loop
      vertex 19.5 -16.5 0
      vertex 19.4344 -17.1237 8.01
      vertex 19.4344 -17.1237 0
    endloop
  endfacet
  facet normal 0.587785 -0.809017 0
    outer loop
      vertex 18 -19.0981 0
      vertex 18.5074 -18.7294 8.01
      vertex 18 -19.0981 8.01
    endloop
  endfacet
  facet normal 0.587785 -0.809017 0
    outer loop
      vertex 18.5074 -18.7294 8.01
      vertex 18 -19.0981 0
      vertex 18.5074 -18.7294 0
    endloop
  endfacet
  facet normal -0.406736 -0.913546 0
    outer loop
      vertex -18 -19.0981 0
      vertex -17.4271 -19.3532 8.01
      vertex -18 -19.0981 8.01
    endloop
  endfacet
  facet normal -0.406736 -0.913546 -0
    outer loop
      vertex -17.4271 -19.3532 8.01
      vertex -18 -19.0981 0
      vertex -17.4271 -19.3532 0
    endloop
  endfacet
  facet normal 0 1 -0
    outer loop
      vertex 16.8136 19.4836 0
      vertex -16.8136 19.4836 8.01
      vertex 16.8136 19.4836 8.01
    endloop
  endfacet
  facet normal 0 1 0
    outer loop
      vertex -16.8136 19.4836 8.01
      vertex 16.8136 19.4836 0
      vertex -16.8136 19.4836 0
    endloop
  endfacet
  facet normal 0.951056 0.309018 0
    outer loop
      vertex 19.4344 17.1237 8.01
      vertex 19.2406 17.7202 0
      vertex 19.2406 17.7202 8.01
    endloop
  endfacet
  facet normal 0.951056 0.309018 0
    outer loop
      vertex 19.2406 17.7202 0
      vertex 19.4344 17.1237 8.01
      vertex 19.4344 17.1237 0
    endloop
  endfacet
  facet normal 0.587785 0.809017 -0
    outer loop
      vertex 18.5074 18.7294 0
      vertex 18 19.0981 8.01
      vertex 18.5074 18.7294 8.01
    endloop
  endfacet
  facet normal 0.587785 0.809017 0
    outer loop
      vertex 18 19.0981 8.01
      vertex 18.5074 18.7294 0
      vertex 18 19.0981 0
    endloop
  endfacet
  facet normal 0.406736 0.913546 -0
    outer loop
      vertex 18 19.0981 0
      vertex 17.4271 19.3532 8.01
      vertex 18 19.0981 8.01
    endloop
  endfacet
  facet normal 0.406736 0.913546 0
    outer loop
      vertex 17.4271 19.3532 8.01
      vertex 18 19.0981 0
      vertex 17.4271 19.3532 0
    endloop
  endfacet
  facet normal 0.743144 0.669131 0
    outer loop
      vertex 18.9271 18.2634 8.01
      vertex 18.5074 18.7294 0
      vertex 18.5074 18.7294 8.01
    endloop
  endfacet
  facet normal 0.743144 0.669131 0
    outer loop
      vertex 18.5074 18.7294 0
      vertex 18.9271 18.2634 8.01
      vertex 18.9271 18.2634 0
    endloop
  endfacet
  facet normal -1 0 0
    outer loop
      vertex -19.5 -16.5 0
      vertex -19.5 16.5 8.01
      vertex -19.5 16.5 0
    endloop
  endfacet
  facet normal -1 -0 0
    outer loop
      vertex -19.5 16.5 8.01
      vertex -19.5 -16.5 0
      vertex -19.5 -16.5 8.01
    endloop
  endfacet
  facet normal 0.866027 -0.499997 0
    outer loop
      vertex 18.9271 -18.2634 8.01
      vertex 19.2406 -17.7202 0
      vertex 19.2406 -17.7202 8.01
    endloop
  endfacet
  facet normal 0.866027 -0.499997 0
    outer loop
      vertex 19.2406 -17.7202 0
      vertex 18.9271 -18.2634 8.01
      vertex 18.9271 -18.2634 0
    endloop
  endfacet
  facet normal 0.743144 -0.669131 0
    outer loop
      vertex 18.5074 -18.7294 8.01
      vertex 18.9271 -18.2634 0
      vertex 18.9271 -18.2634 8.01
    endloop
  endfacet
  facet normal 0.743144 -0.669131 0
    outer loop
      vertex 18.9271 -18.2634 0
      vertex 18.5074 -18.7294 8.01
      vertex 18.5074 -18.7294 0
    endloop
  endfacet
  facet normal -0.743144 0.669131 0
    outer loop
      vertex -18.9271 18.2634 0
      vertex -18.5074 18.7294 8.01
      vertex -18.5074 18.7294 0
    endloop
  endfacet
  facet normal -0.743144 0.669131 0
    outer loop
      vertex -18.5074 18.7294 8.01
      vertex -18.9271 18.2634 0
      vertex -18.9271 18.2634 8.01
    endloop
  endfacet
  facet normal -0.743144 -0.669131 0
    outer loop
      vertex -18.5074 -18.7294 0
      vertex -18.9271 -18.2634 8.01
      vertex -18.9271 -18.2634 0
    endloop
  endfacet
  facet normal -0.743144 -0.669131 0
    outer loop
      vertex -18.9271 -18.2634 8.01
      vertex -18.5074 -18.7294 0
      vertex -18.5074 -18.7294 8.01
    endloop
  endfacet
  facet normal 0 0 -1
    outer loop
      vertex 16.8136 -19.4836 0
      vertex 19.5 -16.5 0
      vertex 19.4344 -17.1237 0
    endloop
  endfacet
  facet normal 0 0 -1
    outer loop
      vertex -19.5 -16.5 0
      vertex 19.5 -16.5 0
      vertex 16.8136 -19.4836 0
    endloop
  endfacet
  facet normal 0 0 -1
    outer loop
      vertex 16.8136 -19.4836 0
      vertex 19.4344 -17.1237 0
      vertex 19.2406 -17.7202 0
    endloop
  endfacet
  facet normal 0 0 -1
    outer loop
      vertex 19.5 -16.5 0
      vertex -19.5 -16.5 0
      vertex 19.5 16.5 0
    endloop
  endfacet
  facet normal 0 0 -1
    outer loop
      vertex 16.8136 -19.4836 0
      vertex 19.2406 -17.7202 0
      vertex 18.9271 -18.2634 0
    endloop
  endfacet
  facet normal 0 0 -1
    outer loop
      vertex 19.5 16.5 0
      vertex 16.8136 19.4836 0
      vertex 19.4344 17.1237 0
    endloop
  endfacet
  facet normal 0 0 -1
    outer loop
      vertex 16.8136 -19.4836 0
      vertex 18.9271 -18.2634 0
      vertex 18.5074 -18.7294 0
    endloop
  endfacet
  facet normal 0 0 -1
    outer loop
      vertex 19.4344 17.1237 0
      vertex 16.8136 19.4836 0
      vertex 19.2406 17.7202 0
    endloop
  endfacet
  facet normal 0 0 -1
    outer loop
      vertex 16.8136 -19.4836 0
      vertex 18.5074 -18.7294 0
      vertex 18 -19.0981 0
    endloop
  endfacet
  facet normal 0 0 -1
    outer loop
      vertex 19.2406 17.7202 0
      vertex 16.8136 19.4836 0
      vertex 18.9271 18.2634 0
    endloop
  endfacet
  facet normal 0 0 -1
    outer loop
      vertex 16.8136 -19.4836 0
      vertex 18 -19.0981 0
      vertex 17.4271 -19.3532 0
    endloop
  endfacet
  facet normal 0 0 -1
    outer loop
      vertex 18.9271 18.2634 0
      vertex 16.8136 19.4836 0
      vertex 18.5074 18.7294 0
    endloop
  endfacet
  facet normal 0 0 -1
    outer loop
      vertex 18.5074 18.7294 0
      vertex 16.8136 19.4836 0
      vertex 18 19.0981 0
    endloop
  endfacet
  facet normal 0 0 -1
    outer loop
      vertex 18 19.0981 0
      vertex 16.8136 19.4836 0
      vertex 17.4271 19.3532 0
    endloop
  endfacet
  facet normal 0 0 -1
    outer loop
      vertex -19.5 -16.5 0
      vertex 16.8136 -19.4836 0
      vertex -16.8136 -19.4836 0
    endloop
  endfacet
  facet normal 0 0 -1
    outer loop
      vertex -19.5 16.5 0
      vertex 19.5 16.5 0
      vertex -19.5 -16.5 0
    endloop
  endfacet
  facet normal 0 0 -1
    outer loop
      vertex -19.5 -16.5 0
      vertex -16.8136 -19.4836 0
      vertex -17.4271 -19.3532 0
    endloop
  endfacet
  facet normal 0 0 -1
    outer loop
      vertex 19.5 16.5 0
      vertex -19.5 16.5 0
      vertex 16.8136 19.4836 0
    endloop
  endfacet
  facet normal 0 0 -1
    outer loop
      vertex -19.5 -16.5 0
      vertex -17.4271 -19.3532 0
      vertex -18 -19.0981 0
    endloop
  endfacet
  facet normal -0 0 -1
    outer loop
      vertex 16.8136 19.4836 0
      vertex -19.5 16.5 0
      vertex -16.8136 19.4836 0
    endloop
  endfacet
  facet normal 0 0 -1
    outer loop
      vertex -19.5 -16.5 0
      vertex -18 -19.0981 0
      vertex -18.5074 -18.7294 0
    endloop
  endfacet
  facet normal 0 0 -1
    outer loop
      vertex -16.8136 19.4836 0
      vertex -19.5 16.5 0
      vertex -17.4271 19.3532 0
    endloop
  endfacet
  facet normal 0 0 -1
    outer loop
      vertex -19.5 -16.5 0
      vertex -18.5074 -18.7294 0
      vertex -18.9271 -18.2634 0
    endloop
  endfacet
  facet normal 0 0 -1
    outer loop
      vertex -17.4271 19.3532 0
      vertex -19.5 16.5 0
      vertex -18 19.0981 0
    endloop
  endfacet
  facet normal 0 0 -1
    outer loop
      vertex -19.5 -16.5 0
      vertex -18.9271 -18.2634 0
      vertex -19.2406 -17.7202 0
    endloop
  endfacet
  facet normal 0 0 -1
    outer loop
      vertex -18 19.0981 0
      vertex -19.5 16.5 0
      vertex -18.5074 18.7294 0
    endloop
  endfacet
  facet normal 0 0 -1
    outer loop
      vertex -19.5 -16.5 0
      vertex -19.2406 -17.7202 0
      vertex -19.4344 -17.1237 0
    endloop
  endfacet
  facet normal 0 0 -1
    outer loop
      vertex -18.5074 18.7294 0
      vertex -19.5 16.5 0
      vertex -18.9271 18.2634 0
    endloop
  endfacet
  facet normal 0 0 -1
    outer loop
      vertex -18.9271 18.2634 0
      vertex -19.5 16.5 0
      vertex -19.2406 17.7202 0
    endloop
  endfacet
  facet normal 0 0 -1
    outer loop
      vertex -19.2406 17.7202 0
      vertex -19.5 16.5 0
      vertex -19.4344 17.1237 0
    endloop
  endfacet
  facet normal -0.994522 0.104529 0
    outer loop
      vertex -19.5 16.5 0
      vertex -19.4344 17.1237 8.01
      vertex -19.4344 17.1237 0
    endloop
  endfacet
  facet normal -0.994522 0.104529 0
    outer loop
      vertex -19.4344 17.1237 8.01
      vertex -19.5 16.5 0
      vertex -19.5 16.5 8.01
    endloop
  endfacet
  facet normal 0 0 1
    outer loop
      vertex 16.2135 15.8817 8.01
      vertex 19.5 16.5 8.01
      vertex 19.4344 17.1237 8.01
    endloop
  endfacet
  facet normal 0 0 1
    outer loop
      vertex 19.5 16.5 8.01
      vertex 16.5 15 8.01
      vertex 19.5 -16.5 8.01
    endloop
  endfacet
  facet normal 0 0 1
    outer loop
      vertex 16.2135 15.8817 8.01
      vertex 19.4344 17.1237 8.01
      vertex 19.2406 17.7202 8.01
    endloop
  endfacet
  facet normal -0 0 1
    outer loop
      vertex 16.5 -15 8.01
      vertex 19.5 -16.5 8.01
      vertex 16.5 15 8.01
    endloop
  endfacet
  facet normal 0 0 1
    outer loop
      vertex 16.2135 15.8817 8.01
      vertex 19.2406 17.7202 8.01
      vertex 18.9271 18.2634 8.01
    endloop
  endfacet
  facet normal -0 0 1
    outer loop
      vertex 16.4672 -15.3119 8.01
      vertex 19.5 -16.5 8.01
      vertex 16.5 -15 8.01
    endloop
  endfacet
  facet normal 0 0 1
    outer loop
      vertex 16.0037 16.1147 8.01
      vertex 18.9271 18.2634 8.01
      vertex 18.5074 18.7294 8.01
    endloop
  endfacet
  facet normal -0 0 1
    outer loop
      vertex 16.3703 -15.6101 8.01
      vertex 19.5 -16.5 8.01
      vertex 16.4672 -15.3119 8.01
    endloop
  endfacet
  facet normal 0 0 1
    outer loop
      vertex 16.0037 16.1147 8.01
      vertex 18.5074 18.7294 8.01
      vertex 18 19.0981 8.01
    endloop
  endfacet
  facet normal -0 0 1
    outer loop
      vertex 16.2135 -15.8817 8.01
      vertex 19.5 -16.5 8.01
      vertex 16.3703 -15.6101 8.01
    endloop
  endfacet
  facet normal 0 0 1
    outer loop
      vertex 16.0037 16.1147 8.01
      vertex 18 19.0981 8.01
      vertex 17.4271 19.3532 8.01
    endloop
  endfacet
  facet normal 0 0 1
    outer loop
      vertex 19.5 -16.5 8.01
      vertex 16.2135 -15.8817 8.01
      vertex 19.4344 -17.1237 8.01
    endloop
  endfacet
  facet normal 0 0 1
    outer loop
      vertex 15.75 16.299 8.01
      vertex 17.4271 19.3532 8.01
      vertex 16.8136 19.4836 8.01
    endloop
  endfacet
  facet normal 0 0 1
    outer loop
      vertex 19.4344 -17.1237 8.01
      vertex 16.2135 -15.8817 8.01
      vertex 19.2406 -17.7202 8.01
    endloop
  endfacet
  facet normal 0 0 1
    outer loop
      vertex 19.2406 -17.7202 8.01
      vertex 16.2135 -15.8817 8.01
      vertex 18.9271 -18.2634 8.01
    endloop
  endfacet
  facet normal 0 0 1
    outer loop
      vertex 19.5 16.5 8.01
      vertex 16.4672 15.3119 8.01
      vertex 16.5 15 8.01
    endloop
  endfacet
  facet normal 0 0 1
    outer loop
      vertex 19.5 16.5 8.01
      vertex 16.3703 15.6101 8.01
      vertex 16.4672 15.3119 8.01
    endloop
  endfacet
  facet normal 0 0 1
    outer loop
      vertex 19.5 16.5 8.01
      vertex 16.2135 15.8817 8.01
      vertex 16.3703 15.6101 8.01
    endloop
  endfacet
  facet normal 0 0 1
    outer loop
      vertex 18.9271 18.2634 8.01
      vertex 16.0037 16.1147 8.01
      vertex 16.2135 15.8817 8.01
    endloop
  endfacet
  facet normal 0 0 1
    outer loop
      vertex 17.4271 19.3532 8.01
      vertex 15.75 16.299 8.01
      vertex 16.0037 16.1147 8.01
    endloop
  endfacet
  facet normal 0 0 1
    outer loop
      vertex 16.8136 19.4836 8.01
      vertex 15.4635 16.4266 8.01
      vertex 15.75 16.299 8.01
    endloop
  endfacet
  facet normal 0 0 1
    outer loop
      vertex 16.8136 19.4836 8.01
      vertex 15.1568 16.4918 8.01
      vertex 15.4635 16.4266 8.01
    endloop
  endfacet
  facet normal 0 0 1
    outer loop
      vertex 16.8136 19.4836 8.01
      vertex -15.1568 16.4918 8.01
      vertex 15.1568 16.4918 8.01
    endloop
  endfacet
  facet normal 0 0 1
    outer loop
      vertex -16.0037 16.1147 8.01
      vertex -18.9271 18.2634 8.01
      vertex -16.2135 15.8817 8.01
    endloop
  endfacet
  facet normal -0 0 1
    outer loop
      vertex -18.9271 18.2634 8.01
      vertex -16.0037 16.1147 8.01
      vertex -18.5074 18.7294 8.01
    endloop
  endfacet
  facet normal -0 0 1
    outer loop
      vertex -18.5074 18.7294 8.01
      vertex -16.0037 16.1147 8.01
      vertex -18 19.0981 8.01
    endloop
  endfacet
  facet normal -0 0 1
    outer loop
      vertex -18 19.0981 8.01
      vertex -16.0037 16.1147 8.01
      vertex -17.4271 19.3532 8.01
    endloop
  endfacet
  facet normal 0 0 1
    outer loop
      vertex -15.75 16.299 8.01
      vertex -17.4271 19.3532 8.01
      vertex -16.0037 16.1147 8.01
    endloop
  endfacet
  facet normal -0 0 1
    outer loop
      vertex -17.4271 19.3532 8.01
      vertex -15.75 16.299 8.01
      vertex -16.8136 19.4836 8.01
    endloop
  endfacet
  facet normal 0 0 1
    outer loop
      vertex -15.4635 16.4266 8.01
      vertex -16.8136 19.4836 8.01
      vertex -15.75 16.299 8.01
    endloop
  endfacet
  facet normal 0 0 1
    outer loop
      vertex -15.1568 16.4918 8.01
      vertex -16.8136 19.4836 8.01
      vertex -15.4635 16.4266 8.01
    endloop
  endfacet
  facet normal -0 0 1
    outer loop
      vertex -16.8136 19.4836 8.01
      vertex -15.1568 16.4918 8.01
      vertex 16.8136 19.4836 8.01
    endloop
  endfacet
  facet normal -0 0 1
    outer loop
      vertex 16.0037 -16.1147 8.01
      vertex 18.9271 -18.2634 8.01
      vertex 16.2135 -15.8817 8.01
    endloop
  endfacet
  facet normal 0 0 1
    outer loop
      vertex 18.9271 -18.2634 8.01
      vertex 16.0037 -16.1147 8.01
      vertex 18.5074 -18.7294 8.01
    endloop
  endfacet
  facet normal 0 0 1
    outer loop
      vertex 18.5074 -18.7294 8.01
      vertex 16.0037 -16.1147 8.01
      vertex 18 -19.0981 8.01
    endloop
  endfacet
  facet normal 0 0 1
    outer loop
      vertex 18 -19.0981 8.01
      vertex 16.0037 -16.1147 8.01
      vertex 17.4271 -19.3532 8.01
    endloop
  endfacet
  facet normal -0 0 1
    outer loop
      vertex 15.75 -16.299 8.01
      vertex 17.4271 -19.3532 8.01
      vertex 16.0037 -16.1147 8.01
    endloop
  endfacet
  facet normal 0 0 1
    outer loop
      vertex 17.4271 -19.3532 8.01
      vertex 15.75 -16.299 8.01
      vertex 16.8136 -19.4836 8.01
    endloop
  endfacet
  facet normal -0 0 1
    outer loop
      vertex 15.4635 -16.4266 8.01
      vertex 16.8136 -19.4836 8.01
      vertex 15.75 -16.299 8.01
    endloop
  endfacet
  facet normal -0 0 1
    outer loop
      vertex 15.1568 -16.4918 8.01
      vertex 16.8136 -19.4836 8.01
      vertex 15.4635 -16.4266 8.01
    endloop
  endfacet
  facet normal -0 0 1
    outer loop
      vertex -15.1568 -16.4918 8.01
      vertex 16.8136 -19.4836 8.01
      vertex 15.1568 -16.4918 8.01
    endloop
  endfacet
  facet normal 0 0 1
    outer loop
      vertex -15.1568 -16.4918 8.01
      vertex -16.8136 -19.4836 8.01
      vertex 16.8136 -19.4836 8.01
    endloop
  endfacet
  facet normal 0 0 1
    outer loop
      vertex -15.4635 -16.4266 8.01
      vertex -16.8136 -19.4836 8.01
      vertex -15.1568 -16.4918 8.01
    endloop
  endfacet
  facet normal 0 0 1
    outer loop
      vertex -15.75 -16.299 8.01
      vertex -16.8136 -19.4836 8.01
      vertex -15.4635 -16.4266 8.01
    endloop
  endfacet
  facet normal 0 0 1
    outer loop
      vertex -17.4271 -19.3532 8.01
      vertex -15.75 -16.299 8.01
      vertex -16.0037 -16.1147 8.01
    endloop
  endfacet
  facet normal 0 0 1
    outer loop
      vertex -18.9271 -18.2634 8.01
      vertex -16.0037 -16.1147 8.01
      vertex -16.2135 -15.8817 8.01
    endloop
  endfacet
  facet normal 0 0 1
    outer loop
      vertex -19.5 -16.5 8.01
      vertex -16.2135 -15.8817 8.01
      vertex -16.3703 -15.6101 8.01
    endloop
  endfacet
  facet normal 0 0 1
    outer loop
      vertex -19.5 -16.5 8.01
      vertex -16.3703 -15.6101 8.01
      vertex -16.4672 -15.3119 8.01
    endloop
  endfacet
  facet normal 0 0 1
    outer loop
      vertex -19.5 -16.5 8.01
      vertex -16.4672 -15.3119 8.01
      vertex -16.5 -15 8.01
    endloop
  endfacet
  facet normal 0 0 1
    outer loop
      vertex -16.5 15 8.01
      vertex -19.5 16.5 8.01
      vertex -16.5 -15 8.01
    endloop
  endfacet
  facet normal -0 0 1
    outer loop
      vertex -19.2406 17.7202 8.01
      vertex -16.2135 15.8817 8.01
      vertex -18.9271 18.2634 8.01
    endloop
  endfacet
  facet normal 0 0 1
    outer loop
      vertex -19.5 -16.5 8.01
      vertex -16.5 -15 8.01
      vertex -19.5 16.5 8.01
    endloop
  endfacet
  facet normal -0 0 1
    outer loop
      vertex -19.4344 17.1237 8.01
      vertex -16.2135 15.8817 8.01
      vertex -19.2406 17.7202 8.01
    endloop
  endfacet
  facet normal 0 0 1
    outer loop
      vertex -16.2135 -15.8817 8.01
      vertex -19.5 -16.5 8.01
      vertex -19.4344 -17.1237 8.01
    endloop
  endfacet
  facet normal -0 0 1
    outer loop
      vertex -19.5 16.5 8.01
      vertex -16.2135 15.8817 8.01
      vertex -19.4344 17.1237 8.01
    endloop
  endfacet
  facet normal 0 0 1
    outer loop
      vertex -15.75 -16.299 8.01
      vertex -17.4271 -19.3532 8.01
      vertex -16.8136 -19.4836 8.01
    endloop
  endfacet
  facet normal 0 0 1
    outer loop
      vertex -16.2135 15.8817 8.01
      vertex -19.5 16.5 8.01
      vertex -16.3703 15.6101 8.01
    endloop
  endfacet
  facet normal 0 0 1
    outer loop
      vertex -16.0037 -16.1147 8.01
      vertex -18 -19.0981 8.01
      vertex -17.4271 -19.3532 8.01
    endloop
  endfacet
  facet normal 0 0 1
    outer loop
      vertex -16.3703 15.6101 8.01
      vertex -19.5 16.5 8.01
      vertex -16.4672 15.3119 8.01
    endloop
  endfacet
  facet normal 0 0 1
    outer loop
      vertex -16.0037 -16.1147 8.01
      vertex -18.5074 -18.7294 8.01
      vertex -18 -19.0981 8.01
    endloop
  endfacet
  facet normal 0 0 1
    outer loop
      vertex -16.4672 15.3119 8.01
      vertex -19.5 16.5 8.01
      vertex -16.5 15 8.01
    endloop
  endfacet
  facet normal 0 0 1
    outer loop
      vertex -16.0037 -16.1147 8.01
      vertex -18.9271 -18.2634 8.01
      vertex -18.5074 -18.7294 8.01
    endloop
  endfacet
  facet normal 0 0 1
    outer loop
      vertex -16.2135 -15.8817 8.01
      vertex -19.2406 -17.7202 8.01
      vertex -18.9271 -18.2634 8.01
    endloop
  endfacet
  facet normal 0 0 1
    outer loop
      vertex -16.2135 -15.8817 8.01
      vertex -19.4344 -17.1237 8.01
      vertex -19.2406 -17.7202 8.01
    endloop
  endfacet
  facet normal 0.406736 -0.913546 0
    outer loop
      vertex 17.4271 -19.3532 0
      vertex 18 -19.0981 8.01
      vertex 17.4271 -19.3532 8.01
    endloop
  endfacet
  facet normal 0.406736 -0.913546 0
    outer loop
      vertex 18 -19.0981 8.01
      vertex 17.4271 -19.3532 0
      vertex 18 -19.0981 0
    endloop
  endfacet
  facet normal 0.207914 -0.978147 0
    outer loop
      vertex 16.8136 -19.4836 0
      vertex 17.4271 -19.3532 8.01
      vertex 16.8136 -19.4836 8.01
    endloop
  endfacet
  facet normal 0.207914 -0.978147 0
    outer loop
      vertex 17.4271 -19.3532 8.01
      vertex 16.8136 -19.4836 0
      vertex 17.4271 -19.3532 0
    endloop
  endfacet
  facet normal -0.406736 0.913546 0
    outer loop
      vertex -17.4271 19.3532 0
      vertex -18 19.0981 8.01
      vertex -17.4271 19.3532 8.01
    endloop
  endfacet
  facet normal -0.406736 0.913546 0
    outer loop
      vertex -18 19.0981 8.01
      vertex -17.4271 19.3532 0
      vertex -18 19.0981 0
    endloop
  endfacet
  facet normal -0.207914 0.978147 0
    outer loop
      vertex -16.8136 19.4836 0
      vertex -17.4271 19.3532 8.01
      vertex -16.8136 19.4836 8.01
    endloop
  endfacet
  facet normal -0.207914 0.978147 0
    outer loop
      vertex -17.4271 19.3532 8.01
      vertex -16.8136 19.4836 0
      vertex -17.4271 19.3532 0
    endloop
  endfacet
  facet normal -0.587785 0.809017 0
    outer loop
      vertex -18 19.0981 0
      vertex -18.5074 18.7294 8.01
      vertex -18 19.0981 8.01
    endloop
  endfacet
  facet normal -0.587785 0.809017 0
    outer loop
      vertex -18.5074 18.7294 8.01
      vertex -18 19.0981 0
      vertex -18.5074 18.7294 0
    endloop
  endfacet
  facet normal -0.587785 -0.809017 0
    outer loop
      vertex -18.5074 -18.7294 0
      vertex -18 -19.0981 8.01
      vertex -18.5074 -18.7294 8.01
    endloop
  endfacet
  facet normal -0.587785 -0.809017 -0
    outer loop
      vertex -18 -19.0981 8.01
      vertex -18.5074 -18.7294 0
      vertex -18 -19.0981 0
    endloop
  endfacet
  facet normal -0.994522 -0.104529 0
    outer loop
      vertex -19.4344 -17.1237 0
      vertex -19.5 -16.5 8.01
      vertex -19.5 -16.5 0
    endloop
  endfacet
  facet normal -0.994522 -0.104529 0
    outer loop
      vertex -19.5 -16.5 8.01
      vertex -19.4344 -17.1237 0
      vertex -19.4344 -17.1237 8.01
    endloop
  endfacet
  facet normal -0.951056 0.309018 0
    outer loop
      vertex -19.4344 17.1237 0
      vertex -19.2406 17.7202 8.01
      vertex -19.2406 17.7202 0
    endloop
  endfacet
  facet normal -0.951056 0.309018 0
    outer loop
      vertex -19.2406 17.7202 8.01
      vertex -19.4344 17.1237 0
      vertex -19.4344 17.1237 8.01
    endloop
  endfacet
  facet normal -0.951056 -0.309018 0
    outer loop
      vertex -19.2406 -17.7202 0
      vertex -19.4344 -17.1237 8.01
      vertex -19.4344 -17.1237 0
    endloop
  endfacet
  facet normal -0.951056 -0.309018 0
    outer loop
      vertex -19.4344 -17.1237 8.01
      vertex -19.2406 -17.7202 0
      vertex -19.2406 -17.7202 8.01
    endloop
  endfacet
  facet normal -0.866027 -0.499997 0
    outer loop
      vertex -18.9271 -18.2634 0
      vertex -19.2406 -17.7202 8.01
      vertex -19.2406 -17.7202 0
    endloop
  endfacet
  facet normal -0.866027 -0.499997 0
    outer loop
      vertex -19.2406 -17.7202 8.01
      vertex -18.9271 -18.2634 0
      vertex -18.9271 -18.2634 8.01
    endloop
  endfacet
  facet normal -0.994522 -0.104532 0
    outer loop
      vertex 16.5 15 4.95
      vertex 16.4672 15.3119 8.01
      vertex 16.4672 15.3119 4.95
    endloop
  endfacet
  facet normal -0.994522 -0.104532 0
    outer loop
      vertex 16.4672 15.3119 8.01
      vertex 16.5 15 4.95
      vertex 16.5 15 8.01
    endloop
  endfacet
  facet normal 0 1 -0
    outer loop
      vertex 15.1568 -16.4918 4.95
      vertex -15.1568 -16.4918 8.01
      vertex 15.1568 -16.4918 8.01
    endloop
  endfacet
  facet normal 0 1 0
    outer loop
      vertex -15.1568 -16.4918 8.01
      vertex 15.1568 -16.4918 4.95
      vertex -15.1568 -16.4918 4.95
    endloop
  endfacet
  facet normal -0.207915 -0.978147 0
    outer loop
      vertex 15.1568 16.4918 4.95
      vertex 15.4635 16.4266 8.01
      vertex 15.1568 16.4918 8.01
    endloop
  endfacet
  facet normal -0.207915 -0.978147 -0
    outer loop
      vertex 15.4635 16.4266 8.01
      vertex 15.1568 16.4918 4.95
      vertex 15.4635 16.4266 4.95
    endloop
  endfacet
  facet normal -1 0 0
    outer loop
      vertex 16.5 -15 4.95
      vertex 16.5 15 8.01
      vertex 16.5 15 4.95
    endloop
  endfacet
  facet normal -1 -0 0
    outer loop
      vertex 16.5 15 8.01
      vertex 16.5 -15 4.95
      vertex 16.5 -15 8.01
    endloop
  endfacet
  facet normal 0 -1 0
    outer loop
      vertex -15.1568 16.4918 4.95
      vertex 15.1568 16.4918 8.01
      vertex -15.1568 16.4918 8.01
    endloop
  endfacet
  facet normal 0 -1 -0
    outer loop
      vertex 15.1568 16.4918 8.01
      vertex -15.1568 16.4918 4.95
      vertex 15.1568 16.4918 4.95
    endloop
  endfacet
  facet normal -0.743146 -0.669129 0
    outer loop
      vertex 16.2135 15.8817 4.95
      vertex 16.0037 16.1147 8.01
      vertex 16.0037 16.1147 4.95
    endloop
  endfacet
  facet normal -0.743146 -0.669129 0
    outer loop
      vertex 16.0037 16.1147 8.01
      vertex 16.2135 15.8817 4.95
      vertex 16.2135 15.8817 8.01
    endloop
  endfacet
  facet normal -0.587788 0.809015 0
    outer loop
      vertex 16.0037 -16.1147 4.95
      vertex 15.75 -16.299 8.01
      vertex 16.0037 -16.1147 8.01
    endloop
  endfacet
  facet normal -0.587788 0.809015 0
    outer loop
      vertex 15.75 -16.299 8.01
      vertex 16.0037 -16.1147 4.95
      vertex 15.75 -16.299 4.95
    endloop
  endfacet
  facet normal 0.994522 0.104532 0
    outer loop
      vertex -16.4672 -15.3119 8.01
      vertex -16.5 -15 4.95
      vertex -16.5 -15 8.01
    endloop
  endfacet
  facet normal 0.994522 0.104532 0
    outer loop
      vertex -16.5 -15 4.95
      vertex -16.4672 -15.3119 8.01
      vertex -16.4672 -15.3119 4.95
    endloop
  endfacet
  facet normal 0.207915 0.978147 -0
    outer loop
      vertex -15.1568 -16.4918 4.95
      vertex -15.4635 -16.4266 8.01
      vertex -15.1568 -16.4918 8.01
    endloop
  endfacet
  facet normal 0.207915 0.978147 0
    outer loop
      vertex -15.4635 -16.4266 8.01
      vertex -15.1568 -16.4918 4.95
      vertex -15.4635 -16.4266 4.95
    endloop
  endfacet
  facet normal 1 -0 0
    outer loop
      vertex -16.5 -15 8.01
      vertex -16.5 15 4.95
      vertex -16.5 15 8.01
    endloop
  endfacet
  facet normal 1 0 0
    outer loop
      vertex -16.5 15 4.95
      vertex -16.5 -15 8.01
      vertex -16.5 -15 4.95
    endloop
  endfacet
  facet normal 0.587786 -0.809016 0
    outer loop
      vertex -16.0037 16.1147 4.95
      vertex -15.75 16.299 8.01
      vertex -16.0037 16.1147 8.01
    endloop
  endfacet
  facet normal 0.587786 -0.809016 0
    outer loop
      vertex -15.75 16.299 8.01
      vertex -16.0037 16.1147 4.95
      vertex -15.75 16.299 4.95
    endloop
  endfacet
  facet normal -0.406735 -0.913546 0
    outer loop
      vertex 15.4635 16.4266 4.95
      vertex 15.75 16.299 8.01
      vertex 15.4635 16.4266 8.01
    endloop
  endfacet
  facet normal -0.406735 -0.913546 -0
    outer loop
      vertex 15.75 16.299 8.01
      vertex 15.4635 16.4266 4.95
      vertex 15.75 16.299 4.95
    endloop
  endfacet
  facet normal -0.587788 -0.809015 0
    outer loop
      vertex 15.75 16.299 4.95
      vertex 16.0037 16.1147 8.01
      vertex 15.75 16.299 8.01
    endloop
  endfacet
  facet normal -0.587788 -0.809015 -0
    outer loop
      vertex 16.0037 16.1147 8.01
      vertex 15.75 16.299 4.95
      vertex 16.0037 16.1147 4.95
    endloop
  endfacet
  facet normal -0.866024 -0.500002 0
    outer loop
      vertex 16.3703 15.6101 4.95
      vertex 16.2135 15.8817 8.01
      vertex 16.2135 15.8817 4.95
    endloop
  endfacet
  facet normal -0.866024 -0.500002 0
    outer loop
      vertex 16.2135 15.8817 8.01
      vertex 16.3703 15.6101 4.95
      vertex 16.3703 15.6101 8.01
    endloop
  endfacet
  facet normal -0.951057 -0.309016 0
    outer loop
      vertex 16.4672 15.3119 4.95
      vertex 16.3703 15.6101 8.01
      vertex 16.3703 15.6101 4.95
    endloop
  endfacet
  facet normal -0.951057 -0.309016 0
    outer loop
      vertex 16.3703 15.6101 8.01
      vertex 16.4672 15.3119 4.95
      vertex 16.4672 15.3119 8.01
    endloop
  endfacet
  facet normal -0.951057 0.309016 0
    outer loop
      vertex 16.3703 -15.6101 4.95
      vertex 16.4672 -15.3119 8.01
      vertex 16.4672 -15.3119 4.95
    endloop
  endfacet
  facet normal -0.951057 0.309016 0
    outer loop
      vertex 16.4672 -15.3119 8.01
      vertex 16.3703 -15.6101 4.95
      vertex 16.3703 -15.6101 8.01
    endloop
  endfacet
  facet normal 0.406735 0.913546 -0
    outer loop
      vertex -15.4635 -16.4266 4.95
      vertex -15.75 -16.299 8.01
      vertex -15.4635 -16.4266 8.01
    endloop
  endfacet
  facet normal 0.406735 0.913546 0
    outer loop
      vertex -15.75 -16.299 8.01
      vertex -15.4635 -16.4266 4.95
      vertex -15.75 -16.299 4.95
    endloop
  endfacet
  facet normal 0.994522 -0.104532 0
    outer loop
      vertex -16.5 15 8.01
      vertex -16.4672 15.3119 4.95
      vertex -16.4672 15.3119 8.01
    endloop
  endfacet
  facet normal 0.994522 -0.104532 0
    outer loop
      vertex -16.4672 15.3119 4.95
      vertex -16.5 15 8.01
      vertex -16.5 15 4.95
    endloop
  endfacet
  facet normal 0.207915 -0.978147 0
    outer loop
      vertex -15.4635 16.4266 4.95
      vertex -15.1568 16.4918 8.01
      vertex -15.4635 16.4266 8.01
    endloop
  endfacet
  facet normal 0.207915 -0.978147 0
    outer loop
      vertex -15.1568 16.4918 8.01
      vertex -15.4635 16.4266 4.95
      vertex -15.1568 16.4918 4.95
    endloop
  endfacet
  facet normal 0.406736 -0.913546 0
    outer loop
      vertex -15.75 16.299 4.95
      vertex -15.4635 16.4266 8.01
      vertex -15.75 16.299 8.01
    endloop
  endfacet
  facet normal 0.406736 -0.913546 0
    outer loop
      vertex -15.4635 16.4266 8.01
      vertex -15.75 16.299 4.95
      vertex -15.4635 16.4266 4.95
    endloop
  endfacet
  facet normal -0.994522 0.104532 0
    outer loop
      vertex 16.4672 -15.3119 4.95
      vertex 16.5 -15 8.01
      vertex 16.5 -15 4.95
    endloop
  endfacet
  facet normal -0.994522 0.104532 0
    outer loop
      vertex 16.5 -15 8.01
      vertex 16.4672 -15.3119 4.95
      vertex 16.4672 -15.3119 8.01
    endloop
  endfacet
  facet normal -0.406735 0.913546 0
    outer loop
      vertex 15.75 -16.299 4.95
      vertex 15.4635 -16.4266 8.01
      vertex 15.75 -16.299 8.01
    endloop
  endfacet
  facet normal -0.406735 0.913546 0
    outer loop
      vertex 15.4635 -16.4266 8.01
      vertex 15.75 -16.299 4.95
      vertex 15.4635 -16.4266 4.95
    endloop
  endfacet
  facet normal -0.207915 0.978147 0
    outer loop
      vertex 15.4635 -16.4266 4.95
      vertex 15.1568 -16.4918 8.01
      vertex 15.4635 -16.4266 8.01
    endloop
  endfacet
  facet normal -0.207915 0.978147 0
    outer loop
      vertex 15.1568 -16.4918 8.01
      vertex 15.4635 -16.4266 4.95
      vertex 15.1568 -16.4918 4.95
    endloop
  endfacet
  facet normal 0.743146 0.669129 0
    outer loop
      vertex -16.0037 -16.1147 8.01
      vertex -16.2135 -15.8817 4.95
      vertex -16.2135 -15.8817 8.01
    endloop
  endfacet
  facet normal 0.743146 0.669129 0
    outer loop
      vertex -16.2135 -15.8817 4.95
      vertex -16.0037 -16.1147 8.01
      vertex -16.0037 -16.1147 4.95
    endloop
  endfacet
  facet normal 0.951057 -0.309016 0
    outer loop
      vertex -16.4672 15.3119 8.01
      vertex -16.3703 15.6101 4.95
      vertex -16.3703 15.6101 8.01
    endloop
  endfacet
  facet normal 0.951057 -0.309016 0
    outer loop
      vertex -16.3703 15.6101 4.95
      vertex -16.4672 15.3119 8.01
      vertex -16.4672 15.3119 4.95
    endloop
  endfacet
  facet normal 0.866024 -0.500002 0
    outer loop
      vertex -16.3703 15.6101 8.01
      vertex -16.2135 15.8817 4.95
      vertex -16.2135 15.8817 8.01
    endloop
  endfacet
  facet normal 0.866024 -0.500002 0
    outer loop
      vertex -16.2135 15.8817 4.95
      vertex -16.3703 15.6101 8.01
      vertex -16.3703 15.6101 4.95
    endloop
  endfacet
  facet normal 0.743146 -0.669129 0
    outer loop
      vertex -16.2135 15.8817 8.01
      vertex -16.0037 16.1147 4.95
      vertex -16.0037 16.1147 8.01
    endloop
  endfacet
  facet normal 0.743146 -0.669129 0
    outer loop
      vertex -16.0037 16.1147 4.95
      vertex -16.2135 15.8817 8.01
      vertex -16.2135 15.8817 4.95
    endloop
  endfacet
  facet normal -0.866024 0.500002 0
    outer loop
      vertex 16.2135 -15.8817 4.95
      vertex 16.3703 -15.6101 8.01
      vertex 16.3703 -15.6101 4.95
    endloop
  endfacet
  facet normal -0.866024 0.500002 0
    outer loop
      vertex 16.3703 -15.6101 8.01
      vertex 16.2135 -15.8817 4.95
      vertex 16.2135 -15.8817 8.01
    endloop
  endfacet
  facet normal -0.743146 0.669129 0
    outer loop
      vertex 16.0037 -16.1147 4.95
      vertex 16.2135 -15.8817 8.01
      vertex 16.2135 -15.8817 4.95
    endloop
  endfacet
  facet normal -0.743146 0.669129 0
    outer loop
      vertex 16.2135 -15.8817 8.01
      vertex 16.0037 -16.1147 4.95
      vertex 16.0037 -16.1147 8.01
    endloop
  endfacet
  facet normal 0.951057 0.309016 0
    outer loop
      vertex -16.3703 -15.6101 8.01
      vertex -16.4672 -15.3119 4.95
      vertex -16.4672 -15.3119 8.01
    endloop
  endfacet
  facet normal 0.951057 0.309016 0
    outer loop
      vertex -16.4672 -15.3119 4.95
      vertex -16.3703 -15.6101 8.01
      vertex -16.3703 -15.6101 4.95
    endloop
  endfacet
  facet normal 0.866024 0.500002 0
    outer loop
      vertex -16.2135 -15.8817 8.01
      vertex -16.3703 -15.6101 4.95
      vertex -16.3703 -15.6101 8.01
    endloop
  endfacet
  facet normal 0.866024 0.500002 0
    outer loop
      vertex -16.3703 -15.6101 4.95
      vertex -16.2135 -15.8817 8.01
      vertex -16.2135 -15.8817 4.95
    endloop
  endfacet
  facet normal 0.587788 0.809015 -0
    outer loop
      vertex -15.75 -16.299 4.95
      vertex -16.0037 -16.1147 8.01
      vertex -15.75 -16.299 8.01
    endloop
  endfacet
  facet normal 0.587788 0.809015 0
    outer loop
      vertex -16.0037 -16.1147 8.01
      vertex -15.75 -16.299 4.95
      vertex -16.0037 -16.1147 4.95
    endloop
  endfacet
  facet normal -0.698227 -0.114192 0.70671
    outer loop
      vertex 4.67448 2.67035 3
      vertex 6.7373 2.12541 4.95
      vertex 6.58187 3.07578 4.95
    endloop
  endfacet
  facet normal -0.698227 -0.114192 0.70671
    outer loop
      vertex 6.7373 2.12541 4.95
      vertex 4.67448 2.67035 3
      vertex 4.82991 1.71999 3
    endloop
  endfacet
  facet normal -0 0 1
    outer loop
      vertex 2.4599 2.67035 3
      vertex 4.82991 1.71999 3
      vertex 4.67448 2.67035 3
    endloop
  endfacet
  facet normal 0 0 1
    outer loop
      vertex 2.4599 2.67035 3
      vertex 4.67448 2.67035 3
      vertex 4.50101 3.73106 3
    endloop
  endfacet
  facet normal 0 0 1
    outer loop
      vertex 4.82991 1.71999 3
      vertex 2.4599 2.67035 3
      vertex 2.71892 0.880997 3
    endloop
  endfacet
  facet normal 0 0 1
    outer loop
      vertex 2.4599 2.67035 3
      vertex 4.50101 3.73106 3
      vertex 4.32905 4.02461 3
    endloop
  endfacet
  facet normal 0 0 1
    outer loop
      vertex 4.70056 0.880997 3
      vertex 2.71892 0.880997 3
      vertex 4.40283 -1.0502 3
    endloop
  endfacet
  facet normal 0 0 1
    outer loop
      vertex 2.4599 2.67035 3
      vertex 4.32905 4.02461 3
      vertex 3.8181 4.89682 3
    endloop
  endfacet
  facet normal 0 0 1
    outer loop
      vertex 2.58002 -1.0502 3
      vertex 4.40283 -1.0502 3
      vertex 2.71892 0.880997 3
    endloop
  endfacet
  facet normal 0 0 1
    outer loop
      vertex 1.70879 4.02461 3
      vertex 3.8181 4.89682 3
      vertex 3.61707 5.23999 3
    endloop
  endfacet
  facet normal 0 0 1
    outer loop
      vertex 1.70879 4.02461 3
      vertex 3.61707 5.23999 3
      vertex 3.55241 5.35037 3
    endloop
  endfacet
  facet normal 0 0 1
    outer loop
      vertex 4.40283 -1.0502 3
      vertex 2.58002 -1.0502 3
      vertex 4.32777 -1.53703 3
    endloop
  endfacet
  facet normal 0 0 1
    outer loop
      vertex 4.32777 -1.53703 3
      vertex 2.58002 -1.0502 3
      vertex 3.75783 -2.79286 3
    endloop
  endfacet
  facet normal 0 0 1
    outer loop
      vertex 2.17029 -2.79286 3
      vertex 3.75783 -2.79286 3
      vertex 2.58002 -1.0502 3
    endloop
  endfacet
  facet normal 0 0 1
    outer loop
      vertex 4.82991 1.71999 3
      vertex 2.71892 0.880997 3
      vertex 4.70056 0.880997 3
    endloop
  endfacet
  facet normal 0 0 1
    outer loop
      vertex 1.70879 4.02461 3
      vertex 3.55241 5.35037 3
      vertex 2.04132 6.43022 3
    endloop
  endfacet
  facet normal 0 0 1
    outer loop
      vertex 3.8181 4.89682 3
      vertex 1.70879 4.02461 3
      vertex 2.4599 2.67035 3
    endloop
  endfacet
  facet normal 0 0 1
    outer loop
      vertex 2.04132 6.43022 3
      vertex 0.504486 4.89682 3
      vertex 1.70879 4.02461 3
    endloop
  endfacet
  facet normal 0 0 1
    outer loop
      vertex 0.0249176 6.823 3
      vertex 0.504486 4.89682 3
      vertex 2.04132 6.43022 3
    endloop
  endfacet
  facet normal 0 0 1
    outer loop
      vertex 0.0249176 6.823 3
      vertex -1.11407 5.23999 3
      vertex 0.504486 4.89682 3
    endloop
  endfacet
  facet normal -0 0 1
    outer loop
      vertex -1.83678 6.06529 3
      vertex -1.11407 5.23999 3
      vertex 0.0249176 6.823 3
    endloop
  endfacet
  facet normal 0 0 1
    outer loop
      vertex -2.55439 5.23999 3
      vertex -1.11407 5.23999 3
      vertex -1.83678 6.06529 3
    endloop
  endfacet
  facet normal 0 0 1
    outer loop
      vertex -1.11407 5.23999 3
      vertex -2.55439 5.23999 3
      vertex -2.03427 4.00011 3
    endloop
  endfacet
  facet normal -0 0 1
    outer loop
      vertex -3.57594 4.06512 3
      vertex -2.03427 4.00011 3
      vertex -2.55439 5.23999 3
    endloop
  endfacet
  facet normal 0 0 1
    outer loop
      vertex -3.60545 4.00011 3
      vertex -2.03427 4.00011 3
      vertex -3.57594 4.06512 3
    endloop
  endfacet
  facet normal 0 0 1
    outer loop
      vertex -4.29185 2.48787 3
      vertex -2.70445 2.48787 3
      vertex -3.60545 4.00011 3
    endloop
  endfacet
  facet normal 0 0 1
    outer loop
      vertex -2.03427 4.00011 3
      vertex -3.60545 4.00011 3
      vertex -2.70445 2.48787 3
    endloop
  endfacet
  facet normal 0 0 1
    outer loop
      vertex 3.75783 -2.79286 3
      vertex 2.17029 -2.79286 3
      vertex 3.07151 -4.3051 3
    endloop
  endfacet
  facet normal 0 0 1
    outer loop
      vertex 1.50011 -4.3051 3
      vertex 3.07151 -4.3051 3
      vertex 2.17029 -2.79286 3
    endloop
  endfacet
  facet normal 0 0 1
    outer loop
      vertex 3.07151 -4.3051 3
      vertex 1.50011 -4.3051 3
      vertex 3.04178 -4.37062 3
    endloop
  endfacet
  facet normal 0 0 1
    outer loop
      vertex 3.04178 -4.37062 3
      vertex 1.50011 -4.3051 3
      vertex 2.02082 -5.545 3
    endloop
  endfacet
  facet normal 0 0 1
    outer loop
      vertex 0.57991 -5.545 3
      vertex 2.02082 -5.545 3
      vertex 1.50011 -4.3051 3
    endloop
  endfacet
  facet normal 0 0 1
    outer loop
      vertex 2.02082 -5.545 3
      vertex 0.57991 -5.545 3
      vertex 1.30261 -6.37114 3
    endloop
  endfacet
  facet normal 0 0 1
    outer loop
      vertex 0.57991 -5.545 3
      vertex -0.559082 -7.129 3
      vertex 1.30261 -6.37114 3
    endloop
  endfacet
  facet normal 0 0 1
    outer loop
      vertex -1.03822 -5.20183 3
      vertex -0.559082 -7.129 3
      vertex 0.57991 -5.545 3
    endloop
  endfacet
  facet normal 0 0 1
    outer loop
      vertex -2.44638 -6.77939 3
      vertex -1.03822 -5.20183 3
      vertex -2.24257 -4.32962 3
    endloop
  endfacet
  facet normal 0 0 1
    outer loop
      vertex -1.03822 -5.20183 3
      vertex -2.44638 -6.77939 3
      vertex -0.559082 -7.129 3
    endloop
  endfacet
  facet normal 0 0 1
    outer loop
      vertex -4.33383 -5.20183 3
      vertex -2.24257 -4.32962 3
      vertex -2.99391 -2.97536 3
    endloop
  endfacet
  facet normal -0 0 1
    outer loop
      vertex -5.36407 -2.02499 3
      vertex -2.99391 -2.97536 3
      vertex -3.25307 -1.18599 3
    endloop
  endfacet
  facet normal 0 0 1
    outer loop
      vertex -2.70445 2.48787 3
      vertex -4.29185 2.48787 3
      vertex -3.11418 0.745193 3
    endloop
  endfacet
  facet normal 0 0 1
    outer loop
      vertex -2.24257 -4.32962 3
      vertex -4.1157 -5.545 3
      vertex -3.97182 -5.77136 3
    endloop
  endfacet
  facet normal -0 0 1
    outer loop
      vertex -4.86194 1.23189 3
      vertex -3.11418 0.745193 3
      vertex -4.29185 2.48787 3
    endloop
  endfacet
  facet normal 0 0 1
    outer loop
      vertex -4.93698 0.745193 3
      vertex -3.11418 0.745193 3
      vertex -4.86194 1.23189 3
    endloop
  endfacet
  facet normal 0 0 1
    outer loop
      vertex -5.23472 -1.18599 3
      vertex -3.25307 -1.18599 3
      vertex -4.93698 0.745193 3
    endloop
  endfacet
  facet normal 0 0 1
    outer loop
      vertex -5.36407 -2.02499 3
      vertex -3.25307 -1.18599 3
      vertex -5.23472 -1.18599 3
    endloop
  endfacet
  facet normal 0 0 1
    outer loop
      vertex -3.11418 0.745193 3
      vertex -4.93698 0.745193 3
      vertex -3.25307 -1.18599 3
    endloop
  endfacet
  facet normal 0 0 1
    outer loop
      vertex -2.24257 -4.32962 3
      vertex -3.97182 -5.77136 3
      vertex -2.44638 -6.77939 3
    endloop
  endfacet
  facet normal 0 0 1
    outer loop
      vertex -2.24257 -4.32962 3
      vertex -4.33383 -5.20183 3
      vertex -4.1157 -5.545 3
    endloop
  endfacet
  facet normal 0 -0 1
    outer loop
      vertex -4.99214 -4.16617 3
      vertex -2.99391 -2.97536 3
      vertex -5.19899 -2.97536 3
    endloop
  endfacet
  facet normal 0 0 1
    outer loop
      vertex -2.99391 -2.97536 3
      vertex -4.88824 -4.32962 3
      vertex -4.33383 -5.20183 3
    endloop
  endfacet
  facet normal 0 0 1
    outer loop
      vertex -2.99391 -2.97536 3
      vertex -4.99214 -4.16617 3
      vertex -4.88824 -4.32962 3
    endloop
  endfacet
  facet normal 0 0 1
    outer loop
      vertex -2.99391 -2.97536 3
      vertex -5.36407 -2.02499 3
      vertex -5.19899 -2.97536 3
    endloop
  endfacet
  facet normal 0.700568 0.101411 0.706343
    outer loop
      vertex 0.583966 2.04764 4.95
      vertex 2.71892 0.880997 3
      vertex 2.4599 2.67035 3
    endloop
  endfacet
  facet normal 0.700568 0.101411 0.706343
    outer loop
      vertex 2.71892 0.880997 3
      vertex 0.583966 2.04764 4.95
      vertex 0.763582 0.806807 4.95
    endloop
  endfacet
  facet normal -0.699408 0.107828 0.706542
    outer loop
      vertex 4.70056 0.880997 3
      vertex 6.7373 1.31456 4.95
      vertex 4.82991 1.71999 3
    endloop
  endfacet
  facet normal -0.699408 0.107828 0.706542
    outer loop
      vertex 6.7373 1.31456 4.95
      vertex 4.70056 0.880997 3
      vertex 6.60795 0.475569 4.95
    endloop
  endfacet
  facet normal -0.705162 0.0741162 0.705162
    outer loop
      vertex 6.7373 1.31456 4.95
      vertex 6.77991 1.71999 4.95
      vertex 4.82991 1.71999 3
    endloop
  endfacet
  facet normal -0.705162 -0.0741162 0.705162
    outer loop
      vertex 6.77991 1.71999 4.95
      vertex 6.7373 2.12541 4.95
      vertex 4.82991 1.71999 3
    endloop
  endfacet
  facet normal 0.61955 0.34362 0.70575
    outer loop
      vertex 0.216197 2.71072 4.95
      vertex 2.4599 2.67035 3
      vertex 1.70879 4.02461 3
    endloop
  endfacet
  facet normal 0.61955 0.34362 0.70575
    outer loop
      vertex 2.4599 2.67035 3
      vertex 0.216197 2.71072 4.95
      vertex 0.583966 2.04764 4.95
    endloop
  endfacet
  facet normal -0.698227 -0.114192 0.70671
    outer loop
      vertex 4.50101 3.73106 3
      vertex 6.58187 3.07578 4.95
      vertex 6.40839 4.13649 4.95
    endloop
  endfacet
  facet normal -0.698227 -0.114192 0.70671
    outer loop
      vertex 6.58187 3.07578 4.95
      vertex 4.50101 3.73106 3
      vertex 4.67448 2.67035 3
    endloop
  endfacet
  facet normal -0.674343 -0.219108 0.705162
    outer loop
      vertex 6.40839 4.13649 4.95
      vertex 6.28242 4.5242 4.95
      vertex 4.50101 3.73106 3
    endloop
  endfacet
  facet normal -0.614053 -0.354522 0.705162
    outer loop
      vertex 6.28242 4.5242 4.95
      vertex 6.07859 4.87724 4.95
      vertex 4.50101 3.73106 3
    endloop
  endfacet
  facet normal -0.611605 -0.35828 0.70539
    outer loop
      vertex 4.32905 4.02461 3
      vertex 6.07859 4.87724 4.95
      vertex 5.90663 5.17079 4.95
    endloop
  endfacet
  facet normal -0.611605 -0.35828 0.70539
    outer loop
      vertex 6.07859 4.87724 4.95
      vertex 4.32905 4.02461 3
      vertex 4.50101 3.73106 3
    endloop
  endfacet
  facet normal 0.59733 0.379686 0.706424
    outer loop
      vertex -5.69328 -6.69118 4.95
      vertex -3.97182 -5.77136 3
      vertex -4.1157 -5.545 3
    endloop
  endfacet
  facet normal 0.59733 0.379686 0.706424
    outer loop
      vertex -3.97182 -5.77136 3
      vertex -5.69328 -6.69118 4.95
      vertex -5.5494 -6.91754 4.95
    endloop
  endfacet
  facet normal 0.147418 0.693552 0.705162
    outer loop
      vertex -2.65021 -8.71871 4.95
      vertex -2.44638 -6.77939 3
      vertex -3.04896 -8.63395 4.95
    endloop
  endfacet
  facet normal 0.288396 0.647746 0.705162
    outer loop
      vertex -3.04896 -8.63395 4.95
      vertex -2.44638 -6.77939 3
      vertex -3.42138 -8.46814 4.95
    endloop
  endfacet
  facet normal 0.390193 0.590475 0.706462
    outer loop
      vertex -4.94682 -7.46011 4.95
      vertex -2.44638 -6.77939 3
      vertex -3.97182 -5.77136 3
    endloop
  endfacet
  facet normal 0.390193 0.590475 0.706462
    outer loop
      vertex -2.44638 -6.77939 3
      vertex -4.94682 -7.46011 4.95
      vertex -3.42138 -8.46814 4.95
    endloop
  endfacet
  facet normal -0.147418 0.693552 0.705162
    outer loop
      vertex -0.355252 -9.06831 4.95
      vertex 0.0435005 -8.98356 4.95
      vertex -0.559082 -7.129 3
    endloop
  endfacet
  facet normal 0.128994 0.696348 0.706017
    outer loop
      vertex -2.65021 -8.71871 4.95
      vertex -0.559082 -7.129 3
      vertex -2.44638 -6.77939 3
    endloop
  endfacet
  facet normal 0.128994 0.696348 0.706017
    outer loop
      vertex -0.559082 -7.129 3
      vertex -2.65021 -8.71871 4.95
      vertex -0.762912 -9.06831 4.95
    endloop
  endfacet
  facet normal 0 0.709046 0.705162
    outer loop
      vertex -0.355252 -9.06831 4.95
      vertex -0.559082 -7.129 3
      vertex -0.762912 -9.06831 4.95
    endloop
  endfacet
  facet normal 0.416767 0.57363 0.705162
    outer loop
      vertex -4.94682 -7.46011 4.95
      vertex -3.97182 -5.77136 3
      vertex -5.27662 -7.22049 4.95
    endloop
  endfacet
  facet normal -0.416766 0.573631 0.705162
    outer loop
      vertex 2.27761 -8.05989 4.95
      vertex 2.60742 -7.82027 4.95
      vertex 1.30261 -6.37114 3
    endloop
  endfacet
  facet normal 0.526923 0.474445 0.705162
    outer loop
      vertex -5.27662 -7.22049 4.95
      vertex -3.97182 -5.77136 3
      vertex -5.5494 -6.91754 4.95
    endloop
  endfacet
  facet normal -0.266955 0.65578 0.706178
    outer loop
      vertex -0.559082 -7.129 3
      vertex 1.90519 -8.2257 4.95
      vertex 1.30261 -6.37114 3
    endloop
  endfacet
  facet normal -0.266955 0.65578 0.706178
    outer loop
      vertex 1.90519 -8.2257 4.95
      vertex -0.559082 -7.129 3
      vertex 0.0435005 -8.98356 4.95
    endloop
  endfacet
  facet normal -0.534659 0.46481 0.705756
    outer loop
      vertex 2.02082 -5.545 3
      vertex 2.88019 -7.51732 4.95
      vertex 3.59841 -6.69118 4.95
    endloop
  endfacet
  facet normal -0.534659 0.46481 0.705756
    outer loop
      vertex 2.88019 -7.51732 4.95
      vertex 2.02082 -5.545 3
      vertex 1.30261 -6.37114 3
    endloop
  endfacet
  facet normal -0.288397 0.647745 0.705162
    outer loop
      vertex 1.90519 -8.2257 4.95
      vertex 2.27761 -8.05989 4.95
      vertex 1.30261 -6.37114 3
    endloop
  endfacet
  facet normal -0.526924 0.474445 0.705162
    outer loop
      vertex 2.60742 -7.82027 4.95
      vertex 2.88019 -7.51732 4.95
      vertex 1.30261 -6.37114 3
    endloop
  endfacet
  facet normal 0.567832 -0.421418 0.707089
    outer loop
      vertex -0.239896 -3.40523 4.93363
      vertex 1.50011 -4.3051 3
      vertex -0.195062 -3.31736 4.95
    endloop
  endfacet
  facet normal 0.567831 -0.421419 0.707088
    outer loop
      vertex 1.50011 -4.3051 3
      vertex -0.239896 -3.40523 4.93363
      vertex 0.57991 -5.545 3
    endloop
  endfacet
  facet normal 0.567828 -0.421416 0.707092
    outer loop
      vertex -0.239896 -3.40523 4.93363
      vertex -0.195062 -3.31736 4.95
      vertex -0.24345 -3.38256 4.95
    endloop
  endfacet
  facet normal -0.534659 0.46481 0.705756
    outer loop
      vertex 3.04178 -4.37062 3
      vertex 3.59841 -6.69118 4.95
      vertex 4.61936 -5.5168 4.95
    endloop
  endfacet
  facet normal -0.534659 0.46481 0.705756
    outer loop
      vertex 3.59841 -6.69118 4.95
      vertex 3.04178 -4.37062 3
      vertex 2.02082 -5.545 3
    endloop
  endfacet
  facet normal -0.643908 0.292225 0.707098
    outer loop
      vertex 3.07151 -4.3051 3
      vertex 4.82319 -5.16376 4.95
      vertex 4.85293 -5.09824 4.95
    endloop
  endfacet
  facet normal -0.643908 0.292225 0.707098
    outer loop
      vertex 4.82319 -5.16376 4.95
      vertex 3.07151 -4.3051 3
      vertex 3.04178 -4.37062 3
    endloop
  endfacet
  facet normal -0.614053 0.354522 0.705162
    outer loop
      vertex 4.61936 -5.5168 4.95
      vertex 4.82319 -5.16376 4.95
      vertex 3.04178 -4.37062 3
    endloop
  endfacet
  facet normal 0.59733 0.379686 0.706424
    outer loop
      vertex -5.91142 -6.34801 4.95
      vertex -4.1157 -5.545 3
      vertex -4.33383 -5.20183 3
    endloop
  endfacet
  facet normal 0.59733 0.379686 0.706424
    outer loop
      vertex -4.1157 -5.545 3
      vertex -5.91142 -6.34801 4.95
      vertex -5.69328 -6.69118 4.95
    endloop
  endfacet
  facet normal -0.147098 -0.693603 0.705179
    outer loop
      vertex 0.57991 -5.545 3
      vertex -0.239896 -3.40523 4.93363
      vertex -1.03822 -5.20183 3
    endloop
  endfacet
  facet normal 0.646468 -0.286496 0.707106
    outer loop
      vertex -0.195062 -3.31736 4.95
      vertex 2.17029 -2.79286 3
      vertex 0.314711 -2.16707 4.95
    endloop
  endfacet
  facet normal 0.646468 -0.286496 0.707106
    outer loop
      vertex 2.17029 -2.79286 3
      vertex -0.195062 -3.31736 4.95
      vertex 1.50011 -4.3051 3
    endloop
  endfacet
  facet normal -0.643906 0.29223 0.707098
    outer loop
      vertex 3.75783 -2.79286 3
      vertex 4.85293 -5.09824 4.95
      vertex 5.53924 -3.586 4.95
    endloop
  endfacet
  facet normal -0.643906 0.29223 0.707098
    outer loop
      vertex 4.85293 -5.09824 4.95
      vertex 3.75783 -2.79286 3
      vertex 3.07151 -4.3051 3
    endloop
  endfacet
  facet normal 0.59733 0.379687 0.706424
    outer loop
      vertex -6.46583 -5.4758 4.95
      vertex -4.33383 -5.20183 3
      vertex -4.88824 -4.32962 3
    endloop
  endfacet
  facet normal 0.59733 0.379687 0.706424
    outer loop
      vertex -4.33383 -5.20183 3
      vertex -6.46583 -5.4758 4.95
      vertex -5.91142 -6.34801 4.95
    endloop
  endfacet
  facet normal -0.415857 -0.574216 0.705222
    outer loop
      vertex -0.750141 -3.0156 4.95
      vertex -0.239896 -3.40523 4.93363
      vertex -0.24345 -3.38256 4.95
    endloop
  endfacet
  facet normal -0.41586 -0.574219 0.705218
    outer loop
      vertex -2.24257 -4.32962 3
      vertex -0.239896 -3.40523 4.93363
      vertex -0.750141 -3.0156 4.95
    endloop
  endfacet
  facet normal -0.41586 -0.57422 0.705218
    outer loop
      vertex -0.239896 -3.40523 4.93363
      vertex -2.24257 -4.32962 3
      vertex -1.03822 -5.20183 3
    endloop
  endfacet
  facet normal 0.696919 0.121058 0.706859
    outer loop
      vertex -7.10638 -3.38078 4.95
      vertex -4.99214 -4.16617 3
      vertex -5.19899 -2.97536 3
    endloop
  endfacet
  facet normal 0.696919 0.121058 0.706859
    outer loop
      vertex -4.99214 -4.16617 3
      vertex -7.10638 -3.38078 4.95
      vertex -6.89953 -4.5716 4.95
    endloop
  endfacet
  facet normal 0.597329 0.379688 0.706424
    outer loop
      vertex -6.56972 -5.31235 4.95
      vertex -4.88824 -4.32962 3
      vertex -4.99214 -4.16617 3
    endloop
  endfacet
  facet normal 0.597329 0.379688 0.706424
    outer loop
      vertex -4.88824 -4.32962 3
      vertex -6.56972 -5.31235 4.95
      vertex -6.46583 -5.4758 4.95
    endloop
  endfacet
  facet normal 0.674343 0.219108 0.705162
    outer loop
      vertex -6.77355 -4.9593 4.95
      vertex -4.99214 -4.16617 3
      vertex -6.89953 -4.5716 4.95
    endloop
  endfacet
  facet normal 0.614053 0.354522 0.705162
    outer loop
      vertex -6.56972 -5.31235 4.95
      vertex -4.99214 -4.16617 3
      vertex -6.77355 -4.9593 4.95
    endloop
  endfacet
  facet normal -0.619509 -0.343702 0.705746
    outer loop
      vertex -2.99391 -2.97536 3
      vertex -0.750141 -3.0156 4.95
      vertex -1.11801 -2.35253 4.95
    endloop
  endfacet
  facet normal -0.619509 -0.343702 0.705746
    outer loop
      vertex -0.750141 -3.0156 4.95
      vertex -2.99391 -2.97536 3
      vertex -2.24257 -4.32962 3
    endloop
  endfacet
  facet normal 0.699407 -0.107833 0.706543
    outer loop
      vertex -7.27146 -1.61957 4.95
      vertex -5.23472 -1.18599 3
      vertex -7.14211 -0.780562 4.95
    endloop
  endfacet
  facet normal 0.699407 -0.107833 0.706543
    outer loop
      vertex -5.23472 -1.18599 3
      vertex -7.27146 -1.61957 4.95
      vertex -5.36407 -2.02499 3
    endloop
  endfacet
  facet normal 0.696919 0.121059 0.706859
    outer loop
      vertex -7.27146 -2.43042 4.95
      vertex -5.19899 -2.97536 3
      vertex -5.36407 -2.02499 3
    endloop
  endfacet
  facet normal 0.696919 0.121059 0.706859
    outer loop
      vertex -5.19899 -2.97536 3
      vertex -7.27146 -2.43042 4.95
      vertex -7.10638 -3.38078 4.95
    endloop
  endfacet
  facet normal 0.705162 0.0741162 0.705162
    outer loop
      vertex -7.27146 -2.43042 4.95
      vertex -5.36407 -2.02499 3
      vertex -7.31407 -2.02499 4.95
    endloop
  endfacet
  facet normal 0.705162 -0.0741162 0.705162
    outer loop
      vertex -5.36407 -2.02499 3
      vertex -7.27146 -1.61957 4.95
      vertex -7.31407 -2.02499 4.95
    endloop
  endfacet
  facet normal -0.700559 -0.101462 0.706345
    outer loop
      vertex -3.25307 -1.18599 3
      vertex -1.11801 -2.35253 4.95
      vertex -1.29772 -1.11168 4.95
    endloop
  endfacet
  facet normal -0.700559 -0.101462 0.706345
    outer loop
      vertex -1.11801 -2.35253 4.95
      vertex -3.25307 -1.18599 3
      vertex -2.99391 -2.97536 3
    endloop
  endfacet
  facet normal 0.706194 -0.0507928 0.706194
    outer loop
      vertex 0.653249 -0.727205 4.95
      vertex 2.71892 0.880997 3
      vertex 0.763582 0.806807 4.95
    endloop
  endfacet
  facet normal 0.706194 -0.0507928 0.706194
    outer loop
      vertex 2.71892 0.880997 3
      vertex 0.653249 -0.727205 4.95
      vertex 2.58002 -1.0502 3
    endloop
  endfacet
  facet normal -0.699408 0.107828 0.706542
    outer loop
      vertex 4.40283 -1.0502 3
      vertex 6.60795 0.475569 4.95
      vertex 4.70056 0.880997 3
    endloop
  endfacet
  facet normal -0.699408 0.107828 0.706542
    outer loop
      vertex 6.60795 0.475569 4.95
      vertex 4.40283 -1.0502 3
      vertex 6.31022 -1.45563 4.95
    endloop
  endfacet
  facet normal 0.688417 -0.161858 0.707025
    outer loop
      vertex 0.314711 -2.16707 4.95
      vertex 2.58002 -1.0502 3
      vertex 0.653249 -0.727205 4.95
    endloop
  endfacet
  facet normal 0.688417 -0.161858 0.707025
    outer loop
      vertex 2.58002 -1.0502 3
      vertex 0.314711 -2.16707 4.95
      vertex 2.17029 -2.79286 3
    endloop
  endfacet
  facet normal -0.643906 0.292231 0.707098
    outer loop
      vertex 4.32777 -1.53703 3
      vertex 5.53924 -3.586 4.95
      vertex 6.10919 -2.33017 4.95
    endloop
  endfacet
  facet normal -0.643906 0.292231 0.707098
    outer loop
      vertex 5.53924 -3.586 4.95
      vertex 4.32777 -1.53703 3
      vertex 3.75783 -2.79286 3
    endloop
  endfacet
  facet normal -0.674343 0.219108 0.705162
    outer loop
      vertex 6.10919 -2.33017 4.95
      vertex 6.23516 -1.94246 4.95
      vertex 4.32777 -1.53703 3
    endloop
  endfacet
  facet normal -0.699408 0.107827 0.706542
    outer loop
      vertex 4.32777 -1.53703 3
      vertex 6.31022 -1.45563 4.95
      vertex 4.40283 -1.0502 3
    endloop
  endfacet
  facet normal -0.699408 0.107827 0.706542
    outer loop
      vertex 6.31022 -1.45563 4.95
      vertex 4.32777 -1.53703 3
      vertex 6.23516 -1.94246 4.95
    endloop
  endfacet
  facet normal -0.611605 -0.358279 0.70539
    outer loop
      vertex 3.8181 4.89682 3
      vertex 5.90663 5.17079 4.95
      vertex 5.39569 6.043 4.95
    endloop
  endfacet
  facet normal -0.611605 -0.358279 0.70539
    outer loop
      vertex 5.90663 5.17079 4.95
      vertex 3.8181 4.89682 3
      vertex 4.32905 4.02461 3
    endloop
  endfacet
  facet normal 0.41587 0.574213 0.705218
    outer loop
      vertex -0.294009 3.09967 4.93418
      vertex 1.70879 4.02461 3
      vertex 0.504486 4.89682 3
    endloop
  endfacet
  facet normal 0.41587 0.574213 0.705218
    outer loop
      vertex 1.70879 4.02461 3
      vertex -0.294009 3.09967 4.93418
      vertex 0.216197 2.71072 4.95
    endloop
  endfacet
  facet normal 0.41587 0.574212 0.705219
    outer loop
      vertex 0.216197 2.71072 4.95
      vertex -0.294009 3.09967 4.93418
      vertex -0.290574 3.07775 4.95
    endloop
  endfacet
  facet normal -0.416767 -0.57363 0.705162
    outer loop
      vertex 4.85722 6.7995 4.95
      vertex 4.52741 7.03912 4.95
      vertex 3.55241 5.35037 3
    endloop
  endfacet
  facet normal 0.526924 -0.474445 0.705162
    outer loop
      vertex -1.83678 6.06529 3
      vertex -3.14158 7.51442 4.95
      vertex -3.41436 7.21147 4.95
    endloop
  endfacet
  facet normal 0 -0.709046 0.705162
    outer loop
      vertex 0.0249176 6.823 3
      vertex 0.228748 8.76231 4.95
      vertex -0.178913 8.76231 4.95
    endloop
  endfacet
  facet normal -0.526923 -0.474445 0.705162
    outer loop
      vertex 5.13 6.49655 4.95
      vertex 4.85722 6.7995 4.95
      vertex 3.55241 5.35037 3
    endloop
  endfacet
  facet normal 0.288396 -0.647746 0.705162
    outer loop
      vertex -1.83678 6.06529 3
      vertex -2.43936 7.91985 4.95
      vertex -2.81178 7.75404 4.95
    endloop
  endfacet
  facet normal 0.147418 -0.693552 0.705162
    outer loop
      vertex 0.0249176 6.823 3
      vertex -0.178913 8.76231 4.95
      vertex -0.577665 8.67756 4.95
    endloop
  endfacet
  facet normal -0.135457 -0.695396 0.705745
    outer loop
      vertex 0.0249176 6.823 3
      vertex 2.24515 8.36954 4.95
      vertex 0.228748 8.76231 4.95
    endloop
  endfacet
  facet normal -0.135457 -0.695396 0.705745
    outer loop
      vertex 2.24515 8.36954 4.95
      vertex 0.0249176 6.823 3
      vertex 2.04132 6.43022 3
    endloop
  endfacet
  facet normal -0.412088 -0.576657 0.705443
    outer loop
      vertex 2.04132 6.43022 3
      vertex 4.52741 7.03912 4.95
      vertex 3.01632 8.11897 4.95
    endloop
  endfacet
  facet normal -0.412088 -0.576657 0.705443
    outer loop
      vertex 4.52741 7.03912 4.95
      vertex 2.04132 6.43022 3
      vertex 3.55241 5.35037 3
    endloop
  endfacet
  facet normal 0.534621 -0.464858 0.705754
    outer loop
      vertex -3.41436 7.21147 4.95
      vertex -2.55439 5.23999 3
      vertex -1.83678 6.06529 3
    endloop
  endfacet
  facet normal 0.534621 -0.464858 0.705754
    outer loop
      vertex -2.55439 5.23999 3
      vertex -3.41436 7.21147 4.95
      vertex -4.13197 6.38617 4.95
    endloop
  endfacet
  facet normal 0.266908 -0.655798 0.70618
    outer loop
      vertex -2.43936 7.91985 4.95
      vertex 0.0249176 6.823 3
      vertex -0.577665 8.67756 4.95
    endloop
  endfacet
  facet normal 0.266908 -0.655798 0.70618
    outer loop
      vertex 0.0249176 6.823 3
      vertex -2.43936 7.91985 4.95
      vertex -1.83678 6.06529 3
    endloop
  endfacet
  facet normal 0.416767 -0.57363 0.705162
    outer loop
      vertex -1.83678 6.06529 3
      vertex -2.81178 7.75404 4.95
      vertex -3.14158 7.51442 4.95
    endloop
  endfacet
  facet normal -0.147418 -0.693552 0.705162
    outer loop
      vertex 2.6439 8.28478 4.95
      vertex 2.24515 8.36954 4.95
      vertex 2.04132 6.43022 3
    endloop
  endfacet
  facet normal -0.288396 -0.647746 0.705162
    outer loop
      vertex 3.01632 8.11897 4.95
      vertex 2.6439 8.28478 4.95
      vertex 2.04132 6.43022 3
    endloop
  endfacet
  facet normal -0.611608 -0.358275 0.70539
    outer loop
      vertex 3.55241 5.35037 3
      vertex 5.19466 6.38617 4.95
      vertex 5.13 6.49655 4.95
    endloop
  endfacet
  facet normal -0.611608 -0.358275 0.70539
    outer loop
      vertex 5.19466 6.38617 4.95
      vertex 3.55241 5.35037 3
      vertex 3.61707 5.23999 3
    endloop
  endfacet
  facet normal -0.611605 -0.358279 0.70539
    outer loop
      vertex 3.61707 5.23999 3
      vertex 5.39569 6.043 4.95
      vertex 5.19466 6.38617 4.95
    endloop
  endfacet
  facet normal -0.611605 -0.358279 0.70539
    outer loop
      vertex 5.39569 6.043 4.95
      vertex 3.61707 5.23999 3
      vertex 3.8181 4.89682 3
    endloop
  endfacet
  facet normal 0.14706 0.693609 0.705181
    outer loop
      vertex -0.294009 3.09967 4.93418
      vertex 0.504486 4.89682 3
      vertex -1.11407 5.23999 3
    endloop
  endfacet
  facet normal 0.643895 -0.292254 0.707097
    outer loop
      vertex -5.35736 4.85826 4.95
      vertex -3.60545 4.00011 3
      vertex -3.57594 4.06512 3
    endloop
  endfacet
  facet normal 0.643895 -0.292254 0.707097
    outer loop
      vertex -3.60545 4.00011 3
      vertex -5.35736 4.85826 4.95
      vertex -5.38687 4.79324 4.95
    endloop
  endfacet
  facet normal -0.567828 0.421422 0.707089
    outer loop
      vertex -0.294009 3.09967 4.93418
      vertex -0.339104 3.01236 4.95
      vertex -0.290574 3.07775 4.95
    endloop
  endfacet
  facet normal -0.567829 0.421422 0.707088
    outer loop
      vertex -2.03427 4.00011 3
      vertex -0.294009 3.09967 4.93418
      vertex -1.11407 5.23999 3
    endloop
  endfacet
  facet normal -0.567829 0.421422 0.707088
    outer loop
      vertex -0.294009 3.09967 4.93418
      vertex -2.03427 4.00011 3
      vertex -0.339104 3.01236 4.95
    endloop
  endfacet
  facet normal 0.614053 -0.354522 0.705162
    outer loop
      vertex -3.57594 4.06512 3
      vertex -5.15353 5.21131 4.95
      vertex -5.35736 4.85826 4.95
    endloop
  endfacet
  facet normal 0.53462 -0.464858 0.705754
    outer loop
      vertex -4.13197 6.38617 4.95
      vertex -3.57594 4.06512 3
      vertex -2.55439 5.23999 3
    endloop
  endfacet
  facet normal 0.53462 -0.464858 0.705754
    outer loop
      vertex -3.57594 4.06512 3
      vertex -4.13197 6.38617 4.95
      vertex -5.15353 5.21131 4.95
    endloop
  endfacet
  facet normal 0.643892 -0.29226 0.707097
    outer loop
      vertex -5.38687 4.79324 4.95
      vertex -4.29185 2.48787 3
      vertex -3.60545 4.00011 3
    endloop
  endfacet
  facet normal 0.643892 -0.29226 0.707097
    outer loop
      vertex -4.29185 2.48787 3
      vertex -5.38687 4.79324 4.95
      vertex -6.07327 3.28101 4.95
    endloop
  endfacet
  facet normal -0.646468 0.286496 0.707106
    outer loop
      vertex -2.70445 2.48787 3
      vertex -0.339104 3.01236 4.95
      vertex -2.03427 4.00011 3
    endloop
  endfacet
  facet normal -0.646468 0.286496 0.707106
    outer loop
      vertex -0.339104 3.01236 4.95
      vertex -2.70445 2.48787 3
      vertex -0.848874 1.86208 4.95
    endloop
  endfacet
  facet normal 0.699407 -0.107832 0.706543
    outer loop
      vertex -7.14211 -0.780562 4.95
      vertex -4.93698 0.745193 3
      vertex -6.84436 1.15062 4.95
    endloop
  endfacet
  facet normal 0.699407 -0.107832 0.706543
    outer loop
      vertex -4.93698 0.745193 3
      vertex -7.14211 -0.780562 4.95
      vertex -5.23472 -1.18599 3
    endloop
  endfacet
  facet normal -0.706194 0.0507876 0.706194
    outer loop
      vertex -3.25307 -1.18599 3
      vertex -1.18741 0.422213 4.95
      vertex -3.11418 0.745193 3
    endloop
  endfacet
  facet normal -0.706194 0.0507876 0.706194
    outer loop
      vertex -1.18741 0.422213 4.95
      vertex -3.25307 -1.18599 3
      vertex -1.29772 -1.11168 4.95
    endloop
  endfacet
  facet normal 0.699407 -0.107832 0.706543
    outer loop
      vertex -6.84436 1.15062 4.95
      vertex -4.86194 1.23189 3
      vertex -6.76933 1.63732 4.95
    endloop
  endfacet
  facet normal 0.699407 -0.107832 0.706543
    outer loop
      vertex -4.86194 1.23189 3
      vertex -6.84436 1.15062 4.95
      vertex -4.93698 0.745193 3
    endloop
  endfacet
  facet normal -0.688417 0.161857 0.707025
    outer loop
      vertex -3.11418 0.745193 3
      vertex -0.848874 1.86208 4.95
      vertex -2.70445 2.48787 3
    endloop
  endfacet
  facet normal -0.688417 0.161857 0.707025
    outer loop
      vertex -0.848874 1.86208 4.95
      vertex -3.11418 0.745193 3
      vertex -1.18741 0.422213 4.95
    endloop
  endfacet
  facet normal 0.674343 -0.219108 0.705162
    outer loop
      vertex -4.86194 1.23189 3
      vertex -6.64335 2.02502 4.95
      vertex -6.76933 1.63732 4.95
    endloop
  endfacet
  facet normal 0.643892 -0.29226 0.707097
    outer loop
      vertex -6.07327 3.28101 4.95
      vertex -4.86194 1.23189 3
      vertex -4.29185 2.48787 3
    endloop
  endfacet
  facet normal 0.643892 -0.29226 0.707097
    outer loop
      vertex -4.86194 1.23189 3
      vertex -6.07327 3.28101 4.95
      vertex -6.64335 2.02502 4.95
    endloop
  endfacet
  facet normal -0 0 1
    outer loop
      vertex -0.848874 1.86208 4.95
      vertex 0.763582 0.806807 4.95
      vertex 0.583966 2.04764 4.95
    endloop
  endfacet
  facet normal 0 0 1
    outer loop
      vertex 0.763582 0.806807 4.95
      vertex -1.18741 0.422213 4.95
      vertex 0.653249 -0.727205 4.95
    endloop
  endfacet
  facet normal 0 0 1
    outer loop
      vertex -0.848874 1.86208 4.95
      vertex 0.583966 2.04764 4.95
      vertex 0.216197 2.71072 4.95
    endloop
  endfacet
  facet normal 0 0 1
    outer loop
      vertex -1.29772 -1.11168 4.95
      vertex 0.653249 -0.727205 4.95
      vertex -1.18741 0.422213 4.95
    endloop
  endfacet
  facet normal 0 0 1
    outer loop
      vertex 0.653249 -0.727205 4.95
      vertex -1.29772 -1.11168 4.95
      vertex 0.314711 -2.16707 4.95
    endloop
  endfacet
  facet normal -0 0 1
    outer loop
      vertex -0.339104 3.01236 4.95
      vertex 0.216197 2.71072 4.95
      vertex -0.290574 3.07775 4.95
    endloop
  endfacet
  facet normal 0 0 1
    outer loop
      vertex 0.216197 2.71072 4.95
      vertex -0.339104 3.01236 4.95
      vertex -0.848874 1.86208 4.95
    endloop
  endfacet
  facet normal 0 0 1
    outer loop
      vertex 0.763582 0.806807 4.95
      vertex -0.848874 1.86208 4.95
      vertex -1.18741 0.422213 4.95
    endloop
  endfacet
  facet normal 0 -0 1
    outer loop
      vertex -1.11801 -2.35253 4.95
      vertex 0.314711 -2.16707 4.95
      vertex -1.29772 -1.11168 4.95
    endloop
  endfacet
  facet normal 0 -0 1
    outer loop
      vertex -0.750141 -3.0156 4.95
      vertex 0.314711 -2.16707 4.95
      vertex -1.11801 -2.35253 4.95
    endloop
  endfacet
  facet normal 0 0 1
    outer loop
      vertex 0.314711 -2.16707 4.95
      vertex -0.750141 -3.0156 4.95
      vertex -0.195062 -3.31736 4.95
    endloop
  endfacet
  facet normal 0 0 1
    outer loop
      vertex -0.195062 -3.31736 4.95
      vertex -0.750141 -3.0156 4.95
      vertex -0.24345 -3.38256 4.95
    endloop
  endfacet
  facet normal 0 0 1
    outer loop
      vertex 15.1568 16.4918 4.95
      vertex 16.5 15 4.95
      vertex 16.4672 15.3119 4.95
    endloop
  endfacet
  facet normal 0 0 1
    outer loop
      vertex 16.5 15 4.95
      vertex 6.77991 1.71999 4.95
      vertex 16.5 -15 4.95
    endloop
  endfacet
  facet normal 0 0 1
    outer loop
      vertex 15.1568 16.4918 4.95
      vertex 16.4672 15.3119 4.95
      vertex 16.3703 15.6101 4.95
    endloop
  endfacet
  facet normal -0 0 1
    outer loop
      vertex 6.7373 1.31456 4.95
      vertex 16.5 -15 4.95
      vertex 6.77991 1.71999 4.95
    endloop
  endfacet
  facet normal 0 0 1
    outer loop
      vertex 15.1568 16.4918 4.95
      vertex 16.3703 15.6101 4.95
      vertex 16.2135 15.8817 4.95
    endloop
  endfacet
  facet normal -0 0 1
    outer loop
      vertex 6.60795 0.475569 4.95
      vertex 16.5 -15 4.95
      vertex 6.7373 1.31456 4.95
    endloop
  endfacet
  facet normal 0 0 1
    outer loop
      vertex 15.1568 16.4918 4.95
      vertex 16.2135 15.8817 4.95
      vertex 16.0037 16.1147 4.95
    endloop
  endfacet
  facet normal -0 0 1
    outer loop
      vertex 6.31022 -1.45563 4.95
      vertex 16.5 -15 4.95
      vertex 6.60795 0.475569 4.95
    endloop
  endfacet
  facet normal 0 0 1
    outer loop
      vertex 15.1568 16.4918 4.95
      vertex 16.0037 16.1147 4.95
      vertex 15.75 16.299 4.95
    endloop
  endfacet
  facet normal -0 0 1
    outer loop
      vertex 6.23516 -1.94246 4.95
      vertex 16.5 -15 4.95
      vertex 6.31022 -1.45563 4.95
    endloop
  endfacet
  facet normal 0 0 1
    outer loop
      vertex 15.1568 16.4918 4.95
      vertex 15.75 16.299 4.95
      vertex 15.4635 16.4266 4.95
    endloop
  endfacet
  facet normal -0 0 1
    outer loop
      vertex 6.10919 -2.33017 4.95
      vertex 16.5 -15 4.95
      vertex 6.23516 -1.94246 4.95
    endloop
  endfacet
  facet normal 0 0 1
    outer loop
      vertex 16.5 15 4.95
      vertex 15.1568 16.4918 4.95
      vertex 5.13 6.49655 4.95
    endloop
  endfacet
  facet normal -0 0 1
    outer loop
      vertex 5.53924 -3.586 4.95
      vertex 16.5 -15 4.95
      vertex 6.10919 -2.33017 4.95
    endloop
  endfacet
  facet normal -0 0 1
    outer loop
      vertex 4.85293 -5.09824 4.95
      vertex 16.5 -15 4.95
      vertex 5.53924 -3.586 4.95
    endloop
  endfacet
  facet normal 0 0 1
    outer loop
      vertex 16.5 15 4.95
      vertex 6.7373 2.12541 4.95
      vertex 6.77991 1.71999 4.95
    endloop
  endfacet
  facet normal 0 0 1
    outer loop
      vertex 16.5 15 4.95
      vertex 6.58187 3.07578 4.95
      vertex 6.7373 2.12541 4.95
    endloop
  endfacet
  facet normal 0 0 1
    outer loop
      vertex 16.5 15 4.95
      vertex 6.40839 4.13649 4.95
      vertex 6.58187 3.07578 4.95
    endloop
  endfacet
  facet normal 0 0 1
    outer loop
      vertex 16.5 15 4.95
      vertex 6.28242 4.5242 4.95
      vertex 6.40839 4.13649 4.95
    endloop
  endfacet
  facet normal 0 0 1
    outer loop
      vertex 16.5 15 4.95
      vertex 6.07859 4.87724 4.95
      vertex 6.28242 4.5242 4.95
    endloop
  endfacet
  facet normal 0 0 1
    outer loop
      vertex 16.5 15 4.95
      vertex 5.90663 5.17079 4.95
      vertex 6.07859 4.87724 4.95
    endloop
  endfacet
  facet normal 0 0 1
    outer loop
      vertex 16.5 15 4.95
      vertex 5.39569 6.043 4.95
      vertex 5.90663 5.17079 4.95
    endloop
  endfacet
  facet normal 0 0 1
    outer loop
      vertex 16.5 15 4.95
      vertex 5.19466 6.38617 4.95
      vertex 5.39569 6.043 4.95
    endloop
  endfacet
  facet normal 0 0 1
    outer loop
      vertex 16.5 15 4.95
      vertex 5.13 6.49655 4.95
      vertex 5.19466 6.38617 4.95
    endloop
  endfacet
  facet normal 0 0 1
    outer loop
      vertex 15.1568 16.4918 4.95
      vertex 4.85722 6.7995 4.95
      vertex 5.13 6.49655 4.95
    endloop
  endfacet
  facet normal 0 0 1
    outer loop
      vertex 15.1568 16.4918 4.95
      vertex 4.52741 7.03912 4.95
      vertex 4.85722 6.7995 4.95
    endloop
  endfacet
  facet normal 0 0 1
    outer loop
      vertex 15.1568 16.4918 4.95
      vertex 3.01632 8.11897 4.95
      vertex 4.52741 7.03912 4.95
    endloop
  endfacet
  facet normal 0 0 1
    outer loop
      vertex 15.1568 16.4918 4.95
      vertex 2.6439 8.28478 4.95
      vertex 3.01632 8.11897 4.95
    endloop
  endfacet
  facet normal 0 0 1
    outer loop
      vertex 15.1568 16.4918 4.95
      vertex 2.24515 8.36954 4.95
      vertex 2.6439 8.28478 4.95
    endloop
  endfacet
  facet normal 0 0 1
    outer loop
      vertex 15.1568 16.4918 4.95
      vertex 0.228748 8.76231 4.95
      vertex 2.24515 8.36954 4.95
    endloop
  endfacet
  facet normal 0 0 1
    outer loop
      vertex 15.1568 16.4918 4.95
      vertex -0.178913 8.76231 4.95
      vertex 0.228748 8.76231 4.95
    endloop
  endfacet
  facet normal -0 0 1
    outer loop
      vertex -15.1568 16.4918 4.95
      vertex -0.178913 8.76231 4.95
      vertex 15.1568 16.4918 4.95
    endloop
  endfacet
  facet normal 0 0 1
    outer loop
      vertex -0.178913 8.76231 4.95
      vertex -15.1568 16.4918 4.95
      vertex -0.577665 8.67756 4.95
    endloop
  endfacet
  facet normal 0 0 1
    outer loop
      vertex -0.577665 8.67756 4.95
      vertex -15.1568 16.4918 4.95
      vertex -2.43936 7.91985 4.95
    endloop
  endfacet
  facet normal 0 0 1
    outer loop
      vertex -15.1568 16.4918 4.95
      vertex -4.13197 6.38617 4.95
      vertex -3.41436 7.21147 4.95
    endloop
  endfacet
  facet normal 0 0 1
    outer loop
      vertex -16.5 15 4.95
      vertex -5.38687 4.79324 4.95
      vertex -5.35736 4.85826 4.95
    endloop
  endfacet
  facet normal 0 0 1
    outer loop
      vertex -5.38687 4.79324 4.95
      vertex -16.5 15 4.95
      vertex -6.07327 3.28101 4.95
    endloop
  endfacet
  facet normal 0 0 1
    outer loop
      vertex -16.5 15 4.95
      vertex -6.84436 1.15062 4.95
      vertex -6.76933 1.63732 4.95
    endloop
  endfacet
  facet normal 0 0 1
    outer loop
      vertex -6.84436 1.15062 4.95
      vertex -16.5 15 4.95
      vertex -7.14211 -0.780562 4.95
    endloop
  endfacet
  facet normal 0 0 1
    outer loop
      vertex -7.14211 -0.780562 4.95
      vertex -16.5 15 4.95
      vertex -7.27146 -1.61957 4.95
    endloop
  endfacet
  facet normal 0 0 1
    outer loop
      vertex -6.64335 2.02502 4.95
      vertex -16.5 15 4.95
      vertex -6.76933 1.63732 4.95
    endloop
  endfacet
  facet normal 0 0 1
    outer loop
      vertex -6.07327 3.28101 4.95
      vertex -16.5 15 4.95
      vertex -6.64335 2.02502 4.95
    endloop
  endfacet
  facet normal 0 0 1
    outer loop
      vertex -5.15353 5.21131 4.95
      vertex -16.5 15 4.95
      vertex -5.35736 4.85826 4.95
    endloop
  endfacet
  facet normal -0 0 1
    outer loop
      vertex -16.5 15 4.95
      vertex -5.15353 5.21131 4.95
      vertex -15.1568 16.4918 4.95
    endloop
  endfacet
  facet normal 0 0 1
    outer loop
      vertex -4.13197 6.38617 4.95
      vertex -15.1568 16.4918 4.95
      vertex -5.15353 5.21131 4.95
    endloop
  endfacet
  facet normal 0 0 1
    outer loop
      vertex -3.14158 7.51442 4.95
      vertex -15.1568 16.4918 4.95
      vertex -3.41436 7.21147 4.95
    endloop
  endfacet
  facet normal 0 0 1
    outer loop
      vertex -2.81178 7.75404 4.95
      vertex -15.1568 16.4918 4.95
      vertex -3.14158 7.51442 4.95
    endloop
  endfacet
  facet normal 0 0 1
    outer loop
      vertex -2.43936 7.91985 4.95
      vertex -15.1568 16.4918 4.95
      vertex -2.81178 7.75404 4.95
    endloop
  endfacet
  facet normal -0 0 1
    outer loop
      vertex 4.82319 -5.16376 4.95
      vertex 16.5 -15 4.95
      vertex 4.85293 -5.09824 4.95
    endloop
  endfacet
  facet normal -0 0 1
    outer loop
      vertex 4.61936 -5.5168 4.95
      vertex 16.5 -15 4.95
      vertex 4.82319 -5.16376 4.95
    endloop
  endfacet
  facet normal 0 -0 1
    outer loop
      vertex 15.1568 -16.4918 4.95
      vertex 16.5 -15 4.95
      vertex 4.61936 -5.5168 4.95
    endloop
  endfacet
  facet normal 0 0 1
    outer loop
      vertex 16.5 -15 4.95
      vertex 15.1568 -16.4918 4.95
      vertex 16.4672 -15.3119 4.95
    endloop
  endfacet
  facet normal 0 0 1
    outer loop
      vertex 16.3703 -15.6101 4.95
      vertex 15.1568 -16.4918 4.95
      vertex 16.2135 -15.8817 4.95
    endloop
  endfacet
  facet normal 0 0 1
    outer loop
      vertex 15.75 -16.299 4.95
      vertex 15.1568 -16.4918 4.95
      vertex 15.4635 -16.4266 4.95
    endloop
  endfacet
  facet normal 0 0 1
    outer loop
      vertex 16.0037 -16.1147 4.95
      vertex 15.1568 -16.4918 4.95
      vertex 15.75 -16.299 4.95
    endloop
  endfacet
  facet normal 0 0 1
    outer loop
      vertex 16.2135 -15.8817 4.95
      vertex 15.1568 -16.4918 4.95
      vertex 16.0037 -16.1147 4.95
    endloop
  endfacet
  facet normal 0 0 1
    outer loop
      vertex 16.4672 -15.3119 4.95
      vertex 15.1568 -16.4918 4.95
      vertex 16.3703 -15.6101 4.95
    endloop
  endfacet
  facet normal -0 0 1
    outer loop
      vertex 3.59841 -6.69118 4.95
      vertex 15.1568 -16.4918 4.95
      vertex 4.61936 -5.5168 4.95
    endloop
  endfacet
  facet normal -0 0 1
    outer loop
      vertex 2.88019 -7.51732 4.95
      vertex 15.1568 -16.4918 4.95
      vertex 3.59841 -6.69118 4.95
    endloop
  endfacet
  facet normal -0 0 1
    outer loop
      vertex 2.60742 -7.82027 4.95
      vertex 15.1568 -16.4918 4.95
      vertex 2.88019 -7.51732 4.95
    endloop
  endfacet
  facet normal -0 0 1
    outer loop
      vertex 2.27761 -8.05989 4.95
      vertex 15.1568 -16.4918 4.95
      vertex 2.60742 -7.82027 4.95
    endloop
  endfacet
  facet normal -0 0 1
    outer loop
      vertex 1.90519 -8.2257 4.95
      vertex 15.1568 -16.4918 4.95
      vertex 2.27761 -8.05989 4.95
    endloop
  endfacet
  facet normal -0 0 1
    outer loop
      vertex 0.0435005 -8.98356 4.95
      vertex 15.1568 -16.4918 4.95
      vertex 1.90519 -8.2257 4.95
    endloop
  endfacet
  facet normal -0 0 1
    outer loop
      vertex -0.355252 -9.06831 4.95
      vertex 15.1568 -16.4918 4.95
      vertex 0.0435005 -8.98356 4.95
    endloop
  endfacet
  facet normal 0 0 1
    outer loop
      vertex -15.1568 -16.4918 4.95
      vertex -0.355252 -9.06831 4.95
      vertex -0.762912 -9.06831 4.95
    endloop
  endfacet
  facet normal 0 0 1
    outer loop
      vertex -15.1568 -16.4918 4.95
      vertex -0.762912 -9.06831 4.95
      vertex -2.65021 -8.71871 4.95
    endloop
  endfacet
  facet normal 0 0 1
    outer loop
      vertex -15.1568 -16.4918 4.95
      vertex -2.65021 -8.71871 4.95
      vertex -3.04896 -8.63395 4.95
    endloop
  endfacet
  facet normal 0 0 1
    outer loop
      vertex -16.5 -15 4.95
      vertex -5.69328 -6.69118 4.95
      vertex -5.91142 -6.34801 4.95
    endloop
  endfacet
  facet normal 0 0 1
    outer loop
      vertex -16.5 -15 4.95
      vertex -5.91142 -6.34801 4.95
      vertex -6.46583 -5.4758 4.95
    endloop
  endfacet
  facet normal 0 0 1
    outer loop
      vertex -16.5 -15 4.95
      vertex -6.46583 -5.4758 4.95
      vertex -6.56972 -5.31235 4.95
    endloop
  endfacet
  facet normal 0 0 1
    outer loop
      vertex -16.5 -15 4.95
      vertex -7.10638 -3.38078 4.95
      vertex -7.27146 -2.43042 4.95
    endloop
  endfacet
  facet normal 0 0 1
    outer loop
      vertex -7.27146 -1.61957 4.95
      vertex -16.5 15 4.95
      vertex -7.31407 -2.02499 4.95
    endloop
  endfacet
  facet normal 0 0 1
    outer loop
      vertex -16.5 -15 4.95
      vertex -7.31407 -2.02499 4.95
      vertex -16.5 15 4.95
    endloop
  endfacet
  facet normal 0 0 1
    outer loop
      vertex -7.31407 -2.02499 4.95
      vertex -16.5 -15 4.95
      vertex -7.27146 -2.43042 4.95
    endloop
  endfacet
  facet normal 0 0 1
    outer loop
      vertex -0.355252 -9.06831 4.95
      vertex -15.1568 -16.4918 4.95
      vertex 15.1568 -16.4918 4.95
    endloop
  endfacet
  facet normal 0 0 1
    outer loop
      vertex -3.42138 -8.46814 4.95
      vertex -15.1568 -16.4918 4.95
      vertex -3.04896 -8.63395 4.95
    endloop
  endfacet
  facet normal 0 0 1
    outer loop
      vertex -4.94682 -7.46011 4.95
      vertex -15.1568 -16.4918 4.95
      vertex -3.42138 -8.46814 4.95
    endloop
  endfacet
  facet normal 0 0 1
    outer loop
      vertex -5.27662 -7.22049 4.95
      vertex -15.1568 -16.4918 4.95
      vertex -4.94682 -7.46011 4.95
    endloop
  endfacet
  facet normal 0 0 1
    outer loop
      vertex -5.5494 -6.91754 4.95
      vertex -15.1568 -16.4918 4.95
      vertex -5.27662 -7.22049 4.95
    endloop
  endfacet
  facet normal 0 0 1
    outer loop
      vertex -5.69328 -6.69118 4.95
      vertex -16.5 -15 4.95
      vertex -5.5494 -6.91754 4.95
    endloop
  endfacet
  facet normal 0 0 1
    outer loop
      vertex -16.5 -15 4.95
      vertex -6.56972 -5.31235 4.95
      vertex -6.77355 -4.9593 4.95
    endloop
  endfacet
  facet normal 0 0 1
    outer loop
      vertex -7.10638 -3.38078 4.95
      vertex -16.5 -15 4.95
      vertex -6.89953 -4.5716 4.95
    endloop
  endfacet
  facet normal 0 0 1
    outer loop
      vertex -16.5 15 4.95
      vertex -15.1568 16.4918 4.95
      vertex -15.4635 16.4266 4.95
    endloop
  endfacet
  facet normal 0 0 1
    outer loop
      vertex -6.89953 -4.5716 4.95
      vertex -16.5 -15 4.95
      vertex -6.77355 -4.9593 4.95
    endloop
  endfacet
  facet normal 0 0 1
    outer loop
      vertex -16.5 15 4.95
      vertex -15.4635 16.4266 4.95
      vertex -15.75 16.299 4.95
    endloop
  endfacet
  facet normal 0 0 1
    outer loop
      vertex -5.5494 -6.91754 4.95
      vertex -16.5 -15 4.95
      vertex -15.1568 -16.4918 4.95
    endloop
  endfacet
  facet normal 0 0 1
    outer loop
      vertex -16.5 15 4.95
      vertex -15.75 16.299 4.95
      vertex -16.0037 16.1147 4.95
    endloop
  endfacet
  facet normal 0 0 1
    outer loop
      vertex -15.1568 -16.4918 4.95
      vertex -16.5 -15 4.95
      vertex -15.4635 -16.4266 4.95
    endloop
  endfacet
  facet normal 0 0 1
    outer loop
      vertex -16.5 15 4.95
      vertex -16.0037 16.1147 4.95
      vertex -16.2135 15.8817 4.95
    endloop
  endfacet
  facet normal 0 0 1
    outer loop
      vertex -15.4635 -16.4266 4.95
      vertex -16.5 -15 4.95
      vertex -15.75 -16.299 4.95
    endloop
  endfacet
  facet normal 0 0 1
    outer loop
      vertex -16.5 15 4.95
      vertex -16.2135 15.8817 4.95
      vertex -16.3703 15.6101 4.95
    endloop
  endfacet
  facet normal 0 0 1
    outer loop
      vertex -15.75 -16.299 4.95
      vertex -16.5 -15 4.95
      vertex -16.0037 -16.1147 4.95
    endloop
  endfacet
  facet normal 0 0 1
    outer loop
      vertex -16.5 15 4.95
      vertex -16.3703 15.6101 4.95
      vertex -16.4672 15.3119 4.95
    endloop
  endfacet
  facet normal 0 0 1
    outer loop
      vertex -16.0037 -16.1147 4.95
      vertex -16.5 -15 4.95
      vertex -16.2135 -15.8817 4.95
    endloop
  endfacet
  facet normal 0 0 1
    outer loop
      vertex -16.2135 -15.8817 4.95
      vertex -16.5 -15 4.95
      vertex -16.3703 -15.6101 4.95
    endloop
  endfacet
  facet normal 0 0 1
    outer loop
      vertex -16.3703 -15.6101 4.95
      vertex -16.5 -15 4.95
      vertex -16.4672 -15.3119 4.95
    endloop
  endfacet
endsolid OpenSCAD_Model
