solid OpenSCAD_Model
  facet normal 0 -1 0
    outer loop
      vertex -16.8136 -19.4836 0
      vertex 16.8136 -19.4836 8.01
      vertex -16.8136 -19.4836 8.01
    endloop
  endfacet
  facet normal 0 -1 -0
    outer loop
      vertex 16.8136 -19.4836 8.01
      vertex -16.8136 -19.4836 0
      vertex 16.8136 -19.4836 0
    endloop
  endfacet
  facet normal 1 -0 0
    outer loop
      vertex 19.5 -16.5 8.01
      vertex 19.5 16.5 0
      vertex 19.5 16.5 8.01
    endloop
  endfacet
  facet normal 1 0 0
    outer loop
      vertex 19.5 16.5 0
      vertex 19.5 -16.5 8.01
      vertex 19.5 -16.5 0
    endloop
  endfacet
  facet normal -0.207914 -0.978147 0
    outer loop
      vertex -17.4271 -19.3532 0
      vertex -16.8136 -19.4836 8.01
      vertex -17.4271 -19.3532 8.01
    endloop
  endfacet
  facet normal -0.207914 -0.978147 -0
    outer loop
      vertex -16.8136 -19.4836 8.01
      vertex -17.4271 -19.3532 0
      vertex -16.8136 -19.4836 0
    endloop
  endfacet
  facet normal 0.207914 0.978147 -0
    outer loop
      vertex 17.4271 19.3532 0
      vertex 16.8136 19.4836 8.01
      vertex 17.4271 19.3532 8.01
    endloop
  endfacet
  facet normal 0.207914 0.978147 0
    outer loop
      vertex 16.8136 19.4836 8.01
      vertex 17.4271 19.3532 0
      vertex 16.8136 19.4836 0
    endloop
  endfacet
  facet normal 0.866027 0.499997 0
    outer loop
      vertex 19.2406 17.7202 8.01
      vertex 18.9271 18.2634 0
      vertex 18.9271 18.2634 8.01
    endloop
  endfacet
  facet normal 0.866027 0.499997 0
    outer loop
      vertex 18.9271 18.2634 0
      vertex 19.2406 17.7202 8.01
      vertex 19.2406 17.7202 0
    endloop
  endfacet
  facet normal 0.994522 0.104529 0
    outer loop
      vertex 19.5 16.5 8.01
      vertex 19.4344 17.1237 0
      vertex 19.4344 17.1237 8.01
    endloop
  endfacet
  facet normal 0.994522 0.104529 0
    outer loop
      vertex 19.4344 17.1237 0
      vertex 19.5 16.5 8.01
      vertex 19.5 16.5 0
    endloop
  endfacet
  facet normal -0.866027 0.499997 0
    outer loop
      vertex -19.2406 17.7202 0
      vertex -18.9271 18.2634 8.01
      vertex -18.9271 18.2634 0
    endloop
  endfacet
  facet normal -0.866027 0.499997 0
    outer loop
      vertex -18.9271 18.2634 8.01
      vertex -19.2406 17.7202 0
      vertex -19.2406 17.7202 8.01
    endloop
  endfacet
  facet normal 0.951056 -0.309018 0
    outer loop
      vertex 19.2406 -17.7202 8.01
      vertex 19.4344 -17.1237 0
      vertex 19.4344 -17.1237 8.01
    endloop
  endfacet
  facet normal 0.951056 -0.309018 0
    outer loop
      vertex 19.4344 -17.1237 0
      vertex 19.2406 -17.7202 8.01
      vertex 19.2406 -17.7202 0
    endloop
  endfacet
  facet normal 0.994522 -0.104529 0
    outer loop
      vertex 19.4344 -17.1237 8.01
      vertex 19.5 -16.5 0
      vertex 19.5 -16.5 8.01
    endloop
  endfacet
  facet normal 0.994522 -0.104529 0
    outer loop
      vertex 19.5 -16.5 0
      vertex 19.4344 -17.1237 8.01
      vertex 19.4344 -17.1237 0
    endloop
  endfacet
  facet normal 0.587785 -0.809017 0
    outer loop
      vertex 18 -19.0981 0
      vertex 18.5074 -18.7294 8.01
      vertex 18 -19.0981 8.01
    endloop
  endfacet
  facet normal 0.587785 -0.809017 0
    outer loop
      vertex 18.5074 -18.7294 8.01
      vertex 18 -19.0981 0
      vertex 18.5074 -18.7294 0
    endloop
  endfacet
  facet normal -0.406736 -0.913546 0
    outer loop
      vertex -18 -19.0981 0
      vertex -17.4271 -19.3532 8.01
      vertex -18 -19.0981 8.01
    endloop
  endfacet
  facet normal -0.406736 -0.913546 -0
    outer loop
      vertex -17.4271 -19.3532 8.01
      vertex -18 -19.0981 0
      vertex -17.4271 -19.3532 0
    endloop
  endfacet
  facet normal 0 1 -0
    outer loop
      vertex 16.8136 19.4836 0
      vertex -16.8136 19.4836 8.01
      vertex 16.8136 19.4836 8.01
    endloop
  endfacet
  facet normal 0 1 0
    outer loop
      vertex -16.8136 19.4836 8.01
      vertex 16.8136 19.4836 0
      vertex -16.8136 19.4836 0
    endloop
  endfacet
  facet normal 0.951056 0.309018 0
    outer loop
      vertex 19.4344 17.1237 8.01
      vertex 19.2406 17.7202 0
      vertex 19.2406 17.7202 8.01
    endloop
  endfacet
  facet normal 0.951056 0.309018 0
    outer loop
      vertex 19.2406 17.7202 0
      vertex 19.4344 17.1237 8.01
      vertex 19.4344 17.1237 0
    endloop
  endfacet
  facet normal 0.587785 0.809017 -0
    outer loop
      vertex 18.5074 18.7294 0
      vertex 18 19.0981 8.01
      vertex 18.5074 18.7294 8.01
    endloop
  endfacet
  facet normal 0.587785 0.809017 0
    outer loop
      vertex 18 19.0981 8.01
      vertex 18.5074 18.7294 0
      vertex 18 19.0981 0
    endloop
  endfacet
  facet normal 0.406736 0.913546 -0
    outer loop
      vertex 18 19.0981 0
      vertex 17.4271 19.3532 8.01
      vertex 18 19.0981 8.01
    endloop
  endfacet
  facet normal 0.406736 0.913546 0
    outer loop
      vertex 17.4271 19.3532 8.01
      vertex 18 19.0981 0
      vertex 17.4271 19.3532 0
    endloop
  endfacet
  facet normal 0.743144 0.669131 0
    outer loop
      vertex 18.9271 18.2634 8.01
      vertex 18.5074 18.7294 0
      vertex 18.5074 18.7294 8.01
    endloop
  endfacet
  facet normal 0.743144 0.669131 0
    outer loop
      vertex 18.5074 18.7294 0
      vertex 18.9271 18.2634 8.01
      vertex 18.9271 18.2634 0
    endloop
  endfacet
  facet normal -0.994522 -0.104529 0
    outer loop
      vertex -19.4344 -17.1237 0
      vertex -19.5 -16.5 8.01
      vertex -19.5 -16.5 0
    endloop
  endfacet
  facet normal -0.994522 -0.104529 0
    outer loop
      vertex -19.5 -16.5 8.01
      vertex -19.4344 -17.1237 0
      vertex -19.4344 -17.1237 8.01
    endloop
  endfacet
  facet normal -1 0 0
    outer loop
      vertex -19.5 -16.5 0
      vertex -19.5 16.5 8.01
      vertex -19.5 16.5 0
    endloop
  endfacet
  facet normal -1 -0 0
    outer loop
      vertex -19.5 16.5 8.01
      vertex -19.5 -16.5 0
      vertex -19.5 -16.5 8.01
    endloop
  endfacet
  facet normal 0.866027 -0.499997 0
    outer loop
      vertex 18.9271 -18.2634 8.01
      vertex 19.2406 -17.7202 0
      vertex 19.2406 -17.7202 8.01
    endloop
  endfacet
  facet normal 0.866027 -0.499997 0
    outer loop
      vertex 19.2406 -17.7202 0
      vertex 18.9271 -18.2634 8.01
      vertex 18.9271 -18.2634 0
    endloop
  endfacet
  facet normal 0.743144 -0.669131 0
    outer loop
      vertex 18.5074 -18.7294 8.01
      vertex 18.9271 -18.2634 0
      vertex 18.9271 -18.2634 8.01
    endloop
  endfacet
  facet normal 0.743144 -0.669131 0
    outer loop
      vertex 18.9271 -18.2634 0
      vertex 18.5074 -18.7294 8.01
      vertex 18.5074 -18.7294 0
    endloop
  endfacet
  facet normal -0.743144 0.669131 0
    outer loop
      vertex -18.9271 18.2634 0
      vertex -18.5074 18.7294 8.01
      vertex -18.5074 18.7294 0
    endloop
  endfacet
  facet normal -0.743144 0.669131 0
    outer loop
      vertex -18.5074 18.7294 8.01
      vertex -18.9271 18.2634 0
      vertex -18.9271 18.2634 8.01
    endloop
  endfacet
  facet normal 0 0 -1
    outer loop
      vertex 16.8136 -19.4836 0
      vertex 19.5 -16.5 0
      vertex 19.4344 -17.1237 0
    endloop
  endfacet
  facet normal 0 0 -1
    outer loop
      vertex -19.5 -16.5 0
      vertex 19.5 -16.5 0
      vertex 16.8136 -19.4836 0
    endloop
  endfacet
  facet normal 0 0 -1
    outer loop
      vertex 16.8136 -19.4836 0
      vertex 19.4344 -17.1237 0
      vertex 19.2406 -17.7202 0
    endloop
  endfacet
  facet normal 0 0 -1
    outer loop
      vertex 19.5 -16.5 0
      vertex -19.5 -16.5 0
      vertex 19.5 16.5 0
    endloop
  endfacet
  facet normal 0 0 -1
    outer loop
      vertex 16.8136 -19.4836 0
      vertex 19.2406 -17.7202 0
      vertex 18.9271 -18.2634 0
    endloop
  endfacet
  facet normal 0 0 -1
    outer loop
      vertex 19.5 16.5 0
      vertex 16.8136 19.4836 0
      vertex 19.4344 17.1237 0
    endloop
  endfacet
  facet normal 0 0 -1
    outer loop
      vertex 16.8136 -19.4836 0
      vertex 18.9271 -18.2634 0
      vertex 18.5074 -18.7294 0
    endloop
  endfacet
  facet normal 0 0 -1
    outer loop
      vertex 19.4344 17.1237 0
      vertex 16.8136 19.4836 0
      vertex 19.2406 17.7202 0
    endloop
  endfacet
  facet normal 0 0 -1
    outer loop
      vertex 16.8136 -19.4836 0
      vertex 18.5074 -18.7294 0
      vertex 18 -19.0981 0
    endloop
  endfacet
  facet normal 0 0 -1
    outer loop
      vertex 19.2406 17.7202 0
      vertex 16.8136 19.4836 0
      vertex 18.9271 18.2634 0
    endloop
  endfacet
  facet normal 0 0 -1
    outer loop
      vertex 16.8136 -19.4836 0
      vertex 18 -19.0981 0
      vertex 17.4271 -19.3532 0
    endloop
  endfacet
  facet normal 0 0 -1
    outer loop
      vertex 18.9271 18.2634 0
      vertex 16.8136 19.4836 0
      vertex 18.5074 18.7294 0
    endloop
  endfacet
  facet normal 0 0 -1
    outer loop
      vertex 18.5074 18.7294 0
      vertex 16.8136 19.4836 0
      vertex 18 19.0981 0
    endloop
  endfacet
  facet normal 0 0 -1
    outer loop
      vertex 18 19.0981 0
      vertex 16.8136 19.4836 0
      vertex 17.4271 19.3532 0
    endloop
  endfacet
  facet normal 0 0 -1
    outer loop
      vertex -19.5 -16.5 0
      vertex 16.8136 -19.4836 0
      vertex -16.8136 -19.4836 0
    endloop
  endfacet
  facet normal 0 0 -1
    outer loop
      vertex -19.5 16.5 0
      vertex 19.5 16.5 0
      vertex -19.5 -16.5 0
    endloop
  endfacet
  facet normal 0 0 -1
    outer loop
      vertex -19.5 -16.5 0
      vertex -16.8136 -19.4836 0
      vertex -17.4271 -19.3532 0
    endloop
  endfacet
  facet normal 0 0 -1
    outer loop
      vertex 19.5 16.5 0
      vertex -19.5 16.5 0
      vertex 16.8136 19.4836 0
    endloop
  endfacet
  facet normal 0 0 -1
    outer loop
      vertex -19.5 -16.5 0
      vertex -17.4271 -19.3532 0
      vertex -18 -19.0981 0
    endloop
  endfacet
  facet normal -0 0 -1
    outer loop
      vertex 16.8136 19.4836 0
      vertex -19.5 16.5 0
      vertex -16.8136 19.4836 0
    endloop
  endfacet
  facet normal 0 0 -1
    outer loop
      vertex -19.5 -16.5 0
      vertex -18 -19.0981 0
      vertex -18.5074 -18.7294 0
    endloop
  endfacet
  facet normal 0 0 -1
    outer loop
      vertex -16.8136 19.4836 0
      vertex -19.5 16.5 0
      vertex -17.4271 19.3532 0
    endloop
  endfacet
  facet normal 0 0 -1
    outer loop
      vertex -19.5 -16.5 0
      vertex -18.5074 -18.7294 0
      vertex -18.9271 -18.2634 0
    endloop
  endfacet
  facet normal 0 0 -1
    outer loop
      vertex -17.4271 19.3532 0
      vertex -19.5 16.5 0
      vertex -18 19.0981 0
    endloop
  endfacet
  facet normal 0 0 -1
    outer loop
      vertex -19.5 -16.5 0
      vertex -18.9271 -18.2634 0
      vertex -19.2406 -17.7202 0
    endloop
  endfacet
  facet normal 0 0 -1
    outer loop
      vertex -18 19.0981 0
      vertex -19.5 16.5 0
      vertex -18.5074 18.7294 0
    endloop
  endfacet
  facet normal 0 0 -1
    outer loop
      vertex -19.5 -16.5 0
      vertex -19.2406 -17.7202 0
      vertex -19.4344 -17.1237 0
    endloop
  endfacet
  facet normal 0 0 -1
    outer loop
      vertex -18.5074 18.7294 0
      vertex -19.5 16.5 0
      vertex -18.9271 18.2634 0
    endloop
  endfacet
  facet normal 0 0 -1
    outer loop
      vertex -18.9271 18.2634 0
      vertex -19.5 16.5 0
      vertex -19.2406 17.7202 0
    endloop
  endfacet
  facet normal 0 0 -1
    outer loop
      vertex -19.2406 17.7202 0
      vertex -19.5 16.5 0
      vertex -19.4344 17.1237 0
    endloop
  endfacet
  facet normal -0.994522 0.104529 0
    outer loop
      vertex -19.5 16.5 0
      vertex -19.4344 17.1237 8.01
      vertex -19.4344 17.1237 0
    endloop
  endfacet
  facet normal -0.994522 0.104529 0
    outer loop
      vertex -19.4344 17.1237 8.01
      vertex -19.5 16.5 0
      vertex -19.5 16.5 8.01
    endloop
  endfacet
  facet normal 0 0 1
    outer loop
      vertex 16.2135 15.8817 8.01
      vertex 19.5 16.5 8.01
      vertex 19.4344 17.1237 8.01
    endloop
  endfacet
  facet normal 0 0 1
    outer loop
      vertex 19.5 16.5 8.01
      vertex 16.5 15 8.01
      vertex 19.5 -16.5 8.01
    endloop
  endfacet
  facet normal 0 0 1
    outer loop
      vertex 16.2135 15.8817 8.01
      vertex 19.4344 17.1237 8.01
      vertex 19.2406 17.7202 8.01
    endloop
  endfacet
  facet normal -0 0 1
    outer loop
      vertex 16.5 -15 8.01
      vertex 19.5 -16.5 8.01
      vertex 16.5 15 8.01
    endloop
  endfacet
  facet normal 0 0 1
    outer loop
      vertex 16.2135 15.8817 8.01
      vertex 19.2406 17.7202 8.01
      vertex 18.9271 18.2634 8.01
    endloop
  endfacet
  facet normal -0 0 1
    outer loop
      vertex 16.4672 -15.3119 8.01
      vertex 19.5 -16.5 8.01
      vertex 16.5 -15 8.01
    endloop
  endfacet
  facet normal 0 0 1
    outer loop
      vertex 16.0037 16.1147 8.01
      vertex 18.9271 18.2634 8.01
      vertex 18.5074 18.7294 8.01
    endloop
  endfacet
  facet normal -0 0 1
    outer loop
      vertex 16.3703 -15.6101 8.01
      vertex 19.5 -16.5 8.01
      vertex 16.4672 -15.3119 8.01
    endloop
  endfacet
  facet normal 0 0 1
    outer loop
      vertex 16.0037 16.1147 8.01
      vertex 18.5074 18.7294 8.01
      vertex 18 19.0981 8.01
    endloop
  endfacet
  facet normal -0 0 1
    outer loop
      vertex 16.2135 -15.8817 8.01
      vertex 19.5 -16.5 8.01
      vertex 16.3703 -15.6101 8.01
    endloop
  endfacet
  facet normal 0 0 1
    outer loop
      vertex 16.0037 16.1147 8.01
      vertex 18 19.0981 8.01
      vertex 17.4271 19.3532 8.01
    endloop
  endfacet
  facet normal 0 0 1
    outer loop
      vertex 19.5 -16.5 8.01
      vertex 16.2135 -15.8817 8.01
      vertex 19.4344 -17.1237 8.01
    endloop
  endfacet
  facet normal 0 0 1
    outer loop
      vertex 15.75 16.299 8.01
      vertex 17.4271 19.3532 8.01
      vertex 16.8136 19.4836 8.01
    endloop
  endfacet
  facet normal 0 0 1
    outer loop
      vertex 19.4344 -17.1237 8.01
      vertex 16.2135 -15.8817 8.01
      vertex 19.2406 -17.7202 8.01
    endloop
  endfacet
  facet normal 0 0 1
    outer loop
      vertex 19.2406 -17.7202 8.01
      vertex 16.2135 -15.8817 8.01
      vertex 18.9271 -18.2634 8.01
    endloop
  endfacet
  facet normal 0 0 1
    outer loop
      vertex 19.5 16.5 8.01
      vertex 16.4672 15.3119 8.01
      vertex 16.5 15 8.01
    endloop
  endfacet
  facet normal 0 0 1
    outer loop
      vertex 19.5 16.5 8.01
      vertex 16.3703 15.6101 8.01
      vertex 16.4672 15.3119 8.01
    endloop
  endfacet
  facet normal 0 0 1
    outer loop
      vertex 19.5 16.5 8.01
      vertex 16.2135 15.8817 8.01
      vertex 16.3703 15.6101 8.01
    endloop
  endfacet
  facet normal 0 0 1
    outer loop
      vertex 18.9271 18.2634 8.01
      vertex 16.0037 16.1147 8.01
      vertex 16.2135 15.8817 8.01
    endloop
  endfacet
  facet normal 0 0 1
    outer loop
      vertex 17.4271 19.3532 8.01
      vertex 15.75 16.299 8.01
      vertex 16.0037 16.1147 8.01
    endloop
  endfacet
  facet normal 0 0 1
    outer loop
      vertex 16.8136 19.4836 8.01
      vertex 15.4635 16.4266 8.01
      vertex 15.75 16.299 8.01
    endloop
  endfacet
  facet normal 0 0 1
    outer loop
      vertex 16.8136 19.4836 8.01
      vertex 15.1568 16.4918 8.01
      vertex 15.4635 16.4266 8.01
    endloop
  endfacet
  facet normal 0 0 1
    outer loop
      vertex 16.8136 19.4836 8.01
      vertex -15.1568 16.4918 8.01
      vertex 15.1568 16.4918 8.01
    endloop
  endfacet
  facet normal 0 0 1
    outer loop
      vertex -16.0037 16.1147 8.01
      vertex -18.9271 18.2634 8.01
      vertex -16.2135 15.8817 8.01
    endloop
  endfacet
  facet normal -0 0 1
    outer loop
      vertex -18.9271 18.2634 8.01
      vertex -16.0037 16.1147 8.01
      vertex -18.5074 18.7294 8.01
    endloop
  endfacet
  facet normal -0 0 1
    outer loop
      vertex -18.5074 18.7294 8.01
      vertex -16.0037 16.1147 8.01
      vertex -18 19.0981 8.01
    endloop
  endfacet
  facet normal -0 0 1
    outer loop
      vertex -18 19.0981 8.01
      vertex -16.0037 16.1147 8.01
      vertex -17.4271 19.3532 8.01
    endloop
  endfacet
  facet normal 0 0 1
    outer loop
      vertex -15.75 16.299 8.01
      vertex -17.4271 19.3532 8.01
      vertex -16.0037 16.1147 8.01
    endloop
  endfacet
  facet normal -0 0 1
    outer loop
      vertex -17.4271 19.3532 8.01
      vertex -15.75 16.299 8.01
      vertex -16.8136 19.4836 8.01
    endloop
  endfacet
  facet normal 0 0 1
    outer loop
      vertex -15.4635 16.4266 8.01
      vertex -16.8136 19.4836 8.01
      vertex -15.75 16.299 8.01
    endloop
  endfacet
  facet normal 0 0 1
    outer loop
      vertex -15.1568 16.4918 8.01
      vertex -16.8136 19.4836 8.01
      vertex -15.4635 16.4266 8.01
    endloop
  endfacet
  facet normal -0 0 1
    outer loop
      vertex -16.8136 19.4836 8.01
      vertex -15.1568 16.4918 8.01
      vertex 16.8136 19.4836 8.01
    endloop
  endfacet
  facet normal -0 0 1
    outer loop
      vertex 16.0037 -16.1147 8.01
      vertex 18.9271 -18.2634 8.01
      vertex 16.2135 -15.8817 8.01
    endloop
  endfacet
  facet normal 0 0 1
    outer loop
      vertex 18.9271 -18.2634 8.01
      vertex 16.0037 -16.1147 8.01
      vertex 18.5074 -18.7294 8.01
    endloop
  endfacet
  facet normal 0 0 1
    outer loop
      vertex 18.5074 -18.7294 8.01
      vertex 16.0037 -16.1147 8.01
      vertex 18 -19.0981 8.01
    endloop
  endfacet
  facet normal 0 0 1
    outer loop
      vertex 18 -19.0981 8.01
      vertex 16.0037 -16.1147 8.01
      vertex 17.4271 -19.3532 8.01
    endloop
  endfacet
  facet normal -0 0 1
    outer loop
      vertex 15.75 -16.299 8.01
      vertex 17.4271 -19.3532 8.01
      vertex 16.0037 -16.1147 8.01
    endloop
  endfacet
  facet normal 0 0 1
    outer loop
      vertex 17.4271 -19.3532 8.01
      vertex 15.75 -16.299 8.01
      vertex 16.8136 -19.4836 8.01
    endloop
  endfacet
  facet normal -0 0 1
    outer loop
      vertex 15.4635 -16.4266 8.01
      vertex 16.8136 -19.4836 8.01
      vertex 15.75 -16.299 8.01
    endloop
  endfacet
  facet normal -0 0 1
    outer loop
      vertex 15.1568 -16.4918 8.01
      vertex 16.8136 -19.4836 8.01
      vertex 15.4635 -16.4266 8.01
    endloop
  endfacet
  facet normal -0 0 1
    outer loop
      vertex -15.1568 -16.4918 8.01
      vertex 16.8136 -19.4836 8.01
      vertex 15.1568 -16.4918 8.01
    endloop
  endfacet
  facet normal 0 0 1
    outer loop
      vertex -15.1568 -16.4918 8.01
      vertex -16.8136 -19.4836 8.01
      vertex 16.8136 -19.4836 8.01
    endloop
  endfacet
  facet normal 0 0 1
    outer loop
      vertex -15.4635 -16.4266 8.01
      vertex -16.8136 -19.4836 8.01
      vertex -15.1568 -16.4918 8.01
    endloop
  endfacet
  facet normal 0 0 1
    outer loop
      vertex -15.75 -16.299 8.01
      vertex -16.8136 -19.4836 8.01
      vertex -15.4635 -16.4266 8.01
    endloop
  endfacet
  facet normal 0 0 1
    outer loop
      vertex -17.4271 -19.3532 8.01
      vertex -15.75 -16.299 8.01
      vertex -16.0037 -16.1147 8.01
    endloop
  endfacet
  facet normal 0 0 1
    outer loop
      vertex -18.9271 -18.2634 8.01
      vertex -16.0037 -16.1147 8.01
      vertex -16.2135 -15.8817 8.01
    endloop
  endfacet
  facet normal 0 0 1
    outer loop
      vertex -19.5 -16.5 8.01
      vertex -16.2135 -15.8817 8.01
      vertex -16.3703 -15.6101 8.01
    endloop
  endfacet
  facet normal 0 0 1
    outer loop
      vertex -19.5 -16.5 8.01
      vertex -16.3703 -15.6101 8.01
      vertex -16.4672 -15.3119 8.01
    endloop
  endfacet
  facet normal 0 0 1
    outer loop
      vertex -19.5 -16.5 8.01
      vertex -16.4672 -15.3119 8.01
      vertex -16.5 -15 8.01
    endloop
  endfacet
  facet normal 0 0 1
    outer loop
      vertex -16.5 15 8.01
      vertex -19.5 16.5 8.01
      vertex -16.5 -15 8.01
    endloop
  endfacet
  facet normal -0 0 1
    outer loop
      vertex -19.2406 17.7202 8.01
      vertex -16.2135 15.8817 8.01
      vertex -18.9271 18.2634 8.01
    endloop
  endfacet
  facet normal 0 0 1
    outer loop
      vertex -19.5 -16.5 8.01
      vertex -16.5 -15 8.01
      vertex -19.5 16.5 8.01
    endloop
  endfacet
  facet normal -0 0 1
    outer loop
      vertex -19.4344 17.1237 8.01
      vertex -16.2135 15.8817 8.01
      vertex -19.2406 17.7202 8.01
    endloop
  endfacet
  facet normal 0 0 1
    outer loop
      vertex -16.2135 -15.8817 8.01
      vertex -19.5 -16.5 8.01
      vertex -19.4344 -17.1237 8.01
    endloop
  endfacet
  facet normal -0 0 1
    outer loop
      vertex -19.5 16.5 8.01
      vertex -16.2135 15.8817 8.01
      vertex -19.4344 17.1237 8.01
    endloop
  endfacet
  facet normal 0 0 1
    outer loop
      vertex -15.75 -16.299 8.01
      vertex -17.4271 -19.3532 8.01
      vertex -16.8136 -19.4836 8.01
    endloop
  endfacet
  facet normal 0 0 1
    outer loop
      vertex -16.2135 15.8817 8.01
      vertex -19.5 16.5 8.01
      vertex -16.3703 15.6101 8.01
    endloop
  endfacet
  facet normal 0 0 1
    outer loop
      vertex -16.0037 -16.1147 8.01
      vertex -18 -19.0981 8.01
      vertex -17.4271 -19.3532 8.01
    endloop
  endfacet
  facet normal 0 0 1
    outer loop
      vertex -16.3703 15.6101 8.01
      vertex -19.5 16.5 8.01
      vertex -16.4672 15.3119 8.01
    endloop
  endfacet
  facet normal 0 0 1
    outer loop
      vertex -16.0037 -16.1147 8.01
      vertex -18.5074 -18.7294 8.01
      vertex -18 -19.0981 8.01
    endloop
  endfacet
  facet normal 0 0 1
    outer loop
      vertex -16.4672 15.3119 8.01
      vertex -19.5 16.5 8.01
      vertex -16.5 15 8.01
    endloop
  endfacet
  facet normal 0 0 1
    outer loop
      vertex -16.0037 -16.1147 8.01
      vertex -18.9271 -18.2634 8.01
      vertex -18.5074 -18.7294 8.01
    endloop
  endfacet
  facet normal 0 0 1
    outer loop
      vertex -16.2135 -15.8817 8.01
      vertex -19.2406 -17.7202 8.01
      vertex -18.9271 -18.2634 8.01
    endloop
  endfacet
  facet normal 0 0 1
    outer loop
      vertex -16.2135 -15.8817 8.01
      vertex -19.4344 -17.1237 8.01
      vertex -19.2406 -17.7202 8.01
    endloop
  endfacet
  facet normal 0.406736 -0.913546 0
    outer loop
      vertex 17.4271 -19.3532 0
      vertex 18 -19.0981 8.01
      vertex 17.4271 -19.3532 8.01
    endloop
  endfacet
  facet normal 0.406736 -0.913546 0
    outer loop
      vertex 18 -19.0981 8.01
      vertex 17.4271 -19.3532 0
      vertex 18 -19.0981 0
    endloop
  endfacet
  facet normal 0.207914 -0.978147 0
    outer loop
      vertex 16.8136 -19.4836 0
      vertex 17.4271 -19.3532 8.01
      vertex 16.8136 -19.4836 8.01
    endloop
  endfacet
  facet normal 0.207914 -0.978147 0
    outer loop
      vertex 17.4271 -19.3532 8.01
      vertex 16.8136 -19.4836 0
      vertex 17.4271 -19.3532 0
    endloop
  endfacet
  facet normal -0.406736 0.913546 0
    outer loop
      vertex -17.4271 19.3532 0
      vertex -18 19.0981 8.01
      vertex -17.4271 19.3532 8.01
    endloop
  endfacet
  facet normal -0.406736 0.913546 0
    outer loop
      vertex -18 19.0981 8.01
      vertex -17.4271 19.3532 0
      vertex -18 19.0981 0
    endloop
  endfacet
  facet normal -0.207914 0.978147 0
    outer loop
      vertex -16.8136 19.4836 0
      vertex -17.4271 19.3532 8.01
      vertex -16.8136 19.4836 8.01
    endloop
  endfacet
  facet normal -0.207914 0.978147 0
    outer loop
      vertex -17.4271 19.3532 8.01
      vertex -16.8136 19.4836 0
      vertex -17.4271 19.3532 0
    endloop
  endfacet
  facet normal -0.587785 0.809017 0
    outer loop
      vertex -18 19.0981 0
      vertex -18.5074 18.7294 8.01
      vertex -18 19.0981 8.01
    endloop
  endfacet
  facet normal -0.587785 0.809017 0
    outer loop
      vertex -18.5074 18.7294 8.01
      vertex -18 19.0981 0
      vertex -18.5074 18.7294 0
    endloop
  endfacet
  facet normal -0.587785 -0.809017 0
    outer loop
      vertex -18.5074 -18.7294 0
      vertex -18 -19.0981 8.01
      vertex -18.5074 -18.7294 8.01
    endloop
  endfacet
  facet normal -0.587785 -0.809017 -0
    outer loop
      vertex -18 -19.0981 8.01
      vertex -18.5074 -18.7294 0
      vertex -18 -19.0981 0
    endloop
  endfacet
  facet normal -0.743144 -0.669131 0
    outer loop
      vertex -18.5074 -18.7294 0
      vertex -18.9271 -18.2634 8.01
      vertex -18.9271 -18.2634 0
    endloop
  endfacet
  facet normal -0.743144 -0.669131 0
    outer loop
      vertex -18.9271 -18.2634 8.01
      vertex -18.5074 -18.7294 0
      vertex -18.5074 -18.7294 8.01
    endloop
  endfacet
  facet normal -0.951056 0.309018 0
    outer loop
      vertex -19.4344 17.1237 0
      vertex -19.2406 17.7202 8.01
      vertex -19.2406 17.7202 0
    endloop
  endfacet
  facet normal -0.951056 0.309018 0
    outer loop
      vertex -19.2406 17.7202 8.01
      vertex -19.4344 17.1237 0
      vertex -19.4344 17.1237 8.01
    endloop
  endfacet
  facet normal -0.951056 -0.309018 0
    outer loop
      vertex -19.2406 -17.7202 0
      vertex -19.4344 -17.1237 8.01
      vertex -19.4344 -17.1237 0
    endloop
  endfacet
  facet normal -0.951056 -0.309018 0
    outer loop
      vertex -19.4344 -17.1237 8.01
      vertex -19.2406 -17.7202 0
      vertex -19.2406 -17.7202 8.01
    endloop
  endfacet
  facet normal -0.866027 -0.499997 0
    outer loop
      vertex -18.9271 -18.2634 0
      vertex -19.2406 -17.7202 8.01
      vertex -19.2406 -17.7202 0
    endloop
  endfacet
  facet normal -0.866027 -0.499997 0
    outer loop
      vertex -19.2406 -17.7202 8.01
      vertex -18.9271 -18.2634 0
      vertex -18.9271 -18.2634 8.01
    endloop
  endfacet
  facet normal -0.994522 -0.104532 0
    outer loop
      vertex 16.5 15 4.95
      vertex 16.4672 15.3119 8.01
      vertex 16.4672 15.3119 4.95
    endloop
  endfacet
  facet normal -0.994522 -0.104532 0
    outer loop
      vertex 16.4672 15.3119 8.01
      vertex 16.5 15 4.95
      vertex 16.5 15 8.01
    endloop
  endfacet
  facet normal 0 1 -0
    outer loop
      vertex 15.1568 -16.4918 4.95
      vertex -15.1568 -16.4918 8.01
      vertex 15.1568 -16.4918 8.01
    endloop
  endfacet
  facet normal 0 1 0
    outer loop
      vertex -15.1568 -16.4918 8.01
      vertex 15.1568 -16.4918 4.95
      vertex -15.1568 -16.4918 4.95
    endloop
  endfacet
  facet normal -0.207915 -0.978147 0
    outer loop
      vertex 15.1568 16.4918 4.95
      vertex 15.4635 16.4266 8.01
      vertex 15.1568 16.4918 8.01
    endloop
  endfacet
  facet normal -0.207915 -0.978147 -0
    outer loop
      vertex 15.4635 16.4266 8.01
      vertex 15.1568 16.4918 4.95
      vertex 15.4635 16.4266 4.95
    endloop
  endfacet
  facet normal -1 0 0
    outer loop
      vertex 16.5 -15 4.95
      vertex 16.5 15 8.01
      vertex 16.5 15 4.95
    endloop
  endfacet
  facet normal -1 -0 0
    outer loop
      vertex 16.5 15 8.01
      vertex 16.5 -15 4.95
      vertex 16.5 -15 8.01
    endloop
  endfacet
  facet normal 0 -1 0
    outer loop
      vertex -15.1568 16.4918 4.95
      vertex 15.1568 16.4918 8.01
      vertex -15.1568 16.4918 8.01
    endloop
  endfacet
  facet normal 0 -1 -0
    outer loop
      vertex 15.1568 16.4918 8.01
      vertex -15.1568 16.4918 4.95
      vertex 15.1568 16.4918 4.95
    endloop
  endfacet
  facet normal -0.743146 -0.669129 0
    outer loop
      vertex 16.2135 15.8817 4.95
      vertex 16.0037 16.1147 8.01
      vertex 16.0037 16.1147 4.95
    endloop
  endfacet
  facet normal -0.743146 -0.669129 0
    outer loop
      vertex 16.0037 16.1147 8.01
      vertex 16.2135 15.8817 4.95
      vertex 16.2135 15.8817 8.01
    endloop
  endfacet
  facet normal -0.587788 0.809015 0
    outer loop
      vertex 16.0037 -16.1147 4.95
      vertex 15.75 -16.299 8.01
      vertex 16.0037 -16.1147 8.01
    endloop
  endfacet
  facet normal -0.587788 0.809015 0
    outer loop
      vertex 15.75 -16.299 8.01
      vertex 16.0037 -16.1147 4.95
      vertex 15.75 -16.299 4.95
    endloop
  endfacet
  facet normal 0.994522 0.104532 0
    outer loop
      vertex -16.4672 -15.3119 8.01
      vertex -16.5 -15 4.95
      vertex -16.5 -15 8.01
    endloop
  endfacet
  facet normal 0.994522 0.104532 0
    outer loop
      vertex -16.5 -15 4.95
      vertex -16.4672 -15.3119 8.01
      vertex -16.4672 -15.3119 4.95
    endloop
  endfacet
  facet normal 0.207915 0.978147 -0
    outer loop
      vertex -15.1568 -16.4918 4.95
      vertex -15.4635 -16.4266 8.01
      vertex -15.1568 -16.4918 8.01
    endloop
  endfacet
  facet normal 0.207915 0.978147 0
    outer loop
      vertex -15.4635 -16.4266 8.01
      vertex -15.1568 -16.4918 4.95
      vertex -15.4635 -16.4266 4.95
    endloop
  endfacet
  facet normal 1 -0 0
    outer loop
      vertex -16.5 -15 8.01
      vertex -16.5 15 4.95
      vertex -16.5 15 8.01
    endloop
  endfacet
  facet normal 1 0 0
    outer loop
      vertex -16.5 15 4.95
      vertex -16.5 -15 8.01
      vertex -16.5 -15 4.95
    endloop
  endfacet
  facet normal 0.587786 -0.809016 0
    outer loop
      vertex -16.0037 16.1147 4.95
      vertex -15.75 16.299 8.01
      vertex -16.0037 16.1147 8.01
    endloop
  endfacet
  facet normal 0.587786 -0.809016 0
    outer loop
      vertex -15.75 16.299 8.01
      vertex -16.0037 16.1147 4.95
      vertex -15.75 16.299 4.95
    endloop
  endfacet
  facet normal -0.406735 -0.913546 0
    outer loop
      vertex 15.4635 16.4266 4.95
      vertex 15.75 16.299 8.01
      vertex 15.4635 16.4266 8.01
    endloop
  endfacet
  facet normal -0.406735 -0.913546 -0
    outer loop
      vertex 15.75 16.299 8.01
      vertex 15.4635 16.4266 4.95
      vertex 15.75 16.299 4.95
    endloop
  endfacet
  facet normal -0.587788 -0.809015 0
    outer loop
      vertex 15.75 16.299 4.95
      vertex 16.0037 16.1147 8.01
      vertex 15.75 16.299 8.01
    endloop
  endfacet
  facet normal -0.587788 -0.809015 -0
    outer loop
      vertex 16.0037 16.1147 8.01
      vertex 15.75 16.299 4.95
      vertex 16.0037 16.1147 4.95
    endloop
  endfacet
  facet normal -0.866024 -0.500002 0
    outer loop
      vertex 16.3703 15.6101 4.95
      vertex 16.2135 15.8817 8.01
      vertex 16.2135 15.8817 4.95
    endloop
  endfacet
  facet normal -0.866024 -0.500002 0
    outer loop
      vertex 16.2135 15.8817 8.01
      vertex 16.3703 15.6101 4.95
      vertex 16.3703 15.6101 8.01
    endloop
  endfacet
  facet normal -0.951057 -0.309016 0
    outer loop
      vertex 16.4672 15.3119 4.95
      vertex 16.3703 15.6101 8.01
      vertex 16.3703 15.6101 4.95
    endloop
  endfacet
  facet normal -0.951057 -0.309016 0
    outer loop
      vertex 16.3703 15.6101 8.01
      vertex 16.4672 15.3119 4.95
      vertex 16.4672 15.3119 8.01
    endloop
  endfacet
  facet normal -0.951057 0.309016 0
    outer loop
      vertex 16.3703 -15.6101 4.95
      vertex 16.4672 -15.3119 8.01
      vertex 16.4672 -15.3119 4.95
    endloop
  endfacet
  facet normal -0.951057 0.309016 0
    outer loop
      vertex 16.4672 -15.3119 8.01
      vertex 16.3703 -15.6101 4.95
      vertex 16.3703 -15.6101 8.01
    endloop
  endfacet
  facet normal 0.406735 0.913546 -0
    outer loop
      vertex -15.4635 -16.4266 4.95
      vertex -15.75 -16.299 8.01
      vertex -15.4635 -16.4266 8.01
    endloop
  endfacet
  facet normal 0.406735 0.913546 0
    outer loop
      vertex -15.75 -16.299 8.01
      vertex -15.4635 -16.4266 4.95
      vertex -15.75 -16.299 4.95
    endloop
  endfacet
  facet normal 0.994522 -0.104532 0
    outer loop
      vertex -16.5 15 8.01
      vertex -16.4672 15.3119 4.95
      vertex -16.4672 15.3119 8.01
    endloop
  endfacet
  facet normal 0.994522 -0.104532 0
    outer loop
      vertex -16.4672 15.3119 4.95
      vertex -16.5 15 8.01
      vertex -16.5 15 4.95
    endloop
  endfacet
  facet normal 0.207915 -0.978147 0
    outer loop
      vertex -15.4635 16.4266 4.95
      vertex -15.1568 16.4918 8.01
      vertex -15.4635 16.4266 8.01
    endloop
  endfacet
  facet normal 0.207915 -0.978147 0
    outer loop
      vertex -15.1568 16.4918 8.01
      vertex -15.4635 16.4266 4.95
      vertex -15.1568 16.4918 4.95
    endloop
  endfacet
  facet normal 0.406736 -0.913546 0
    outer loop
      vertex -15.75 16.299 4.95
      vertex -15.4635 16.4266 8.01
      vertex -15.75 16.299 8.01
    endloop
  endfacet
  facet normal 0.406736 -0.913546 0
    outer loop
      vertex -15.4635 16.4266 8.01
      vertex -15.75 16.299 4.95
      vertex -15.4635 16.4266 4.95
    endloop
  endfacet
  facet normal -0.994522 0.104532 0
    outer loop
      vertex 16.4672 -15.3119 4.95
      vertex 16.5 -15 8.01
      vertex 16.5 -15 4.95
    endloop
  endfacet
  facet normal -0.994522 0.104532 0
    outer loop
      vertex 16.5 -15 8.01
      vertex 16.4672 -15.3119 4.95
      vertex 16.4672 -15.3119 8.01
    endloop
  endfacet
  facet normal -0.406735 0.913546 0
    outer loop
      vertex 15.75 -16.299 4.95
      vertex 15.4635 -16.4266 8.01
      vertex 15.75 -16.299 8.01
    endloop
  endfacet
  facet normal -0.406735 0.913546 0
    outer loop
      vertex 15.4635 -16.4266 8.01
      vertex 15.75 -16.299 4.95
      vertex 15.4635 -16.4266 4.95
    endloop
  endfacet
  facet normal -0.207915 0.978147 0
    outer loop
      vertex 15.4635 -16.4266 4.95
      vertex 15.1568 -16.4918 8.01
      vertex 15.4635 -16.4266 8.01
    endloop
  endfacet
  facet normal -0.207915 0.978147 0
    outer loop
      vertex 15.1568 -16.4918 8.01
      vertex 15.4635 -16.4266 4.95
      vertex 15.1568 -16.4918 4.95
    endloop
  endfacet
  facet normal 0.743146 0.669129 0
    outer loop
      vertex -16.0037 -16.1147 8.01
      vertex -16.2135 -15.8817 4.95
      vertex -16.2135 -15.8817 8.01
    endloop
  endfacet
  facet normal 0.743146 0.669129 0
    outer loop
      vertex -16.2135 -15.8817 4.95
      vertex -16.0037 -16.1147 8.01
      vertex -16.0037 -16.1147 4.95
    endloop
  endfacet
  facet normal 0.951057 -0.309016 0
    outer loop
      vertex -16.4672 15.3119 8.01
      vertex -16.3703 15.6101 4.95
      vertex -16.3703 15.6101 8.01
    endloop
  endfacet
  facet normal 0.951057 -0.309016 0
    outer loop
      vertex -16.3703 15.6101 4.95
      vertex -16.4672 15.3119 8.01
      vertex -16.4672 15.3119 4.95
    endloop
  endfacet
  facet normal 0.866024 -0.500002 0
    outer loop
      vertex -16.3703 15.6101 8.01
      vertex -16.2135 15.8817 4.95
      vertex -16.2135 15.8817 8.01
    endloop
  endfacet
  facet normal 0.866024 -0.500002 0
    outer loop
      vertex -16.2135 15.8817 4.95
      vertex -16.3703 15.6101 8.01
      vertex -16.3703 15.6101 4.95
    endloop
  endfacet
  facet normal 0.743146 -0.669129 0
    outer loop
      vertex -16.2135 15.8817 8.01
      vertex -16.0037 16.1147 4.95
      vertex -16.0037 16.1147 8.01
    endloop
  endfacet
  facet normal 0.743146 -0.669129 0
    outer loop
      vertex -16.0037 16.1147 4.95
      vertex -16.2135 15.8817 8.01
      vertex -16.2135 15.8817 4.95
    endloop
  endfacet
  facet normal -0.866024 0.500002 0
    outer loop
      vertex 16.2135 -15.8817 4.95
      vertex 16.3703 -15.6101 8.01
      vertex 16.3703 -15.6101 4.95
    endloop
  endfacet
  facet normal -0.866024 0.500002 0
    outer loop
      vertex 16.3703 -15.6101 8.01
      vertex 16.2135 -15.8817 4.95
      vertex 16.2135 -15.8817 8.01
    endloop
  endfacet
  facet normal -0.743146 0.669129 0
    outer loop
      vertex 16.0037 -16.1147 4.95
      vertex 16.2135 -15.8817 8.01
      vertex 16.2135 -15.8817 4.95
    endloop
  endfacet
  facet normal -0.743146 0.669129 0
    outer loop
      vertex 16.2135 -15.8817 8.01
      vertex 16.0037 -16.1147 4.95
      vertex 16.0037 -16.1147 8.01
    endloop
  endfacet
  facet normal 0.951057 0.309016 0
    outer loop
      vertex -16.3703 -15.6101 8.01
      vertex -16.4672 -15.3119 4.95
      vertex -16.4672 -15.3119 8.01
    endloop
  endfacet
  facet normal 0.951057 0.309016 0
    outer loop
      vertex -16.4672 -15.3119 4.95
      vertex -16.3703 -15.6101 8.01
      vertex -16.3703 -15.6101 4.95
    endloop
  endfacet
  facet normal 0.866024 0.500002 0
    outer loop
      vertex -16.2135 -15.8817 8.01
      vertex -16.3703 -15.6101 4.95
      vertex -16.3703 -15.6101 8.01
    endloop
  endfacet
  facet normal 0.866024 0.500002 0
    outer loop
      vertex -16.3703 -15.6101 4.95
      vertex -16.2135 -15.8817 8.01
      vertex -16.2135 -15.8817 4.95
    endloop
  endfacet
  facet normal 0.587788 0.809015 -0
    outer loop
      vertex -15.75 -16.299 4.95
      vertex -16.0037 -16.1147 8.01
      vertex -15.75 -16.299 8.01
    endloop
  endfacet
  facet normal 0.587788 0.809015 0
    outer loop
      vertex -16.0037 -16.1147 8.01
      vertex -15.75 -16.299 4.95
      vertex -16.0037 -16.1147 4.95
    endloop
  endfacet
  facet normal 0.288396 -0.647746 0.705162
    outer loop
      vertex 2.39014 9.0385 3
      vertex 1.78755 10.8931 4.95
      vertex 1.41514 10.7272 4.95
    endloop
  endfacet
  facet normal -0.705162 -0.0741163 0.705162
    outer loop
      vertex 6.78513 9.1875 4.95
      vertex 6.74252 9.59293 4.95
      vertex 4.83513 9.1875 3
    endloop
  endfacet
  facet normal -0.0175653 -0.708018 0.705976
    outer loop
      vertex 4.09685 9.30969 3
      vertex 4.06696 11.2548 4.95
      vertex 3.86313 9.31549 3
    endloop
  endfacet
  facet normal -0.0175653 -0.708018 0.705976
    outer loop
      vertex 4.06696 11.2548 4.95
      vertex 4.09685 9.30969 3
      vertex 4.30068 11.249 4.95
    endloop
  endfacet
  facet normal 0.705108 -0.0744587 0.70518
    outer loop
      vertex -0.628258 -1.07707 4.95
      vertex 2.39014 9.0385 3
      vertex 0.482749 9.44392 4.95
    endloop
  endfacet
  facet normal 0.705108 -0.0744587 0.70518
    outer loop
      vertex 2.39014 9.0385 3
      vertex -0.628258 -1.07707 4.95
      vertex 1.27913 -1.4825 3
    endloop
  endfacet
  facet normal -0.704761 0.0766354 0.705294
    outer loop
      vertex 3.67488 -1.4825 3
      vertex 6.74252 8.78207 4.95
      vertex 4.83513 9.1875 3
    endloop
  endfacet
  facet normal -0.704761 0.0766354 0.705294
    outer loop
      vertex 6.74252 8.78207 4.95
      vertex 3.67488 -1.4825 3
      vertex 5.58226 -1.88793 4.95
    endloop
  endfacet
  facet normal -0.705162 0.0741163 0.705162
    outer loop
      vertex 6.74252 8.78207 4.95
      vertex 6.78513 9.1875 4.95
      vertex 4.83513 9.1875 3
    endloop
  endfacet
  facet normal 0.0301893 -0.707144 0.706425
    outer loop
      vertex 3.48856 9.2995 3
      vertex 3.6593 11.2548 4.95
      vertex 3.28473 11.2388 4.95
    endloop
  endfacet
  facet normal 0.0301893 -0.707144 0.706425
    outer loop
      vertex 3.6593 11.2548 4.95
      vertex 3.48856 9.2995 3
      vertex 3.86313 9.31549 3
    endloop
  endfacet
  facet normal 0.674343 -0.219108 0.705162
    outer loop
      vertex 2.39014 9.0385 3
      vertex 0.608724 9.83163 4.95
      vertex 0.482749 9.44392 4.95
    endloop
  endfacet
  facet normal 0 0 1
    outer loop
      vertex 4.33862 9.28937 3
      vertex 4.83513 9.1875 3
      vertex 4.58566 9.25011 3
    endloop
  endfacet
  facet normal 0 0 1
    outer loop
      vertex 4.09685 9.30969 3
      vertex 4.83513 9.1875 3
      vertex 4.33862 9.28937 3
    endloop
  endfacet
  facet normal 0 0 1
    outer loop
      vertex 3.86313 9.31549 3
      vertex 4.83513 9.1875 3
      vertex 4.09685 9.30969 3
    endloop
  endfacet
  facet normal 0 0 1
    outer loop
      vertex 2.39014 9.0385 3
      vertex 4.83513 9.1875 3
      vertex 3.86313 9.31549 3
    endloop
  endfacet
  facet normal 0 0 1
    outer loop
      vertex 4.83513 9.1875 3
      vertex 2.39014 9.0385 3
      vertex 3.67488 -1.4825 3
    endloop
  endfacet
  facet normal 0 0 1
    outer loop
      vertex 2.39014 9.0385 3
      vertex 3.86313 9.31549 3
      vertex 3.48856 9.2995 3
    endloop
  endfacet
  facet normal 0 0 1
    outer loop
      vertex 2.39014 9.0385 3
      vertex 3.48856 9.2995 3
      vertex 3.1165 9.24974 3
    endloop
  endfacet
  facet normal 0 0 1
    outer loop
      vertex 1.27913 -1.4825 3
      vertex 3.67488 -1.4825 3
      vertex 2.39014 9.0385 3
    endloop
  endfacet
  facet normal 0 0 1
    outer loop
      vertex 2.39014 9.0385 3
      vertex 3.1165 9.24974 3
      vertex 2.74953 9.16362 3
    endloop
  endfacet
  facet normal 0 0 1
    outer loop
      vertex 3.66814 -1.54449 3
      vertex 1.27913 -1.4825 3
      vertex 2.95399 -4.15276 3
    endloop
  endfacet
  facet normal 0 0 1
    outer loop
      vertex 3.67488 -1.4825 3
      vertex 1.27913 -1.4825 3
      vertex 3.66814 -1.54449 3
    endloop
  endfacet
  facet normal 0 0 1
    outer loop
      vertex 0.769928 -4.15276 3
      vertex 2.95399 -4.15276 3
      vertex 1.27913 -1.4825 3
    endloop
  endfacet
  facet normal 0 0 1
    outer loop
      vertex 2.95399 -4.15276 3
      vertex 0.769928 -4.15276 3
      vertex 2.63126 -5.33145 3
    endloop
  endfacet
  facet normal 0 0 1
    outer loop
      vertex 2.63126 -5.33145 3
      vertex 0.769928 -4.15276 3
      vertex 2.00349 -6.20886 3
    endloop
  endfacet
  facet normal 0 0 1
    outer loop
      vertex -0.0884857 -6.20886 3
      vertex 2.00349 -6.20886 3
      vertex 0.769928 -4.15276 3
    endloop
  endfacet
  facet normal 0 0 1
    outer loop
      vertex 2.00349 -6.20886 3
      vertex -0.0884857 -6.20886 3
      vertex 1.01655 -7.58829 3
    endloop
  endfacet
  facet normal 0 0 1
    outer loop
      vertex 1.01655 -7.58829 3
      vertex -0.0884857 -6.20886 3
      vertex 0.810623 -7.87611 3
    endloop
  endfacet
  facet normal 0 0 1
    outer loop
      vertex 0.810623 -7.87611 3
      vertex -0.0884857 -6.20886 3
      vertex 0.292083 -8.22849 3
    endloop
  endfacet
  facet normal -0 0 1
    outer loop
      vertex -1.22833 -7.58829 3
      vertex 0.292083 -8.22849 3
      vertex -0.0884857 -6.20886 3
    endloop
  endfacet
  facet normal 0 0 1
    outer loop
      vertex -1.22833 -7.58829 3
      vertex -1.29648 -9.30798 3
      vertex 0.292083 -8.22849 3
    endloop
  endfacet
  facet normal -0 0 1
    outer loop
      vertex -2.58185 -8.22849 3
      vertex -1.29648 -9.30798 3
      vertex -1.22833 -7.58829 3
    endloop
  endfacet
  facet normal 0 0 1
    outer loop
      vertex -2.58185 -8.22849 3
      vertex -3.19286 -9.75648 3
      vertex -1.29648 -9.30798 3
    endloop
  endfacet
  facet normal 0 0 1
    outer loop
      vertex -3.93243 -7.81877 3
      vertex -3.19286 -9.75648 3
      vertex -2.58185 -8.22849 3
    endloop
  endfacet
  facet normal 0 0 1
    outer loop
      vertex -3.93243 -7.81877 3
      vertex -4.61469 -9.4995 3
      vertex -3.19286 -9.75648 3
    endloop
  endfacet
  facet normal 0 0 1
    outer loop
      vertex -6.17198 -8.63875 3
      vertex -3.93243 -7.81877 3
      vertex -4.84547 -6.96974 3
    endloop
  endfacet
  facet normal 0 0 1
    outer loop
      vertex -6.81562 -7.81877 3
      vertex -4.84547 -6.96974 3
      vertex -5.36272 -5.68909 3
    endloop
  endfacet
  facet normal 0 0 1
    outer loop
      vertex -3.93243 -7.81877 3
      vertex -6.17198 -8.63875 3
      vertex -4.61469 -9.4995 3
    endloop
  endfacet
  facet normal -0 0 1
    outer loop
      vertex -6.18491 -4.01315 3
      vertex -5.36272 -5.68909 3
      vertex -5.52585 -3.9845 3
    endloop
  endfacet
  facet normal -0 0 1
    outer loop
      vertex -6.79698 -4.1095 3
      vertex -5.36272 -5.68909 3
      vertex -6.18491 -4.01315 3
    endloop
  endfacet
  facet normal 0 0 1
    outer loop
      vertex -4.84547 -6.96974 3
      vertex -6.49401 -8.22849 3
      vertex -6.17198 -8.63875 3
    endloop
  endfacet
  facet normal 0 0 1
    outer loop
      vertex -5.36272 -5.68909 3
      vertex -6.79698 -4.1095 3
      vertex -7.70891 -5.68909 3
    endloop
  endfacet
  facet normal 0 0 1
    outer loop
      vertex -4.84547 -6.96974 3
      vertex -6.81562 -7.81877 3
      vertex -6.49401 -8.22849 3
    endloop
  endfacet
  facet normal 0 0 1
    outer loop
      vertex -7.70891 -5.68909 3
      vertex -6.79698 -4.1095 3
      vertex -7.37775 -4.28909 3
    endloop
  endfacet
  facet normal 0 0 1
    outer loop
      vertex -5.36272 -5.68909 3
      vertex -7.70891 -5.68909 3
      vertex -7.44179 -6.96974 3
    endloop
  endfacet
  facet normal 0 0 1
    outer loop
      vertex -6.81562 -7.81877 3
      vertex -7.44179 -6.96974 3
      vertex -7.42722 -7.03961 3
    endloop
  endfacet
  facet normal 0 0 1
    outer loop
      vertex -5.36272 -5.68909 3
      vertex -7.44179 -6.96974 3
      vertex -6.81562 -7.81877 3
    endloop
  endfacet
  facet normal 0 -0 1
    outer loop
      vertex -7.70891 -5.68909 3
      vertex -7.37775 -4.28909 3
      vertex -7.94286 -4.56749 3
    endloop
  endfacet
  facet normal 0.232518 -0.667866 0.70703
    outer loop
      vertex 1.78755 10.8931 4.95
      vertex 2.74953 9.16362 3
      vertex 2.14694 11.0182 4.95
    endloop
  endfacet
  facet normal 0.232518 -0.667865 0.70703
    outer loop
      vertex 2.74953 9.16362 3
      vertex 1.78755 10.8931 4.95
      vertex 2.39014 9.0385 3
    endloop
  endfacet
  facet normal -0.526924 -0.474445 0.705162
    outer loop
      vertex 6.41271 10.3337 4.95
      vertex 6.13993 10.6366 4.95
      vertex 4.83513 9.1875 3
    endloop
  endfacet
  facet normal 0.161836 -0.689609 0.705867
    outer loop
      vertex 2.51392 11.1043 4.95
      vertex 2.74953 9.16362 3
      vertex 3.1165 9.24974 3
    endloop
  endfacet
  facet normal 0.161836 -0.689609 0.705867
    outer loop
      vertex 2.74953 9.16362 3
      vertex 2.51392 11.1043 4.95
      vertex 2.14694 11.0182 4.95
    endloop
  endfacet
  facet normal 0.526924 -0.474445 0.705162
    outer loop
      vertex 2.39014 9.0385 3
      vertex 1.08533 10.4876 4.95
      vertex 0.812554 10.1847 4.95
    endloop
  endfacet
  facet normal -0.288396 -0.647746 0.705162
    outer loop
      vertex 5.81013 10.8762 4.95
      vertex 5.43771 11.0421 4.95
      vertex 4.83513 9.1875 3
    endloop
  endfacet
  facet normal 0.0937531 -0.701006 0.706966
    outer loop
      vertex 2.91267 11.1891 4.95
      vertex 3.48856 9.2995 3
      vertex 3.28473 11.2388 4.95
    endloop
  endfacet
  facet normal 0.0937531 -0.701006 0.706966
    outer loop
      vertex 3.48856 9.2995 3
      vertex 2.91267 11.1891 4.95
      vertex 3.1165 9.24974 3
    endloop
  endfacet
  facet normal -0.614053 -0.354522 0.705162
    outer loop
      vertex 6.61654 9.98064 4.95
      vertex 6.41271 10.3337 4.95
      vertex 4.83513 9.1875 3
    endloop
  endfacet
  facet normal 0 -0.709046 0.705162
    outer loop
      vertex 3.86313 9.31549 3
      vertex 4.06696 11.2548 4.95
      vertex 3.6593 11.2548 4.95
    endloop
  endfacet
  facet normal 0.614053 -0.354523 0.705162
    outer loop
      vertex 2.39014 9.0385 3
      vertex 0.812554 10.1847 4.95
      vertex 0.608724 9.83163 4.95
    endloop
  endfacet
  facet normal 0.416767 -0.573631 0.705162
    outer loop
      vertex 2.39014 9.0385 3
      vertex 1.41514 10.7272 4.95
      vertex 1.08533 10.4876 4.95
    endloop
  endfacet
  facet normal -0.172321 -0.686638 0.706282
    outer loop
      vertex 5.18825 11.1047 4.95
      vertex 4.83513 9.1875 3
      vertex 5.43771 11.0421 4.95
    endloop
  endfacet
  facet normal -0.172321 -0.686638 0.706282
    outer loop
      vertex 4.83513 9.1875 3
      vertex 5.18825 11.1047 4.95
      vertex 4.58566 9.25011 3
    endloop
  endfacet
  facet normal -0.147418 -0.693552 0.705162
    outer loop
      vertex 5.18825 11.1047 4.95
      vertex 4.78949 11.1894 4.95
      vertex 4.58566 9.25011 3
    endloop
  endfacet
  facet normal -0.416767 -0.573631 0.705162
    outer loop
      vertex 6.13993 10.6366 4.95
      vertex 5.81013 10.8762 4.95
      vertex 4.83513 9.1875 3
    endloop
  endfacet
  facet normal -0.674343 -0.219108 0.705162
    outer loop
      vertex 6.74252 9.59293 4.95
      vertex 6.61654 9.98064 4.95
      vertex 4.83513 9.1875 3
    endloop
  endfacet
  facet normal -0.111062 -0.698831 0.706612
    outer loop
      vertex 4.33862 9.28937 3
      vertex 4.78949 11.1894 4.95
      vertex 4.54245 11.2287 4.95
    endloop
  endfacet
  facet normal -0.111062 -0.698831 0.706612
    outer loop
      vertex 4.78949 11.1894 4.95
      vertex 4.33862 9.28937 3
      vertex 4.58566 9.25011 3
    endloop
  endfacet
  facet normal -0.05924 -0.704698 0.70703
    outer loop
      vertex 4.30068 11.249 4.95
      vertex 4.33862 9.28937 3
      vertex 4.54245 11.2287 4.95
    endloop
  endfacet
  facet normal -0.05924 -0.704698 0.70703
    outer loop
      vertex 4.33862 9.28937 3
      vertex 4.30068 11.249 4.95
      vertex 4.09685 9.30969 3
    endloop
  endfacet
  facet normal 0.147418 -0.693552 0.705162
    outer loop
      vertex 3.1165 9.24974 3
      vertex 2.91267 11.1891 4.95
      vertex 2.51392 11.1043 4.95
    endloop
  endfacet
  facet normal 0.694667 -0.132469 0.707029
    outer loop
      vertex -1.10728 -3.58908 4.95
      vertex 1.27913 -1.4825 3
      vertex -0.628258 -1.07707 4.95
    endloop
  endfacet
  facet normal 0.694667 -0.132469 0.707029
    outer loop
      vertex 1.27913 -1.4825 3
      vertex -1.10728 -3.58908 4.95
      vertex 0.769928 -4.15276 3
    endloop
  endfacet
  facet normal -0.682574 0.186891 0.706515
    outer loop
      vertex 3.66814 -1.54449 3
      vertex 4.86137 -4.55818 4.95
      vertex 5.57552 -1.94992 4.95
    endloop
  endfacet
  facet normal -0.682574 0.186891 0.706515
    outer loop
      vertex 4.86137 -4.55818 4.95
      vertex 3.66814 -1.54449 3
      vertex 2.95399 -4.15276 3
    endloop
  endfacet
  facet normal -0.704763 0.0766254 0.705293
    outer loop
      vertex 3.66814 -1.54449 3
      vertex 5.58226 -1.88793 4.95
      vertex 3.67488 -1.4825 3
    endloop
  endfacet
  facet normal -0.704763 0.0766254 0.705293
    outer loop
      vertex 5.58226 -1.88793 4.95
      vertex 3.66814 -1.54449 3
      vertex 5.57552 -1.94992 4.95
    endloop
  endfacet
  facet normal 0.652611 -0.272462 0.70701
    outer loop
      vertex -1.78014 -5.20073 4.95
      vertex 0.769928 -4.15276 3
      vertex -1.10728 -3.58908 4.95
    endloop
  endfacet
  facet normal 0.652611 -0.272462 0.70701
    outer loop
      vertex 0.769928 -4.15276 3
      vertex -1.78014 -5.20073 4.95
      vertex -0.0884857 -6.20886 3
    endloop
  endfacet
  facet normal -0.682575 0.186891 0.706515
    outer loop
      vertex 2.95399 -4.15276 3
      vertex 4.53864 -5.73688 4.95
      vertex 4.86137 -4.55818 4.95
    endloop
  endfacet
  facet normal -0.682575 0.186891 0.706515
    outer loop
      vertex 4.53864 -5.73688 4.95
      vertex 2.95399 -4.15276 3
      vertex 2.63126 -5.33145 3
    endloop
  endfacet
  facet normal -0.674343 0.219108 0.705162
    outer loop
      vertex 4.41267 -6.12459 4.95
      vertex 4.53864 -5.73688 4.95
      vertex 2.63126 -5.33145 3
    endloop
  endfacet
  facet normal -0.575081 0.411455 0.707097
    outer loop
      vertex 2.00349 -6.20886 3
      vertex 4.20884 -6.47763 4.95
      vertex 2.63126 -5.33145 3
    endloop
  endfacet
  facet normal -0.575081 0.411455 0.707097
    outer loop
      vertex 4.20884 -6.47763 4.95
      vertex 2.00349 -6.20886 3
      vertex 3.58108 -7.35504 4.95
    endloop
  endfacet
  facet normal -0.614053 0.354522 0.705162
    outer loop
      vertex 4.20884 -6.47763 4.95
      vertex 4.41267 -6.12459 4.95
      vertex 2.63126 -5.33145 3
    endloop
  endfacet
  facet normal -0.575081 0.411454 0.707097
    outer loop
      vertex 1.01655 -7.58829 3
      vertex 3.58108 -7.35504 4.95
      vertex 2.00349 -6.20886 3
    endloop
  endfacet
  facet normal -0.575081 0.411454 0.707097
    outer loop
      vertex 3.58108 -7.35504 4.95
      vertex 1.01655 -7.58829 3
      vertex 2.59414 -8.73447 4.95
    endloop
  endfacet
  facet normal 0.545618 -0.450855 0.706421
    outer loop
      vertex -2.45655 -6.01931 4.95
      vertex -0.0884857 -6.20886 3
      vertex -1.78014 -5.20073 4.95
    endloop
  endfacet
  facet normal 0.545618 -0.450855 0.706421
    outer loop
      vertex -0.0884857 -6.20886 3
      vertex -2.45655 -6.01931 4.95
      vertex -1.22833 -7.58829 3
    endloop
  endfacet
  facet normal -0.575082 0.411453 0.707097
    outer loop
      vertex 0.810623 -7.87611 3
      vertex 2.59414 -8.73447 4.95
      vertex 1.01655 -7.58829 3
    endloop
  endfacet
  facet normal -0.575082 0.411453 0.707097
    outer loop
      vertex 2.59414 -8.73447 4.95
      vertex 0.810623 -7.87611 3
      vertex 2.38821 -9.02229 4.95
    endloop
  endfacet
  facet normal -0.526924 0.474445 0.705162
    outer loop
      vertex 2.11543 -9.32525 4.95
      vertex 2.38821 -9.02229 4.95
      vertex 0.810623 -7.87611 3
    endloop
  endfacet
  facet normal -0.397965 0.585634 0.706156
    outer loop
      vertex 0.292083 -8.22849 3
      vertex 1.78562 -9.56486 4.95
      vertex 0.810623 -7.87611 3
    endloop
  endfacet
  facet normal -0.397965 0.585634 0.706156
    outer loop
      vertex 1.78562 -9.56486 4.95
      vertex 0.292083 -8.22849 3
      vertex 1.26708 -9.91723 4.95
    endloop
  endfacet
  facet normal -0.416766 0.573631 0.705162
    outer loop
      vertex 1.78562 -9.56486 4.95
      vertex 2.11543 -9.32525 4.95
      vertex 0.810623 -7.87611 3
    endloop
  endfacet
  facet normal 0.302845 -0.640281 0.705922
    outer loop
      vertex -2.72683 -6.14715 4.95
      vertex -1.22833 -7.58829 3
      vertex -2.45655 -6.01931 4.95
    endloop
  endfacet
  facet normal 0.302846 -0.640281 0.705922
    outer loop
      vertex -1.22833 -7.58829 3
      vertex -2.72683 -6.14715 4.95
      vertex -2.58185 -8.22849 3
    endloop
  endfacet
  facet normal 0.556412 0.436751 0.706862
    outer loop
      vertex -6.49401 -8.22849 3
      vertex -7.74956 -9.78493 4.95
      vertex -6.17198 -8.63875 3
    endloop
  endfacet
  facet normal 0.556412 0.436751 0.706862
    outer loop
      vertex -7.74956 -9.78493 4.95
      vertex -6.49401 -8.22849 3
      vertex -8.0716 -9.37467 4.95
    endloop
  endfacet
  facet normal 0.288396 0.647746 0.705162
    outer loop
      vertex -5.21727 -11.3541 4.95
      vertex -4.61469 -9.4995 3
      vertex -5.58968 -11.1882 4.95
    endloop
  endfacet
  facet normal 0.342089 0.61892 0.707045
    outer loop
      vertex -6.17198 -8.63875 3
      vertex -5.58968 -11.1882 4.95
      vertex -4.61469 -9.4995 3
    endloop
  endfacet
  facet normal 0.342089 0.61892 0.707045
    outer loop
      vertex -5.58968 -11.1882 4.95
      vertex -6.17198 -8.63875 3
      vertex -7.14698 -10.3275 4.95
    endloop
  endfacet
  facet normal 0.125941 0.696788 0.706135
    outer loop
      vertex -4.81852 -11.4388 4.95
      vertex -3.19286 -9.75648 3
      vertex -4.61469 -9.4995 3
    endloop
  endfacet
  facet normal 0.125941 0.696788 0.706135
    outer loop
      vertex -3.19286 -9.75648 3
      vertex -4.81852 -11.4388 4.95
      vertex -3.39669 -11.6958 4.95
    endloop
  endfacet
  facet normal -0.397965 0.585634 0.706156
    outer loop
      vertex -1.29648 -9.30798 3
      vertex 1.26708 -9.91723 4.95
      vertex 0.292083 -8.22849 3
    endloop
  endfacet
  facet normal -0.397965 0.585634 0.706156
    outer loop
      vertex 1.26708 -9.91723 4.95
      vertex -1.29648 -9.30798 3
      vertex -0.321479 -10.9967 4.95
    endloop
  endfacet
  facet normal -0.288397 0.647745 0.705162
    outer loop
      vertex -0.693896 -11.1625 4.95
      vertex -0.321479 -10.9967 4.95
      vertex -1.29648 -9.30798 3
    endloop
  endfacet
  facet normal 0 0.709046 0.705162
    outer loop
      vertex -2.98903 -11.6958 4.95
      vertex -3.19286 -9.75648 3
      vertex -3.39669 -11.6958 4.95
    endloop
  endfacet
  facet normal -0.147418 0.693552 0.705162
    outer loop
      vertex -2.98903 -11.6958 4.95
      vertex -2.59027 -11.611 4.95
      vertex -3.19286 -9.75648 3
    endloop
  endfacet
  facet normal -0.163017 0.689279 0.705918
    outer loop
      vertex -1.29648 -9.30798 3
      vertex -2.59027 -11.611 4.95
      vertex -0.693896 -11.1625 4.95
    endloop
  endfacet
  facet normal -0.163017 0.689279 0.705918
    outer loop
      vertex -2.59027 -11.611 4.95
      vertex -1.29648 -9.30798 3
      vertex -3.19286 -9.75648 3
    endloop
  endfacet
  facet normal 0.416767 0.573631 0.705162
    outer loop
      vertex -7.14698 -10.3275 4.95
      vertex -6.17198 -8.63875 3
      vertex -7.47679 -10.0879 4.95
    endloop
  endfacet
  facet normal 0.147418 0.693552 0.705162
    outer loop
      vertex -4.81852 -11.4388 4.95
      vertex -4.61469 -9.4995 3
      vertex -5.21727 -11.3541 4.95
    endloop
  endfacet
  facet normal 0.526924 0.474445 0.705162
    outer loop
      vertex -7.47679 -10.0879 4.95
      vertex -6.17198 -8.63875 3
      vertex -7.74956 -9.78493 4.95
    endloop
  endfacet
  facet normal -0.20529 -0.676722 0.707039
    outer loop
      vertex -3.93243 -7.81877 3
      vertex -2.72683 -6.14715 4.95
      vertex -2.93472 -6.08408 4.95
    endloop
  endfacet
  facet normal -0.20529 -0.676722 0.707039
    outer loop
      vertex -2.72683 -6.14715 4.95
      vertex -3.93243 -7.81877 3
      vertex -2.58185 -8.22849 3
    endloop
  endfacet
  facet normal 0.556411 0.436752 0.706862
    outer loop
      vertex -6.81562 -7.81877 3
      vertex -8.0716 -9.37467 4.95
      vertex -6.49401 -8.22849 3
    endloop
  endfacet
  facet normal 0.556411 0.436752 0.706862
    outer loop
      vertex -8.0716 -9.37467 4.95
      vertex -6.81562 -7.81877 3
      vertex -8.3932 -8.96495 4.95
    endloop
  endfacet
  facet normal 0.674343 0.219108 0.705162
    outer loop
      vertex -9.20863 -7.83275 4.95
      vertex -7.42722 -7.03961 3
      vertex -9.3346 -7.44504 4.95
    endloop
  endfacet
  facet normal 0.692213 0.144378 0.707104
    outer loop
      vertex -7.44179 -6.96974 3
      vertex -9.3346 -7.44504 4.95
      vertex -7.42722 -7.03961 3
    endloop
  endfacet
  facet normal 0.692213 0.144378 0.707104
    outer loop
      vertex -9.3346 -7.44504 4.95
      vertex -7.44179 -6.96974 3
      vertex -9.34918 -7.37517 4.95
    endloop
  endfacet
  facet normal -0.48155 -0.517855 0.707061
    outer loop
      vertex -3.2017 -5.83581 4.95
      vertex -3.93243 -7.81877 3
      vertex -2.93472 -6.08408 4.95
    endloop
  endfacet
  facet normal -0.48155 -0.517855 0.707061
    outer loop
      vertex -3.93243 -7.81877 3
      vertex -3.2017 -5.83581 4.95
      vertex -4.84547 -6.96974 3
    endloop
  endfacet
  facet normal 0.556411 0.436752 0.706862
    outer loop
      vertex -7.42722 -7.03961 3
      vertex -8.3932 -8.96495 4.95
      vertex -6.81562 -7.81877 3
    endloop
  endfacet
  facet normal 0.556411 0.436752 0.706862
    outer loop
      vertex -8.3932 -8.96495 4.95
      vertex -7.42722 -7.03961 3
      vertex -9.0048 -8.18579 4.95
    endloop
  endfacet
  facet normal 0.614052 0.354523 0.705162
    outer loop
      vertex -9.0048 -8.18579 4.95
      vertex -7.42722 -7.03961 3
      vertex -9.20863 -7.83275 4.95
    endloop
  endfacet
  facet normal 0.692212 0.144383 0.707104
    outer loop
      vertex -7.70891 -5.68909 3
      vertex -9.34918 -7.37517 4.95
      vertex -7.44179 -6.96974 3
    endloop
  endfacet
  facet normal 0.692212 0.144383 0.707104
    outer loop
      vertex -9.34918 -7.37517 4.95
      vertex -7.70891 -5.68909 3
      vertex -9.6163 -6.09451 4.95
    endloop
  endfacet
  facet normal -0.65585 -0.264891 0.70689
    outer loop
      vertex -5.36272 -5.68909 3
      vertex -3.2017 -5.83581 4.95
      vertex -3.45984 -5.19669 4.95
    endloop
  endfacet
  facet normal -0.65585 -0.264891 0.70689
    outer loop
      vertex -3.2017 -5.83581 4.95
      vertex -5.36272 -5.68909 3
      vertex -4.84547 -6.96974 3
    endloop
  endfacet
  facet normal 0.705162 0.0741154 0.705162
    outer loop
      vertex -9.85024 -4.97292 4.95
      vertex -7.94286 -4.56749 3
      vertex -9.89286 -4.56749 4.95
    endloop
  endfacet
  facet normal -0.705493 -0.0675168 0.705493
    outer loop
      vertex -5.52585 -3.9845 3
      vertex -3.45984 -5.19669 4.95
      vertex -3.57585 -3.9845 4.95
    endloop
  endfacet
  facet normal -0.705493 -0.0675167 0.705493
    outer loop
      vertex -3.45984 -5.19669 4.95
      vertex -5.52585 -3.9845 3
      vertex -5.36272 -5.68909 3
    endloop
  endfacet
  facet normal 0.312827 -0.634999 0.706339
    outer loop
      vertex -8.35275 -2.60034 4.95
      vertex -7.94286 -4.56749 3
      vertex -7.37775 -4.28909 3
    endloop
  endfacet
  facet normal 0.312827 -0.634999 0.706339
    outer loop
      vertex -7.94286 -4.56749 3
      vertex -8.35275 -2.60034 4.95
      vertex -8.91786 -2.87874 4.95
    endloop
  endfacet
  facet normal -0.147419 -0.693552 0.705162
    outer loop
      vertex -4.92327 -2.12994 4.95
      vertex -5.32202 -2.04518 4.95
      vertex -5.52585 -3.9845 3
    endloop
  endfacet
  facet normal 0.692212 0.144383 0.707104
    outer loop
      vertex -7.94286 -4.56749 3
      vertex -9.6163 -6.09451 4.95
      vertex -7.70891 -5.68909 3
    endloop
  endfacet
  facet normal 0.692212 0.144383 0.707104
    outer loop
      vertex -9.6163 -6.09451 4.95
      vertex -7.94286 -4.56749 3
      vertex -9.85024 -4.97292 4.95
    endloop
  endfacet
  facet normal 0.110021 -0.698968 0.706639
    outer loop
      vertex -7.00081 -2.17018 4.95
      vertex -6.18491 -4.01315 3
      vertex -6.38874 -2.07384 4.95
    endloop
  endfacet
  facet normal 0.110021 -0.698968 0.706639
    outer loop
      vertex -6.18491 -4.01315 3
      vertex -7.00081 -2.17018 4.95
      vertex -6.79698 -4.1095 3
    endloop
  endfacet
  facet normal 0 -0.709046 0.705162
    outer loop
      vertex -5.52585 -3.9845 3
      vertex -5.32202 -2.04518 4.95
      vertex -5.72968 -2.04518 4.95
    endloop
  endfacet
  facet normal 0.416768 -0.57363 0.705162
    outer loop
      vertex -7.94286 -4.56749 3
      vertex -8.91786 -2.87874 4.95
      vertex -9.24766 -3.11836 4.95
    endloop
  endfacet
  facet normal 0.526924 -0.474445 0.705162
    outer loop
      vertex -7.94286 -4.56749 3
      vertex -9.24766 -3.11836 4.95
      vertex -9.52044 -3.42131 4.95
    endloop
  endfacet
  facet normal -0.705162 -0.0741158 0.705162
    outer loop
      vertex -3.57585 -3.9845 4.95
      vertex -3.61846 -3.57907 4.95
      vertex -5.52585 -3.9845 3
    endloop
  endfacet
  facet normal 0.030745 -0.707102 0.706442
    outer loop
      vertex -6.18491 -4.01315 3
      vertex -5.72968 -2.04518 4.95
      vertex -6.38874 -2.07384 4.95
    endloop
  endfacet
  facet normal 0.030745 -0.707102 0.706442
    outer loop
      vertex -5.72968 -2.04518 4.95
      vertex -6.18491 -4.01315 3
      vertex -5.52585 -3.9845 3
    endloop
  endfacet
  facet normal -0.416767 -0.57363 0.705162
    outer loop
      vertex -4.22104 -2.53537 4.95
      vertex -4.55085 -2.29575 4.95
      vertex -5.52585 -3.9845 3
    endloop
  endfacet
  facet normal -0.288396 -0.647746 0.705162
    outer loop
      vertex -4.55085 -2.29575 4.95
      vertex -4.92327 -2.12994 4.95
      vertex -5.52585 -3.9845 3
    endloop
  endfacet
  facet normal 0.674343 -0.219108 0.705162
    outer loop
      vertex -7.94286 -4.56749 3
      vertex -9.72427 -3.77435 4.95
      vertex -9.85024 -4.16206 4.95
    endloop
  endfacet
  facet normal 0.614052 -0.354523 0.705162
    outer loop
      vertex -7.94286 -4.56749 3
      vertex -9.52044 -3.42131 4.95
      vertex -9.72427 -3.77435 4.95
    endloop
  endfacet
  facet normal -0.526924 -0.474445 0.705162
    outer loop
      vertex -3.94827 -2.83832 4.95
      vertex -4.22104 -2.53537 4.95
      vertex -5.52585 -3.9845 3
    endloop
  endfacet
  facet normal 0.208916 -0.675578 0.707071
    outer loop
      vertex -7.39956 -2.25494 4.95
      vertex -7.37775 -4.28909 3
      vertex -6.79698 -4.1095 3
    endloop
  endfacet
  facet normal 0.208916 -0.675578 0.707071
    outer loop
      vertex -7.37775 -4.28909 3
      vertex -7.39956 -2.25494 4.95
      vertex -7.98033 -2.43453 4.95
    endloop
  endfacet
  facet normal 0.705162 -0.0741154 0.705162
    outer loop
      vertex -7.94286 -4.56749 3
      vertex -9.85024 -4.16206 4.95
      vertex -9.89286 -4.56749 4.95
    endloop
  endfacet
  facet normal 0.288395 -0.647746 0.705162
    outer loop
      vertex -7.37775 -4.28909 3
      vertex -7.98033 -2.43453 4.95
      vertex -8.35275 -2.60034 4.95
    endloop
  endfacet
  facet normal 0.147419 -0.693552 0.705162
    outer loop
      vertex -6.79698 -4.1095 3
      vertex -7.00081 -2.17018 4.95
      vertex -7.39956 -2.25494 4.95
    endloop
  endfacet
  facet normal -0.674343 -0.219108 0.705162
    outer loop
      vertex -3.61846 -3.57907 4.95
      vertex -3.74444 -3.19136 4.95
      vertex -5.52585 -3.9845 3
    endloop
  endfacet
  facet normal -0.614052 -0.354523 0.705162
    outer loop
      vertex -3.74444 -3.19136 4.95
      vertex -3.94827 -2.83832 4.95
      vertex -5.52585 -3.9845 3
    endloop
  endfacet
  facet normal 0 0 1
    outer loop
      vertex 15.1568 16.4918 4.95
      vertex 16.5 15 4.95
      vertex 16.4672 15.3119 4.95
    endloop
  endfacet
  facet normal 0 0 1
    outer loop
      vertex 16.5 15 4.95
      vertex 5.58226 -1.88793 4.95
      vertex 16.5 -15 4.95
    endloop
  endfacet
  facet normal 0 0 1
    outer loop
      vertex 15.1568 16.4918 4.95
      vertex 16.4672 15.3119 4.95
      vertex 16.3703 15.6101 4.95
    endloop
  endfacet
  facet normal -0 0 1
    outer loop
      vertex 5.57552 -1.94992 4.95
      vertex 16.5 -15 4.95
      vertex 5.58226 -1.88793 4.95
    endloop
  endfacet
  facet normal 0 0 1
    outer loop
      vertex 15.1568 16.4918 4.95
      vertex 16.3703 15.6101 4.95
      vertex 16.2135 15.8817 4.95
    endloop
  endfacet
  facet normal -0 0 1
    outer loop
      vertex 4.86137 -4.55818 4.95
      vertex 16.5 -15 4.95
      vertex 5.57552 -1.94992 4.95
    endloop
  endfacet
  facet normal 0 0 1
    outer loop
      vertex 15.1568 16.4918 4.95
      vertex 16.2135 15.8817 4.95
      vertex 16.0037 16.1147 4.95
    endloop
  endfacet
  facet normal -0 0 1
    outer loop
      vertex 4.53864 -5.73688 4.95
      vertex 16.5 -15 4.95
      vertex 4.86137 -4.55818 4.95
    endloop
  endfacet
  facet normal 0 0 1
    outer loop
      vertex 15.1568 16.4918 4.95
      vertex 16.0037 16.1147 4.95
      vertex 15.75 16.299 4.95
    endloop
  endfacet
  facet normal -0 0 1
    outer loop
      vertex 4.41267 -6.12459 4.95
      vertex 16.5 -15 4.95
      vertex 4.53864 -5.73688 4.95
    endloop
  endfacet
  facet normal 0 0 1
    outer loop
      vertex 15.1568 16.4918 4.95
      vertex 15.75 16.299 4.95
      vertex 15.4635 16.4266 4.95
    endloop
  endfacet
  facet normal -0 0 1
    outer loop
      vertex 4.20884 -6.47763 4.95
      vertex 16.5 -15 4.95
      vertex 4.41267 -6.12459 4.95
    endloop
  endfacet
  facet normal 0 0 1
    outer loop
      vertex 16.5 15 4.95
      vertex 15.1568 16.4918 4.95
      vertex 6.61654 9.98064 4.95
    endloop
  endfacet
  facet normal 0 -0 1
    outer loop
      vertex 15.1568 -16.4918 4.95
      vertex 16.5 -15 4.95
      vertex 4.20884 -6.47763 4.95
    endloop
  endfacet
  facet normal 0 0 1
    outer loop
      vertex 16.5 15 4.95
      vertex 6.78513 9.1875 4.95
      vertex 6.74252 8.78207 4.95
    endloop
  endfacet
  facet normal 0 0 1
    outer loop
      vertex 16.5 15 4.95
      vertex 6.74252 9.59293 4.95
      vertex 6.78513 9.1875 4.95
    endloop
  endfacet
  facet normal 0 0 1
    outer loop
      vertex 16.5 15 4.95
      vertex 6.61654 9.98064 4.95
      vertex 6.74252 9.59293 4.95
    endloop
  endfacet
  facet normal 0 0 1
    outer loop
      vertex 15.1568 16.4918 4.95
      vertex 6.41271 10.3337 4.95
      vertex 6.61654 9.98064 4.95
    endloop
  endfacet
  facet normal 0 0 1
    outer loop
      vertex 15.1568 16.4918 4.95
      vertex 6.13993 10.6366 4.95
      vertex 6.41271 10.3337 4.95
    endloop
  endfacet
  facet normal 0 0 1
    outer loop
      vertex 15.1568 16.4918 4.95
      vertex 5.81013 10.8762 4.95
      vertex 6.13993 10.6366 4.95
    endloop
  endfacet
  facet normal 0 0 1
    outer loop
      vertex 15.1568 16.4918 4.95
      vertex 5.43771 11.0421 4.95
      vertex 5.81013 10.8762 4.95
    endloop
  endfacet
  facet normal 0 0 1
    outer loop
      vertex 15.1568 16.4918 4.95
      vertex 5.18825 11.1047 4.95
      vertex 5.43771 11.0421 4.95
    endloop
  endfacet
  facet normal 0 0 1
    outer loop
      vertex 15.1568 16.4918 4.95
      vertex 4.78949 11.1894 4.95
      vertex 5.18825 11.1047 4.95
    endloop
  endfacet
  facet normal 0 0 1
    outer loop
      vertex 15.1568 16.4918 4.95
      vertex 4.54245 11.2287 4.95
      vertex 4.78949 11.1894 4.95
    endloop
  endfacet
  facet normal 0 0 1
    outer loop
      vertex 15.1568 16.4918 4.95
      vertex 4.30068 11.249 4.95
      vertex 4.54245 11.2287 4.95
    endloop
  endfacet
  facet normal 0 0 1
    outer loop
      vertex 15.1568 16.4918 4.95
      vertex 4.06696 11.2548 4.95
      vertex 4.30068 11.249 4.95
    endloop
  endfacet
  facet normal 0 0 1
    outer loop
      vertex 15.1568 16.4918 4.95
      vertex 3.6593 11.2548 4.95
      vertex 4.06696 11.2548 4.95
    endloop
  endfacet
  facet normal 0 0 1
    outer loop
      vertex 15.1568 16.4918 4.95
      vertex 3.28473 11.2388 4.95
      vertex 3.6593 11.2548 4.95
    endloop
  endfacet
  facet normal 0 0 1
    outer loop
      vertex 15.1568 16.4918 4.95
      vertex 2.91267 11.1891 4.95
      vertex 3.28473 11.2388 4.95
    endloop
  endfacet
  facet normal -0 0 1
    outer loop
      vertex -15.1568 16.4918 4.95
      vertex 2.91267 11.1891 4.95
      vertex 15.1568 16.4918 4.95
    endloop
  endfacet
  facet normal 0 0 1
    outer loop
      vertex 2.91267 11.1891 4.95
      vertex -15.1568 16.4918 4.95
      vertex 2.51392 11.1043 4.95
    endloop
  endfacet
  facet normal 0 0 1
    outer loop
      vertex 2.51392 11.1043 4.95
      vertex -15.1568 16.4918 4.95
      vertex 2.14694 11.0182 4.95
    endloop
  endfacet
  facet normal 0 0 1
    outer loop
      vertex -5.32202 -2.04518 4.95
      vertex -0.628258 -1.07707 4.95
      vertex 0.482749 9.44392 4.95
    endloop
  endfacet
  facet normal 0 -0 1
    outer loop
      vertex -4.22104 -2.53537 4.95
      vertex -0.628258 -1.07707 4.95
      vertex -4.55085 -2.29575 4.95
    endloop
  endfacet
  facet normal -0 -0 1
    outer loop
      vertex -3.74444 -3.19136 4.95
      vertex -1.10728 -3.58908 4.95
      vertex -3.94827 -2.83832 4.95
    endloop
  endfacet
  facet normal 0 0 1
    outer loop
      vertex -1.10728 -3.58908 4.95
      vertex -3.57585 -3.9845 4.95
      vertex -1.78014 -5.20073 4.95
    endloop
  endfacet
  facet normal -0 -0 1
    outer loop
      vertex -3.45984 -5.19669 4.95
      vertex -1.78014 -5.20073 4.95
      vertex -3.57585 -3.9845 4.95
    endloop
  endfacet
  facet normal 0 0 1
    outer loop
      vertex -1.78014 -5.20073 4.95
      vertex -3.45984 -5.19669 4.95
      vertex -2.45655 -6.01931 4.95
    endloop
  endfacet
  facet normal -0 -0 1
    outer loop
      vertex -3.2017 -5.83581 4.95
      vertex -2.45655 -6.01931 4.95
      vertex -3.45984 -5.19669 4.95
    endloop
  endfacet
  facet normal 0 0 1
    outer loop
      vertex -2.45655 -6.01931 4.95
      vertex -2.93472 -6.08408 4.95
      vertex -2.72683 -6.14715 4.95
    endloop
  endfacet
  facet normal 0 -0 1
    outer loop
      vertex -2.93472 -6.08408 4.95
      vertex -2.45655 -6.01931 4.95
      vertex -3.2017 -5.83581 4.95
    endloop
  endfacet
  facet normal 0 -0 1
    outer loop
      vertex -3.57585 -3.9845 4.95
      vertex -1.10728 -3.58908 4.95
      vertex -3.61846 -3.57907 4.95
    endloop
  endfacet
  facet normal 0 0 1
    outer loop
      vertex -15.1568 16.4918 4.95
      vertex 0.482749 9.44392 4.95
      vertex 0.608724 9.83163 4.95
    endloop
  endfacet
  facet normal -0 -0 1
    outer loop
      vertex -3.61846 -3.57907 4.95
      vertex -1.10728 -3.58908 4.95
      vertex -3.74444 -3.19136 4.95
    endloop
  endfacet
  facet normal 0 0 1
    outer loop
      vertex -0.628258 -1.07707 4.95
      vertex -3.94827 -2.83832 4.95
      vertex -1.10728 -3.58908 4.95
    endloop
  endfacet
  facet normal 0 -0 1
    outer loop
      vertex -3.94827 -2.83832 4.95
      vertex -0.628258 -1.07707 4.95
      vertex -4.22104 -2.53537 4.95
    endloop
  endfacet
  facet normal 0 0 1
    outer loop
      vertex -0.628258 -1.07707 4.95
      vertex -4.92327 -2.12994 4.95
      vertex -4.55085 -2.29575 4.95
    endloop
  endfacet
  facet normal 0 0 1
    outer loop
      vertex -0.628258 -1.07707 4.95
      vertex -5.32202 -2.04518 4.95
      vertex -4.92327 -2.12994 4.95
    endloop
  endfacet
  facet normal 0 0 1
    outer loop
      vertex 0.482749 9.44392 4.95
      vertex -5.72968 -2.04518 4.95
      vertex -5.32202 -2.04518 4.95
    endloop
  endfacet
  facet normal 0 0 1
    outer loop
      vertex 0.482749 9.44392 4.95
      vertex -6.38874 -2.07384 4.95
      vertex -5.72968 -2.04518 4.95
    endloop
  endfacet
  facet normal 0 0 1
    outer loop
      vertex -15.1568 16.4918 4.95
      vertex 0.608724 9.83163 4.95
      vertex 0.812554 10.1847 4.95
    endloop
  endfacet
  facet normal 0 0 1
    outer loop
      vertex 0.482749 9.44392 4.95
      vertex -7.00081 -2.17018 4.95
      vertex -6.38874 -2.07384 4.95
    endloop
  endfacet
  facet normal 0 -0 1
    outer loop
      vertex -7.39956 -2.25494 4.95
      vertex 0.482749 9.44392 4.95
      vertex -16.5 15 4.95
    endloop
  endfacet
  facet normal 0 0 1
    outer loop
      vertex 0.482749 9.44392 4.95
      vertex -7.39956 -2.25494 4.95
      vertex -7.00081 -2.17018 4.95
    endloop
  endfacet
  facet normal 0 0 1
    outer loop
      vertex -7.39956 -2.25494 4.95
      vertex -16.5 15 4.95
      vertex -7.98033 -2.43453 4.95
    endloop
  endfacet
  facet normal 0 0 1
    outer loop
      vertex -7.98033 -2.43453 4.95
      vertex -16.5 15 4.95
      vertex -8.35275 -2.60034 4.95
    endloop
  endfacet
  facet normal 0 0 1
    outer loop
      vertex -8.35275 -2.60034 4.95
      vertex -16.5 15 4.95
      vertex -8.91786 -2.87874 4.95
    endloop
  endfacet
  facet normal 0 0 1
    outer loop
      vertex -8.91786 -2.87874 4.95
      vertex -16.5 15 4.95
      vertex -9.24766 -3.11836 4.95
    endloop
  endfacet
  facet normal 0 0 1
    outer loop
      vertex -9.72427 -3.77435 4.95
      vertex -16.5 15 4.95
      vertex -9.85024 -4.16206 4.95
    endloop
  endfacet
  facet normal 0 0 1
    outer loop
      vertex -9.52044 -3.42131 4.95
      vertex -16.5 15 4.95
      vertex -9.72427 -3.77435 4.95
    endloop
  endfacet
  facet normal 0 0 1
    outer loop
      vertex -9.24766 -3.11836 4.95
      vertex -16.5 15 4.95
      vertex -9.52044 -3.42131 4.95
    endloop
  endfacet
  facet normal 0 0 1
    outer loop
      vertex 0.482749 9.44392 4.95
      vertex -15.1568 16.4918 4.95
      vertex -16.5 15 4.95
    endloop
  endfacet
  facet normal 0 0 1
    outer loop
      vertex 1.08533 10.4876 4.95
      vertex -15.1568 16.4918 4.95
      vertex 0.812554 10.1847 4.95
    endloop
  endfacet
  facet normal 0 0 1
    outer loop
      vertex 1.41514 10.7272 4.95
      vertex -15.1568 16.4918 4.95
      vertex 1.08533 10.4876 4.95
    endloop
  endfacet
  facet normal 0 0 1
    outer loop
      vertex 1.78755 10.8931 4.95
      vertex -15.1568 16.4918 4.95
      vertex 1.41514 10.7272 4.95
    endloop
  endfacet
  facet normal 0 0 1
    outer loop
      vertex 2.14694 11.0182 4.95
      vertex -15.1568 16.4918 4.95
      vertex 1.78755 10.8931 4.95
    endloop
  endfacet
  facet normal 0 0 1
    outer loop
      vertex 16.5 15 4.95
      vertex 6.74252 8.78207 4.95
      vertex 5.58226 -1.88793 4.95
    endloop
  endfacet
  facet normal 0 0 1
    outer loop
      vertex 16.4672 -15.3119 4.95
      vertex 15.1568 -16.4918 4.95
      vertex 16.3703 -15.6101 4.95
    endloop
  endfacet
  facet normal 0 0 1
    outer loop
      vertex 16.3703 -15.6101 4.95
      vertex 15.1568 -16.4918 4.95
      vertex 16.2135 -15.8817 4.95
    endloop
  endfacet
  facet normal 0 0 1
    outer loop
      vertex 15.75 -16.299 4.95
      vertex 15.1568 -16.4918 4.95
      vertex 15.4635 -16.4266 4.95
    endloop
  endfacet
  facet normal 0 0 1
    outer loop
      vertex 16.0037 -16.1147 4.95
      vertex 15.1568 -16.4918 4.95
      vertex 15.75 -16.299 4.95
    endloop
  endfacet
  facet normal 0 0 1
    outer loop
      vertex 16.2135 -15.8817 4.95
      vertex 15.1568 -16.4918 4.95
      vertex 16.0037 -16.1147 4.95
    endloop
  endfacet
  facet normal 0 0 1
    outer loop
      vertex 16.5 -15 4.95
      vertex 15.1568 -16.4918 4.95
      vertex 16.4672 -15.3119 4.95
    endloop
  endfacet
  facet normal -0 0 1
    outer loop
      vertex 3.58108 -7.35504 4.95
      vertex 15.1568 -16.4918 4.95
      vertex 4.20884 -6.47763 4.95
    endloop
  endfacet
  facet normal -0 0 1
    outer loop
      vertex 2.59414 -8.73447 4.95
      vertex 15.1568 -16.4918 4.95
      vertex 3.58108 -7.35504 4.95
    endloop
  endfacet
  facet normal -0 0 1
    outer loop
      vertex 2.38821 -9.02229 4.95
      vertex 15.1568 -16.4918 4.95
      vertex 2.59414 -8.73447 4.95
    endloop
  endfacet
  facet normal -0 0 1
    outer loop
      vertex 2.11543 -9.32525 4.95
      vertex 15.1568 -16.4918 4.95
      vertex 2.38821 -9.02229 4.95
    endloop
  endfacet
  facet normal -0 0 1
    outer loop
      vertex 1.78562 -9.56486 4.95
      vertex 15.1568 -16.4918 4.95
      vertex 2.11543 -9.32525 4.95
    endloop
  endfacet
  facet normal -0 0 1
    outer loop
      vertex 1.26708 -9.91723 4.95
      vertex 15.1568 -16.4918 4.95
      vertex 1.78562 -9.56486 4.95
    endloop
  endfacet
  facet normal -0 0 1
    outer loop
      vertex -0.321479 -10.9967 4.95
      vertex 15.1568 -16.4918 4.95
      vertex 1.26708 -9.91723 4.95
    endloop
  endfacet
  facet normal -0 0 1
    outer loop
      vertex -0.693896 -11.1625 4.95
      vertex 15.1568 -16.4918 4.95
      vertex -0.321479 -10.9967 4.95
    endloop
  endfacet
  facet normal -0 0 1
    outer loop
      vertex -2.59027 -11.611 4.95
      vertex 15.1568 -16.4918 4.95
      vertex -0.693896 -11.1625 4.95
    endloop
  endfacet
  facet normal -0 0 1
    outer loop
      vertex -2.98903 -11.6958 4.95
      vertex 15.1568 -16.4918 4.95
      vertex -2.59027 -11.611 4.95
    endloop
  endfacet
  facet normal 0 0 1
    outer loop
      vertex -15.1568 -16.4918 4.95
      vertex -2.98903 -11.6958 4.95
      vertex -3.39669 -11.6958 4.95
    endloop
  endfacet
  facet normal 0 0 1
    outer loop
      vertex -15.1568 -16.4918 4.95
      vertex -3.39669 -11.6958 4.95
      vertex -4.81852 -11.4388 4.95
    endloop
  endfacet
  facet normal 0 0 1
    outer loop
      vertex -15.1568 -16.4918 4.95
      vertex -4.81852 -11.4388 4.95
      vertex -5.21727 -11.3541 4.95
    endloop
  endfacet
  facet normal 0 0 1
    outer loop
      vertex -16.5 -15 4.95
      vertex -8.0716 -9.37467 4.95
      vertex -8.3932 -8.96495 4.95
    endloop
  endfacet
  facet normal 0 0 1
    outer loop
      vertex -16.5 -15 4.95
      vertex -8.3932 -8.96495 4.95
      vertex -9.0048 -8.18579 4.95
    endloop
  endfacet
  facet normal 0 0 1
    outer loop
      vertex -16.5 -15 4.95
      vertex -9.34918 -7.37517 4.95
      vertex -9.6163 -6.09451 4.95
    endloop
  endfacet
  facet normal 0 0 1
    outer loop
      vertex -16.5 -15 4.95
      vertex -9.6163 -6.09451 4.95
      vertex -9.85024 -4.97292 4.95
    endloop
  endfacet
  facet normal 0 0 1
    outer loop
      vertex -16.5 -15 4.95
      vertex -9.85024 -4.16206 4.95
      vertex -16.5 15 4.95
    endloop
  endfacet
  facet normal 0 0 1
    outer loop
      vertex -9.85024 -4.16206 4.95
      vertex -16.5 -15 4.95
      vertex -9.89286 -4.56749 4.95
    endloop
  endfacet
  facet normal 0 0 1
    outer loop
      vertex -2.98903 -11.6958 4.95
      vertex -15.1568 -16.4918 4.95
      vertex 15.1568 -16.4918 4.95
    endloop
  endfacet
  facet normal 0 0 1
    outer loop
      vertex -5.58968 -11.1882 4.95
      vertex -15.1568 -16.4918 4.95
      vertex -5.21727 -11.3541 4.95
    endloop
  endfacet
  facet normal 0 0 1
    outer loop
      vertex -7.14698 -10.3275 4.95
      vertex -15.1568 -16.4918 4.95
      vertex -5.58968 -11.1882 4.95
    endloop
  endfacet
  facet normal 0 0 1
    outer loop
      vertex -7.47679 -10.0879 4.95
      vertex -15.1568 -16.4918 4.95
      vertex -7.14698 -10.3275 4.95
    endloop
  endfacet
  facet normal 0 0 1
    outer loop
      vertex -7.74956 -9.78493 4.95
      vertex -15.1568 -16.4918 4.95
      vertex -7.47679 -10.0879 4.95
    endloop
  endfacet
  facet normal 0 0 1
    outer loop
      vertex -8.0716 -9.37467 4.95
      vertex -16.5 -15 4.95
      vertex -15.1568 -16.4918 4.95
    endloop
  endfacet
  facet normal 0 0 1
    outer loop
      vertex -16.5 -15 4.95
      vertex -9.0048 -8.18579 4.95
      vertex -9.20863 -7.83275 4.95
    endloop
  endfacet
  facet normal 0 0 1
    outer loop
      vertex -16.5 -15 4.95
      vertex -9.20863 -7.83275 4.95
      vertex -9.3346 -7.44504 4.95
    endloop
  endfacet
  facet normal 0 0 1
    outer loop
      vertex -9.89286 -4.56749 4.95
      vertex -16.5 -15 4.95
      vertex -9.85024 -4.97292 4.95
    endloop
  endfacet
  facet normal 0 0 1
    outer loop
      vertex -16.5 15 4.95
      vertex -15.1568 16.4918 4.95
      vertex -15.4635 16.4266 4.95
    endloop
  endfacet
  facet normal 0 0 1
    outer loop
      vertex -9.34918 -7.37517 4.95
      vertex -16.5 -15 4.95
      vertex -9.3346 -7.44504 4.95
    endloop
  endfacet
  facet normal 0 0 1
    outer loop
      vertex -16.5 15 4.95
      vertex -15.4635 16.4266 4.95
      vertex -15.75 16.299 4.95
    endloop
  endfacet
  facet normal 0 0 1
    outer loop
      vertex -8.0716 -9.37467 4.95
      vertex -15.1568 -16.4918 4.95
      vertex -7.74956 -9.78493 4.95
    endloop
  endfacet
  facet normal 0 0 1
    outer loop
      vertex -16.5 15 4.95
      vertex -15.75 16.299 4.95
      vertex -16.0037 16.1147 4.95
    endloop
  endfacet
  facet normal 0 0 1
    outer loop
      vertex -15.1568 -16.4918 4.95
      vertex -16.5 -15 4.95
      vertex -15.4635 -16.4266 4.95
    endloop
  endfacet
  facet normal 0 0 1
    outer loop
      vertex -16.5 15 4.95
      vertex -16.0037 16.1147 4.95
      vertex -16.2135 15.8817 4.95
    endloop
  endfacet
  facet normal 0 0 1
    outer loop
      vertex -15.4635 -16.4266 4.95
      vertex -16.5 -15 4.95
      vertex -15.75 -16.299 4.95
    endloop
  endfacet
  facet normal 0 0 1
    outer loop
      vertex -16.5 15 4.95
      vertex -16.2135 15.8817 4.95
      vertex -16.3703 15.6101 4.95
    endloop
  endfacet
  facet normal 0 0 1
    outer loop
      vertex -15.75 -16.299 4.95
      vertex -16.5 -15 4.95
      vertex -16.0037 -16.1147 4.95
    endloop
  endfacet
  facet normal 0 0 1
    outer loop
      vertex -16.5 15 4.95
      vertex -16.3703 15.6101 4.95
      vertex -16.4672 15.3119 4.95
    endloop
  endfacet
  facet normal 0 0 1
    outer loop
      vertex -16.0037 -16.1147 4.95
      vertex -16.5 -15 4.95
      vertex -16.2135 -15.8817 4.95
    endloop
  endfacet
  facet normal 0 0 1
    outer loop
      vertex -16.2135 -15.8817 4.95
      vertex -16.5 -15 4.95
      vertex -16.3703 -15.6101 4.95
    endloop
  endfacet
  facet normal 0 0 1
    outer loop
      vertex -16.3703 -15.6101 4.95
      vertex -16.5 -15 4.95
      vertex -16.4672 -15.3119 4.95
    endloop
  endfacet
endsolid OpenSCAD_Model
