solid OpenSCAD_Model
  facet normal 0 -1 0
    outer loop
      vertex -16.8136 -19.4836 0
      vertex 16.8136 -19.4836 8.01
      vertex -16.8136 -19.4836 8.01
    endloop
  endfacet
  facet normal 0 -1 -0
    outer loop
      vertex 16.8136 -19.4836 8.01
      vertex -16.8136 -19.4836 0
      vertex 16.8136 -19.4836 0
    endloop
  endfacet
  facet normal 1 -0 0
    outer loop
      vertex 19.5 -16.5 8.01
      vertex 19.5 16.5 0
      vertex 19.5 16.5 8.01
    endloop
  endfacet
  facet normal 1 0 0
    outer loop
      vertex 19.5 16.5 0
      vertex 19.5 -16.5 8.01
      vertex 19.5 -16.5 0
    endloop
  endfacet
  facet normal -0.207914 -0.978147 0
    outer loop
      vertex -17.4271 -19.3532 0
      vertex -16.8136 -19.4836 8.01
      vertex -17.4271 -19.3532 8.01
    endloop
  endfacet
  facet normal -0.207914 -0.978147 -0
    outer loop
      vertex -16.8136 -19.4836 8.01
      vertex -17.4271 -19.3532 0
      vertex -16.8136 -19.4836 0
    endloop
  endfacet
  facet normal 0.207914 0.978147 -0
    outer loop
      vertex 17.4271 19.3532 0
      vertex 16.8136 19.4836 8.01
      vertex 17.4271 19.3532 8.01
    endloop
  endfacet
  facet normal 0.207914 0.978147 0
    outer loop
      vertex 16.8136 19.4836 8.01
      vertex 17.4271 19.3532 0
      vertex 16.8136 19.4836 0
    endloop
  endfacet
  facet normal 0.866027 0.499997 0
    outer loop
      vertex 19.2406 17.7202 8.01
      vertex 18.9271 18.2634 0
      vertex 18.9271 18.2634 8.01
    endloop
  endfacet
  facet normal 0.866027 0.499997 0
    outer loop
      vertex 18.9271 18.2634 0
      vertex 19.2406 17.7202 8.01
      vertex 19.2406 17.7202 0
    endloop
  endfacet
  facet normal 0.994522 0.104529 0
    outer loop
      vertex 19.5 16.5 8.01
      vertex 19.4344 17.1237 0
      vertex 19.4344 17.1237 8.01
    endloop
  endfacet
  facet normal 0.994522 0.104529 0
    outer loop
      vertex 19.4344 17.1237 0
      vertex 19.5 16.5 8.01
      vertex 19.5 16.5 0
    endloop
  endfacet
  facet normal -0.866027 0.499997 0
    outer loop
      vertex -19.2406 17.7202 0
      vertex -18.9271 18.2634 8.01
      vertex -18.9271 18.2634 0
    endloop
  endfacet
  facet normal -0.866027 0.499997 0
    outer loop
      vertex -18.9271 18.2634 8.01
      vertex -19.2406 17.7202 0
      vertex -19.2406 17.7202 8.01
    endloop
  endfacet
  facet normal 0.951056 -0.309018 0
    outer loop
      vertex 19.2406 -17.7202 8.01
      vertex 19.4344 -17.1237 0
      vertex 19.4344 -17.1237 8.01
    endloop
  endfacet
  facet normal 0.951056 -0.309018 0
    outer loop
      vertex 19.4344 -17.1237 0
      vertex 19.2406 -17.7202 8.01
      vertex 19.2406 -17.7202 0
    endloop
  endfacet
  facet normal 0.994522 -0.104529 0
    outer loop
      vertex 19.4344 -17.1237 8.01
      vertex 19.5 -16.5 0
      vertex 19.5 -16.5 8.01
    endloop
  endfacet
  facet normal 0.994522 -0.104529 0
    outer loop
      vertex 19.5 -16.5 0
      vertex 19.4344 -17.1237 8.01
      vertex 19.4344 -17.1237 0
    endloop
  endfacet
  facet normal 0.587785 -0.809017 0
    outer loop
      vertex 18 -19.0981 0
      vertex 18.5074 -18.7294 8.01
      vertex 18 -19.0981 8.01
    endloop
  endfacet
  facet normal 0.587785 -0.809017 0
    outer loop
      vertex 18.5074 -18.7294 8.01
      vertex 18 -19.0981 0
      vertex 18.5074 -18.7294 0
    endloop
  endfacet
  facet normal -0.406736 -0.913546 0
    outer loop
      vertex -18 -19.0981 0
      vertex -17.4271 -19.3532 8.01
      vertex -18 -19.0981 8.01
    endloop
  endfacet
  facet normal -0.406736 -0.913546 -0
    outer loop
      vertex -17.4271 -19.3532 8.01
      vertex -18 -19.0981 0
      vertex -17.4271 -19.3532 0
    endloop
  endfacet
  facet normal 0 1 -0
    outer loop
      vertex 16.8136 19.4836 0
      vertex -16.8136 19.4836 8.01
      vertex 16.8136 19.4836 8.01
    endloop
  endfacet
  facet normal 0 1 0
    outer loop
      vertex -16.8136 19.4836 8.01
      vertex 16.8136 19.4836 0
      vertex -16.8136 19.4836 0
    endloop
  endfacet
  facet normal 0.951056 0.309018 0
    outer loop
      vertex 19.4344 17.1237 8.01
      vertex 19.2406 17.7202 0
      vertex 19.2406 17.7202 8.01
    endloop
  endfacet
  facet normal 0.951056 0.309018 0
    outer loop
      vertex 19.2406 17.7202 0
      vertex 19.4344 17.1237 8.01
      vertex 19.4344 17.1237 0
    endloop
  endfacet
  facet normal 0.587785 0.809017 -0
    outer loop
      vertex 18.5074 18.7294 0
      vertex 18 19.0981 8.01
      vertex 18.5074 18.7294 8.01
    endloop
  endfacet
  facet normal 0.587785 0.809017 0
    outer loop
      vertex 18 19.0981 8.01
      vertex 18.5074 18.7294 0
      vertex 18 19.0981 0
    endloop
  endfacet
  facet normal 0.406736 0.913546 -0
    outer loop
      vertex 18 19.0981 0
      vertex 17.4271 19.3532 8.01
      vertex 18 19.0981 8.01
    endloop
  endfacet
  facet normal 0.406736 0.913546 0
    outer loop
      vertex 17.4271 19.3532 8.01
      vertex 18 19.0981 0
      vertex 17.4271 19.3532 0
    endloop
  endfacet
  facet normal 0.743144 0.669131 0
    outer loop
      vertex 18.9271 18.2634 8.01
      vertex 18.5074 18.7294 0
      vertex 18.5074 18.7294 8.01
    endloop
  endfacet
  facet normal 0.743144 0.669131 0
    outer loop
      vertex 18.5074 18.7294 0
      vertex 18.9271 18.2634 8.01
      vertex 18.9271 18.2634 0
    endloop
  endfacet
  facet normal -1 0 0
    outer loop
      vertex -19.5 -16.5 0
      vertex -19.5 16.5 8.01
      vertex -19.5 16.5 0
    endloop
  endfacet
  facet normal -1 -0 0
    outer loop
      vertex -19.5 16.5 8.01
      vertex -19.5 -16.5 0
      vertex -19.5 -16.5 8.01
    endloop
  endfacet
  facet normal 0.866027 -0.499997 0
    outer loop
      vertex 18.9271 -18.2634 8.01
      vertex 19.2406 -17.7202 0
      vertex 19.2406 -17.7202 8.01
    endloop
  endfacet
  facet normal 0.866027 -0.499997 0
    outer loop
      vertex 19.2406 -17.7202 0
      vertex 18.9271 -18.2634 8.01
      vertex 18.9271 -18.2634 0
    endloop
  endfacet
  facet normal 0.743144 -0.669131 0
    outer loop
      vertex 18.5074 -18.7294 8.01
      vertex 18.9271 -18.2634 0
      vertex 18.9271 -18.2634 8.01
    endloop
  endfacet
  facet normal 0.743144 -0.669131 0
    outer loop
      vertex 18.9271 -18.2634 0
      vertex 18.5074 -18.7294 8.01
      vertex 18.5074 -18.7294 0
    endloop
  endfacet
  facet normal -0.743144 0.669131 0
    outer loop
      vertex -18.9271 18.2634 0
      vertex -18.5074 18.7294 8.01
      vertex -18.5074 18.7294 0
    endloop
  endfacet
  facet normal -0.743144 0.669131 0
    outer loop
      vertex -18.5074 18.7294 8.01
      vertex -18.9271 18.2634 0
      vertex -18.9271 18.2634 8.01
    endloop
  endfacet
  facet normal -0.743144 -0.669131 0
    outer loop
      vertex -18.5074 -18.7294 0
      vertex -18.9271 -18.2634 8.01
      vertex -18.9271 -18.2634 0
    endloop
  endfacet
  facet normal -0.743144 -0.669131 0
    outer loop
      vertex -18.9271 -18.2634 8.01
      vertex -18.5074 -18.7294 0
      vertex -18.5074 -18.7294 8.01
    endloop
  endfacet
  facet normal 0 0 -1
    outer loop
      vertex 16.8136 -19.4836 0
      vertex 19.5 -16.5 0
      vertex 19.4344 -17.1237 0
    endloop
  endfacet
  facet normal 0 0 -1
    outer loop
      vertex -19.5 -16.5 0
      vertex 19.5 -16.5 0
      vertex 16.8136 -19.4836 0
    endloop
  endfacet
  facet normal 0 0 -1
    outer loop
      vertex 16.8136 -19.4836 0
      vertex 19.4344 -17.1237 0
      vertex 19.2406 -17.7202 0
    endloop
  endfacet
  facet normal 0 0 -1
    outer loop
      vertex 19.5 -16.5 0
      vertex -19.5 -16.5 0
      vertex 19.5 16.5 0
    endloop
  endfacet
  facet normal 0 0 -1
    outer loop
      vertex 16.8136 -19.4836 0
      vertex 19.2406 -17.7202 0
      vertex 18.9271 -18.2634 0
    endloop
  endfacet
  facet normal 0 0 -1
    outer loop
      vertex 19.5 16.5 0
      vertex 16.8136 19.4836 0
      vertex 19.4344 17.1237 0
    endloop
  endfacet
  facet normal 0 0 -1
    outer loop
      vertex 16.8136 -19.4836 0
      vertex 18.9271 -18.2634 0
      vertex 18.5074 -18.7294 0
    endloop
  endfacet
  facet normal 0 0 -1
    outer loop
      vertex 19.4344 17.1237 0
      vertex 16.8136 19.4836 0
      vertex 19.2406 17.7202 0
    endloop
  endfacet
  facet normal 0 0 -1
    outer loop
      vertex 16.8136 -19.4836 0
      vertex 18.5074 -18.7294 0
      vertex 18 -19.0981 0
    endloop
  endfacet
  facet normal 0 0 -1
    outer loop
      vertex 19.2406 17.7202 0
      vertex 16.8136 19.4836 0
      vertex 18.9271 18.2634 0
    endloop
  endfacet
  facet normal 0 0 -1
    outer loop
      vertex 16.8136 -19.4836 0
      vertex 18 -19.0981 0
      vertex 17.4271 -19.3532 0
    endloop
  endfacet
  facet normal 0 0 -1
    outer loop
      vertex 18.9271 18.2634 0
      vertex 16.8136 19.4836 0
      vertex 18.5074 18.7294 0
    endloop
  endfacet
  facet normal 0 0 -1
    outer loop
      vertex 18.5074 18.7294 0
      vertex 16.8136 19.4836 0
      vertex 18 19.0981 0
    endloop
  endfacet
  facet normal 0 0 -1
    outer loop
      vertex 18 19.0981 0
      vertex 16.8136 19.4836 0
      vertex 17.4271 19.3532 0
    endloop
  endfacet
  facet normal 0 0 -1
    outer loop
      vertex -19.5 -16.5 0
      vertex 16.8136 -19.4836 0
      vertex -16.8136 -19.4836 0
    endloop
  endfacet
  facet normal 0 0 -1
    outer loop
      vertex -19.5 16.5 0
      vertex 19.5 16.5 0
      vertex -19.5 -16.5 0
    endloop
  endfacet
  facet normal 0 0 -1
    outer loop
      vertex -19.5 -16.5 0
      vertex -16.8136 -19.4836 0
      vertex -17.4271 -19.3532 0
    endloop
  endfacet
  facet normal 0 0 -1
    outer loop
      vertex 19.5 16.5 0
      vertex -19.5 16.5 0
      vertex 16.8136 19.4836 0
    endloop
  endfacet
  facet normal 0 0 -1
    outer loop
      vertex -19.5 -16.5 0
      vertex -17.4271 -19.3532 0
      vertex -18 -19.0981 0
    endloop
  endfacet
  facet normal -0 0 -1
    outer loop
      vertex 16.8136 19.4836 0
      vertex -19.5 16.5 0
      vertex -16.8136 19.4836 0
    endloop
  endfacet
  facet normal 0 0 -1
    outer loop
      vertex -19.5 -16.5 0
      vertex -18 -19.0981 0
      vertex -18.5074 -18.7294 0
    endloop
  endfacet
  facet normal 0 0 -1
    outer loop
      vertex -16.8136 19.4836 0
      vertex -19.5 16.5 0
      vertex -17.4271 19.3532 0
    endloop
  endfacet
  facet normal 0 0 -1
    outer loop
      vertex -19.5 -16.5 0
      vertex -18.5074 -18.7294 0
      vertex -18.9271 -18.2634 0
    endloop
  endfacet
  facet normal 0 0 -1
    outer loop
      vertex -17.4271 19.3532 0
      vertex -19.5 16.5 0
      vertex -18 19.0981 0
    endloop
  endfacet
  facet normal 0 0 -1
    outer loop
      vertex -19.5 -16.5 0
      vertex -18.9271 -18.2634 0
      vertex -19.2406 -17.7202 0
    endloop
  endfacet
  facet normal 0 0 -1
    outer loop
      vertex -18 19.0981 0
      vertex -19.5 16.5 0
      vertex -18.5074 18.7294 0
    endloop
  endfacet
  facet normal 0 0 -1
    outer loop
      vertex -19.5 -16.5 0
      vertex -19.2406 -17.7202 0
      vertex -19.4344 -17.1237 0
    endloop
  endfacet
  facet normal 0 0 -1
    outer loop
      vertex -18.5074 18.7294 0
      vertex -19.5 16.5 0
      vertex -18.9271 18.2634 0
    endloop
  endfacet
  facet normal 0 0 -1
    outer loop
      vertex -18.9271 18.2634 0
      vertex -19.5 16.5 0
      vertex -19.2406 17.7202 0
    endloop
  endfacet
  facet normal 0 0 -1
    outer loop
      vertex -19.2406 17.7202 0
      vertex -19.5 16.5 0
      vertex -19.4344 17.1237 0
    endloop
  endfacet
  facet normal -0.994522 0.104529 0
    outer loop
      vertex -19.5 16.5 0
      vertex -19.4344 17.1237 8.01
      vertex -19.4344 17.1237 0
    endloop
  endfacet
  facet normal -0.994522 0.104529 0
    outer loop
      vertex -19.4344 17.1237 8.01
      vertex -19.5 16.5 0
      vertex -19.5 16.5 8.01
    endloop
  endfacet
  facet normal 0 0 1
    outer loop
      vertex 16.2135 15.8817 8.01
      vertex 19.5 16.5 8.01
      vertex 19.4344 17.1237 8.01
    endloop
  endfacet
  facet normal 0 0 1
    outer loop
      vertex 19.5 16.5 8.01
      vertex 16.5 15 8.01
      vertex 19.5 -16.5 8.01
    endloop
  endfacet
  facet normal 0 0 1
    outer loop
      vertex 16.2135 15.8817 8.01
      vertex 19.4344 17.1237 8.01
      vertex 19.2406 17.7202 8.01
    endloop
  endfacet
  facet normal -0 0 1
    outer loop
      vertex 16.5 -15 8.01
      vertex 19.5 -16.5 8.01
      vertex 16.5 15 8.01
    endloop
  endfacet
  facet normal 0 0 1
    outer loop
      vertex 16.2135 15.8817 8.01
      vertex 19.2406 17.7202 8.01
      vertex 18.9271 18.2634 8.01
    endloop
  endfacet
  facet normal -0 0 1
    outer loop
      vertex 16.4672 -15.3119 8.01
      vertex 19.5 -16.5 8.01
      vertex 16.5 -15 8.01
    endloop
  endfacet
  facet normal 0 0 1
    outer loop
      vertex 16.0037 16.1147 8.01
      vertex 18.9271 18.2634 8.01
      vertex 18.5074 18.7294 8.01
    endloop
  endfacet
  facet normal -0 0 1
    outer loop
      vertex 16.3703 -15.6101 8.01
      vertex 19.5 -16.5 8.01
      vertex 16.4672 -15.3119 8.01
    endloop
  endfacet
  facet normal 0 0 1
    outer loop
      vertex 16.0037 16.1147 8.01
      vertex 18.5074 18.7294 8.01
      vertex 18 19.0981 8.01
    endloop
  endfacet
  facet normal -0 0 1
    outer loop
      vertex 16.2135 -15.8817 8.01
      vertex 19.5 -16.5 8.01
      vertex 16.3703 -15.6101 8.01
    endloop
  endfacet
  facet normal 0 0 1
    outer loop
      vertex 16.0037 16.1147 8.01
      vertex 18 19.0981 8.01
      vertex 17.4271 19.3532 8.01
    endloop
  endfacet
  facet normal 0 0 1
    outer loop
      vertex 19.5 -16.5 8.01
      vertex 16.2135 -15.8817 8.01
      vertex 19.4344 -17.1237 8.01
    endloop
  endfacet
  facet normal 0 0 1
    outer loop
      vertex 15.75 16.299 8.01
      vertex 17.4271 19.3532 8.01
      vertex 16.8136 19.4836 8.01
    endloop
  endfacet
  facet normal 0 0 1
    outer loop
      vertex 19.4344 -17.1237 8.01
      vertex 16.2135 -15.8817 8.01
      vertex 19.2406 -17.7202 8.01
    endloop
  endfacet
  facet normal 0 0 1
    outer loop
      vertex 19.2406 -17.7202 8.01
      vertex 16.2135 -15.8817 8.01
      vertex 18.9271 -18.2634 8.01
    endloop
  endfacet
  facet normal 0 0 1
    outer loop
      vertex 19.5 16.5 8.01
      vertex 16.4672 15.3119 8.01
      vertex 16.5 15 8.01
    endloop
  endfacet
  facet normal 0 0 1
    outer loop
      vertex 19.5 16.5 8.01
      vertex 16.3703 15.6101 8.01
      vertex 16.4672 15.3119 8.01
    endloop
  endfacet
  facet normal 0 0 1
    outer loop
      vertex 19.5 16.5 8.01
      vertex 16.2135 15.8817 8.01
      vertex 16.3703 15.6101 8.01
    endloop
  endfacet
  facet normal 0 0 1
    outer loop
      vertex 18.9271 18.2634 8.01
      vertex 16.0037 16.1147 8.01
      vertex 16.2135 15.8817 8.01
    endloop
  endfacet
  facet normal 0 0 1
    outer loop
      vertex 17.4271 19.3532 8.01
      vertex 15.75 16.299 8.01
      vertex 16.0037 16.1147 8.01
    endloop
  endfacet
  facet normal 0 0 1
    outer loop
      vertex 16.8136 19.4836 8.01
      vertex 15.4635 16.4266 8.01
      vertex 15.75 16.299 8.01
    endloop
  endfacet
  facet normal 0 0 1
    outer loop
      vertex 16.8136 19.4836 8.01
      vertex 15.1568 16.4918 8.01
      vertex 15.4635 16.4266 8.01
    endloop
  endfacet
  facet normal 0 0 1
    outer loop
      vertex 16.8136 19.4836 8.01
      vertex -15.1568 16.4918 8.01
      vertex 15.1568 16.4918 8.01
    endloop
  endfacet
  facet normal 0 0 1
    outer loop
      vertex -16.0037 16.1147 8.01
      vertex -18.9271 18.2634 8.01
      vertex -16.2135 15.8817 8.01
    endloop
  endfacet
  facet normal -0 0 1
    outer loop
      vertex -18.9271 18.2634 8.01
      vertex -16.0037 16.1147 8.01
      vertex -18.5074 18.7294 8.01
    endloop
  endfacet
  facet normal -0 0 1
    outer loop
      vertex -18.5074 18.7294 8.01
      vertex -16.0037 16.1147 8.01
      vertex -18 19.0981 8.01
    endloop
  endfacet
  facet normal -0 0 1
    outer loop
      vertex -18 19.0981 8.01
      vertex -16.0037 16.1147 8.01
      vertex -17.4271 19.3532 8.01
    endloop
  endfacet
  facet normal 0 0 1
    outer loop
      vertex -15.75 16.299 8.01
      vertex -17.4271 19.3532 8.01
      vertex -16.0037 16.1147 8.01
    endloop
  endfacet
  facet normal -0 0 1
    outer loop
      vertex -17.4271 19.3532 8.01
      vertex -15.75 16.299 8.01
      vertex -16.8136 19.4836 8.01
    endloop
  endfacet
  facet normal 0 0 1
    outer loop
      vertex -15.4635 16.4266 8.01
      vertex -16.8136 19.4836 8.01
      vertex -15.75 16.299 8.01
    endloop
  endfacet
  facet normal 0 0 1
    outer loop
      vertex -15.1568 16.4918 8.01
      vertex -16.8136 19.4836 8.01
      vertex -15.4635 16.4266 8.01
    endloop
  endfacet
  facet normal -0 0 1
    outer loop
      vertex -16.8136 19.4836 8.01
      vertex -15.1568 16.4918 8.01
      vertex 16.8136 19.4836 8.01
    endloop
  endfacet
  facet normal -0 0 1
    outer loop
      vertex 16.0037 -16.1147 8.01
      vertex 18.9271 -18.2634 8.01
      vertex 16.2135 -15.8817 8.01
    endloop
  endfacet
  facet normal 0 0 1
    outer loop
      vertex 18.9271 -18.2634 8.01
      vertex 16.0037 -16.1147 8.01
      vertex 18.5074 -18.7294 8.01
    endloop
  endfacet
  facet normal 0 0 1
    outer loop
      vertex 18.5074 -18.7294 8.01
      vertex 16.0037 -16.1147 8.01
      vertex 18 -19.0981 8.01
    endloop
  endfacet
  facet normal 0 0 1
    outer loop
      vertex 18 -19.0981 8.01
      vertex 16.0037 -16.1147 8.01
      vertex 17.4271 -19.3532 8.01
    endloop
  endfacet
  facet normal -0 0 1
    outer loop
      vertex 15.75 -16.299 8.01
      vertex 17.4271 -19.3532 8.01
      vertex 16.0037 -16.1147 8.01
    endloop
  endfacet
  facet normal 0 0 1
    outer loop
      vertex 17.4271 -19.3532 8.01
      vertex 15.75 -16.299 8.01
      vertex 16.8136 -19.4836 8.01
    endloop
  endfacet
  facet normal -0 0 1
    outer loop
      vertex 15.4635 -16.4266 8.01
      vertex 16.8136 -19.4836 8.01
      vertex 15.75 -16.299 8.01
    endloop
  endfacet
  facet normal -0 0 1
    outer loop
      vertex 15.1568 -16.4918 8.01
      vertex 16.8136 -19.4836 8.01
      vertex 15.4635 -16.4266 8.01
    endloop
  endfacet
  facet normal -0 0 1
    outer loop
      vertex -15.1568 -16.4918 8.01
      vertex 16.8136 -19.4836 8.01
      vertex 15.1568 -16.4918 8.01
    endloop
  endfacet
  facet normal 0 0 1
    outer loop
      vertex -15.1568 -16.4918 8.01
      vertex -16.8136 -19.4836 8.01
      vertex 16.8136 -19.4836 8.01
    endloop
  endfacet
  facet normal 0 0 1
    outer loop
      vertex -15.4635 -16.4266 8.01
      vertex -16.8136 -19.4836 8.01
      vertex -15.1568 -16.4918 8.01
    endloop
  endfacet
  facet normal 0 0 1
    outer loop
      vertex -15.75 -16.299 8.01
      vertex -16.8136 -19.4836 8.01
      vertex -15.4635 -16.4266 8.01
    endloop
  endfacet
  facet normal 0 0 1
    outer loop
      vertex -17.4271 -19.3532 8.01
      vertex -15.75 -16.299 8.01
      vertex -16.0037 -16.1147 8.01
    endloop
  endfacet
  facet normal 0 0 1
    outer loop
      vertex -18.9271 -18.2634 8.01
      vertex -16.0037 -16.1147 8.01
      vertex -16.2135 -15.8817 8.01
    endloop
  endfacet
  facet normal 0 0 1
    outer loop
      vertex -19.5 -16.5 8.01
      vertex -16.2135 -15.8817 8.01
      vertex -16.3703 -15.6101 8.01
    endloop
  endfacet
  facet normal 0 0 1
    outer loop
      vertex -19.5 -16.5 8.01
      vertex -16.3703 -15.6101 8.01
      vertex -16.4672 -15.3119 8.01
    endloop
  endfacet
  facet normal 0 0 1
    outer loop
      vertex -19.5 -16.5 8.01
      vertex -16.4672 -15.3119 8.01
      vertex -16.5 -15 8.01
    endloop
  endfacet
  facet normal 0 0 1
    outer loop
      vertex -16.5 15 8.01
      vertex -19.5 16.5 8.01
      vertex -16.5 -15 8.01
    endloop
  endfacet
  facet normal -0 0 1
    outer loop
      vertex -19.2406 17.7202 8.01
      vertex -16.2135 15.8817 8.01
      vertex -18.9271 18.2634 8.01
    endloop
  endfacet
  facet normal 0 0 1
    outer loop
      vertex -19.5 -16.5 8.01
      vertex -16.5 -15 8.01
      vertex -19.5 16.5 8.01
    endloop
  endfacet
  facet normal -0 0 1
    outer loop
      vertex -19.4344 17.1237 8.01
      vertex -16.2135 15.8817 8.01
      vertex -19.2406 17.7202 8.01
    endloop
  endfacet
  facet normal 0 0 1
    outer loop
      vertex -16.2135 -15.8817 8.01
      vertex -19.5 -16.5 8.01
      vertex -19.4344 -17.1237 8.01
    endloop
  endfacet
  facet normal -0 0 1
    outer loop
      vertex -19.5 16.5 8.01
      vertex -16.2135 15.8817 8.01
      vertex -19.4344 17.1237 8.01
    endloop
  endfacet
  facet normal 0 0 1
    outer loop
      vertex -15.75 -16.299 8.01
      vertex -17.4271 -19.3532 8.01
      vertex -16.8136 -19.4836 8.01
    endloop
  endfacet
  facet normal 0 0 1
    outer loop
      vertex -16.2135 15.8817 8.01
      vertex -19.5 16.5 8.01
      vertex -16.3703 15.6101 8.01
    endloop
  endfacet
  facet normal 0 0 1
    outer loop
      vertex -16.0037 -16.1147 8.01
      vertex -18 -19.0981 8.01
      vertex -17.4271 -19.3532 8.01
    endloop
  endfacet
  facet normal 0 0 1
    outer loop
      vertex -16.3703 15.6101 8.01
      vertex -19.5 16.5 8.01
      vertex -16.4672 15.3119 8.01
    endloop
  endfacet
  facet normal 0 0 1
    outer loop
      vertex -16.0037 -16.1147 8.01
      vertex -18.5074 -18.7294 8.01
      vertex -18 -19.0981 8.01
    endloop
  endfacet
  facet normal 0 0 1
    outer loop
      vertex -16.4672 15.3119 8.01
      vertex -19.5 16.5 8.01
      vertex -16.5 15 8.01
    endloop
  endfacet
  facet normal 0 0 1
    outer loop
      vertex -16.0037 -16.1147 8.01
      vertex -18.9271 -18.2634 8.01
      vertex -18.5074 -18.7294 8.01
    endloop
  endfacet
  facet normal 0 0 1
    outer loop
      vertex -16.2135 -15.8817 8.01
      vertex -19.2406 -17.7202 8.01
      vertex -18.9271 -18.2634 8.01
    endloop
  endfacet
  facet normal 0 0 1
    outer loop
      vertex -16.2135 -15.8817 8.01
      vertex -19.4344 -17.1237 8.01
      vertex -19.2406 -17.7202 8.01
    endloop
  endfacet
  facet normal 0.406736 -0.913546 0
    outer loop
      vertex 17.4271 -19.3532 0
      vertex 18 -19.0981 8.01
      vertex 17.4271 -19.3532 8.01
    endloop
  endfacet
  facet normal 0.406736 -0.913546 0
    outer loop
      vertex 18 -19.0981 8.01
      vertex 17.4271 -19.3532 0
      vertex 18 -19.0981 0
    endloop
  endfacet
  facet normal 0.207914 -0.978147 0
    outer loop
      vertex 16.8136 -19.4836 0
      vertex 17.4271 -19.3532 8.01
      vertex 16.8136 -19.4836 8.01
    endloop
  endfacet
  facet normal 0.207914 -0.978147 0
    outer loop
      vertex 17.4271 -19.3532 8.01
      vertex 16.8136 -19.4836 0
      vertex 17.4271 -19.3532 0
    endloop
  endfacet
  facet normal -0.406736 0.913546 0
    outer loop
      vertex -17.4271 19.3532 0
      vertex -18 19.0981 8.01
      vertex -17.4271 19.3532 8.01
    endloop
  endfacet
  facet normal -0.406736 0.913546 0
    outer loop
      vertex -18 19.0981 8.01
      vertex -17.4271 19.3532 0
      vertex -18 19.0981 0
    endloop
  endfacet
  facet normal -0.207914 0.978147 0
    outer loop
      vertex -16.8136 19.4836 0
      vertex -17.4271 19.3532 8.01
      vertex -16.8136 19.4836 8.01
    endloop
  endfacet
  facet normal -0.207914 0.978147 0
    outer loop
      vertex -17.4271 19.3532 8.01
      vertex -16.8136 19.4836 0
      vertex -17.4271 19.3532 0
    endloop
  endfacet
  facet normal -0.587785 0.809017 0
    outer loop
      vertex -18 19.0981 0
      vertex -18.5074 18.7294 8.01
      vertex -18 19.0981 8.01
    endloop
  endfacet
  facet normal -0.587785 0.809017 0
    outer loop
      vertex -18.5074 18.7294 8.01
      vertex -18 19.0981 0
      vertex -18.5074 18.7294 0
    endloop
  endfacet
  facet normal -0.587785 -0.809017 0
    outer loop
      vertex -18.5074 -18.7294 0
      vertex -18 -19.0981 8.01
      vertex -18.5074 -18.7294 8.01
    endloop
  endfacet
  facet normal -0.587785 -0.809017 -0
    outer loop
      vertex -18 -19.0981 8.01
      vertex -18.5074 -18.7294 0
      vertex -18 -19.0981 0
    endloop
  endfacet
  facet normal -0.994522 -0.104529 0
    outer loop
      vertex -19.4344 -17.1237 0
      vertex -19.5 -16.5 8.01
      vertex -19.5 -16.5 0
    endloop
  endfacet
  facet normal -0.994522 -0.104529 0
    outer loop
      vertex -19.5 -16.5 8.01
      vertex -19.4344 -17.1237 0
      vertex -19.4344 -17.1237 8.01
    endloop
  endfacet
  facet normal -0.951056 0.309018 0
    outer loop
      vertex -19.4344 17.1237 0
      vertex -19.2406 17.7202 8.01
      vertex -19.2406 17.7202 0
    endloop
  endfacet
  facet normal -0.951056 0.309018 0
    outer loop
      vertex -19.2406 17.7202 8.01
      vertex -19.4344 17.1237 0
      vertex -19.4344 17.1237 8.01
    endloop
  endfacet
  facet normal -0.951056 -0.309018 0
    outer loop
      vertex -19.2406 -17.7202 0
      vertex -19.4344 -17.1237 8.01
      vertex -19.4344 -17.1237 0
    endloop
  endfacet
  facet normal -0.951056 -0.309018 0
    outer loop
      vertex -19.4344 -17.1237 8.01
      vertex -19.2406 -17.7202 0
      vertex -19.2406 -17.7202 8.01
    endloop
  endfacet
  facet normal -0.866027 -0.499997 0
    outer loop
      vertex -18.9271 -18.2634 0
      vertex -19.2406 -17.7202 8.01
      vertex -19.2406 -17.7202 0
    endloop
  endfacet
  facet normal -0.866027 -0.499997 0
    outer loop
      vertex -19.2406 -17.7202 8.01
      vertex -18.9271 -18.2634 0
      vertex -18.9271 -18.2634 8.01
    endloop
  endfacet
  facet normal -0.994522 -0.104532 0
    outer loop
      vertex 16.5 15 4.95
      vertex 16.4672 15.3119 8.01
      vertex 16.4672 15.3119 4.95
    endloop
  endfacet
  facet normal -0.994522 -0.104532 0
    outer loop
      vertex 16.4672 15.3119 8.01
      vertex 16.5 15 4.95
      vertex 16.5 15 8.01
    endloop
  endfacet
  facet normal 0 1 -0
    outer loop
      vertex 15.1568 -16.4918 4.95
      vertex -15.1568 -16.4918 8.01
      vertex 15.1568 -16.4918 8.01
    endloop
  endfacet
  facet normal 0 1 0
    outer loop
      vertex -15.1568 -16.4918 8.01
      vertex 15.1568 -16.4918 4.95
      vertex -15.1568 -16.4918 4.95
    endloop
  endfacet
  facet normal -0.207915 -0.978147 0
    outer loop
      vertex 15.1568 16.4918 4.95
      vertex 15.4635 16.4266 8.01
      vertex 15.1568 16.4918 8.01
    endloop
  endfacet
  facet normal -0.207915 -0.978147 -0
    outer loop
      vertex 15.4635 16.4266 8.01
      vertex 15.1568 16.4918 4.95
      vertex 15.4635 16.4266 4.95
    endloop
  endfacet
  facet normal -1 0 0
    outer loop
      vertex 16.5 -15 4.95
      vertex 16.5 15 8.01
      vertex 16.5 15 4.95
    endloop
  endfacet
  facet normal -1 -0 0
    outer loop
      vertex 16.5 15 8.01
      vertex 16.5 -15 4.95
      vertex 16.5 -15 8.01
    endloop
  endfacet
  facet normal 0 -1 0
    outer loop
      vertex -15.1568 16.4918 4.95
      vertex 15.1568 16.4918 8.01
      vertex -15.1568 16.4918 8.01
    endloop
  endfacet
  facet normal 0 -1 -0
    outer loop
      vertex 15.1568 16.4918 8.01
      vertex -15.1568 16.4918 4.95
      vertex 15.1568 16.4918 4.95
    endloop
  endfacet
  facet normal -0.743146 -0.669129 0
    outer loop
      vertex 16.2135 15.8817 4.95
      vertex 16.0037 16.1147 8.01
      vertex 16.0037 16.1147 4.95
    endloop
  endfacet
  facet normal -0.743146 -0.669129 0
    outer loop
      vertex 16.0037 16.1147 8.01
      vertex 16.2135 15.8817 4.95
      vertex 16.2135 15.8817 8.01
    endloop
  endfacet
  facet normal -0.587788 0.809015 0
    outer loop
      vertex 16.0037 -16.1147 4.95
      vertex 15.75 -16.299 8.01
      vertex 16.0037 -16.1147 8.01
    endloop
  endfacet
  facet normal -0.587788 0.809015 0
    outer loop
      vertex 15.75 -16.299 8.01
      vertex 16.0037 -16.1147 4.95
      vertex 15.75 -16.299 4.95
    endloop
  endfacet
  facet normal 0.994522 0.104532 0
    outer loop
      vertex -16.4672 -15.3119 8.01
      vertex -16.5 -15 4.95
      vertex -16.5 -15 8.01
    endloop
  endfacet
  facet normal 0.994522 0.104532 0
    outer loop
      vertex -16.5 -15 4.95
      vertex -16.4672 -15.3119 8.01
      vertex -16.4672 -15.3119 4.95
    endloop
  endfacet
  facet normal 0.207915 0.978147 -0
    outer loop
      vertex -15.1568 -16.4918 4.95
      vertex -15.4635 -16.4266 8.01
      vertex -15.1568 -16.4918 8.01
    endloop
  endfacet
  facet normal 0.207915 0.978147 0
    outer loop
      vertex -15.4635 -16.4266 8.01
      vertex -15.1568 -16.4918 4.95
      vertex -15.4635 -16.4266 4.95
    endloop
  endfacet
  facet normal 1 -0 0
    outer loop
      vertex -16.5 -15 8.01
      vertex -16.5 15 4.95
      vertex -16.5 15 8.01
    endloop
  endfacet
  facet normal 1 0 0
    outer loop
      vertex -16.5 15 4.95
      vertex -16.5 -15 8.01
      vertex -16.5 -15 4.95
    endloop
  endfacet
  facet normal 0.587786 -0.809016 0
    outer loop
      vertex -16.0037 16.1147 4.95
      vertex -15.75 16.299 8.01
      vertex -16.0037 16.1147 8.01
    endloop
  endfacet
  facet normal 0.587786 -0.809016 0
    outer loop
      vertex -15.75 16.299 8.01
      vertex -16.0037 16.1147 4.95
      vertex -15.75 16.299 4.95
    endloop
  endfacet
  facet normal -0.406735 -0.913546 0
    outer loop
      vertex 15.4635 16.4266 4.95
      vertex 15.75 16.299 8.01
      vertex 15.4635 16.4266 8.01
    endloop
  endfacet
  facet normal -0.406735 -0.913546 -0
    outer loop
      vertex 15.75 16.299 8.01
      vertex 15.4635 16.4266 4.95
      vertex 15.75 16.299 4.95
    endloop
  endfacet
  facet normal -0.587788 -0.809015 0
    outer loop
      vertex 15.75 16.299 4.95
      vertex 16.0037 16.1147 8.01
      vertex 15.75 16.299 8.01
    endloop
  endfacet
  facet normal -0.587788 -0.809015 -0
    outer loop
      vertex 16.0037 16.1147 8.01
      vertex 15.75 16.299 4.95
      vertex 16.0037 16.1147 4.95
    endloop
  endfacet
  facet normal -0.866024 -0.500002 0
    outer loop
      vertex 16.3703 15.6101 4.95
      vertex 16.2135 15.8817 8.01
      vertex 16.2135 15.8817 4.95
    endloop
  endfacet
  facet normal -0.866024 -0.500002 0
    outer loop
      vertex 16.2135 15.8817 8.01
      vertex 16.3703 15.6101 4.95
      vertex 16.3703 15.6101 8.01
    endloop
  endfacet
  facet normal -0.951057 -0.309016 0
    outer loop
      vertex 16.4672 15.3119 4.95
      vertex 16.3703 15.6101 8.01
      vertex 16.3703 15.6101 4.95
    endloop
  endfacet
  facet normal -0.951057 -0.309016 0
    outer loop
      vertex 16.3703 15.6101 8.01
      vertex 16.4672 15.3119 4.95
      vertex 16.4672 15.3119 8.01
    endloop
  endfacet
  facet normal -0.951057 0.309016 0
    outer loop
      vertex 16.3703 -15.6101 4.95
      vertex 16.4672 -15.3119 8.01
      vertex 16.4672 -15.3119 4.95
    endloop
  endfacet
  facet normal -0.951057 0.309016 0
    outer loop
      vertex 16.4672 -15.3119 8.01
      vertex 16.3703 -15.6101 4.95
      vertex 16.3703 -15.6101 8.01
    endloop
  endfacet
  facet normal 0.406735 0.913546 -0
    outer loop
      vertex -15.4635 -16.4266 4.95
      vertex -15.75 -16.299 8.01
      vertex -15.4635 -16.4266 8.01
    endloop
  endfacet
  facet normal 0.406735 0.913546 0
    outer loop
      vertex -15.75 -16.299 8.01
      vertex -15.4635 -16.4266 4.95
      vertex -15.75 -16.299 4.95
    endloop
  endfacet
  facet normal 0.994522 -0.104532 0
    outer loop
      vertex -16.5 15 8.01
      vertex -16.4672 15.3119 4.95
      vertex -16.4672 15.3119 8.01
    endloop
  endfacet
  facet normal 0.994522 -0.104532 0
    outer loop
      vertex -16.4672 15.3119 4.95
      vertex -16.5 15 8.01
      vertex -16.5 15 4.95
    endloop
  endfacet
  facet normal 0.207915 -0.978147 0
    outer loop
      vertex -15.4635 16.4266 4.95
      vertex -15.1568 16.4918 8.01
      vertex -15.4635 16.4266 8.01
    endloop
  endfacet
  facet normal 0.207915 -0.978147 0
    outer loop
      vertex -15.1568 16.4918 8.01
      vertex -15.4635 16.4266 4.95
      vertex -15.1568 16.4918 4.95
    endloop
  endfacet
  facet normal 0.406736 -0.913546 0
    outer loop
      vertex -15.75 16.299 4.95
      vertex -15.4635 16.4266 8.01
      vertex -15.75 16.299 8.01
    endloop
  endfacet
  facet normal 0.406736 -0.913546 0
    outer loop
      vertex -15.4635 16.4266 8.01
      vertex -15.75 16.299 4.95
      vertex -15.4635 16.4266 4.95
    endloop
  endfacet
  facet normal -0.994522 0.104532 0
    outer loop
      vertex 16.4672 -15.3119 4.95
      vertex 16.5 -15 8.01
      vertex 16.5 -15 4.95
    endloop
  endfacet
  facet normal -0.994522 0.104532 0
    outer loop
      vertex 16.5 -15 8.01
      vertex 16.4672 -15.3119 4.95
      vertex 16.4672 -15.3119 8.01
    endloop
  endfacet
  facet normal -0.406735 0.913546 0
    outer loop
      vertex 15.75 -16.299 4.95
      vertex 15.4635 -16.4266 8.01
      vertex 15.75 -16.299 8.01
    endloop
  endfacet
  facet normal -0.406735 0.913546 0
    outer loop
      vertex 15.4635 -16.4266 8.01
      vertex 15.75 -16.299 4.95
      vertex 15.4635 -16.4266 4.95
    endloop
  endfacet
  facet normal -0.207915 0.978147 0
    outer loop
      vertex 15.4635 -16.4266 4.95
      vertex 15.1568 -16.4918 8.01
      vertex 15.4635 -16.4266 8.01
    endloop
  endfacet
  facet normal -0.207915 0.978147 0
    outer loop
      vertex 15.1568 -16.4918 8.01
      vertex 15.4635 -16.4266 4.95
      vertex 15.1568 -16.4918 4.95
    endloop
  endfacet
  facet normal 0.743146 0.669129 0
    outer loop
      vertex -16.0037 -16.1147 8.01
      vertex -16.2135 -15.8817 4.95
      vertex -16.2135 -15.8817 8.01
    endloop
  endfacet
  facet normal 0.743146 0.669129 0
    outer loop
      vertex -16.2135 -15.8817 4.95
      vertex -16.0037 -16.1147 8.01
      vertex -16.0037 -16.1147 4.95
    endloop
  endfacet
  facet normal 0.951057 -0.309016 0
    outer loop
      vertex -16.4672 15.3119 8.01
      vertex -16.3703 15.6101 4.95
      vertex -16.3703 15.6101 8.01
    endloop
  endfacet
  facet normal 0.951057 -0.309016 0
    outer loop
      vertex -16.3703 15.6101 4.95
      vertex -16.4672 15.3119 8.01
      vertex -16.4672 15.3119 4.95
    endloop
  endfacet
  facet normal 0.866024 -0.500002 0
    outer loop
      vertex -16.3703 15.6101 8.01
      vertex -16.2135 15.8817 4.95
      vertex -16.2135 15.8817 8.01
    endloop
  endfacet
  facet normal 0.866024 -0.500002 0
    outer loop
      vertex -16.2135 15.8817 4.95
      vertex -16.3703 15.6101 8.01
      vertex -16.3703 15.6101 4.95
    endloop
  endfacet
  facet normal 0.743146 -0.669129 0
    outer loop
      vertex -16.2135 15.8817 8.01
      vertex -16.0037 16.1147 4.95
      vertex -16.0037 16.1147 8.01
    endloop
  endfacet
  facet normal 0.743146 -0.669129 0
    outer loop
      vertex -16.0037 16.1147 4.95
      vertex -16.2135 15.8817 8.01
      vertex -16.2135 15.8817 4.95
    endloop
  endfacet
  facet normal -0.866024 0.500002 0
    outer loop
      vertex 16.2135 -15.8817 4.95
      vertex 16.3703 -15.6101 8.01
      vertex 16.3703 -15.6101 4.95
    endloop
  endfacet
  facet normal -0.866024 0.500002 0
    outer loop
      vertex 16.3703 -15.6101 8.01
      vertex 16.2135 -15.8817 4.95
      vertex 16.2135 -15.8817 8.01
    endloop
  endfacet
  facet normal -0.743146 0.669129 0
    outer loop
      vertex 16.0037 -16.1147 4.95
      vertex 16.2135 -15.8817 8.01
      vertex 16.2135 -15.8817 4.95
    endloop
  endfacet
  facet normal -0.743146 0.669129 0
    outer loop
      vertex 16.2135 -15.8817 8.01
      vertex 16.0037 -16.1147 4.95
      vertex 16.0037 -16.1147 8.01
    endloop
  endfacet
  facet normal 0.951057 0.309016 0
    outer loop
      vertex -16.3703 -15.6101 8.01
      vertex -16.4672 -15.3119 4.95
      vertex -16.4672 -15.3119 8.01
    endloop
  endfacet
  facet normal 0.951057 0.309016 0
    outer loop
      vertex -16.4672 -15.3119 4.95
      vertex -16.3703 -15.6101 8.01
      vertex -16.3703 -15.6101 4.95
    endloop
  endfacet
  facet normal 0.866024 0.500002 0
    outer loop
      vertex -16.2135 -15.8817 8.01
      vertex -16.3703 -15.6101 4.95
      vertex -16.3703 -15.6101 8.01
    endloop
  endfacet
  facet normal 0.866024 0.500002 0
    outer loop
      vertex -16.3703 -15.6101 4.95
      vertex -16.2135 -15.8817 8.01
      vertex -16.2135 -15.8817 4.95
    endloop
  endfacet
  facet normal 0.587788 0.809015 -0
    outer loop
      vertex -15.75 -16.299 4.95
      vertex -16.0037 -16.1147 8.01
      vertex -15.75 -16.299 8.01
    endloop
  endfacet
  facet normal 0.587788 0.809015 0
    outer loop
      vertex -16.0037 -16.1147 8.01
      vertex -15.75 -16.299 4.95
      vertex -16.0037 -16.1147 4.95
    endloop
  endfacet
  facet normal 0.695904 0.126262 0.706948
    outer loop
      vertex 2.72539 3.46237 4.95
      vertex 5.01662 1.75224 3
      vertex 4.57079 4.20947 3
    endloop
  endfacet
  facet normal 0.695904 0.126262 0.706948
    outer loop
      vertex 5.01662 1.75224 3
      vertex 2.72539 3.46237 4.95
      vertex 3.05628 1.63864 4.95
    endloop
  endfacet
  facet normal 0 0 1
    outer loop
      vertex 3.28374 6.12737 3
      vertex 5.61135 7.39369 3
      vertex 4.94464 7.89624 3
    endloop
  endfacet
  facet normal 0 0 1
    outer loop
      vertex 5.61135 7.39369 3
      vertex 4.57079 4.20947 3
      vertex 5.01662 1.75224 3
    endloop
  endfacet
  facet normal 0 0 1
    outer loop
      vertex 5.61135 7.39369 3
      vertex 3.28374 6.12737 3
      vertex 4.57079 4.20947 3
    endloop
  endfacet
  facet normal 0 0 1
    outer loop
      vertex 3.09874 8.9882 3
      vertex 3.28374 6.12737 3
      vertex 4.94464 7.89624 3
    endloop
  endfacet
  facet normal 0 0 1
    outer loop
      vertex 3.09874 8.9882 3
      vertex 1.23112 7.39369 3
      vertex 3.28374 6.12737 3
    endloop
  endfacet
  facet normal 0 0 1
    outer loop
      vertex -0.0943756 9.47925 3
      vertex 1.23112 7.39369 3
      vertex 3.09874 8.9882 3
    endloop
  endfacet
  facet normal 0 0 1
    outer loop
      vertex -0.0943756 9.47925 3
      vertex -1.51137 7.89624 3
      vertex 1.23112 7.39369 3
    endloop
  endfacet
  facet normal -0 0 1
    outer loop
      vertex -2.81119 8.32318 3
      vertex -1.51137 7.89624 3
      vertex -0.0943756 9.47925 3
    endloop
  endfacet
  facet normal 0 0 1
    outer loop
      vertex -3.17917 7.89624 3
      vertex -1.51137 7.89624 3
      vertex -2.81119 8.32318 3
    endloop
  endfacet
  facet normal 0 0 1
    outer loop
      vertex -1.51137 7.89624 3
      vertex -3.17917 7.89624 3
      vertex -3.17065 5.92873 3
    endloop
  endfacet
  facet normal 0 0 1
    outer loop
      vertex -4.87498 5.92873 3
      vertex -3.17065 5.92873 3
      vertex -3.17917 7.89624 3
    endloop
  endfacet
  facet normal 0 0 1
    outer loop
      vertex -3.17065 5.92873 3
      vertex -4.87498 5.92873 3
      vertex -4.41087 3.52087 3
    endloop
  endfacet
  facet normal -0 0 1
    outer loop
      vertex -5.34837 5.37949 3
      vertex -4.41087 3.52087 3
      vertex -4.87498 5.92873 3
    endloop
  endfacet
  facet normal 0 0 1
    outer loop
      vertex -6.23217 3.52087 3
      vertex -4.41087 3.52087 3
      vertex -5.34837 5.37949 3
    endloop
  endfacet
  facet normal 0 0 1
    outer loop
      vertex -4.41087 3.52087 3
      vertex -6.23217 3.52087 3
      vertex -5.18759 0.784698 3
    endloop
  endfacet
  facet normal -0 0 1
    outer loop
      vertex -7.22406 1.43494 3
      vertex -5.18759 0.784698 3
      vertex -6.23217 3.52087 3
    endloop
  endfacet
  facet normal 0 0 1
    outer loop
      vertex -7.33856 0.784698 3
      vertex -5.18759 0.784698 3
      vertex -7.22406 1.43494 3
    endloop
  endfacet
  facet normal 0 0 1
    outer loop
      vertex -7.85847 -2.16774 3
      vertex -5.45638 -2.16774 3
      vertex -7.33856 0.784698 3
    endloop
  endfacet
  facet normal 0 0 1
    outer loop
      vertex -5.45638 -2.16774 3
      vertex -6.05095 -7.80975 3
      vertex -5.93201 -7.98824 3
    endloop
  endfacet
  facet normal 0 0 1
    outer loop
      vertex -5.18759 0.784698 3
      vertex -7.33856 0.784698 3
      vertex -5.45638 -2.16774 3
    endloop
  endfacet
  facet normal 0 0 1
    outer loop
      vertex -7.95638 -2.72374 3
      vertex -5.45638 -2.16774 3
      vertex -7.85847 -2.16774 3
    endloop
  endfacet
  facet normal 0 0 1
    outer loop
      vertex -5.45638 -2.16774 3
      vertex -6.89487 -6.54337 3
      vertex -6.05095 -7.80975 3
    endloop
  endfacet
  facet normal 0 0 1
    outer loop
      vertex -6.89487 -6.54337 3
      vertex -7.62693 -4.62541 3
      vertex -7.4351 -5.73268 3
    endloop
  endfacet
  facet normal 0 0 1
    outer loop
      vertex -5.45638 -2.16774 3
      vertex -7.62693 -4.62541 3
      vertex -6.89487 -6.54337 3
    endloop
  endfacet
  facet normal 0 0 1
    outer loop
      vertex -5.45638 -2.16774 3
      vertex -7.95638 -2.72374 3
      vertex -7.62693 -4.62541 3
    endloop
  endfacet
  facet normal 0 0 1
    outer loop
      vertex 5.01662 1.75224 3
      vertex 7.51662 2.30824 3
      vertex 7.18724 4.20947 3
    endloop
  endfacet
  facet normal 0 0 1
    outer loop
      vertex 6.4553 6.12737 3
      vertex 7.18724 4.20947 3
      vertex 6.99536 5.31702 3
    endloop
  endfacet
  facet normal 0 0 1
    outer loop
      vertex 7.51662 2.30824 3
      vertex 5.01662 1.75224 3
      vertex 7.41871 1.75224 3
    endloop
  endfacet
  facet normal 0 0 1
    outer loop
      vertex 7.41871 1.75224 3
      vertex 5.01662 1.75224 3
      vertex 6.89881 -1.20035 3
    endloop
  endfacet
  facet normal 0 0 1
    outer loop
      vertex 7.18724 4.20947 3
      vertex 6.4553 6.12737 3
      vertex 5.01662 1.75224 3
    endloop
  endfacet
  facet normal 0 0 1
    outer loop
      vertex 4.74797 -1.20035 3
      vertex 6.89881 -1.20035 3
      vertex 5.01662 1.75224 3
    endloop
  endfacet
  facet normal 0 0 1
    outer loop
      vertex 5.01662 1.75224 3
      vertex 6.4553 6.12737 3
      vertex 5.61135 7.39369 3
    endloop
  endfacet
  facet normal 0 0 1
    outer loop
      vertex 4.94464 7.89624 3
      vertex 5.61135 7.39369 3
      vertex 5.49236 7.57224 3
    endloop
  endfacet
  facet normal 0 0 1
    outer loop
      vertex 6.89881 -1.20035 3
      vertex 4.74797 -1.20035 3
      vertex 6.78432 -1.85059 3
    endloop
  endfacet
  facet normal 0 0 1
    outer loop
      vertex 6.78432 -1.85059 3
      vertex 4.74797 -1.20035 3
      vertex 5.7924 -3.93687 3
    endloop
  endfacet
  facet normal 0 0 1
    outer loop
      vertex 3.97148 -3.93687 3
      vertex 5.7924 -3.93687 3
      vertex 4.74797 -1.20035 3
    endloop
  endfacet
  facet normal 0 0 1
    outer loop
      vertex 5.7924 -3.93687 3
      vertex 3.97148 -3.93687 3
      vertex 4.90874 -5.79549 3
    endloop
  endfacet
  facet normal 0 0 1
    outer loop
      vertex 4.90874 -5.79549 3
      vertex 3.97148 -3.93687 3
      vertex 4.43515 -6.34508 3
    endloop
  endfacet
  facet normal 0 0 1
    outer loop
      vertex 2.73131 -6.34508 3
      vertex 4.43515 -6.34508 3
      vertex 3.97148 -3.93687 3
    endloop
  endfacet
  facet normal 0 0 1
    outer loop
      vertex 4.43515 -6.34508 3
      vertex 2.73131 -6.34508 3
      vertex 2.73959 -8.31274 3
    endloop
  endfacet
  facet normal 0 0 1
    outer loop
      vertex 1.07161 -8.31274 3
      vertex 2.73959 -8.31274 3
      vertex 2.73131 -6.34508 3
    endloop
  endfacet
  facet normal 0 0 1
    outer loop
      vertex 2.73959 -8.31274 3
      vertex 1.07161 -8.31274 3
      vertex 2.37184 -8.73952 3
    endloop
  endfacet
  facet normal 0 0 1
    outer loop
      vertex 1.07161 -8.31274 3
      vertex -0.344376 -9.89574 3
      vertex 2.37184 -8.73952 3
    endloop
  endfacet
  facet normal 0 0 1
    outer loop
      vertex -1.6709 -7.80975 3
      vertex -0.344376 -9.89574 3
      vertex 1.07161 -8.31274 3
    endloop
  endfacet
  facet normal 0 0 1
    outer loop
      vertex -1.6709 -7.80975 3
      vertex -3.53809 -9.40456 3
      vertex -0.344376 -9.89574 3
    endloop
  endfacet
  facet normal 0 0 1
    outer loop
      vertex -3.7235 -6.54337 3
      vertex -3.53809 -9.40456 3
      vertex -1.6709 -7.80975 3
    endloop
  endfacet
  facet normal 0 0 1
    outer loop
      vertex -5.93201 -7.98824 3
      vertex -3.7235 -6.54337 3
      vertex -5.01054 -4.62541 3
    endloop
  endfacet
  facet normal 0 0 1
    outer loop
      vertex -3.7235 -6.54337 3
      vertex -5.38351 -8.31274 3
      vertex -3.53809 -9.40456 3
    endloop
  endfacet
  facet normal 0 0 1
    outer loop
      vertex -5.93201 -7.98824 3
      vertex -5.01054 -4.62541 3
      vertex -5.45638 -2.16774 3
    endloop
  endfacet
  facet normal 0 0 1
    outer loop
      vertex -3.7235 -6.54337 3
      vertex -5.93201 -7.98824 3
      vertex -5.38351 -8.31274 3
    endloop
  endfacet
  facet normal -0.705162 -0.0741154 0.705162
    outer loop
      vertex 9.46662 2.30824 4.95
      vertex 9.424 2.71367 4.95
      vertex 7.51662 2.30824 3
    endloop
  endfacet
  facet normal -0.705162 0.0741154 0.705162
    outer loop
      vertex 9.424 1.90282 4.95
      vertex 9.46662 2.30824 4.95
      vertex 7.51662 2.30824 3
    endloop
  endfacet
  facet normal -0.696608 0.122661 0.706888
    outer loop
      vertex 7.41871 1.75224 3
      vertex 9.424 1.90282 4.95
      vertex 7.51662 2.30824 3
    endloop
  endfacet
  facet normal -0.696608 0.122661 0.706888
    outer loop
      vertex 9.424 1.90282 4.95
      vertex 7.41871 1.75224 3
      vertex 9.3261 1.34682 4.95
    endloop
  endfacet
  facet normal -0.696978 -0.120748 0.706853
    outer loop
      vertex 7.18724 4.20947 3
      vertex 9.424 2.71367 4.95
      vertex 9.09463 4.6149 4.95
    endloop
  endfacet
  facet normal -0.696978 -0.120748 0.706853
    outer loop
      vertex 9.424 2.71367 4.95
      vertex 7.18724 4.20947 3
      vertex 7.51662 2.30824 3
    endloop
  endfacet
  facet normal -0.588646 -0.392308 0.706817
    outer loop
      vertex 6.4553 6.12737 3
      vertex 8.57294 6.4632 4.95
      vertex 8.03288 7.27355 4.95
    endloop
  endfacet
  facet normal -0.588646 -0.392308 0.706817
    outer loop
      vertex 8.57294 6.4632 4.95
      vertex 6.4553 6.12737 3
      vertex 6.99536 5.31702 3
    endloop
  endfacet
  facet normal 0.587355 0.394159 0.706861
    outer loop
      vertex 3.28374 6.12737 3
      vertex 2.72539 3.46237 4.95
      vertex 4.57079 4.20947 3
    endloop
  endfacet
  facet normal 0.587355 0.394159 0.706861
    outer loop
      vertex 2.72539 3.46237 4.95
      vertex 3.28374 6.12737 3
      vertex 1.90177 4.68969 4.95
    endloop
  endfacet
  facet normal -0.696979 -0.120748 0.706853
    outer loop
      vertex 6.99536 5.31702 3
      vertex 9.09463 4.6149 4.95
      vertex 8.90275 5.72244 4.95
    endloop
  endfacet
  facet normal -0.696979 -0.120748 0.706853
    outer loop
      vertex 9.09463 4.6149 4.95
      vertex 6.99536 5.31702 3
      vertex 7.18724 4.20947 3
    endloop
  endfacet
  facet normal -0.674343 -0.219108 0.705162
    outer loop
      vertex 8.90275 5.72244 4.95
      vertex 8.77677 6.11015 4.95
      vertex 6.99536 5.31702 3
    endloop
  endfacet
  facet normal -0.614052 -0.354523 0.705162
    outer loop
      vertex 8.77677 6.11015 4.95
      vertex 8.57294 6.4632 4.95
      vertex 6.99536 5.31702 3
    endloop
  endfacet
  facet normal -0.526924 0.474445 0.705162
    outer loop
      vertex 3.67665 -10.1886 4.95
      vertex 3.94942 -9.8857 4.95
      vertex 2.37184 -8.73952 3
    endloop
  endfacet
  facet normal -0.536587 0.462381 0.705888
    outer loop
      vertex 2.73959 -8.31274 3
      vertex 3.94942 -9.8857 4.95
      vertex 4.31718 -9.45893 4.95
    endloop
  endfacet
  facet normal -0.536587 0.462381 0.705888
    outer loop
      vertex 3.94942 -9.8857 4.95
      vertex 2.73959 -8.31274 3
      vertex 2.37184 -8.73952 3
    endloop
  endfacet
  facet normal 0.147418 0.693552 0.705162
    outer loop
      vertex -3.74192 -11.3439 4.95
      vertex -3.53809 -9.40456 3
      vertex -4.14067 -11.2591 4.95
    endloop
  endfacet
  facet normal -0.416766 0.573631 0.705162
    outer loop
      vertex 3.34684 -10.4283 4.95
      vertex 3.67665 -10.1886 4.95
      vertex 2.37184 -8.73952 3
    endloop
  endfacet
  facet normal -0.277489 0.651883 0.705726
    outer loop
      vertex -0.344376 -9.89574 3
      vertex 2.97442 -10.5941 4.95
      vertex 2.37184 -8.73952 3
    endloop
  endfacet
  facet normal -0.277489 0.651883 0.705726
    outer loop
      vertex 2.97442 -10.5941 4.95
      vertex -0.344376 -9.89574 3
      vertex 0.258207 -11.7503 4.95
    endloop
  endfacet
  facet normal -0.288397 0.647745 0.705162
    outer loop
      vertex 2.97442 -10.5941 4.95
      vertex 3.34684 -10.4283 4.95
      vertex 2.37184 -8.73952 3
    endloop
  endfacet
  facet normal 0.107548 0.69929 0.706701
    outer loop
      vertex -3.74192 -11.3439 4.95
      vertex -0.344376 -9.89574 3
      vertex -3.53809 -9.40456 3
    endloop
  endfacet
  facet normal 0.107548 0.69929 0.706701
    outer loop
      vertex -0.344376 -9.89574 3
      vertex -3.74192 -11.3439 4.95
      vertex -0.548206 -11.8351 4.95
    endloop
  endfacet
  facet normal 0 0.709046 0.705162
    outer loop
      vertex -0.140545 -11.8351 4.95
      vertex -0.344376 -9.89574 3
      vertex -0.548206 -11.8351 4.95
    endloop
  endfacet
  facet normal 0.360063 0.608591 0.707087
    outer loop
      vertex -6.35851 -10.0015 4.95
      vertex -3.53809 -9.40456 3
      vertex -5.38351 -8.31274 3
    endloop
  endfacet
  facet normal 0.360063 0.608591 0.707087
    outer loop
      vertex -3.53809 -9.40456 3
      vertex -6.35851 -10.0015 4.95
      vertex -4.51309 -11.0933 4.95
    endloop
  endfacet
  facet normal -0.147418 0.693552 0.705162
    outer loop
      vertex -0.140545 -11.8351 4.95
      vertex 0.258207 -11.7503 4.95
      vertex -0.344376 -9.89574 3
    endloop
  endfacet
  facet normal 0.288396 0.647746 0.705162
    outer loop
      vertex -4.14067 -11.2591 4.95
      vertex -3.53809 -9.40456 3
      vertex -4.51309 -11.0933 4.95
    endloop
  endfacet
  facet normal -0.127747 -0.696528 0.706066
    outer loop
      vertex -1.6709 -7.80975 3
      vertex 0.31206 -6.19674 4.95
      vertex -0.947608 -5.96571 4.95
    endloop
  endfacet
  facet normal -0.127747 -0.696528 0.706066
    outer loop
      vertex 0.31206 -6.19674 4.95
      vertex -1.6709 -7.80975 3
      vertex 1.07161 -8.31274 3
    endloop
  endfacet
  facet normal 0.416767 0.573631 0.705162
    outer loop
      vertex -6.90701 -9.67698 4.95
      vertex -5.93201 -7.98824 3
      vertex -7.23681 -9.43737 4.95
    endloop
  endfacet
  facet normal 0.526924 0.474445 0.705162
    outer loop
      vertex -7.23681 -9.43737 4.95
      vertex -5.93201 -7.98824 3
      vertex -7.50959 -9.13442 4.95
    endloop
  endfacet
  facet normal 0.360062 0.608592 0.707087
    outer loop
      vertex -6.90701 -9.67698 4.95
      vertex -5.38351 -8.31274 3
      vertex -5.93201 -7.98824 3
    endloop
  endfacet
  facet normal 0.360062 0.608592 0.707087
    outer loop
      vertex -5.38351 -8.31274 3
      vertex -6.90701 -9.67698 4.95
      vertex -6.35851 -10.0015 4.95
    endloop
  endfacet
  facet normal 0.588664 0.392282 0.706817
    outer loop
      vertex -7.62853 -8.95593 4.95
      vertex -5.93201 -7.98824 3
      vertex -6.05095 -7.80975 3
    endloop
  endfacet
  facet normal 0.588664 0.392282 0.706817
    outer loop
      vertex -5.93201 -7.98824 3
      vertex -7.62853 -8.95593 4.95
      vertex -7.50959 -9.13442 4.95
    endloop
  endfacet
  facet normal -0.371363 -0.601916 0.706956
    outer loop
      vertex -2.3415 -5.10572 4.95
      vertex -1.6709 -7.80975 3
      vertex -0.947608 -5.96571 4.95
    endloop
  endfacet
  facet normal -0.371363 -0.601916 0.706956
    outer loop
      vertex -1.6709 -7.80975 3
      vertex -2.3415 -5.10572 4.95
      vertex -3.7235 -6.54337 3
    endloop
  endfacet
  facet normal 0.588663 0.392284 0.706817
    outer loop
      vertex -8.47245 -7.68955 4.95
      vertex -6.05095 -7.80975 3
      vertex -6.89487 -6.54337 3
    endloop
  endfacet
  facet normal 0.588663 0.392284 0.706817
    outer loop
      vertex -6.05095 -7.80975 3
      vertex -8.47245 -7.68955 4.95
      vertex -7.62853 -8.95593 4.95
    endloop
  endfacet
  facet normal -0.536587 0.462381 0.705888
    outer loop
      vertex 4.43515 -6.34508 3
      vertex 4.31718 -9.45893 4.95
      vertex 6.01273 -7.49126 4.95
    endloop
  endfacet
  facet normal -0.536587 0.462381 0.705888
    outer loop
      vertex 4.31718 -9.45893 4.95
      vertex 4.43515 -6.34508 3
      vertex 2.73959 -8.31274 3
    endloop
  endfacet
  facet normal 0.541214 -0.456506 0.706179
    outer loop
      vertex 0.31206 -6.19674 4.95
      vertex 2.73131 -6.34508 3
      vertex 1.09719 -5.26593 4.95
    endloop
  endfacet
  facet normal 0.541214 -0.456506 0.706179
    outer loop
      vertex 2.73131 -6.34508 3
      vertex 0.31206 -6.19674 4.95
      vertex 1.07161 -8.31274 3
    endloop
  endfacet
  facet normal 0.696979 0.120744 0.706853
    outer loop
      vertex -9.53432 -5.03084 4.95
      vertex -7.4351 -5.73268 3
      vertex -7.62693 -4.62541 3
    endloop
  endfacet
  facet normal 0.696979 0.120744 0.706853
    outer loop
      vertex -7.4351 -5.73268 3
      vertex -9.53432 -5.03084 4.95
      vertex -9.34249 -6.13811 4.95
    endloop
  endfacet
  facet normal 0.588662 0.392284 0.706817
    outer loop
      vertex -9.01269 -6.87886 4.95
      vertex -6.89487 -6.54337 3
      vertex -7.4351 -5.73268 3
    endloop
  endfacet
  facet normal 0.588662 0.392284 0.706817
    outer loop
      vertex -6.89487 -6.54337 3
      vertex -9.01269 -6.87886 4.95
      vertex -8.47245 -7.68955 4.95
    endloop
  endfacet
  facet normal -0.587361 -0.39415 0.706861
    outer loop
      vertex -3.16513 -3.87835 4.95
      vertex -3.7235 -6.54337 3
      vertex -2.3415 -5.10572 4.95
    endloop
  endfacet
  facet normal -0.587361 -0.39415 0.706861
    outer loop
      vertex -3.7235 -6.54337 3
      vertex -3.16513 -3.87835 4.95
      vertex -5.01054 -4.62541 3
    endloop
  endfacet
  facet normal 0.674343 0.219108 0.705162
    outer loop
      vertex -9.21652 -6.52582 4.95
      vertex -7.4351 -5.73268 3
      vertex -9.34249 -6.13811 4.95
    endloop
  endfacet
  facet normal 0.614052 0.354523 0.705162
    outer loop
      vertex -9.01269 -6.87886 4.95
      vertex -7.4351 -5.73268 3
      vertex -9.21652 -6.52582 4.95
    endloop
  endfacet
  facet normal 0.696607 -0.122668 0.706889
    outer loop
      vertex -9.86376 -2.31831 4.95
      vertex -7.85847 -2.16774 3
      vertex -9.76585 -1.76231 4.95
    endloop
  endfacet
  facet normal 0.696607 -0.122668 0.706889
    outer loop
      vertex -7.85847 -2.16774 3
      vertex -9.86376 -2.31831 4.95
      vertex -7.95638 -2.72374 3
    endloop
  endfacet
  facet normal 0.705162 0.0741154 0.705162
    outer loop
      vertex -9.86376 -3.12917 4.95
      vertex -7.95638 -2.72374 3
      vertex -9.90637 -2.72374 4.95
    endloop
  endfacet
  facet normal 0.696979 0.120745 0.706853
    outer loop
      vertex -9.86376 -3.12917 4.95
      vertex -7.62693 -4.62541 3
      vertex -7.95638 -2.72374 3
    endloop
  endfacet
  facet normal 0.696979 0.120745 0.706853
    outer loop
      vertex -7.62693 -4.62541 3
      vertex -9.86376 -3.12917 4.95
      vertex -9.53432 -5.03084 4.95
    endloop
  endfacet
  facet normal -0.695908 -0.12624 0.706948
    outer loop
      vertex -5.45638 -2.16774 3
      vertex -3.16513 -3.87835 4.95
      vertex -3.49604 -2.0542 4.95
    endloop
  endfacet
  facet normal -0.695908 -0.12624 0.706948
    outer loop
      vertex -3.16513 -3.87835 4.95
      vertex -5.45638 -2.16774 3
      vertex -5.01054 -4.62541 3
    endloop
  endfacet
  facet normal 0.705162 -0.0741154 0.705162
    outer loop
      vertex -7.95638 -2.72374 3
      vertex -9.86376 -2.31831 4.95
      vertex -9.90637 -2.72374 4.95
    endloop
  endfacet
  facet normal 0.705648 -0.0642045 0.705648
    outer loop
      vertex 3.05628 1.63864 4.95
      vertex 4.74797 -1.20035 3
      vertex 5.01662 1.75224 3
    endloop
  endfacet
  facet normal 0.705648 -0.0642046 0.705648
    outer loop
      vertex 4.74797 -1.20035 3
      vertex 3.05628 1.63864 4.95
      vertex 2.83216 -0.824614 4.95
    endloop
  endfacet
  facet normal -0.696608 0.122661 0.706888
    outer loop
      vertex 6.89881 -1.20035 3
      vertex 9.3261 1.34682 4.95
      vertex 7.41871 1.75224 3
    endloop
  endfacet
  facet normal -0.696608 0.122661 0.706888
    outer loop
      vertex 9.3261 1.34682 4.95
      vertex 6.89881 -1.20035 3
      vertex 8.8062 -1.60578 4.95
    endloop
  endfacet
  facet normal 0.681017 -0.193238 0.706311
    outer loop
      vertex 2.15452 -3.21277 4.95
      vertex 4.74797 -1.20035 3
      vertex 2.83216 -0.824614 4.95
    endloop
  endfacet
  facet normal 0.681017 -0.193238 0.706311
    outer loop
      vertex 4.74797 -1.20035 3
      vertex 2.15452 -3.21277 4.95
      vertex 3.97148 -3.93687 3
    endloop
  endfacet
  facet normal -0.638703 0.303668 0.706997
    outer loop
      vertex 6.78432 -1.85059 3
      vertex 7.57382 -4.73001 4.95
      vertex 8.56573 -2.64372 4.95
    endloop
  endfacet
  facet normal -0.638703 0.303668 0.706997
    outer loop
      vertex 7.57382 -4.73001 4.95
      vertex 6.78432 -1.85059 3
      vertex 5.7924 -3.93687 3
    endloop
  endfacet
  facet normal -0.674343 0.219108 0.705162
    outer loop
      vertex 8.56573 -2.64372 4.95
      vertex 8.6917 -2.25601 4.95
      vertex 6.78432 -1.85059 3
    endloop
  endfacet
  facet normal -0.696608 0.12266 0.706888
    outer loop
      vertex 6.78432 -1.85059 3
      vertex 8.8062 -1.60578 4.95
      vertex 6.89881 -1.20035 3
    endloop
  endfacet
  facet normal -0.696608 0.12266 0.706888
    outer loop
      vertex 8.8062 -1.60578 4.95
      vertex 6.78432 -1.85059 3
      vertex 8.6917 -2.25601 4.95
    endloop
  endfacet
  facet normal 0.696607 -0.122668 0.706889
    outer loop
      vertex -9.76585 -1.76231 4.95
      vertex -7.33856 0.784698 3
      vertex -9.24595 1.19013 4.95
    endloop
  endfacet
  facet normal 0.696607 -0.122668 0.706889
    outer loop
      vertex -7.33856 0.784698 3
      vertex -9.76585 -1.76231 4.95
      vertex -7.85847 -2.16774 3
    endloop
  endfacet
  facet normal -0.705646 0.0642405 0.705646
    outer loop
      vertex -5.18759 0.784698 3
      vertex -3.49604 -2.0542 4.95
      vertex -3.27181 0.408847 4.95
    endloop
  endfacet
  facet normal -0.705646 0.0642405 0.705646
    outer loop
      vertex -3.49604 -2.0542 4.95
      vertex -5.18759 0.784698 3
      vertex -5.45638 -2.16774 3
    endloop
  endfacet
  facet normal 0.674343 -0.219108 0.705162
    outer loop
      vertex -7.22406 1.43494 3
      vertex -9.00547 2.22807 4.95
      vertex -9.13145 1.84036 4.95
    endloop
  endfacet
  facet normal 0.638686 -0.303704 0.706996
    outer loop
      vertex -8.01358 4.31401 4.95
      vertex -7.22406 1.43494 3
      vertex -6.23217 3.52087 3
    endloop
  endfacet
  facet normal 0.638686 -0.303704 0.706996
    outer loop
      vertex -7.22406 1.43494 3
      vertex -8.01358 4.31401 4.95
      vertex -9.00547 2.22807 4.95
    endloop
  endfacet
  facet normal 0.696607 -0.122667 0.706888
    outer loop
      vertex -9.24595 1.19013 4.95
      vertex -7.22406 1.43494 3
      vertex -9.13145 1.84036 4.95
    endloop
  endfacet
  facet normal 0.696607 -0.122667 0.706888
    outer loop
      vertex -7.22406 1.43494 3
      vertex -9.24595 1.19013 4.95
      vertex -7.33856 0.784698 3
    endloop
  endfacet
  facet normal -0.680998 0.193315 0.706308
    outer loop
      vertex -5.18759 0.784698 3
      vertex -2.594 2.79658 4.95
      vertex -4.41087 3.52087 3
    endloop
  endfacet
  facet normal -0.680998 0.193315 0.706308
    outer loop
      vertex -2.594 2.79658 4.95
      vertex -5.18759 0.784698 3
      vertex -3.27181 0.408847 4.95
    endloop
  endfacet
  facet normal 0.147418 -0.693552 0.705162
    outer loop
      vertex -0.0943756 9.47925 3
      vertex -0.298206 11.4186 4.95
      vertex -0.696958 11.3338 4.95
    endloop
  endfacet
  facet normal 0 -0.709046 0.705162
    outer loop
      vertex -0.0943756 9.47925 3
      vertex 0.109455 11.4186 4.95
      vertex -0.298206 11.4186 4.95
    endloop
  endfacet
  facet normal -0.288396 -0.647746 0.705162
    outer loop
      vertex 4.07374 10.677 4.95
      vertex 3.70132 10.8428 4.95
      vertex 3.09874 8.9882 3
    endloop
  endfacet
  facet normal 0.288396 -0.647746 0.705162
    outer loop
      vertex -2.81119 8.32318 3
      vertex -3.41377 10.1777 4.95
      vertex -3.78619 10.0119 4.95
    endloop
  endfacet
  facet normal -0.147418 -0.693552 0.705162
    outer loop
      vertex 3.70132 10.8428 4.95
      vertex 3.30257 10.9275 4.95
      vertex 3.09874 8.9882 3
    endloop
  endfacet
  facet normal -0.107538 -0.699292 0.706701
    outer loop
      vertex -0.0943756 9.47925 3
      vertex 3.30257 10.9275 4.95
      vertex 0.109455 11.4186 4.95
    endloop
  endfacet
  facet normal -0.107538 -0.699292 0.706701
    outer loop
      vertex 3.30257 10.9275 4.95
      vertex -0.0943756 9.47925 3
      vertex 3.09874 8.9882 3
    endloop
  endfacet
  facet normal -0.36003 -0.60861 0.707087
    outer loop
      vertex 3.09874 8.9882 3
      vertex 5.91964 9.58499 4.95
      vertex 4.07374 10.677 4.95
    endloop
  endfacet
  facet normal -0.36003 -0.60861 0.707087
    outer loop
      vertex 5.91964 9.58499 4.95
      vertex 3.09874 8.9882 3
      vertex 4.94464 7.89624 3
    endloop
  endfacet
  facet normal 0.277405 -0.651914 0.70573
    outer loop
      vertex -3.41377 10.1777 4.95
      vertex -0.0943756 9.47925 3
      vertex -0.696958 11.3338 4.95
    endloop
  endfacet
  facet normal 0.277405 -0.651914 0.70573
    outer loop
      vertex -0.0943756 9.47925 3
      vertex -3.41377 10.1777 4.95
      vertex -2.81119 8.32318 3
    endloop
  endfacet
  facet normal 0.536537 -0.462443 0.705885
    outer loop
      vertex -4.38877 9.46936 4.95
      vertex -3.17917 7.89624 3
      vertex -2.81119 8.32318 3
    endloop
  endfacet
  facet normal 0.536537 -0.462443 0.705885
    outer loop
      vertex -3.17917 7.89624 3
      vertex -4.38877 9.46936 4.95
      vertex -4.75675 9.04242 4.95
    endloop
  endfacet
  facet normal 0.526924 -0.474445 0.705162
    outer loop
      vertex -2.81119 8.32318 3
      vertex -4.11599 9.77231 4.95
      vertex -4.38877 9.46936 4.95
    endloop
  endfacet
  facet normal 0.416767 -0.573631 0.705162
    outer loop
      vertex -2.81119 8.32318 3
      vertex -3.78619 10.0119 4.95
      vertex -4.11599 9.77231 4.95
    endloop
  endfacet
  facet normal 0.371348 0.601925 0.706956
    outer loop
      vertex 1.23112 7.39369 3
      vertex 1.90177 4.68969 4.95
      vertex 3.28374 6.12737 3
    endloop
  endfacet
  facet normal 0.371348 0.601925 0.706956
    outer loop
      vertex 1.90177 4.68969 4.95
      vertex 1.23112 7.39369 3
      vertex 0.508046 5.54952 4.95
    endloop
  endfacet
  facet normal -0.588646 -0.392307 0.706817
    outer loop
      vertex 5.61135 7.39369 3
      vertex 8.03288 7.27355 4.95
      vertex 7.18893 8.53987 4.95
    endloop
  endfacet
  facet normal -0.588646 -0.392307 0.706817
    outer loop
      vertex 8.03288 7.27355 4.95
      vertex 5.61135 7.39369 3
      vertex 6.4553 6.12737 3
    endloop
  endfacet
  facet normal 0.127638 0.696544 0.70607
    outer loop
      vertex 1.23112 7.39369 3
      vertex -0.751585 5.78035 4.95
      vertex 0.508046 5.54952 4.95
    endloop
  endfacet
  facet normal 0.127638 0.696544 0.70607
    outer loop
      vertex -0.751585 5.78035 4.95
      vertex 1.23112 7.39369 3
      vertex -1.51137 7.89624 3
    endloop
  endfacet
  facet normal -0.588647 -0.392307 0.706817
    outer loop
      vertex 5.49236 7.57224 3
      vertex 7.18893 8.53987 4.95
      vertex 7.06994 8.71842 4.95
    endloop
  endfacet
  facet normal -0.588647 -0.392307 0.706817
    outer loop
      vertex 7.18893 8.53987 4.95
      vertex 5.49236 7.57224 3
      vertex 5.61135 7.39369 3
    endloop
  endfacet
  facet normal -0.416767 -0.573631 0.705162
    outer loop
      vertex 6.79716 9.02137 4.95
      vertex 6.46736 9.26098 4.95
      vertex 5.49236 7.57224 3
    endloop
  endfacet
  facet normal -0.36003 -0.60861 0.707087
    outer loop
      vertex 4.94464 7.89624 3
      vertex 6.46736 9.26098 4.95
      vertex 5.91964 9.58499 4.95
    endloop
  endfacet
  facet normal -0.36003 -0.60861 0.707087
    outer loop
      vertex 6.46736 9.26098 4.95
      vertex 4.94464 7.89624 3
      vertex 5.49236 7.57224 3
    endloop
  endfacet
  facet normal -0.526924 -0.474445 0.705162
    outer loop
      vertex 7.06994 8.71842 4.95
      vertex 6.79716 9.02137 4.95
      vertex 5.49236 7.57224 3
    endloop
  endfacet
  facet normal 0.536537 -0.462444 0.705885
    outer loop
      vertex -4.75675 9.04242 4.95
      vertex -4.87498 5.92873 3
      vertex -3.17917 7.89624 3
    endloop
  endfacet
  facet normal 0.536537 -0.462444 0.705885
    outer loop
      vertex -4.87498 5.92873 3
      vertex -4.75675 9.04242 4.95
      vertex -6.45256 7.07491 4.95
    endloop
  endfacet
  facet normal -0.541251 0.45646 0.706181
    outer loop
      vertex -3.17065 5.92873 3
      vertex -0.751585 5.78035 4.95
      vertex -1.51137 7.89624 3
    endloop
  endfacet
  facet normal -0.541251 0.45646 0.706181
    outer loop
      vertex -0.751585 5.78035 4.95
      vertex -3.17065 5.92873 3
      vertex -1.53659 4.84952 4.95
    endloop
  endfacet
  facet normal 0.614053 -0.354522 0.705162
    outer loop
      vertex -5.34837 5.37949 3
      vertex -6.92596 6.52567 4.95
      vertex -7.12979 6.17262 4.95
    endloop
  endfacet
  facet normal -0.629126 0.324046 0.706537
    outer loop
      vertex -4.41087 3.52087 3
      vertex -1.53659 4.84952 4.95
      vertex -3.17065 5.92873 3
    endloop
  endfacet
  facet normal -0.629126 0.324046 0.706537
    outer loop
      vertex -1.53659 4.84952 4.95
      vertex -4.41087 3.52087 3
      vertex -2.594 2.79658 4.95
    endloop
  endfacet
  facet normal 0.638686 -0.303704 0.706996
    outer loop
      vertex -7.12979 6.17262 4.95
      vertex -6.23217 3.52087 3
      vertex -5.34837 5.37949 3
    endloop
  endfacet
  facet normal 0.638686 -0.303704 0.706996
    outer loop
      vertex -6.23217 3.52087 3
      vertex -7.12979 6.17262 4.95
      vertex -8.01358 4.31401 4.95
    endloop
  endfacet
  facet normal 0.536537 -0.462444 0.705885
    outer loop
      vertex -6.45256 7.07491 4.95
      vertex -5.34837 5.37949 3
      vertex -4.87498 5.92873 3
    endloop
  endfacet
  facet normal 0.536537 -0.462444 0.705885
    outer loop
      vertex -5.34837 5.37949 3
      vertex -6.45256 7.07491 4.95
      vertex -6.92596 6.52567 4.95
    endloop
  endfacet
  facet normal -0.536586 0.462382 0.705888
    outer loop
      vertex 4.90874 -5.79549 3
      vertex 6.01273 -7.49126 4.95
      vertex 6.48632 -6.94167 4.95
    endloop
  endfacet
  facet normal -0.536586 0.462382 0.705888
    outer loop
      vertex 6.01273 -7.49126 4.95
      vertex 4.90874 -5.79549 3
      vertex 4.43515 -6.34508 3
    endloop
  endfacet
  facet normal 0.629149 -0.323998 0.706538
    outer loop
      vertex 1.09719 -5.26593 4.95
      vertex 3.97148 -3.93687 3
      vertex 2.15452 -3.21277 4.95
    endloop
  endfacet
  facet normal 0.629149 -0.323998 0.706538
    outer loop
      vertex 3.97148 -3.93687 3
      vertex 1.09719 -5.26593 4.95
      vertex 2.73131 -6.34508 3
    endloop
  endfacet
  facet normal -0.638703 0.303668 0.706997
    outer loop
      vertex 5.7924 -3.93687 3
      vertex 6.69015 -6.58862 4.95
      vertex 7.57382 -4.73001 4.95
    endloop
  endfacet
  facet normal -0.638703 0.303668 0.706997
    outer loop
      vertex 6.69015 -6.58862 4.95
      vertex 5.7924 -3.93687 3
      vertex 4.90874 -5.79549 3
    endloop
  endfacet
  facet normal -0.614053 0.354522 0.705162
    outer loop
      vertex 6.48632 -6.94167 4.95
      vertex 6.69015 -6.58862 4.95
      vertex 4.90874 -5.79549 3
    endloop
  endfacet
  facet normal -0 0 1
    outer loop
      vertex -2.594 2.79658 4.95
      vertex 3.05628 1.63864 4.95
      vertex 2.72539 3.46237 4.95
    endloop
  endfacet
  facet normal 0 0 1
    outer loop
      vertex -3.27181 0.408847 4.95
      vertex 3.05628 1.63864 4.95
      vertex -2.594 2.79658 4.95
    endloop
  endfacet
  facet normal 0 0 1
    outer loop
      vertex -2.594 2.79658 4.95
      vertex 2.72539 3.46237 4.95
      vertex 1.90177 4.68969 4.95
    endloop
  endfacet
  facet normal 0 0 1
    outer loop
      vertex 3.05628 1.63864 4.95
      vertex -3.27181 0.408847 4.95
      vertex 2.83216 -0.824614 4.95
    endloop
  endfacet
  facet normal -0 0 1
    outer loop
      vertex -1.53659 4.84952 4.95
      vertex 1.90177 4.68969 4.95
      vertex 0.508046 5.54952 4.95
    endloop
  endfacet
  facet normal 0 0 1
    outer loop
      vertex -3.49604 -2.0542 4.95
      vertex 2.83216 -0.824614 4.95
      vertex -3.27181 0.408847 4.95
    endloop
  endfacet
  facet normal 0 0 1
    outer loop
      vertex -1.53659 4.84952 4.95
      vertex 0.508046 5.54952 4.95
      vertex -0.751585 5.78035 4.95
    endloop
  endfacet
  facet normal 0 0 1
    outer loop
      vertex 2.83216 -0.824614 4.95
      vertex -3.49604 -2.0542 4.95
      vertex 2.15452 -3.21277 4.95
    endloop
  endfacet
  facet normal 0 0 1
    outer loop
      vertex 1.90177 4.68969 4.95
      vertex -1.53659 4.84952 4.95
      vertex -2.594 2.79658 4.95
    endloop
  endfacet
  facet normal 0 -0 1
    outer loop
      vertex -3.16513 -3.87835 4.95
      vertex 2.15452 -3.21277 4.95
      vertex -3.49604 -2.0542 4.95
    endloop
  endfacet
  facet normal 0 -0 1
    outer loop
      vertex -2.3415 -5.10572 4.95
      vertex 2.15452 -3.21277 4.95
      vertex -3.16513 -3.87835 4.95
    endloop
  endfacet
  facet normal 0 0 1
    outer loop
      vertex 1.09719 -5.26593 4.95
      vertex -0.947608 -5.96571 4.95
      vertex 0.31206 -6.19674 4.95
    endloop
  endfacet
  facet normal 0 0 1
    outer loop
      vertex 2.15452 -3.21277 4.95
      vertex -2.3415 -5.10572 4.95
      vertex 1.09719 -5.26593 4.95
    endloop
  endfacet
  facet normal 0 0 1
    outer loop
      vertex 1.09719 -5.26593 4.95
      vertex -2.3415 -5.10572 4.95
      vertex -0.947608 -5.96571 4.95
    endloop
  endfacet
  facet normal 0 0 1
    outer loop
      vertex 15.1568 16.4918 4.95
      vertex 16.5 15 4.95
      vertex 16.4672 15.3119 4.95
    endloop
  endfacet
  facet normal 0 0 1
    outer loop
      vertex 16.5 15 4.95
      vertex 9.46662 2.30824 4.95
      vertex 16.5 -15 4.95
    endloop
  endfacet
  facet normal 0 0 1
    outer loop
      vertex 15.1568 16.4918 4.95
      vertex 16.4672 15.3119 4.95
      vertex 16.3703 15.6101 4.95
    endloop
  endfacet
  facet normal -0 0 1
    outer loop
      vertex 9.424 1.90282 4.95
      vertex 16.5 -15 4.95
      vertex 9.46662 2.30824 4.95
    endloop
  endfacet
  facet normal 0 0 1
    outer loop
      vertex 15.1568 16.4918 4.95
      vertex 16.3703 15.6101 4.95
      vertex 16.2135 15.8817 4.95
    endloop
  endfacet
  facet normal -0 0 1
    outer loop
      vertex 9.3261 1.34682 4.95
      vertex 16.5 -15 4.95
      vertex 9.424 1.90282 4.95
    endloop
  endfacet
  facet normal 0 0 1
    outer loop
      vertex 15.1568 16.4918 4.95
      vertex 16.2135 15.8817 4.95
      vertex 16.0037 16.1147 4.95
    endloop
  endfacet
  facet normal -0 0 1
    outer loop
      vertex 8.8062 -1.60578 4.95
      vertex 16.5 -15 4.95
      vertex 9.3261 1.34682 4.95
    endloop
  endfacet
  facet normal 0 0 1
    outer loop
      vertex 15.1568 16.4918 4.95
      vertex 16.0037 16.1147 4.95
      vertex 15.75 16.299 4.95
    endloop
  endfacet
  facet normal -0 0 1
    outer loop
      vertex 8.6917 -2.25601 4.95
      vertex 16.5 -15 4.95
      vertex 8.8062 -1.60578 4.95
    endloop
  endfacet
  facet normal 0 0 1
    outer loop
      vertex 15.1568 16.4918 4.95
      vertex 15.75 16.299 4.95
      vertex 15.4635 16.4266 4.95
    endloop
  endfacet
  facet normal -0 0 1
    outer loop
      vertex 8.56573 -2.64372 4.95
      vertex 16.5 -15 4.95
      vertex 8.6917 -2.25601 4.95
    endloop
  endfacet
  facet normal 0 0 1
    outer loop
      vertex 7.06994 8.71842 4.95
      vertex 16.5 15 4.95
      vertex 15.1568 16.4918 4.95
    endloop
  endfacet
  facet normal -0 0 1
    outer loop
      vertex 7.57382 -4.73001 4.95
      vertex 16.5 -15 4.95
      vertex 8.56573 -2.64372 4.95
    endloop
  endfacet
  facet normal -0 0 1
    outer loop
      vertex 6.69015 -6.58862 4.95
      vertex 16.5 -15 4.95
      vertex 7.57382 -4.73001 4.95
    endloop
  endfacet
  facet normal 0 0 1
    outer loop
      vertex 16.5 15 4.95
      vertex 9.424 2.71367 4.95
      vertex 9.46662 2.30824 4.95
    endloop
  endfacet
  facet normal 0 0 1
    outer loop
      vertex 16.5 15 4.95
      vertex 9.09463 4.6149 4.95
      vertex 9.424 2.71367 4.95
    endloop
  endfacet
  facet normal 0 0 1
    outer loop
      vertex 16.5 15 4.95
      vertex 8.90275 5.72244 4.95
      vertex 9.09463 4.6149 4.95
    endloop
  endfacet
  facet normal 0 0 1
    outer loop
      vertex 16.5 15 4.95
      vertex 8.77677 6.11015 4.95
      vertex 8.90275 5.72244 4.95
    endloop
  endfacet
  facet normal 0 0 1
    outer loop
      vertex 16.5 15 4.95
      vertex 8.57294 6.4632 4.95
      vertex 8.77677 6.11015 4.95
    endloop
  endfacet
  facet normal 0 0 1
    outer loop
      vertex 16.5 15 4.95
      vertex 8.03288 7.27355 4.95
      vertex 8.57294 6.4632 4.95
    endloop
  endfacet
  facet normal 0 0 1
    outer loop
      vertex 16.5 15 4.95
      vertex 7.18893 8.53987 4.95
      vertex 8.03288 7.27355 4.95
    endloop
  endfacet
  facet normal 0 0 1
    outer loop
      vertex 16.5 15 4.95
      vertex 7.06994 8.71842 4.95
      vertex 7.18893 8.53987 4.95
    endloop
  endfacet
  facet normal 0 0 1
    outer loop
      vertex 15.1568 16.4918 4.95
      vertex 6.79716 9.02137 4.95
      vertex 7.06994 8.71842 4.95
    endloop
  endfacet
  facet normal 0 0 1
    outer loop
      vertex 15.1568 16.4918 4.95
      vertex 6.46736 9.26098 4.95
      vertex 6.79716 9.02137 4.95
    endloop
  endfacet
  facet normal 0 0 1
    outer loop
      vertex 15.1568 16.4918 4.95
      vertex 5.91964 9.58499 4.95
      vertex 6.46736 9.26098 4.95
    endloop
  endfacet
  facet normal 0 0 1
    outer loop
      vertex 15.1568 16.4918 4.95
      vertex 4.07374 10.677 4.95
      vertex 5.91964 9.58499 4.95
    endloop
  endfacet
  facet normal 0 0 1
    outer loop
      vertex 15.1568 16.4918 4.95
      vertex 3.70132 10.8428 4.95
      vertex 4.07374 10.677 4.95
    endloop
  endfacet
  facet normal 0 0 1
    outer loop
      vertex 15.1568 16.4918 4.95
      vertex 3.30257 10.9275 4.95
      vertex 3.70132 10.8428 4.95
    endloop
  endfacet
  facet normal 0 0 1
    outer loop
      vertex 15.1568 16.4918 4.95
      vertex 0.109455 11.4186 4.95
      vertex 3.30257 10.9275 4.95
    endloop
  endfacet
  facet normal 0 0 1
    outer loop
      vertex 15.1568 16.4918 4.95
      vertex -0.298206 11.4186 4.95
      vertex 0.109455 11.4186 4.95
    endloop
  endfacet
  facet normal -0 0 1
    outer loop
      vertex -15.1568 16.4918 4.95
      vertex -0.298206 11.4186 4.95
      vertex 15.1568 16.4918 4.95
    endloop
  endfacet
  facet normal 0 0 1
    outer loop
      vertex -15.1568 16.4918 4.95
      vertex -4.75675 9.04242 4.95
      vertex -4.38877 9.46936 4.95
    endloop
  endfacet
  facet normal 0 0 1
    outer loop
      vertex -4.75675 9.04242 4.95
      vertex -15.1568 16.4918 4.95
      vertex -6.45256 7.07491 4.95
    endloop
  endfacet
  facet normal 0 0 1
    outer loop
      vertex -16.5 15 4.95
      vertex -8.01358 4.31401 4.95
      vertex -7.12979 6.17262 4.95
    endloop
  endfacet
  facet normal 0 0 1
    outer loop
      vertex -16.5 15 4.95
      vertex -9.24595 1.19013 4.95
      vertex -9.13145 1.84036 4.95
    endloop
  endfacet
  facet normal 0 0 1
    outer loop
      vertex -9.24595 1.19013 4.95
      vertex -16.5 15 4.95
      vertex -9.76585 -1.76231 4.95
    endloop
  endfacet
  facet normal 0 0 1
    outer loop
      vertex -9.76585 -1.76231 4.95
      vertex -16.5 15 4.95
      vertex -9.86376 -2.31831 4.95
    endloop
  endfacet
  facet normal 0 0 1
    outer loop
      vertex -9.00547 2.22807 4.95
      vertex -16.5 15 4.95
      vertex -9.13145 1.84036 4.95
    endloop
  endfacet
  facet normal 0 0 1
    outer loop
      vertex -8.01358 4.31401 4.95
      vertex -16.5 15 4.95
      vertex -9.00547 2.22807 4.95
    endloop
  endfacet
  facet normal 0 0 1
    outer loop
      vertex -6.92596 6.52567 4.95
      vertex -16.5 15 4.95
      vertex -7.12979 6.17262 4.95
    endloop
  endfacet
  facet normal 0 0 1
    outer loop
      vertex -6.45256 7.07491 4.95
      vertex -16.5 15 4.95
      vertex -6.92596 6.52567 4.95
    endloop
  endfacet
  facet normal -0 0 1
    outer loop
      vertex -16.5 15 4.95
      vertex -6.45256 7.07491 4.95
      vertex -15.1568 16.4918 4.95
    endloop
  endfacet
  facet normal 0 0 1
    outer loop
      vertex -4.11599 9.77231 4.95
      vertex -15.1568 16.4918 4.95
      vertex -4.38877 9.46936 4.95
    endloop
  endfacet
  facet normal 0 0 1
    outer loop
      vertex -3.78619 10.0119 4.95
      vertex -15.1568 16.4918 4.95
      vertex -4.11599 9.77231 4.95
    endloop
  endfacet
  facet normal 0 0 1
    outer loop
      vertex -3.41377 10.1777 4.95
      vertex -15.1568 16.4918 4.95
      vertex -3.78619 10.0119 4.95
    endloop
  endfacet
  facet normal 0 0 1
    outer loop
      vertex -0.696958 11.3338 4.95
      vertex -15.1568 16.4918 4.95
      vertex -3.41377 10.1777 4.95
    endloop
  endfacet
  facet normal 0 0 1
    outer loop
      vertex -0.298206 11.4186 4.95
      vertex -15.1568 16.4918 4.95
      vertex -0.696958 11.3338 4.95
    endloop
  endfacet
  facet normal -0 0 1
    outer loop
      vertex 6.48632 -6.94167 4.95
      vertex 16.5 -15 4.95
      vertex 6.69015 -6.58862 4.95
    endloop
  endfacet
  facet normal -0 0 1
    outer loop
      vertex 6.01273 -7.49126 4.95
      vertex 16.5 -15 4.95
      vertex 6.48632 -6.94167 4.95
    endloop
  endfacet
  facet normal 0 0 1
    outer loop
      vertex 16.5 -15 4.95
      vertex 15.1568 -16.4918 4.95
      vertex 16.4672 -15.3119 4.95
    endloop
  endfacet
  facet normal 0 0 1
    outer loop
      vertex 16.4672 -15.3119 4.95
      vertex 15.1568 -16.4918 4.95
      vertex 16.3703 -15.6101 4.95
    endloop
  endfacet
  facet normal 0 0 1
    outer loop
      vertex 16.2135 -15.8817 4.95
      vertex 15.1568 -16.4918 4.95
      vertex 16.0037 -16.1147 4.95
    endloop
  endfacet
  facet normal 0 0 1
    outer loop
      vertex 16.0037 -16.1147 4.95
      vertex 15.1568 -16.4918 4.95
      vertex 15.75 -16.299 4.95
    endloop
  endfacet
  facet normal 0 0 1
    outer loop
      vertex 15.75 -16.299 4.95
      vertex 15.1568 -16.4918 4.95
      vertex 15.4635 -16.4266 4.95
    endloop
  endfacet
  facet normal 0 0 1
    outer loop
      vertex 16.3703 -15.6101 4.95
      vertex 15.1568 -16.4918 4.95
      vertex 16.2135 -15.8817 4.95
    endloop
  endfacet
  facet normal 0 0 1
    outer loop
      vertex 16.5 -15 4.95
      vertex 6.01273 -7.49126 4.95
      vertex 15.1568 -16.4918 4.95
    endloop
  endfacet
  facet normal -0 0 1
    outer loop
      vertex 4.31718 -9.45893 4.95
      vertex 15.1568 -16.4918 4.95
      vertex 6.01273 -7.49126 4.95
    endloop
  endfacet
  facet normal -0 0 1
    outer loop
      vertex 3.94942 -9.8857 4.95
      vertex 15.1568 -16.4918 4.95
      vertex 4.31718 -9.45893 4.95
    endloop
  endfacet
  facet normal -0 0 1
    outer loop
      vertex 3.67665 -10.1886 4.95
      vertex 15.1568 -16.4918 4.95
      vertex 3.94942 -9.8857 4.95
    endloop
  endfacet
  facet normal -0 0 1
    outer loop
      vertex 3.34684 -10.4283 4.95
      vertex 15.1568 -16.4918 4.95
      vertex 3.67665 -10.1886 4.95
    endloop
  endfacet
  facet normal -0 0 1
    outer loop
      vertex 2.97442 -10.5941 4.95
      vertex 15.1568 -16.4918 4.95
      vertex 3.34684 -10.4283 4.95
    endloop
  endfacet
  facet normal -0 0 1
    outer loop
      vertex 0.258207 -11.7503 4.95
      vertex 15.1568 -16.4918 4.95
      vertex 2.97442 -10.5941 4.95
    endloop
  endfacet
  facet normal -0 0 1
    outer loop
      vertex -0.140545 -11.8351 4.95
      vertex 15.1568 -16.4918 4.95
      vertex 0.258207 -11.7503 4.95
    endloop
  endfacet
  facet normal 0 0 1
    outer loop
      vertex -15.1568 -16.4918 4.95
      vertex -0.140545 -11.8351 4.95
      vertex -0.548206 -11.8351 4.95
    endloop
  endfacet
  facet normal 0 0 1
    outer loop
      vertex -15.1568 -16.4918 4.95
      vertex -0.548206 -11.8351 4.95
      vertex -3.74192 -11.3439 4.95
    endloop
  endfacet
  facet normal 0 0 1
    outer loop
      vertex -15.1568 -16.4918 4.95
      vertex -3.74192 -11.3439 4.95
      vertex -4.14067 -11.2591 4.95
    endloop
  endfacet
  facet normal 0 0 1
    outer loop
      vertex -15.1568 -16.4918 4.95
      vertex -6.35851 -10.0015 4.95
      vertex -6.90701 -9.67698 4.95
    endloop
  endfacet
  facet normal 0 0 1
    outer loop
      vertex -16.5 -15 4.95
      vertex -7.62853 -8.95593 4.95
      vertex -8.47245 -7.68955 4.95
    endloop
  endfacet
  facet normal 0 0 1
    outer loop
      vertex -16.5 -15 4.95
      vertex -8.47245 -7.68955 4.95
      vertex -9.01269 -6.87886 4.95
    endloop
  endfacet
  facet normal 0 0 1
    outer loop
      vertex -16.5 -15 4.95
      vertex -9.53432 -5.03084 4.95
      vertex -9.86376 -3.12917 4.95
    endloop
  endfacet
  facet normal 0 0 1
    outer loop
      vertex -16.5 -15 4.95
      vertex -9.86376 -2.31831 4.95
      vertex -16.5 15 4.95
    endloop
  endfacet
  facet normal 0 0 1
    outer loop
      vertex -9.86376 -2.31831 4.95
      vertex -16.5 -15 4.95
      vertex -9.90637 -2.72374 4.95
    endloop
  endfacet
  facet normal 0 0 1
    outer loop
      vertex -0.140545 -11.8351 4.95
      vertex -15.1568 -16.4918 4.95
      vertex 15.1568 -16.4918 4.95
    endloop
  endfacet
  facet normal 0 0 1
    outer loop
      vertex -4.51309 -11.0933 4.95
      vertex -15.1568 -16.4918 4.95
      vertex -4.14067 -11.2591 4.95
    endloop
  endfacet
  facet normal 0 0 1
    outer loop
      vertex -6.35851 -10.0015 4.95
      vertex -15.1568 -16.4918 4.95
      vertex -4.51309 -11.0933 4.95
    endloop
  endfacet
  facet normal 0 0 1
    outer loop
      vertex -7.23681 -9.43737 4.95
      vertex -15.1568 -16.4918 4.95
      vertex -6.90701 -9.67698 4.95
    endloop
  endfacet
  facet normal 0 0 1
    outer loop
      vertex -7.50959 -9.13442 4.95
      vertex -15.1568 -16.4918 4.95
      vertex -7.23681 -9.43737 4.95
    endloop
  endfacet
  facet normal 0 0 1
    outer loop
      vertex -7.62853 -8.95593 4.95
      vertex -16.5 -15 4.95
      vertex -7.50959 -9.13442 4.95
    endloop
  endfacet
  facet normal 0 0 1
    outer loop
      vertex -16.5 -15 4.95
      vertex -9.01269 -6.87886 4.95
      vertex -9.21652 -6.52582 4.95
    endloop
  endfacet
  facet normal 0 0 1
    outer loop
      vertex -16.5 -15 4.95
      vertex -9.21652 -6.52582 4.95
      vertex -9.34249 -6.13811 4.95
    endloop
  endfacet
  facet normal 0 0 1
    outer loop
      vertex -9.90637 -2.72374 4.95
      vertex -16.5 -15 4.95
      vertex -9.86376 -3.12917 4.95
    endloop
  endfacet
  facet normal 0 0 1
    outer loop
      vertex -16.5 15 4.95
      vertex -15.1568 16.4918 4.95
      vertex -15.4635 16.4266 4.95
    endloop
  endfacet
  facet normal 0 0 1
    outer loop
      vertex -9.53432 -5.03084 4.95
      vertex -16.5 -15 4.95
      vertex -9.34249 -6.13811 4.95
    endloop
  endfacet
  facet normal 0 0 1
    outer loop
      vertex -16.5 15 4.95
      vertex -15.4635 16.4266 4.95
      vertex -15.75 16.299 4.95
    endloop
  endfacet
  facet normal 0 0 1
    outer loop
      vertex -7.50959 -9.13442 4.95
      vertex -16.5 -15 4.95
      vertex -15.1568 -16.4918 4.95
    endloop
  endfacet
  facet normal 0 0 1
    outer loop
      vertex -16.5 15 4.95
      vertex -15.75 16.299 4.95
      vertex -16.0037 16.1147 4.95
    endloop
  endfacet
  facet normal 0 0 1
    outer loop
      vertex -15.1568 -16.4918 4.95
      vertex -16.5 -15 4.95
      vertex -15.4635 -16.4266 4.95
    endloop
  endfacet
  facet normal 0 0 1
    outer loop
      vertex -16.5 15 4.95
      vertex -16.0037 16.1147 4.95
      vertex -16.2135 15.8817 4.95
    endloop
  endfacet
  facet normal 0 0 1
    outer loop
      vertex -15.4635 -16.4266 4.95
      vertex -16.5 -15 4.95
      vertex -15.75 -16.299 4.95
    endloop
  endfacet
  facet normal 0 0 1
    outer loop
      vertex -16.5 15 4.95
      vertex -16.2135 15.8817 4.95
      vertex -16.3703 15.6101 4.95
    endloop
  endfacet
  facet normal 0 0 1
    outer loop
      vertex -15.75 -16.299 4.95
      vertex -16.5 -15 4.95
      vertex -16.0037 -16.1147 4.95
    endloop
  endfacet
  facet normal 0 0 1
    outer loop
      vertex -16.5 15 4.95
      vertex -16.3703 15.6101 4.95
      vertex -16.4672 15.3119 4.95
    endloop
  endfacet
  facet normal 0 0 1
    outer loop
      vertex -16.0037 -16.1147 4.95
      vertex -16.5 -15 4.95
      vertex -16.2135 -15.8817 4.95
    endloop
  endfacet
  facet normal 0 0 1
    outer loop
      vertex -16.2135 -15.8817 4.95
      vertex -16.5 -15 4.95
      vertex -16.3703 -15.6101 4.95
    endloop
  endfacet
  facet normal 0 0 1
    outer loop
      vertex -16.3703 -15.6101 4.95
      vertex -16.5 -15 4.95
      vertex -16.4672 -15.3119 4.95
    endloop
  endfacet
endsolid OpenSCAD_Model
