solid OpenSCAD_Model
  facet normal 0 -1 0
    outer loop
      vertex -16.8658 -19.9808 0
      vertex 16.8658 -19.9808 8.01
      vertex -16.8658 -19.9808 8.01
    endloop
  endfacet
  facet normal 0 -1 -0
    outer loop
      vertex 16.8658 -19.9808 8.01
      vertex -16.8658 -19.9808 0
      vertex 16.8658 -19.9808 0
    endloop
  endfacet
  facet normal -0.207913 -0.978147 0
    outer loop
      vertex -17.5816 -19.8287 0
      vertex -16.8658 -19.9808 8.01
      vertex -17.5816 -19.8287 8.01
    endloop
  endfacet
  facet normal -0.207913 -0.978147 -0
    outer loop
      vertex -16.8658 -19.9808 8.01
      vertex -17.5816 -19.8287 0
      vertex -16.8658 -19.9808 0
    endloop
  endfacet
  facet normal 1 -0 0
    outer loop
      vertex 20 -16.5 8.01
      vertex 20 16.5 0
      vertex 20 16.5 8.01
    endloop
  endfacet
  facet normal 1 0 0
    outer loop
      vertex 20 16.5 0
      vertex 20 -16.5 8.01
      vertex 20 -16.5 0
    endloop
  endfacet
  facet normal 0.207913 -0.978147 0
    outer loop
      vertex 16.8658 -19.9808 0
      vertex 17.5816 -19.8287 8.01
      vertex 16.8658 -19.9808 8.01
    endloop
  endfacet
  facet normal 0.207913 -0.978147 0
    outer loop
      vertex 17.5816 -19.8287 8.01
      vertex 16.8658 -19.9808 0
      vertex 17.5816 -19.8287 0
    endloop
  endfacet
  facet normal 0.951057 0.309017 0
    outer loop
      vertex 19.9235 17.2277 8.01
      vertex 19.6974 17.9236 0
      vertex 19.6974 17.9236 8.01
    endloop
  endfacet
  facet normal 0.951057 0.309017 0
    outer loop
      vertex 19.6974 17.9236 0
      vertex 19.9235 17.2277 8.01
      vertex 19.9235 17.2277 0
    endloop
  endfacet
  facet normal -0.866025 0.5 0
    outer loop
      vertex -19.6974 17.9236 0
      vertex -19.3316 18.5572 8.01
      vertex -19.3316 18.5572 0
    endloop
  endfacet
  facet normal -0.866025 0.5 0
    outer loop
      vertex -19.3316 18.5572 8.01
      vertex -19.6974 17.9236 0
      vertex -19.6974 17.9236 8.01
    endloop
  endfacet
  facet normal 0 1 -0
    outer loop
      vertex 16.8658 19.9808 0
      vertex -16.8658 19.9808 8.01
      vertex 16.8658 19.9808 8.01
    endloop
  endfacet
  facet normal 0 1 0
    outer loop
      vertex -16.8658 19.9808 8.01
      vertex 16.8658 19.9808 0
      vertex -16.8658 19.9808 0
    endloop
  endfacet
  facet normal 0.587787 -0.809016 0
    outer loop
      vertex 18.25 -19.5311 0
      vertex 18.842 -19.101 8.01
      vertex 18.25 -19.5311 8.01
    endloop
  endfacet
  facet normal 0.587787 -0.809016 0
    outer loop
      vertex 18.842 -19.101 8.01
      vertex 18.25 -19.5311 0
      vertex 18.842 -19.101 0
    endloop
  endfacet
  facet normal -0.587787 -0.809016 0
    outer loop
      vertex -18.842 -19.101 0
      vertex -18.25 -19.5311 8.01
      vertex -18.842 -19.101 8.01
    endloop
  endfacet
  facet normal -0.587787 -0.809016 -0
    outer loop
      vertex -18.25 -19.5311 8.01
      vertex -18.842 -19.101 0
      vertex -18.25 -19.5311 0
    endloop
  endfacet
  facet normal 0 0 -1
    outer loop
      vertex 16.8658 -19.9808 0
      vertex 20 -16.5 0
      vertex 19.9235 -17.2277 0
    endloop
  endfacet
  facet normal 0 0 -1
    outer loop
      vertex -20 -16.5 0
      vertex 20 -16.5 0
      vertex 16.8658 -19.9808 0
    endloop
  endfacet
  facet normal 0 0 -1
    outer loop
      vertex 16.8658 -19.9808 0
      vertex 19.9235 -17.2277 0
      vertex 19.6974 -17.9236 0
    endloop
  endfacet
  facet normal 0 0 -1
    outer loop
      vertex 20 -16.5 0
      vertex -20 -16.5 0
      vertex 20 16.5 0
    endloop
  endfacet
  facet normal 0 0 -1
    outer loop
      vertex 16.8658 -19.9808 0
      vertex 19.6974 -17.9236 0
      vertex 19.3316 -18.5572 0
    endloop
  endfacet
  facet normal 0 0 -1
    outer loop
      vertex 20 16.5 0
      vertex 16.8658 19.9808 0
      vertex 19.9235 17.2277 0
    endloop
  endfacet
  facet normal 0 0 -1
    outer loop
      vertex 16.8658 -19.9808 0
      vertex 19.3316 -18.5572 0
      vertex 18.842 -19.101 0
    endloop
  endfacet
  facet normal 0 0 -1
    outer loop
      vertex 19.9235 17.2277 0
      vertex 16.8658 19.9808 0
      vertex 19.6974 17.9236 0
    endloop
  endfacet
  facet normal 0 0 -1
    outer loop
      vertex 16.8658 -19.9808 0
      vertex 18.842 -19.101 0
      vertex 18.25 -19.5311 0
    endloop
  endfacet
  facet normal 0 0 -1
    outer loop
      vertex 19.6974 17.9236 0
      vertex 16.8658 19.9808 0
      vertex 19.3316 18.5572 0
    endloop
  endfacet
  facet normal 0 0 -1
    outer loop
      vertex 16.8658 -19.9808 0
      vertex 18.25 -19.5311 0
      vertex 17.5816 -19.8287 0
    endloop
  endfacet
  facet normal 0 0 -1
    outer loop
      vertex 19.3316 18.5572 0
      vertex 16.8658 19.9808 0
      vertex 18.842 19.101 0
    endloop
  endfacet
  facet normal 0 0 -1
    outer loop
      vertex 18.842 19.101 0
      vertex 16.8658 19.9808 0
      vertex 18.25 19.5311 0
    endloop
  endfacet
  facet normal 0 0 -1
    outer loop
      vertex 18.25 19.5311 0
      vertex 16.8658 19.9808 0
      vertex 17.5816 19.8287 0
    endloop
  endfacet
  facet normal 0 0 -1
    outer loop
      vertex -20 -16.5 0
      vertex 16.8658 -19.9808 0
      vertex -16.8658 -19.9808 0
    endloop
  endfacet
  facet normal 0 0 -1
    outer loop
      vertex -20 16.5 0
      vertex 20 16.5 0
      vertex -20 -16.5 0
    endloop
  endfacet
  facet normal 0 0 -1
    outer loop
      vertex -20 -16.5 0
      vertex -16.8658 -19.9808 0
      vertex -17.5816 -19.8287 0
    endloop
  endfacet
  facet normal 0 0 -1
    outer loop
      vertex 20 16.5 0
      vertex -20 16.5 0
      vertex 16.8658 19.9808 0
    endloop
  endfacet
  facet normal 0 0 -1
    outer loop
      vertex -20 -16.5 0
      vertex -17.5816 -19.8287 0
      vertex -18.25 -19.5311 0
    endloop
  endfacet
  facet normal -0 0 -1
    outer loop
      vertex 16.8658 19.9808 0
      vertex -20 16.5 0
      vertex -16.8658 19.9808 0
    endloop
  endfacet
  facet normal 0 0 -1
    outer loop
      vertex -20 -16.5 0
      vertex -18.25 -19.5311 0
      vertex -18.842 -19.101 0
    endloop
  endfacet
  facet normal 0 0 -1
    outer loop
      vertex -16.8658 19.9808 0
      vertex -20 16.5 0
      vertex -17.5816 19.8287 0
    endloop
  endfacet
  facet normal 0 0 -1
    outer loop
      vertex -20 -16.5 0
      vertex -18.842 -19.101 0
      vertex -19.3316 -18.5572 0
    endloop
  endfacet
  facet normal 0 0 -1
    outer loop
      vertex -17.5816 19.8287 0
      vertex -20 16.5 0
      vertex -18.25 19.5311 0
    endloop
  endfacet
  facet normal 0 0 -1
    outer loop
      vertex -20 -16.5 0
      vertex -19.3316 -18.5572 0
      vertex -19.6974 -17.9236 0
    endloop
  endfacet
  facet normal 0 0 -1
    outer loop
      vertex -18.25 19.5311 0
      vertex -20 16.5 0
      vertex -18.842 19.101 0
    endloop
  endfacet
  facet normal 0 0 -1
    outer loop
      vertex -20 -16.5 0
      vertex -19.6974 -17.9236 0
      vertex -19.9235 -17.2277 0
    endloop
  endfacet
  facet normal 0 0 -1
    outer loop
      vertex -18.842 19.101 0
      vertex -20 16.5 0
      vertex -19.3316 18.5572 0
    endloop
  endfacet
  facet normal 0 0 -1
    outer loop
      vertex -19.3316 18.5572 0
      vertex -20 16.5 0
      vertex -19.6974 17.9236 0
    endloop
  endfacet
  facet normal 0 0 -1
    outer loop
      vertex -19.6974 17.9236 0
      vertex -20 16.5 0
      vertex -19.9235 17.2277 0
    endloop
  endfacet
  facet normal -1 0 0
    outer loop
      vertex -20 -16.5 0
      vertex -20 16.5 8.01
      vertex -20 16.5 0
    endloop
  endfacet
  facet normal -1 -0 0
    outer loop
      vertex -20 16.5 8.01
      vertex -20 -16.5 0
      vertex -20 -16.5 8.01
    endloop
  endfacet
  facet normal -0.406734 0.913546 0
    outer loop
      vertex -17.5816 19.8287 0
      vertex -18.25 19.5311 8.01
      vertex -17.5816 19.8287 8.01
    endloop
  endfacet
  facet normal -0.406734 0.913546 0
    outer loop
      vertex -18.25 19.5311 8.01
      vertex -17.5816 19.8287 0
      vertex -18.25 19.5311 0
    endloop
  endfacet
  facet normal 0.587787 0.809016 -0
    outer loop
      vertex 18.842 19.101 0
      vertex 18.25 19.5311 8.01
      vertex 18.842 19.101 8.01
    endloop
  endfacet
  facet normal 0.587787 0.809016 0
    outer loop
      vertex 18.25 19.5311 8.01
      vertex 18.842 19.101 0
      vertex 18.25 19.5311 0
    endloop
  endfacet
  facet normal 0.951057 -0.309017 0
    outer loop
      vertex 19.6974 -17.9236 8.01
      vertex 19.9235 -17.2277 0
      vertex 19.9235 -17.2277 8.01
    endloop
  endfacet
  facet normal 0.951057 -0.309017 0
    outer loop
      vertex 19.9235 -17.2277 0
      vertex 19.6974 -17.9236 8.01
      vertex 19.6974 -17.9236 0
    endloop
  endfacet
  facet normal 0.994522 -0.10453 0
    outer loop
      vertex 19.9235 -17.2277 8.01
      vertex 20 -16.5 0
      vertex 20 -16.5 8.01
    endloop
  endfacet
  facet normal 0.994522 -0.10453 0
    outer loop
      vertex 20 -16.5 0
      vertex 19.9235 -17.2277 8.01
      vertex 19.9235 -17.2277 0
    endloop
  endfacet
  facet normal 0.406734 -0.913546 0
    outer loop
      vertex 17.5816 -19.8287 0
      vertex 18.25 -19.5311 8.01
      vertex 17.5816 -19.8287 8.01
    endloop
  endfacet
  facet normal 0.406734 -0.913546 0
    outer loop
      vertex 18.25 -19.5311 8.01
      vertex 17.5816 -19.8287 0
      vertex 18.25 -19.5311 0
    endloop
  endfacet
  facet normal -0.406734 -0.913546 0
    outer loop
      vertex -18.25 -19.5311 0
      vertex -17.5816 -19.8287 8.01
      vertex -18.25 -19.5311 8.01
    endloop
  endfacet
  facet normal -0.406734 -0.913546 -0
    outer loop
      vertex -17.5816 -19.8287 8.01
      vertex -18.25 -19.5311 0
      vertex -17.5816 -19.8287 0
    endloop
  endfacet
  facet normal -0.994522 0.10453 0
    outer loop
      vertex -20 16.5 0
      vertex -19.9235 17.2277 8.01
      vertex -19.9235 17.2277 0
    endloop
  endfacet
  facet normal -0.994522 0.10453 0
    outer loop
      vertex -19.9235 17.2277 8.01
      vertex -20 16.5 0
      vertex -20 16.5 8.01
    endloop
  endfacet
  facet normal -0.743146 0.66913 0
    outer loop
      vertex -19.3316 18.5572 0
      vertex -18.842 19.101 8.01
      vertex -18.842 19.101 0
    endloop
  endfacet
  facet normal -0.743146 0.66913 0
    outer loop
      vertex -18.842 19.101 8.01
      vertex -19.3316 18.5572 0
      vertex -19.3316 18.5572 8.01
    endloop
  endfacet
  facet normal -0.207913 0.978147 0
    outer loop
      vertex -16.8658 19.9808 0
      vertex -17.5816 19.8287 8.01
      vertex -16.8658 19.9808 8.01
    endloop
  endfacet
  facet normal -0.207913 0.978147 0
    outer loop
      vertex -17.5816 19.8287 8.01
      vertex -16.8658 19.9808 0
      vertex -17.5816 19.8287 0
    endloop
  endfacet
  facet normal -0.587787 0.809016 0
    outer loop
      vertex -18.25 19.5311 0
      vertex -18.842 19.101 8.01
      vertex -18.25 19.5311 8.01
    endloop
  endfacet
  facet normal -0.587787 0.809016 0
    outer loop
      vertex -18.842 19.101 8.01
      vertex -18.25 19.5311 0
      vertex -18.842 19.101 0
    endloop
  endfacet
  facet normal 0.207913 0.978147 -0
    outer loop
      vertex 17.5816 19.8287 0
      vertex 16.8658 19.9808 8.01
      vertex 17.5816 19.8287 8.01
    endloop
  endfacet
  facet normal 0.207913 0.978147 0
    outer loop
      vertex 16.8658 19.9808 8.01
      vertex 17.5816 19.8287 0
      vertex 16.8658 19.9808 0
    endloop
  endfacet
  facet normal 0.743146 0.66913 0
    outer loop
      vertex 19.3316 18.5572 8.01
      vertex 18.842 19.101 0
      vertex 18.842 19.101 8.01
    endloop
  endfacet
  facet normal 0.743146 0.66913 0
    outer loop
      vertex 18.842 19.101 0
      vertex 19.3316 18.5572 8.01
      vertex 19.3316 18.5572 0
    endloop
  endfacet
  facet normal 0.866025 0.5 0
    outer loop
      vertex 19.6974 17.9236 8.01
      vertex 19.3316 18.5572 0
      vertex 19.3316 18.5572 8.01
    endloop
  endfacet
  facet normal 0.866025 0.5 0
    outer loop
      vertex 19.3316 18.5572 0
      vertex 19.6974 17.9236 8.01
      vertex 19.6974 17.9236 0
    endloop
  endfacet
  facet normal 0.994522 0.10453 0
    outer loop
      vertex 20 16.5 8.01
      vertex 19.9235 17.2277 0
      vertex 19.9235 17.2277 8.01
    endloop
  endfacet
  facet normal 0.994522 0.10453 0
    outer loop
      vertex 19.9235 17.2277 0
      vertex 20 16.5 8.01
      vertex 20 16.5 0
    endloop
  endfacet
  facet normal 0.866025 -0.5 0
    outer loop
      vertex 19.3316 -18.5572 8.01
      vertex 19.6974 -17.9236 0
      vertex 19.6974 -17.9236 8.01
    endloop
  endfacet
  facet normal 0.866025 -0.5 0
    outer loop
      vertex 19.6974 -17.9236 0
      vertex 19.3316 -18.5572 8.01
      vertex 19.3316 -18.5572 0
    endloop
  endfacet
  facet normal 0.743146 -0.66913 0
    outer loop
      vertex 18.842 -19.101 8.01
      vertex 19.3316 -18.5572 0
      vertex 19.3316 -18.5572 8.01
    endloop
  endfacet
  facet normal 0.743146 -0.66913 0
    outer loop
      vertex 19.3316 -18.5572 0
      vertex 18.842 -19.101 8.01
      vertex 18.842 -19.101 0
    endloop
  endfacet
  facet normal -0.866025 -0.5 0
    outer loop
      vertex -19.3316 -18.5572 0
      vertex -19.6974 -17.9236 8.01
      vertex -19.6974 -17.9236 0
    endloop
  endfacet
  facet normal -0.866025 -0.5 0
    outer loop
      vertex -19.6974 -17.9236 8.01
      vertex -19.3316 -18.5572 0
      vertex -19.3316 -18.5572 8.01
    endloop
  endfacet
  facet normal -0.994522 -0.10453 0
    outer loop
      vertex -19.9235 -17.2277 0
      vertex -20 -16.5 8.01
      vertex -20 -16.5 0
    endloop
  endfacet
  facet normal -0.994522 -0.10453 0
    outer loop
      vertex -20 -16.5 8.01
      vertex -19.9235 -17.2277 0
      vertex -19.9235 -17.2277 8.01
    endloop
  endfacet
  facet normal -0.743146 -0.66913 0
    outer loop
      vertex -18.842 -19.101 0
      vertex -19.3316 -18.5572 8.01
      vertex -19.3316 -18.5572 0
    endloop
  endfacet
  facet normal -0.743146 -0.66913 0
    outer loop
      vertex -19.3316 -18.5572 8.01
      vertex -18.842 -19.101 0
      vertex -18.842 -19.101 8.01
    endloop
  endfacet
  facet normal -0.951057 0.309017 0
    outer loop
      vertex -19.9235 17.2277 0
      vertex -19.6974 17.9236 8.01
      vertex -19.6974 17.9236 0
    endloop
  endfacet
  facet normal -0.951057 0.309017 0
    outer loop
      vertex -19.6974 17.9236 8.01
      vertex -19.9235 17.2277 0
      vertex -19.9235 17.2277 8.01
    endloop
  endfacet
  facet normal 0.406734 0.913546 -0
    outer loop
      vertex 18.25 19.5311 0
      vertex 17.5816 19.8287 8.01
      vertex 18.25 19.5311 8.01
    endloop
  endfacet
  facet normal 0.406734 0.913546 0
    outer loop
      vertex 17.5816 19.8287 8.01
      vertex 18.25 19.5311 0
      vertex 17.5816 19.8287 0
    endloop
  endfacet
  facet normal -0.951057 -0.309017 0
    outer loop
      vertex -19.6974 -17.9236 0
      vertex -19.9235 -17.2277 8.01
      vertex -19.9235 -17.2277 0
    endloop
  endfacet
  facet normal -0.951057 -0.309017 0
    outer loop
      vertex -19.9235 -17.2277 8.01
      vertex -19.6974 -17.9236 0
      vertex -19.6974 -17.9236 8.01
    endloop
  endfacet
  facet normal 0 0 1
    outer loop
      vertex 17.9925 16.5 8.01
      vertex 20 16.5 8.01
      vertex 19.9235 17.2277 8.01
    endloop
  endfacet
  facet normal 0 0 1
    outer loop
      vertex 20 16.5 8.01
      vertex 17.9925 16.5 8.01
      vertex 20 -16.5 8.01
    endloop
  endfacet
  facet normal 0 0 1
    outer loop
      vertex 17.9599 16.8103 8.01
      vertex 19.9235 17.2277 8.01
      vertex 19.6974 17.9236 8.01
    endloop
  endfacet
  facet normal 0 0 1
    outer loop
      vertex 17.9925 -16.5 8.01
      vertex 20 -16.5 8.01
      vertex 17.9925 16.5 8.01
    endloop
  endfacet
  facet normal 0 0 1
    outer loop
      vertex 17.8635 17.1071 8.01
      vertex 19.6974 17.9236 8.01
      vertex 19.3316 18.5572 8.01
    endloop
  endfacet
  facet normal 0 0 1
    outer loop
      vertex 20 -16.5 8.01
      vertex 17.9925 -16.5 8.01
      vertex 19.9235 -17.2277 8.01
    endloop
  endfacet
  facet normal 0 0 1
    outer loop
      vertex 17.7075 17.3773 8.01
      vertex 19.3316 18.5572 8.01
      vertex 18.842 19.101 8.01
    endloop
  endfacet
  facet normal -0 0 1
    outer loop
      vertex 17.9599 -16.8103 8.01
      vertex 19.9235 -17.2277 8.01
      vertex 17.9925 -16.5 8.01
    endloop
  endfacet
  facet normal 0 0 1
    outer loop
      vertex 17.4987 17.6092 8.01
      vertex 18.842 19.101 8.01
      vertex 18.25 19.5311 8.01
    endloop
  endfacet
  facet normal 0 0 1
    outer loop
      vertex 19.9235 -17.2277 8.01
      vertex 17.9599 -16.8103 8.01
      vertex 19.6974 -17.9236 8.01
    endloop
  endfacet
  facet normal -0 0 1
    outer loop
      vertex 17.8635 -17.1071 8.01
      vertex 19.6974 -17.9236 8.01
      vertex 17.9599 -16.8103 8.01
    endloop
  endfacet
  facet normal 0 0 1
    outer loop
      vertex 19.9235 17.2277 8.01
      vertex 17.9599 16.8103 8.01
      vertex 17.9925 16.5 8.01
    endloop
  endfacet
  facet normal 0 0 1
    outer loop
      vertex 19.6974 17.9236 8.01
      vertex 17.8635 17.1071 8.01
      vertex 17.9599 16.8103 8.01
    endloop
  endfacet
  facet normal 0 0 1
    outer loop
      vertex 19.3316 18.5572 8.01
      vertex 17.7075 17.3773 8.01
      vertex 17.8635 17.1071 8.01
    endloop
  endfacet
  facet normal 0 0 1
    outer loop
      vertex 17.2463 17.7926 8.01
      vertex 18.25 19.5311 8.01
      vertex 17.5816 19.8287 8.01
    endloop
  endfacet
  facet normal 0 0 1
    outer loop
      vertex 18.842 19.101 8.01
      vertex 17.4987 17.6092 8.01
      vertex 17.7075 17.3773 8.01
    endloop
  endfacet
  facet normal 0 0 1
    outer loop
      vertex 18.25 19.5311 8.01
      vertex 17.2463 17.7926 8.01
      vertex 17.4987 17.6092 8.01
    endloop
  endfacet
  facet normal 0 0 1
    outer loop
      vertex 17.5816 19.8287 8.01
      vertex 16.9612 17.9195 8.01
      vertex 17.2463 17.7926 8.01
    endloop
  endfacet
  facet normal 0 0 1
    outer loop
      vertex 16.8658 19.9808 8.01
      vertex 16.9612 17.9195 8.01
      vertex 17.5816 19.8287 8.01
    endloop
  endfacet
  facet normal 0 0 1
    outer loop
      vertex 16.8658 19.9808 8.01
      vertex 16.656 17.9844 8.01
      vertex 16.9612 17.9195 8.01
    endloop
  endfacet
  facet normal 0 0 1
    outer loop
      vertex 16.8658 19.9808 8.01
      vertex -16.656 17.9844 8.01
      vertex 16.656 17.9844 8.01
    endloop
  endfacet
  facet normal -0 0 1
    outer loop
      vertex -16.8658 19.9808 8.01
      vertex -16.656 17.9844 8.01
      vertex 16.8658 19.9808 8.01
    endloop
  endfacet
  facet normal 0 0 1
    outer loop
      vertex -16.8658 19.9808 8.01
      vertex -16.9612 17.9195 8.01
      vertex -16.656 17.9844 8.01
    endloop
  endfacet
  facet normal -0 0 1
    outer loop
      vertex -17.5816 19.8287 8.01
      vertex -16.9612 17.9195 8.01
      vertex -16.8658 19.9808 8.01
    endloop
  endfacet
  facet normal 0 0 1
    outer loop
      vertex -16.9612 17.9195 8.01
      vertex -17.5816 19.8287 8.01
      vertex -17.2463 17.7926 8.01
    endloop
  endfacet
  facet normal -0 0 1
    outer loop
      vertex -18.25 19.5311 8.01
      vertex -17.2463 17.7926 8.01
      vertex -17.5816 19.8287 8.01
    endloop
  endfacet
  facet normal 0 0 1
    outer loop
      vertex -17.2463 17.7926 8.01
      vertex -18.25 19.5311 8.01
      vertex -17.4987 17.6092 8.01
    endloop
  endfacet
  facet normal -0 0 1
    outer loop
      vertex -18.842 19.101 8.01
      vertex -17.4987 17.6092 8.01
      vertex -18.25 19.5311 8.01
    endloop
  endfacet
  facet normal 0 0 1
    outer loop
      vertex -17.4987 17.6092 8.01
      vertex -18.842 19.101 8.01
      vertex -17.7075 17.3773 8.01
    endloop
  endfacet
  facet normal -0 0 1
    outer loop
      vertex -19.6974 17.9236 8.01
      vertex -17.8635 17.1071 8.01
      vertex -19.3316 18.5572 8.01
    endloop
  endfacet
  facet normal 0 0 1
    outer loop
      vertex -17.7075 17.3773 8.01
      vertex -19.3316 18.5572 8.01
      vertex -17.8635 17.1071 8.01
    endloop
  endfacet
  facet normal -0 0 1
    outer loop
      vertex -19.3316 18.5572 8.01
      vertex -17.7075 17.3773 8.01
      vertex -18.842 19.101 8.01
    endloop
  endfacet
  facet normal 0 0 1
    outer loop
      vertex 19.6974 -17.9236 8.01
      vertex 17.8635 -17.1071 8.01
      vertex 19.3316 -18.5572 8.01
    endloop
  endfacet
  facet normal -0 0 1
    outer loop
      vertex 17.7075 -17.3773 8.01
      vertex 19.3316 -18.5572 8.01
      vertex 17.8635 -17.1071 8.01
    endloop
  endfacet
  facet normal 0 0 1
    outer loop
      vertex 19.3316 -18.5572 8.01
      vertex 17.7075 -17.3773 8.01
      vertex 18.842 -19.101 8.01
    endloop
  endfacet
  facet normal -0 0 1
    outer loop
      vertex 17.4987 -17.6092 8.01
      vertex 18.842 -19.101 8.01
      vertex 17.7075 -17.3773 8.01
    endloop
  endfacet
  facet normal 0 0 1
    outer loop
      vertex 18.842 -19.101 8.01
      vertex 17.4987 -17.6092 8.01
      vertex 18.25 -19.5311 8.01
    endloop
  endfacet
  facet normal -0 0 1
    outer loop
      vertex 17.2463 -17.7926 8.01
      vertex 18.25 -19.5311 8.01
      vertex 17.4987 -17.6092 8.01
    endloop
  endfacet
  facet normal 0 0 1
    outer loop
      vertex 18.25 -19.5311 8.01
      vertex 17.2463 -17.7926 8.01
      vertex 17.5816 -19.8287 8.01
    endloop
  endfacet
  facet normal -0 0 1
    outer loop
      vertex 16.9612 -17.9195 8.01
      vertex 17.5816 -19.8287 8.01
      vertex 17.2463 -17.7926 8.01
    endloop
  endfacet
  facet normal 0 0 1
    outer loop
      vertex 16.9612 -17.9195 8.01
      vertex 16.8658 -19.9808 8.01
      vertex 17.5816 -19.8287 8.01
    endloop
  endfacet
  facet normal -0 0 1
    outer loop
      vertex 16.656 -17.9844 8.01
      vertex 16.8658 -19.9808 8.01
      vertex 16.9612 -17.9195 8.01
    endloop
  endfacet
  facet normal -0 0 1
    outer loop
      vertex -16.656 -17.9844 8.01
      vertex 16.8658 -19.9808 8.01
      vertex 16.656 -17.9844 8.01
    endloop
  endfacet
  facet normal 0 0 1
    outer loop
      vertex -16.656 -17.9844 8.01
      vertex -16.8658 -19.9808 8.01
      vertex 16.8658 -19.9808 8.01
    endloop
  endfacet
  facet normal 0 0 1
    outer loop
      vertex -16.9612 -17.9195 8.01
      vertex -16.8658 -19.9808 8.01
      vertex -16.656 -17.9844 8.01
    endloop
  endfacet
  facet normal 0 0 1
    outer loop
      vertex -17.5816 -19.8287 8.01
      vertex -16.9612 -17.9195 8.01
      vertex -17.2463 -17.7926 8.01
    endloop
  endfacet
  facet normal 0 0 1
    outer loop
      vertex -18.25 -19.5311 8.01
      vertex -17.2463 -17.7926 8.01
      vertex -17.4987 -17.6092 8.01
    endloop
  endfacet
  facet normal 0 0 1
    outer loop
      vertex -16.9612 -17.9195 8.01
      vertex -17.5816 -19.8287 8.01
      vertex -16.8658 -19.9808 8.01
    endloop
  endfacet
  facet normal 0 0 1
    outer loop
      vertex -18.842 -19.101 8.01
      vertex -17.4987 -17.6092 8.01
      vertex -17.7075 -17.3773 8.01
    endloop
  endfacet
  facet normal 0 0 1
    outer loop
      vertex -19.3316 -18.5572 8.01
      vertex -17.7075 -17.3773 8.01
      vertex -17.8635 -17.1071 8.01
    endloop
  endfacet
  facet normal 0 0 1
    outer loop
      vertex -19.6974 -17.9236 8.01
      vertex -17.8635 -17.1071 8.01
      vertex -17.9599 -16.8103 8.01
    endloop
  endfacet
  facet normal 0 0 1
    outer loop
      vertex -17.2463 -17.7926 8.01
      vertex -18.25 -19.5311 8.01
      vertex -17.5816 -19.8287 8.01
    endloop
  endfacet
  facet normal 0 0 1
    outer loop
      vertex -19.9235 -17.2277 8.01
      vertex -17.9599 -16.8103 8.01
      vertex -17.9925 -16.5 8.01
    endloop
  endfacet
  facet normal 0 0 1
    outer loop
      vertex -17.9925 16.5 8.01
      vertex -20 16.5 8.01
      vertex -17.9925 -16.5 8.01
    endloop
  endfacet
  facet normal 0 0 1
    outer loop
      vertex -17.8635 17.1071 8.01
      vertex -19.6974 17.9236 8.01
      vertex -17.9599 16.8103 8.01
    endloop
  endfacet
  facet normal 0 0 1
    outer loop
      vertex -20 -16.5 8.01
      vertex -17.9925 -16.5 8.01
      vertex -20 16.5 8.01
    endloop
  endfacet
  facet normal -0 0 1
    outer loop
      vertex -19.9235 17.2277 8.01
      vertex -17.9599 16.8103 8.01
      vertex -19.6974 17.9236 8.01
    endloop
  endfacet
  facet normal 0 -0 1
    outer loop
      vertex -19.9235 -17.2277 8.01
      vertex -17.9925 -16.5 8.01
      vertex -20 -16.5 8.01
    endloop
  endfacet
  facet normal 0 0 1
    outer loop
      vertex -17.9599 16.8103 8.01
      vertex -19.9235 17.2277 8.01
      vertex -17.9925 16.5 8.01
    endloop
  endfacet
  facet normal 0 0 1
    outer loop
      vertex -17.4987 -17.6092 8.01
      vertex -18.842 -19.101 8.01
      vertex -18.25 -19.5311 8.01
    endloop
  endfacet
  facet normal 0 0 1
    outer loop
      vertex -17.9925 16.5 8.01
      vertex -19.9235 17.2277 8.01
      vertex -20 16.5 8.01
    endloop
  endfacet
  facet normal 0 0 1
    outer loop
      vertex -17.7075 -17.3773 8.01
      vertex -19.3316 -18.5572 8.01
      vertex -18.842 -19.101 8.01
    endloop
  endfacet
  facet normal 0 0 1
    outer loop
      vertex -17.8635 -17.1071 8.01
      vertex -19.6974 -17.9236 8.01
      vertex -19.3316 -18.5572 8.01
    endloop
  endfacet
  facet normal 0 0 1
    outer loop
      vertex -17.9599 -16.8103 8.01
      vertex -19.9235 -17.2277 8.01
      vertex -19.6974 -17.9236 8.01
    endloop
  endfacet
  facet normal 0.983079 -0 0.183182
    outer loop
      vertex -17.9925 -16.5 8.01
      vertex -16.525 16.5 0.134165
      vertex -17.9925 16.5 8.01
    endloop
  endfacet
  facet normal 0.983079 0 0.183182
    outer loop
      vertex -16.525 16.5 0.134165
      vertex -17.9925 -16.5 8.01
      vertex -16.525 -16.5 0.134165
    endloop
  endfacet
  facet normal -0.935134 -0.303846 0.182212
    outer loop
      vertex 16.525 16.5111 0.146862
      vertex 17.9599 16.8103 8.01
      vertex 17.8635 17.1071 8.01
    endloop
  endfacet
  facet normal -0.935146 -0.30381 0.182213
    outer loop
      vertex 17.9599 16.8103 8.01
      vertex 16.525 16.5111 0.146862
      vertex 16.525 16.5053 0.137162
    endloop
  endfacet
  facet normal 0.204427 0.961773 0.182212
    outer loop
      vertex -16.656 -17.9844 8.01
      vertex -16.5081 -16.525 0.141069
      vertex -16.9612 -17.9195 8.01
    endloop
  endfacet
  facet normal 0.204439 0.961771 0.182212
    outer loop
      vertex -16.5081 -16.525 0.141069
      vertex -16.656 -17.9844 8.01
      vertex -16.5026 -16.525 0.134904
    endloop
  endfacet
  facet normal -0.399928 0.898252 0.182212
    outer loop
      vertex 16.5144 -16.525 0.15492
      vertex 16.9612 -17.9195 8.01
      vertex 17.2463 -17.7926 8.01
    endloop
  endfacet
  facet normal -0.399997 0.898221 0.182211
    outer loop
      vertex 16.9612 -17.9195 8.01
      vertex 16.5144 -16.525 0.15492
      vertex 16.5081 -16.525 0.141069
    endloop
  endfacet
  facet normal -0.204427 -0.961773 0.182212
    outer loop
      vertex 16.656 17.9844 8.01
      vertex 16.5081 16.525 0.141069
      vertex 16.9612 17.9195 8.01
    endloop
  endfacet
  facet normal -0.204439 -0.961771 0.182212
    outer loop
      vertex 16.5081 16.525 0.141069
      vertex 16.656 17.9844 8.01
      vertex 16.5026 16.525 0.134904
    endloop
  endfacet
  facet normal 0.851515 0.491652 0.182212
    outer loop
      vertex -17.8635 -17.1071 8.01
      vertex -16.525 -16.5182 0.165837
      vertex -16.525 -16.5111 0.146862
    endloop
  endfacet
  facet normal 0.851528 0.491629 0.182212
    outer loop
      vertex -16.525 -16.5182 0.165837
      vertex -17.8635 -17.1071 8.01
      vertex -17.7075 -17.3773 8.01
    endloop
  endfacet
  facet normal 0 0.983259 0.182212
    outer loop
      vertex 16.5026 -16.525 0.134904
      vertex -16.656 -17.9844 8.01
      vertex 16.656 -17.9844 8.01
    endloop
  endfacet
  facet normal 0 0.983259 0.182212
    outer loop
      vertex -16.656 -17.9844 8.01
      vertex 16.5026 -16.525 0.134904
      vertex -16.5026 -16.525 0.134904
    endloop
  endfacet
  facet normal -0.983079 0 0.183182
    outer loop
      vertex 16.525 -16.5 0.134165
      vertex 17.9925 16.5 8.01
      vertex 16.525 16.5 0.134165
    endloop
  endfacet
  facet normal -0.983079 0 0.183182
    outer loop
      vertex 17.9925 16.5 8.01
      vertex 16.525 -16.5 0.134165
      vertex 17.9925 -16.5 8.01
    endloop
  endfacet
  facet normal -0.577949 -0.795471 0.182212
    outer loop
      vertex 17.2463 17.7926 8.01
      vertex 16.5225 16.525 0.180536
      vertex 17.4987 17.6092 8.01
    endloop
  endfacet
  facet normal -0.577854 -0.795539 0.182215
    outer loop
      vertex 16.5225 16.525 0.180536
      vertex 17.2463 17.7926 8.01
      vertex 16.5144 16.525 0.15492
    endloop
  endfacet
  facet normal 0.577949 0.795471 0.182212
    outer loop
      vertex -17.2463 -17.7926 8.01
      vertex -16.5225 -16.525 0.180536
      vertex -17.4987 -17.6092 8.01
    endloop
  endfacet
  facet normal 0.577854 0.795539 0.182215
    outer loop
      vertex -16.5225 -16.525 0.180536
      vertex -17.2463 -17.7926 8.01
      vertex -16.5144 -16.525 0.15492
    endloop
  endfacet
  facet normal 0.977873 0.102779 0.182212
    outer loop
      vertex -17.9925 -16.5 8.01
      vertex -16.525 -16.5053 0.137162
      vertex -16.525 -16.5 0.134165
    endloop
  endfacet
  facet normal 0.977873 0.102778 0.182212
    outer loop
      vertex -16.525 -16.5053 0.137162
      vertex -17.9925 -16.5 8.01
      vertex -17.9599 -16.8103 8.01
    endloop
  endfacet
  facet normal 0 -0.983259 0.182212
    outer loop
      vertex -16.5026 16.525 0.134904
      vertex 16.656 17.9844 8.01
      vertex -16.656 17.9844 8.01
    endloop
  endfacet
  facet normal 0 -0.983259 0.182212
    outer loop
      vertex 16.656 17.9844 8.01
      vertex -16.5026 16.525 0.134904
      vertex 16.5026 16.525 0.134904
    endloop
  endfacet
  facet normal -0.977873 0.102779 0.182212
    outer loop
      vertex 16.525 -16.5053 0.137162
      vertex 17.9925 -16.5 8.01
      vertex 16.525 -16.5 0.134165
    endloop
  endfacet
  facet normal -0.977873 0.102778 0.182212
    outer loop
      vertex 17.9925 -16.5 8.01
      vertex 16.525 -16.5053 0.137162
      vertex 17.9599 -16.8103 8.01
    endloop
  endfacet
  facet normal -0.977873 -0.102779 0.182212
    outer loop
      vertex 17.9925 16.5 8.01
      vertex 16.525 16.5053 0.137162
      vertex 16.525 16.5 0.134165
    endloop
  endfacet
  facet normal -0.977873 -0.102778 0.182212
    outer loop
      vertex 16.525 16.5053 0.137162
      vertex 17.9925 16.5 8.01
      vertex 17.9599 16.8103 8.01
    endloop
  endfacet
  facet normal -0.399928 -0.898252 0.182212
    outer loop
      vertex 16.9612 17.9195 8.01
      vertex 16.5144 16.525 0.15492
      vertex 17.2463 17.7926 8.01
    endloop
  endfacet
  facet normal -0.399997 -0.898221 0.182211
    outer loop
      vertex 16.5144 16.525 0.15492
      vertex 16.9612 17.9195 8.01
      vertex 16.5081 16.525 0.141069
    endloop
  endfacet
  facet normal 0.399928 0.898252 0.182212
    outer loop
      vertex -16.9612 -17.9195 8.01
      vertex -16.5144 -16.525 0.15492
      vertex -17.2463 -17.7926 8.01
    endloop
  endfacet
  facet normal 0.399997 0.898221 0.182211
    outer loop
      vertex -16.5144 -16.525 0.15492
      vertex -16.9612 -17.9195 8.01
      vertex -16.5081 -16.525 0.141069
    endloop
  endfacet
  facet normal 0.730673 0.657963 0.182211
    outer loop
      vertex -17.7075 -17.3773 8.01
      vertex -16.525 -16.525 0.190521
      vertex -16.525 -16.5182 0.165837
    endloop
  endfacet
  facet normal 0.730704 0.657929 0.182212
    outer loop
      vertex -17.4987 -17.6092 8.01
      vertex -16.525 -16.525 0.190521
      vertex -17.7075 -17.3773 8.01
    endloop
  endfacet
  facet normal 0.730905 0.657707 0.182207
    outer loop
      vertex -16.525 -16.525 0.190521
      vertex -17.4987 -17.6092 8.01
      vertex -16.5225 -16.525 0.180536
    endloop
  endfacet
  facet normal 0.935146 0.30381 0.182213
    outer loop
      vertex -17.9599 -16.8103 8.01
      vertex -16.525 -16.5111 0.146862
      vertex -16.525 -16.5053 0.137162
    endloop
  endfacet
  facet normal 0.935134 0.303846 0.182212
    outer loop
      vertex -16.525 -16.5111 0.146862
      vertex -17.9599 -16.8103 8.01
      vertex -17.8635 -17.1071 8.01
    endloop
  endfacet
  facet normal 0.730673 -0.657963 0.182211
    outer loop
      vertex -17.7075 17.3773 8.01
      vertex -16.525 16.5182 0.165837
      vertex -16.525 16.525 0.190521
    endloop
  endfacet
  facet normal 0.730704 -0.657929 0.182212
    outer loop
      vertex -16.525 16.525 0.190521
      vertex -17.4987 17.6092 8.01
      vertex -17.7075 17.3773 8.01
    endloop
  endfacet
  facet normal 0.730905 -0.657707 0.182207
    outer loop
      vertex -17.4987 17.6092 8.01
      vertex -16.525 16.525 0.190521
      vertex -16.5225 16.525 0.180536
    endloop
  endfacet
  facet normal -0.935146 0.30381 0.182213
    outer loop
      vertex 16.525 -16.5111 0.146862
      vertex 17.9599 -16.8103 8.01
      vertex 16.525 -16.5053 0.137162
    endloop
  endfacet
  facet normal -0.935134 0.303846 0.182212
    outer loop
      vertex 17.9599 -16.8103 8.01
      vertex 16.525 -16.5111 0.146862
      vertex 17.8635 -17.1071 8.01
    endloop
  endfacet
  facet normal -0.851528 -0.491629 0.182212
    outer loop
      vertex 16.525 16.5182 0.165837
      vertex 17.8635 17.1071 8.01
      vertex 17.7075 17.3773 8.01
    endloop
  endfacet
  facet normal -0.851515 -0.491652 0.182212
    outer loop
      vertex 17.8635 17.1071 8.01
      vertex 16.525 16.5182 0.165837
      vertex 16.525 16.5111 0.146862
    endloop
  endfacet
  facet normal -0.577949 0.795471 0.182212
    outer loop
      vertex 16.5225 -16.525 0.180536
      vertex 17.2463 -17.7926 8.01
      vertex 17.4987 -17.6092 8.01
    endloop
  endfacet
  facet normal -0.577854 0.795539 0.182215
    outer loop
      vertex 17.2463 -17.7926 8.01
      vertex 16.5225 -16.525 0.180536
      vertex 16.5144 -16.525 0.15492
    endloop
  endfacet
  facet normal 0.399928 -0.898252 0.182212
    outer loop
      vertex -16.5144 16.525 0.15492
      vertex -16.9612 17.9195 8.01
      vertex -17.2463 17.7926 8.01
    endloop
  endfacet
  facet normal 0.399997 -0.898221 0.182211
    outer loop
      vertex -16.9612 17.9195 8.01
      vertex -16.5144 16.525 0.15492
      vertex -16.5081 16.525 0.141069
    endloop
  endfacet
  facet normal -0.851515 0.491652 0.182212
    outer loop
      vertex 16.525 -16.5182 0.165837
      vertex 17.8635 -17.1071 8.01
      vertex 16.525 -16.5111 0.146862
    endloop
  endfacet
  facet normal -0.851528 0.491629 0.182212
    outer loop
      vertex 17.8635 -17.1071 8.01
      vertex 16.525 -16.5182 0.165837
      vertex 17.7075 -17.3773 8.01
    endloop
  endfacet
  facet normal -0.730905 -0.657707 0.182207
    outer loop
      vertex 16.525 16.525 0.190521
      vertex 17.4987 17.6092 8.01
      vertex 16.5225 16.525 0.180536
    endloop
  endfacet
  facet normal -0.730704 -0.657929 0.182212
    outer loop
      vertex 17.4987 17.6092 8.01
      vertex 16.525 16.525 0.190521
      vertex 17.7075 17.3773 8.01
    endloop
  endfacet
  facet normal -0.730673 -0.657963 0.182211
    outer loop
      vertex 17.7075 17.3773 8.01
      vertex 16.525 16.525 0.190521
      vertex 16.525 16.5182 0.165837
    endloop
  endfacet
  facet normal -0.204427 0.961773 0.182212
    outer loop
      vertex 16.5081 -16.525 0.141069
      vertex 16.656 -17.9844 8.01
      vertex 16.9612 -17.9195 8.01
    endloop
  endfacet
  facet normal -0.204439 0.961771 0.182212
    outer loop
      vertex 16.656 -17.9844 8.01
      vertex 16.5081 -16.525 0.141069
      vertex 16.5026 -16.525 0.134904
    endloop
  endfacet
  facet normal -0.730905 0.657707 0.182207
    outer loop
      vertex 17.4987 -17.6092 8.01
      vertex 16.525 -16.525 0.190521
      vertex 16.5225 -16.525 0.180536
    endloop
  endfacet
  facet normal -0.730704 0.657929 0.182212
    outer loop
      vertex 16.525 -16.525 0.190521
      vertex 17.4987 -17.6092 8.01
      vertex 17.7075 -17.3773 8.01
    endloop
  endfacet
  facet normal -0.730673 0.657963 0.182211
    outer loop
      vertex 16.525 -16.5182 0.165837
      vertex 16.525 -16.525 0.190521
      vertex 17.7075 -17.3773 8.01
    endloop
  endfacet
  facet normal 0.851528 -0.491629 0.182212
    outer loop
      vertex -17.8635 17.1071 8.01
      vertex -16.525 16.5182 0.165837
      vertex -17.7075 17.3773 8.01
    endloop
  endfacet
  facet normal 0.851515 -0.491652 0.182212
    outer loop
      vertex -16.525 16.5182 0.165837
      vertex -17.8635 17.1071 8.01
      vertex -16.525 16.5111 0.146862
    endloop
  endfacet
  facet normal 0.577949 -0.795471 0.182212
    outer loop
      vertex -16.5225 16.525 0.180536
      vertex -17.2463 17.7926 8.01
      vertex -17.4987 17.6092 8.01
    endloop
  endfacet
  facet normal 0.577854 -0.795539 0.182215
    outer loop
      vertex -17.2463 17.7926 8.01
      vertex -16.5225 16.525 0.180536
      vertex -16.5144 16.525 0.15492
    endloop
  endfacet
  facet normal 0.204427 -0.961773 0.182212
    outer loop
      vertex -16.5081 16.525 0.141069
      vertex -16.656 17.9844 8.01
      vertex -16.9612 17.9195 8.01
    endloop
  endfacet
  facet normal 0.204439 -0.961771 0.182212
    outer loop
      vertex -16.656 17.9844 8.01
      vertex -16.5081 16.525 0.141069
      vertex -16.5026 16.525 0.134904
    endloop
  endfacet
  facet normal 0.935134 -0.303846 0.182212
    outer loop
      vertex -17.9599 16.8103 8.01
      vertex -16.525 16.5111 0.146862
      vertex -17.8635 17.1071 8.01
    endloop
  endfacet
  facet normal 0.935146 -0.30381 0.182213
    outer loop
      vertex -16.525 16.5111 0.146862
      vertex -17.9599 16.8103 8.01
      vertex -16.525 16.5053 0.137162
    endloop
  endfacet
  facet normal 0.977873 -0.102778 0.182212
    outer loop
      vertex -17.9925 16.5 8.01
      vertex -16.525 16.5053 0.137162
      vertex -17.9599 16.8103 8.01
    endloop
  endfacet
  facet normal 0.977873 -0.102779 0.182212
    outer loop
      vertex -16.525 16.5053 0.137162
      vertex -17.9925 16.5 8.01
      vertex -16.525 16.5 0.134165
    endloop
  endfacet
  facet normal 0.707107 0 0.707107
    outer loop
      vertex 1.5412 -11.986 3
      vertex -0.408801 -6.4803 4.95
      vertex -0.408801 -11.986 4.95
    endloop
  endfacet
  facet normal 0.707107 0 0.707107
    outer loop
      vertex -0.408801 -6.4803 4.95
      vertex 1.5412 -11.986 3
      vertex 1.5412 -4.54099 3
    endloop
  endfacet
  facet normal 0.705162 0.0741159 0.705162
    outer loop
      vertex -0.366189 -12.3914 4.95
      vertex 1.5412 -11.986 3
      vertex -0.408801 -11.986 4.95
    endloop
  endfacet
  facet normal 0.416767 0.573631 0.705162
    outer loop
      vertex 0.566199 -13.6747 4.95
      vertex 1.5412 -11.986 3
      vertex 0.236395 -13.4351 4.95
    endloop
  endfacet
  facet normal 0 0.709046 0.705162
    outer loop
      vertex 4.0132 -11.986 3
      vertex 1.33737 -13.9253 4.95
      vertex 4.21703 -13.9253 4.95
    endloop
  endfacet
  facet normal 0 0.709046 0.705162
    outer loop
      vertex 1.33737 -13.9253 4.95
      vertex 4.0132 -11.986 3
      vertex 1.5412 -11.986 3
    endloop
  endfacet
  facet normal -0 0 1
    outer loop
      vertex -5.65379 11.542 3
      vertex -3.18179 11.181 3
      vertex -3.18179 11.542 3
    endloop
  endfacet
  facet normal 0 0 1
    outer loop
      vertex -3.18179 11.181 3
      vertex -4.2963 7.64969 3
      vertex -3.66779 7.38937 3
    endloop
  endfacet
  facet normal 0 0 1
    outer loop
      vertex -3.18179 11.181 3
      vertex -4.79279 8.01399 3
      vertex -4.2963 7.64969 3
    endloop
  endfacet
  facet normal 0 0 1
    outer loop
      vertex -3.18179 11.181 3
      vertex -5.16948 8.50037 3
      vertex -4.79279 8.01399 3
    endloop
  endfacet
  facet normal 0 0 1
    outer loop
      vertex -3.18179 11.181 3
      vertex -5.43833 9.125 3
      vertex -5.16948 8.50037 3
    endloop
  endfacet
  facet normal 0 0 1
    outer loop
      vertex -3.18179 11.181 3
      vertex -5.46561 9.25359 3
      vertex -5.43833 9.125 3
    endloop
  endfacet
  facet normal 0 0 1
    outer loop
      vertex -5.43833 9.125 3
      vertex -5.46561 9.25359 3
      vertex -5.43854 9.12549 3
    endloop
  endfacet
  facet normal 0 0 1
    outer loop
      vertex -3.18179 11.181 3
      vertex -5.54711 9.63924 3
      vertex -5.46561 9.25359 3
    endloop
  endfacet
  facet normal 0 0 1
    outer loop
      vertex -3.18179 11.181 3
      vertex -5.59998 9.88937 3
      vertex -5.54711 9.63924 3
    endloop
  endfacet
  facet normal 0 0 1
    outer loop
      vertex -3.18179 11.181 3
      vertex -5.62337 10.2818 3
      vertex -5.59998 9.88937 3
    endloop
  endfacet
  facet normal 0 0 1
    outer loop
      vertex -3.18179 11.181 3
      vertex -5.65379 11.542 3
      vertex -5.65379 10.792 3
    endloop
  endfacet
  facet normal 0 0 1
    outer loop
      vertex -3.18179 11.181 3
      vertex -5.65379 10.792 3
      vertex -5.62337 10.2818 3
    endloop
  endfacet
  facet normal -0 0 1
    outer loop
      vertex -5.40379 -2.59698 3
      vertex 1.5412 -4.54099 3
      vertex 1.5412 -2.59698 3
    endloop
  endfacet
  facet normal 0 0 1
    outer loop
      vertex 1.5412 -4.54099 3
      vertex -5.40379 -2.59698 3
      vertex -5.40379 -4.54099 3
    endloop
  endfacet
  facet normal 0 0 1
    outer loop
      vertex 1.5412 -2.59698 3
      vertex 4.0132 9.125 3
      vertex 1.5412 7.181 3
    endloop
  endfacet
  facet normal -0 0 1
    outer loop
      vertex -1.43179 9.125 3
      vertex 1.5412 7.181 3
      vertex 4.0132 9.125 3
    endloop
  endfacet
  facet normal 0 0 1
    outer loop
      vertex -1.43179 9.125 3
      vertex -2.01479 7.181 3
      vertex 1.5412 7.181 3
    endloop
  endfacet
  facet normal 0 0 1
    outer loop
      vertex -2.19714 9.25359 3
      vertex -2.01479 7.181 3
      vertex -1.43179 9.125 3
    endloop
  endfacet
  facet normal 0 0 1
    outer loop
      vertex -3.66779 7.38937 3
      vertex -2.19714 9.25359 3
      vertex -2.74405 9.63924 3
    endloop
  endfacet
  facet normal 0 0 1
    outer loop
      vertex -2.19714 9.25359 3
      vertex -2.90729 7.23311 3
      vertex -2.01479 7.181 3
    endloop
  endfacet
  facet normal 0 0 1
    outer loop
      vertex -3.66779 7.38937 3
      vertex -2.74405 9.63924 3
      vertex -3.07233 10.2818 3
    endloop
  endfacet
  facet normal 0 0 1
    outer loop
      vertex -3.66779 7.38937 3
      vertex -3.07233 10.2818 3
      vertex -3.18179 11.181 3
    endloop
  endfacet
  facet normal 0 0 1
    outer loop
      vertex -2.19714 9.25359 3
      vertex -3.66779 7.38937 3
      vertex -2.90729 7.23311 3
    endloop
  endfacet
  facet normal 0 0 1
    outer loop
      vertex 4.0132 9.125 3
      vertex 1.5412 -2.59698 3
      vertex 4.0132 -11.986 3
    endloop
  endfacet
  facet normal -0 0 1
    outer loop
      vertex 1.5412 -4.54099 3
      vertex 4.0132 -11.986 3
      vertex 1.5412 -2.59698 3
    endloop
  endfacet
  facet normal 0 0 1
    outer loop
      vertex 4.0132 -11.986 3
      vertex 1.5412 -4.54099 3
      vertex 1.5412 -11.986 3
    endloop
  endfacet
  facet normal -0.707107 0 0.707107
    outer loop
      vertex 4.0132 -11.986 3
      vertex 5.9632 9.125 4.95
      vertex 4.0132 9.125 3
    endloop
  endfacet
  facet normal -0.707107 0 0.707107
    outer loop
      vertex 5.9632 9.125 4.95
      vertex 4.0132 -11.986 3
      vertex 5.9632 -11.986 4.95
    endloop
  endfacet
  facet normal 0.614053 0.354523 0.705162
    outer loop
      vertex -0.0363837 -13.1322 4.95
      vertex 1.5412 -11.986 3
      vertex -0.240214 -12.7791 4.95
    endloop
  endfacet
  facet normal -0.147418 0.693552 0.705162
    outer loop
      vertex 4.21703 -13.9253 4.95
      vertex 4.61578 -13.8406 4.95
      vertex 4.0132 -11.986 3
    endloop
  endfacet
  facet normal 0.526924 0.474445 0.705162
    outer loop
      vertex 0.236395 -13.4351 4.95
      vertex 1.5412 -11.986 3
      vertex -0.0363837 -13.1322 4.95
    endloop
  endfacet
  facet normal 0.147418 0.693552 0.705162
    outer loop
      vertex 1.33737 -13.9253 4.95
      vertex 1.5412 -11.986 3
      vertex 0.938616 -13.8406 4.95
    endloop
  endfacet
  facet normal -0.705162 0.0741163 0.705162
    outer loop
      vertex 5.92059 -12.3914 4.95
      vertex 5.9632 -11.986 4.95
      vertex 4.0132 -11.986 3
    endloop
  endfacet
  facet normal -0.674343 0.219108 0.705162
    outer loop
      vertex 5.79461 -12.7791 4.95
      vertex 5.92059 -12.3914 4.95
      vertex 4.0132 -11.986 3
    endloop
  endfacet
  facet normal 0.674343 0.219108 0.705162
    outer loop
      vertex -0.240214 -12.7791 4.95
      vertex 1.5412 -11.986 3
      vertex -0.366189 -12.3914 4.95
    endloop
  endfacet
  facet normal -0.526924 0.474445 0.705162
    outer loop
      vertex 5.318 -13.4351 4.95
      vertex 5.59078 -13.1322 4.95
      vertex 4.0132 -11.986 3
    endloop
  endfacet
  facet normal -0.614053 0.354522 0.705162
    outer loop
      vertex 5.59078 -13.1322 4.95
      vertex 5.79461 -12.7791 4.95
      vertex 4.0132 -11.986 3
    endloop
  endfacet
  facet normal 0.288396 0.647746 0.705162
    outer loop
      vertex 0.938616 -13.8406 4.95
      vertex 1.5412 -11.986 3
      vertex 0.566199 -13.6747 4.95
    endloop
  endfacet
  facet normal -0.288397 0.647745 0.705162
    outer loop
      vertex 4.61578 -13.8406 4.95
      vertex 4.9882 -13.6747 4.95
      vertex 4.0132 -11.986 3
    endloop
  endfacet
  facet normal -0.416766 0.573631 0.705162
    outer loop
      vertex 4.9882 -13.6747 4.95
      vertex 5.318 -13.4351 4.95
      vertex 4.0132 -11.986 3
    endloop
  endfacet
  facet normal 0.705162 -0.0741162 0.705162
    outer loop
      vertex -5.40379 -2.59698 3
      vertex -7.31118 -2.19156 4.95
      vertex -7.35379 -2.59698 4.95
    endloop
  endfacet
  facet normal 0 -0.709046 0.705162
    outer loop
      vertex -5.40379 -2.59698 3
      vertex -0.408801 -0.657668 4.95
      vertex -5.60762 -0.657668 4.95
    endloop
  endfacet
  facet normal 0 -0.709046 0.705162
    outer loop
      vertex -0.408801 -0.657668 4.95
      vertex -5.40379 -2.59698 3
      vertex 1.5412 -2.59698 3
    endloop
  endfacet
  facet normal 0.147418 -0.693552 0.705162
    outer loop
      vertex -5.40379 -2.59698 3
      vertex -5.60762 -0.657668 4.95
      vertex -6.00638 -0.742425 4.95
    endloop
  endfacet
  facet normal 0.707107 -0 0.707107
    outer loop
      vertex -7.35379 -4.54099 4.95
      vertex -5.40379 -2.59698 3
      vertex -7.35379 -2.59698 4.95
    endloop
  endfacet
  facet normal 0.707107 0 0.707107
    outer loop
      vertex -5.40379 -2.59698 3
      vertex -7.35379 -4.54099 4.95
      vertex -5.40379 -4.54099 3
    endloop
  endfacet
  facet normal 0.526924 -0.474445 0.705162
    outer loop
      vertex -5.40379 -2.59698 3
      vertex -6.7086 -1.14785 4.95
      vertex -6.98138 -1.4508 4.95
    endloop
  endfacet
  facet normal 0.614053 -0.354523 0.705162
    outer loop
      vertex -5.40379 -2.59698 3
      vertex -6.98138 -1.4508 4.95
      vertex -7.18521 -1.80385 4.95
    endloop
  endfacet
  facet normal 0.614053 0.354522 0.705162
    outer loop
      vertex -6.98138 -5.68717 4.95
      vertex -5.40379 -4.54099 3
      vertex -7.18521 -5.33412 4.95
    endloop
  endfacet
  facet normal 0.288396 0.647746 0.705162
    outer loop
      vertex -6.00638 -6.39555 4.95
      vertex -5.40379 -4.54099 3
      vertex -6.37879 -6.22973 4.95
    endloop
  endfacet
  facet normal 0.674343 -0.219108 0.705162
    outer loop
      vertex -5.40379 -2.59698 3
      vertex -7.18521 -1.80385 4.95
      vertex -7.31118 -2.19156 4.95
    endloop
  endfacet
  facet normal 0.147418 0.693552 0.705162
    outer loop
      vertex -5.60762 -6.4803 4.95
      vertex -5.40379 -4.54099 3
      vertex -6.00638 -6.39555 4.95
    endloop
  endfacet
  facet normal 0.288396 -0.647746 0.705162
    outer loop
      vertex -5.40379 -2.59698 3
      vertex -6.00638 -0.742425 4.95
      vertex -6.37879 -0.908236 4.95
    endloop
  endfacet
  facet normal 0.416767 -0.57363 0.705162
    outer loop
      vertex -5.40379 -2.59698 3
      vertex -6.37879 -0.908236 4.95
      vertex -6.7086 -1.14785 4.95
    endloop
  endfacet
  facet normal 0.416767 0.57363 0.705162
    outer loop
      vertex -6.37879 -6.22973 4.95
      vertex -5.40379 -4.54099 3
      vertex -6.7086 -5.99012 4.95
    endloop
  endfacet
  facet normal 0.705162 0.0741162 0.705162
    outer loop
      vertex -7.31118 -4.94641 4.95
      vertex -5.40379 -4.54099 3
      vertex -7.35379 -4.54099 4.95
    endloop
  endfacet
  facet normal -0 0.709046 0.705162
    outer loop
      vertex -5.40379 -4.54099 3
      vertex -0.408801 -6.4803 4.95
      vertex 1.5412 -4.54099 3
    endloop
  endfacet
  facet normal 0 0.709046 0.705162
    outer loop
      vertex -0.408801 -6.4803 4.95
      vertex -5.40379 -4.54099 3
      vertex -5.60762 -6.4803 4.95
    endloop
  endfacet
  facet normal 0.674343 0.219108 0.705162
    outer loop
      vertex -7.18521 -5.33412 4.95
      vertex -5.40379 -4.54099 3
      vertex -7.31118 -4.94641 4.95
    endloop
  endfacet
  facet normal 0.526923 0.474445 0.705162
    outer loop
      vertex -6.7086 -5.99012 4.95
      vertex -5.40379 -4.54099 3
      vertex -6.98138 -5.68717 4.95
    endloop
  endfacet
  facet normal 0.707107 -0 0.707107
    outer loop
      vertex -0.408801 -0.657668 4.95
      vertex 1.5412 7.181 3
      vertex -0.408801 5.24168 4.95
    endloop
  endfacet
  facet normal 0.707107 0 0.707107
    outer loop
      vertex 1.5412 7.181 3
      vertex -0.408801 -0.657668 4.95
      vertex 1.5412 -2.59698 3
    endloop
  endfacet
  facet normal 0.691826 0.14621 0.707106
    outer loop
      vertex -5.54711 9.63924 3
      vertex -7.373 8.84816 4.95
      vertex -5.46561 9.25359 3
    endloop
  endfacet
  facet normal 0.691826 0.14621 0.707106
    outer loop
      vertex -7.373 8.84816 4.95
      vertex -5.54711 9.63924 3
      vertex -7.4545 9.23381 4.95
    endloop
  endfacet
  facet normal -0.40833 -0.579068 0.705653
    outer loop
      vertex -2.19714 9.25359 3
      vertex -1.66503 10.5649 4.38402
      vertex -2.74405 9.63924 3
    endloop
  endfacet
  facet normal 0.706479 0.042122 0.706479
    outer loop
      vertex -7.54998 9.88937 4.95
      vertex -5.62337 10.2818 3
      vertex -7.57337 10.2818 4.95
    endloop
  endfacet
  facet normal 0.706479 0.042122 0.706479
    outer loop
      vertex -5.62337 10.2818 3
      vertex -7.54998 9.88937 4.95
      vertex -5.59998 9.88937 3
    endloop
  endfacet
  facet normal 0.691826 0.146211 0.707106
    outer loop
      vertex -5.59998 9.88937 3
      vertex -7.4545 9.23381 4.95
      vertex -5.54711 9.63924 3
    endloop
  endfacet
  facet normal 0.691826 0.146211 0.707106
    outer loop
      vertex -7.4545 9.23381 4.95
      vertex -5.59998 9.88937 3
      vertex -7.50736 9.48395 4.95
    endloop
  endfacet
  facet normal -0.630133 -0.321944 0.706601
    outer loop
      vertex -3.07233 10.2818 3
      vertex -1.66503 10.5649 4.38402
      vertex -1.5146 10.77 4.61158
    endloop
  endfacet
  facet normal -0.630133 -0.321943 0.706601
    outer loop
      vertex -1.66503 10.5649 4.38402
      vertex -3.07233 10.2818 3
      vertex -2.74405 9.63924 3
    endloop
  endfacet
  facet normal 0.705162 0.0741163 0.705162
    outer loop
      vertex -7.50736 9.48395 4.95
      vertex -5.59998 9.88937 3
      vertex -7.54998 9.88937 4.95
    endloop
  endfacet
  facet normal -2.39842e-05 -0.709045 0.705163
    outer loop
      vertex -1.43179 9.125 3
      vertex -1.21085 11.0643 4.95
      vertex -1.23026 11.0424 4.928
    endloop
  endfacet
  facet normal 0 -0.709046 0.705162
    outer loop
      vertex -1.21085 11.0643 4.95
      vertex -1.43179 9.125 3
      vertex 4.0132 9.125 3
    endloop
  endfacet
  facet normal 0 -0.709046 0.705162
    outer loop
      vertex -1.21085 11.0643 4.95
      vertex 4.0132 9.125 3
      vertex 4.21703 11.0643 4.95
    endloop
  endfacet
  facet normal 0.649526 0.279561 0.707079
    outer loop
      vertex -7.21974 8.33186 4.95
      vertex -5.16948 8.50037 3
      vertex -5.43833 9.125 3
    endloop
  endfacet
  facet normal 0.649526 0.279561 0.707079
    outer loop
      vertex -5.16948 8.50037 3
      vertex -7.21974 8.33186 4.95
      vertex -6.95089 7.70723 4.95
    endloop
  endfacet
  facet normal -0.147418 -0.693552 0.705162
    outer loop
      vertex 4.61578 10.9796 4.95
      vertex 4.21703 11.0643 4.95
      vertex 4.0132 9.125 3
    endloop
  endfacet
  facet normal 0.142663 0.694298 0.705406
    outer loop
      vertex -3.87162 5.45006 4.95
      vertex -2.90729 7.23311 3
      vertex -3.66779 7.38937 3
    endloop
  endfacet
  facet normal 0.142663 0.694298 0.705406
    outer loop
      vertex -2.90729 7.23311 3
      vertex -3.87162 5.45006 4.95
      vertex -3.11112 5.29379 4.95
    endloop
  endfacet
  facet normal 0.559176 0.433079 0.70694
    outer loop
      vertex -5.16948 8.50037 3
      vertex -6.37037 6.86781 4.95
      vertex -4.79279 8.01399 3
    endloop
  endfacet
  facet normal 0.559176 0.433079 0.70694
    outer loop
      vertex -6.37037 6.86781 4.95
      vertex -5.16948 8.50037 3
      vertex -6.74706 7.35419 4.95
    endloop
  endfacet
  facet normal 0.147418 0.693552 0.705162
    outer loop
      vertex -3.87162 5.45006 4.95
      vertex -3.66779 7.38937 3
      vertex -4.27037 5.53481 4.95
    endloop
  endfacet
  facet normal -0.705162 -0.0741163 0.705162
    outer loop
      vertex 5.9632 9.125 4.95
      vertex 5.92059 9.53043 4.95
      vertex 4.0132 9.125 3
    endloop
  endfacet
  facet normal 0.416767 0.57363 0.705162
    outer loop
      vertex -5.2713 5.96094 4.95
      vertex -4.2963 7.64969 3
      vertex -5.6011 6.20056 4.95
    endloop
  endfacet
  facet normal -0 0.709046 0.705162
    outer loop
      vertex -2.01479 7.181 3
      vertex -0.408801 5.24168 4.95
      vertex 1.5412 7.181 3
    endloop
  endfacet
  facet normal 0 0.709046 0.705162
    outer loop
      vertex -0.408801 5.24168 4.95
      vertex -2.01479 7.181 3
      vertex -2.21862 5.24168 4.95
    endloop
  endfacet
  facet normal -0.674343 -0.219108 0.705162
    outer loop
      vertex 5.92059 9.53043 4.95
      vertex 5.79461 9.91814 4.95
      vertex 4.0132 9.125 3
    endloop
  endfacet
  facet normal -0.416767 -0.573631 0.705162
    outer loop
      vertex 5.318 10.5741 4.95
      vertex 4.9882 10.8137 4.95
      vertex 4.0132 9.125 3
    endloop
  endfacet
  facet normal -0.288396 -0.647746 0.705162
    outer loop
      vertex 4.9882 10.8137 4.95
      vertex 4.61578 10.9796 4.95
      vertex 4.0132 9.125 3
    endloop
  endfacet
  facet normal 0.270995 0.654297 0.706015
    outer loop
      vertex -4.89888 5.79513 4.95
      vertex -3.66779 7.38937 3
      vertex -4.2963 7.64969 3
    endloop
  endfacet
  facet normal 0.270995 0.654297 0.706015
    outer loop
      vertex -3.66779 7.38937 3
      vertex -4.89888 5.79513 4.95
      vertex -4.27037 5.53481 4.95
    endloop
  endfacet
  facet normal 0.419361 0.571525 0.705333
    outer loop
      vertex -4.79279 8.01399 3
      vertex -5.6011 6.20056 4.95
      vertex -4.2963 7.64969 3
    endloop
  endfacet
  facet normal 0.419361 0.571525 0.705333
    outer loop
      vertex -5.6011 6.20056 4.95
      vertex -4.79279 8.01399 3
      vertex -6.09759 6.56486 4.95
    endloop
  endfacet
  facet normal 0.0412365 0.706285 0.706726
    outer loop
      vertex -2.90729 7.23311 3
      vertex -2.21862 5.24168 4.95
      vertex -2.01479 7.181 3
    endloop
  endfacet
  facet normal 0.0412365 0.706285 0.706726
    outer loop
      vertex -2.21862 5.24168 4.95
      vertex -2.90729 7.23311 3
      vertex -3.11112 5.29379 4.95
    endloop
  endfacet
  facet normal -0.614053 -0.354522 0.705162
    outer loop
      vertex 5.79461 9.91814 4.95
      vertex 5.59078 10.2712 4.95
      vertex 4.0132 9.125 3
    endloop
  endfacet
  facet normal 0.288396 0.647746 0.705162
    outer loop
      vertex -4.89888 5.79513 4.95
      vertex -4.2963 7.64969 3
      vertex -5.2713 5.96094 4.95
    endloop
  endfacet
  facet normal 0.526923 0.474445 0.705162
    outer loop
      vertex -6.09759 6.56486 4.95
      vertex -4.79279 8.01399 3
      vertex -6.37037 6.86781 4.95
    endloop
  endfacet
  facet normal -0.526924 -0.474445 0.705162
    outer loop
      vertex 5.59078 10.2712 4.95
      vertex 5.318 10.5741 4.95
      vertex 4.0132 9.125 3
    endloop
  endfacet
  facet normal 0.614053 0.354522 0.705162
    outer loop
      vertex -6.74706 7.35419 4.95
      vertex -5.16948 8.50037 3
      vertex -6.95089 7.70723 4.95
    endloop
  endfacet
  facet normal 0.691827 0.146205 0.707106
    outer loop
      vertex -5.46561 9.25359 3
      vertex -7.34592 8.72006 4.95
      vertex -5.43854 9.12549 3
    endloop
  endfacet
  facet normal 0.691827 0.146205 0.707106
    outer loop
      vertex -7.34592 8.72006 4.95
      vertex -5.46561 9.25359 3
      vertex -7.373 8.84816 4.95
    endloop
  endfacet
  facet normal 0.649231 0.280235 0.707084
    outer loop
      vertex -7.21995 8.33235 4.95
      vertex -5.43833 9.125 3
      vertex -5.43854 9.12549 3
    endloop
  endfacet
  facet normal 0.649231 0.280235 0.707084
    outer loop
      vertex -5.43833 9.125 3
      vertex -7.21995 8.33235 4.95
      vertex -7.21974 8.33186 4.95
    endloop
  endfacet
  facet normal -0.117269 -0.697998 0.706432
    outer loop
      vertex -1.5146 10.77 4.61158
      vertex -1.43179 9.125 3
      vertex -1.23026 11.0424 4.928
    endloop
  endfacet
  facet normal -0.117273 -0.697998 0.706432
    outer loop
      vertex -1.66503 10.5649 4.38402
      vertex -1.43179 9.125 3
      vertex -1.5146 10.77 4.61158
    endloop
  endfacet
  facet normal -0.11727 -0.697998 0.706432
    outer loop
      vertex -1.43179 9.125 3
      vertex -1.66503 10.5649 4.38402
      vertex -2.19714 9.25359 3
    endloop
  endfacet
  facet normal 0.674343 0.219108 0.705162
    outer loop
      vertex -7.21995 8.33235 4.95
      vertex -5.43854 9.12549 3
      vertex -7.34592 8.72006 4.95
    endloop
  endfacet
  facet normal -0.703297 -0.0856147 0.705722
    outer loop
      vertex -1.23179 11.2364 4.95
      vertex -1.23026 11.0424 4.928
      vertex -1.21085 11.0643 4.95
    endloop
  endfacet
  facet normal -0.703293 -0.0856151 0.705726
    outer loop
      vertex -1.23179 11.2364 4.95
      vertex -1.5146 10.77 4.61158
      vertex -1.23026 11.0424 4.928
    endloop
  endfacet
  facet normal -0.703294 -0.0856143 0.705725
    outer loop
      vertex -3.18179 11.181 3
      vertex -1.5146 10.77 4.61158
      vertex -1.23179 11.2364 4.95
    endloop
  endfacet
  facet normal -0.703294 -0.0856144 0.705725
    outer loop
      vertex -1.5146 10.77 4.61158
      vertex -3.18179 11.181 3
      vertex -3.07233 10.2818 3
    endloop
  endfacet
  facet normal 0.706479 0.042124 0.706479
    outer loop
      vertex -7.57337 10.2818 4.95
      vertex -5.65379 10.792 3
      vertex -7.60379 10.792 4.95
    endloop
  endfacet
  facet normal 0.706479 0.042124 0.706479
    outer loop
      vertex -5.65379 10.792 3
      vertex -7.57337 10.2818 4.95
      vertex -5.62337 10.2818 3
    endloop
  endfacet
  facet normal 0.707107 -0 0.707107
    outer loop
      vertex -7.60379 10.792 4.95
      vertex -5.65379 11.542 3
      vertex -7.60379 11.542 4.95
    endloop
  endfacet
  facet normal 0.707107 0 0.707107
    outer loop
      vertex -5.65379 11.542 3
      vertex -7.60379 10.792 4.95
      vertex -5.65379 10.792 3
    endloop
  endfacet
  facet normal -0.288396 -0.647746 0.705162
    outer loop
      vertex -2.20679 13.2307 4.95
      vertex -2.57921 13.3966 4.95
      vertex -3.18179 11.542 3
    endloop
  endfacet
  facet normal 0 -0.709046 0.705162
    outer loop
      vertex -5.65379 11.542 3
      vertex -2.97796 13.4813 4.95
      vertex -5.85762 13.4813 4.95
    endloop
  endfacet
  facet normal 0 -0.709046 0.705162
    outer loop
      vertex -2.97796 13.4813 4.95
      vertex -5.65379 11.542 3
      vertex -3.18179 11.542 3
    endloop
  endfacet
  facet normal -0.147418 -0.693552 0.705162
    outer loop
      vertex -2.57921 13.3966 4.95
      vertex -2.97796 13.4813 4.95
      vertex -3.18179 11.542 3
    endloop
  endfacet
  facet normal -0.614053 -0.354522 0.705162
    outer loop
      vertex -1.40038 12.3351 4.95
      vertex -1.60421 12.6882 4.95
      vertex -3.18179 11.542 3
    endloop
  endfacet
  facet normal 0.674343 -0.219108 0.705162
    outer loop
      vertex -5.65379 11.542 3
      vertex -7.43521 12.3351 4.95
      vertex -7.56118 11.9474 4.95
    endloop
  endfacet
  facet normal 0.614053 -0.354522 0.705162
    outer loop
      vertex -5.65379 11.542 3
      vertex -7.23138 12.6882 4.95
      vertex -7.43521 12.3351 4.95
    endloop
  endfacet
  facet normal -0.674343 -0.219108 0.705162
    outer loop
      vertex -1.27441 11.9474 4.95
      vertex -1.40038 12.3351 4.95
      vertex -3.18179 11.542 3
    endloop
  endfacet
  facet normal 0.147418 -0.693552 0.705162
    outer loop
      vertex -5.65379 11.542 3
      vertex -5.85762 13.4813 4.95
      vertex -6.25638 13.3966 4.95
    endloop
  endfacet
  facet normal 0.705162 -0.0741163 0.705162
    outer loop
      vertex -5.65379 11.542 3
      vertex -7.56118 11.9474 4.95
      vertex -7.60379 11.542 4.95
    endloop
  endfacet
  facet normal -0.526924 -0.474445 0.705162
    outer loop
      vertex -1.60421 12.6882 4.95
      vertex -1.87699 12.9911 4.95
      vertex -3.18179 11.542 3
    endloop
  endfacet
  facet normal -0.416767 -0.573631 0.705162
    outer loop
      vertex -1.87699 12.9911 4.95
      vertex -2.20679 13.2307 4.95
      vertex -3.18179 11.542 3
    endloop
  endfacet
  facet normal 0.288396 -0.647746 0.705162
    outer loop
      vertex -5.65379 11.542 3
      vertex -6.25638 13.3966 4.95
      vertex -6.62879 13.2307 4.95
    endloop
  endfacet
  facet normal -0.707107 0 0.707107
    outer loop
      vertex -3.18179 11.542 3
      vertex -1.23179 11.2364 4.95
      vertex -1.23179 11.542 4.95
    endloop
  endfacet
  facet normal -0.707107 0 0.707107
    outer loop
      vertex -1.23179 11.2364 4.95
      vertex -3.18179 11.542 3
      vertex -3.18179 11.181 3
    endloop
  endfacet
  facet normal -0.705162 -0.0741159 0.705162
    outer loop
      vertex -1.23179 11.542 4.95
      vertex -1.27441 11.9474 4.95
      vertex -3.18179 11.542 3
    endloop
  endfacet
  facet normal 0.416767 -0.573631 0.705162
    outer loop
      vertex -5.65379 11.542 3
      vertex -6.62879 13.2307 4.95
      vertex -6.9586 12.9911 4.95
    endloop
  endfacet
  facet normal 0.526924 -0.474445 0.705162
    outer loop
      vertex -5.65379 11.542 3
      vertex -6.9586 12.9911 4.95
      vertex -7.23138 12.6882 4.95
    endloop
  endfacet
  facet normal 1 0 0
    outer loop
      vertex 16.525 16.5 0.134165
      vertex 16.525 16.525 0.190521
      vertex 16.525 16.525 4.95
    endloop
  endfacet
  facet normal 1 0 0
    outer loop
      vertex 16.525 16.525 0.190521
      vertex 16.525 16.5 0.134165
      vertex 16.525 16.5182 0.165837
    endloop
  endfacet
  facet normal 1 0 0
    outer loop
      vertex 16.525 16.5182 0.165837
      vertex 16.525 16.5 0.134165
      vertex 16.525 16.5111 0.146862
    endloop
  endfacet
  facet normal 1 0 0
    outer loop
      vertex 16.525 16.5111 0.146862
      vertex 16.525 16.5 0.134165
      vertex 16.525 16.5053 0.137162
    endloop
  endfacet
  facet normal 1 0 0
    outer loop
      vertex 16.525 16.525 4.95
      vertex 16.525 -16.5 0.134165
      vertex 16.525 16.5 0.134165
    endloop
  endfacet
  facet normal 1 -0 0
    outer loop
      vertex 16.525 -16.525 4.95
      vertex 16.525 -16.5 0.134165
      vertex 16.525 16.525 4.95
    endloop
  endfacet
  facet normal 1 -0 0
    outer loop
      vertex 16.525 -16.525 0.190521
      vertex 16.525 -16.5 0.134165
      vertex 16.525 -16.525 4.95
    endloop
  endfacet
  facet normal 1 -0 -0
    outer loop
      vertex 16.525 -16.5182 0.165837
      vertex 16.525 -16.5 0.134165
      vertex 16.525 -16.525 0.190521
    endloop
  endfacet
  facet normal 1 -0 -0
    outer loop
      vertex 16.525 -16.5111 0.146862
      vertex 16.525 -16.5 0.134165
      vertex 16.525 -16.5182 0.165837
    endloop
  endfacet
  facet normal 1 0 0
    outer loop
      vertex 16.525 -16.5 0.134165
      vertex 16.525 -16.5111 0.146862
      vertex 16.525 -16.5053 0.137162
    endloop
  endfacet
  facet normal -1 0 0
    outer loop
      vertex -16.525 16.5 0.134165
      vertex -16.525 16.525 0.190521
      vertex -16.525 16.5182 0.165837
    endloop
  endfacet
  facet normal -1 0 0
    outer loop
      vertex -16.525 16.5 0.134165
      vertex -16.525 16.5182 0.165837
      vertex -16.525 16.5111 0.146862
    endloop
  endfacet
  facet normal -1 0 0
    outer loop
      vertex -16.525 16.5 0.134165
      vertex -16.525 16.5111 0.146862
      vertex -16.525 16.5053 0.137162
    endloop
  endfacet
  facet normal -1 -0 0
    outer loop
      vertex -16.525 16.525 0.190521
      vertex -16.525 16.5 0.134165
      vertex -16.525 16.525 4.95
    endloop
  endfacet
  facet normal -1 0 0
    outer loop
      vertex -16.525 -16.5 0.134165
      vertex -16.525 16.525 4.95
      vertex -16.525 16.5 0.134165
    endloop
  endfacet
  facet normal -1 0 0
    outer loop
      vertex -16.525 -16.5111 0.146862
      vertex -16.525 -16.5 0.134165
      vertex -16.525 -16.5053 0.137162
    endloop
  endfacet
  facet normal -1 0 0
    outer loop
      vertex -16.525 -16.5 0.134165
      vertex -16.525 -16.5111 0.146862
      vertex -16.525 -16.5182 0.165837
    endloop
  endfacet
  facet normal -1 0 0
    outer loop
      vertex -16.525 -16.5 0.134165
      vertex -16.525 -16.5182 0.165837
      vertex -16.525 -16.525 0.190521
    endloop
  endfacet
  facet normal -1 0 0
    outer loop
      vertex -16.525 -16.5 0.134165
      vertex -16.525 -16.525 0.190521
      vertex -16.525 -16.525 4.95
    endloop
  endfacet
  facet normal -1 0 0
    outer loop
      vertex -16.525 -16.5 0.134165
      vertex -16.525 -16.525 4.95
      vertex -16.525 16.525 4.95
    endloop
  endfacet
  facet normal 0 -1 0
    outer loop
      vertex -16.5026 -16.525 0.134904
      vertex -16.525 -16.525 4.95
      vertex -16.525 -16.525 0.190521
    endloop
  endfacet
  facet normal 0 -1 0
    outer loop
      vertex -16.525 -16.525 4.95
      vertex -16.5026 -16.525 0.134904
      vertex 16.525 -16.525 4.95
    endloop
  endfacet
  facet normal 0 -1 0
    outer loop
      vertex -16.5026 -16.525 0.134904
      vertex -16.525 -16.525 0.190521
      vertex -16.5225 -16.525 0.180536
    endloop
  endfacet
  facet normal 0 -1 0
    outer loop
      vertex 16.5026 -16.525 0.134904
      vertex 16.525 -16.525 4.95
      vertex -16.5026 -16.525 0.134904
    endloop
  endfacet
  facet normal 0 -1 0
    outer loop
      vertex -16.5026 -16.525 0.134904
      vertex -16.5225 -16.525 0.180536
      vertex -16.5144 -16.525 0.15492
    endloop
  endfacet
  facet normal 0 -1 -0
    outer loop
      vertex 16.525 -16.525 4.95
      vertex 16.5026 -16.525 0.134904
      vertex 16.525 -16.525 0.190521
    endloop
  endfacet
  facet normal 0 -1 0
    outer loop
      vertex -16.5026 -16.525 0.134904
      vertex -16.5144 -16.525 0.15492
      vertex -16.5081 -16.525 0.141069
    endloop
  endfacet
  facet normal 0 -1 0
    outer loop
      vertex 16.525 -16.525 0.190521
      vertex 16.5026 -16.525 0.134904
      vertex 16.5225 -16.525 0.180536
    endloop
  endfacet
  facet normal 0 -1 0
    outer loop
      vertex 16.5225 -16.525 0.180536
      vertex 16.5026 -16.525 0.134904
      vertex 16.5144 -16.525 0.15492
    endloop
  endfacet
  facet normal 0 -1 0
    outer loop
      vertex 16.5144 -16.525 0.15492
      vertex 16.5026 -16.525 0.134904
      vertex 16.5081 -16.525 0.141069
    endloop
  endfacet
  facet normal 0 1 0
    outer loop
      vertex 16.5026 16.525 0.134904
      vertex 16.525 16.525 4.95
      vertex 16.525 16.525 0.190521
    endloop
  endfacet
  facet normal 0 1 0
    outer loop
      vertex 16.525 16.525 4.95
      vertex 16.5026 16.525 0.134904
      vertex -16.525 16.525 4.95
    endloop
  endfacet
  facet normal 0 1 0
    outer loop
      vertex 16.5026 16.525 0.134904
      vertex 16.525 16.525 0.190521
      vertex 16.5225 16.525 0.180536
    endloop
  endfacet
  facet normal 0 1 -0
    outer loop
      vertex -16.5026 16.525 0.134904
      vertex -16.525 16.525 4.95
      vertex 16.5026 16.525 0.134904
    endloop
  endfacet
  facet normal 0 1 0
    outer loop
      vertex 16.5026 16.525 0.134904
      vertex 16.5225 16.525 0.180536
      vertex 16.5144 16.525 0.15492
    endloop
  endfacet
  facet normal 0 1 0
    outer loop
      vertex -16.525 16.525 4.95
      vertex -16.5026 16.525 0.134904
      vertex -16.525 16.525 0.190521
    endloop
  endfacet
  facet normal 0 1 0
    outer loop
      vertex 16.5026 16.525 0.134904
      vertex 16.5144 16.525 0.15492
      vertex 16.5081 16.525 0.141069
    endloop
  endfacet
  facet normal 0 1 0
    outer loop
      vertex -16.525 16.525 0.190521
      vertex -16.5026 16.525 0.134904
      vertex -16.5225 16.525 0.180536
    endloop
  endfacet
  facet normal 0 1 0
    outer loop
      vertex -16.5225 16.525 0.180536
      vertex -16.5026 16.525 0.134904
      vertex -16.5144 16.525 0.15492
    endloop
  endfacet
  facet normal 0 1 0
    outer loop
      vertex -16.5144 16.525 0.15492
      vertex -16.5026 16.525 0.134904
      vertex -16.5081 16.525 0.141069
    endloop
  endfacet
  facet normal -0 0 1
    outer loop
      vertex -2.21862 5.24168 4.95
      vertex -0.408801 -0.657668 4.95
      vertex -0.408801 5.24168 4.95
    endloop
  endfacet
  facet normal 0 0 1
    outer loop
      vertex -3.11112 5.29379 4.95
      vertex -0.408801 -0.657668 4.95
      vertex -2.21862 5.24168 4.95
    endloop
  endfacet
  facet normal 0 0 1
    outer loop
      vertex -5.60762 -0.657668 4.95
      vertex -3.11112 5.29379 4.95
      vertex -3.87162 5.45006 4.95
    endloop
  endfacet
  facet normal 0 0 1
    outer loop
      vertex -5.60762 -0.657668 4.95
      vertex -3.87162 5.45006 4.95
      vertex -4.27037 5.53481 4.95
    endloop
  endfacet
  facet normal 0 0 1
    outer loop
      vertex -5.60762 -0.657668 4.95
      vertex -4.27037 5.53481 4.95
      vertex -4.89888 5.79513 4.95
    endloop
  endfacet
  facet normal 0 0 1
    outer loop
      vertex -5.60762 -0.657668 4.95
      vertex -4.89888 5.79513 4.95
      vertex -5.2713 5.96094 4.95
    endloop
  endfacet
  facet normal 0 0 1
    outer loop
      vertex -6.00638 -0.742425 4.95
      vertex -5.2713 5.96094 4.95
      vertex -5.6011 6.20056 4.95
    endloop
  endfacet
  facet normal 0 0 1
    outer loop
      vertex -3.11112 5.29379 4.95
      vertex -5.60762 -0.657668 4.95
      vertex -0.408801 -0.657668 4.95
    endloop
  endfacet
  facet normal 0 0 1
    outer loop
      vertex -5.2713 5.96094 4.95
      vertex -6.00638 -0.742425 4.95
      vertex -5.60762 -0.657668 4.95
    endloop
  endfacet
  facet normal 0 0 1
    outer loop
      vertex -6.37879 -0.908236 4.95
      vertex -5.6011 6.20056 4.95
      vertex -6.09759 6.56486 4.95
    endloop
  endfacet
  facet normal 0 0 1
    outer loop
      vertex -6.7086 -1.14785 4.95
      vertex -6.09759 6.56486 4.95
      vertex -6.37037 6.86781 4.95
    endloop
  endfacet
  facet normal 0 0 1
    outer loop
      vertex -5.6011 6.20056 4.95
      vertex -6.37879 -0.908236 4.95
      vertex -6.00638 -0.742425 4.95
    endloop
  endfacet
  facet normal 0 0 1
    outer loop
      vertex -6.09759 6.56486 4.95
      vertex -6.7086 -1.14785 4.95
      vertex -6.37879 -0.908236 4.95
    endloop
  endfacet
  facet normal 0 0 1
    outer loop
      vertex -6.74706 7.35419 4.95
      vertex -6.7086 -1.14785 4.95
      vertex -6.37037 6.86781 4.95
    endloop
  endfacet
  facet normal 0 0 1
    outer loop
      vertex -6.98138 -1.4508 4.95
      vertex -6.74706 7.35419 4.95
      vertex -6.95089 7.70723 4.95
    endloop
  endfacet
  facet normal 0 0 1
    outer loop
      vertex -6.74706 7.35419 4.95
      vertex -6.98138 -1.4508 4.95
      vertex -6.7086 -1.14785 4.95
    endloop
  endfacet
  facet normal 0 0 1
    outer loop
      vertex -6.95089 7.70723 4.95
      vertex -7.18521 -1.80385 4.95
      vertex -6.98138 -1.4508 4.95
    endloop
  endfacet
  facet normal 0 0 1
    outer loop
      vertex -7.21974 8.33186 4.95
      vertex -7.18521 -1.80385 4.95
      vertex -6.95089 7.70723 4.95
    endloop
  endfacet
  facet normal 0 0 1
    outer loop
      vertex -7.21995 8.33235 4.95
      vertex -7.18521 -1.80385 4.95
      vertex -7.21974 8.33186 4.95
    endloop
  endfacet
  facet normal 0 0 1
    outer loop
      vertex -16.525 16.525 4.95
      vertex -7.18521 -1.80385 4.95
      vertex -7.21995 8.33235 4.95
    endloop
  endfacet
  facet normal 0 0 1
    outer loop
      vertex -16.525 16.525 4.95
      vertex -7.21995 8.33235 4.95
      vertex -7.34592 8.72006 4.95
    endloop
  endfacet
  facet normal 0 0 1
    outer loop
      vertex -7.18521 -1.80385 4.95
      vertex -16.525 16.525 4.95
      vertex -7.31118 -2.19156 4.95
    endloop
  endfacet
  facet normal 0 0 1
    outer loop
      vertex -16.525 -16.525 4.95
      vertex -7.31118 -2.19156 4.95
      vertex -16.525 16.525 4.95
    endloop
  endfacet
  facet normal 0 0 1
    outer loop
      vertex -16.525 16.525 4.95
      vertex -7.34592 8.72006 4.95
      vertex -7.373 8.84816 4.95
    endloop
  endfacet
  facet normal 0 0 1
    outer loop
      vertex -0.408801 -6.4803 4.95
      vertex -5.60762 -6.4803 4.95
      vertex -0.408801 -11.986 4.95
    endloop
  endfacet
  facet normal 0 0 1
    outer loop
      vertex 16.525 16.525 4.95
      vertex 5.9632 9.125 4.95
      vertex 16.525 -16.525 4.95
    endloop
  endfacet
  facet normal 0 0 1
    outer loop
      vertex 16.525 16.525 4.95
      vertex 5.92059 9.53043 4.95
      vertex 5.9632 9.125 4.95
    endloop
  endfacet
  facet normal 0 0 1
    outer loop
      vertex 16.525 16.525 4.95
      vertex 5.79461 9.91814 4.95
      vertex 5.92059 9.53043 4.95
    endloop
  endfacet
  facet normal 0 0 1
    outer loop
      vertex 16.525 16.525 4.95
      vertex 5.59078 10.2712 4.95
      vertex 5.79461 9.91814 4.95
    endloop
  endfacet
  facet normal 0 0 1
    outer loop
      vertex 16.525 16.525 4.95
      vertex 5.318 10.5741 4.95
      vertex 5.59078 10.2712 4.95
    endloop
  endfacet
  facet normal 0 0 1
    outer loop
      vertex 16.525 16.525 4.95
      vertex 4.9882 10.8137 4.95
      vertex 5.318 10.5741 4.95
    endloop
  endfacet
  facet normal 0 0 1
    outer loop
      vertex 16.525 16.525 4.95
      vertex 4.61578 10.9796 4.95
      vertex 4.9882 10.8137 4.95
    endloop
  endfacet
  facet normal 0 0 1
    outer loop
      vertex 16.525 16.525 4.95
      vertex 4.21703 11.0643 4.95
      vertex 4.61578 10.9796 4.95
    endloop
  endfacet
  facet normal -0 0 1
    outer loop
      vertex -2.20679 13.2307 4.95
      vertex 4.21703 11.0643 4.95
      vertex 16.525 16.525 4.95
    endloop
  endfacet
  facet normal 0 0 1
    outer loop
      vertex 4.21703 11.0643 4.95
      vertex -1.23179 11.542 4.95
      vertex -1.21085 11.0643 4.95
    endloop
  endfacet
  facet normal 0 0 1
    outer loop
      vertex 4.21703 11.0643 4.95
      vertex -1.27441 11.9474 4.95
      vertex -1.23179 11.542 4.95
    endloop
  endfacet
  facet normal 0 0 1
    outer loop
      vertex 4.21703 11.0643 4.95
      vertex -1.40038 12.3351 4.95
      vertex -1.27441 11.9474 4.95
    endloop
  endfacet
  facet normal 0 0 1
    outer loop
      vertex 4.21703 11.0643 4.95
      vertex -1.60421 12.6882 4.95
      vertex -1.40038 12.3351 4.95
    endloop
  endfacet
  facet normal 0 0 1
    outer loop
      vertex 4.21703 11.0643 4.95
      vertex -1.87699 12.9911 4.95
      vertex -1.60421 12.6882 4.95
    endloop
  endfacet
  facet normal 0 0 1
    outer loop
      vertex 4.21703 11.0643 4.95
      vertex -2.20679 13.2307 4.95
      vertex -1.87699 12.9911 4.95
    endloop
  endfacet
  facet normal 0 0 1
    outer loop
      vertex 16.525 16.525 4.95
      vertex -2.57921 13.3966 4.95
      vertex -2.20679 13.2307 4.95
    endloop
  endfacet
  facet normal 0 0 1
    outer loop
      vertex 16.525 16.525 4.95
      vertex -2.97796 13.4813 4.95
      vertex -2.57921 13.3966 4.95
    endloop
  endfacet
  facet normal -0 0 1
    outer loop
      vertex -16.525 16.525 4.95
      vertex -2.97796 13.4813 4.95
      vertex 16.525 16.525 4.95
    endloop
  endfacet
  facet normal 0 0 1
    outer loop
      vertex -7.60379 11.542 4.95
      vertex -16.525 16.525 4.95
      vertex -7.60379 10.792 4.95
    endloop
  endfacet
  facet normal 0 0 1
    outer loop
      vertex -7.56118 11.9474 4.95
      vertex -16.525 16.525 4.95
      vertex -7.60379 11.542 4.95
    endloop
  endfacet
  facet normal 0 0 1
    outer loop
      vertex -7.43521 12.3351 4.95
      vertex -16.525 16.525 4.95
      vertex -7.56118 11.9474 4.95
    endloop
  endfacet
  facet normal 0 0 1
    outer loop
      vertex -7.23138 12.6882 4.95
      vertex -16.525 16.525 4.95
      vertex -7.43521 12.3351 4.95
    endloop
  endfacet
  facet normal 0 0 1
    outer loop
      vertex -6.9586 12.9911 4.95
      vertex -16.525 16.525 4.95
      vertex -7.23138 12.6882 4.95
    endloop
  endfacet
  facet normal 0 0 1
    outer loop
      vertex -6.62879 13.2307 4.95
      vertex -16.525 16.525 4.95
      vertex -6.9586 12.9911 4.95
    endloop
  endfacet
  facet normal 0 0 1
    outer loop
      vertex -6.25638 13.3966 4.95
      vertex -16.525 16.525 4.95
      vertex -6.62879 13.2307 4.95
    endloop
  endfacet
  facet normal 0 0 1
    outer loop
      vertex -5.85762 13.4813 4.95
      vertex -16.525 16.525 4.95
      vertex -6.25638 13.3966 4.95
    endloop
  endfacet
  facet normal 0 0 1
    outer loop
      vertex -2.97796 13.4813 4.95
      vertex -16.525 16.525 4.95
      vertex -5.85762 13.4813 4.95
    endloop
  endfacet
  facet normal -0 0 1
    outer loop
      vertex 5.9632 -11.986 4.95
      vertex 16.525 -16.525 4.95
      vertex 5.9632 9.125 4.95
    endloop
  endfacet
  facet normal -0 0 1
    outer loop
      vertex 5.92059 -12.3914 4.95
      vertex 16.525 -16.525 4.95
      vertex 5.9632 -11.986 4.95
    endloop
  endfacet
  facet normal -0 0 1
    outer loop
      vertex 5.79461 -12.7791 4.95
      vertex 16.525 -16.525 4.95
      vertex 5.92059 -12.3914 4.95
    endloop
  endfacet
  facet normal -0 0 1
    outer loop
      vertex 5.59078 -13.1322 4.95
      vertex 16.525 -16.525 4.95
      vertex 5.79461 -12.7791 4.95
    endloop
  endfacet
  facet normal -0 0 1
    outer loop
      vertex 5.318 -13.4351 4.95
      vertex 16.525 -16.525 4.95
      vertex 5.59078 -13.1322 4.95
    endloop
  endfacet
  facet normal -0 0 1
    outer loop
      vertex 4.9882 -13.6747 4.95
      vertex 16.525 -16.525 4.95
      vertex 5.318 -13.4351 4.95
    endloop
  endfacet
  facet normal -0 0 1
    outer loop
      vertex 4.61578 -13.8406 4.95
      vertex 16.525 -16.525 4.95
      vertex 4.9882 -13.6747 4.95
    endloop
  endfacet
  facet normal -0 0 1
    outer loop
      vertex 4.21703 -13.9253 4.95
      vertex 16.525 -16.525 4.95
      vertex 4.61578 -13.8406 4.95
    endloop
  endfacet
  facet normal -0 0 1
    outer loop
      vertex 1.33737 -13.9253 4.95
      vertex 16.525 -16.525 4.95
      vertex 4.21703 -13.9253 4.95
    endloop
  endfacet
  facet normal 0 0 1
    outer loop
      vertex -5.60762 -6.4803 4.95
      vertex -0.366189 -12.3914 4.95
      vertex -0.408801 -11.986 4.95
    endloop
  endfacet
  facet normal 0 0 1
    outer loop
      vertex -6.00638 -6.39555 4.95
      vertex -0.366189 -12.3914 4.95
      vertex -5.60762 -6.4803 4.95
    endloop
  endfacet
  facet normal 0 0 1
    outer loop
      vertex -16.525 -16.525 4.95
      vertex -0.366189 -12.3914 4.95
      vertex -6.00638 -6.39555 4.95
    endloop
  endfacet
  facet normal 0 0 1
    outer loop
      vertex -0.366189 -12.3914 4.95
      vertex -16.525 -16.525 4.95
      vertex -0.240214 -12.7791 4.95
    endloop
  endfacet
  facet normal 0 0 1
    outer loop
      vertex -16.525 -16.525 4.95
      vertex -6.00638 -6.39555 4.95
      vertex -6.37879 -6.22973 4.95
    endloop
  endfacet
  facet normal 0 0 1
    outer loop
      vertex -0.240214 -12.7791 4.95
      vertex -16.525 -16.525 4.95
      vertex -0.0363837 -13.1322 4.95
    endloop
  endfacet
  facet normal 0 0 1
    outer loop
      vertex -16.525 -16.525 4.95
      vertex -6.37879 -6.22973 4.95
      vertex -6.7086 -5.99012 4.95
    endloop
  endfacet
  facet normal 0 0 1
    outer loop
      vertex -16.525 16.525 4.95
      vertex -7.373 8.84816 4.95
      vertex -7.4545 9.23381 4.95
    endloop
  endfacet
  facet normal 0 0 1
    outer loop
      vertex -16.525 16.525 4.95
      vertex -7.4545 9.23381 4.95
      vertex -7.50736 9.48395 4.95
    endloop
  endfacet
  facet normal 0 0 1
    outer loop
      vertex -16.525 16.525 4.95
      vertex -7.50736 9.48395 4.95
      vertex -7.54998 9.88937 4.95
    endloop
  endfacet
  facet normal 0 0 1
    outer loop
      vertex -16.525 16.525 4.95
      vertex -7.54998 9.88937 4.95
      vertex -7.57337 10.2818 4.95
    endloop
  endfacet
  facet normal 0 0 1
    outer loop
      vertex -16.525 16.525 4.95
      vertex -7.57337 10.2818 4.95
      vertex -7.60379 10.792 4.95
    endloop
  endfacet
  facet normal 0 0 1
    outer loop
      vertex -7.31118 -2.19156 4.95
      vertex -16.525 -16.525 4.95
      vertex -7.35379 -2.59698 4.95
    endloop
  endfacet
  facet normal 0 0 1
    outer loop
      vertex -7.35379 -2.59698 4.95
      vertex -16.525 -16.525 4.95
      vertex -7.35379 -4.54099 4.95
    endloop
  endfacet
  facet normal 0 0 1
    outer loop
      vertex -7.35379 -4.54099 4.95
      vertex -16.525 -16.525 4.95
      vertex -7.31118 -4.94641 4.95
    endloop
  endfacet
  facet normal 0 0 1
    outer loop
      vertex 1.33737 -13.9253 4.95
      vertex -16.525 -16.525 4.95
      vertex 16.525 -16.525 4.95
    endloop
  endfacet
  facet normal 0 0 1
    outer loop
      vertex 0.938616 -13.8406 4.95
      vertex -16.525 -16.525 4.95
      vertex 1.33737 -13.9253 4.95
    endloop
  endfacet
  facet normal 0 0 1
    outer loop
      vertex 0.566199 -13.6747 4.95
      vertex -16.525 -16.525 4.95
      vertex 0.938616 -13.8406 4.95
    endloop
  endfacet
  facet normal 0 0 1
    outer loop
      vertex 0.236395 -13.4351 4.95
      vertex -16.525 -16.525 4.95
      vertex 0.566199 -13.6747 4.95
    endloop
  endfacet
  facet normal 0 0 1
    outer loop
      vertex -0.0363837 -13.1322 4.95
      vertex -16.525 -16.525 4.95
      vertex 0.236395 -13.4351 4.95
    endloop
  endfacet
  facet normal 0 0 1
    outer loop
      vertex -6.98138 -5.68717 4.95
      vertex -16.525 -16.525 4.95
      vertex -6.7086 -5.99012 4.95
    endloop
  endfacet
  facet normal 0 0 1
    outer loop
      vertex -7.18521 -5.33412 4.95
      vertex -16.525 -16.525 4.95
      vertex -6.98138 -5.68717 4.95
    endloop
  endfacet
  facet normal 0 0 1
    outer loop
      vertex -7.31118 -4.94641 4.95
      vertex -16.525 -16.525 4.95
      vertex -7.18521 -5.33412 4.95
    endloop
  endfacet
  facet normal 0 0 1
    outer loop
      vertex -1.21085 11.0643 4.95
      vertex -1.23179 11.542 4.95
      vertex -1.23179 11.2364 4.95
    endloop
  endfacet
endsolid OpenSCAD_Model
