solid OpenSCAD_Model
  facet normal 0 -1 0
    outer loop
      vertex -16.8658 -19.9808 0
      vertex 16.8658 -19.9808 8.01
      vertex -16.8658 -19.9808 8.01
    endloop
  endfacet
  facet normal 0 -1 -0
    outer loop
      vertex 16.8658 -19.9808 8.01
      vertex -16.8658 -19.9808 0
      vertex 16.8658 -19.9808 0
    endloop
  endfacet
  facet normal -0.207913 -0.978147 0
    outer loop
      vertex -17.5816 -19.8287 0
      vertex -16.8658 -19.9808 8.01
      vertex -17.5816 -19.8287 8.01
    endloop
  endfacet
  facet normal -0.207913 -0.978147 -0
    outer loop
      vertex -16.8658 -19.9808 8.01
      vertex -17.5816 -19.8287 0
      vertex -16.8658 -19.9808 0
    endloop
  endfacet
  facet normal 1 -0 0
    outer loop
      vertex 20 -16.5 8.01
      vertex 20 16.5 0
      vertex 20 16.5 8.01
    endloop
  endfacet
  facet normal 1 0 0
    outer loop
      vertex 20 16.5 0
      vertex 20 -16.5 8.01
      vertex 20 -16.5 0
    endloop
  endfacet
  facet normal 0.207913 -0.978147 0
    outer loop
      vertex 16.8658 -19.9808 0
      vertex 17.5816 -19.8287 8.01
      vertex 16.8658 -19.9808 8.01
    endloop
  endfacet
  facet normal 0.207913 -0.978147 0
    outer loop
      vertex 17.5816 -19.8287 8.01
      vertex 16.8658 -19.9808 0
      vertex 17.5816 -19.8287 0
    endloop
  endfacet
  facet normal 0.951057 0.309017 0
    outer loop
      vertex 19.9235 17.2277 8.01
      vertex 19.6974 17.9236 0
      vertex 19.6974 17.9236 8.01
    endloop
  endfacet
  facet normal 0.951057 0.309017 0
    outer loop
      vertex 19.6974 17.9236 0
      vertex 19.9235 17.2277 8.01
      vertex 19.9235 17.2277 0
    endloop
  endfacet
  facet normal -0.866025 0.5 0
    outer loop
      vertex -19.6974 17.9236 0
      vertex -19.3316 18.5572 8.01
      vertex -19.3316 18.5572 0
    endloop
  endfacet
  facet normal -0.866025 0.5 0
    outer loop
      vertex -19.3316 18.5572 8.01
      vertex -19.6974 17.9236 0
      vertex -19.6974 17.9236 8.01
    endloop
  endfacet
  facet normal 0 1 -0
    outer loop
      vertex 16.8658 19.9808 0
      vertex -16.8658 19.9808 8.01
      vertex 16.8658 19.9808 8.01
    endloop
  endfacet
  facet normal 0 1 0
    outer loop
      vertex -16.8658 19.9808 8.01
      vertex 16.8658 19.9808 0
      vertex -16.8658 19.9808 0
    endloop
  endfacet
  facet normal 0.587787 -0.809016 0
    outer loop
      vertex 18.25 -19.5311 0
      vertex 18.842 -19.101 8.01
      vertex 18.25 -19.5311 8.01
    endloop
  endfacet
  facet normal 0.587787 -0.809016 0
    outer loop
      vertex 18.842 -19.101 8.01
      vertex 18.25 -19.5311 0
      vertex 18.842 -19.101 0
    endloop
  endfacet
  facet normal -0.587787 -0.809016 0
    outer loop
      vertex -18.842 -19.101 0
      vertex -18.25 -19.5311 8.01
      vertex -18.842 -19.101 8.01
    endloop
  endfacet
  facet normal -0.587787 -0.809016 -0
    outer loop
      vertex -18.25 -19.5311 8.01
      vertex -18.842 -19.101 0
      vertex -18.25 -19.5311 0
    endloop
  endfacet
  facet normal 0 0 -1
    outer loop
      vertex 16.8658 -19.9808 0
      vertex 20 -16.5 0
      vertex 19.9235 -17.2277 0
    endloop
  endfacet
  facet normal 0 0 -1
    outer loop
      vertex -20 -16.5 0
      vertex 20 -16.5 0
      vertex 16.8658 -19.9808 0
    endloop
  endfacet
  facet normal 0 0 -1
    outer loop
      vertex 16.8658 -19.9808 0
      vertex 19.9235 -17.2277 0
      vertex 19.6974 -17.9236 0
    endloop
  endfacet
  facet normal 0 0 -1
    outer loop
      vertex 20 -16.5 0
      vertex -20 -16.5 0
      vertex 20 16.5 0
    endloop
  endfacet
  facet normal 0 0 -1
    outer loop
      vertex 16.8658 -19.9808 0
      vertex 19.6974 -17.9236 0
      vertex 19.3316 -18.5572 0
    endloop
  endfacet
  facet normal 0 0 -1
    outer loop
      vertex 20 16.5 0
      vertex 16.8658 19.9808 0
      vertex 19.9235 17.2277 0
    endloop
  endfacet
  facet normal 0 0 -1
    outer loop
      vertex 16.8658 -19.9808 0
      vertex 19.3316 -18.5572 0
      vertex 18.842 -19.101 0
    endloop
  endfacet
  facet normal 0 0 -1
    outer loop
      vertex 19.9235 17.2277 0
      vertex 16.8658 19.9808 0
      vertex 19.6974 17.9236 0
    endloop
  endfacet
  facet normal 0 0 -1
    outer loop
      vertex 16.8658 -19.9808 0
      vertex 18.842 -19.101 0
      vertex 18.25 -19.5311 0
    endloop
  endfacet
  facet normal 0 0 -1
    outer loop
      vertex 19.6974 17.9236 0
      vertex 16.8658 19.9808 0
      vertex 19.3316 18.5572 0
    endloop
  endfacet
  facet normal 0 0 -1
    outer loop
      vertex 16.8658 -19.9808 0
      vertex 18.25 -19.5311 0
      vertex 17.5816 -19.8287 0
    endloop
  endfacet
  facet normal 0 0 -1
    outer loop
      vertex 19.3316 18.5572 0
      vertex 16.8658 19.9808 0
      vertex 18.842 19.101 0
    endloop
  endfacet
  facet normal 0 0 -1
    outer loop
      vertex 18.842 19.101 0
      vertex 16.8658 19.9808 0
      vertex 18.25 19.5311 0
    endloop
  endfacet
  facet normal 0 0 -1
    outer loop
      vertex 18.25 19.5311 0
      vertex 16.8658 19.9808 0
      vertex 17.5816 19.8287 0
    endloop
  endfacet
  facet normal 0 0 -1
    outer loop
      vertex -20 -16.5 0
      vertex 16.8658 -19.9808 0
      vertex -16.8658 -19.9808 0
    endloop
  endfacet
  facet normal 0 0 -1
    outer loop
      vertex -20 16.5 0
      vertex 20 16.5 0
      vertex -20 -16.5 0
    endloop
  endfacet
  facet normal 0 0 -1
    outer loop
      vertex -20 -16.5 0
      vertex -16.8658 -19.9808 0
      vertex -17.5816 -19.8287 0
    endloop
  endfacet
  facet normal 0 0 -1
    outer loop
      vertex 20 16.5 0
      vertex -20 16.5 0
      vertex 16.8658 19.9808 0
    endloop
  endfacet
  facet normal 0 0 -1
    outer loop
      vertex -20 -16.5 0
      vertex -17.5816 -19.8287 0
      vertex -18.25 -19.5311 0
    endloop
  endfacet
  facet normal -0 0 -1
    outer loop
      vertex 16.8658 19.9808 0
      vertex -20 16.5 0
      vertex -16.8658 19.9808 0
    endloop
  endfacet
  facet normal 0 0 -1
    outer loop
      vertex -20 -16.5 0
      vertex -18.25 -19.5311 0
      vertex -18.842 -19.101 0
    endloop
  endfacet
  facet normal 0 0 -1
    outer loop
      vertex -16.8658 19.9808 0
      vertex -20 16.5 0
      vertex -17.5816 19.8287 0
    endloop
  endfacet
  facet normal 0 0 -1
    outer loop
      vertex -20 -16.5 0
      vertex -18.842 -19.101 0
      vertex -19.3316 -18.5572 0
    endloop
  endfacet
  facet normal 0 0 -1
    outer loop
      vertex -17.5816 19.8287 0
      vertex -20 16.5 0
      vertex -18.25 19.5311 0
    endloop
  endfacet
  facet normal 0 0 -1
    outer loop
      vertex -20 -16.5 0
      vertex -19.3316 -18.5572 0
      vertex -19.6974 -17.9236 0
    endloop
  endfacet
  facet normal 0 0 -1
    outer loop
      vertex -18.25 19.5311 0
      vertex -20 16.5 0
      vertex -18.842 19.101 0
    endloop
  endfacet
  facet normal 0 0 -1
    outer loop
      vertex -20 -16.5 0
      vertex -19.6974 -17.9236 0
      vertex -19.9235 -17.2277 0
    endloop
  endfacet
  facet normal 0 0 -1
    outer loop
      vertex -18.842 19.101 0
      vertex -20 16.5 0
      vertex -19.3316 18.5572 0
    endloop
  endfacet
  facet normal 0 0 -1
    outer loop
      vertex -19.3316 18.5572 0
      vertex -20 16.5 0
      vertex -19.6974 17.9236 0
    endloop
  endfacet
  facet normal 0 0 -1
    outer loop
      vertex -19.6974 17.9236 0
      vertex -20 16.5 0
      vertex -19.9235 17.2277 0
    endloop
  endfacet
  facet normal -1 0 0
    outer loop
      vertex -20 -16.5 0
      vertex -20 16.5 8.01
      vertex -20 16.5 0
    endloop
  endfacet
  facet normal -1 -0 0
    outer loop
      vertex -20 16.5 8.01
      vertex -20 -16.5 0
      vertex -20 -16.5 8.01
    endloop
  endfacet
  facet normal -0.406734 0.913546 0
    outer loop
      vertex -17.5816 19.8287 0
      vertex -18.25 19.5311 8.01
      vertex -17.5816 19.8287 8.01
    endloop
  endfacet
  facet normal -0.406734 0.913546 0
    outer loop
      vertex -18.25 19.5311 8.01
      vertex -17.5816 19.8287 0
      vertex -18.25 19.5311 0
    endloop
  endfacet
  facet normal 0.587787 0.809016 -0
    outer loop
      vertex 18.842 19.101 0
      vertex 18.25 19.5311 8.01
      vertex 18.842 19.101 8.01
    endloop
  endfacet
  facet normal 0.587787 0.809016 0
    outer loop
      vertex 18.25 19.5311 8.01
      vertex 18.842 19.101 0
      vertex 18.25 19.5311 0
    endloop
  endfacet
  facet normal 0.951057 -0.309017 0
    outer loop
      vertex 19.6974 -17.9236 8.01
      vertex 19.9235 -17.2277 0
      vertex 19.9235 -17.2277 8.01
    endloop
  endfacet
  facet normal 0.951057 -0.309017 0
    outer loop
      vertex 19.9235 -17.2277 0
      vertex 19.6974 -17.9236 8.01
      vertex 19.6974 -17.9236 0
    endloop
  endfacet
  facet normal 0.994522 -0.10453 0
    outer loop
      vertex 19.9235 -17.2277 8.01
      vertex 20 -16.5 0
      vertex 20 -16.5 8.01
    endloop
  endfacet
  facet normal 0.994522 -0.10453 0
    outer loop
      vertex 20 -16.5 0
      vertex 19.9235 -17.2277 8.01
      vertex 19.9235 -17.2277 0
    endloop
  endfacet
  facet normal 0.406734 -0.913546 0
    outer loop
      vertex 17.5816 -19.8287 0
      vertex 18.25 -19.5311 8.01
      vertex 17.5816 -19.8287 8.01
    endloop
  endfacet
  facet normal 0.406734 -0.913546 0
    outer loop
      vertex 18.25 -19.5311 8.01
      vertex 17.5816 -19.8287 0
      vertex 18.25 -19.5311 0
    endloop
  endfacet
  facet normal -0.406734 -0.913546 0
    outer loop
      vertex -18.25 -19.5311 0
      vertex -17.5816 -19.8287 8.01
      vertex -18.25 -19.5311 8.01
    endloop
  endfacet
  facet normal -0.406734 -0.913546 -0
    outer loop
      vertex -17.5816 -19.8287 8.01
      vertex -18.25 -19.5311 0
      vertex -17.5816 -19.8287 0
    endloop
  endfacet
  facet normal -0.994522 0.10453 0
    outer loop
      vertex -20 16.5 0
      vertex -19.9235 17.2277 8.01
      vertex -19.9235 17.2277 0
    endloop
  endfacet
  facet normal -0.994522 0.10453 0
    outer loop
      vertex -19.9235 17.2277 8.01
      vertex -20 16.5 0
      vertex -20 16.5 8.01
    endloop
  endfacet
  facet normal -0.743146 0.66913 0
    outer loop
      vertex -19.3316 18.5572 0
      vertex -18.842 19.101 8.01
      vertex -18.842 19.101 0
    endloop
  endfacet
  facet normal -0.743146 0.66913 0
    outer loop
      vertex -18.842 19.101 8.01
      vertex -19.3316 18.5572 0
      vertex -19.3316 18.5572 8.01
    endloop
  endfacet
  facet normal -0.207913 0.978147 0
    outer loop
      vertex -16.8658 19.9808 0
      vertex -17.5816 19.8287 8.01
      vertex -16.8658 19.9808 8.01
    endloop
  endfacet
  facet normal -0.207913 0.978147 0
    outer loop
      vertex -17.5816 19.8287 8.01
      vertex -16.8658 19.9808 0
      vertex -17.5816 19.8287 0
    endloop
  endfacet
  facet normal -0.587787 0.809016 0
    outer loop
      vertex -18.25 19.5311 0
      vertex -18.842 19.101 8.01
      vertex -18.25 19.5311 8.01
    endloop
  endfacet
  facet normal -0.587787 0.809016 0
    outer loop
      vertex -18.842 19.101 8.01
      vertex -18.25 19.5311 0
      vertex -18.842 19.101 0
    endloop
  endfacet
  facet normal 0.207913 0.978147 -0
    outer loop
      vertex 17.5816 19.8287 0
      vertex 16.8658 19.9808 8.01
      vertex 17.5816 19.8287 8.01
    endloop
  endfacet
  facet normal 0.207913 0.978147 0
    outer loop
      vertex 16.8658 19.9808 8.01
      vertex 17.5816 19.8287 0
      vertex 16.8658 19.9808 0
    endloop
  endfacet
  facet normal 0.743146 0.66913 0
    outer loop
      vertex 19.3316 18.5572 8.01
      vertex 18.842 19.101 0
      vertex 18.842 19.101 8.01
    endloop
  endfacet
  facet normal 0.743146 0.66913 0
    outer loop
      vertex 18.842 19.101 0
      vertex 19.3316 18.5572 8.01
      vertex 19.3316 18.5572 0
    endloop
  endfacet
  facet normal 0.866025 0.5 0
    outer loop
      vertex 19.6974 17.9236 8.01
      vertex 19.3316 18.5572 0
      vertex 19.3316 18.5572 8.01
    endloop
  endfacet
  facet normal 0.866025 0.5 0
    outer loop
      vertex 19.3316 18.5572 0
      vertex 19.6974 17.9236 8.01
      vertex 19.6974 17.9236 0
    endloop
  endfacet
  facet normal 0.994522 0.10453 0
    outer loop
      vertex 20 16.5 8.01
      vertex 19.9235 17.2277 0
      vertex 19.9235 17.2277 8.01
    endloop
  endfacet
  facet normal 0.994522 0.10453 0
    outer loop
      vertex 19.9235 17.2277 0
      vertex 20 16.5 8.01
      vertex 20 16.5 0
    endloop
  endfacet
  facet normal 0.866025 -0.5 0
    outer loop
      vertex 19.3316 -18.5572 8.01
      vertex 19.6974 -17.9236 0
      vertex 19.6974 -17.9236 8.01
    endloop
  endfacet
  facet normal 0.866025 -0.5 0
    outer loop
      vertex 19.6974 -17.9236 0
      vertex 19.3316 -18.5572 8.01
      vertex 19.3316 -18.5572 0
    endloop
  endfacet
  facet normal 0.743146 -0.66913 0
    outer loop
      vertex 18.842 -19.101 8.01
      vertex 19.3316 -18.5572 0
      vertex 19.3316 -18.5572 8.01
    endloop
  endfacet
  facet normal 0.743146 -0.66913 0
    outer loop
      vertex 19.3316 -18.5572 0
      vertex 18.842 -19.101 8.01
      vertex 18.842 -19.101 0
    endloop
  endfacet
  facet normal -0.866025 -0.5 0
    outer loop
      vertex -19.3316 -18.5572 0
      vertex -19.6974 -17.9236 8.01
      vertex -19.6974 -17.9236 0
    endloop
  endfacet
  facet normal -0.866025 -0.5 0
    outer loop
      vertex -19.6974 -17.9236 8.01
      vertex -19.3316 -18.5572 0
      vertex -19.3316 -18.5572 8.01
    endloop
  endfacet
  facet normal -0.994522 -0.10453 0
    outer loop
      vertex -19.9235 -17.2277 0
      vertex -20 -16.5 8.01
      vertex -20 -16.5 0
    endloop
  endfacet
  facet normal -0.994522 -0.10453 0
    outer loop
      vertex -20 -16.5 8.01
      vertex -19.9235 -17.2277 0
      vertex -19.9235 -17.2277 8.01
    endloop
  endfacet
  facet normal -0.743146 -0.66913 0
    outer loop
      vertex -18.842 -19.101 0
      vertex -19.3316 -18.5572 8.01
      vertex -19.3316 -18.5572 0
    endloop
  endfacet
  facet normal -0.743146 -0.66913 0
    outer loop
      vertex -19.3316 -18.5572 8.01
      vertex -18.842 -19.101 0
      vertex -18.842 -19.101 8.01
    endloop
  endfacet
  facet normal -0.951057 0.309017 0
    outer loop
      vertex -19.9235 17.2277 0
      vertex -19.6974 17.9236 8.01
      vertex -19.6974 17.9236 0
    endloop
  endfacet
  facet normal -0.951057 0.309017 0
    outer loop
      vertex -19.6974 17.9236 8.01
      vertex -19.9235 17.2277 0
      vertex -19.9235 17.2277 8.01
    endloop
  endfacet
  facet normal 0.406734 0.913546 -0
    outer loop
      vertex 18.25 19.5311 0
      vertex 17.5816 19.8287 8.01
      vertex 18.25 19.5311 8.01
    endloop
  endfacet
  facet normal 0.406734 0.913546 0
    outer loop
      vertex 17.5816 19.8287 8.01
      vertex 18.25 19.5311 0
      vertex 17.5816 19.8287 0
    endloop
  endfacet
  facet normal -0.951057 -0.309017 0
    outer loop
      vertex -19.6974 -17.9236 0
      vertex -19.9235 -17.2277 8.01
      vertex -19.9235 -17.2277 0
    endloop
  endfacet
  facet normal -0.951057 -0.309017 0
    outer loop
      vertex -19.9235 -17.2277 8.01
      vertex -19.6974 -17.9236 0
      vertex -19.6974 -17.9236 8.01
    endloop
  endfacet
  facet normal 0 0 1
    outer loop
      vertex 17.9925 16.5 8.01
      vertex 20 16.5 8.01
      vertex 19.9235 17.2277 8.01
    endloop
  endfacet
  facet normal 0 0 1
    outer loop
      vertex 20 16.5 8.01
      vertex 17.9925 16.5 8.01
      vertex 20 -16.5 8.01
    endloop
  endfacet
  facet normal 0 0 1
    outer loop
      vertex 17.9599 16.8103 8.01
      vertex 19.9235 17.2277 8.01
      vertex 19.6974 17.9236 8.01
    endloop
  endfacet
  facet normal 0 0 1
    outer loop
      vertex 17.9925 -16.5 8.01
      vertex 20 -16.5 8.01
      vertex 17.9925 16.5 8.01
    endloop
  endfacet
  facet normal 0 0 1
    outer loop
      vertex 17.8635 17.1071 8.01
      vertex 19.6974 17.9236 8.01
      vertex 19.3316 18.5572 8.01
    endloop
  endfacet
  facet normal 0 0 1
    outer loop
      vertex 20 -16.5 8.01
      vertex 17.9925 -16.5 8.01
      vertex 19.9235 -17.2277 8.01
    endloop
  endfacet
  facet normal 0 0 1
    outer loop
      vertex 17.7075 17.3773 8.01
      vertex 19.3316 18.5572 8.01
      vertex 18.842 19.101 8.01
    endloop
  endfacet
  facet normal -0 0 1
    outer loop
      vertex 17.9599 -16.8103 8.01
      vertex 19.9235 -17.2277 8.01
      vertex 17.9925 -16.5 8.01
    endloop
  endfacet
  facet normal 0 0 1
    outer loop
      vertex 17.4987 17.6092 8.01
      vertex 18.842 19.101 8.01
      vertex 18.25 19.5311 8.01
    endloop
  endfacet
  facet normal 0 0 1
    outer loop
      vertex 19.9235 -17.2277 8.01
      vertex 17.9599 -16.8103 8.01
      vertex 19.6974 -17.9236 8.01
    endloop
  endfacet
  facet normal -0 0 1
    outer loop
      vertex 17.8635 -17.1071 8.01
      vertex 19.6974 -17.9236 8.01
      vertex 17.9599 -16.8103 8.01
    endloop
  endfacet
  facet normal 0 0 1
    outer loop
      vertex 19.9235 17.2277 8.01
      vertex 17.9599 16.8103 8.01
      vertex 17.9925 16.5 8.01
    endloop
  endfacet
  facet normal 0 0 1
    outer loop
      vertex 19.6974 17.9236 8.01
      vertex 17.8635 17.1071 8.01
      vertex 17.9599 16.8103 8.01
    endloop
  endfacet
  facet normal 0 0 1
    outer loop
      vertex 19.3316 18.5572 8.01
      vertex 17.7075 17.3773 8.01
      vertex 17.8635 17.1071 8.01
    endloop
  endfacet
  facet normal 0 0 1
    outer loop
      vertex 17.2463 17.7926 8.01
      vertex 18.25 19.5311 8.01
      vertex 17.5816 19.8287 8.01
    endloop
  endfacet
  facet normal 0 0 1
    outer loop
      vertex 18.842 19.101 8.01
      vertex 17.4987 17.6092 8.01
      vertex 17.7075 17.3773 8.01
    endloop
  endfacet
  facet normal 0 0 1
    outer loop
      vertex 18.25 19.5311 8.01
      vertex 17.2463 17.7926 8.01
      vertex 17.4987 17.6092 8.01
    endloop
  endfacet
  facet normal 0 0 1
    outer loop
      vertex 17.5816 19.8287 8.01
      vertex 16.9612 17.9195 8.01
      vertex 17.2463 17.7926 8.01
    endloop
  endfacet
  facet normal 0 0 1
    outer loop
      vertex 16.8658 19.9808 8.01
      vertex 16.9612 17.9195 8.01
      vertex 17.5816 19.8287 8.01
    endloop
  endfacet
  facet normal 0 0 1
    outer loop
      vertex 16.8658 19.9808 8.01
      vertex 16.656 17.9844 8.01
      vertex 16.9612 17.9195 8.01
    endloop
  endfacet
  facet normal 0 0 1
    outer loop
      vertex 16.8658 19.9808 8.01
      vertex -16.656 17.9844 8.01
      vertex 16.656 17.9844 8.01
    endloop
  endfacet
  facet normal -0 0 1
    outer loop
      vertex -16.8658 19.9808 8.01
      vertex -16.656 17.9844 8.01
      vertex 16.8658 19.9808 8.01
    endloop
  endfacet
  facet normal 0 0 1
    outer loop
      vertex -16.8658 19.9808 8.01
      vertex -16.9612 17.9195 8.01
      vertex -16.656 17.9844 8.01
    endloop
  endfacet
  facet normal -0 0 1
    outer loop
      vertex -17.5816 19.8287 8.01
      vertex -16.9612 17.9195 8.01
      vertex -16.8658 19.9808 8.01
    endloop
  endfacet
  facet normal 0 0 1
    outer loop
      vertex -16.9612 17.9195 8.01
      vertex -17.5816 19.8287 8.01
      vertex -17.2463 17.7926 8.01
    endloop
  endfacet
  facet normal -0 0 1
    outer loop
      vertex -18.25 19.5311 8.01
      vertex -17.2463 17.7926 8.01
      vertex -17.5816 19.8287 8.01
    endloop
  endfacet
  facet normal 0 0 1
    outer loop
      vertex -17.2463 17.7926 8.01
      vertex -18.25 19.5311 8.01
      vertex -17.4987 17.6092 8.01
    endloop
  endfacet
  facet normal -0 0 1
    outer loop
      vertex -18.842 19.101 8.01
      vertex -17.4987 17.6092 8.01
      vertex -18.25 19.5311 8.01
    endloop
  endfacet
  facet normal 0 0 1
    outer loop
      vertex -17.4987 17.6092 8.01
      vertex -18.842 19.101 8.01
      vertex -17.7075 17.3773 8.01
    endloop
  endfacet
  facet normal -0 0 1
    outer loop
      vertex -19.6974 17.9236 8.01
      vertex -17.8635 17.1071 8.01
      vertex -19.3316 18.5572 8.01
    endloop
  endfacet
  facet normal 0 0 1
    outer loop
      vertex -17.7075 17.3773 8.01
      vertex -19.3316 18.5572 8.01
      vertex -17.8635 17.1071 8.01
    endloop
  endfacet
  facet normal -0 0 1
    outer loop
      vertex -19.3316 18.5572 8.01
      vertex -17.7075 17.3773 8.01
      vertex -18.842 19.101 8.01
    endloop
  endfacet
  facet normal 0 0 1
    outer loop
      vertex 19.6974 -17.9236 8.01
      vertex 17.8635 -17.1071 8.01
      vertex 19.3316 -18.5572 8.01
    endloop
  endfacet
  facet normal -0 0 1
    outer loop
      vertex 17.7075 -17.3773 8.01
      vertex 19.3316 -18.5572 8.01
      vertex 17.8635 -17.1071 8.01
    endloop
  endfacet
  facet normal 0 0 1
    outer loop
      vertex 19.3316 -18.5572 8.01
      vertex 17.7075 -17.3773 8.01
      vertex 18.842 -19.101 8.01
    endloop
  endfacet
  facet normal -0 0 1
    outer loop
      vertex 17.4987 -17.6092 8.01
      vertex 18.842 -19.101 8.01
      vertex 17.7075 -17.3773 8.01
    endloop
  endfacet
  facet normal 0 0 1
    outer loop
      vertex 18.842 -19.101 8.01
      vertex 17.4987 -17.6092 8.01
      vertex 18.25 -19.5311 8.01
    endloop
  endfacet
  facet normal -0 0 1
    outer loop
      vertex 17.2463 -17.7926 8.01
      vertex 18.25 -19.5311 8.01
      vertex 17.4987 -17.6092 8.01
    endloop
  endfacet
  facet normal 0 0 1
    outer loop
      vertex 18.25 -19.5311 8.01
      vertex 17.2463 -17.7926 8.01
      vertex 17.5816 -19.8287 8.01
    endloop
  endfacet
  facet normal -0 0 1
    outer loop
      vertex 16.9612 -17.9195 8.01
      vertex 17.5816 -19.8287 8.01
      vertex 17.2463 -17.7926 8.01
    endloop
  endfacet
  facet normal 0 0 1
    outer loop
      vertex 16.9612 -17.9195 8.01
      vertex 16.8658 -19.9808 8.01
      vertex 17.5816 -19.8287 8.01
    endloop
  endfacet
  facet normal -0 0 1
    outer loop
      vertex 16.656 -17.9844 8.01
      vertex 16.8658 -19.9808 8.01
      vertex 16.9612 -17.9195 8.01
    endloop
  endfacet
  facet normal -0 0 1
    outer loop
      vertex -16.656 -17.9844 8.01
      vertex 16.8658 -19.9808 8.01
      vertex 16.656 -17.9844 8.01
    endloop
  endfacet
  facet normal 0 0 1
    outer loop
      vertex -16.656 -17.9844 8.01
      vertex -16.8658 -19.9808 8.01
      vertex 16.8658 -19.9808 8.01
    endloop
  endfacet
  facet normal 0 0 1
    outer loop
      vertex -16.9612 -17.9195 8.01
      vertex -16.8658 -19.9808 8.01
      vertex -16.656 -17.9844 8.01
    endloop
  endfacet
  facet normal 0 0 1
    outer loop
      vertex -17.5816 -19.8287 8.01
      vertex -16.9612 -17.9195 8.01
      vertex -17.2463 -17.7926 8.01
    endloop
  endfacet
  facet normal 0 0 1
    outer loop
      vertex -18.25 -19.5311 8.01
      vertex -17.2463 -17.7926 8.01
      vertex -17.4987 -17.6092 8.01
    endloop
  endfacet
  facet normal 0 0 1
    outer loop
      vertex -16.9612 -17.9195 8.01
      vertex -17.5816 -19.8287 8.01
      vertex -16.8658 -19.9808 8.01
    endloop
  endfacet
  facet normal 0 0 1
    outer loop
      vertex -18.842 -19.101 8.01
      vertex -17.4987 -17.6092 8.01
      vertex -17.7075 -17.3773 8.01
    endloop
  endfacet
  facet normal 0 0 1
    outer loop
      vertex -19.3316 -18.5572 8.01
      vertex -17.7075 -17.3773 8.01
      vertex -17.8635 -17.1071 8.01
    endloop
  endfacet
  facet normal 0 0 1
    outer loop
      vertex -19.6974 -17.9236 8.01
      vertex -17.8635 -17.1071 8.01
      vertex -17.9599 -16.8103 8.01
    endloop
  endfacet
  facet normal 0 0 1
    outer loop
      vertex -17.2463 -17.7926 8.01
      vertex -18.25 -19.5311 8.01
      vertex -17.5816 -19.8287 8.01
    endloop
  endfacet
  facet normal 0 0 1
    outer loop
      vertex -19.9235 -17.2277 8.01
      vertex -17.9599 -16.8103 8.01
      vertex -17.9925 -16.5 8.01
    endloop
  endfacet
  facet normal 0 0 1
    outer loop
      vertex -17.9925 16.5 8.01
      vertex -20 16.5 8.01
      vertex -17.9925 -16.5 8.01
    endloop
  endfacet
  facet normal 0 0 1
    outer loop
      vertex -17.8635 17.1071 8.01
      vertex -19.6974 17.9236 8.01
      vertex -17.9599 16.8103 8.01
    endloop
  endfacet
  facet normal 0 0 1
    outer loop
      vertex -20 -16.5 8.01
      vertex -17.9925 -16.5 8.01
      vertex -20 16.5 8.01
    endloop
  endfacet
  facet normal -0 0 1
    outer loop
      vertex -19.9235 17.2277 8.01
      vertex -17.9599 16.8103 8.01
      vertex -19.6974 17.9236 8.01
    endloop
  endfacet
  facet normal 0 -0 1
    outer loop
      vertex -19.9235 -17.2277 8.01
      vertex -17.9925 -16.5 8.01
      vertex -20 -16.5 8.01
    endloop
  endfacet
  facet normal 0 0 1
    outer loop
      vertex -17.9599 16.8103 8.01
      vertex -19.9235 17.2277 8.01
      vertex -17.9925 16.5 8.01
    endloop
  endfacet
  facet normal 0 0 1
    outer loop
      vertex -17.4987 -17.6092 8.01
      vertex -18.842 -19.101 8.01
      vertex -18.25 -19.5311 8.01
    endloop
  endfacet
  facet normal 0 0 1
    outer loop
      vertex -17.9925 16.5 8.01
      vertex -19.9235 17.2277 8.01
      vertex -20 16.5 8.01
    endloop
  endfacet
  facet normal 0 0 1
    outer loop
      vertex -17.7075 -17.3773 8.01
      vertex -19.3316 -18.5572 8.01
      vertex -18.842 -19.101 8.01
    endloop
  endfacet
  facet normal 0 0 1
    outer loop
      vertex -17.8635 -17.1071 8.01
      vertex -19.6974 -17.9236 8.01
      vertex -19.3316 -18.5572 8.01
    endloop
  endfacet
  facet normal 0 0 1
    outer loop
      vertex -17.9599 -16.8103 8.01
      vertex -19.9235 -17.2277 8.01
      vertex -19.6974 -17.9236 8.01
    endloop
  endfacet
  facet normal 0.983079 -0 0.183182
    outer loop
      vertex -17.9925 -16.5 8.01
      vertex -16.525 16.5 0.134165
      vertex -17.9925 16.5 8.01
    endloop
  endfacet
  facet normal 0.983079 0 0.183182
    outer loop
      vertex -16.525 16.5 0.134165
      vertex -17.9925 -16.5 8.01
      vertex -16.525 -16.5 0.134165
    endloop
  endfacet
  facet normal -0.935134 -0.303846 0.182212
    outer loop
      vertex 16.525 16.5111 0.146862
      vertex 17.9599 16.8103 8.01
      vertex 17.8635 17.1071 8.01
    endloop
  endfacet
  facet normal -0.935146 -0.30381 0.182213
    outer loop
      vertex 17.9599 16.8103 8.01
      vertex 16.525 16.5111 0.146862
      vertex 16.525 16.5053 0.137162
    endloop
  endfacet
  facet normal 0.204427 0.961773 0.182212
    outer loop
      vertex -16.656 -17.9844 8.01
      vertex -16.5081 -16.525 0.141069
      vertex -16.9612 -17.9195 8.01
    endloop
  endfacet
  facet normal 0.204439 0.961771 0.182212
    outer loop
      vertex -16.5081 -16.525 0.141069
      vertex -16.656 -17.9844 8.01
      vertex -16.5026 -16.525 0.134904
    endloop
  endfacet
  facet normal -0.399928 0.898252 0.182212
    outer loop
      vertex 16.5144 -16.525 0.15492
      vertex 16.9612 -17.9195 8.01
      vertex 17.2463 -17.7926 8.01
    endloop
  endfacet
  facet normal -0.399997 0.898221 0.182211
    outer loop
      vertex 16.9612 -17.9195 8.01
      vertex 16.5144 -16.525 0.15492
      vertex 16.5081 -16.525 0.141069
    endloop
  endfacet
  facet normal -0.204427 -0.961773 0.182212
    outer loop
      vertex 16.656 17.9844 8.01
      vertex 16.5081 16.525 0.141069
      vertex 16.9612 17.9195 8.01
    endloop
  endfacet
  facet normal -0.204439 -0.961771 0.182212
    outer loop
      vertex 16.5081 16.525 0.141069
      vertex 16.656 17.9844 8.01
      vertex 16.5026 16.525 0.134904
    endloop
  endfacet
  facet normal 0.851515 0.491652 0.182212
    outer loop
      vertex -17.8635 -17.1071 8.01
      vertex -16.525 -16.5182 0.165837
      vertex -16.525 -16.5111 0.146862
    endloop
  endfacet
  facet normal 0.851528 0.491629 0.182212
    outer loop
      vertex -16.525 -16.5182 0.165837
      vertex -17.8635 -17.1071 8.01
      vertex -17.7075 -17.3773 8.01
    endloop
  endfacet
  facet normal 0 0.983259 0.182212
    outer loop
      vertex 16.5026 -16.525 0.134904
      vertex -16.656 -17.9844 8.01
      vertex 16.656 -17.9844 8.01
    endloop
  endfacet
  facet normal 0 0.983259 0.182212
    outer loop
      vertex -16.656 -17.9844 8.01
      vertex 16.5026 -16.525 0.134904
      vertex -16.5026 -16.525 0.134904
    endloop
  endfacet
  facet normal -0.983079 0 0.183182
    outer loop
      vertex 16.525 -16.5 0.134165
      vertex 17.9925 16.5 8.01
      vertex 16.525 16.5 0.134165
    endloop
  endfacet
  facet normal -0.983079 0 0.183182
    outer loop
      vertex 17.9925 16.5 8.01
      vertex 16.525 -16.5 0.134165
      vertex 17.9925 -16.5 8.01
    endloop
  endfacet
  facet normal -0.577949 -0.795471 0.182212
    outer loop
      vertex 17.2463 17.7926 8.01
      vertex 16.5225 16.525 0.180536
      vertex 17.4987 17.6092 8.01
    endloop
  endfacet
  facet normal -0.577854 -0.795539 0.182215
    outer loop
      vertex 16.5225 16.525 0.180536
      vertex 17.2463 17.7926 8.01
      vertex 16.5144 16.525 0.15492
    endloop
  endfacet
  facet normal 0.577949 0.795471 0.182212
    outer loop
      vertex -17.2463 -17.7926 8.01
      vertex -16.5225 -16.525 0.180536
      vertex -17.4987 -17.6092 8.01
    endloop
  endfacet
  facet normal 0.577854 0.795539 0.182215
    outer loop
      vertex -16.5225 -16.525 0.180536
      vertex -17.2463 -17.7926 8.01
      vertex -16.5144 -16.525 0.15492
    endloop
  endfacet
  facet normal 0.977873 0.102779 0.182212
    outer loop
      vertex -17.9925 -16.5 8.01
      vertex -16.525 -16.5053 0.137162
      vertex -16.525 -16.5 0.134165
    endloop
  endfacet
  facet normal 0.977873 0.102778 0.182212
    outer loop
      vertex -16.525 -16.5053 0.137162
      vertex -17.9925 -16.5 8.01
      vertex -17.9599 -16.8103 8.01
    endloop
  endfacet
  facet normal 0 -0.983259 0.182212
    outer loop
      vertex -16.5026 16.525 0.134904
      vertex 16.656 17.9844 8.01
      vertex -16.656 17.9844 8.01
    endloop
  endfacet
  facet normal 0 -0.983259 0.182212
    outer loop
      vertex 16.656 17.9844 8.01
      vertex -16.5026 16.525 0.134904
      vertex 16.5026 16.525 0.134904
    endloop
  endfacet
  facet normal -0.977873 0.102779 0.182212
    outer loop
      vertex 16.525 -16.5053 0.137162
      vertex 17.9925 -16.5 8.01
      vertex 16.525 -16.5 0.134165
    endloop
  endfacet
  facet normal -0.977873 0.102778 0.182212
    outer loop
      vertex 17.9925 -16.5 8.01
      vertex 16.525 -16.5053 0.137162
      vertex 17.9599 -16.8103 8.01
    endloop
  endfacet
  facet normal -0.977873 -0.102779 0.182212
    outer loop
      vertex 17.9925 16.5 8.01
      vertex 16.525 16.5053 0.137162
      vertex 16.525 16.5 0.134165
    endloop
  endfacet
  facet normal -0.977873 -0.102778 0.182212
    outer loop
      vertex 16.525 16.5053 0.137162
      vertex 17.9925 16.5 8.01
      vertex 17.9599 16.8103 8.01
    endloop
  endfacet
  facet normal -0.399928 -0.898252 0.182212
    outer loop
      vertex 16.9612 17.9195 8.01
      vertex 16.5144 16.525 0.15492
      vertex 17.2463 17.7926 8.01
    endloop
  endfacet
  facet normal -0.399997 -0.898221 0.182211
    outer loop
      vertex 16.5144 16.525 0.15492
      vertex 16.9612 17.9195 8.01
      vertex 16.5081 16.525 0.141069
    endloop
  endfacet
  facet normal 0.399928 0.898252 0.182212
    outer loop
      vertex -16.9612 -17.9195 8.01
      vertex -16.5144 -16.525 0.15492
      vertex -17.2463 -17.7926 8.01
    endloop
  endfacet
  facet normal 0.399997 0.898221 0.182211
    outer loop
      vertex -16.5144 -16.525 0.15492
      vertex -16.9612 -17.9195 8.01
      vertex -16.5081 -16.525 0.141069
    endloop
  endfacet
  facet normal 0.730673 0.657963 0.182211
    outer loop
      vertex -17.7075 -17.3773 8.01
      vertex -16.525 -16.525 0.190521
      vertex -16.525 -16.5182 0.165837
    endloop
  endfacet
  facet normal 0.730704 0.657929 0.182212
    outer loop
      vertex -17.4987 -17.6092 8.01
      vertex -16.525 -16.525 0.190521
      vertex -17.7075 -17.3773 8.01
    endloop
  endfacet
  facet normal 0.730905 0.657707 0.182207
    outer loop
      vertex -16.525 -16.525 0.190521
      vertex -17.4987 -17.6092 8.01
      vertex -16.5225 -16.525 0.180536
    endloop
  endfacet
  facet normal 0.935146 0.30381 0.182213
    outer loop
      vertex -17.9599 -16.8103 8.01
      vertex -16.525 -16.5111 0.146862
      vertex -16.525 -16.5053 0.137162
    endloop
  endfacet
  facet normal 0.935134 0.303846 0.182212
    outer loop
      vertex -16.525 -16.5111 0.146862
      vertex -17.9599 -16.8103 8.01
      vertex -17.8635 -17.1071 8.01
    endloop
  endfacet
  facet normal 0.730673 -0.657963 0.182211
    outer loop
      vertex -17.7075 17.3773 8.01
      vertex -16.525 16.5182 0.165837
      vertex -16.525 16.525 0.190521
    endloop
  endfacet
  facet normal 0.730704 -0.657929 0.182212
    outer loop
      vertex -16.525 16.525 0.190521
      vertex -17.4987 17.6092 8.01
      vertex -17.7075 17.3773 8.01
    endloop
  endfacet
  facet normal 0.730905 -0.657707 0.182207
    outer loop
      vertex -17.4987 17.6092 8.01
      vertex -16.525 16.525 0.190521
      vertex -16.5225 16.525 0.180536
    endloop
  endfacet
  facet normal -0.935146 0.30381 0.182213
    outer loop
      vertex 16.525 -16.5111 0.146862
      vertex 17.9599 -16.8103 8.01
      vertex 16.525 -16.5053 0.137162
    endloop
  endfacet
  facet normal -0.935134 0.303846 0.182212
    outer loop
      vertex 17.9599 -16.8103 8.01
      vertex 16.525 -16.5111 0.146862
      vertex 17.8635 -17.1071 8.01
    endloop
  endfacet
  facet normal -0.851528 -0.491629 0.182212
    outer loop
      vertex 16.525 16.5182 0.165837
      vertex 17.8635 17.1071 8.01
      vertex 17.7075 17.3773 8.01
    endloop
  endfacet
  facet normal -0.851515 -0.491652 0.182212
    outer loop
      vertex 17.8635 17.1071 8.01
      vertex 16.525 16.5182 0.165837
      vertex 16.525 16.5111 0.146862
    endloop
  endfacet
  facet normal -0.577949 0.795471 0.182212
    outer loop
      vertex 16.5225 -16.525 0.180536
      vertex 17.2463 -17.7926 8.01
      vertex 17.4987 -17.6092 8.01
    endloop
  endfacet
  facet normal -0.577854 0.795539 0.182215
    outer loop
      vertex 17.2463 -17.7926 8.01
      vertex 16.5225 -16.525 0.180536
      vertex 16.5144 -16.525 0.15492
    endloop
  endfacet
  facet normal 0.399928 -0.898252 0.182212
    outer loop
      vertex -16.5144 16.525 0.15492
      vertex -16.9612 17.9195 8.01
      vertex -17.2463 17.7926 8.01
    endloop
  endfacet
  facet normal 0.399997 -0.898221 0.182211
    outer loop
      vertex -16.9612 17.9195 8.01
      vertex -16.5144 16.525 0.15492
      vertex -16.5081 16.525 0.141069
    endloop
  endfacet
  facet normal -0.851515 0.491652 0.182212
    outer loop
      vertex 16.525 -16.5182 0.165837
      vertex 17.8635 -17.1071 8.01
      vertex 16.525 -16.5111 0.146862
    endloop
  endfacet
  facet normal -0.851528 0.491629 0.182212
    outer loop
      vertex 17.8635 -17.1071 8.01
      vertex 16.525 -16.5182 0.165837
      vertex 17.7075 -17.3773 8.01
    endloop
  endfacet
  facet normal -0.730905 -0.657707 0.182207
    outer loop
      vertex 16.525 16.525 0.190521
      vertex 17.4987 17.6092 8.01
      vertex 16.5225 16.525 0.180536
    endloop
  endfacet
  facet normal -0.730704 -0.657929 0.182212
    outer loop
      vertex 17.4987 17.6092 8.01
      vertex 16.525 16.525 0.190521
      vertex 17.7075 17.3773 8.01
    endloop
  endfacet
  facet normal -0.730673 -0.657963 0.182211
    outer loop
      vertex 17.7075 17.3773 8.01
      vertex 16.525 16.525 0.190521
      vertex 16.525 16.5182 0.165837
    endloop
  endfacet
  facet normal -0.204427 0.961773 0.182212
    outer loop
      vertex 16.5081 -16.525 0.141069
      vertex 16.656 -17.9844 8.01
      vertex 16.9612 -17.9195 8.01
    endloop
  endfacet
  facet normal -0.204439 0.961771 0.182212
    outer loop
      vertex 16.656 -17.9844 8.01
      vertex 16.5081 -16.525 0.141069
      vertex 16.5026 -16.525 0.134904
    endloop
  endfacet
  facet normal -0.730905 0.657707 0.182207
    outer loop
      vertex 17.4987 -17.6092 8.01
      vertex 16.525 -16.525 0.190521
      vertex 16.5225 -16.525 0.180536
    endloop
  endfacet
  facet normal -0.730704 0.657929 0.182212
    outer loop
      vertex 16.525 -16.525 0.190521
      vertex 17.4987 -17.6092 8.01
      vertex 17.7075 -17.3773 8.01
    endloop
  endfacet
  facet normal -0.730673 0.657963 0.182211
    outer loop
      vertex 16.525 -16.5182 0.165837
      vertex 16.525 -16.525 0.190521
      vertex 17.7075 -17.3773 8.01
    endloop
  endfacet
  facet normal 0.851528 -0.491629 0.182212
    outer loop
      vertex -17.8635 17.1071 8.01
      vertex -16.525 16.5182 0.165837
      vertex -17.7075 17.3773 8.01
    endloop
  endfacet
  facet normal 0.851515 -0.491652 0.182212
    outer loop
      vertex -16.525 16.5182 0.165837
      vertex -17.8635 17.1071 8.01
      vertex -16.525 16.5111 0.146862
    endloop
  endfacet
  facet normal 0.577949 -0.795471 0.182212
    outer loop
      vertex -16.5225 16.525 0.180536
      vertex -17.2463 17.7926 8.01
      vertex -17.4987 17.6092 8.01
    endloop
  endfacet
  facet normal 0.577854 -0.795539 0.182215
    outer loop
      vertex -17.2463 17.7926 8.01
      vertex -16.5225 16.525 0.180536
      vertex -16.5144 16.525 0.15492
    endloop
  endfacet
  facet normal 0.204427 -0.961773 0.182212
    outer loop
      vertex -16.5081 16.525 0.141069
      vertex -16.656 17.9844 8.01
      vertex -16.9612 17.9195 8.01
    endloop
  endfacet
  facet normal 0.204439 -0.961771 0.182212
    outer loop
      vertex -16.656 17.9844 8.01
      vertex -16.5081 16.525 0.141069
      vertex -16.5026 16.525 0.134904
    endloop
  endfacet
  facet normal 0.935134 -0.303846 0.182212
    outer loop
      vertex -17.9599 16.8103 8.01
      vertex -16.525 16.5111 0.146862
      vertex -17.8635 17.1071 8.01
    endloop
  endfacet
  facet normal 0.935146 -0.30381 0.182213
    outer loop
      vertex -16.525 16.5111 0.146862
      vertex -17.9599 16.8103 8.01
      vertex -16.525 16.5053 0.137162
    endloop
  endfacet
  facet normal 0.977873 -0.102778 0.182212
    outer loop
      vertex -17.9925 16.5 8.01
      vertex -16.525 16.5053 0.137162
      vertex -17.9599 16.8103 8.01
    endloop
  endfacet
  facet normal 0.977873 -0.102779 0.182212
    outer loop
      vertex -16.525 16.5053 0.137162
      vertex -17.9925 16.5 8.01
      vertex -16.525 16.5 0.134165
    endloop
  endfacet
  facet normal -0.147418 -0.693552 0.705162
    outer loop
      vertex 1.78082 11.8793 4.95
      vertex 1.38207 11.9641 4.95
      vertex 1.17824 10.0247 3
    endloop
  endfacet
  facet normal -0.707107 0 0.707107
    outer loop
      vertex 1.17824 -10.2252 3
      vertex 3.12824 10.0247 4.95
      vertex 1.17824 10.0247 3
    endloop
  endfacet
  facet normal -0.707107 0 0.707107
    outer loop
      vertex 3.12824 10.0247 4.95
      vertex 1.17824 -10.2252 3
      vertex 3.12824 -10.2252 4.95
    endloop
  endfacet
  facet normal 0.526923 0.474445 0.705162
    outer loop
      vertex -5.48756 6.63162 4.95
      vertex -4.18275 8.08075 3
      vertex -5.76034 6.93457 4.95
    endloop
  endfacet
  facet normal 0.705162 0.0741162 0.705162
    outer loop
      vertex -6.09014 7.67532 4.95
      vertex -4.18275 8.08075 3
      vertex -6.13275 8.08075 4.95
    endloop
  endfacet
  facet normal 0.705162 -0.0741163 0.705162
    outer loop
      vertex -4.18275 10.0247 3
      vertex -6.09014 10.4302 4.95
      vertex -6.13275 10.0247 4.95
    endloop
  endfacet
  facet normal 0.707107 -0 0.707107
    outer loop
      vertex -6.13275 8.08075 4.95
      vertex -4.18275 10.0247 3
      vertex -6.13275 10.0247 4.95
    endloop
  endfacet
  facet normal 0.707107 0 0.707107
    outer loop
      vertex -4.18275 10.0247 3
      vertex -6.13275 8.08075 4.95
      vertex -4.18275 8.08075 3
    endloop
  endfacet
  facet normal 0 0 1
    outer loop
      vertex 1.17824 10.0247 3
      vertex -1.29375 8.08075 3
      vertex 1.17824 -10.2252 3
    endloop
  endfacet
  facet normal -0 0 1
    outer loop
      vertex -4.18275 10.0247 3
      vertex -1.29375 8.08075 3
      vertex 1.17824 10.0247 3
    endloop
  endfacet
  facet normal 0 0 1
    outer loop
      vertex -1.29375 8.08075 3
      vertex -4.18275 10.0247 3
      vertex -4.18275 8.08075 3
    endloop
  endfacet
  facet normal 0 0 1
    outer loop
      vertex 1.17824 -10.2252 3
      vertex -1.29375 8.08075 3
      vertex -1.29375 -10.2252 3
    endloop
  endfacet
  facet normal -0.614052 -0.354523 0.705162
    outer loop
      vertex 2.95965 10.8179 4.95
      vertex 2.75582 11.1709 4.95
      vertex 1.17824 10.0247 3
    endloop
  endfacet
  facet normal 0.147418 -0.693552 0.705162
    outer loop
      vertex -4.18275 10.0247 3
      vertex -4.38658 11.9641 4.95
      vertex -4.78534 11.8793 4.95
    endloop
  endfacet
  facet normal 0.416767 0.57363 0.705162
    outer loop
      vertex -5.15775 6.392 4.95
      vertex -4.18275 8.08075 3
      vertex -5.48756 6.63162 4.95
    endloop
  endfacet
  facet normal 0.614053 -0.354522 0.705162
    outer loop
      vertex -4.18275 10.0247 3
      vertex -5.76034 11.1709 4.95
      vertex -5.96417 10.8179 4.95
    endloop
  endfacet
  facet normal -0.416767 -0.573631 0.705162
    outer loop
      vertex 2.48304 11.4739 4.95
      vertex 2.15324 11.7135 4.95
      vertex 1.17824 10.0247 3
    endloop
  endfacet
  facet normal -0.705162 -0.0741159 0.705162
    outer loop
      vertex 3.12824 10.0247 4.95
      vertex 3.08563 10.4302 4.95
      vertex 1.17824 10.0247 3
    endloop
  endfacet
  facet normal 0 -0.709046 0.705162
    outer loop
      vertex -4.18275 10.0247 3
      vertex 1.38207 11.9641 4.95
      vertex -4.38658 11.9641 4.95
    endloop
  endfacet
  facet normal 0 -0.709046 0.705162
    outer loop
      vertex 1.38207 11.9641 4.95
      vertex -4.18275 10.0247 3
      vertex 1.17824 10.0247 3
    endloop
  endfacet
  facet normal 0.526924 -0.474445 0.705162
    outer loop
      vertex -4.18275 10.0247 3
      vertex -5.48756 11.4739 4.95
      vertex -5.76034 11.1709 4.95
    endloop
  endfacet
  facet normal 0.288396 0.647746 0.705162
    outer loop
      vertex -4.78534 6.22619 4.95
      vertex -4.18275 8.08075 3
      vertex -5.15775 6.392 4.95
    endloop
  endfacet
  facet normal -0 0.709046 0.705162
    outer loop
      vertex -4.18275 8.08075 3
      vertex -3.24375 6.14143 4.95
      vertex -1.29375 8.08075 3
    endloop
  endfacet
  facet normal 0 0.709046 0.705162
    outer loop
      vertex -3.24375 6.14143 4.95
      vertex -4.18275 8.08075 3
      vertex -4.38658 6.14143 4.95
    endloop
  endfacet
  facet normal 0.674343 0.219108 0.705162
    outer loop
      vertex -5.96417 7.28761 4.95
      vertex -4.18275 8.08075 3
      vertex -6.09014 7.67532 4.95
    endloop
  endfacet
  facet normal 0.614053 0.354522 0.705162
    outer loop
      vertex -5.76034 6.93457 4.95
      vertex -4.18275 8.08075 3
      vertex -5.96417 7.28761 4.95
    endloop
  endfacet
  facet normal -0.288396 -0.647746 0.705162
    outer loop
      vertex 2.15324 11.7135 4.95
      vertex 1.78082 11.8793 4.95
      vertex 1.17824 10.0247 3
    endloop
  endfacet
  facet normal -0.526924 -0.474445 0.705162
    outer loop
      vertex 2.75582 11.1709 4.95
      vertex 2.48304 11.4739 4.95
      vertex 1.17824 10.0247 3
    endloop
  endfacet
  facet normal -0.674343 -0.219108 0.705162
    outer loop
      vertex 3.08563 10.4302 4.95
      vertex 2.95965 10.8179 4.95
      vertex 1.17824 10.0247 3
    endloop
  endfacet
  facet normal 0.288396 -0.647746 0.705162
    outer loop
      vertex -4.18275 10.0247 3
      vertex -4.78534 11.8793 4.95
      vertex -5.15775 11.7135 4.95
    endloop
  endfacet
  facet normal 0.674343 -0.219108 0.705162
    outer loop
      vertex -4.18275 10.0247 3
      vertex -5.96417 10.8179 4.95
      vertex -6.09014 10.4302 4.95
    endloop
  endfacet
  facet normal 0.147418 0.693552 0.705162
    outer loop
      vertex -4.38658 6.14143 4.95
      vertex -4.18275 8.08075 3
      vertex -4.78534 6.22619 4.95
    endloop
  endfacet
  facet normal 0.416767 -0.573631 0.705162
    outer loop
      vertex -4.18275 10.0247 3
      vertex -5.15775 11.7135 4.95
      vertex -5.48756 11.4739 4.95
    endloop
  endfacet
  facet normal 0.707107 0 0.707107
    outer loop
      vertex -1.29375 -10.2252 3
      vertex -3.24375 6.14143 4.95
      vertex -3.24375 -10.2252 4.95
    endloop
  endfacet
  facet normal 0.707107 0 0.707107
    outer loop
      vertex -3.24375 6.14143 4.95
      vertex -1.29375 -10.2252 3
      vertex -1.29375 8.08075 3
    endloop
  endfacet
  facet normal 0.705162 0.0741159 0.705162
    outer loop
      vertex -3.20113 -10.6307 4.95
      vertex -1.29375 -10.2252 3
      vertex -3.24375 -10.2252 4.95
    endloop
  endfacet
  facet normal 0 0.709046 0.705162
    outer loop
      vertex 1.17824 -10.2252 3
      vertex -1.49758 -12.1646 4.95
      vertex 1.38207 -12.1646 4.95
    endloop
  endfacet
  facet normal 0 0.709046 0.705162
    outer loop
      vertex -1.49758 -12.1646 4.95
      vertex 1.17824 -10.2252 3
      vertex -1.29375 -10.2252 3
    endloop
  endfacet
  facet normal 0.147418 0.693552 0.705162
    outer loop
      vertex -1.49758 -12.1646 4.95
      vertex -1.29375 -10.2252 3
      vertex -1.89633 -12.0798 4.95
    endloop
  endfacet
  facet normal 0.288396 0.647746 0.705162
    outer loop
      vertex -1.89633 -12.0798 4.95
      vertex -1.29375 -10.2252 3
      vertex -2.26875 -11.914 4.95
    endloop
  endfacet
  facet normal -0.614052 0.354523 0.705162
    outer loop
      vertex 2.75582 -11.3714 4.95
      vertex 2.95965 -11.0184 4.95
      vertex 1.17824 -10.2252 3
    endloop
  endfacet
  facet normal 0.614052 0.354523 0.705162
    outer loop
      vertex -2.87133 -11.3714 4.95
      vertex -1.29375 -10.2252 3
      vertex -3.07516 -11.0184 4.95
    endloop
  endfacet
  facet normal 0.416767 0.573631 0.705162
    outer loop
      vertex -2.26875 -11.914 4.95
      vertex -1.29375 -10.2252 3
      vertex -2.59855 -11.6744 4.95
    endloop
  endfacet
  facet normal -0.705162 0.0741159 0.705162
    outer loop
      vertex 3.08563 -10.6307 4.95
      vertex 3.12824 -10.2252 4.95
      vertex 1.17824 -10.2252 3
    endloop
  endfacet
  facet normal -0.416766 0.573631 0.705162
    outer loop
      vertex 2.15324 -11.914 4.95
      vertex 2.48304 -11.6744 4.95
      vertex 1.17824 -10.2252 3
    endloop
  endfacet
  facet normal -0.674343 0.219108 0.705162
    outer loop
      vertex 2.95965 -11.0184 4.95
      vertex 3.08563 -10.6307 4.95
      vertex 1.17824 -10.2252 3
    endloop
  endfacet
  facet normal -0.526924 0.474445 0.705162
    outer loop
      vertex 2.48304 -11.6744 4.95
      vertex 2.75582 -11.3714 4.95
      vertex 1.17824 -10.2252 3
    endloop
  endfacet
  facet normal -0.147418 0.693552 0.705162
    outer loop
      vertex 1.38207 -12.1646 4.95
      vertex 1.78082 -12.0798 4.95
      vertex 1.17824 -10.2252 3
    endloop
  endfacet
  facet normal 0.674343 0.219108 0.705162
    outer loop
      vertex -3.07516 -11.0184 4.95
      vertex -1.29375 -10.2252 3
      vertex -3.20113 -10.6307 4.95
    endloop
  endfacet
  facet normal -0.288397 0.647745 0.705162
    outer loop
      vertex 1.78082 -12.0798 4.95
      vertex 2.15324 -11.914 4.95
      vertex 1.17824 -10.2252 3
    endloop
  endfacet
  facet normal 0.526924 0.474445 0.705162
    outer loop
      vertex -2.59855 -11.6744 4.95
      vertex -1.29375 -10.2252 3
      vertex -2.87133 -11.3714 4.95
    endloop
  endfacet
  facet normal 1 0 0
    outer loop
      vertex 16.525 16.5 0.134165
      vertex 16.525 16.525 0.190521
      vertex 16.525 16.525 4.95
    endloop
  endfacet
  facet normal 1 0 0
    outer loop
      vertex 16.525 16.525 0.190521
      vertex 16.525 16.5 0.134165
      vertex 16.525 16.5182 0.165837
    endloop
  endfacet
  facet normal 1 0 0
    outer loop
      vertex 16.525 16.5182 0.165837
      vertex 16.525 16.5 0.134165
      vertex 16.525 16.5111 0.146862
    endloop
  endfacet
  facet normal 1 0 0
    outer loop
      vertex 16.525 16.5111 0.146862
      vertex 16.525 16.5 0.134165
      vertex 16.525 16.5053 0.137162
    endloop
  endfacet
  facet normal 1 0 0
    outer loop
      vertex 16.525 16.525 4.95
      vertex 16.525 -16.5 0.134165
      vertex 16.525 16.5 0.134165
    endloop
  endfacet
  facet normal 1 -0 0
    outer loop
      vertex 16.525 -16.525 4.95
      vertex 16.525 -16.5 0.134165
      vertex 16.525 16.525 4.95
    endloop
  endfacet
  facet normal 1 -0 0
    outer loop
      vertex 16.525 -16.525 0.190521
      vertex 16.525 -16.5 0.134165
      vertex 16.525 -16.525 4.95
    endloop
  endfacet
  facet normal 1 -0 -0
    outer loop
      vertex 16.525 -16.5182 0.165837
      vertex 16.525 -16.5 0.134165
      vertex 16.525 -16.525 0.190521
    endloop
  endfacet
  facet normal 1 -0 -0
    outer loop
      vertex 16.525 -16.5111 0.146862
      vertex 16.525 -16.5 0.134165
      vertex 16.525 -16.5182 0.165837
    endloop
  endfacet
  facet normal 1 0 0
    outer loop
      vertex 16.525 -16.5 0.134165
      vertex 16.525 -16.5111 0.146862
      vertex 16.525 -16.5053 0.137162
    endloop
  endfacet
  facet normal -1 0 0
    outer loop
      vertex -16.525 16.5 0.134165
      vertex -16.525 16.525 0.190521
      vertex -16.525 16.5182 0.165837
    endloop
  endfacet
  facet normal -1 0 0
    outer loop
      vertex -16.525 16.5 0.134165
      vertex -16.525 16.5182 0.165837
      vertex -16.525 16.5111 0.146862
    endloop
  endfacet
  facet normal -1 0 0
    outer loop
      vertex -16.525 16.5 0.134165
      vertex -16.525 16.5111 0.146862
      vertex -16.525 16.5053 0.137162
    endloop
  endfacet
  facet normal -1 -0 0
    outer loop
      vertex -16.525 16.525 0.190521
      vertex -16.525 16.5 0.134165
      vertex -16.525 16.525 4.95
    endloop
  endfacet
  facet normal -1 0 0
    outer loop
      vertex -16.525 -16.5 0.134165
      vertex -16.525 16.525 4.95
      vertex -16.525 16.5 0.134165
    endloop
  endfacet
  facet normal -1 0 0
    outer loop
      vertex -16.525 -16.5111 0.146862
      vertex -16.525 -16.5 0.134165
      vertex -16.525 -16.5053 0.137162
    endloop
  endfacet
  facet normal -1 0 0
    outer loop
      vertex -16.525 -16.5 0.134165
      vertex -16.525 -16.5111 0.146862
      vertex -16.525 -16.5182 0.165837
    endloop
  endfacet
  facet normal -1 0 0
    outer loop
      vertex -16.525 -16.5 0.134165
      vertex -16.525 -16.5182 0.165837
      vertex -16.525 -16.525 0.190521
    endloop
  endfacet
  facet normal -1 0 0
    outer loop
      vertex -16.525 -16.5 0.134165
      vertex -16.525 -16.525 0.190521
      vertex -16.525 -16.525 4.95
    endloop
  endfacet
  facet normal -1 0 0
    outer loop
      vertex -16.525 -16.5 0.134165
      vertex -16.525 -16.525 4.95
      vertex -16.525 16.525 4.95
    endloop
  endfacet
  facet normal 0 -1 0
    outer loop
      vertex -16.5026 -16.525 0.134904
      vertex -16.525 -16.525 4.95
      vertex -16.525 -16.525 0.190521
    endloop
  endfacet
  facet normal 0 -1 0
    outer loop
      vertex -16.525 -16.525 4.95
      vertex -16.5026 -16.525 0.134904
      vertex 16.525 -16.525 4.95
    endloop
  endfacet
  facet normal 0 -1 0
    outer loop
      vertex -16.5026 -16.525 0.134904
      vertex -16.525 -16.525 0.190521
      vertex -16.5225 -16.525 0.180536
    endloop
  endfacet
  facet normal 0 -1 0
    outer loop
      vertex 16.5026 -16.525 0.134904
      vertex 16.525 -16.525 4.95
      vertex -16.5026 -16.525 0.134904
    endloop
  endfacet
  facet normal 0 -1 0
    outer loop
      vertex -16.5026 -16.525 0.134904
      vertex -16.5225 -16.525 0.180536
      vertex -16.5144 -16.525 0.15492
    endloop
  endfacet
  facet normal 0 -1 -0
    outer loop
      vertex 16.525 -16.525 4.95
      vertex 16.5026 -16.525 0.134904
      vertex 16.525 -16.525 0.190521
    endloop
  endfacet
  facet normal 0 -1 0
    outer loop
      vertex -16.5026 -16.525 0.134904
      vertex -16.5144 -16.525 0.15492
      vertex -16.5081 -16.525 0.141069
    endloop
  endfacet
  facet normal 0 -1 0
    outer loop
      vertex 16.525 -16.525 0.190521
      vertex 16.5026 -16.525 0.134904
      vertex 16.5225 -16.525 0.180536
    endloop
  endfacet
  facet normal 0 -1 0
    outer loop
      vertex 16.5225 -16.525 0.180536
      vertex 16.5026 -16.525 0.134904
      vertex 16.5144 -16.525 0.15492
    endloop
  endfacet
  facet normal 0 -1 0
    outer loop
      vertex 16.5144 -16.525 0.15492
      vertex 16.5026 -16.525 0.134904
      vertex 16.5081 -16.525 0.141069
    endloop
  endfacet
  facet normal 0 1 0
    outer loop
      vertex 16.5026 16.525 0.134904
      vertex 16.525 16.525 4.95
      vertex 16.525 16.525 0.190521
    endloop
  endfacet
  facet normal 0 1 0
    outer loop
      vertex 16.525 16.525 4.95
      vertex 16.5026 16.525 0.134904
      vertex -16.525 16.525 4.95
    endloop
  endfacet
  facet normal 0 1 0
    outer loop
      vertex 16.5026 16.525 0.134904
      vertex 16.525 16.525 0.190521
      vertex 16.5225 16.525 0.180536
    endloop
  endfacet
  facet normal 0 1 -0
    outer loop
      vertex -16.5026 16.525 0.134904
      vertex -16.525 16.525 4.95
      vertex 16.5026 16.525 0.134904
    endloop
  endfacet
  facet normal 0 1 0
    outer loop
      vertex 16.5026 16.525 0.134904
      vertex 16.5225 16.525 0.180536
      vertex 16.5144 16.525 0.15492
    endloop
  endfacet
  facet normal 0 1 0
    outer loop
      vertex -16.525 16.525 4.95
      vertex -16.5026 16.525 0.134904
      vertex -16.525 16.525 0.190521
    endloop
  endfacet
  facet normal 0 1 0
    outer loop
      vertex 16.5026 16.525 0.134904
      vertex 16.5144 16.525 0.15492
      vertex 16.5081 16.525 0.141069
    endloop
  endfacet
  facet normal 0 1 0
    outer loop
      vertex -16.525 16.525 0.190521
      vertex -16.5026 16.525 0.134904
      vertex -16.5225 16.525 0.180536
    endloop
  endfacet
  facet normal 0 1 0
    outer loop
      vertex -16.5225 16.525 0.180536
      vertex -16.5026 16.525 0.134904
      vertex -16.5144 16.525 0.15492
    endloop
  endfacet
  facet normal 0 1 0
    outer loop
      vertex -16.5144 16.525 0.15492
      vertex -16.5026 16.525 0.134904
      vertex -16.5081 16.525 0.141069
    endloop
  endfacet
  facet normal 0 0 1
    outer loop
      vertex -3.24375 6.14143 4.95
      vertex -4.38658 6.14143 4.95
      vertex -3.24375 -10.2252 4.95
    endloop
  endfacet
  facet normal 0 0 1
    outer loop
      vertex 16.525 16.525 4.95
      vertex 3.12824 10.0247 4.95
      vertex 16.525 -16.525 4.95
    endloop
  endfacet
  facet normal 0 0 1
    outer loop
      vertex 16.525 16.525 4.95
      vertex 3.08563 10.4302 4.95
      vertex 3.12824 10.0247 4.95
    endloop
  endfacet
  facet normal 0 0 1
    outer loop
      vertex 16.525 16.525 4.95
      vertex 2.95965 10.8179 4.95
      vertex 3.08563 10.4302 4.95
    endloop
  endfacet
  facet normal 0 0 1
    outer loop
      vertex 16.525 16.525 4.95
      vertex 2.75582 11.1709 4.95
      vertex 2.95965 10.8179 4.95
    endloop
  endfacet
  facet normal 0 0 1
    outer loop
      vertex 16.525 16.525 4.95
      vertex 2.48304 11.4739 4.95
      vertex 2.75582 11.1709 4.95
    endloop
  endfacet
  facet normal 0 0 1
    outer loop
      vertex 16.525 16.525 4.95
      vertex 2.15324 11.7135 4.95
      vertex 2.48304 11.4739 4.95
    endloop
  endfacet
  facet normal 0 0 1
    outer loop
      vertex 16.525 16.525 4.95
      vertex 1.78082 11.8793 4.95
      vertex 2.15324 11.7135 4.95
    endloop
  endfacet
  facet normal 0 0 1
    outer loop
      vertex 16.525 16.525 4.95
      vertex 1.38207 11.9641 4.95
      vertex 1.78082 11.8793 4.95
    endloop
  endfacet
  facet normal -0 0 1
    outer loop
      vertex -16.525 16.525 4.95
      vertex 1.38207 11.9641 4.95
      vertex 16.525 16.525 4.95
    endloop
  endfacet
  facet normal 0 0 1
    outer loop
      vertex 1.38207 11.9641 4.95
      vertex -16.525 16.525 4.95
      vertex -4.38658 11.9641 4.95
    endloop
  endfacet
  facet normal 0 0 1
    outer loop
      vertex -6.13275 10.0247 4.95
      vertex -16.525 16.525 4.95
      vertex -6.13275 8.08075 4.95
    endloop
  endfacet
  facet normal 0 0 1
    outer loop
      vertex -6.09014 10.4302 4.95
      vertex -16.525 16.525 4.95
      vertex -6.13275 10.0247 4.95
    endloop
  endfacet
  facet normal 0 0 1
    outer loop
      vertex -5.96417 10.8179 4.95
      vertex -16.525 16.525 4.95
      vertex -6.09014 10.4302 4.95
    endloop
  endfacet
  facet normal 0 0 1
    outer loop
      vertex -5.76034 11.1709 4.95
      vertex -16.525 16.525 4.95
      vertex -5.96417 10.8179 4.95
    endloop
  endfacet
  facet normal 0 0 1
    outer loop
      vertex -5.48756 11.4739 4.95
      vertex -16.525 16.525 4.95
      vertex -5.76034 11.1709 4.95
    endloop
  endfacet
  facet normal 0 0 1
    outer loop
      vertex -5.15775 11.7135 4.95
      vertex -16.525 16.525 4.95
      vertex -5.48756 11.4739 4.95
    endloop
  endfacet
  facet normal 0 0 1
    outer loop
      vertex -4.78534 11.8793 4.95
      vertex -16.525 16.525 4.95
      vertex -5.15775 11.7135 4.95
    endloop
  endfacet
  facet normal 0 0 1
    outer loop
      vertex -4.38658 11.9641 4.95
      vertex -16.525 16.525 4.95
      vertex -4.78534 11.8793 4.95
    endloop
  endfacet
  facet normal -0 0 1
    outer loop
      vertex 3.12824 -10.2252 4.95
      vertex 16.525 -16.525 4.95
      vertex 3.12824 10.0247 4.95
    endloop
  endfacet
  facet normal -0 0 1
    outer loop
      vertex 3.08563 -10.6307 4.95
      vertex 16.525 -16.525 4.95
      vertex 3.12824 -10.2252 4.95
    endloop
  endfacet
  facet normal -0 0 1
    outer loop
      vertex 2.95965 -11.0184 4.95
      vertex 16.525 -16.525 4.95
      vertex 3.08563 -10.6307 4.95
    endloop
  endfacet
  facet normal -0 0 1
    outer loop
      vertex 2.75582 -11.3714 4.95
      vertex 16.525 -16.525 4.95
      vertex 2.95965 -11.0184 4.95
    endloop
  endfacet
  facet normal -0 0 1
    outer loop
      vertex 2.48304 -11.6744 4.95
      vertex 16.525 -16.525 4.95
      vertex 2.75582 -11.3714 4.95
    endloop
  endfacet
  facet normal -0 0 1
    outer loop
      vertex 2.15324 -11.914 4.95
      vertex 16.525 -16.525 4.95
      vertex 2.48304 -11.6744 4.95
    endloop
  endfacet
  facet normal -0 0 1
    outer loop
      vertex 1.78082 -12.0798 4.95
      vertex 16.525 -16.525 4.95
      vertex 2.15324 -11.914 4.95
    endloop
  endfacet
  facet normal -0 0 1
    outer loop
      vertex 1.38207 -12.1646 4.95
      vertex 16.525 -16.525 4.95
      vertex 1.78082 -12.0798 4.95
    endloop
  endfacet
  facet normal -0 0 1
    outer loop
      vertex -1.49758 -12.1646 4.95
      vertex 16.525 -16.525 4.95
      vertex 1.38207 -12.1646 4.95
    endloop
  endfacet
  facet normal 0 0 1
    outer loop
      vertex -16.525 -16.525 4.95
      vertex -1.49758 -12.1646 4.95
      vertex -1.89633 -12.0798 4.95
    endloop
  endfacet
  facet normal 0 0 1
    outer loop
      vertex -4.78534 6.22619 4.95
      vertex -3.24375 -10.2252 4.95
      vertex -4.38658 6.14143 4.95
    endloop
  endfacet
  facet normal 0 0 1
    outer loop
      vertex -5.15775 6.392 4.95
      vertex -3.24375 -10.2252 4.95
      vertex -4.78534 6.22619 4.95
    endloop
  endfacet
  facet normal 0 0 1
    outer loop
      vertex -5.48756 6.63162 4.95
      vertex -3.24375 -10.2252 4.95
      vertex -5.15775 6.392 4.95
    endloop
  endfacet
  facet normal 0 0 1
    outer loop
      vertex -16.525 -16.525 4.95
      vertex -3.24375 -10.2252 4.95
      vertex -5.48756 6.63162 4.95
    endloop
  endfacet
  facet normal 0 0 1
    outer loop
      vertex -16.525 -16.525 4.95
      vertex -5.48756 6.63162 4.95
      vertex -5.76034 6.93457 4.95
    endloop
  endfacet
  facet normal 0 0 1
    outer loop
      vertex -16.525 -16.525 4.95
      vertex -5.76034 6.93457 4.95
      vertex -5.96417 7.28761 4.95
    endloop
  endfacet
  facet normal 0 0 1
    outer loop
      vertex -16.525 16.525 4.95
      vertex -5.96417 7.28761 4.95
      vertex -6.09014 7.67532 4.95
    endloop
  endfacet
  facet normal 0 0 1
    outer loop
      vertex -16.525 16.525 4.95
      vertex -6.09014 7.67532 4.95
      vertex -6.13275 8.08075 4.95
    endloop
  endfacet
  facet normal 0 0 1
    outer loop
      vertex -5.96417 7.28761 4.95
      vertex -16.525 16.525 4.95
      vertex -16.525 -16.525 4.95
    endloop
  endfacet
  facet normal 0 0 1
    outer loop
      vertex -3.24375 -10.2252 4.95
      vertex -16.525 -16.525 4.95
      vertex -3.20113 -10.6307 4.95
    endloop
  endfacet
  facet normal 0 0 1
    outer loop
      vertex -1.49758 -12.1646 4.95
      vertex -16.525 -16.525 4.95
      vertex 16.525 -16.525 4.95
    endloop
  endfacet
  facet normal 0 0 1
    outer loop
      vertex -2.26875 -11.914 4.95
      vertex -16.525 -16.525 4.95
      vertex -1.89633 -12.0798 4.95
    endloop
  endfacet
  facet normal 0 0 1
    outer loop
      vertex -2.59855 -11.6744 4.95
      vertex -16.525 -16.525 4.95
      vertex -2.26875 -11.914 4.95
    endloop
  endfacet
  facet normal 0 0 1
    outer loop
      vertex -2.87133 -11.3714 4.95
      vertex -16.525 -16.525 4.95
      vertex -2.59855 -11.6744 4.95
    endloop
  endfacet
  facet normal 0 0 1
    outer loop
      vertex -3.07516 -11.0184 4.95
      vertex -16.525 -16.525 4.95
      vertex -2.87133 -11.3714 4.95
    endloop
  endfacet
  facet normal 0 0 1
    outer loop
      vertex -3.20113 -10.6307 4.95
      vertex -16.525 -16.525 4.95
      vertex -3.07516 -11.0184 4.95
    endloop
  endfacet
endsolid OpenSCAD_Model
