solid OpenSCAD_Model
  facet normal 0 -1 0
    outer loop
      vertex -16.8136 -19.4836 0
      vertex 16.8136 -19.4836 8.01
      vertex -16.8136 -19.4836 8.01
    endloop
  endfacet
  facet normal 0 -1 -0
    outer loop
      vertex 16.8136 -19.4836 8.01
      vertex -16.8136 -19.4836 0
      vertex 16.8136 -19.4836 0
    endloop
  endfacet
  facet normal 1 -0 0
    outer loop
      vertex 19.5 -16.5 8.01
      vertex 19.5 16.5 0
      vertex 19.5 16.5 8.01
    endloop
  endfacet
  facet normal 1 0 0
    outer loop
      vertex 19.5 16.5 0
      vertex 19.5 -16.5 8.01
      vertex 19.5 -16.5 0
    endloop
  endfacet
  facet normal -0.207914 -0.978147 0
    outer loop
      vertex -17.4271 -19.3532 0
      vertex -16.8136 -19.4836 8.01
      vertex -17.4271 -19.3532 8.01
    endloop
  endfacet
  facet normal -0.207914 -0.978147 -0
    outer loop
      vertex -16.8136 -19.4836 8.01
      vertex -17.4271 -19.3532 0
      vertex -16.8136 -19.4836 0
    endloop
  endfacet
  facet normal 0.207914 0.978147 -0
    outer loop
      vertex 17.4271 19.3532 0
      vertex 16.8136 19.4836 8.01
      vertex 17.4271 19.3532 8.01
    endloop
  endfacet
  facet normal 0.207914 0.978147 0
    outer loop
      vertex 16.8136 19.4836 8.01
      vertex 17.4271 19.3532 0
      vertex 16.8136 19.4836 0
    endloop
  endfacet
  facet normal 0.866027 0.499997 0
    outer loop
      vertex 19.2406 17.7202 8.01
      vertex 18.9271 18.2634 0
      vertex 18.9271 18.2634 8.01
    endloop
  endfacet
  facet normal 0.866027 0.499997 0
    outer loop
      vertex 18.9271 18.2634 0
      vertex 19.2406 17.7202 8.01
      vertex 19.2406 17.7202 0
    endloop
  endfacet
  facet normal 0.994522 0.104529 0
    outer loop
      vertex 19.5 16.5 8.01
      vertex 19.4344 17.1237 0
      vertex 19.4344 17.1237 8.01
    endloop
  endfacet
  facet normal 0.994522 0.104529 0
    outer loop
      vertex 19.4344 17.1237 0
      vertex 19.5 16.5 8.01
      vertex 19.5 16.5 0
    endloop
  endfacet
  facet normal -0.866027 0.499997 0
    outer loop
      vertex -19.2406 17.7202 0
      vertex -18.9271 18.2634 8.01
      vertex -18.9271 18.2634 0
    endloop
  endfacet
  facet normal -0.866027 0.499997 0
    outer loop
      vertex -18.9271 18.2634 8.01
      vertex -19.2406 17.7202 0
      vertex -19.2406 17.7202 8.01
    endloop
  endfacet
  facet normal 0.951056 -0.309018 0
    outer loop
      vertex 19.2406 -17.7202 8.01
      vertex 19.4344 -17.1237 0
      vertex 19.4344 -17.1237 8.01
    endloop
  endfacet
  facet normal 0.951056 -0.309018 0
    outer loop
      vertex 19.4344 -17.1237 0
      vertex 19.2406 -17.7202 8.01
      vertex 19.2406 -17.7202 0
    endloop
  endfacet
  facet normal 0.994522 -0.104529 0
    outer loop
      vertex 19.4344 -17.1237 8.01
      vertex 19.5 -16.5 0
      vertex 19.5 -16.5 8.01
    endloop
  endfacet
  facet normal 0.994522 -0.104529 0
    outer loop
      vertex 19.5 -16.5 0
      vertex 19.4344 -17.1237 8.01
      vertex 19.4344 -17.1237 0
    endloop
  endfacet
  facet normal 0.587785 -0.809017 0
    outer loop
      vertex 18 -19.0981 0
      vertex 18.5074 -18.7294 8.01
      vertex 18 -19.0981 8.01
    endloop
  endfacet
  facet normal 0.587785 -0.809017 0
    outer loop
      vertex 18.5074 -18.7294 8.01
      vertex 18 -19.0981 0
      vertex 18.5074 -18.7294 0
    endloop
  endfacet
  facet normal -0.406736 -0.913546 0
    outer loop
      vertex -18 -19.0981 0
      vertex -17.4271 -19.3532 8.01
      vertex -18 -19.0981 8.01
    endloop
  endfacet
  facet normal -0.406736 -0.913546 -0
    outer loop
      vertex -17.4271 -19.3532 8.01
      vertex -18 -19.0981 0
      vertex -17.4271 -19.3532 0
    endloop
  endfacet
  facet normal 0 1 -0
    outer loop
      vertex 16.8136 19.4836 0
      vertex -16.8136 19.4836 8.01
      vertex 16.8136 19.4836 8.01
    endloop
  endfacet
  facet normal 0 1 0
    outer loop
      vertex -16.8136 19.4836 8.01
      vertex 16.8136 19.4836 0
      vertex -16.8136 19.4836 0
    endloop
  endfacet
  facet normal 0.951056 0.309018 0
    outer loop
      vertex 19.4344 17.1237 8.01
      vertex 19.2406 17.7202 0
      vertex 19.2406 17.7202 8.01
    endloop
  endfacet
  facet normal 0.951056 0.309018 0
    outer loop
      vertex 19.2406 17.7202 0
      vertex 19.4344 17.1237 8.01
      vertex 19.4344 17.1237 0
    endloop
  endfacet
  facet normal 0.587785 0.809017 -0
    outer loop
      vertex 18.5074 18.7294 0
      vertex 18 19.0981 8.01
      vertex 18.5074 18.7294 8.01
    endloop
  endfacet
  facet normal 0.587785 0.809017 0
    outer loop
      vertex 18 19.0981 8.01
      vertex 18.5074 18.7294 0
      vertex 18 19.0981 0
    endloop
  endfacet
  facet normal 0.406736 0.913546 -0
    outer loop
      vertex 18 19.0981 0
      vertex 17.4271 19.3532 8.01
      vertex 18 19.0981 8.01
    endloop
  endfacet
  facet normal 0.406736 0.913546 0
    outer loop
      vertex 17.4271 19.3532 8.01
      vertex 18 19.0981 0
      vertex 17.4271 19.3532 0
    endloop
  endfacet
  facet normal 0.743144 0.669131 0
    outer loop
      vertex 18.9271 18.2634 8.01
      vertex 18.5074 18.7294 0
      vertex 18.5074 18.7294 8.01
    endloop
  endfacet
  facet normal 0.743144 0.669131 0
    outer loop
      vertex 18.5074 18.7294 0
      vertex 18.9271 18.2634 8.01
      vertex 18.9271 18.2634 0
    endloop
  endfacet
  facet normal -1 0 0
    outer loop
      vertex -19.5 -16.5 0
      vertex -19.5 16.5 8.01
      vertex -19.5 16.5 0
    endloop
  endfacet
  facet normal -1 -0 0
    outer loop
      vertex -19.5 16.5 8.01
      vertex -19.5 -16.5 0
      vertex -19.5 -16.5 8.01
    endloop
  endfacet
  facet normal 0.866027 -0.499997 0
    outer loop
      vertex 18.9271 -18.2634 8.01
      vertex 19.2406 -17.7202 0
      vertex 19.2406 -17.7202 8.01
    endloop
  endfacet
  facet normal 0.866027 -0.499997 0
    outer loop
      vertex 19.2406 -17.7202 0
      vertex 18.9271 -18.2634 8.01
      vertex 18.9271 -18.2634 0
    endloop
  endfacet
  facet normal 0.743144 -0.669131 0
    outer loop
      vertex 18.5074 -18.7294 8.01
      vertex 18.9271 -18.2634 0
      vertex 18.9271 -18.2634 8.01
    endloop
  endfacet
  facet normal 0.743144 -0.669131 0
    outer loop
      vertex 18.9271 -18.2634 0
      vertex 18.5074 -18.7294 8.01
      vertex 18.5074 -18.7294 0
    endloop
  endfacet
  facet normal -0.743144 0.669131 0
    outer loop
      vertex -18.9271 18.2634 0
      vertex -18.5074 18.7294 8.01
      vertex -18.5074 18.7294 0
    endloop
  endfacet
  facet normal -0.743144 0.669131 0
    outer loop
      vertex -18.5074 18.7294 8.01
      vertex -18.9271 18.2634 0
      vertex -18.9271 18.2634 8.01
    endloop
  endfacet
  facet normal -0.743144 -0.669131 0
    outer loop
      vertex -18.5074 -18.7294 0
      vertex -18.9271 -18.2634 8.01
      vertex -18.9271 -18.2634 0
    endloop
  endfacet
  facet normal -0.743144 -0.669131 0
    outer loop
      vertex -18.9271 -18.2634 8.01
      vertex -18.5074 -18.7294 0
      vertex -18.5074 -18.7294 8.01
    endloop
  endfacet
  facet normal 0 0 -1
    outer loop
      vertex 16.8136 -19.4836 0
      vertex 19.5 -16.5 0
      vertex 19.4344 -17.1237 0
    endloop
  endfacet
  facet normal 0 0 -1
    outer loop
      vertex -19.5 -16.5 0
      vertex 19.5 -16.5 0
      vertex 16.8136 -19.4836 0
    endloop
  endfacet
  facet normal 0 0 -1
    outer loop
      vertex 16.8136 -19.4836 0
      vertex 19.4344 -17.1237 0
      vertex 19.2406 -17.7202 0
    endloop
  endfacet
  facet normal 0 0 -1
    outer loop
      vertex 19.5 -16.5 0
      vertex -19.5 -16.5 0
      vertex 19.5 16.5 0
    endloop
  endfacet
  facet normal 0 0 -1
    outer loop
      vertex 16.8136 -19.4836 0
      vertex 19.2406 -17.7202 0
      vertex 18.9271 -18.2634 0
    endloop
  endfacet
  facet normal 0 0 -1
    outer loop
      vertex 19.5 16.5 0
      vertex 16.8136 19.4836 0
      vertex 19.4344 17.1237 0
    endloop
  endfacet
  facet normal 0 0 -1
    outer loop
      vertex 16.8136 -19.4836 0
      vertex 18.9271 -18.2634 0
      vertex 18.5074 -18.7294 0
    endloop
  endfacet
  facet normal 0 0 -1
    outer loop
      vertex 19.4344 17.1237 0
      vertex 16.8136 19.4836 0
      vertex 19.2406 17.7202 0
    endloop
  endfacet
  facet normal 0 0 -1
    outer loop
      vertex 16.8136 -19.4836 0
      vertex 18.5074 -18.7294 0
      vertex 18 -19.0981 0
    endloop
  endfacet
  facet normal 0 0 -1
    outer loop
      vertex 19.2406 17.7202 0
      vertex 16.8136 19.4836 0
      vertex 18.9271 18.2634 0
    endloop
  endfacet
  facet normal 0 0 -1
    outer loop
      vertex 16.8136 -19.4836 0
      vertex 18 -19.0981 0
      vertex 17.4271 -19.3532 0
    endloop
  endfacet
  facet normal 0 0 -1
    outer loop
      vertex 18.9271 18.2634 0
      vertex 16.8136 19.4836 0
      vertex 18.5074 18.7294 0
    endloop
  endfacet
  facet normal 0 0 -1
    outer loop
      vertex 18.5074 18.7294 0
      vertex 16.8136 19.4836 0
      vertex 18 19.0981 0
    endloop
  endfacet
  facet normal 0 0 -1
    outer loop
      vertex 18 19.0981 0
      vertex 16.8136 19.4836 0
      vertex 17.4271 19.3532 0
    endloop
  endfacet
  facet normal 0 0 -1
    outer loop
      vertex -19.5 -16.5 0
      vertex 16.8136 -19.4836 0
      vertex -16.8136 -19.4836 0
    endloop
  endfacet
  facet normal 0 0 -1
    outer loop
      vertex -19.5 16.5 0
      vertex 19.5 16.5 0
      vertex -19.5 -16.5 0
    endloop
  endfacet
  facet normal 0 0 -1
    outer loop
      vertex -19.5 -16.5 0
      vertex -16.8136 -19.4836 0
      vertex -17.4271 -19.3532 0
    endloop
  endfacet
  facet normal 0 0 -1
    outer loop
      vertex 19.5 16.5 0
      vertex -19.5 16.5 0
      vertex 16.8136 19.4836 0
    endloop
  endfacet
  facet normal 0 0 -1
    outer loop
      vertex -19.5 -16.5 0
      vertex -17.4271 -19.3532 0
      vertex -18 -19.0981 0
    endloop
  endfacet
  facet normal -0 0 -1
    outer loop
      vertex 16.8136 19.4836 0
      vertex -19.5 16.5 0
      vertex -16.8136 19.4836 0
    endloop
  endfacet
  facet normal 0 0 -1
    outer loop
      vertex -19.5 -16.5 0
      vertex -18 -19.0981 0
      vertex -18.5074 -18.7294 0
    endloop
  endfacet
  facet normal 0 0 -1
    outer loop
      vertex -16.8136 19.4836 0
      vertex -19.5 16.5 0
      vertex -17.4271 19.3532 0
    endloop
  endfacet
  facet normal 0 0 -1
    outer loop
      vertex -19.5 -16.5 0
      vertex -18.5074 -18.7294 0
      vertex -18.9271 -18.2634 0
    endloop
  endfacet
  facet normal 0 0 -1
    outer loop
      vertex -17.4271 19.3532 0
      vertex -19.5 16.5 0
      vertex -18 19.0981 0
    endloop
  endfacet
  facet normal 0 0 -1
    outer loop
      vertex -19.5 -16.5 0
      vertex -18.9271 -18.2634 0
      vertex -19.2406 -17.7202 0
    endloop
  endfacet
  facet normal 0 0 -1
    outer loop
      vertex -18 19.0981 0
      vertex -19.5 16.5 0
      vertex -18.5074 18.7294 0
    endloop
  endfacet
  facet normal 0 0 -1
    outer loop
      vertex -19.5 -16.5 0
      vertex -19.2406 -17.7202 0
      vertex -19.4344 -17.1237 0
    endloop
  endfacet
  facet normal 0 0 -1
    outer loop
      vertex -18.5074 18.7294 0
      vertex -19.5 16.5 0
      vertex -18.9271 18.2634 0
    endloop
  endfacet
  facet normal 0 0 -1
    outer loop
      vertex -18.9271 18.2634 0
      vertex -19.5 16.5 0
      vertex -19.2406 17.7202 0
    endloop
  endfacet
  facet normal 0 0 -1
    outer loop
      vertex -19.2406 17.7202 0
      vertex -19.5 16.5 0
      vertex -19.4344 17.1237 0
    endloop
  endfacet
  facet normal -0.994522 0.104529 0
    outer loop
      vertex -19.5 16.5 0
      vertex -19.4344 17.1237 8.01
      vertex -19.4344 17.1237 0
    endloop
  endfacet
  facet normal -0.994522 0.104529 0
    outer loop
      vertex -19.4344 17.1237 8.01
      vertex -19.5 16.5 0
      vertex -19.5 16.5 8.01
    endloop
  endfacet
  facet normal 0 0 1
    outer loop
      vertex 16.2135 15.8817 8.01
      vertex 19.5 16.5 8.01
      vertex 19.4344 17.1237 8.01
    endloop
  endfacet
  facet normal 0 0 1
    outer loop
      vertex 19.5 16.5 8.01
      vertex 16.5 15 8.01
      vertex 19.5 -16.5 8.01
    endloop
  endfacet
  facet normal 0 0 1
    outer loop
      vertex 16.2135 15.8817 8.01
      vertex 19.4344 17.1237 8.01
      vertex 19.2406 17.7202 8.01
    endloop
  endfacet
  facet normal -0 0 1
    outer loop
      vertex 16.5 -15 8.01
      vertex 19.5 -16.5 8.01
      vertex 16.5 15 8.01
    endloop
  endfacet
  facet normal 0 0 1
    outer loop
      vertex 16.2135 15.8817 8.01
      vertex 19.2406 17.7202 8.01
      vertex 18.9271 18.2634 8.01
    endloop
  endfacet
  facet normal -0 0 1
    outer loop
      vertex 16.4672 -15.3119 8.01
      vertex 19.5 -16.5 8.01
      vertex 16.5 -15 8.01
    endloop
  endfacet
  facet normal 0 0 1
    outer loop
      vertex 16.0037 16.1147 8.01
      vertex 18.9271 18.2634 8.01
      vertex 18.5074 18.7294 8.01
    endloop
  endfacet
  facet normal -0 0 1
    outer loop
      vertex 16.3703 -15.6101 8.01
      vertex 19.5 -16.5 8.01
      vertex 16.4672 -15.3119 8.01
    endloop
  endfacet
  facet normal 0 0 1
    outer loop
      vertex 16.0037 16.1147 8.01
      vertex 18.5074 18.7294 8.01
      vertex 18 19.0981 8.01
    endloop
  endfacet
  facet normal -0 0 1
    outer loop
      vertex 16.2135 -15.8817 8.01
      vertex 19.5 -16.5 8.01
      vertex 16.3703 -15.6101 8.01
    endloop
  endfacet
  facet normal 0 0 1
    outer loop
      vertex 16.0037 16.1147 8.01
      vertex 18 19.0981 8.01
      vertex 17.4271 19.3532 8.01
    endloop
  endfacet
  facet normal 0 0 1
    outer loop
      vertex 19.5 -16.5 8.01
      vertex 16.2135 -15.8817 8.01
      vertex 19.4344 -17.1237 8.01
    endloop
  endfacet
  facet normal 0 0 1
    outer loop
      vertex 15.75 16.299 8.01
      vertex 17.4271 19.3532 8.01
      vertex 16.8136 19.4836 8.01
    endloop
  endfacet
  facet normal 0 0 1
    outer loop
      vertex 19.4344 -17.1237 8.01
      vertex 16.2135 -15.8817 8.01
      vertex 19.2406 -17.7202 8.01
    endloop
  endfacet
  facet normal 0 0 1
    outer loop
      vertex 19.2406 -17.7202 8.01
      vertex 16.2135 -15.8817 8.01
      vertex 18.9271 -18.2634 8.01
    endloop
  endfacet
  facet normal 0 0 1
    outer loop
      vertex 19.5 16.5 8.01
      vertex 16.4672 15.3119 8.01
      vertex 16.5 15 8.01
    endloop
  endfacet
  facet normal 0 0 1
    outer loop
      vertex 19.5 16.5 8.01
      vertex 16.3703 15.6101 8.01
      vertex 16.4672 15.3119 8.01
    endloop
  endfacet
  facet normal 0 0 1
    outer loop
      vertex 19.5 16.5 8.01
      vertex 16.2135 15.8817 8.01
      vertex 16.3703 15.6101 8.01
    endloop
  endfacet
  facet normal 0 0 1
    outer loop
      vertex 18.9271 18.2634 8.01
      vertex 16.0037 16.1147 8.01
      vertex 16.2135 15.8817 8.01
    endloop
  endfacet
  facet normal 0 0 1
    outer loop
      vertex 17.4271 19.3532 8.01
      vertex 15.75 16.299 8.01
      vertex 16.0037 16.1147 8.01
    endloop
  endfacet
  facet normal 0 0 1
    outer loop
      vertex 16.8136 19.4836 8.01
      vertex 15.4635 16.4266 8.01
      vertex 15.75 16.299 8.01
    endloop
  endfacet
  facet normal 0 0 1
    outer loop
      vertex 16.8136 19.4836 8.01
      vertex 15.1568 16.4918 8.01
      vertex 15.4635 16.4266 8.01
    endloop
  endfacet
  facet normal 0 0 1
    outer loop
      vertex 16.8136 19.4836 8.01
      vertex -15.1568 16.4918 8.01
      vertex 15.1568 16.4918 8.01
    endloop
  endfacet
  facet normal 0 0 1
    outer loop
      vertex -16.0037 16.1147 8.01
      vertex -18.9271 18.2634 8.01
      vertex -16.2135 15.8817 8.01
    endloop
  endfacet
  facet normal -0 0 1
    outer loop
      vertex -18.9271 18.2634 8.01
      vertex -16.0037 16.1147 8.01
      vertex -18.5074 18.7294 8.01
    endloop
  endfacet
  facet normal -0 0 1
    outer loop
      vertex -18.5074 18.7294 8.01
      vertex -16.0037 16.1147 8.01
      vertex -18 19.0981 8.01
    endloop
  endfacet
  facet normal -0 0 1
    outer loop
      vertex -18 19.0981 8.01
      vertex -16.0037 16.1147 8.01
      vertex -17.4271 19.3532 8.01
    endloop
  endfacet
  facet normal 0 0 1
    outer loop
      vertex -15.75 16.299 8.01
      vertex -17.4271 19.3532 8.01
      vertex -16.0037 16.1147 8.01
    endloop
  endfacet
  facet normal -0 0 1
    outer loop
      vertex -17.4271 19.3532 8.01
      vertex -15.75 16.299 8.01
      vertex -16.8136 19.4836 8.01
    endloop
  endfacet
  facet normal 0 0 1
    outer loop
      vertex -15.4635 16.4266 8.01
      vertex -16.8136 19.4836 8.01
      vertex -15.75 16.299 8.01
    endloop
  endfacet
  facet normal 0 0 1
    outer loop
      vertex -15.1568 16.4918 8.01
      vertex -16.8136 19.4836 8.01
      vertex -15.4635 16.4266 8.01
    endloop
  endfacet
  facet normal -0 0 1
    outer loop
      vertex -16.8136 19.4836 8.01
      vertex -15.1568 16.4918 8.01
      vertex 16.8136 19.4836 8.01
    endloop
  endfacet
  facet normal -0 0 1
    outer loop
      vertex 16.0037 -16.1147 8.01
      vertex 18.9271 -18.2634 8.01
      vertex 16.2135 -15.8817 8.01
    endloop
  endfacet
  facet normal 0 0 1
    outer loop
      vertex 18.9271 -18.2634 8.01
      vertex 16.0037 -16.1147 8.01
      vertex 18.5074 -18.7294 8.01
    endloop
  endfacet
  facet normal 0 0 1
    outer loop
      vertex 18.5074 -18.7294 8.01
      vertex 16.0037 -16.1147 8.01
      vertex 18 -19.0981 8.01
    endloop
  endfacet
  facet normal 0 0 1
    outer loop
      vertex 18 -19.0981 8.01
      vertex 16.0037 -16.1147 8.01
      vertex 17.4271 -19.3532 8.01
    endloop
  endfacet
  facet normal -0 0 1
    outer loop
      vertex 15.75 -16.299 8.01
      vertex 17.4271 -19.3532 8.01
      vertex 16.0037 -16.1147 8.01
    endloop
  endfacet
  facet normal 0 0 1
    outer loop
      vertex 17.4271 -19.3532 8.01
      vertex 15.75 -16.299 8.01
      vertex 16.8136 -19.4836 8.01
    endloop
  endfacet
  facet normal -0 0 1
    outer loop
      vertex 15.4635 -16.4266 8.01
      vertex 16.8136 -19.4836 8.01
      vertex 15.75 -16.299 8.01
    endloop
  endfacet
  facet normal -0 0 1
    outer loop
      vertex 15.1568 -16.4918 8.01
      vertex 16.8136 -19.4836 8.01
      vertex 15.4635 -16.4266 8.01
    endloop
  endfacet
  facet normal -0 0 1
    outer loop
      vertex -15.1568 -16.4918 8.01
      vertex 16.8136 -19.4836 8.01
      vertex 15.1568 -16.4918 8.01
    endloop
  endfacet
  facet normal 0 0 1
    outer loop
      vertex -15.1568 -16.4918 8.01
      vertex -16.8136 -19.4836 8.01
      vertex 16.8136 -19.4836 8.01
    endloop
  endfacet
  facet normal 0 0 1
    outer loop
      vertex -15.4635 -16.4266 8.01
      vertex -16.8136 -19.4836 8.01
      vertex -15.1568 -16.4918 8.01
    endloop
  endfacet
  facet normal 0 0 1
    outer loop
      vertex -15.75 -16.299 8.01
      vertex -16.8136 -19.4836 8.01
      vertex -15.4635 -16.4266 8.01
    endloop
  endfacet
  facet normal 0 0 1
    outer loop
      vertex -17.4271 -19.3532 8.01
      vertex -15.75 -16.299 8.01
      vertex -16.0037 -16.1147 8.01
    endloop
  endfacet
  facet normal 0 0 1
    outer loop
      vertex -18.9271 -18.2634 8.01
      vertex -16.0037 -16.1147 8.01
      vertex -16.2135 -15.8817 8.01
    endloop
  endfacet
  facet normal 0 0 1
    outer loop
      vertex -19.5 -16.5 8.01
      vertex -16.2135 -15.8817 8.01
      vertex -16.3703 -15.6101 8.01
    endloop
  endfacet
  facet normal 0 0 1
    outer loop
      vertex -19.5 -16.5 8.01
      vertex -16.3703 -15.6101 8.01
      vertex -16.4672 -15.3119 8.01
    endloop
  endfacet
  facet normal 0 0 1
    outer loop
      vertex -19.5 -16.5 8.01
      vertex -16.4672 -15.3119 8.01
      vertex -16.5 -15 8.01
    endloop
  endfacet
  facet normal 0 0 1
    outer loop
      vertex -16.5 15 8.01
      vertex -19.5 16.5 8.01
      vertex -16.5 -15 8.01
    endloop
  endfacet
  facet normal -0 0 1
    outer loop
      vertex -19.2406 17.7202 8.01
      vertex -16.2135 15.8817 8.01
      vertex -18.9271 18.2634 8.01
    endloop
  endfacet
  facet normal 0 0 1
    outer loop
      vertex -19.5 -16.5 8.01
      vertex -16.5 -15 8.01
      vertex -19.5 16.5 8.01
    endloop
  endfacet
  facet normal -0 0 1
    outer loop
      vertex -19.4344 17.1237 8.01
      vertex -16.2135 15.8817 8.01
      vertex -19.2406 17.7202 8.01
    endloop
  endfacet
  facet normal 0 0 1
    outer loop
      vertex -16.2135 -15.8817 8.01
      vertex -19.5 -16.5 8.01
      vertex -19.4344 -17.1237 8.01
    endloop
  endfacet
  facet normal -0 0 1
    outer loop
      vertex -19.5 16.5 8.01
      vertex -16.2135 15.8817 8.01
      vertex -19.4344 17.1237 8.01
    endloop
  endfacet
  facet normal 0 0 1
    outer loop
      vertex -15.75 -16.299 8.01
      vertex -17.4271 -19.3532 8.01
      vertex -16.8136 -19.4836 8.01
    endloop
  endfacet
  facet normal 0 0 1
    outer loop
      vertex -16.2135 15.8817 8.01
      vertex -19.5 16.5 8.01
      vertex -16.3703 15.6101 8.01
    endloop
  endfacet
  facet normal 0 0 1
    outer loop
      vertex -16.0037 -16.1147 8.01
      vertex -18 -19.0981 8.01
      vertex -17.4271 -19.3532 8.01
    endloop
  endfacet
  facet normal 0 0 1
    outer loop
      vertex -16.3703 15.6101 8.01
      vertex -19.5 16.5 8.01
      vertex -16.4672 15.3119 8.01
    endloop
  endfacet
  facet normal 0 0 1
    outer loop
      vertex -16.0037 -16.1147 8.01
      vertex -18.5074 -18.7294 8.01
      vertex -18 -19.0981 8.01
    endloop
  endfacet
  facet normal 0 0 1
    outer loop
      vertex -16.4672 15.3119 8.01
      vertex -19.5 16.5 8.01
      vertex -16.5 15 8.01
    endloop
  endfacet
  facet normal 0 0 1
    outer loop
      vertex -16.0037 -16.1147 8.01
      vertex -18.9271 -18.2634 8.01
      vertex -18.5074 -18.7294 8.01
    endloop
  endfacet
  facet normal 0 0 1
    outer loop
      vertex -16.2135 -15.8817 8.01
      vertex -19.2406 -17.7202 8.01
      vertex -18.9271 -18.2634 8.01
    endloop
  endfacet
  facet normal 0 0 1
    outer loop
      vertex -16.2135 -15.8817 8.01
      vertex -19.4344 -17.1237 8.01
      vertex -19.2406 -17.7202 8.01
    endloop
  endfacet
  facet normal 0.406736 -0.913546 0
    outer loop
      vertex 17.4271 -19.3532 0
      vertex 18 -19.0981 8.01
      vertex 17.4271 -19.3532 8.01
    endloop
  endfacet
  facet normal 0.406736 -0.913546 0
    outer loop
      vertex 18 -19.0981 8.01
      vertex 17.4271 -19.3532 0
      vertex 18 -19.0981 0
    endloop
  endfacet
  facet normal 0.207914 -0.978147 0
    outer loop
      vertex 16.8136 -19.4836 0
      vertex 17.4271 -19.3532 8.01
      vertex 16.8136 -19.4836 8.01
    endloop
  endfacet
  facet normal 0.207914 -0.978147 0
    outer loop
      vertex 17.4271 -19.3532 8.01
      vertex 16.8136 -19.4836 0
      vertex 17.4271 -19.3532 0
    endloop
  endfacet
  facet normal -0.406736 0.913546 0
    outer loop
      vertex -17.4271 19.3532 0
      vertex -18 19.0981 8.01
      vertex -17.4271 19.3532 8.01
    endloop
  endfacet
  facet normal -0.406736 0.913546 0
    outer loop
      vertex -18 19.0981 8.01
      vertex -17.4271 19.3532 0
      vertex -18 19.0981 0
    endloop
  endfacet
  facet normal -0.207914 0.978147 0
    outer loop
      vertex -16.8136 19.4836 0
      vertex -17.4271 19.3532 8.01
      vertex -16.8136 19.4836 8.01
    endloop
  endfacet
  facet normal -0.207914 0.978147 0
    outer loop
      vertex -17.4271 19.3532 8.01
      vertex -16.8136 19.4836 0
      vertex -17.4271 19.3532 0
    endloop
  endfacet
  facet normal -0.587785 0.809017 0
    outer loop
      vertex -18 19.0981 0
      vertex -18.5074 18.7294 8.01
      vertex -18 19.0981 8.01
    endloop
  endfacet
  facet normal -0.587785 0.809017 0
    outer loop
      vertex -18.5074 18.7294 8.01
      vertex -18 19.0981 0
      vertex -18.5074 18.7294 0
    endloop
  endfacet
  facet normal -0.587785 -0.809017 0
    outer loop
      vertex -18.5074 -18.7294 0
      vertex -18 -19.0981 8.01
      vertex -18.5074 -18.7294 8.01
    endloop
  endfacet
  facet normal -0.587785 -0.809017 -0
    outer loop
      vertex -18 -19.0981 8.01
      vertex -18.5074 -18.7294 0
      vertex -18 -19.0981 0
    endloop
  endfacet
  facet normal -0.994522 -0.104529 0
    outer loop
      vertex -19.4344 -17.1237 0
      vertex -19.5 -16.5 8.01
      vertex -19.5 -16.5 0
    endloop
  endfacet
  facet normal -0.994522 -0.104529 0
    outer loop
      vertex -19.5 -16.5 8.01
      vertex -19.4344 -17.1237 0
      vertex -19.4344 -17.1237 8.01
    endloop
  endfacet
  facet normal -0.951056 0.309018 0
    outer loop
      vertex -19.4344 17.1237 0
      vertex -19.2406 17.7202 8.01
      vertex -19.2406 17.7202 0
    endloop
  endfacet
  facet normal -0.951056 0.309018 0
    outer loop
      vertex -19.2406 17.7202 8.01
      vertex -19.4344 17.1237 0
      vertex -19.4344 17.1237 8.01
    endloop
  endfacet
  facet normal -0.951056 -0.309018 0
    outer loop
      vertex -19.2406 -17.7202 0
      vertex -19.4344 -17.1237 8.01
      vertex -19.4344 -17.1237 0
    endloop
  endfacet
  facet normal -0.951056 -0.309018 0
    outer loop
      vertex -19.4344 -17.1237 8.01
      vertex -19.2406 -17.7202 0
      vertex -19.2406 -17.7202 8.01
    endloop
  endfacet
  facet normal -0.866027 -0.499997 0
    outer loop
      vertex -18.9271 -18.2634 0
      vertex -19.2406 -17.7202 8.01
      vertex -19.2406 -17.7202 0
    endloop
  endfacet
  facet normal -0.866027 -0.499997 0
    outer loop
      vertex -19.2406 -17.7202 8.01
      vertex -18.9271 -18.2634 0
      vertex -18.9271 -18.2634 8.01
    endloop
  endfacet
  facet normal -0.994522 -0.104532 0
    outer loop
      vertex 16.5 15 4.95
      vertex 16.4672 15.3119 8.01
      vertex 16.4672 15.3119 4.95
    endloop
  endfacet
  facet normal -0.994522 -0.104532 0
    outer loop
      vertex 16.4672 15.3119 8.01
      vertex 16.5 15 4.95
      vertex 16.5 15 8.01
    endloop
  endfacet
  facet normal 0 1 -0
    outer loop
      vertex 15.1568 -16.4918 4.95
      vertex -15.1568 -16.4918 8.01
      vertex 15.1568 -16.4918 8.01
    endloop
  endfacet
  facet normal 0 1 0
    outer loop
      vertex -15.1568 -16.4918 8.01
      vertex 15.1568 -16.4918 4.95
      vertex -15.1568 -16.4918 4.95
    endloop
  endfacet
  facet normal -0.207915 -0.978147 0
    outer loop
      vertex 15.1568 16.4918 4.95
      vertex 15.4635 16.4266 8.01
      vertex 15.1568 16.4918 8.01
    endloop
  endfacet
  facet normal -0.207915 -0.978147 -0
    outer loop
      vertex 15.4635 16.4266 8.01
      vertex 15.1568 16.4918 4.95
      vertex 15.4635 16.4266 4.95
    endloop
  endfacet
  facet normal -1 0 0
    outer loop
      vertex 16.5 -15 4.95
      vertex 16.5 15 8.01
      vertex 16.5 15 4.95
    endloop
  endfacet
  facet normal -1 -0 0
    outer loop
      vertex 16.5 15 8.01
      vertex 16.5 -15 4.95
      vertex 16.5 -15 8.01
    endloop
  endfacet
  facet normal 0 -1 0
    outer loop
      vertex -15.1568 16.4918 4.95
      vertex 15.1568 16.4918 8.01
      vertex -15.1568 16.4918 8.01
    endloop
  endfacet
  facet normal 0 -1 -0
    outer loop
      vertex 15.1568 16.4918 8.01
      vertex -15.1568 16.4918 4.95
      vertex 15.1568 16.4918 4.95
    endloop
  endfacet
  facet normal -0.743146 -0.669129 0
    outer loop
      vertex 16.2135 15.8817 4.95
      vertex 16.0037 16.1147 8.01
      vertex 16.0037 16.1147 4.95
    endloop
  endfacet
  facet normal -0.743146 -0.669129 0
    outer loop
      vertex 16.0037 16.1147 8.01
      vertex 16.2135 15.8817 4.95
      vertex 16.2135 15.8817 8.01
    endloop
  endfacet
  facet normal -0.587788 0.809015 0
    outer loop
      vertex 16.0037 -16.1147 4.95
      vertex 15.75 -16.299 8.01
      vertex 16.0037 -16.1147 8.01
    endloop
  endfacet
  facet normal -0.587788 0.809015 0
    outer loop
      vertex 15.75 -16.299 8.01
      vertex 16.0037 -16.1147 4.95
      vertex 15.75 -16.299 4.95
    endloop
  endfacet
  facet normal 0.994522 0.104532 0
    outer loop
      vertex -16.4672 -15.3119 8.01
      vertex -16.5 -15 4.95
      vertex -16.5 -15 8.01
    endloop
  endfacet
  facet normal 0.994522 0.104532 0
    outer loop
      vertex -16.5 -15 4.95
      vertex -16.4672 -15.3119 8.01
      vertex -16.4672 -15.3119 4.95
    endloop
  endfacet
  facet normal 0.207915 0.978147 -0
    outer loop
      vertex -15.1568 -16.4918 4.95
      vertex -15.4635 -16.4266 8.01
      vertex -15.1568 -16.4918 8.01
    endloop
  endfacet
  facet normal 0.207915 0.978147 0
    outer loop
      vertex -15.4635 -16.4266 8.01
      vertex -15.1568 -16.4918 4.95
      vertex -15.4635 -16.4266 4.95
    endloop
  endfacet
  facet normal 1 -0 0
    outer loop
      vertex -16.5 -15 8.01
      vertex -16.5 15 4.95
      vertex -16.5 15 8.01
    endloop
  endfacet
  facet normal 1 0 0
    outer loop
      vertex -16.5 15 4.95
      vertex -16.5 -15 8.01
      vertex -16.5 -15 4.95
    endloop
  endfacet
  facet normal 0.587786 -0.809016 0
    outer loop
      vertex -16.0037 16.1147 4.95
      vertex -15.75 16.299 8.01
      vertex -16.0037 16.1147 8.01
    endloop
  endfacet
  facet normal 0.587786 -0.809016 0
    outer loop
      vertex -15.75 16.299 8.01
      vertex -16.0037 16.1147 4.95
      vertex -15.75 16.299 4.95
    endloop
  endfacet
  facet normal -0.406735 -0.913546 0
    outer loop
      vertex 15.4635 16.4266 4.95
      vertex 15.75 16.299 8.01
      vertex 15.4635 16.4266 8.01
    endloop
  endfacet
  facet normal -0.406735 -0.913546 -0
    outer loop
      vertex 15.75 16.299 8.01
      vertex 15.4635 16.4266 4.95
      vertex 15.75 16.299 4.95
    endloop
  endfacet
  facet normal -0.587788 -0.809015 0
    outer loop
      vertex 15.75 16.299 4.95
      vertex 16.0037 16.1147 8.01
      vertex 15.75 16.299 8.01
    endloop
  endfacet
  facet normal -0.587788 -0.809015 -0
    outer loop
      vertex 16.0037 16.1147 8.01
      vertex 15.75 16.299 4.95
      vertex 16.0037 16.1147 4.95
    endloop
  endfacet
  facet normal -0.866024 -0.500002 0
    outer loop
      vertex 16.3703 15.6101 4.95
      vertex 16.2135 15.8817 8.01
      vertex 16.2135 15.8817 4.95
    endloop
  endfacet
  facet normal -0.866024 -0.500002 0
    outer loop
      vertex 16.2135 15.8817 8.01
      vertex 16.3703 15.6101 4.95
      vertex 16.3703 15.6101 8.01
    endloop
  endfacet
  facet normal -0.951057 -0.309016 0
    outer loop
      vertex 16.4672 15.3119 4.95
      vertex 16.3703 15.6101 8.01
      vertex 16.3703 15.6101 4.95
    endloop
  endfacet
  facet normal -0.951057 -0.309016 0
    outer loop
      vertex 16.3703 15.6101 8.01
      vertex 16.4672 15.3119 4.95
      vertex 16.4672 15.3119 8.01
    endloop
  endfacet
  facet normal -0.951057 0.309016 0
    outer loop
      vertex 16.3703 -15.6101 4.95
      vertex 16.4672 -15.3119 8.01
      vertex 16.4672 -15.3119 4.95
    endloop
  endfacet
  facet normal -0.951057 0.309016 0
    outer loop
      vertex 16.4672 -15.3119 8.01
      vertex 16.3703 -15.6101 4.95
      vertex 16.3703 -15.6101 8.01
    endloop
  endfacet
  facet normal -0.207915 0.978147 0
    outer loop
      vertex 15.4635 -16.4266 4.95
      vertex 15.1568 -16.4918 8.01
      vertex 15.4635 -16.4266 8.01
    endloop
  endfacet
  facet normal -0.207915 0.978147 0
    outer loop
      vertex 15.1568 -16.4918 8.01
      vertex 15.4635 -16.4266 4.95
      vertex 15.1568 -16.4918 4.95
    endloop
  endfacet
  facet normal 0.406735 0.913546 -0
    outer loop
      vertex -15.4635 -16.4266 4.95
      vertex -15.75 -16.299 8.01
      vertex -15.4635 -16.4266 8.01
    endloop
  endfacet
  facet normal 0.406735 0.913546 0
    outer loop
      vertex -15.75 -16.299 8.01
      vertex -15.4635 -16.4266 4.95
      vertex -15.75 -16.299 4.95
    endloop
  endfacet
  facet normal 0.994522 -0.104532 0
    outer loop
      vertex -16.5 15 8.01
      vertex -16.4672 15.3119 4.95
      vertex -16.4672 15.3119 8.01
    endloop
  endfacet
  facet normal 0.994522 -0.104532 0
    outer loop
      vertex -16.4672 15.3119 4.95
      vertex -16.5 15 8.01
      vertex -16.5 15 4.95
    endloop
  endfacet
  facet normal 0.207915 -0.978147 0
    outer loop
      vertex -15.4635 16.4266 4.95
      vertex -15.1568 16.4918 8.01
      vertex -15.4635 16.4266 8.01
    endloop
  endfacet
  facet normal 0.207915 -0.978147 0
    outer loop
      vertex -15.1568 16.4918 8.01
      vertex -15.4635 16.4266 4.95
      vertex -15.1568 16.4918 4.95
    endloop
  endfacet
  facet normal 0.406736 -0.913546 0
    outer loop
      vertex -15.75 16.299 4.95
      vertex -15.4635 16.4266 8.01
      vertex -15.75 16.299 8.01
    endloop
  endfacet
  facet normal 0.406736 -0.913546 0
    outer loop
      vertex -15.4635 16.4266 8.01
      vertex -15.75 16.299 4.95
      vertex -15.4635 16.4266 4.95
    endloop
  endfacet
  facet normal -0.406735 0.913546 0
    outer loop
      vertex 15.75 -16.299 4.95
      vertex 15.4635 -16.4266 8.01
      vertex 15.75 -16.299 8.01
    endloop
  endfacet
  facet normal -0.406735 0.913546 0
    outer loop
      vertex 15.4635 -16.4266 8.01
      vertex 15.75 -16.299 4.95
      vertex 15.4635 -16.4266 4.95
    endloop
  endfacet
  facet normal 0.743146 0.669129 0
    outer loop
      vertex -16.0037 -16.1147 8.01
      vertex -16.2135 -15.8817 4.95
      vertex -16.2135 -15.8817 8.01
    endloop
  endfacet
  facet normal 0.743146 0.669129 0
    outer loop
      vertex -16.2135 -15.8817 4.95
      vertex -16.0037 -16.1147 8.01
      vertex -16.0037 -16.1147 4.95
    endloop
  endfacet
  facet normal 0.951057 -0.309016 0
    outer loop
      vertex -16.4672 15.3119 8.01
      vertex -16.3703 15.6101 4.95
      vertex -16.3703 15.6101 8.01
    endloop
  endfacet
  facet normal 0.951057 -0.309016 0
    outer loop
      vertex -16.3703 15.6101 4.95
      vertex -16.4672 15.3119 8.01
      vertex -16.4672 15.3119 4.95
    endloop
  endfacet
  facet normal 0.866024 -0.500002 0
    outer loop
      vertex -16.3703 15.6101 8.01
      vertex -16.2135 15.8817 4.95
      vertex -16.2135 15.8817 8.01
    endloop
  endfacet
  facet normal 0.866024 -0.500002 0
    outer loop
      vertex -16.2135 15.8817 4.95
      vertex -16.3703 15.6101 8.01
      vertex -16.3703 15.6101 4.95
    endloop
  endfacet
  facet normal 0.743146 -0.669129 0
    outer loop
      vertex -16.2135 15.8817 8.01
      vertex -16.0037 16.1147 4.95
      vertex -16.0037 16.1147 8.01
    endloop
  endfacet
  facet normal 0.743146 -0.669129 0
    outer loop
      vertex -16.0037 16.1147 4.95
      vertex -16.2135 15.8817 8.01
      vertex -16.2135 15.8817 4.95
    endloop
  endfacet
  facet normal -0.994522 0.104532 0
    outer loop
      vertex 16.4672 -15.3119 4.95
      vertex 16.5 -15 8.01
      vertex 16.5 -15 4.95
    endloop
  endfacet
  facet normal -0.994522 0.104532 0
    outer loop
      vertex 16.5 -15 8.01
      vertex 16.4672 -15.3119 4.95
      vertex 16.4672 -15.3119 8.01
    endloop
  endfacet
  facet normal -0.866024 0.500002 0
    outer loop
      vertex 16.2135 -15.8817 4.95
      vertex 16.3703 -15.6101 8.01
      vertex 16.3703 -15.6101 4.95
    endloop
  endfacet
  facet normal -0.866024 0.500002 0
    outer loop
      vertex 16.3703 -15.6101 8.01
      vertex 16.2135 -15.8817 4.95
      vertex 16.2135 -15.8817 8.01
    endloop
  endfacet
  facet normal -0.743146 0.669129 0
    outer loop
      vertex 16.0037 -16.1147 4.95
      vertex 16.2135 -15.8817 8.01
      vertex 16.2135 -15.8817 4.95
    endloop
  endfacet
  facet normal -0.743146 0.669129 0
    outer loop
      vertex 16.2135 -15.8817 8.01
      vertex 16.0037 -16.1147 4.95
      vertex 16.0037 -16.1147 8.01
    endloop
  endfacet
  facet normal 0.951057 0.309016 0
    outer loop
      vertex -16.3703 -15.6101 8.01
      vertex -16.4672 -15.3119 4.95
      vertex -16.4672 -15.3119 8.01
    endloop
  endfacet
  facet normal 0.951057 0.309016 0
    outer loop
      vertex -16.4672 -15.3119 4.95
      vertex -16.3703 -15.6101 8.01
      vertex -16.3703 -15.6101 4.95
    endloop
  endfacet
  facet normal 0.866024 0.500002 0
    outer loop
      vertex -16.2135 -15.8817 8.01
      vertex -16.3703 -15.6101 4.95
      vertex -16.3703 -15.6101 8.01
    endloop
  endfacet
  facet normal 0.866024 0.500002 0
    outer loop
      vertex -16.3703 -15.6101 4.95
      vertex -16.2135 -15.8817 8.01
      vertex -16.2135 -15.8817 4.95
    endloop
  endfacet
  facet normal 0.587788 0.809015 -0
    outer loop
      vertex -15.75 -16.299 4.95
      vertex -16.0037 -16.1147 8.01
      vertex -15.75 -16.299 8.01
    endloop
  endfacet
  facet normal 0.587788 0.809015 0
    outer loop
      vertex -16.0037 -16.1147 8.01
      vertex -15.75 -16.299 4.95
      vertex -16.0037 -16.1147 4.95
    endloop
  endfacet
  facet normal 0.707107 -0 0.707107
    outer loop
      vertex -7.97283 -6.53824 4.95
      vertex -6.02283 13.6567 3
      vertex -7.97283 13.6567 4.95
    endloop
  endfacet
  facet normal 0.707107 0 0.707107
    outer loop
      vertex -6.02283 13.6567 3
      vertex -7.97283 -6.53824 4.95
      vertex -6.02283 -6.53824 3
    endloop
  endfacet
  facet normal 0.705162 0.0741162 0.705162
    outer loop
      vertex -7.93021 -6.94367 4.95
      vertex -6.02283 -6.53824 3
      vertex -7.97283 -6.53824 4.95
    endloop
  endfacet
  facet normal 0.416767 0.57363 0.705162
    outer loop
      vertex -6.99783 -8.22699 4.95
      vertex -6.02283 -6.53824 3
      vertex -7.32763 -7.98737 4.95
    endloop
  endfacet
  facet normal -0.288397 0.647745 0.705162
    outer loop
      vertex -2.94824 -8.3928 4.95
      vertex -2.57583 -8.22699 4.95
      vertex -3.55083 -6.53824 3
    endloop
  endfacet
  facet normal -0 0 1
    outer loop
      vertex -6.02283 13.6567 3
      vertex -3.55083 7.07274 3
      vertex -3.55083 13.6567 3
    endloop
  endfacet
  facet normal 0 0 1
    outer loop
      vertex -3.55083 7.07274 3
      vertex -6.02283 13.6567 3
      vertex -3.56126 6.47568 3
    endloop
  endfacet
  facet normal 0 0 1
    outer loop
      vertex -3.56126 6.47568 3
      vertex -6.02283 13.6567 3
      vertex -3.59258 5.87849 3
    endloop
  endfacet
  facet normal 0 0 1
    outer loop
      vertex -3.59258 5.87849 3
      vertex -6.02283 13.6567 3
      vertex -3.64476 5.28117 3
    endloop
  endfacet
  facet normal 0 0 1
    outer loop
      vertex -3.64476 5.28117 3
      vertex -6.02283 13.6567 3
      vertex -3.71782 4.68375 3
    endloop
  endfacet
  facet normal 0 0 1
    outer loop
      vertex 5.83316 2.15674 3
      vertex 3.30997 2.55437 3
      vertex 3.36116 1.68375 3
    endloop
  endfacet
  facet normal 0 0 1
    outer loop
      vertex 4.51416 6.05974 3
      vertex 3.15642 3.30524 3
      vertex 3.30997 2.55437 3
    endloop
  endfacet
  facet normal 0 0 1
    outer loop
      vertex 2.09709 4.8428 3
      vertex 3.79478 6.63681 3
      vertex 2.95566 7.049 3
    endloop
  endfacet
  facet normal 0 0 1
    outer loop
      vertex 4.51416 6.05974 3
      vertex 2.90047 3.93637 3
      vertex 3.15642 3.30524 3
    endloop
  endfacet
  facet normal 0 0 1
    outer loop
      vertex 4.51416 6.05974 3
      vertex 2.54216 4.44774 3
      vertex 2.90047 3.93637 3
    endloop
  endfacet
  facet normal 0 0 1
    outer loop
      vertex 3.79478 6.63681 3
      vertex 2.09709 4.8428 3
      vertex 2.54216 4.44774 3
    endloop
  endfacet
  facet normal 0 0 1
    outer loop
      vertex 1.58092 5.125 3
      vertex 2.95566 7.049 3
      vertex 1.99678 7.29631 3
    endloop
  endfacet
  facet normal 0 0 1
    outer loop
      vertex 2.95566 7.049 3
      vertex 1.58092 5.125 3
      vertex 2.09709 4.8428 3
    endloop
  endfacet
  facet normal 0 0 1
    outer loop
      vertex 1.99678 7.29631 3
      vertex 0.993591 5.29431 3
      vertex 1.58092 5.125 3
    endloop
  endfacet
  facet normal 0 0 1
    outer loop
      vertex 0.918167 7.37874 3
      vertex 0.993591 5.29431 3
      vertex 1.99678 7.29631 3
    endloop
  endfacet
  facet normal 0 0 1
    outer loop
      vertex 0.918167 7.37874 3
      vertex 0.335159 5.35074 3
      vertex 0.993591 5.29431 3
    endloop
  endfacet
  facet normal -0 0 1
    outer loop
      vertex 0.0844727 7.32924 3
      vertex 0.335159 5.35074 3
      vertex 0.918167 7.37874 3
    endloop
  endfacet
  facet normal -0 0 1
    outer loop
      vertex -0.667572 7.18074 3
      vertex 0.335159 5.35074 3
      vertex 0.0844727 7.32924 3
    endloop
  endfacet
  facet normal 0 0 1
    outer loop
      vertex 0.335159 5.35074 3
      vertex -0.667572 7.18074 3
      vertex -0.496765 5.26831 3
    endloop
  endfacet
  facet normal -0 0 1
    outer loop
      vertex -1.33801 6.93324 3
      vertex -0.496765 5.26831 3
      vertex -0.667572 7.18074 3
    endloop
  endfacet
  facet normal 0 0 1
    outer loop
      vertex -0.496765 5.26831 3
      vertex -1.33801 6.93324 3
      vertex -1.24358 5.021 3
    endloop
  endfacet
  facet normal -0 0 1
    outer loop
      vertex -1.92682 6.58675 3
      vertex -1.24358 5.021 3
      vertex -1.33801 6.93324 3
    endloop
  endfacet
  facet normal -0 0 1
    outer loop
      vertex -2.43976 6.17081 3
      vertex -1.24358 5.021 3
      vertex -1.92682 6.58675 3
    endloop
  endfacet
  facet normal 0 0 1
    outer loop
      vertex -1.24358 5.021 3
      vertex -2.43976 6.17081 3
      vertex -1.78496 4.68375 3
    endloop
  endfacet
  facet normal -0 0 1
    outer loop
      vertex -2.88158 5.715 3
      vertex -1.78496 4.68375 3
      vertex -2.43976 6.17081 3
    endloop
  endfacet
  facet normal 0 0 1
    outer loop
      vertex -1.78496 4.68375 3
      vertex -2.88158 5.715 3
      vertex -1.90526 4.60881 3
    endloop
  endfacet
  facet normal -0 0 1
    outer loop
      vertex -3.15397 5.35074 3
      vertex -1.90526 4.60881 3
      vertex -2.88158 5.715 3
    endloop
  endfacet
  facet normal -0 0 1
    outer loop
      vertex -3.21561 5.26831 3
      vertex -1.90526 4.60881 3
      vertex -3.15397 5.35074 3
    endloop
  endfacet
  facet normal -0 0 1
    outer loop
      vertex -3.25226 5.2193 3
      vertex -1.90526 4.60881 3
      vertex -3.21561 5.26831 3
    endloop
  endfacet
  facet normal 0 0 1
    outer loop
      vertex -1.90526 4.60881 3
      vertex -3.25226 5.2193 3
      vertex -2.48183 4.03174 3
    endloop
  endfacet
  facet normal 0 0 1
    outer loop
      vertex -2.48183 4.03174 3
      vertex -3.25226 5.2193 3
      vertex -3.36318 5.021 3
    endloop
  endfacet
  facet normal -0 0 1
    outer loop
      vertex -3.55182 4.68375 3
      vertex -2.48183 4.03174 3
      vertex -3.36318 5.021 3
    endloop
  endfacet
  facet normal 0 0 1
    outer loop
      vertex -2.48183 4.03174 3
      vertex -3.55182 4.68375 3
      vertex -2.94951 3.29106 3
    endloop
  endfacet
  facet normal -0 0 1
    outer loop
      vertex -3.71782 4.68375 3
      vertex -2.94951 3.29106 3
      vertex -3.55182 4.68375 3
    endloop
  endfacet
  facet normal 0 0 1
    outer loop
      vertex -2.94951 3.29106 3
      vertex -3.71782 4.68375 3
      vertex -3.28357 2.38899 3
    endloop
  endfacet
  facet normal 0 0 1
    outer loop
      vertex -3.28357 2.38899 3
      vertex -3.71782 4.68375 3
      vertex -3.48401 1.32556 3
    endloop
  endfacet
  facet normal 0 0 1
    outer loop
      vertex -6.02283 -6.53824 3
      vertex -3.48401 1.32556 3
      vertex -3.71782 4.68375 3
    endloop
  endfacet
  facet normal 0 0 1
    outer loop
      vertex -3.48401 1.32556 3
      vertex -6.02283 -6.53824 3
      vertex -3.55083 0.100739 3
    endloop
  endfacet
  facet normal 0 0 1
    outer loop
      vertex -6.02283 -6.53824 3
      vertex -3.71782 4.68375 3
      vertex -6.02283 13.6567 3
    endloop
  endfacet
  facet normal 0 0 1
    outer loop
      vertex -3.55083 0.100739 3
      vertex -6.02283 -6.53824 3
      vertex -3.55083 -6.53824 3
    endloop
  endfacet
  facet normal -0 0 1
    outer loop
      vertex 3.30997 2.55437 3
      vertex 5.83316 2.15674 3
      vertex 5.80612 2.55437 3
    endloop
  endfacet
  facet normal 0 0 1
    outer loop
      vertex 3.30997 2.55437 3
      vertex 5.80612 2.55437 3
      vertex 5.75507 3.30524 3
    endloop
  endfacet
  facet normal 0 0 1
    outer loop
      vertex 3.30997 2.55437 3
      vertex 5.75507 3.30524 3
      vertex 5.75072 3.36931 3
    endloop
  endfacet
  facet normal 0 0 1
    outer loop
      vertex 3.30997 2.55437 3
      vertex 5.75072 3.36931 3
      vertex 5.61775 3.93637 3
    endloop
  endfacet
  facet normal 0 0 1
    outer loop
      vertex 5.4925 4.44774 3
      vertex 5.61775 3.93637 3
      vertex 5.50342 4.424 3
    endloop
  endfacet
  facet normal 0 0 1
    outer loop
      vertex 3.30997 2.55437 3
      vertex 5.61775 3.93637 3
      vertex 5.4925 4.44774 3
    endloop
  endfacet
  facet normal 0 0 1
    outer loop
      vertex 3.30997 2.55437 3
      vertex 5.4925 4.44774 3
      vertex 5.31092 4.8428 3
    endloop
  endfacet
  facet normal 0 0 1
    outer loop
      vertex 3.30997 2.55437 3
      vertex 5.31092 4.8428 3
      vertex 5.18121 5.125 3
    endloop
  endfacet
  facet normal 0 0 1
    outer loop
      vertex 5.06784 5.35074 3
      vertex 5.18121 5.125 3
      vertex 5.10339 5.29431 3
    endloop
  endfacet
  facet normal 0 0 1
    outer loop
      vertex 5.06784 5.35074 3
      vertex 5.10339 5.29431 3
      vertex 5.09122 5.3208 3
    endloop
  endfacet
  facet normal 0 0 1
    outer loop
      vertex 3.30997 2.55437 3
      vertex 5.18121 5.125 3
      vertex 5.06784 5.35074 3
    endloop
  endfacet
  facet normal 0 0 1
    outer loop
      vertex 3.30997 2.55437 3
      vertex 5.06784 5.35074 3
      vertex 4.51416 6.05974 3
    endloop
  endfacet
  facet normal 0 0 1
    outer loop
      vertex 2.54216 4.44774 3
      vertex 4.51416 6.05974 3
      vertex 3.79478 6.63681 3
    endloop
  endfacet
  facet normal 0 0 1
    outer loop
      vertex 5.83316 2.15674 3
      vertex 3.36116 1.68375 3
      vertex 5.83316 -14.0102 3
    endloop
  endfacet
  facet normal 0 0 1
    outer loop
      vertex 5.83316 -14.0102 3
      vertex 3.36116 1.68375 3
      vertex 3.36116 -14.0102 3
    endloop
  endfacet
  facet normal 0.614053 0.354522 0.705162
    outer loop
      vertex -7.60041 -7.68442 4.95
      vertex -6.02283 -6.53824 3
      vertex -7.80424 -7.33137 4.95
    endloop
  endfacet
  facet normal -0.707107 0 0.707107
    outer loop
      vertex -3.55083 -6.53824 3
      vertex -1.60083 0.100739 4.95
      vertex -3.55083 0.100739 3
    endloop
  endfacet
  facet normal -0.707107 0 0.707107
    outer loop
      vertex -1.60083 0.100739 4.95
      vertex -3.55083 -6.53824 3
      vertex -1.60083 -6.53824 4.95
    endloop
  endfacet
  facet normal 0.526923 0.474445 0.705162
    outer loop
      vertex -7.32763 -7.98737 4.95
      vertex -6.02283 -6.53824 3
      vertex -7.60041 -7.68442 4.95
    endloop
  endfacet
  facet normal 0.147418 0.693552 0.705162
    outer loop
      vertex -6.22666 -8.47756 4.95
      vertex -6.02283 -6.53824 3
      vertex -6.62541 -8.3928 4.95
    endloop
  endfacet
  facet normal -0.674343 0.219108 0.705162
    outer loop
      vertex -1.76941 -7.33137 4.95
      vertex -1.64344 -6.94367 4.95
      vertex -3.55083 -6.53824 3
    endloop
  endfacet
  facet normal 0.674343 0.219108 0.705162
    outer loop
      vertex -7.80424 -7.33137 4.95
      vertex -6.02283 -6.53824 3
      vertex -7.93021 -6.94367 4.95
    endloop
  endfacet
  facet normal -0.147418 0.693552 0.705162
    outer loop
      vertex -3.347 -8.47756 4.95
      vertex -2.94824 -8.3928 4.95
      vertex -3.55083 -6.53824 3
    endloop
  endfacet
  facet normal 0 0.709046 0.705162
    outer loop
      vertex -3.55083 -6.53824 3
      vertex -6.22666 -8.47756 4.95
      vertex -3.347 -8.47756 4.95
    endloop
  endfacet
  facet normal 0 0.709046 0.705162
    outer loop
      vertex -6.22666 -8.47756 4.95
      vertex -3.55083 -6.53824 3
      vertex -6.02283 -6.53824 3
    endloop
  endfacet
  facet normal 0.288396 0.647746 0.705162
    outer loop
      vertex -6.62541 -8.3928 4.95
      vertex -6.02283 -6.53824 3
      vertex -6.99783 -8.22699 4.95
    endloop
  endfacet
  facet normal -0.705162 0.0741158 0.705162
    outer loop
      vertex -1.64344 -6.94367 4.95
      vertex -1.60083 -6.53824 4.95
      vertex -3.55083 -6.53824 3
    endloop
  endfacet
  facet normal -0.614053 0.354522 0.705162
    outer loop
      vertex -1.97324 -7.68442 4.95
      vertex -1.76941 -7.33137 4.95
      vertex -3.55083 -6.53824 3
    endloop
  endfacet
  facet normal -0.416766 0.573631 0.705162
    outer loop
      vertex -2.57583 -8.22699 4.95
      vertex -2.24602 -7.98737 4.95
      vertex -3.55083 -6.53824 3
    endloop
  endfacet
  facet normal -0.526924 0.474445 0.705162
    outer loop
      vertex -2.24602 -7.98737 4.95
      vertex -1.97324 -7.68442 4.95
      vertex -3.55083 -6.53824 3
    endloop
  endfacet
  facet normal -0.706581 0.0385464 0.706581
    outer loop
      vertex -3.55083 0.100739 3
      vertex -1.54778 1.07316 4.95
      vertex -3.48401 1.32556 3
    endloop
  endfacet
  facet normal -0.706581 0.0385464 0.706581
    outer loop
      vertex -1.54778 1.07316 4.95
      vertex -3.55083 0.100739 3
      vertex -1.60083 0.100739 4.95
    endloop
  endfacet
  facet normal -0.694965 0.13099 0.707012
    outer loop
      vertex -3.48401 1.32556 3
      vertex -1.39443 1.88675 4.95
      vertex -3.28357 2.38899 3
    endloop
  endfacet
  facet normal -0.694965 0.13099 0.707012
    outer loop
      vertex -1.39443 1.88675 4.95
      vertex -3.48401 1.32556 3
      vertex -1.54778 1.07316 4.95
    endloop
  endfacet
  facet normal -0.663782 0.245816 0.706377
    outer loop
      vertex -2.94951 3.29106 3
      vertex -1.39443 1.88675 4.95
      vertex -1.19517 2.42481 4.95
    endloop
  endfacet
  facet normal -0.663782 0.245816 0.706377
    outer loop
      vertex -1.39443 1.88675 4.95
      vertex -2.94951 3.29106 3
      vertex -3.28357 2.38899 3
    endloop
  endfacet
  facet normal 0 -0.709047 0.705162
    outer loop
      vertex -3.55182 4.68375 3
      vertex -3.60859 4.78029 3.09708
      vertex -3.71782 4.68375 3
    endloop
  endfacet
  facet normal -0.373978 0.600351 0.706908
    outer loop
      vertex -1.29502 3.83514 3.97988
      vertex -1.78496 4.68375 3
      vertex -1.90526 4.60881 3
    endloop
  endfacet
  facet normal -0.705162 -0.0741159 0.705162
    outer loop
      vertex -1.60083 13.6567 4.95
      vertex -1.64344 14.0622 4.95
      vertex -3.55083 13.6567 3
    endloop
  endfacet
  facet normal 0.614053 -0.354522 0.705162
    outer loop
      vertex -6.02283 13.6567 3
      vertex -7.60041 14.8029 4.95
      vertex -7.80424 14.4499 4.95
    endloop
  endfacet
  facet normal 0.705162 -0.0741163 0.705162
    outer loop
      vertex -6.02283 13.6567 3
      vertex -7.93021 14.0622 4.95
      vertex -7.97283 13.6567 4.95
    endloop
  endfacet
  facet normal 0.147418 -0.693552 0.705162
    outer loop
      vertex -6.02283 13.6567 3
      vertex -6.22666 15.5961 4.95
      vertex -6.62541 15.5113 4.95
    endloop
  endfacet
  facet normal 0.674343 -0.219108 0.705162
    outer loop
      vertex -6.02283 13.6567 3
      vertex -7.80424 14.4499 4.95
      vertex -7.93021 14.0622 4.95
    endloop
  endfacet
  facet normal -0.147418 -0.693552 0.705162
    outer loop
      vertex -2.94824 15.5113 4.95
      vertex -3.347 15.5961 4.95
      vertex -3.55083 13.6567 3
    endloop
  endfacet
  facet normal 0 -0.709046 0.705162
    outer loop
      vertex -6.02283 13.6567 3
      vertex -3.347 15.5961 4.95
      vertex -6.22666 15.5961 4.95
    endloop
  endfacet
  facet normal 0 -0.709046 0.705162
    outer loop
      vertex -3.347 15.5961 4.95
      vertex -6.02283 13.6567 3
      vertex -3.55083 13.6567 3
    endloop
  endfacet
  facet normal -0.706621 0.0370489 0.706621
    outer loop
      vertex -3.56126 6.47568 3
      vertex -3.16346 6.02806 3.42127
      vertex -2.96824 6.47568 3.59303
    endloop
  endfacet
  facet normal -0.706621 0.037049 0.706621
    outer loop
      vertex -3.59258 5.87849 3
      vertex -3.16346 6.02806 3.42127
      vertex -3.56126 6.47568 3
    endloop
  endfacet
  facet normal -0.706621 0.0370487 0.706621
    outer loop
      vertex -3.16346 6.02806 3.42127
      vertex -3.59258 5.87849 3
      vertex -3.19799 5.94488 3.39111
    endloop
  endfacet
  facet normal -0.706621 0.0370498 0.706621
    outer loop
      vertex -3.19799 5.94488 3.39111
      vertex -3.59258 5.87849 3
      vertex -3.222 5.87849 3.37058
    endloop
  endfacet
  facet normal 0.288396 -0.647746 0.705162
    outer loop
      vertex -6.02283 13.6567 3
      vertex -6.62541 15.5113 4.95
      vertex -6.99783 15.3455 4.95
    endloop
  endfacet
  facet normal -0.526924 -0.474445 0.705162
    outer loop
      vertex -1.97324 14.8029 4.95
      vertex -2.24602 15.1059 4.95
      vertex -3.55083 13.6567 3
    endloop
  endfacet
  facet normal -0.707107 0 0.707107
    outer loop
      vertex -3.55083 13.6567 3
      vertex -1.60083 8.91323 4.95
      vertex -1.60083 13.6567 4.95
    endloop
  endfacet
  facet normal -0.707107 8.39847e-08 0.707107
    outer loop
      vertex -3.55083 13.6567 3
      vertex -1.86039 8.54095 4.69044
      vertex -1.60083 8.91323 4.95
    endloop
  endfacet
  facet normal -0.707107 0 0.707107
    outer loop
      vertex -3.55083 7.07274 3
      vertex -1.86039 8.54095 4.69044
      vertex -3.55083 13.6567 3
    endloop
  endfacet
  facet normal -0.707107 6.63587e-07 0.707106
    outer loop
      vertex -1.86039 8.54095 4.69044
      vertex -3.55083 7.07274 3
      vertex -2.07562 8.21081 4.47521
    endloop
  endfacet
  facet normal -0.707107 -3.22532e-07 0.707107
    outer loop
      vertex -2.07562 8.21081 4.47521
      vertex -3.55083 7.07274 3
      vertex -2.46815 7.52437 4.08267
    endloop
  endfacet
  facet normal -0.707107 0 0.707107
    outer loop
      vertex -2.46815 7.52437 4.08267
      vertex -3.55083 7.07274 3
      vertex -2.57786 7.3098 3.97297
    endloop
  endfacet
  facet normal -0.707107 0 0.707107
    outer loop
      vertex -2.57786 7.3098 3.97297
      vertex -3.55083 7.07274 3
      vertex -2.69093 7.07274 3.8599
    endloop
  endfacet
  facet normal 0.416767 -0.573631 0.705162
    outer loop
      vertex -6.02283 13.6567 3
      vertex -6.99783 15.3455 4.95
      vertex -7.32763 15.1059 4.95
    endloop
  endfacet
  facet normal 0.526924 -0.474445 0.705162
    outer loop
      vertex -6.02283 13.6567 3
      vertex -7.32763 15.1059 4.95
      vertex -7.60041 14.8029 4.95
    endloop
  endfacet
  facet normal -0.288396 -0.647746 0.705162
    outer loop
      vertex -2.57583 15.3455 4.95
      vertex -2.94824 15.5113 4.95
      vertex -3.55083 13.6567 3
    endloop
  endfacet
  facet normal -0.614053 -0.354522 0.705162
    outer loop
      vertex -1.76941 14.4499 4.95
      vertex -1.97324 14.8029 4.95
      vertex -3.55083 13.6567 3
    endloop
  endfacet
  facet normal -0.705761 0.0616588 0.705761
    outer loop
      vertex -3.59258 5.87849 3
      vertex -3.36476 5.50388 3.26055
      vertex -3.222 5.87849 3.37058
    endloop
  endfacet
  facet normal -0.705761 0.061659 0.705762
    outer loop
      vertex -3.64476 5.28117 3
      vertex -3.36476 5.50388 3.26055
      vertex -3.59258 5.87849 3
    endloop
  endfacet
  facet normal -0.705762 0.0616604 0.705761
    outer loop
      vertex -3.36476 5.50388 3.26055
      vertex -3.64476 5.28117 3
      vertex -3.40272 5.40426 3.23129
    endloop
  endfacet
  facet normal -0.705761 0.0616552 0.705762
    outer loop
      vertex -3.40272 5.40426 3.23129
      vertex -3.64476 5.28117 3
      vertex -3.4253 5.34502 3.21389
    endloop
  endfacet
  facet normal -0.705761 0.0616603 0.705761
    outer loop
      vertex -3.4253 5.34502 3.21389
      vertex -3.64476 5.28117 3
      vertex -3.43876 5.30234 3.20415
    endloop
  endfacet
  facet normal -0.705761 0.061664 0.705761
    outer loop
      vertex -3.43876 5.30234 3.20415
      vertex -3.64476 5.28117 3
      vertex -3.44527 5.28117 3.19949
    endloop
  endfacet
  facet normal -0.674343 -0.219108 0.705162
    outer loop
      vertex -1.64344 14.0622 4.95
      vertex -1.76941 14.4499 4.95
      vertex -3.55083 13.6567 3
    endloop
  endfacet
  facet normal -0.416767 -0.573631 0.705162
    outer loop
      vertex -2.24602 15.1059 4.95
      vertex -2.57583 15.3455 4.95
      vertex -3.55083 13.6567 3
    endloop
  endfacet
  facet normal -0.707053 0.0123598 0.707053
    outer loop
      vertex -3.55083 7.07274 3
      vertex -2.888 6.66863 3.66989
      vertex -2.69093 7.07274 3.8599
    endloop
  endfacet
  facet normal -0.707053 0.0123597 0.707053
    outer loop
      vertex -3.56126 6.47568 3
      vertex -2.888 6.66863 3.66989
      vertex -3.55083 7.07274 3
    endloop
  endfacet
  facet normal -0.707053 0.0123595 0.707053
    outer loop
      vertex -2.888 6.66863 3.66989
      vertex -3.56126 6.47568 3
      vertex -2.96824 6.47568 3.59303
    endloop
  endfacet
  facet normal -0.705162 0.0741129 0.705162
    outer loop
      vertex -3.45788 5.24145 3.19106
      vertex -3.44527 5.28117 3.19949
      vertex -3.64476 5.28117 3
    endloop
  endfacet
  facet normal -0.703229 0.0859979 0.705743
    outer loop
      vertex -3.64476 5.28117 3
      vertex -3.50874 5.08581 3.15934
      vertex -3.45788 5.24145 3.19106
    endloop
  endfacet
  facet normal -0.703229 0.0859978 0.705743
    outer loop
      vertex -3.50874 5.08581 3.15934
      vertex -3.64476 5.28117 3
      vertex -3.60859 4.78029 3.09708
    endloop
  endfacet
  facet normal -0.70323 0.0859977 0.705742
    outer loop
      vertex -3.60859 4.78029 3.09708
      vertex -3.64476 5.28117 3
      vertex -3.71782 4.68375 3
    endloop
  endfacet
  facet normal -0.598526 0.377924 0.706356
    outer loop
      vertex -2.48183 4.03174 3
      vertex -1.19517 2.42481 4.95
      vertex -0.955603 2.80422 4.95
    endloop
  endfacet
  facet normal -0.598526 0.377925 0.706356
    outer loop
      vertex -1.19517 2.42481 4.95
      vertex -2.48183 4.03174 3
      vertex -2.94951 3.29106 3
    endloop
  endfacet
  facet normal 0.618407 -0.345906 0.705635
    outer loop
      vertex -3.60859 4.78029 3.09708
      vertex -3.36318 5.021 3
      vertex -3.50874 5.08581 3.15934
    endloop
  endfacet
  facet normal 0.618407 -0.345906 0.705635
    outer loop
      vertex -3.36318 5.021 3
      vertex -3.60859 4.78029 3.09708
      vertex -3.55182 4.68375 3
    endloop
  endfacet
  facet normal -0.37398 0.60035 0.706908
    outer loop
      vertex -1.29502 3.83514 3.97988
      vertex -0.414174 3.24155 4.95
      vertex -1.24358 5.021 3
    endloop
  endfacet
  facet normal -0.37398 0.60035 0.706908
    outer loop
      vertex -0.414174 3.24155 4.95
      vertex -1.29502 3.83514 3.97988
      vertex -0.690866 3.06919 4.95
    endloop
  endfacet
  facet normal -0.37398 0.60035 0.706908
    outer loop
      vertex -1.29502 3.83514 3.97988
      vertex -1.24358 5.021 3
      vertex -1.78496 4.68375 3
    endloop
  endfacet
  facet normal -0.500567 0.50013 0.706614
    outer loop
      vertex -1.29502 3.83514 3.97988
      vertex -0.955603 2.80422 4.95
      vertex -0.690866 3.06919 4.95
    endloop
  endfacet
  facet normal -0.500567 0.50013 0.706613
    outer loop
      vertex -2.48183 4.03174 3
      vertex -1.29502 3.83514 3.97988
      vertex -1.90526 4.60881 3
    endloop
  endfacet
  facet normal -0.500567 0.50013 0.706613
    outer loop
      vertex -1.29502 3.83514 3.97988
      vertex -2.48183 4.03174 3
      vertex -0.955603 2.80422 4.95
    endloop
  endfacet
  facet normal -0.222296 0.671262 0.707101
    outer loop
      vertex -0.496765 5.26831 3
      vertex -0.414174 3.24155 4.95
      vertex -0.0891511 3.34918 4.95
    endloop
  endfacet
  facet normal -0.222296 0.671262 0.707101
    outer loop
      vertex -0.414174 3.24155 4.95
      vertex -0.496765 5.26831 3
      vertex -1.24358 5.021 3
    endloop
  endfacet
  facet normal 0.56631 -0.423487 0.707073
    outer loop
      vertex -3.4253 5.34502 3.21389
      vertex -3.21561 5.26831 3
      vertex -3.40272 5.40426 3.23129
    endloop
  endfacet
  facet normal 0.56631 -0.423487 0.707073
    outer loop
      vertex -3.21561 5.26831 3
      vertex -3.4253 5.34502 3.21389
      vertex -3.25226 5.2193 3
    endloop
  endfacet
  facet normal 0.614051 -0.354525 0.705162
    outer loop
      vertex -3.25226 5.2193 3
      vertex -3.4253 5.34502 3.21389
      vertex -3.43876 5.30234 3.20415
    endloop
  endfacet
  facet normal 0.618407 -0.345906 0.705636
    outer loop
      vertex -3.44527 5.28117 3.19949
      vertex -3.25226 5.2193 3
      vertex -3.43876 5.30234 3.20415
    endloop
  endfacet
  facet normal 0.618409 -0.345901 0.705636
    outer loop
      vertex -3.45788 5.24145 3.19106
      vertex -3.25226 5.2193 3
      vertex -3.44527 5.28117 3.19949
    endloop
  endfacet
  facet normal 0.618408 -0.345904 0.705636
    outer loop
      vertex -3.25226 5.2193 3
      vertex -3.45788 5.24145 3.19106
      vertex -3.36318 5.021 3
    endloop
  endfacet
  facet normal 0.618409 -0.345903 0.705635
    outer loop
      vertex -3.36318 5.021 3
      vertex -3.45788 5.24145 3.19106
      vertex -3.50874 5.08581 3.15934
    endloop
  endfacet
  facet normal -0.44282 -0.552017 0.706532
    outer loop
      vertex 5.09959 8.08594 4.95
      vertex 4.51416 6.05974 3
      vertex 5.81896 7.50887 4.95
    endloop
  endfacet
  facet normal -0.44282 -0.552017 0.706532
    outer loop
      vertex 4.51416 6.05974 3
      vertex 5.09959 8.08594 4.95
      vertex 3.79478 6.63681 3
    endloop
  endfacet
  facet normal 0.566312 -0.423483 0.707073
    outer loop
      vertex -3.222 5.87849 3.37058
      vertex -2.88158 5.715 3
      vertex -3.19799 5.94488 3.39111
    endloop
  endfacet
  facet normal 0.56631 -0.423486 0.707073
    outer loop
      vertex -3.36476 5.50388 3.26055
      vertex -2.88158 5.715 3
      vertex -3.222 5.87849 3.37058
    endloop
  endfacet
  facet normal 0.56631 -0.423486 0.707073
    outer loop
      vertex -2.88158 5.715 3
      vertex -3.36476 5.50388 3.26055
      vertex -3.15397 5.35074 3
    endloop
  endfacet
  facet normal -0.147418 -0.693552 0.705162
    outer loop
      vertex 2.59936 9.15087 4.95
      vertex 2.20061 9.23563 4.95
      vertex 1.99678 7.29631 3
    endloop
  endfacet
  facet normal 0.147418 -0.693552 0.705162
    outer loop
      vertex -0.667572 7.18074 3
      vertex -0.871402 9.12006 4.95
      vertex -1.27015 9.0353 4.95
    endloop
  endfacet
  facet normal 0.137259 -0.695125 0.705664
    outer loop
      vertex -0.871402 9.12006 4.95
      vertex 0.0844727 7.32924 3
      vertex -0.119358 9.26856 4.95
    endloop
  endfacet
  facet normal 0.137259 -0.695125 0.705664
    outer loop
      vertex 0.0844727 7.32924 3
      vertex -0.871402 9.12006 4.95
      vertex -0.667572 7.18074 3
    endloop
  endfacet
  facet normal 0.526924 -0.474445 0.705162
    outer loop
      vertex -2.88158 5.715 3
      vertex -3.16346 6.02806 3.42127
      vertex -3.19799 5.94488 3.39111
    endloop
  endfacet
  facet normal -0.176767 -0.685352 0.706432
    outer loop
      vertex 2.59936 9.15087 4.95
      vertex 2.95566 7.049 3
      vertex 3.55824 8.90356 4.95
    endloop
  endfacet
  facet normal -0.176767 -0.685352 0.706432
    outer loop
      vertex 2.95566 7.049 3
      vertex 2.59936 9.15087 4.95
      vertex 1.99678 7.29631 3
    endloop
  endfacet
  facet normal 0 -0.709046 0.705162
    outer loop
      vertex 0.918167 7.37874 3
      vertex 1.122 9.31806 4.95
      vertex 0.714337 9.31806 4.95
    endloop
  endfacet
  facet normal -0.526923 -0.474445 0.705162
    outer loop
      vertex 6.09174 7.20592 4.95
      vertex 5.81896 7.50887 4.95
      vertex 4.51416 6.05974 3
    endloop
  endfacet
  facet normal 0.416767 -0.57363 0.705162
    outer loop
      vertex -1.92682 6.58675 3
      vertex -2.46815 7.52437 4.08267
      vertex -2.57786 7.3098 3.97297
    endloop
  endfacet
  facet normal -0.312106 -0.635385 0.706312
    outer loop
      vertex 3.93066 8.73774 4.95
      vertex 3.79478 6.63681 3
      vertex 4.76978 8.32556 4.95
    endloop
  endfacet
  facet normal -0.312106 -0.635385 0.706312
    outer loop
      vertex 3.79478 6.63681 3
      vertex 3.93066 8.73774 4.95
      vertex 2.95566 7.049 3
    endloop
  endfacet
  facet normal -0.557472 -0.435346 0.706894
    outer loop
      vertex 6.09174 7.20592 4.95
      vertex 5.06784 5.35074 3
      vertex 6.64542 6.49692 4.95
    endloop
  endfacet
  facet normal -0.557472 -0.435346 0.706894
    outer loop
      vertex 5.06784 5.35074 3
      vertex 6.09174 7.20592 4.95
      vertex 4.51416 6.05974 3
    endloop
  endfacet
  facet normal 0.508319 -0.492714 0.706289
    outer loop
      vertex -2.96824 6.47568 3.59303
      vertex -2.43976 6.17081 3
      vertex -2.888 6.66863 3.66989
    endloop
  endfacet
  facet normal 0.508318 -0.492715 0.706289
    outer loop
      vertex -3.16346 6.02806 3.42127
      vertex -2.43976 6.17081 3
      vertex -2.96824 6.47568 3.59303
    endloop
  endfacet
  facet normal 0.508318 -0.492714 0.70629
    outer loop
      vertex -2.43976 6.17081 3
      vertex -3.16346 6.02806 3.42127
      vertex -2.88158 5.715 3
    endloop
  endfacet
  facet normal 0.445663 -0.549594 0.706634
    outer loop
      vertex -2.69093 7.07274 3.8599
      vertex -1.92682 6.58675 3
      vertex -2.57786 7.3098 3.97297
    endloop
  endfacet
  facet normal 0.445662 -0.549594 0.706634
    outer loop
      vertex -2.888 6.66863 3.66989
      vertex -1.92682 6.58675 3
      vertex -2.69093 7.07274 3.8599
    endloop
  endfacet
  facet normal 0.445662 -0.549594 0.706634
    outer loop
      vertex -1.92682 6.58675 3
      vertex -2.888 6.66863 3.66989
      vertex -2.43976 6.17081 3
    endloop
  endfacet
  facet normal -0.416767 -0.573631 0.705162
    outer loop
      vertex 5.09959 8.08594 4.95
      vertex 4.76978 8.32556 4.95
      vertex 3.79478 6.63681 3
    endloop
  endfacet
  facet normal -0.288396 -0.647746 0.705162
    outer loop
      vertex 3.93066 8.73774 4.95
      vertex 3.55824 8.90356 4.95
      vertex 2.95566 7.049 3
    endloop
  endfacet
  facet normal 0.358631 -0.609427 0.707094
    outer loop
      vertex -2.46815 7.52437 4.08267
      vertex -1.33801 6.93324 3
      vertex -2.07562 8.21081 4.47521
    endloop
  endfacet
  facet normal 0.358631 -0.609427 0.707094
    outer loop
      vertex -1.33801 6.93324 3
      vertex -2.46815 7.52437 4.08267
      vertex -1.92682 6.58675 3
    endloop
  endfacet
  facet normal -0.0538911 -0.705194 0.706964
    outer loop
      vertex 1.122 9.31806 4.95
      vertex 1.99678 7.29631 3
      vertex 2.20061 9.23563 4.95
    endloop
  endfacet
  facet normal -0.0538911 -0.705194 0.706964
    outer loop
      vertex 1.99678 7.29631 3
      vertex 1.122 9.31806 4.95
      vertex 0.918167 7.37874 3
    endloop
  endfacet
  facet normal 0.0419313 -0.706228 0.706742
    outer loop
      vertex 0.714337 9.31806 4.95
      vertex 0.0844727 7.32924 3
      vertex 0.918167 7.37874 3
    endloop
  endfacet
  facet normal 0.0419314 -0.706228 0.706742
    outer loop
      vertex 0.0844727 7.32924 3
      vertex 0.714337 9.31806 4.95
      vertex -0.119358 9.26856 4.95
    endloop
  endfacet
  facet normal 0.288397 -0.647745 0.705162
    outer loop
      vertex -1.33801 6.93324 3
      vertex -1.86039 8.54095 4.69044
      vertex -2.07562 8.21081 4.47521
    endloop
  endfacet
  facet normal 0.244975 -0.663609 0.706831
    outer loop
      vertex -1.86039 8.54095 4.69044
      vertex -0.667572 7.18074 3
      vertex -1.27015 9.0353 4.95
    endloop
  endfacet
  facet normal 0.244977 -0.66361 0.70683
    outer loop
      vertex -1.86039 8.54095 4.69044
      vertex -1.27015 9.0353 4.95
      vertex -1.60083 8.91323 4.95
    endloop
  endfacet
  facet normal 0.244976 -0.663609 0.706831
    outer loop
      vertex -0.667572 7.18074 3
      vertex -1.86039 8.54095 4.69044
      vertex -1.33801 6.93324 3
    endloop
  endfacet
  facet normal -0.0697202 0.703668 0.7071
    outer loop
      vertex 0.335159 5.35074 3
      vertex -0.0891511 3.34918 4.95
      vertex 0.349921 3.39269 4.95
    endloop
  endfacet
  facet normal -0.0697202 0.703668 0.7071
    outer loop
      vertex -0.0891511 3.34918 4.95
      vertex 0.335159 5.35074 3
      vertex -0.496765 5.26831 3
    endloop
  endfacet
  facet normal 0.56631 -0.423486 0.707073
    outer loop
      vertex -3.40272 5.40426 3.23129
      vertex -3.15397 5.35074 3
      vertex -3.36476 5.50388 3.26055
    endloop
  endfacet
  facet normal 0.566309 -0.423487 0.707073
    outer loop
      vertex -3.15397 5.35074 3
      vertex -3.40272 5.40426 3.23129
      vertex -3.21561 5.26831 3
    endloop
  endfacet
  facet normal 0.0603827 0.70459 0.707041
    outer loop
      vertex 0.993591 5.29431 3
      vertex 0.349921 3.39269 4.95
      vertex 0.640714 3.36777 4.95
    endloop
  endfacet
  facet normal 0.0603827 0.70459 0.707041
    outer loop
      vertex 0.349921 3.39269 4.95
      vertex 0.993591 5.29431 3
      vertex 0.335159 5.35074 3
    endloop
  endfacet
  facet normal -0.642519 -0.295305 0.707081
    outer loop
      vertex 6.87263 6.11394 4.95
      vertex 5.10339 5.29431 3
      vertex 6.8848 6.08745 4.95
    endloop
  endfacet
  facet normal -0.642519 -0.295305 0.707081
    outer loop
      vertex 5.10339 5.29431 3
      vertex 6.87263 6.11394 4.95
      vertex 5.09122 5.3208 3
    endloop
  endfacet
  facet normal -0.557471 -0.435347 0.706894
    outer loop
      vertex 6.64542 6.49692 4.95
      vertex 5.09122 5.3208 3
      vertex 6.6688 6.46698 4.95
    endloop
  endfacet
  facet normal -0.557471 -0.435347 0.706894
    outer loop
      vertex 5.09122 5.3208 3
      vertex 6.64542 6.49692 4.95
      vertex 5.06784 5.35074 3
    endloop
  endfacet
  facet normal -0.614053 -0.354522 0.705162
    outer loop
      vertex 6.87263 6.11394 4.95
      vertex 6.6688 6.46698 4.95
      vertex 5.09122 5.3208 3
    endloop
  endfacet
  facet normal 0.19592 0.679629 0.706908
    outer loop
      vertex 0.993591 5.29431 3
      vertex 0.8321 3.3126 4.95
      vertex 1.58092 5.125 3
    endloop
  endfacet
  facet normal 0.195921 0.679629 0.706908
    outer loop
      vertex 0.8321 3.3126 4.95
      vertex 0.993591 5.29431 3
      vertex 0.640714 3.36777 4.95
    endloop
  endfacet
  facet normal -0.642512 -0.295322 0.707081
    outer loop
      vertex 6.8848 6.08745 4.95
      vertex 5.18121 5.125 3
      vertex 6.96263 5.91814 4.95
    endloop
  endfacet
  facet normal -0.642512 -0.295322 0.707081
    outer loop
      vertex 5.18121 5.125 3
      vertex 6.8848 6.08745 4.95
      vertex 5.10339 5.29431 3
    endloop
  endfacet
  facet normal 0.339244 0.620523 0.707011
    outer loop
      vertex 1.58092 5.125 3
      vertex 0.966248 3.23926 4.95
      vertex 2.09709 4.8428 3
    endloop
  endfacet
  facet normal 0.339244 0.620523 0.707011
    outer loop
      vertex 0.966248 3.23926 4.95
      vertex 1.58092 5.125 3
      vertex 0.8321 3.3126 4.95
    endloop
  endfacet
  facet normal -0.642513 -0.295319 0.707081
    outer loop
      vertex 6.96263 5.91814 4.95
      vertex 5.31092 4.8428 3
      vertex 7.09233 5.63594 4.95
    endloop
  endfacet
  facet normal -0.642513 -0.295319 0.707081
    outer loop
      vertex 5.31092 4.8428 3
      vertex 6.96263 5.91814 4.95
      vertex 5.18121 5.125 3
    endloop
  endfacet
  facet normal 0.469416 0.52883 0.707098
    outer loop
      vertex 2.09709 4.8428 3
      vertex 1.0773 3.14068 4.95
      vertex 2.54216 4.44774 3
    endloop
  endfacet
  facet normal 0.469417 0.52883 0.707098
    outer loop
      vertex 1.0773 3.14068 4.95
      vertex 2.09709 4.8428 3
      vertex 0.966248 3.23926 4.95
    endloop
  endfacet
  facet normal -0.642513 -0.295319 0.707081
    outer loop
      vertex 7.09233 5.63594 4.95
      vertex 5.4925 4.44774 3
      vertex 7.27392 5.24087 4.95
    endloop
  endfacet
  facet normal -0.642513 -0.295319 0.707081
    outer loop
      vertex 5.4925 4.44774 3
      vertex 7.09233 5.63594 4.95
      vertex 5.31092 4.8428 3
    endloop
  endfacet
  facet normal 0.579141 0.405794 0.707055
    outer loop
      vertex 2.54216 4.44774 3
      vertex 1.17888 2.9957 4.95
      vertex 2.90047 3.93637 3
    endloop
  endfacet
  facet normal 0.579141 0.405795 0.707055
    outer loop
      vertex 1.17888 2.9957 4.95
      vertex 2.54216 4.44774 3
      vertex 1.0773 3.14068 4.95
    endloop
  endfacet
  facet normal -0.68851 -0.161439 0.70703
    outer loop
      vertex 7.41081 4.82942 4.95
      vertex 5.61775 3.93637 3
      vertex 7.52514 4.3418 4.95
    endloop
  endfacet
  facet normal -0.68851 -0.161439 0.70703
    outer loop
      vertex 5.61775 3.93637 3
      vertex 7.41081 4.82942 4.95
      vertex 5.50342 4.424 3
    endloop
  endfacet
  facet normal -0.642503 -0.295341 0.707081
    outer loop
      vertex 7.27392 5.24087 4.95
      vertex 5.50342 4.424 3
      vertex 7.28483 5.21713 4.95
    endloop
  endfacet
  facet normal -0.642503 -0.295341 0.707081
    outer loop
      vertex 5.50342 4.424 3
      vertex 7.27392 5.24087 4.95
      vertex 5.4925 4.44774 3
    endloop
  endfacet
  facet normal -0.674343 -0.219108 0.705162
    outer loop
      vertex 7.41081 4.82942 4.95
      vertex 7.28483 5.21713 4.95
      vertex 5.50342 4.424 3
    endloop
  endfacet
  facet normal 0.655458 0.265815 0.706907
    outer loop
      vertex 1.17888 2.9957 4.95
      vertex 3.15642 3.30524 3
      vertex 2.90047 3.93637 3
    endloop
  endfacet
  facet normal 0.655458 0.265815 0.706907
    outer loop
      vertex 3.15642 3.30524 3
      vertex 1.17888 2.9957 4.95
      vertex 1.28082 2.74434 4.95
    endloop
  endfacet
  facet normal -0.68851 -0.16144 0.70703
    outer loop
      vertex 7.52514 4.3418 4.95
      vertex 5.75072 3.36931 3
      vertex 7.6581 3.77474 4.95
    endloop
  endfacet
  facet normal -0.68851 -0.16144 0.70703
    outer loop
      vertex 5.75072 3.36931 3
      vertex 7.52514 4.3418 4.95
      vertex 5.61775 3.93637 3
    endloop
  endfacet
  facet normal -0.706291 -0.0480119 0.706291
    outer loop
      vertex 5.75507 3.30524 3
      vertex 7.70072 3.36931 4.95
      vertex 5.75072 3.36931 3
    endloop
  endfacet
  facet normal -0.706291 -0.0480119 0.706291
    outer loop
      vertex 7.70072 3.36931 4.95
      vertex 5.75507 3.30524 3
      vertex 7.70507 3.30524 4.95
    endloop
  endfacet
  facet normal -0.705162 -0.0741162 0.705162
    outer loop
      vertex 7.70072 3.36931 4.95
      vertex 7.6581 3.77474 4.95
      vertex 5.75072 3.36931 3
    endloop
  endfacet
  facet normal 0.69278 0.14167 0.707096
    outer loop
      vertex 1.28082 2.74434 4.95
      vertex 3.30997 2.55437 3
      vertex 3.15642 3.30524 3
    endloop
  endfacet
  facet normal 0.69278 0.14167 0.707096
    outer loop
      vertex 3.30997 2.55437 3
      vertex 1.28082 2.74434 4.95
      vertex 1.37623 2.27779 4.95
    endloop
  endfacet
  facet normal -0.706291 -0.0480212 0.706291
    outer loop
      vertex 7.70507 3.30524 4.95
      vertex 5.80612 2.55437 3
      vertex 7.75612 2.55437 4.95
    endloop
  endfacet
  facet normal -0.706291 -0.0480212 0.706291
    outer loop
      vertex 5.80612 2.55437 3
      vertex 7.70507 3.30524 4.95
      vertex 5.75507 3.30524 3
    endloop
  endfacet
  facet normal 0.706496 0.0415426 0.706496
    outer loop
      vertex 3.36116 1.68375 3
      vertex 1.37623 2.27779 4.95
      vertex 1.41116 1.68375 4.95
    endloop
  endfacet
  facet normal 0.706496 0.0415426 0.706496
    outer loop
      vertex 1.37623 2.27779 4.95
      vertex 3.36116 1.68375 3
      vertex 3.30997 2.55437 3
    endloop
  endfacet
  facet normal -0.707107 0 0.707107
    outer loop
      vertex 5.83316 -14.0102 3
      vertex 7.78316 2.15674 4.95
      vertex 5.83316 2.15674 3
    endloop
  endfacet
  facet normal -0.707107 0 0.707107
    outer loop
      vertex 7.78316 2.15674 4.95
      vertex 5.83316 -14.0102 3
      vertex 7.78316 -14.0102 4.95
    endloop
  endfacet
  facet normal -0.706291 -0.0480224 0.706291
    outer loop
      vertex 5.83316 2.15674 3
      vertex 7.75612 2.55437 4.95
      vertex 5.80612 2.55437 3
    endloop
  endfacet
  facet normal -0.706291 -0.0480224 0.706291
    outer loop
      vertex 7.75612 2.55437 4.95
      vertex 5.83316 2.15674 3
      vertex 7.78316 2.15674 4.95
    endloop
  endfacet
  facet normal 0.707107 -0 0.707107
    outer loop
      vertex 1.41116 -14.0102 4.95
      vertex 3.36116 1.68375 3
      vertex 1.41116 1.68375 4.95
    endloop
  endfacet
  facet normal 0.707107 0 0.707107
    outer loop
      vertex 3.36116 1.68375 3
      vertex 1.41116 -14.0102 4.95
      vertex 3.36116 -14.0102 3
    endloop
  endfacet
  facet normal 0 0.709046 0.705162
    outer loop
      vertex 5.83316 -14.0102 3
      vertex 3.15733 -15.9496 4.95
      vertex 6.03699 -15.9496 4.95
    endloop
  endfacet
  facet normal 0 0.709046 0.705162
    outer loop
      vertex 3.15733 -15.9496 4.95
      vertex 5.83316 -14.0102 3
      vertex 3.36116 -14.0102 3
    endloop
  endfacet
  facet normal 0.147418 0.693552 0.705162
    outer loop
      vertex 3.15733 -15.9496 4.95
      vertex 3.36116 -14.0102 3
      vertex 2.75858 -15.8648 4.95
    endloop
  endfacet
  facet normal -0.674343 0.219108 0.705162
    outer loop
      vertex 7.61457 -14.8034 4.95
      vertex 7.74055 -14.4157 4.95
      vertex 5.83316 -14.0102 3
    endloop
  endfacet
  facet normal -0.705162 0.0741163 0.705162
    outer loop
      vertex 7.74055 -14.4157 4.95
      vertex 7.78316 -14.0102 4.95
      vertex 5.83316 -14.0102 3
    endloop
  endfacet
  facet normal 0.416767 0.573631 0.705162
    outer loop
      vertex 2.38616 -15.699 4.95
      vertex 3.36116 -14.0102 3
      vertex 2.05636 -15.4594 4.95
    endloop
  endfacet
  facet normal 0.288396 0.647746 0.705162
    outer loop
      vertex 2.75858 -15.8648 4.95
      vertex 3.36116 -14.0102 3
      vertex 2.38616 -15.699 4.95
    endloop
  endfacet
  facet normal 0.705162 0.0741159 0.705162
    outer loop
      vertex 1.45377 -14.4157 4.95
      vertex 3.36116 -14.0102 3
      vertex 1.41116 -14.0102 4.95
    endloop
  endfacet
  facet normal -0.526924 0.474445 0.705162
    outer loop
      vertex 7.13796 -15.4594 4.95
      vertex 7.41074 -15.1564 4.95
      vertex 5.83316 -14.0102 3
    endloop
  endfacet
  facet normal -0.614053 0.354522 0.705162
    outer loop
      vertex 7.41074 -15.1564 4.95
      vertex 7.61457 -14.8034 4.95
      vertex 5.83316 -14.0102 3
    endloop
  endfacet
  facet normal -0.147418 0.693552 0.705162
    outer loop
      vertex 6.03699 -15.9496 4.95
      vertex 6.43574 -15.8648 4.95
      vertex 5.83316 -14.0102 3
    endloop
  endfacet
  facet normal 0.674343 0.219108 0.705162
    outer loop
      vertex 1.57975 -14.8034 4.95
      vertex 3.36116 -14.0102 3
      vertex 1.45377 -14.4157 4.95
    endloop
  endfacet
  facet normal 0.614053 0.354522 0.705162
    outer loop
      vertex 1.78358 -15.1564 4.95
      vertex 3.36116 -14.0102 3
      vertex 1.57975 -14.8034 4.95
    endloop
  endfacet
  facet normal 0.526924 0.474445 0.705162
    outer loop
      vertex 2.05636 -15.4594 4.95
      vertex 3.36116 -14.0102 3
      vertex 1.78358 -15.1564 4.95
    endloop
  endfacet
  facet normal -0.288397 0.647745 0.705162
    outer loop
      vertex 6.43574 -15.8648 4.95
      vertex 6.80816 -15.699 4.95
      vertex 5.83316 -14.0102 3
    endloop
  endfacet
  facet normal -0.416766 0.573631 0.705162
    outer loop
      vertex 6.80816 -15.699 4.95
      vertex 7.13796 -15.4594 4.95
      vertex 5.83316 -14.0102 3
    endloop
  endfacet
  facet normal 0 0 1
    outer loop
      vertex -1.19517 2.42481 4.95
      vertex 1.41116 1.68375 4.95
      vertex 1.37623 2.27779 4.95
    endloop
  endfacet
  facet normal 0 0 1
    outer loop
      vertex 15.1568 16.4918 4.95
      vertex 16.5 15 4.95
      vertex 16.4672 15.3119 4.95
    endloop
  endfacet
  facet normal 0 0 1
    outer loop
      vertex 16.5 15 4.95
      vertex 7.78316 2.15674 4.95
      vertex 16.5 -15 4.95
    endloop
  endfacet
  facet normal 0 0 1
    outer loop
      vertex 15.1568 16.4918 4.95
      vertex 16.4672 15.3119 4.95
      vertex 16.3703 15.6101 4.95
    endloop
  endfacet
  facet normal -0 0 1
    outer loop
      vertex 7.78316 -14.0102 4.95
      vertex 16.5 -15 4.95
      vertex 7.78316 2.15674 4.95
    endloop
  endfacet
  facet normal 0 0 1
    outer loop
      vertex 15.1568 16.4918 4.95
      vertex 16.3703 15.6101 4.95
      vertex 16.2135 15.8817 4.95
    endloop
  endfacet
  facet normal 0 -0 1
    outer loop
      vertex 15.1568 -16.4918 4.95
      vertex 16.5 -15 4.95
      vertex 7.78316 -14.0102 4.95
    endloop
  endfacet
  facet normal 0 0 1
    outer loop
      vertex 15.1568 16.4918 4.95
      vertex 16.2135 15.8817 4.95
      vertex 16.0037 16.1147 4.95
    endloop
  endfacet
  facet normal 0 0 1
    outer loop
      vertex 16.5 -15 4.95
      vertex 15.1568 -16.4918 4.95
      vertex 16.4672 -15.3119 4.95
    endloop
  endfacet
  facet normal 0 0 1
    outer loop
      vertex 15.1568 16.4918 4.95
      vertex 16.0037 16.1147 4.95
      vertex 15.75 16.299 4.95
    endloop
  endfacet
  facet normal 0 0 1
    outer loop
      vertex 16.4672 -15.3119 4.95
      vertex 15.1568 -16.4918 4.95
      vertex 16.3703 -15.6101 4.95
    endloop
  endfacet
  facet normal 0 0 1
    outer loop
      vertex 15.1568 16.4918 4.95
      vertex 15.75 16.299 4.95
      vertex 15.4635 16.4266 4.95
    endloop
  endfacet
  facet normal 0 0 1
    outer loop
      vertex 16.3703 -15.6101 4.95
      vertex 15.1568 -16.4918 4.95
      vertex 16.2135 -15.8817 4.95
    endloop
  endfacet
  facet normal 0 0 1
    outer loop
      vertex 16.5 15 4.95
      vertex 15.1568 16.4918 4.95
      vertex 6.09174 7.20592 4.95
    endloop
  endfacet
  facet normal 0 0 1
    outer loop
      vertex 16.2135 -15.8817 4.95
      vertex 15.1568 -16.4918 4.95
      vertex 16.0037 -16.1147 4.95
    endloop
  endfacet
  facet normal 0 0 1
    outer loop
      vertex 16.0037 -16.1147 4.95
      vertex 15.1568 -16.4918 4.95
      vertex 15.75 -16.299 4.95
    endloop
  endfacet
  facet normal 0 0 1
    outer loop
      vertex 16.5 15 4.95
      vertex 7.75612 2.55437 4.95
      vertex 7.78316 2.15674 4.95
    endloop
  endfacet
  facet normal 0 0 1
    outer loop
      vertex 16.5 15 4.95
      vertex 7.70507 3.30524 4.95
      vertex 7.75612 2.55437 4.95
    endloop
  endfacet
  facet normal 0 0 1
    outer loop
      vertex 16.5 15 4.95
      vertex 7.70072 3.36931 4.95
      vertex 7.70507 3.30524 4.95
    endloop
  endfacet
  facet normal 0 0 1
    outer loop
      vertex 16.5 15 4.95
      vertex 7.6581 3.77474 4.95
      vertex 7.70072 3.36931 4.95
    endloop
  endfacet
  facet normal 0 0 1
    outer loop
      vertex 16.5 15 4.95
      vertex 7.52514 4.3418 4.95
      vertex 7.6581 3.77474 4.95
    endloop
  endfacet
  facet normal 0 0 1
    outer loop
      vertex 16.5 15 4.95
      vertex 7.41081 4.82942 4.95
      vertex 7.52514 4.3418 4.95
    endloop
  endfacet
  facet normal 0 0 1
    outer loop
      vertex 16.5 15 4.95
      vertex 7.28483 5.21713 4.95
      vertex 7.41081 4.82942 4.95
    endloop
  endfacet
  facet normal 0 0 1
    outer loop
      vertex 16.5 15 4.95
      vertex 7.27392 5.24087 4.95
      vertex 7.28483 5.21713 4.95
    endloop
  endfacet
  facet normal 0 0 1
    outer loop
      vertex 16.5 15 4.95
      vertex 7.09233 5.63594 4.95
      vertex 7.27392 5.24087 4.95
    endloop
  endfacet
  facet normal 0 0 1
    outer loop
      vertex 16.5 15 4.95
      vertex 6.96263 5.91814 4.95
      vertex 7.09233 5.63594 4.95
    endloop
  endfacet
  facet normal 0 0 1
    outer loop
      vertex 16.5 15 4.95
      vertex 6.8848 6.08745 4.95
      vertex 6.96263 5.91814 4.95
    endloop
  endfacet
  facet normal 0 0 1
    outer loop
      vertex 16.5 15 4.95
      vertex 6.87263 6.11394 4.95
      vertex 6.8848 6.08745 4.95
    endloop
  endfacet
  facet normal 0 0 1
    outer loop
      vertex 16.5 15 4.95
      vertex 6.6688 6.46698 4.95
      vertex 6.87263 6.11394 4.95
    endloop
  endfacet
  facet normal 0 0 1
    outer loop
      vertex 16.5 15 4.95
      vertex 6.64542 6.49692 4.95
      vertex 6.6688 6.46698 4.95
    endloop
  endfacet
  facet normal 0 0 1
    outer loop
      vertex 16.5 15 4.95
      vertex 6.09174 7.20592 4.95
      vertex 6.64542 6.49692 4.95
    endloop
  endfacet
  facet normal 0 0 1
    outer loop
      vertex 15.1568 16.4918 4.95
      vertex 5.81896 7.50887 4.95
      vertex 6.09174 7.20592 4.95
    endloop
  endfacet
  facet normal 0 0 1
    outer loop
      vertex 15.1568 16.4918 4.95
      vertex 5.09959 8.08594 4.95
      vertex 5.81896 7.50887 4.95
    endloop
  endfacet
  facet normal 0 0 1
    outer loop
      vertex 15.1568 16.4918 4.95
      vertex 4.76978 8.32556 4.95
      vertex 5.09959 8.08594 4.95
    endloop
  endfacet
  facet normal 0 0 1
    outer loop
      vertex 15.1568 16.4918 4.95
      vertex 3.93066 8.73774 4.95
      vertex 4.76978 8.32556 4.95
    endloop
  endfacet
  facet normal 0 0 1
    outer loop
      vertex 15.1568 16.4918 4.95
      vertex 3.55824 8.90356 4.95
      vertex 3.93066 8.73774 4.95
    endloop
  endfacet
  facet normal -0 0 1
    outer loop
      vertex -1.76941 14.4499 4.95
      vertex 3.55824 8.90356 4.95
      vertex 15.1568 16.4918 4.95
    endloop
  endfacet
  facet normal 0 0 1
    outer loop
      vertex 3.55824 8.90356 4.95
      vertex -1.64344 14.0622 4.95
      vertex 2.59936 9.15087 4.95
    endloop
  endfacet
  facet normal -0 -0 1
    outer loop
      vertex -1.60083 13.6567 4.95
      vertex 2.59936 9.15087 4.95
      vertex -1.64344 14.0622 4.95
    endloop
  endfacet
  facet normal 0 0 1
    outer loop
      vertex 2.59936 9.15087 4.95
      vertex -1.60083 13.6567 4.95
      vertex 2.20061 9.23563 4.95
    endloop
  endfacet
  facet normal 0 0 1
    outer loop
      vertex 2.20061 9.23563 4.95
      vertex -1.60083 13.6567 4.95
      vertex 1.122 9.31806 4.95
    endloop
  endfacet
  facet normal 0 0 1
    outer loop
      vertex 0.714337 9.31806 4.95
      vertex -1.60083 13.6567 4.95
      vertex -0.119358 9.26856 4.95
    endloop
  endfacet
  facet normal 0 0 1
    outer loop
      vertex -0.119358 9.26856 4.95
      vertex -1.60083 13.6567 4.95
      vertex -0.871402 9.12006 4.95
    endloop
  endfacet
  facet normal 0 0 1
    outer loop
      vertex -0.871402 9.12006 4.95
      vertex -1.60083 13.6567 4.95
      vertex -1.27015 9.0353 4.95
    endloop
  endfacet
  facet normal 0 0 1
    outer loop
      vertex 1.122 9.31806 4.95
      vertex -1.60083 13.6567 4.95
      vertex 0.714337 9.31806 4.95
    endloop
  endfacet
  facet normal 0 0 1
    outer loop
      vertex 3.55824 8.90356 4.95
      vertex -1.76941 14.4499 4.95
      vertex -1.64344 14.0622 4.95
    endloop
  endfacet
  facet normal 0 0 1
    outer loop
      vertex 15.1568 16.4918 4.95
      vertex -1.97324 14.8029 4.95
      vertex -1.76941 14.4499 4.95
    endloop
  endfacet
  facet normal 0 0 1
    outer loop
      vertex 15.1568 16.4918 4.95
      vertex -2.24602 15.1059 4.95
      vertex -1.97324 14.8029 4.95
    endloop
  endfacet
  facet normal 0 0 1
    outer loop
      vertex 15.1568 16.4918 4.95
      vertex -2.57583 15.3455 4.95
      vertex -2.24602 15.1059 4.95
    endloop
  endfacet
  facet normal 0 0 1
    outer loop
      vertex 15.1568 16.4918 4.95
      vertex -2.94824 15.5113 4.95
      vertex -2.57583 15.3455 4.95
    endloop
  endfacet
  facet normal 0 0 1
    outer loop
      vertex 15.1568 16.4918 4.95
      vertex -3.347 15.5961 4.95
      vertex -2.94824 15.5113 4.95
    endloop
  endfacet
  facet normal -0 0 1
    outer loop
      vertex -15.1568 16.4918 4.95
      vertex -3.347 15.5961 4.95
      vertex 15.1568 16.4918 4.95
    endloop
  endfacet
  facet normal -0 0 1
    outer loop
      vertex -16.5 15 4.95
      vertex -7.97283 13.6567 4.95
      vertex -15.1568 16.4918 4.95
    endloop
  endfacet
  facet normal 0 0 1
    outer loop
      vertex -7.93021 14.0622 4.95
      vertex -15.1568 16.4918 4.95
      vertex -7.97283 13.6567 4.95
    endloop
  endfacet
  facet normal 0 0 1
    outer loop
      vertex -7.80424 14.4499 4.95
      vertex -15.1568 16.4918 4.95
      vertex -7.93021 14.0622 4.95
    endloop
  endfacet
  facet normal 0 0 1
    outer loop
      vertex -7.60041 14.8029 4.95
      vertex -15.1568 16.4918 4.95
      vertex -7.80424 14.4499 4.95
    endloop
  endfacet
  facet normal 0 0 1
    outer loop
      vertex -7.32763 15.1059 4.95
      vertex -15.1568 16.4918 4.95
      vertex -7.60041 14.8029 4.95
    endloop
  endfacet
  facet normal 0 0 1
    outer loop
      vertex -6.99783 15.3455 4.95
      vertex -15.1568 16.4918 4.95
      vertex -7.32763 15.1059 4.95
    endloop
  endfacet
  facet normal 0 0 1
    outer loop
      vertex -6.62541 15.5113 4.95
      vertex -15.1568 16.4918 4.95
      vertex -6.99783 15.3455 4.95
    endloop
  endfacet
  facet normal 0 0 1
    outer loop
      vertex -6.22666 15.5961 4.95
      vertex -15.1568 16.4918 4.95
      vertex -6.62541 15.5113 4.95
    endloop
  endfacet
  facet normal 0 0 1
    outer loop
      vertex -3.347 15.5961 4.95
      vertex -15.1568 16.4918 4.95
      vertex -6.22666 15.5961 4.95
    endloop
  endfacet
  facet normal 0 0 1
    outer loop
      vertex 15.75 -16.299 4.95
      vertex 15.1568 -16.4918 4.95
      vertex 15.4635 -16.4266 4.95
    endloop
  endfacet
  facet normal -0 0 1
    outer loop
      vertex 7.74055 -14.4157 4.95
      vertex 15.1568 -16.4918 4.95
      vertex 7.78316 -14.0102 4.95
    endloop
  endfacet
  facet normal -0 0 1
    outer loop
      vertex 7.61457 -14.8034 4.95
      vertex 15.1568 -16.4918 4.95
      vertex 7.74055 -14.4157 4.95
    endloop
  endfacet
  facet normal -0 0 1
    outer loop
      vertex 7.41074 -15.1564 4.95
      vertex 15.1568 -16.4918 4.95
      vertex 7.61457 -14.8034 4.95
    endloop
  endfacet
  facet normal -0 0 1
    outer loop
      vertex 7.13796 -15.4594 4.95
      vertex 15.1568 -16.4918 4.95
      vertex 7.41074 -15.1564 4.95
    endloop
  endfacet
  facet normal -0 0 1
    outer loop
      vertex 6.80816 -15.699 4.95
      vertex 15.1568 -16.4918 4.95
      vertex 7.13796 -15.4594 4.95
    endloop
  endfacet
  facet normal -0 0 1
    outer loop
      vertex 6.43574 -15.8648 4.95
      vertex 15.1568 -16.4918 4.95
      vertex 6.80816 -15.699 4.95
    endloop
  endfacet
  facet normal -0 0 1
    outer loop
      vertex 6.03699 -15.9496 4.95
      vertex 15.1568 -16.4918 4.95
      vertex 6.43574 -15.8648 4.95
    endloop
  endfacet
  facet normal -0 0 1
    outer loop
      vertex 3.15733 -15.9496 4.95
      vertex 15.1568 -16.4918 4.95
      vertex 6.03699 -15.9496 4.95
    endloop
  endfacet
  facet normal 0 0 1
    outer loop
      vertex 0.349921 3.39269 4.95
      vertex 1.37623 2.27779 4.95
      vertex 1.28082 2.74434 4.95
    endloop
  endfacet
  facet normal 0 0 1
    outer loop
      vertex 0.640714 3.36777 4.95
      vertex 1.28082 2.74434 4.95
      vertex 1.17888 2.9957 4.95
    endloop
  endfacet
  facet normal 0 0 1
    outer loop
      vertex 0.8321 3.3126 4.95
      vertex 1.17888 2.9957 4.95
      vertex 1.0773 3.14068 4.95
    endloop
  endfacet
  facet normal 0 0 1
    outer loop
      vertex 0.8321 3.3126 4.95
      vertex 1.0773 3.14068 4.95
      vertex 0.966248 3.23926 4.95
    endloop
  endfacet
  facet normal 0 0 1
    outer loop
      vertex 1.17888 2.9957 4.95
      vertex 0.8321 3.3126 4.95
      vertex 0.640714 3.36777 4.95
    endloop
  endfacet
  facet normal 0 0 1
    outer loop
      vertex 1.28082 2.74434 4.95
      vertex 0.640714 3.36777 4.95
      vertex 0.349921 3.39269 4.95
    endloop
  endfacet
  facet normal 0 0 1
    outer loop
      vertex 1.37623 2.27779 4.95
      vertex 0.349921 3.39269 4.95
      vertex -0.0891511 3.34918 4.95
    endloop
  endfacet
  facet normal 0 0 1
    outer loop
      vertex 1.37623 2.27779 4.95
      vertex -0.0891511 3.34918 4.95
      vertex -0.414174 3.24155 4.95
    endloop
  endfacet
  facet normal 0 0 1
    outer loop
      vertex 1.37623 2.27779 4.95
      vertex -0.414174 3.24155 4.95
      vertex -0.690866 3.06919 4.95
    endloop
  endfacet
  facet normal 0 0 1
    outer loop
      vertex 1.41116 1.68375 4.95
      vertex -1.60083 -6.53824 4.95
      vertex 1.41116 -14.0102 4.95
    endloop
  endfacet
  facet normal 0 0 1
    outer loop
      vertex 1.37623 2.27779 4.95
      vertex -0.690866 3.06919 4.95
      vertex -0.955603 2.80422 4.95
    endloop
  endfacet
  facet normal 0 0 1
    outer loop
      vertex 1.37623 2.27779 4.95
      vertex -0.955603 2.80422 4.95
      vertex -1.19517 2.42481 4.95
    endloop
  endfacet
  facet normal 0 0 1
    outer loop
      vertex 1.41116 1.68375 4.95
      vertex -1.19517 2.42481 4.95
      vertex -1.39443 1.88675 4.95
    endloop
  endfacet
  facet normal 0 0 1
    outer loop
      vertex 1.41116 1.68375 4.95
      vertex -1.39443 1.88675 4.95
      vertex -1.54778 1.07316 4.95
    endloop
  endfacet
  facet normal 0 0 1
    outer loop
      vertex 1.41116 1.68375 4.95
      vertex -1.54778 1.07316 4.95
      vertex -1.60083 0.100739 4.95
    endloop
  endfacet
  facet normal 0 0 1
    outer loop
      vertex 1.41116 1.68375 4.95
      vertex -1.60083 0.100739 4.95
      vertex -1.60083 -6.53824 4.95
    endloop
  endfacet
  facet normal -0 0 1
    outer loop
      vertex -1.64344 -6.94367 4.95
      vertex 1.41116 -14.0102 4.95
      vertex -1.60083 -6.53824 4.95
    endloop
  endfacet
  facet normal -0 0 1
    outer loop
      vertex -1.76941 -7.33137 4.95
      vertex 1.41116 -14.0102 4.95
      vertex -1.64344 -6.94367 4.95
    endloop
  endfacet
  facet normal -0 0 1
    outer loop
      vertex -1.97324 -7.68442 4.95
      vertex 1.41116 -14.0102 4.95
      vertex -1.76941 -7.33137 4.95
    endloop
  endfacet
  facet normal -0 0 1
    outer loop
      vertex -2.24602 -7.98737 4.95
      vertex 1.41116 -14.0102 4.95
      vertex -1.97324 -7.68442 4.95
    endloop
  endfacet
  facet normal -0 0 1
    outer loop
      vertex -2.57583 -8.22699 4.95
      vertex 1.41116 -14.0102 4.95
      vertex -2.24602 -7.98737 4.95
    endloop
  endfacet
  facet normal -0 0 1
    outer loop
      vertex -2.94824 -8.3928 4.95
      vertex 1.41116 -14.0102 4.95
      vertex -2.57583 -8.22699 4.95
    endloop
  endfacet
  facet normal -0 0 1
    outer loop
      vertex -3.347 -8.47756 4.95
      vertex 1.41116 -14.0102 4.95
      vertex -2.94824 -8.3928 4.95
    endloop
  endfacet
  facet normal -0 0 1
    outer loop
      vertex -6.22666 -8.47756 4.95
      vertex 1.41116 -14.0102 4.95
      vertex -3.347 -8.47756 4.95
    endloop
  endfacet
  facet normal 0 0 1
    outer loop
      vertex 1.41116 -14.0102 4.95
      vertex -6.22666 -8.47756 4.95
      vertex 1.45377 -14.4157 4.95
    endloop
  endfacet
  facet normal 0 0 1
    outer loop
      vertex -15.1568 -16.4918 4.95
      vertex 1.45377 -14.4157 4.95
      vertex -6.22666 -8.47756 4.95
    endloop
  endfacet
  facet normal 0 0 1
    outer loop
      vertex 1.45377 -14.4157 4.95
      vertex -15.1568 -16.4918 4.95
      vertex 1.57975 -14.8034 4.95
    endloop
  endfacet
  facet normal 0 0 1
    outer loop
      vertex 1.57975 -14.8034 4.95
      vertex -15.1568 -16.4918 4.95
      vertex 1.78358 -15.1564 4.95
    endloop
  endfacet
  facet normal 0 0 1
    outer loop
      vertex -15.1568 -16.4918 4.95
      vertex -6.22666 -8.47756 4.95
      vertex -6.62541 -8.3928 4.95
    endloop
  endfacet
  facet normal 0 0 1
    outer loop
      vertex -15.1568 -16.4918 4.95
      vertex -6.62541 -8.3928 4.95
      vertex -6.99783 -8.22699 4.95
    endloop
  endfacet
  facet normal 0 0 1
    outer loop
      vertex -15.1568 -16.4918 4.95
      vertex -6.99783 -8.22699 4.95
      vertex -7.32763 -7.98737 4.95
    endloop
  endfacet
  facet normal 0 0 1
    outer loop
      vertex -7.97283 13.6567 4.95
      vertex -16.5 15 4.95
      vertex -7.97283 -6.53824 4.95
    endloop
  endfacet
  facet normal 0 0 1
    outer loop
      vertex 3.15733 -15.9496 4.95
      vertex -15.1568 -16.4918 4.95
      vertex 15.1568 -16.4918 4.95
    endloop
  endfacet
  facet normal 0 0 1
    outer loop
      vertex 2.75858 -15.8648 4.95
      vertex -15.1568 -16.4918 4.95
      vertex 3.15733 -15.9496 4.95
    endloop
  endfacet
  facet normal 0 0 1
    outer loop
      vertex 2.38616 -15.699 4.95
      vertex -15.1568 -16.4918 4.95
      vertex 2.75858 -15.8648 4.95
    endloop
  endfacet
  facet normal 0 0 1
    outer loop
      vertex 2.05636 -15.4594 4.95
      vertex -15.1568 -16.4918 4.95
      vertex 2.38616 -15.699 4.95
    endloop
  endfacet
  facet normal 0 0 1
    outer loop
      vertex 1.78358 -15.1564 4.95
      vertex -15.1568 -16.4918 4.95
      vertex 2.05636 -15.4594 4.95
    endloop
  endfacet
  facet normal 0 0 1
    outer loop
      vertex -16.5 -15 4.95
      vertex -7.32763 -7.98737 4.95
      vertex -7.60041 -7.68442 4.95
    endloop
  endfacet
  facet normal 0 0 1
    outer loop
      vertex -16.5 -15 4.95
      vertex -7.60041 -7.68442 4.95
      vertex -7.80424 -7.33137 4.95
    endloop
  endfacet
  facet normal 0 0 1
    outer loop
      vertex -16.5 -15 4.95
      vertex -7.80424 -7.33137 4.95
      vertex -7.93021 -6.94367 4.95
    endloop
  endfacet
  facet normal 0 0 1
    outer loop
      vertex -16.5 -15 4.95
      vertex -7.97283 -6.53824 4.95
      vertex -16.5 15 4.95
    endloop
  endfacet
  facet normal 0 0 1
    outer loop
      vertex -16.5 15 4.95
      vertex -15.1568 16.4918 4.95
      vertex -15.4635 16.4266 4.95
    endloop
  endfacet
  facet normal 0 0 1
    outer loop
      vertex -7.97283 -6.53824 4.95
      vertex -16.5 -15 4.95
      vertex -7.93021 -6.94367 4.95
    endloop
  endfacet
  facet normal 0 0 1
    outer loop
      vertex -16.5 15 4.95
      vertex -15.4635 16.4266 4.95
      vertex -15.75 16.299 4.95
    endloop
  endfacet
  facet normal 0 0 1
    outer loop
      vertex -7.32763 -7.98737 4.95
      vertex -16.5 -15 4.95
      vertex -15.1568 -16.4918 4.95
    endloop
  endfacet
  facet normal 0 0 1
    outer loop
      vertex -16.5 15 4.95
      vertex -15.75 16.299 4.95
      vertex -16.0037 16.1147 4.95
    endloop
  endfacet
  facet normal 0 0 1
    outer loop
      vertex -15.1568 -16.4918 4.95
      vertex -16.5 -15 4.95
      vertex -15.4635 -16.4266 4.95
    endloop
  endfacet
  facet normal 0 0 1
    outer loop
      vertex -16.5 15 4.95
      vertex -16.0037 16.1147 4.95
      vertex -16.2135 15.8817 4.95
    endloop
  endfacet
  facet normal 0 0 1
    outer loop
      vertex -15.4635 -16.4266 4.95
      vertex -16.5 -15 4.95
      vertex -15.75 -16.299 4.95
    endloop
  endfacet
  facet normal 0 0 1
    outer loop
      vertex -16.5 15 4.95
      vertex -16.2135 15.8817 4.95
      vertex -16.3703 15.6101 4.95
    endloop
  endfacet
  facet normal 0 0 1
    outer loop
      vertex -15.75 -16.299 4.95
      vertex -16.5 -15 4.95
      vertex -16.0037 -16.1147 4.95
    endloop
  endfacet
  facet normal 0 0 1
    outer loop
      vertex -16.5 15 4.95
      vertex -16.3703 15.6101 4.95
      vertex -16.4672 15.3119 4.95
    endloop
  endfacet
  facet normal 0 0 1
    outer loop
      vertex -16.0037 -16.1147 4.95
      vertex -16.5 -15 4.95
      vertex -16.2135 -15.8817 4.95
    endloop
  endfacet
  facet normal 0 0 1
    outer loop
      vertex -16.2135 -15.8817 4.95
      vertex -16.5 -15 4.95
      vertex -16.3703 -15.6101 4.95
    endloop
  endfacet
  facet normal 0 0 1
    outer loop
      vertex -16.3703 -15.6101 4.95
      vertex -16.5 -15 4.95
      vertex -16.4672 -15.3119 4.95
    endloop
  endfacet
  facet normal 0 0 1
    outer loop
      vertex -1.27015 9.0353 4.95
      vertex -1.60083 13.6567 4.95
      vertex -1.60083 8.91323 4.95
    endloop
  endfacet
endsolid OpenSCAD_Model
