solid OpenSCAD_Model
  facet normal 0 -1 0
    outer loop
      vertex -16.8136 -19.4836 0
      vertex 16.8136 -19.4836 8.01
      vertex -16.8136 -19.4836 8.01
    endloop
  endfacet
  facet normal 0 -1 -0
    outer loop
      vertex 16.8136 -19.4836 8.01
      vertex -16.8136 -19.4836 0
      vertex 16.8136 -19.4836 0
    endloop
  endfacet
  facet normal 1 -0 0
    outer loop
      vertex 19.5 -16.5 8.01
      vertex 19.5 16.5 0
      vertex 19.5 16.5 8.01
    endloop
  endfacet
  facet normal 1 0 0
    outer loop
      vertex 19.5 16.5 0
      vertex 19.5 -16.5 8.01
      vertex 19.5 -16.5 0
    endloop
  endfacet
  facet normal -0.207914 -0.978147 0
    outer loop
      vertex -17.4271 -19.3532 0
      vertex -16.8136 -19.4836 8.01
      vertex -17.4271 -19.3532 8.01
    endloop
  endfacet
  facet normal -0.207914 -0.978147 -0
    outer loop
      vertex -16.8136 -19.4836 8.01
      vertex -17.4271 -19.3532 0
      vertex -16.8136 -19.4836 0
    endloop
  endfacet
  facet normal 0.207914 0.978147 -0
    outer loop
      vertex 17.4271 19.3532 0
      vertex 16.8136 19.4836 8.01
      vertex 17.4271 19.3532 8.01
    endloop
  endfacet
  facet normal 0.207914 0.978147 0
    outer loop
      vertex 16.8136 19.4836 8.01
      vertex 17.4271 19.3532 0
      vertex 16.8136 19.4836 0
    endloop
  endfacet
  facet normal 0.866027 0.499997 0
    outer loop
      vertex 19.2406 17.7202 8.01
      vertex 18.9271 18.2634 0
      vertex 18.9271 18.2634 8.01
    endloop
  endfacet
  facet normal 0.866027 0.499997 0
    outer loop
      vertex 18.9271 18.2634 0
      vertex 19.2406 17.7202 8.01
      vertex 19.2406 17.7202 0
    endloop
  endfacet
  facet normal 0.994522 0.104529 0
    outer loop
      vertex 19.5 16.5 8.01
      vertex 19.4344 17.1237 0
      vertex 19.4344 17.1237 8.01
    endloop
  endfacet
  facet normal 0.994522 0.104529 0
    outer loop
      vertex 19.4344 17.1237 0
      vertex 19.5 16.5 8.01
      vertex 19.5 16.5 0
    endloop
  endfacet
  facet normal -0.866027 0.499997 0
    outer loop
      vertex -19.2406 17.7202 0
      vertex -18.9271 18.2634 8.01
      vertex -18.9271 18.2634 0
    endloop
  endfacet
  facet normal -0.866027 0.499997 0
    outer loop
      vertex -18.9271 18.2634 8.01
      vertex -19.2406 17.7202 0
      vertex -19.2406 17.7202 8.01
    endloop
  endfacet
  facet normal 0.951056 -0.309018 0
    outer loop
      vertex 19.2406 -17.7202 8.01
      vertex 19.4344 -17.1237 0
      vertex 19.4344 -17.1237 8.01
    endloop
  endfacet
  facet normal 0.951056 -0.309018 0
    outer loop
      vertex 19.4344 -17.1237 0
      vertex 19.2406 -17.7202 8.01
      vertex 19.2406 -17.7202 0
    endloop
  endfacet
  facet normal 0.994522 -0.104529 0
    outer loop
      vertex 19.4344 -17.1237 8.01
      vertex 19.5 -16.5 0
      vertex 19.5 -16.5 8.01
    endloop
  endfacet
  facet normal 0.994522 -0.104529 0
    outer loop
      vertex 19.5 -16.5 0
      vertex 19.4344 -17.1237 8.01
      vertex 19.4344 -17.1237 0
    endloop
  endfacet
  facet normal 0.587785 -0.809017 0
    outer loop
      vertex 18 -19.0981 0
      vertex 18.5074 -18.7294 8.01
      vertex 18 -19.0981 8.01
    endloop
  endfacet
  facet normal 0.587785 -0.809017 0
    outer loop
      vertex 18.5074 -18.7294 8.01
      vertex 18 -19.0981 0
      vertex 18.5074 -18.7294 0
    endloop
  endfacet
  facet normal -0.406736 -0.913546 0
    outer loop
      vertex -18 -19.0981 0
      vertex -17.4271 -19.3532 8.01
      vertex -18 -19.0981 8.01
    endloop
  endfacet
  facet normal -0.406736 -0.913546 -0
    outer loop
      vertex -17.4271 -19.3532 8.01
      vertex -18 -19.0981 0
      vertex -17.4271 -19.3532 0
    endloop
  endfacet
  facet normal 0 1 -0
    outer loop
      vertex 16.8136 19.4836 0
      vertex -16.8136 19.4836 8.01
      vertex 16.8136 19.4836 8.01
    endloop
  endfacet
  facet normal 0 1 0
    outer loop
      vertex -16.8136 19.4836 8.01
      vertex 16.8136 19.4836 0
      vertex -16.8136 19.4836 0
    endloop
  endfacet
  facet normal 0.951056 0.309018 0
    outer loop
      vertex 19.4344 17.1237 8.01
      vertex 19.2406 17.7202 0
      vertex 19.2406 17.7202 8.01
    endloop
  endfacet
  facet normal 0.951056 0.309018 0
    outer loop
      vertex 19.2406 17.7202 0
      vertex 19.4344 17.1237 8.01
      vertex 19.4344 17.1237 0
    endloop
  endfacet
  facet normal 0.587785 0.809017 -0
    outer loop
      vertex 18.5074 18.7294 0
      vertex 18 19.0981 8.01
      vertex 18.5074 18.7294 8.01
    endloop
  endfacet
  facet normal 0.587785 0.809017 0
    outer loop
      vertex 18 19.0981 8.01
      vertex 18.5074 18.7294 0
      vertex 18 19.0981 0
    endloop
  endfacet
  facet normal 0.406736 0.913546 -0
    outer loop
      vertex 18 19.0981 0
      vertex 17.4271 19.3532 8.01
      vertex 18 19.0981 8.01
    endloop
  endfacet
  facet normal 0.406736 0.913546 0
    outer loop
      vertex 17.4271 19.3532 8.01
      vertex 18 19.0981 0
      vertex 17.4271 19.3532 0
    endloop
  endfacet
  facet normal 0.743144 0.669131 0
    outer loop
      vertex 18.9271 18.2634 8.01
      vertex 18.5074 18.7294 0
      vertex 18.5074 18.7294 8.01
    endloop
  endfacet
  facet normal 0.743144 0.669131 0
    outer loop
      vertex 18.5074 18.7294 0
      vertex 18.9271 18.2634 8.01
      vertex 18.9271 18.2634 0
    endloop
  endfacet
  facet normal -0.994522 -0.104529 0
    outer loop
      vertex -19.4344 -17.1237 0
      vertex -19.5 -16.5 8.01
      vertex -19.5 -16.5 0
    endloop
  endfacet
  facet normal -0.994522 -0.104529 0
    outer loop
      vertex -19.5 -16.5 8.01
      vertex -19.4344 -17.1237 0
      vertex -19.4344 -17.1237 8.01
    endloop
  endfacet
  facet normal -1 0 0
    outer loop
      vertex -19.5 -16.5 0
      vertex -19.5 16.5 8.01
      vertex -19.5 16.5 0
    endloop
  endfacet
  facet normal -1 -0 0
    outer loop
      vertex -19.5 16.5 8.01
      vertex -19.5 -16.5 0
      vertex -19.5 -16.5 8.01
    endloop
  endfacet
  facet normal 0.866027 -0.499997 0
    outer loop
      vertex 18.9271 -18.2634 8.01
      vertex 19.2406 -17.7202 0
      vertex 19.2406 -17.7202 8.01
    endloop
  endfacet
  facet normal 0.866027 -0.499997 0
    outer loop
      vertex 19.2406 -17.7202 0
      vertex 18.9271 -18.2634 8.01
      vertex 18.9271 -18.2634 0
    endloop
  endfacet
  facet normal 0.743144 -0.669131 0
    outer loop
      vertex 18.5074 -18.7294 8.01
      vertex 18.9271 -18.2634 0
      vertex 18.9271 -18.2634 8.01
    endloop
  endfacet
  facet normal 0.743144 -0.669131 0
    outer loop
      vertex 18.9271 -18.2634 0
      vertex 18.5074 -18.7294 8.01
      vertex 18.5074 -18.7294 0
    endloop
  endfacet
  facet normal -0.743144 0.669131 0
    outer loop
      vertex -18.9271 18.2634 0
      vertex -18.5074 18.7294 8.01
      vertex -18.5074 18.7294 0
    endloop
  endfacet
  facet normal -0.743144 0.669131 0
    outer loop
      vertex -18.5074 18.7294 8.01
      vertex -18.9271 18.2634 0
      vertex -18.9271 18.2634 8.01
    endloop
  endfacet
  facet normal -0.743144 -0.669131 0
    outer loop
      vertex -18.5074 -18.7294 0
      vertex -18.9271 -18.2634 8.01
      vertex -18.9271 -18.2634 0
    endloop
  endfacet
  facet normal -0.743144 -0.669131 0
    outer loop
      vertex -18.9271 -18.2634 8.01
      vertex -18.5074 -18.7294 0
      vertex -18.5074 -18.7294 8.01
    endloop
  endfacet
  facet normal -0.994522 0.104529 0
    outer loop
      vertex -19.5 16.5 0
      vertex -19.4344 17.1237 8.01
      vertex -19.4344 17.1237 0
    endloop
  endfacet
  facet normal -0.994522 0.104529 0
    outer loop
      vertex -19.4344 17.1237 8.01
      vertex -19.5 16.5 0
      vertex -19.5 16.5 8.01
    endloop
  endfacet
  facet normal 0 0 1
    outer loop
      vertex 16.2135 15.8817 8.01
      vertex 19.5 16.5 8.01
      vertex 19.4344 17.1237 8.01
    endloop
  endfacet
  facet normal 0 0 1
    outer loop
      vertex 19.5 16.5 8.01
      vertex 16.5 15 8.01
      vertex 19.5 -16.5 8.01
    endloop
  endfacet
  facet normal 0 0 1
    outer loop
      vertex 16.2135 15.8817 8.01
      vertex 19.4344 17.1237 8.01
      vertex 19.2406 17.7202 8.01
    endloop
  endfacet
  facet normal -0 0 1
    outer loop
      vertex 16.5 -15 8.01
      vertex 19.5 -16.5 8.01
      vertex 16.5 15 8.01
    endloop
  endfacet
  facet normal 0 0 1
    outer loop
      vertex 16.2135 15.8817 8.01
      vertex 19.2406 17.7202 8.01
      vertex 18.9271 18.2634 8.01
    endloop
  endfacet
  facet normal -0 0 1
    outer loop
      vertex 16.4672 -15.3119 8.01
      vertex 19.5 -16.5 8.01
      vertex 16.5 -15 8.01
    endloop
  endfacet
  facet normal 0 0 1
    outer loop
      vertex 16.0037 16.1147 8.01
      vertex 18.9271 18.2634 8.01
      vertex 18.5074 18.7294 8.01
    endloop
  endfacet
  facet normal -0 0 1
    outer loop
      vertex 16.3703 -15.6101 8.01
      vertex 19.5 -16.5 8.01
      vertex 16.4672 -15.3119 8.01
    endloop
  endfacet
  facet normal 0 0 1
    outer loop
      vertex 16.0037 16.1147 8.01
      vertex 18.5074 18.7294 8.01
      vertex 18 19.0981 8.01
    endloop
  endfacet
  facet normal -0 0 1
    outer loop
      vertex 16.2135 -15.8817 8.01
      vertex 19.5 -16.5 8.01
      vertex 16.3703 -15.6101 8.01
    endloop
  endfacet
  facet normal 0 0 1
    outer loop
      vertex 16.0037 16.1147 8.01
      vertex 18 19.0981 8.01
      vertex 17.4271 19.3532 8.01
    endloop
  endfacet
  facet normal 0 0 1
    outer loop
      vertex 19.5 -16.5 8.01
      vertex 16.2135 -15.8817 8.01
      vertex 19.4344 -17.1237 8.01
    endloop
  endfacet
  facet normal 0 0 1
    outer loop
      vertex 15.75 16.299 8.01
      vertex 17.4271 19.3532 8.01
      vertex 16.8136 19.4836 8.01
    endloop
  endfacet
  facet normal 0 0 1
    outer loop
      vertex 19.4344 -17.1237 8.01
      vertex 16.2135 -15.8817 8.01
      vertex 19.2406 -17.7202 8.01
    endloop
  endfacet
  facet normal 0 0 1
    outer loop
      vertex 19.2406 -17.7202 8.01
      vertex 16.2135 -15.8817 8.01
      vertex 18.9271 -18.2634 8.01
    endloop
  endfacet
  facet normal 0 0 1
    outer loop
      vertex 19.5 16.5 8.01
      vertex 16.4672 15.3119 8.01
      vertex 16.5 15 8.01
    endloop
  endfacet
  facet normal 0 0 1
    outer loop
      vertex 19.5 16.5 8.01
      vertex 16.3703 15.6101 8.01
      vertex 16.4672 15.3119 8.01
    endloop
  endfacet
  facet normal 0 0 1
    outer loop
      vertex 19.5 16.5 8.01
      vertex 16.2135 15.8817 8.01
      vertex 16.3703 15.6101 8.01
    endloop
  endfacet
  facet normal 0 0 1
    outer loop
      vertex 18.9271 18.2634 8.01
      vertex 16.0037 16.1147 8.01
      vertex 16.2135 15.8817 8.01
    endloop
  endfacet
  facet normal 0 0 1
    outer loop
      vertex 17.4271 19.3532 8.01
      vertex 15.75 16.299 8.01
      vertex 16.0037 16.1147 8.01
    endloop
  endfacet
  facet normal 0 0 1
    outer loop
      vertex 16.8136 19.4836 8.01
      vertex 15.4635 16.4266 8.01
      vertex 15.75 16.299 8.01
    endloop
  endfacet
  facet normal 0 0 1
    outer loop
      vertex 16.8136 19.4836 8.01
      vertex 15.1568 16.4918 8.01
      vertex 15.4635 16.4266 8.01
    endloop
  endfacet
  facet normal 0 0 1
    outer loop
      vertex 16.8136 19.4836 8.01
      vertex -15.1568 16.4918 8.01
      vertex 15.1568 16.4918 8.01
    endloop
  endfacet
  facet normal 0 0 1
    outer loop
      vertex -16.0037 16.1147 8.01
      vertex -18.9271 18.2634 8.01
      vertex -16.2135 15.8817 8.01
    endloop
  endfacet
  facet normal -0 0 1
    outer loop
      vertex -18.9271 18.2634 8.01
      vertex -16.0037 16.1147 8.01
      vertex -18.5074 18.7294 8.01
    endloop
  endfacet
  facet normal -0 0 1
    outer loop
      vertex -18.5074 18.7294 8.01
      vertex -16.0037 16.1147 8.01
      vertex -18 19.0981 8.01
    endloop
  endfacet
  facet normal -0 0 1
    outer loop
      vertex -18 19.0981 8.01
      vertex -16.0037 16.1147 8.01
      vertex -17.4271 19.3532 8.01
    endloop
  endfacet
  facet normal 0 0 1
    outer loop
      vertex -15.75 16.299 8.01
      vertex -17.4271 19.3532 8.01
      vertex -16.0037 16.1147 8.01
    endloop
  endfacet
  facet normal -0 0 1
    outer loop
      vertex -17.4271 19.3532 8.01
      vertex -15.75 16.299 8.01
      vertex -16.8136 19.4836 8.01
    endloop
  endfacet
  facet normal 0 0 1
    outer loop
      vertex -15.4635 16.4266 8.01
      vertex -16.8136 19.4836 8.01
      vertex -15.75 16.299 8.01
    endloop
  endfacet
  facet normal 0 0 1
    outer loop
      vertex -15.1568 16.4918 8.01
      vertex -16.8136 19.4836 8.01
      vertex -15.4635 16.4266 8.01
    endloop
  endfacet
  facet normal -0 0 1
    outer loop
      vertex -16.8136 19.4836 8.01
      vertex -15.1568 16.4918 8.01
      vertex 16.8136 19.4836 8.01
    endloop
  endfacet
  facet normal -0 0 1
    outer loop
      vertex 16.0037 -16.1147 8.01
      vertex 18.9271 -18.2634 8.01
      vertex 16.2135 -15.8817 8.01
    endloop
  endfacet
  facet normal 0 0 1
    outer loop
      vertex 18.9271 -18.2634 8.01
      vertex 16.0037 -16.1147 8.01
      vertex 18.5074 -18.7294 8.01
    endloop
  endfacet
  facet normal 0 0 1
    outer loop
      vertex 18.5074 -18.7294 8.01
      vertex 16.0037 -16.1147 8.01
      vertex 18 -19.0981 8.01
    endloop
  endfacet
  facet normal 0 0 1
    outer loop
      vertex 18 -19.0981 8.01
      vertex 16.0037 -16.1147 8.01
      vertex 17.4271 -19.3532 8.01
    endloop
  endfacet
  facet normal -0 0 1
    outer loop
      vertex 15.75 -16.299 8.01
      vertex 17.4271 -19.3532 8.01
      vertex 16.0037 -16.1147 8.01
    endloop
  endfacet
  facet normal 0 0 1
    outer loop
      vertex 17.4271 -19.3532 8.01
      vertex 15.75 -16.299 8.01
      vertex 16.8136 -19.4836 8.01
    endloop
  endfacet
  facet normal -0 0 1
    outer loop
      vertex 15.4635 -16.4266 8.01
      vertex 16.8136 -19.4836 8.01
      vertex 15.75 -16.299 8.01
    endloop
  endfacet
  facet normal -0 0 1
    outer loop
      vertex 15.1568 -16.4918 8.01
      vertex 16.8136 -19.4836 8.01
      vertex 15.4635 -16.4266 8.01
    endloop
  endfacet
  facet normal -0 0 1
    outer loop
      vertex -15.1568 -16.4918 8.01
      vertex 16.8136 -19.4836 8.01
      vertex 15.1568 -16.4918 8.01
    endloop
  endfacet
  facet normal 0 0 1
    outer loop
      vertex -15.1568 -16.4918 8.01
      vertex -16.8136 -19.4836 8.01
      vertex 16.8136 -19.4836 8.01
    endloop
  endfacet
  facet normal 0 0 1
    outer loop
      vertex -15.4635 -16.4266 8.01
      vertex -16.8136 -19.4836 8.01
      vertex -15.1568 -16.4918 8.01
    endloop
  endfacet
  facet normal 0 0 1
    outer loop
      vertex -15.75 -16.299 8.01
      vertex -16.8136 -19.4836 8.01
      vertex -15.4635 -16.4266 8.01
    endloop
  endfacet
  facet normal 0 0 1
    outer loop
      vertex -17.4271 -19.3532 8.01
      vertex -15.75 -16.299 8.01
      vertex -16.0037 -16.1147 8.01
    endloop
  endfacet
  facet normal 0 0 1
    outer loop
      vertex -18.9271 -18.2634 8.01
      vertex -16.0037 -16.1147 8.01
      vertex -16.2135 -15.8817 8.01
    endloop
  endfacet
  facet normal 0 0 1
    outer loop
      vertex -19.5 -16.5 8.01
      vertex -16.2135 -15.8817 8.01
      vertex -16.3703 -15.6101 8.01
    endloop
  endfacet
  facet normal 0 0 1
    outer loop
      vertex -19.5 -16.5 8.01
      vertex -16.3703 -15.6101 8.01
      vertex -16.4672 -15.3119 8.01
    endloop
  endfacet
  facet normal 0 0 1
    outer loop
      vertex -19.5 -16.5 8.01
      vertex -16.4672 -15.3119 8.01
      vertex -16.5 -15 8.01
    endloop
  endfacet
  facet normal 0 0 1
    outer loop
      vertex -16.5 15 8.01
      vertex -19.5 16.5 8.01
      vertex -16.5 -15 8.01
    endloop
  endfacet
  facet normal -0 0 1
    outer loop
      vertex -19.2406 17.7202 8.01
      vertex -16.2135 15.8817 8.01
      vertex -18.9271 18.2634 8.01
    endloop
  endfacet
  facet normal 0 0 1
    outer loop
      vertex -19.5 -16.5 8.01
      vertex -16.5 -15 8.01
      vertex -19.5 16.5 8.01
    endloop
  endfacet
  facet normal -0 0 1
    outer loop
      vertex -19.4344 17.1237 8.01
      vertex -16.2135 15.8817 8.01
      vertex -19.2406 17.7202 8.01
    endloop
  endfacet
  facet normal 0 0 1
    outer loop
      vertex -16.2135 -15.8817 8.01
      vertex -19.5 -16.5 8.01
      vertex -19.4344 -17.1237 8.01
    endloop
  endfacet
  facet normal -0 0 1
    outer loop
      vertex -19.5 16.5 8.01
      vertex -16.2135 15.8817 8.01
      vertex -19.4344 17.1237 8.01
    endloop
  endfacet
  facet normal 0 0 1
    outer loop
      vertex -15.75 -16.299 8.01
      vertex -17.4271 -19.3532 8.01
      vertex -16.8136 -19.4836 8.01
    endloop
  endfacet
  facet normal 0 0 1
    outer loop
      vertex -16.2135 15.8817 8.01
      vertex -19.5 16.5 8.01
      vertex -16.3703 15.6101 8.01
    endloop
  endfacet
  facet normal 0 0 1
    outer loop
      vertex -16.0037 -16.1147 8.01
      vertex -18 -19.0981 8.01
      vertex -17.4271 -19.3532 8.01
    endloop
  endfacet
  facet normal 0 0 1
    outer loop
      vertex -16.3703 15.6101 8.01
      vertex -19.5 16.5 8.01
      vertex -16.4672 15.3119 8.01
    endloop
  endfacet
  facet normal 0 0 1
    outer loop
      vertex -16.0037 -16.1147 8.01
      vertex -18.5074 -18.7294 8.01
      vertex -18 -19.0981 8.01
    endloop
  endfacet
  facet normal 0 0 1
    outer loop
      vertex -16.4672 15.3119 8.01
      vertex -19.5 16.5 8.01
      vertex -16.5 15 8.01
    endloop
  endfacet
  facet normal 0 0 1
    outer loop
      vertex -16.0037 -16.1147 8.01
      vertex -18.9271 -18.2634 8.01
      vertex -18.5074 -18.7294 8.01
    endloop
  endfacet
  facet normal 0 0 1
    outer loop
      vertex -16.2135 -15.8817 8.01
      vertex -19.2406 -17.7202 8.01
      vertex -18.9271 -18.2634 8.01
    endloop
  endfacet
  facet normal 0 0 1
    outer loop
      vertex -16.2135 -15.8817 8.01
      vertex -19.4344 -17.1237 8.01
      vertex -19.2406 -17.7202 8.01
    endloop
  endfacet
  facet normal 0.406736 -0.913546 0
    outer loop
      vertex 17.4271 -19.3532 0
      vertex 18 -19.0981 8.01
      vertex 17.4271 -19.3532 8.01
    endloop
  endfacet
  facet normal 0.406736 -0.913546 0
    outer loop
      vertex 18 -19.0981 8.01
      vertex 17.4271 -19.3532 0
      vertex 18 -19.0981 0
    endloop
  endfacet
  facet normal 0.207914 -0.978147 0
    outer loop
      vertex 16.8136 -19.4836 0
      vertex 17.4271 -19.3532 8.01
      vertex 16.8136 -19.4836 8.01
    endloop
  endfacet
  facet normal 0.207914 -0.978147 0
    outer loop
      vertex 17.4271 -19.3532 8.01
      vertex 16.8136 -19.4836 0
      vertex 17.4271 -19.3532 0
    endloop
  endfacet
  facet normal -0.406736 0.913546 0
    outer loop
      vertex -17.4271 19.3532 0
      vertex -18 19.0981 8.01
      vertex -17.4271 19.3532 8.01
    endloop
  endfacet
  facet normal -0.406736 0.913546 0
    outer loop
      vertex -18 19.0981 8.01
      vertex -17.4271 19.3532 0
      vertex -18 19.0981 0
    endloop
  endfacet
  facet normal -0.207914 0.978147 0
    outer loop
      vertex -16.8136 19.4836 0
      vertex -17.4271 19.3532 8.01
      vertex -16.8136 19.4836 8.01
    endloop
  endfacet
  facet normal -0.207914 0.978147 0
    outer loop
      vertex -17.4271 19.3532 8.01
      vertex -16.8136 19.4836 0
      vertex -17.4271 19.3532 0
    endloop
  endfacet
  facet normal -0.587785 0.809017 0
    outer loop
      vertex -18 19.0981 0
      vertex -18.5074 18.7294 8.01
      vertex -18 19.0981 8.01
    endloop
  endfacet
  facet normal -0.587785 0.809017 0
    outer loop
      vertex -18.5074 18.7294 8.01
      vertex -18 19.0981 0
      vertex -18.5074 18.7294 0
    endloop
  endfacet
  facet normal -0.587785 -0.809017 0
    outer loop
      vertex -18.5074 -18.7294 0
      vertex -18 -19.0981 8.01
      vertex -18.5074 -18.7294 8.01
    endloop
  endfacet
  facet normal -0.587785 -0.809017 -0
    outer loop
      vertex -18 -19.0981 8.01
      vertex -18.5074 -18.7294 0
      vertex -18 -19.0981 0
    endloop
  endfacet
  facet normal 0 0 -1
    outer loop
      vertex 16.8136 -19.4836 0
      vertex 19.5 -16.5 0
      vertex 19.4344 -17.1237 0
    endloop
  endfacet
  facet normal 0 0 -1
    outer loop
      vertex -19.5 -16.5 0
      vertex 19.5 -16.5 0
      vertex 16.8136 -19.4836 0
    endloop
  endfacet
  facet normal 0 0 -1
    outer loop
      vertex 16.8136 -19.4836 0
      vertex 19.4344 -17.1237 0
      vertex 19.2406 -17.7202 0
    endloop
  endfacet
  facet normal 0 0 -1
    outer loop
      vertex 19.5 -16.5 0
      vertex -19.5 -16.5 0
      vertex 19.5 16.5 0
    endloop
  endfacet
  facet normal 0 0 -1
    outer loop
      vertex 16.8136 -19.4836 0
      vertex 19.2406 -17.7202 0
      vertex 18.9271 -18.2634 0
    endloop
  endfacet
  facet normal 0 0 -1
    outer loop
      vertex 19.5 16.5 0
      vertex 16.8136 19.4836 0
      vertex 19.4344 17.1237 0
    endloop
  endfacet
  facet normal 0 0 -1
    outer loop
      vertex 16.8136 -19.4836 0
      vertex 18.9271 -18.2634 0
      vertex 18.5074 -18.7294 0
    endloop
  endfacet
  facet normal 0 0 -1
    outer loop
      vertex 19.4344 17.1237 0
      vertex 16.8136 19.4836 0
      vertex 19.2406 17.7202 0
    endloop
  endfacet
  facet normal 0 0 -1
    outer loop
      vertex 16.8136 -19.4836 0
      vertex 18.5074 -18.7294 0
      vertex 18 -19.0981 0
    endloop
  endfacet
  facet normal 0 0 -1
    outer loop
      vertex 19.2406 17.7202 0
      vertex 16.8136 19.4836 0
      vertex 18.9271 18.2634 0
    endloop
  endfacet
  facet normal 0 0 -1
    outer loop
      vertex 16.8136 -19.4836 0
      vertex 18 -19.0981 0
      vertex 17.4271 -19.3532 0
    endloop
  endfacet
  facet normal 0 0 -1
    outer loop
      vertex 18.9271 18.2634 0
      vertex 16.8136 19.4836 0
      vertex 18.5074 18.7294 0
    endloop
  endfacet
  facet normal 0 0 -1
    outer loop
      vertex 18.5074 18.7294 0
      vertex 16.8136 19.4836 0
      vertex 18 19.0981 0
    endloop
  endfacet
  facet normal 0 0 -1
    outer loop
      vertex 18 19.0981 0
      vertex 16.8136 19.4836 0
      vertex 17.4271 19.3532 0
    endloop
  endfacet
  facet normal 0 0 -1
    outer loop
      vertex -19.5 -16.5 0
      vertex 16.8136 -19.4836 0
      vertex -16.8136 -19.4836 0
    endloop
  endfacet
  facet normal 0 0 -1
    outer loop
      vertex -19.5 16.5 0
      vertex 19.5 16.5 0
      vertex -19.5 -16.5 0
    endloop
  endfacet
  facet normal 0 0 -1
    outer loop
      vertex -19.5 -16.5 0
      vertex -16.8136 -19.4836 0
      vertex -17.4271 -19.3532 0
    endloop
  endfacet
  facet normal 0 0 -1
    outer loop
      vertex 19.5 16.5 0
      vertex -19.5 16.5 0
      vertex 16.8136 19.4836 0
    endloop
  endfacet
  facet normal 0 0 -1
    outer loop
      vertex -19.5 -16.5 0
      vertex -17.4271 -19.3532 0
      vertex -18 -19.0981 0
    endloop
  endfacet
  facet normal -0 0 -1
    outer loop
      vertex 16.8136 19.4836 0
      vertex -19.5 16.5 0
      vertex -16.8136 19.4836 0
    endloop
  endfacet
  facet normal 0 0 -1
    outer loop
      vertex -19.5 -16.5 0
      vertex -18 -19.0981 0
      vertex -18.5074 -18.7294 0
    endloop
  endfacet
  facet normal 0 0 -1
    outer loop
      vertex -16.8136 19.4836 0
      vertex -19.5 16.5 0
      vertex -17.4271 19.3532 0
    endloop
  endfacet
  facet normal 0 0 -1
    outer loop
      vertex -19.5 -16.5 0
      vertex -18.5074 -18.7294 0
      vertex -18.9271 -18.2634 0
    endloop
  endfacet
  facet normal 0 0 -1
    outer loop
      vertex -17.4271 19.3532 0
      vertex -19.5 16.5 0
      vertex -18 19.0981 0
    endloop
  endfacet
  facet normal 0 0 -1
    outer loop
      vertex -19.5 -16.5 0
      vertex -18.9271 -18.2634 0
      vertex -19.2406 -17.7202 0
    endloop
  endfacet
  facet normal 0 0 -1
    outer loop
      vertex -18 19.0981 0
      vertex -19.5 16.5 0
      vertex -18.5074 18.7294 0
    endloop
  endfacet
  facet normal 0 0 -1
    outer loop
      vertex -19.5 -16.5 0
      vertex -19.2406 -17.7202 0
      vertex -19.4344 -17.1237 0
    endloop
  endfacet
  facet normal 0 0 -1
    outer loop
      vertex -18.5074 18.7294 0
      vertex -19.5 16.5 0
      vertex -18.9271 18.2634 0
    endloop
  endfacet
  facet normal 0 0 -1
    outer loop
      vertex -18.9271 18.2634 0
      vertex -19.5 16.5 0
      vertex -19.2406 17.7202 0
    endloop
  endfacet
  facet normal 0 0 -1
    outer loop
      vertex -19.2406 17.7202 0
      vertex -19.5 16.5 0
      vertex -19.4344 17.1237 0
    endloop
  endfacet
  facet normal -0.951056 -0.309018 0
    outer loop
      vertex -19.2406 -17.7202 0
      vertex -19.4344 -17.1237 8.01
      vertex -19.4344 -17.1237 0
    endloop
  endfacet
  facet normal -0.951056 -0.309018 0
    outer loop
      vertex -19.4344 -17.1237 8.01
      vertex -19.2406 -17.7202 0
      vertex -19.2406 -17.7202 8.01
    endloop
  endfacet
  facet normal -0.951056 0.309018 0
    outer loop
      vertex -19.4344 17.1237 0
      vertex -19.2406 17.7202 8.01
      vertex -19.2406 17.7202 0
    endloop
  endfacet
  facet normal -0.951056 0.309018 0
    outer loop
      vertex -19.2406 17.7202 8.01
      vertex -19.4344 17.1237 0
      vertex -19.4344 17.1237 8.01
    endloop
  endfacet
  facet normal -0.866027 -0.499997 0
    outer loop
      vertex -18.9271 -18.2634 0
      vertex -19.2406 -17.7202 8.01
      vertex -19.2406 -17.7202 0
    endloop
  endfacet
  facet normal -0.866027 -0.499997 0
    outer loop
      vertex -19.2406 -17.7202 8.01
      vertex -18.9271 -18.2634 0
      vertex -18.9271 -18.2634 8.01
    endloop
  endfacet
  facet normal -0.994522 -0.104532 0
    outer loop
      vertex 16.5 15 4.95
      vertex 16.4672 15.3119 8.01
      vertex 16.4672 15.3119 4.95
    endloop
  endfacet
  facet normal -0.994522 -0.104532 0
    outer loop
      vertex 16.4672 15.3119 8.01
      vertex 16.5 15 4.95
      vertex 16.5 15 8.01
    endloop
  endfacet
  facet normal 0 1 -0
    outer loop
      vertex 15.1568 -16.4918 4.95
      vertex -15.1568 -16.4918 8.01
      vertex 15.1568 -16.4918 8.01
    endloop
  endfacet
  facet normal 0 1 0
    outer loop
      vertex -15.1568 -16.4918 8.01
      vertex 15.1568 -16.4918 4.95
      vertex -15.1568 -16.4918 4.95
    endloop
  endfacet
  facet normal -0.207915 -0.978147 0
    outer loop
      vertex 15.1568 16.4918 4.95
      vertex 15.4635 16.4266 8.01
      vertex 15.1568 16.4918 8.01
    endloop
  endfacet
  facet normal -0.207915 -0.978147 -0
    outer loop
      vertex 15.4635 16.4266 8.01
      vertex 15.1568 16.4918 4.95
      vertex 15.4635 16.4266 4.95
    endloop
  endfacet
  facet normal -1 0 0
    outer loop
      vertex 16.5 -15 4.95
      vertex 16.5 15 8.01
      vertex 16.5 15 4.95
    endloop
  endfacet
  facet normal -1 -0 0
    outer loop
      vertex 16.5 15 8.01
      vertex 16.5 -15 4.95
      vertex 16.5 -15 8.01
    endloop
  endfacet
  facet normal 0 -1 0
    outer loop
      vertex -15.1568 16.4918 4.95
      vertex 15.1568 16.4918 8.01
      vertex -15.1568 16.4918 8.01
    endloop
  endfacet
  facet normal 0 -1 -0
    outer loop
      vertex 15.1568 16.4918 8.01
      vertex -15.1568 16.4918 4.95
      vertex 15.1568 16.4918 4.95
    endloop
  endfacet
  facet normal -0.743146 -0.669129 0
    outer loop
      vertex 16.2135 15.8817 4.95
      vertex 16.0037 16.1147 8.01
      vertex 16.0037 16.1147 4.95
    endloop
  endfacet
  facet normal -0.743146 -0.669129 0
    outer loop
      vertex 16.0037 16.1147 8.01
      vertex 16.2135 15.8817 4.95
      vertex 16.2135 15.8817 8.01
    endloop
  endfacet
  facet normal -0.587788 0.809015 0
    outer loop
      vertex 16.0037 -16.1147 4.95
      vertex 15.75 -16.299 8.01
      vertex 16.0037 -16.1147 8.01
    endloop
  endfacet
  facet normal -0.587788 0.809015 0
    outer loop
      vertex 15.75 -16.299 8.01
      vertex 16.0037 -16.1147 4.95
      vertex 15.75 -16.299 4.95
    endloop
  endfacet
  facet normal 0.994522 0.104532 0
    outer loop
      vertex -16.4672 -15.3119 8.01
      vertex -16.5 -15 4.95
      vertex -16.5 -15 8.01
    endloop
  endfacet
  facet normal 0.994522 0.104532 0
    outer loop
      vertex -16.5 -15 4.95
      vertex -16.4672 -15.3119 8.01
      vertex -16.4672 -15.3119 4.95
    endloop
  endfacet
  facet normal 0.207915 0.978147 -0
    outer loop
      vertex -15.1568 -16.4918 4.95
      vertex -15.4635 -16.4266 8.01
      vertex -15.1568 -16.4918 8.01
    endloop
  endfacet
  facet normal 0.207915 0.978147 0
    outer loop
      vertex -15.4635 -16.4266 8.01
      vertex -15.1568 -16.4918 4.95
      vertex -15.4635 -16.4266 4.95
    endloop
  endfacet
  facet normal 1 -0 0
    outer loop
      vertex -16.5 -15 8.01
      vertex -16.5 15 4.95
      vertex -16.5 15 8.01
    endloop
  endfacet
  facet normal 1 0 0
    outer loop
      vertex -16.5 15 4.95
      vertex -16.5 -15 8.01
      vertex -16.5 -15 4.95
    endloop
  endfacet
  facet normal 0.587786 -0.809016 0
    outer loop
      vertex -16.0037 16.1147 4.95
      vertex -15.75 16.299 8.01
      vertex -16.0037 16.1147 8.01
    endloop
  endfacet
  facet normal 0.587786 -0.809016 0
    outer loop
      vertex -15.75 16.299 8.01
      vertex -16.0037 16.1147 4.95
      vertex -15.75 16.299 4.95
    endloop
  endfacet
  facet normal -0.406735 -0.913546 0
    outer loop
      vertex 15.4635 16.4266 4.95
      vertex 15.75 16.299 8.01
      vertex 15.4635 16.4266 8.01
    endloop
  endfacet
  facet normal -0.406735 -0.913546 -0
    outer loop
      vertex 15.75 16.299 8.01
      vertex 15.4635 16.4266 4.95
      vertex 15.75 16.299 4.95
    endloop
  endfacet
  facet normal -0.587788 -0.809015 0
    outer loop
      vertex 15.75 16.299 4.95
      vertex 16.0037 16.1147 8.01
      vertex 15.75 16.299 8.01
    endloop
  endfacet
  facet normal -0.587788 -0.809015 -0
    outer loop
      vertex 16.0037 16.1147 8.01
      vertex 15.75 16.299 4.95
      vertex 16.0037 16.1147 4.95
    endloop
  endfacet
  facet normal -0.866024 -0.500002 0
    outer loop
      vertex 16.3703 15.6101 4.95
      vertex 16.2135 15.8817 8.01
      vertex 16.2135 15.8817 4.95
    endloop
  endfacet
  facet normal -0.866024 -0.500002 0
    outer loop
      vertex 16.2135 15.8817 8.01
      vertex 16.3703 15.6101 4.95
      vertex 16.3703 15.6101 8.01
    endloop
  endfacet
  facet normal -0.951057 -0.309016 0
    outer loop
      vertex 16.4672 15.3119 4.95
      vertex 16.3703 15.6101 8.01
      vertex 16.3703 15.6101 4.95
    endloop
  endfacet
  facet normal -0.951057 -0.309016 0
    outer loop
      vertex 16.3703 15.6101 8.01
      vertex 16.4672 15.3119 4.95
      vertex 16.4672 15.3119 8.01
    endloop
  endfacet
  facet normal -0.951057 0.309016 0
    outer loop
      vertex 16.3703 -15.6101 4.95
      vertex 16.4672 -15.3119 8.01
      vertex 16.4672 -15.3119 4.95
    endloop
  endfacet
  facet normal -0.951057 0.309016 0
    outer loop
      vertex 16.4672 -15.3119 8.01
      vertex 16.3703 -15.6101 4.95
      vertex 16.3703 -15.6101 8.01
    endloop
  endfacet
  facet normal 0.406735 0.913546 -0
    outer loop
      vertex -15.4635 -16.4266 4.95
      vertex -15.75 -16.299 8.01
      vertex -15.4635 -16.4266 8.01
    endloop
  endfacet
  facet normal 0.406735 0.913546 0
    outer loop
      vertex -15.75 -16.299 8.01
      vertex -15.4635 -16.4266 4.95
      vertex -15.75 -16.299 4.95
    endloop
  endfacet
  facet normal 0.994522 -0.104532 0
    outer loop
      vertex -16.5 15 8.01
      vertex -16.4672 15.3119 4.95
      vertex -16.4672 15.3119 8.01
    endloop
  endfacet
  facet normal 0.994522 -0.104532 0
    outer loop
      vertex -16.4672 15.3119 4.95
      vertex -16.5 15 8.01
      vertex -16.5 15 4.95
    endloop
  endfacet
  facet normal 0.207915 -0.978147 0
    outer loop
      vertex -15.4635 16.4266 4.95
      vertex -15.1568 16.4918 8.01
      vertex -15.4635 16.4266 8.01
    endloop
  endfacet
  facet normal 0.207915 -0.978147 0
    outer loop
      vertex -15.1568 16.4918 8.01
      vertex -15.4635 16.4266 4.95
      vertex -15.1568 16.4918 4.95
    endloop
  endfacet
  facet normal 0.406736 -0.913546 0
    outer loop
      vertex -15.75 16.299 4.95
      vertex -15.4635 16.4266 8.01
      vertex -15.75 16.299 8.01
    endloop
  endfacet
  facet normal 0.406736 -0.913546 0
    outer loop
      vertex -15.4635 16.4266 8.01
      vertex -15.75 16.299 4.95
      vertex -15.4635 16.4266 4.95
    endloop
  endfacet
  facet normal -0.994522 0.104532 0
    outer loop
      vertex 16.4672 -15.3119 4.95
      vertex 16.5 -15 8.01
      vertex 16.5 -15 4.95
    endloop
  endfacet
  facet normal -0.994522 0.104532 0
    outer loop
      vertex 16.5 -15 8.01
      vertex 16.4672 -15.3119 4.95
      vertex 16.4672 -15.3119 8.01
    endloop
  endfacet
  facet normal -0.406735 0.913546 0
    outer loop
      vertex 15.75 -16.299 4.95
      vertex 15.4635 -16.4266 8.01
      vertex 15.75 -16.299 8.01
    endloop
  endfacet
  facet normal -0.406735 0.913546 0
    outer loop
      vertex 15.4635 -16.4266 8.01
      vertex 15.75 -16.299 4.95
      vertex 15.4635 -16.4266 4.95
    endloop
  endfacet
  facet normal -0.207915 0.978147 0
    outer loop
      vertex 15.4635 -16.4266 4.95
      vertex 15.1568 -16.4918 8.01
      vertex 15.4635 -16.4266 8.01
    endloop
  endfacet
  facet normal -0.207915 0.978147 0
    outer loop
      vertex 15.1568 -16.4918 8.01
      vertex 15.4635 -16.4266 4.95
      vertex 15.1568 -16.4918 4.95
    endloop
  endfacet
  facet normal 0.743146 0.669129 0
    outer loop
      vertex -16.0037 -16.1147 8.01
      vertex -16.2135 -15.8817 4.95
      vertex -16.2135 -15.8817 8.01
    endloop
  endfacet
  facet normal 0.743146 0.669129 0
    outer loop
      vertex -16.2135 -15.8817 4.95
      vertex -16.0037 -16.1147 8.01
      vertex -16.0037 -16.1147 4.95
    endloop
  endfacet
  facet normal 0.951057 -0.309016 0
    outer loop
      vertex -16.4672 15.3119 8.01
      vertex -16.3703 15.6101 4.95
      vertex -16.3703 15.6101 8.01
    endloop
  endfacet
  facet normal 0.951057 -0.309016 0
    outer loop
      vertex -16.3703 15.6101 4.95
      vertex -16.4672 15.3119 8.01
      vertex -16.4672 15.3119 4.95
    endloop
  endfacet
  facet normal 0.866024 -0.500002 0
    outer loop
      vertex -16.3703 15.6101 8.01
      vertex -16.2135 15.8817 4.95
      vertex -16.2135 15.8817 8.01
    endloop
  endfacet
  facet normal 0.866024 -0.500002 0
    outer loop
      vertex -16.2135 15.8817 4.95
      vertex -16.3703 15.6101 8.01
      vertex -16.3703 15.6101 4.95
    endloop
  endfacet
  facet normal 0.743146 -0.669129 0
    outer loop
      vertex -16.2135 15.8817 8.01
      vertex -16.0037 16.1147 4.95
      vertex -16.0037 16.1147 8.01
    endloop
  endfacet
  facet normal 0.743146 -0.669129 0
    outer loop
      vertex -16.0037 16.1147 4.95
      vertex -16.2135 15.8817 8.01
      vertex -16.2135 15.8817 4.95
    endloop
  endfacet
  facet normal -0.866024 0.500002 0
    outer loop
      vertex 16.2135 -15.8817 4.95
      vertex 16.3703 -15.6101 8.01
      vertex 16.3703 -15.6101 4.95
    endloop
  endfacet
  facet normal -0.866024 0.500002 0
    outer loop
      vertex 16.3703 -15.6101 8.01
      vertex 16.2135 -15.8817 4.95
      vertex 16.2135 -15.8817 8.01
    endloop
  endfacet
  facet normal -0.743146 0.669129 0
    outer loop
      vertex 16.0037 -16.1147 4.95
      vertex 16.2135 -15.8817 8.01
      vertex 16.2135 -15.8817 4.95
    endloop
  endfacet
  facet normal -0.743146 0.669129 0
    outer loop
      vertex 16.2135 -15.8817 8.01
      vertex 16.0037 -16.1147 4.95
      vertex 16.0037 -16.1147 8.01
    endloop
  endfacet
  facet normal 0.951057 0.309016 0
    outer loop
      vertex -16.3703 -15.6101 8.01
      vertex -16.4672 -15.3119 4.95
      vertex -16.4672 -15.3119 8.01
    endloop
  endfacet
  facet normal 0.951057 0.309016 0
    outer loop
      vertex -16.4672 -15.3119 4.95
      vertex -16.3703 -15.6101 8.01
      vertex -16.3703 -15.6101 4.95
    endloop
  endfacet
  facet normal 0.866024 0.500002 0
    outer loop
      vertex -16.2135 -15.8817 8.01
      vertex -16.3703 -15.6101 4.95
      vertex -16.3703 -15.6101 8.01
    endloop
  endfacet
  facet normal 0.866024 0.500002 0
    outer loop
      vertex -16.3703 -15.6101 4.95
      vertex -16.2135 -15.8817 8.01
      vertex -16.2135 -15.8817 4.95
    endloop
  endfacet
  facet normal 0.587788 0.809015 -0
    outer loop
      vertex -15.75 -16.299 4.95
      vertex -16.0037 -16.1147 8.01
      vertex -15.75 -16.299 8.01
    endloop
  endfacet
  facet normal 0.587788 0.809015 0
    outer loop
      vertex -16.0037 -16.1147 8.01
      vertex -15.75 -16.299 4.95
      vertex -16.0037 -16.1147 4.95
    endloop
  endfacet
  facet normal 0.663198 -0.247247 0.706426
    outer loop
      vertex 0.840476 -2.20407 4.95
      vertex 2.92516 -2.18375 3
      vertex 1.03674 -1.67764 4.95
    endloop
  endfacet
  facet normal 0.663198 -0.247247 0.706426
    outer loop
      vertex 2.92516 -2.18375 3
      vertex 0.840476 -2.20407 4.95
      vertex 2.59016 -3.08231 3
    endloop
  endfacet
  facet normal -0 0 1
    outer loop
      vertex -6.21483 6.8125 3
      vertex -3.74283 -1.4375 3
      vertex -3.74283 6.8125 3
    endloop
  endfacet
  facet normal 0 -0 1
    outer loop
      vertex -6.1882 -2.30812 3
      vertex -3.74283 -1.4375 3
      vertex -6.21483 -1.90948 3
    endloop
  endfacet
  facet normal 0 -0 1
    outer loop
      vertex -6.13804 -3.05899 3
      vertex -3.74283 -1.4375 3
      vertex -6.1882 -2.30812 3
    endloop
  endfacet
  facet normal 0 -0 1
    outer loop
      vertex -5.88452 -4.20149 3
      vertex -3.74283 -1.4375 3
      vertex -6.00437 -3.69012 3
    endloop
  endfacet
  facet normal 0 -0 1
    outer loop
      vertex -5.57615 -4.87874 3
      vertex -3.74283 -1.4375 3
      vertex -5.70464 -4.59656 3
    endloop
  endfacet
  facet normal 0 0 1
    outer loop
      vertex -3.74283 -1.4375 3
      vertex -5.4693 -5.10449 3
      vertex -4.90683 -5.82649 3
    endloop
  endfacet
  facet normal 0 0 1
    outer loop
      vertex -5.4693 -5.10449 3
      vertex -5.49906 -5.04805 3
      vertex -5.47908 -5.09193 3
    endloop
  endfacet
  facet normal 0 0 1
    outer loop
      vertex -5.4693 -5.10449 3
      vertex -5.57615 -4.87874 3
      vertex -5.49906 -5.04805 3
    endloop
  endfacet
  facet normal 0 -0 1
    outer loop
      vertex -5.4693 -5.10449 3
      vertex -3.74283 -1.4375 3
      vertex -5.57615 -4.87874 3
    endloop
  endfacet
  facet normal 0 0 1
    outer loop
      vertex -3.74283 -1.4375 3
      vertex -5.88452 -4.20149 3
      vertex -5.70464 -4.59656 3
    endloop
  endfacet
  facet normal 0 0 1
    outer loop
      vertex -5.88452 -4.20149 3
      vertex -6.00437 -3.69012 3
      vertex -5.88782 -4.19424 3
    endloop
  endfacet
  facet normal 0 0 1
    outer loop
      vertex -3.74283 -1.4375 3
      vertex -6.13307 -3.13342 3
      vertex -6.00437 -3.69012 3
    endloop
  endfacet
  facet normal 0 -0 1
    outer loop
      vertex -6.13307 -3.13342 3
      vertex -3.74283 -1.4375 3
      vertex -6.13804 -3.05899 3
    endloop
  endfacet
  facet normal 0 0 1
    outer loop
      vertex -3.74283 -1.4375 3
      vertex -6.21483 6.8125 3
      vertex -6.21483 -1.90948 3
    endloop
  endfacet
  facet normal 0 0 1
    outer loop
      vertex -3.74283 -1.4375 3
      vertex -4.90683 -5.82649 3
      vertex -4.19014 -6.39787 3
    endloop
  endfacet
  facet normal -0 0 1
    outer loop
      vertex 3.19316 0.1185 3
      vertex 5.66516 -6.85449 3
      vertex 5.66516 6.8125 3
    endloop
  endfacet
  facet normal 0 0 1
    outer loop
      vertex 5.66516 -6.85449 3
      vertex 3.41516 -4.4375 3
      vertex 3.72116 -6.85449 3
    endloop
  endfacet
  facet normal 0 0 1
    outer loop
      vertex 5.66516 -6.85449 3
      vertex 3.12616 -1.11681 3
      vertex 3.41516 -4.4375 3
    endloop
  endfacet
  facet normal 0 0 1
    outer loop
      vertex 3.19316 0.1185 3
      vertex 5.66516 6.8125 3
      vertex 3.19316 6.8125 3
    endloop
  endfacet
  facet normal 0 0 1
    outer loop
      vertex 5.66516 -6.85449 3
      vertex 3.19316 0.1185 3
      vertex 3.12616 -1.11681 3
    endloop
  endfacet
  facet normal -0 0 1
    outer loop
      vertex 2.92516 -2.18375 3
      vertex 3.41516 -4.4375 3
      vertex 3.12616 -1.11681 3
    endloop
  endfacet
  facet normal -0 0 1
    outer loop
      vertex 2.59016 -3.08231 3
      vertex 3.41516 -4.4375 3
      vertex 2.92516 -2.18375 3
    endloop
  endfacet
  facet normal 0 0 1
    outer loop
      vertex 3.41516 -4.4375 3
      vertex 2.59016 -3.08231 3
      vertex 3.27615 -4.4375 3
    endloop
  endfacet
  facet normal -0 0 1
    outer loop
      vertex 2.12115 -3.8125 3
      vertex 3.27615 -4.4375 3
      vertex 2.59016 -3.08231 3
    endloop
  endfacet
  facet normal 0 0 1
    outer loop
      vertex 3.27615 -4.4375 3
      vertex 2.12115 -3.8125 3
      vertex 3.08198 -4.78149 3
    endloop
  endfacet
  facet normal 0 0 1
    outer loop
      vertex 3.08198 -4.78149 3
      vertex 2.12115 -3.8125 3
      vertex 2.97385 -4.97305 3
    endloop
  endfacet
  facet normal 0 0 1
    outer loop
      vertex 2.97385 -4.97305 3
      vertex 2.12115 -3.8125 3
      vertex 2.9351 -5.02374 3
    endloop
  endfacet
  facet normal -0 0 1
    outer loop
      vertex 1.54204 -4.37775 3
      vertex 2.9351 -5.02374 3
      vertex 2.12115 -3.8125 3
    endloop
  endfacet
  facet normal 0 0 1
    outer loop
      vertex 2.9351 -5.02374 3
      vertex 1.54204 -4.37775 3
      vertex 2.87337 -5.10449 3
    endloop
  endfacet
  facet normal 0 0 1
    outer loop
      vertex 2.87337 -5.10449 3
      vertex 1.54204 -4.37775 3
      vertex 2.59491 -5.46875 3
    endloop
  endfacet
  facet normal -0 0 1
    outer loop
      vertex 1.44371 -4.4375 3
      vertex 2.59491 -5.46875 3
      vertex 1.54204 -4.37775 3
    endloop
  endfacet
  facet normal 0 0 1
    outer loop
      vertex 2.59491 -5.46875 3
      vertex 1.44371 -4.4375 3
      vertex 2.13934 -5.92456 3
    endloop
  endfacet
  facet normal -0 0 1
    outer loop
      vertex 0.877655 -4.78149 3
      vertex 2.13934 -5.92456 3
      vertex 1.44371 -4.4375 3
    endloop
  endfacet
  facet normal 0 0 1
    outer loop
      vertex 2.13934 -5.92456 3
      vertex 0.877655 -4.78149 3
      vertex 1.60716 -6.3405 3
    endloop
  endfacet
  facet normal 0 0 1
    outer loop
      vertex 1.60716 -6.3405 3
      vertex 0.877655 -4.78149 3
      vertex 0.997971 -6.687 3
    endloop
  endfacet
  facet normal -0 0 1
    outer loop
      vertex 0.128036 -5.02374 3
      vertex 0.997971 -6.687 3
      vertex 0.877655 -4.78149 3
    endloop
  endfacet
  facet normal 0 0 1
    outer loop
      vertex 0.997971 -6.687 3
      vertex 0.128036 -5.02374 3
      vertex 0.312408 -6.93449 3
    endloop
  endfacet
  facet normal -0 0 1
    outer loop
      vertex -0.706818 -5.10449 3
      vertex 0.312408 -6.93449 3
      vertex 0.128036 -5.02374 3
    endloop
  endfacet
  facet normal 0 0 1
    outer loop
      vertex 0.312408 -6.93449 3
      vertex -0.706818 -5.10449 3
      vertex -0.449509 -7.08299 3
    endloop
  endfacet
  facet normal 0 0 1
    outer loop
      vertex -0.706818 -5.10449 3
      vertex -1.28783 -7.13249 3
      vertex -0.449509 -7.08299 3
    endloop
  endfacet
  facet normal 0 0 1
    outer loop
      vertex -1.3672 -5.04805 3
      vertex -1.28783 -7.13249 3
      vertex -0.706818 -5.10449 3
    endloop
  endfacet
  facet normal 0 0 1
    outer loop
      vertex -2.38063 -7.05087 3
      vertex -1.3672 -5.04805 3
      vertex -1.95633 -4.87874 3
    endloop
  endfacet
  facet normal 0 0 1
    outer loop
      vertex -1.3672 -5.04805 3
      vertex -2.38063 -7.05087 3
      vertex -1.28783 -7.13249 3
    endloop
  endfacet
  facet normal 0 0 1
    outer loop
      vertex -3.34807 -6.806 3
      vertex -1.95633 -4.87874 3
      vertex -2.4742 -4.59656 3
    endloop
  endfacet
  facet normal 0 0 1
    outer loop
      vertex -4.19014 -6.39787 3
      vertex -2.4742 -4.59656 3
      vertex -2.92082 -4.20149 3
    endloop
  endfacet
  facet normal 0 0 1
    outer loop
      vertex -4.19014 -6.39787 3
      vertex -2.92082 -4.20149 3
      vertex -3.28046 -3.69012 3
    endloop
  endfacet
  facet normal 0 0 1
    outer loop
      vertex -1.95633 -4.87874 3
      vertex -3.34807 -6.806 3
      vertex -2.38063 -7.05087 3
    endloop
  endfacet
  facet normal 0 0 1
    outer loop
      vertex -4.19014 -6.39787 3
      vertex -3.28046 -3.69012 3
      vertex -3.53732 -3.05899 3
    endloop
  endfacet
  facet normal 0 0 1
    outer loop
      vertex -4.19014 -6.39787 3
      vertex -3.53732 -3.05899 3
      vertex -3.69145 -2.30812 3
    endloop
  endfacet
  facet normal 0 0 1
    outer loop
      vertex -2.4742 -4.59656 3
      vertex -4.19014 -6.39787 3
      vertex -3.34807 -6.806 3
    endloop
  endfacet
  facet normal 0 0 1
    outer loop
      vertex -4.19014 -6.39787 3
      vertex -3.69145 -2.30812 3
      vertex -3.74283 -1.4375 3
    endloop
  endfacet
  facet normal -0.707107 0 0.707107
    outer loop
      vertex 5.66516 -6.85449 3
      vertex 7.61516 6.8125 4.95
      vertex 5.66516 6.8125 3
    endloop
  endfacet
  facet normal -0.707107 0 0.707107
    outer loop
      vertex 7.61516 6.8125 4.95
      vertex 5.66516 -6.85449 3
      vertex 7.61516 -6.85449 4.95
    endloop
  endfacet
  facet normal 0.694977 -0.130929 0.707011
    outer loop
      vertex 1.03674 -1.67764 4.95
      vertex 3.12616 -1.11681 3
      vertex 1.18981 -0.865101 4.95
    endloop
  endfacet
  facet normal 0.694977 -0.130929 0.707011
    outer loop
      vertex 3.12616 -1.11681 3
      vertex 1.03674 -1.67764 4.95
      vertex 2.92516 -2.18375 3
    endloop
  endfacet
  facet normal 0.595441 -0.382457 0.706524
    outer loop
      vertex 0.606766 -2.56793 4.95
      vertex 2.59016 -3.08231 3
      vertex 0.840476 -2.20407 4.95
    endloop
  endfacet
  facet normal 0.595441 -0.382457 0.706524
    outer loop
      vertex 2.59016 -3.08231 3
      vertex 0.606766 -2.56793 4.95
      vertex 2.12115 -3.8125 3
    endloop
  endfacet
  facet normal -0.674343 0.219108 0.705162
    outer loop
      vertex 7.44657 -7.64763 4.95
      vertex 7.57255 -7.25992 4.95
      vertex 5.66516 -6.85449 3
    endloop
  endfacet
  facet normal -0.526924 0.474445 0.705162
    outer loop
      vertex 6.96996 -8.30362 4.95
      vertex 7.24274 -8.00067 4.95
      vertex 5.66516 -6.85449 3
    endloop
  endfacet
  facet normal 0.674343 0.219108 0.705162
    outer loop
      vertex 2.49139 -7.32253 4.32146
      vertex 3.72116 -6.85449 3
      vertex 2.55866 -7.10159 4.18848
    endloop
  endfacet
  facet normal 0.674342 0.219109 0.705162
    outer loop
      vertex 3.72116 -6.85449 3
      vertex 2.49139 -7.32253 4.32146
      vertex 2.46119 -7.41547 4.37921
    endloop
  endfacet
  facet normal -0.147418 0.693552 0.705162
    outer loop
      vertex 5.86899 -8.79381 4.95
      vertex 6.26774 -8.70905 4.95
      vertex 5.66516 -6.85449 3
    endloop
  endfacet
  facet normal 0.702731 0.0889678 0.705871
    outer loop
      vertex 3.26637 -4.86359 3.20184
      vertex 3.41516 -4.4375 3
      vertex 3.33153 -4.53217 3.09519
    endloop
  endfacet
  facet normal 0.70273 0.0889681 0.705872
    outer loop
      vertex 3.41516 -4.4375 3
      vertex 3.26637 -4.86359 3.20184
      vertex 3.72116 -6.85449 3
    endloop
  endfacet
  facet normal 0.702731 0.0889685 0.705871
    outer loop
      vertex 3.22303 -5.084 3.27276
      vertex 3.72116 -6.85449 3
      vertex 3.26637 -4.86359 3.20184
    endloop
  endfacet
  facet normal 0.702728 0.088967 0.705874
    outer loop
      vertex 3.21069 -5.14513 3.29275
      vertex 3.72116 -6.85449 3
      vertex 3.22303 -5.084 3.27276
    endloop
  endfacet
  facet normal 0.702729 0.0889675 0.705873
    outer loop
      vertex 3.19295 -5.21108 3.31873
      vertex 3.72116 -6.85449 3
      vertex 3.21069 -5.14513 3.29275
    endloop
  endfacet
  facet normal 0.702732 0.0889689 0.70587
    outer loop
      vertex 3.16469 -5.31615 3.3601
      vertex 3.72116 -6.85449 3
      vertex 3.19295 -5.21108 3.31873
    endloop
  endfacet
  facet normal 0.70273 0.0889681 0.705872
    outer loop
      vertex 3.03723 -5.79011 3.54674
      vertex 3.72116 -6.85449 3
      vertex 3.16469 -5.31615 3.3601
    endloop
  endfacet
  facet normal 0.702731 0.0889686 0.705871
    outer loop
      vertex 2.9977 -5.9161 3.60196
      vertex 3.72116 -6.85449 3
      vertex 3.03723 -5.79011 3.54674
    endloop
  endfacet
  facet normal 0.70273 0.088968 0.705872
    outer loop
      vertex 2.75957 -6.6134 3.92692
      vertex 3.72116 -6.85449 3
      vertex 2.9977 -5.9161 3.60196
    endloop
  endfacet
  facet normal 0.70273 0.0889678 0.705872
    outer loop
      vertex 3.72116 -6.85449 3
      vertex 2.75957 -6.6134 3.92692
      vertex 2.55866 -7.10159 4.18848
    endloop
  endfacet
  facet normal 0.288396 0.647746 0.705162
    outer loop
      vertex 3.11858 -8.70905 4.95
      vertex 3.72116 -6.85449 3
      vertex 2.74616 -8.54324 4.95
    endloop
  endfacet
  facet normal 0.526924 0.474444 0.705162
    outer loop
      vertex 2.3635 -7.84089 4.67816
      vertex 2.41636 -8.30362 4.95
      vertex 3.72116 -6.85449 3
    endloop
  endfacet
  facet normal 0.526925 0.474444 0.705161
    outer loop
      vertex 2.41636 -8.30362 4.95
      vertex 2.3635 -7.84089 4.67816
      vertex 2.30913 -8.18454 4.95
    endloop
  endfacet
  facet normal -0.705162 0.0741162 0.705162
    outer loop
      vertex 7.57255 -7.25992 4.95
      vertex 7.61516 -6.85449 4.95
      vertex 5.66516 -6.85449 3
    endloop
  endfacet
  facet normal -0.614053 0.354522 0.705162
    outer loop
      vertex 7.24274 -8.00067 4.95
      vertex 7.44657 -7.64763 4.95
      vertex 5.66516 -6.85449 3
    endloop
  endfacet
  facet normal -0.416766 0.573631 0.705162
    outer loop
      vertex 6.64016 -8.54324 4.95
      vertex 6.96996 -8.30362 4.95
      vertex 5.66516 -6.85449 3
    endloop
  endfacet
  facet normal 0 0.709046 0.705162
    outer loop
      vertex 5.66516 -6.85449 3
      vertex 3.51733 -8.79381 4.95
      vertex 5.86899 -8.79381 4.95
    endloop
  endfacet
  facet normal 0 0.709046 0.705162
    outer loop
      vertex 3.51733 -8.79381 4.95
      vertex 5.66516 -6.85449 3
      vertex 3.72116 -6.85449 3
    endloop
  endfacet
  facet normal 0.147418 0.693552 0.705162
    outer loop
      vertex 3.51733 -8.79381 4.95
      vertex 3.72116 -6.85449 3
      vertex 3.11858 -8.70905 4.95
    endloop
  endfacet
  facet normal -0.288397 0.647745 0.705162
    outer loop
      vertex 6.26774 -8.70905 4.95
      vertex 6.64016 -8.54324 4.95
      vertex 5.66516 -6.85449 3
    endloop
  endfacet
  facet normal 0.614052 0.354524 0.705162
    outer loop
      vertex 2.39839 -7.71094 4.58245
      vertex 3.72116 -6.85449 3
      vertex 2.46119 -7.41547 4.37921
    endloop
  endfacet
  facet normal 0.614052 0.354523 0.705162
    outer loop
      vertex 3.72116 -6.85449 3
      vertex 2.39839 -7.71094 4.58245
      vertex 2.3635 -7.84089 4.67816
    endloop
  endfacet
  facet normal 0.416767 0.573631 0.705162
    outer loop
      vertex 2.74616 -8.54324 4.95
      vertex 3.72116 -6.85449 3
      vertex 2.41636 -8.30362 4.95
    endloop
  endfacet
  facet normal 0 0.709046 0.705162
    outer loop
      vertex 3.33153 -4.53217 3.09519
      vertex 3.41516 -4.4375 3
      vertex 3.27615 -4.4375 3
    endloop
  endfacet
  facet normal 0.367267 -0.604352 0.707017
    outer loop
      vertex 1.44371 -4.4375 3
      vertex 1.54204 -4.37775 3
      vertex 1.01458 -3.69422 3.85827
    endloop
  endfacet
  facet normal 0 0.709046 0.705162
    outer loop
      vertex -1.084 -9.07181 4.95
      vertex -1.28783 -7.13249 3
      vertex -1.49166 -9.07181 4.95
    endloop
  endfacet
  facet normal 0.557972 0.434682 0.706908
    outer loop
      vertex -5.4693 -5.10449 3
      vertex -6.48441 -6.97267 4.95
      vertex -4.90683 -5.82649 3
    endloop
  endfacet
  facet normal 0.557972 0.434682 0.706908
    outer loop
      vertex -6.48441 -6.97267 4.95
      vertex -5.4693 -5.10449 3
      vertex -7.04688 -6.25067 4.95
    endloop
  endfacet
  facet normal -0.3496 0.614647 0.707099
    outer loop
      vertex 2.3635 -7.84089 4.67816
      vertex 1.97297 -8.37574 4.95
      vertex 2.30913 -8.18454 4.95
    endloop
  endfacet
  facet normal -0.349598 0.614648 0.707099
    outer loop
      vertex 0.997971 -6.687 3
      vertex 2.3635 -7.84089 4.67816
      vertex 2.39839 -7.71094 4.58245
    endloop
  endfacet
  facet normal -0.349599 0.614647 0.707099
    outer loop
      vertex 0.997971 -6.687 3
      vertex 2.39839 -7.71094 4.58245
      vertex 1.60716 -6.3405 3
    endloop
  endfacet
  facet normal -0.3496 0.614647 0.707099
    outer loop
      vertex 2.3635 -7.84089 4.67816
      vertex 0.997971 -6.687 3
      vertex 1.97297 -8.37574 4.95
    endloop
  endfacet
  facet normal 0.288396 0.647746 0.705162
    outer loop
      vertex -3.95065 -8.66056 4.95
      vertex -3.34807 -6.806 3
      vertex -4.32307 -8.49475 4.95
    endloop
  endfacet
  facet normal -0.147418 0.693552 0.705162
    outer loop
      vertex 0.516239 -8.87381 4.95
      vertex 0.914991 -8.78905 4.95
      vertex 0.312408 -6.93449 3
    endloop
  endfacet
  facet normal -0.526924 0.474445 0.705162
    outer loop
      vertex 2.9977 -5.9161 3.60196
      vertex 3.03723 -5.79011 3.54674
      vertex 2.59491 -5.46875 3
    endloop
  endfacet
  facet normal 0.173698 0.686241 0.70633
    outer loop
      vertex -3.34807 -6.806 3
      vertex -2.98321 -8.90543 4.95
      vertex -2.38063 -7.05087 3
    endloop
  endfacet
  facet normal 0.173698 0.686241 0.70633
    outer loop
      vertex -2.98321 -8.90543 4.95
      vertex -3.34807 -6.806 3
      vertex -3.95065 -8.66056 4.95
    endloop
  endfacet
  facet normal 0.308803 0.637141 0.706181
    outer loop
      vertex -4.19014 -6.39787 3
      vertex -4.32307 -8.49475 4.95
      vertex -3.34807 -6.806 3
    endloop
  endfacet
  facet normal 0.308803 0.637141 0.706181
    outer loop
      vertex -4.32307 -8.49475 4.95
      vertex -4.19014 -6.39787 3
      vertex -5.16514 -8.08662 4.95
    endloop
  endfacet
  facet normal 0.441195 0.553396 0.70647
    outer loop
      vertex -4.90683 -5.82649 3
      vertex -5.49494 -7.847 4.95
      vertex -4.19014 -6.39787 3
    endloop
  endfacet
  facet normal 0.441195 0.553396 0.70647
    outer loop
      vertex -5.49494 -7.847 4.95
      vertex -4.90683 -5.82649 3
      vertex -6.21163 -7.27562 4.95
    endloop
  endfacet
  facet normal -0.135531 0.695385 0.705742
    outer loop
      vertex -0.449509 -7.08299 3
      vertex 0.516239 -8.87381 4.95
      vertex 0.312408 -6.93449 3
    endloop
  endfacet
  facet normal -0.135531 0.695385 0.705742
    outer loop
      vertex 0.516239 -8.87381 4.95
      vertex -0.449509 -7.08299 3
      vertex -0.245678 -9.02231 4.95
    endloop
  endfacet
  facet normal -0.435967 0.557805 0.706248
    outer loop
      vertex 1.60716 -6.3405 3
      vertex 2.75957 -6.6134 3.92692
      vertex 2.13934 -5.92456 3
    endloop
  endfacet
  facet normal -0.435967 0.557805 0.706248
    outer loop
      vertex 2.75957 -6.6134 3.92692
      vertex 1.60716 -6.3405 3
      vertex 2.55866 -7.10159 4.18848
    endloop
  endfacet
  facet normal -0.435967 0.557805 0.706248
    outer loop
      vertex 2.55866 -7.10159 4.18848
      vertex 1.60716 -6.3405 3
      vertex 2.49139 -7.32253 4.32146
    endloop
  endfacet
  facet normal 0.0526776 0.705303 0.706946
    outer loop
      vertex -2.38063 -7.05087 3
      vertex -1.49166 -9.07181 4.95
      vertex -1.28783 -7.13249 3
    endloop
  endfacet
  facet normal 0.0526776 0.705303 0.706946
    outer loop
      vertex -1.49166 -9.07181 4.95
      vertex -2.38063 -7.05087 3
      vertex -2.58446 -8.99019 4.95
    endloop
  endfacet
  facet normal 0.147418 0.693552 0.705162
    outer loop
      vertex -2.58446 -8.99019 4.95
      vertex -2.38063 -7.05087 3
      vertex -2.98321 -8.90543 4.95
    endloop
  endfacet
  facet normal -0.0417012 0.706247 0.706737
    outer loop
      vertex -0.449509 -7.08299 3
      vertex -1.084 -9.07181 4.95
      vertex -0.245678 -9.02231 4.95
    endloop
  endfacet
  facet normal -0.0417012 0.706247 0.706737
    outer loop
      vertex -1.084 -9.07181 4.95
      vertex -0.449509 -7.08299 3
      vertex -1.28783 -7.13249 3
    endloop
  endfacet
  facet normal -0.561848 0.429506 0.707002
    outer loop
      vertex 2.59491 -5.46875 3
      vertex 3.16469 -5.31615 3.3601
      vertex 2.87337 -5.10449 3
    endloop
  endfacet
  facet normal -0.561848 0.429506 0.707002
    outer loop
      vertex 3.16469 -5.31615 3.3601
      vertex 2.59491 -5.46875 3
      vertex 3.03723 -5.79011 3.54674
    endloop
  endfacet
  facet normal 0.526923 0.474445 0.705162
    outer loop
      vertex -6.21163 -7.27562 4.95
      vertex -4.90683 -5.82649 3
      vertex -6.48441 -6.97267 4.95
    endloop
  endfacet
  facet normal 0.416767 0.57363 0.705162
    outer loop
      vertex -5.16514 -8.08662 4.95
      vertex -4.19014 -6.39787 3
      vertex -5.49494 -7.847 4.95
    endloop
  endfacet
  facet normal -0.24017 0.665266 0.706922
    outer loop
      vertex 0.312408 -6.93449 3
      vertex 1.60055 -8.54156 4.95
      vertex 0.997971 -6.687 3
    endloop
  endfacet
  facet normal -0.24017 0.665266 0.706922
    outer loop
      vertex 1.60055 -8.54156 4.95
      vertex 0.312408 -6.93449 3
      vertex 0.914991 -8.78905 4.95
    endloop
  endfacet
  facet normal -0.288397 0.647745 0.705162
    outer loop
      vertex 1.60055 -8.54156 4.95
      vertex 1.97297 -8.37574 4.95
      vertex 0.997971 -6.687 3
    endloop
  endfacet
  facet normal -0.416766 0.573631 0.705162
    outer loop
      vertex 2.46119 -7.41547 4.37921
      vertex 1.60716 -6.3405 3
      vertex 2.39839 -7.71094 4.58245
    endloop
  endfacet
  facet normal -0.416765 0.573632 0.705162
    outer loop
      vertex 1.60716 -6.3405 3
      vertex 2.46119 -7.41547 4.37921
      vertex 2.49139 -7.32253 4.32146
    endloop
  endfacet
  facet normal -0.50048 0.500212 0.706617
    outer loop
      vertex 2.13934 -5.92456 3
      vertex 2.9977 -5.9161 3.60196
      vertex 2.59491 -5.46875 3
    endloop
  endfacet
  facet normal -0.50048 0.500213 0.706617
    outer loop
      vertex 2.9977 -5.9161 3.60196
      vertex 2.13934 -5.92456 3
      vertex 2.75957 -6.6134 3.92692
    endloop
  endfacet
  facet normal 0.217438 -0.672846 0.707106
    outer loop
      vertex 0.0624218 -2.99565 4.95
      vertex 0.128036 -5.02374 3
      vertex 0.877655 -4.78149 3
    endloop
  endfacet
  facet normal 0.217438 -0.672846 0.707106
    outer loop
      vertex 0.128036 -5.02374 3
      vertex 0.0624218 -2.99565 4.95
      vertex -0.270569 -3.10326 4.95
    endloop
  endfacet
  facet normal -0.617167 0.348376 0.705507
    outer loop
      vertex 2.97385 -4.97305 3
      vertex 3.26637 -4.86359 3.20184
      vertex 3.08198 -4.78149 3
    endloop
  endfacet
  facet normal -0.617167 0.348376 0.705506
    outer loop
      vertex 3.26637 -4.86359 3.20184
      vertex 2.97385 -4.97305 3
      vertex 3.22303 -5.084 3.27276
    endloop
  endfacet
  facet normal -0.614053 0.354522 0.705162
    outer loop
      vertex 3.21069 -5.14513 3.29275
      vertex 3.22303 -5.084 3.27276
      vertex 2.97385 -4.97305 3
    endloop
  endfacet
  facet normal -0.561844 0.429512 0.707001
    outer loop
      vertex 2.9351 -5.02374 3
      vertex 3.21069 -5.14513 3.29275
      vertex 2.97385 -4.97305 3
    endloop
  endfacet
  facet normal -0.561846 0.429509 0.707002
    outer loop
      vertex 3.21069 -5.14513 3.29275
      vertex 2.9351 -5.02374 3
      vertex 3.19295 -5.21108 3.31873
    endloop
  endfacet
  facet normal 0.494104 -0.506228 0.70682
    outer loop
      vertex 2.12115 -3.8125 3
      vertex 1.01458 -3.69422 3.85827
      vertex 1.54204 -4.37775 3
    endloop
  endfacet
  facet normal 0.494103 -0.506228 0.70682
    outer loop
      vertex 0.606766 -2.56793 4.95
      vertex 1.01458 -3.69422 3.85827
      vertex 2.12115 -3.8125 3
    endloop
  endfacet
  facet normal 0.494104 -0.506228 0.70682
    outer loop
      vertex 1.01458 -3.69422 3.85827
      vertex 0.606766 -2.56793 4.95
      vertex 0.343639 -2.82476 4.95
    endloop
  endfacet
  facet normal 0.367267 -0.604352 0.707017
    outer loop
      vertex 1.01458 -3.69422 3.85827
      vertex 0.877655 -4.78149 3
      vertex 1.44371 -4.4375 3
    endloop
  endfacet
  facet normal 0.367267 -0.604352 0.707017
    outer loop
      vertex 0.0624218 -2.99565 4.95
      vertex 1.01458 -3.69422 3.85827
      vertex 0.343639 -2.82476 4.95
    endloop
  endfacet
  facet normal 0.367267 -0.604352 0.707017
    outer loop
      vertex 1.01458 -3.69422 3.85827
      vertex 0.0624218 -2.99565 4.95
      vertex 0.877655 -4.78149 3
    endloop
  endfacet
  facet normal -0.617167 0.348376 0.705506
    outer loop
      vertex 3.08198 -4.78149 3
      vertex 3.33153 -4.53217 3.09519
      vertex 3.27615 -4.4375 3
    endloop
  endfacet
  facet normal -0.617167 0.348376 0.705507
    outer loop
      vertex 3.33153 -4.53217 3.09519
      vertex 3.08198 -4.78149 3
      vertex 3.26637 -4.86359 3.20184
    endloop
  endfacet
  facet normal 0.706587 -0.0383244 0.706587
    outer loop
      vertex 1.18981 -0.865101 4.95
      vertex 3.19316 0.1185 3
      vertex 1.24316 0.1185 4.95
    endloop
  endfacet
  facet normal 0.706587 -0.0383244 0.706587
    outer loop
      vertex 3.19316 0.1185 3
      vertex 1.18981 -0.865101 4.95
      vertex 3.12616 -1.11681 3
    endloop
  endfacet
  facet normal 0.0680769 -0.703834 0.707095
    outer loop
      vertex -0.270569 -3.10326 4.95
      vertex -0.706818 -5.10449 3
      vertex 0.128036 -5.02374 3
    endloop
  endfacet
  facet normal 0.068077 -0.703834 0.707095
    outer loop
      vertex -0.706818 -5.10449 3
      vertex -0.270569 -3.10326 4.95
      vertex -0.719408 -3.14668 4.95
    endloop
  endfacet
  facet normal -0.56185 0.429503 0.707002
    outer loop
      vertex 2.87337 -5.10449 3
      vertex 3.19295 -5.21108 3.31873
      vertex 2.9351 -5.02374 3
    endloop
  endfacet
  facet normal -0.56185 0.429504 0.707002
    outer loop
      vertex 3.19295 -5.21108 3.31873
      vertex 2.87337 -5.10449 3
      vertex 3.16469 -5.31615 3.3601
    endloop
  endfacet
  facet normal 0.64355 0.293021 0.707094
    outer loop
      vertex -5.49906 -5.04805 3
      vertex -7.26049 -5.88507 4.95
      vertex -5.47908 -5.09193 3
    endloop
  endfacet
  facet normal 0.64355 0.293021 0.707094
    outer loop
      vertex -7.26049 -5.88507 4.95
      vertex -5.49906 -5.04805 3
      vertex -7.28047 -5.84119 4.95
    endloop
  endfacet
  facet normal 0.55796 0.434698 0.706908
    outer loop
      vertex -5.47908 -5.09193 3
      vertex -7.04688 -6.25067 4.95
      vertex -5.4693 -5.10449 3
    endloop
  endfacet
  facet normal 0.55796 0.434698 0.706908
    outer loop
      vertex -7.04688 -6.25067 4.95
      vertex -5.47908 -5.09193 3
      vertex -7.05666 -6.23812 4.95
    endloop
  endfacet
  facet normal -0.0602217 -0.704605 0.70704
    outer loop
      vertex -1.01559 -3.12136 4.95
      vertex -0.706818 -5.10449 3
      vertex -0.719408 -3.14668 4.95
    endloop
  endfacet
  facet normal -0.0602217 -0.704605 0.70704
    outer loop
      vertex -0.706818 -5.10449 3
      vertex -1.01559 -3.12136 4.95
      vertex -1.3672 -5.04805 3
    endloop
  endfacet
  facet normal 0.614053 0.354522 0.705162
    outer loop
      vertex -7.05666 -6.23812 4.95
      vertex -5.47908 -5.09193 3
      vertex -7.26049 -5.88507 4.95
    endloop
  endfacet
  facet normal -0.19537 -0.679798 0.706899
    outer loop
      vertex -1.20961 -3.0656 4.95
      vertex -1.3672 -5.04805 3
      vertex -1.01559 -3.12136 4.95
    endloop
  endfacet
  facet normal -0.19537 -0.679798 0.706899
    outer loop
      vertex -1.3672 -5.04805 3
      vertex -1.20961 -3.0656 4.95
      vertex -1.95633 -4.87874 3
    endloop
  endfacet
  facet normal 0.643551 0.293019 0.707094
    outer loop
      vertex -5.57615 -4.87874 3
      vertex -7.28047 -5.84119 4.95
      vertex -5.49906 -5.04805 3
    endloop
  endfacet
  facet normal 0.643551 0.293019 0.707094
    outer loop
      vertex -7.28047 -5.84119 4.95
      vertex -5.57615 -4.87874 3
      vertex -7.35756 -5.67187 4.95
    endloop
  endfacet
  facet normal -0.338381 -0.621008 0.706999
    outer loop
      vertex -1.34577 -2.99141 4.95
      vertex -1.95633 -4.87874 3
      vertex -1.20961 -3.0656 4.95
    endloop
  endfacet
  facet normal -0.338381 -0.621008 0.706999
    outer loop
      vertex -1.95633 -4.87874 3
      vertex -1.34577 -2.99141 4.95
      vertex -2.4742 -4.59656 3
    endloop
  endfacet
  facet normal 0.643549 0.293023 0.707094
    outer loop
      vertex -5.70464 -4.59656 3
      vertex -7.35756 -5.67187 4.95
      vertex -5.57615 -4.87874 3
    endloop
  endfacet
  facet normal 0.643549 0.293023 0.707094
    outer loop
      vertex -7.35756 -5.67187 4.95
      vertex -5.70464 -4.59656 3
      vertex -7.48605 -5.38969 4.95
    endloop
  endfacet
  facet normal 0.64355 0.293021 0.707094
    outer loop
      vertex -5.88452 -4.20149 3
      vertex -7.48605 -5.38969 4.95
      vertex -5.70464 -4.59656 3
    endloop
  endfacet
  facet normal 0.64355 0.293021 0.707094
    outer loop
      vertex -7.48605 -5.38969 4.95
      vertex -5.88452 -4.20149 3
      vertex -7.66593 -4.99463 4.95
    endloop
  endfacet
  facet normal -0.468503 -0.529646 0.707093
    outer loop
      vertex -1.45799 -2.89214 4.95
      vertex -2.4742 -4.59656 3
      vertex -1.34577 -2.99141 4.95
    endloop
  endfacet
  facet normal -0.468503 -0.529646 0.707093
    outer loop
      vertex -2.4742 -4.59656 3
      vertex -1.45799 -2.89214 4.95
      vertex -2.92082 -4.20149 3
    endloop
  endfacet
  facet normal 0.688989 0.159289 0.707051
    outer loop
      vertex -6.00437 -3.69012 3
      vertex -7.7952 -4.59967 4.95
      vertex -5.88782 -4.19424 3
    endloop
  endfacet
  facet normal 0.688989 0.159289 0.707051
    outer loop
      vertex -7.7952 -4.59967 4.95
      vertex -6.00437 -3.69012 3
      vertex -7.91175 -4.09555 4.95
    endloop
  endfacet
  facet normal -0.578426 -0.406795 0.707065
    outer loop
      vertex -1.56011 -2.74693 4.95
      vertex -2.92082 -4.20149 3
      vertex -1.45799 -2.89214 4.95
    endloop
  endfacet
  facet normal -0.578426 -0.406795 0.707065
    outer loop
      vertex -2.92082 -4.20149 3
      vertex -1.56011 -2.74693 4.95
      vertex -3.28046 -3.69012 3
    endloop
  endfacet
  facet normal 0.643532 0.293061 0.707094
    outer loop
      vertex -5.88782 -4.19424 3
      vertex -7.66593 -4.99463 4.95
      vertex -5.88452 -4.20149 3
    endloop
  endfacet
  facet normal 0.643532 0.293061 0.707094
    outer loop
      vertex -7.66593 -4.99463 4.95
      vertex -5.88782 -4.19424 3
      vertex -7.66923 -4.98738 4.95
    endloop
  endfacet
  facet normal 0.674343 0.219108 0.705162
    outer loop
      vertex -7.66923 -4.98738 4.95
      vertex -5.88782 -4.19424 3
      vertex -7.7952 -4.59967 4.95
    endloop
  endfacet
  facet normal 0.705162 0.0741154 0.705162
    outer loop
      vertex -8.04046 -3.53885 4.95
      vertex -6.13307 -3.13342 3
      vertex -8.08307 -3.13342 4.95
    endloop
  endfacet
  facet normal -0.655113 -0.266626 0.706921
    outer loop
      vertex -3.53732 -3.05899 3
      vertex -1.56011 -2.74693 4.95
      vertex -1.66231 -2.49583 4.95
    endloop
  endfacet
  facet normal -0.655113 -0.266626 0.706921
    outer loop
      vertex -1.56011 -2.74693 4.95
      vertex -3.53732 -3.05899 3
      vertex -3.28046 -3.69012 3
    endloop
  endfacet
  facet normal 0.688989 0.15929 0.707051
    outer loop
      vertex -6.13307 -3.13342 3
      vertex -7.91175 -4.09555 4.95
      vertex -6.00437 -3.69012 3
    endloop
  endfacet
  facet normal 0.688989 0.159291 0.707051
    outer loop
      vertex -7.91175 -4.09555 4.95
      vertex -6.13307 -3.13342 3
      vertex -8.04046 -3.53885 4.95
    endloop
  endfacet
  facet normal 0.706319 0.0471767 0.706319
    outer loop
      vertex -8.08307 -3.13342 4.95
      vertex -6.13804 -3.05899 3
      vertex -8.08804 -3.05899 4.95
    endloop
  endfacet
  facet normal 0.706319 0.0471767 0.706319
    outer loop
      vertex -6.13804 -3.05899 3
      vertex -8.08307 -3.13342 4.95
      vertex -6.13307 -3.13342 3
    endloop
  endfacet
  facet normal -0.692673 -0.142183 0.707098
    outer loop
      vertex -3.69145 -2.30812 3
      vertex -1.66231 -2.49583 4.95
      vertex -1.75784 -2.03047 4.95
    endloop
  endfacet
  facet normal -0.692673 -0.142183 0.707098
    outer loop
      vertex -1.66231 -2.49583 4.95
      vertex -3.69145 -2.30812 3
      vertex -3.53732 -3.05899 3
    endloop
  endfacet
  facet normal 0.706319 0.0471807 0.706319
    outer loop
      vertex -8.08804 -3.05899 4.95
      vertex -6.1882 -2.30812 3
      vertex -8.1382 -2.30812 4.95
    endloop
  endfacet
  facet normal 0.706319 0.0471807 0.706319
    outer loop
      vertex -6.1882 -2.30812 3
      vertex -8.08804 -3.05899 4.95
      vertex -6.13804 -3.05899 3
    endloop
  endfacet
  facet normal 0.707107 -0 0.707107
    outer loop
      vertex -8.16483 -1.90948 4.95
      vertex -6.21483 6.8125 3
      vertex -8.16483 6.8125 4.95
    endloop
  endfacet
  facet normal 0.707107 0 0.707107
    outer loop
      vertex -6.21483 6.8125 3
      vertex -8.16483 -1.90948 4.95
      vertex -6.21483 -1.90948 3
    endloop
  endfacet
  facet normal 0.706319 0.0471815 0.706319
    outer loop
      vertex -8.1382 -2.30812 4.95
      vertex -6.21483 -1.90948 3
      vertex -8.16483 -1.90948 4.95
    endloop
  endfacet
  facet normal 0.706319 0.0471815 0.706319
    outer loop
      vertex -6.21483 -1.90948 3
      vertex -8.1382 -2.30812 4.95
      vertex -6.1882 -2.30812 3
    endloop
  endfacet
  facet normal -0.706492 -0.0416909 0.706492
    outer loop
      vertex -3.74283 -1.4375 3
      vertex -1.75784 -2.03047 4.95
      vertex -1.79283 -1.4375 4.95
    endloop
  endfacet
  facet normal -0.706492 -0.0416909 0.706492
    outer loop
      vertex -1.75784 -2.03047 4.95
      vertex -3.74283 -1.4375 3
      vertex -3.69145 -2.30812 3
    endloop
  endfacet
  facet normal 0.614053 -0.354522 0.705162
    outer loop
      vertex -6.21483 6.8125 3
      vertex -7.79241 7.95868 4.95
      vertex -7.99624 7.60564 4.95
    endloop
  endfacet
  facet normal -0.705162 -0.0741158 0.705162
    outer loop
      vertex -1.79283 6.8125 4.95
      vertex -1.83544 7.21793 4.95
      vertex -3.74283 6.8125 3
    endloop
  endfacet
  facet normal 0.705162 -0.0741154 0.705162
    outer loop
      vertex -6.21483 6.8125 3
      vertex -8.12222 7.21793 4.95
      vertex -8.16483 6.8125 4.95
    endloop
  endfacet
  facet normal 0.147418 -0.693552 0.705162
    outer loop
      vertex -6.21483 6.8125 3
      vertex -6.41866 8.75182 4.95
      vertex -6.81741 8.66706 4.95
    endloop
  endfacet
  facet normal 0.674343 -0.219109 0.705162
    outer loop
      vertex -6.21483 6.8125 3
      vertex -7.99624 7.60564 4.95
      vertex -8.12222 7.21793 4.95
    endloop
  endfacet
  facet normal -0.147418 -0.693552 0.705162
    outer loop
      vertex -3.14025 8.66706 4.95
      vertex -3.539 8.75182 4.95
      vertex -3.74283 6.8125 3
    endloop
  endfacet
  facet normal 0 -0.709046 0.705162
    outer loop
      vertex -6.21483 6.8125 3
      vertex -3.539 8.75182 4.95
      vertex -6.41866 8.75182 4.95
    endloop
  endfacet
  facet normal 0 -0.709046 0.705162
    outer loop
      vertex -3.539 8.75182 4.95
      vertex -6.21483 6.8125 3
      vertex -3.74283 6.8125 3
    endloop
  endfacet
  facet normal 0.288396 -0.647746 0.705162
    outer loop
      vertex -6.21483 6.8125 3
      vertex -6.81741 8.66706 4.95
      vertex -7.18983 8.50125 4.95
    endloop
  endfacet
  facet normal -0.526924 -0.474445 0.705162
    outer loop
      vertex -2.16525 7.95868 4.95
      vertex -2.43802 8.26163 4.95
      vertex -3.74283 6.8125 3
    endloop
  endfacet
  facet normal -0.707107 0 0.707107
    outer loop
      vertex -3.74283 -1.4375 3
      vertex -1.79283 6.8125 4.95
      vertex -3.74283 6.8125 3
    endloop
  endfacet
  facet normal -0.707107 0 0.707107
    outer loop
      vertex -1.79283 6.8125 4.95
      vertex -3.74283 -1.4375 3
      vertex -1.79283 -1.4375 4.95
    endloop
  endfacet
  facet normal 0.416767 -0.573631 0.705162
    outer loop
      vertex -6.21483 6.8125 3
      vertex -7.18983 8.50125 4.95
      vertex -7.51963 8.26163 4.95
    endloop
  endfacet
  facet normal 0.526924 -0.474445 0.705162
    outer loop
      vertex -6.21483 6.8125 3
      vertex -7.51963 8.26163 4.95
      vertex -7.79241 7.95868 4.95
    endloop
  endfacet
  facet normal -0.288396 -0.647746 0.705162
    outer loop
      vertex -2.76783 8.50125 4.95
      vertex -3.14025 8.66706 4.95
      vertex -3.74283 6.8125 3
    endloop
  endfacet
  facet normal -0.614052 -0.354523 0.705162
    outer loop
      vertex -1.96142 7.60564 4.95
      vertex -2.16525 7.95868 4.95
      vertex -3.74283 6.8125 3
    endloop
  endfacet
  facet normal -0.674343 -0.219108 0.705162
    outer loop
      vertex -1.83544 7.21793 4.95
      vertex -1.96142 7.60564 4.95
      vertex -3.74283 6.8125 3
    endloop
  endfacet
  facet normal -0.416767 -0.573631 0.705162
    outer loop
      vertex -2.43802 8.26163 4.95
      vertex -2.76783 8.50125 4.95
      vertex -3.74283 6.8125 3
    endloop
  endfacet
  facet normal 0.707107 -0 0.707107
    outer loop
      vertex 1.24316 0.1185 4.95
      vertex 3.19316 6.8125 3
      vertex 1.24316 6.8125 4.95
    endloop
  endfacet
  facet normal 0.707107 0 0.707107
    outer loop
      vertex 3.19316 6.8125 3
      vertex 1.24316 0.1185 4.95
      vertex 3.19316 0.1185 3
    endloop
  endfacet
  facet normal -0.674343 -0.219108 0.705162
    outer loop
      vertex 7.57255 7.21793 4.95
      vertex 7.44657 7.60564 4.95
      vertex 5.66516 6.8125 3
    endloop
  endfacet
  facet normal 0.705162 -0.0741158 0.705162
    outer loop
      vertex 3.19316 6.8125 3
      vertex 1.28577 7.21793 4.95
      vertex 1.24316 6.8125 4.95
    endloop
  endfacet
  facet normal 0.147418 -0.693552 0.705162
    outer loop
      vertex 3.19316 6.8125 3
      vertex 2.98933 8.75182 4.95
      vertex 2.59058 8.66706 4.95
    endloop
  endfacet
  facet normal 0 -0.709046 0.705162
    outer loop
      vertex 3.19316 6.8125 3
      vertex 5.86899 8.75182 4.95
      vertex 2.98933 8.75182 4.95
    endloop
  endfacet
  facet normal 0 -0.709046 0.705162
    outer loop
      vertex 5.86899 8.75182 4.95
      vertex 3.19316 6.8125 3
      vertex 5.66516 6.8125 3
    endloop
  endfacet
  facet normal 0.526924 -0.474445 0.705162
    outer loop
      vertex 3.19316 6.8125 3
      vertex 1.88836 8.26163 4.95
      vertex 1.61558 7.95868 4.95
    endloop
  endfacet
  facet normal 0.288396 -0.647746 0.705162
    outer loop
      vertex 3.19316 6.8125 3
      vertex 2.59058 8.66706 4.95
      vertex 2.21816 8.50125 4.95
    endloop
  endfacet
  facet normal 0.674343 -0.219108 0.705162
    outer loop
      vertex 3.19316 6.8125 3
      vertex 1.41175 7.60564 4.95
      vertex 1.28577 7.21793 4.95
    endloop
  endfacet
  facet normal -0.288396 -0.647746 0.705162
    outer loop
      vertex 6.64016 8.50125 4.95
      vertex 6.26774 8.66706 4.95
      vertex 5.66516 6.8125 3
    endloop
  endfacet
  facet normal -0.526924 -0.474445 0.705162
    outer loop
      vertex 7.24274 7.95868 4.95
      vertex 6.96996 8.26163 4.95
      vertex 5.66516 6.8125 3
    endloop
  endfacet
  facet normal -0.705162 -0.0741162 0.705162
    outer loop
      vertex 7.61516 6.8125 4.95
      vertex 7.57255 7.21793 4.95
      vertex 5.66516 6.8125 3
    endloop
  endfacet
  facet normal 0.416767 -0.573631 0.705162
    outer loop
      vertex 3.19316 6.8125 3
      vertex 2.21816 8.50125 4.95
      vertex 1.88836 8.26163 4.95
    endloop
  endfacet
  facet normal 0.614053 -0.354522 0.705162
    outer loop
      vertex 3.19316 6.8125 3
      vertex 1.61558 7.95868 4.95
      vertex 1.41175 7.60564 4.95
    endloop
  endfacet
  facet normal -0.614053 -0.354522 0.705162
    outer loop
      vertex 7.44657 7.60564 4.95
      vertex 7.24274 7.95868 4.95
      vertex 5.66516 6.8125 3
    endloop
  endfacet
  facet normal -0.147418 -0.693552 0.705162
    outer loop
      vertex 6.26774 8.66706 4.95
      vertex 5.86899 8.75182 4.95
      vertex 5.66516 6.8125 3
    endloop
  endfacet
  facet normal -0.416767 -0.573631 0.705162
    outer loop
      vertex 6.96996 8.26163 4.95
      vertex 6.64016 8.50125 4.95
      vertex 5.66516 6.8125 3
    endloop
  endfacet
  facet normal 0 0 1
    outer loop
      vertex 15.1568 16.4918 4.95
      vertex 16.5 15 4.95
      vertex 16.4672 15.3119 4.95
    endloop
  endfacet
  facet normal 0 0 1
    outer loop
      vertex 16.5 15 4.95
      vertex 7.61516 6.8125 4.95
      vertex 16.5 -15 4.95
    endloop
  endfacet
  facet normal 0 0 1
    outer loop
      vertex 15.1568 16.4918 4.95
      vertex 16.4672 15.3119 4.95
      vertex 16.3703 15.6101 4.95
    endloop
  endfacet
  facet normal -0 0 1
    outer loop
      vertex 7.61516 -6.85449 4.95
      vertex 16.5 -15 4.95
      vertex 7.61516 6.8125 4.95
    endloop
  endfacet
  facet normal 0 0 1
    outer loop
      vertex 15.1568 16.4918 4.95
      vertex 16.3703 15.6101 4.95
      vertex 16.2135 15.8817 4.95
    endloop
  endfacet
  facet normal -0 0 1
    outer loop
      vertex 7.57255 -7.25992 4.95
      vertex 16.5 -15 4.95
      vertex 7.61516 -6.85449 4.95
    endloop
  endfacet
  facet normal 0 0 1
    outer loop
      vertex 15.1568 16.4918 4.95
      vertex 16.2135 15.8817 4.95
      vertex 16.0037 16.1147 4.95
    endloop
  endfacet
  facet normal -0 0 1
    outer loop
      vertex 7.44657 -7.64763 4.95
      vertex 16.5 -15 4.95
      vertex 7.57255 -7.25992 4.95
    endloop
  endfacet
  facet normal 0 0 1
    outer loop
      vertex 15.1568 16.4918 4.95
      vertex 16.0037 16.1147 4.95
      vertex 15.75 16.299 4.95
    endloop
  endfacet
  facet normal -0 0 1
    outer loop
      vertex 7.24274 -8.00067 4.95
      vertex 16.5 -15 4.95
      vertex 7.44657 -7.64763 4.95
    endloop
  endfacet
  facet normal 0 0 1
    outer loop
      vertex 15.1568 16.4918 4.95
      vertex 15.75 16.299 4.95
      vertex 15.4635 16.4266 4.95
    endloop
  endfacet
  facet normal 0 -0 1
    outer loop
      vertex 15.1568 -16.4918 4.95
      vertex 16.5 -15 4.95
      vertex 7.24274 -8.00067 4.95
    endloop
  endfacet
  facet normal 0 0 1
    outer loop
      vertex 16.5 15 4.95
      vertex 15.1568 16.4918 4.95
      vertex 7.24274 7.95868 4.95
    endloop
  endfacet
  facet normal 0 0 1
    outer loop
      vertex 16.5 -15 4.95
      vertex 15.1568 -16.4918 4.95
      vertex 16.4672 -15.3119 4.95
    endloop
  endfacet
  facet normal 0 0 1
    outer loop
      vertex 16.3703 -15.6101 4.95
      vertex 15.1568 -16.4918 4.95
      vertex 16.2135 -15.8817 4.95
    endloop
  endfacet
  facet normal 0 0 1
    outer loop
      vertex 16.5 15 4.95
      vertex 7.57255 7.21793 4.95
      vertex 7.61516 6.8125 4.95
    endloop
  endfacet
  facet normal 0 0 1
    outer loop
      vertex 16.5 15 4.95
      vertex 7.44657 7.60564 4.95
      vertex 7.57255 7.21793 4.95
    endloop
  endfacet
  facet normal 0 0 1
    outer loop
      vertex 16.5 15 4.95
      vertex 7.24274 7.95868 4.95
      vertex 7.44657 7.60564 4.95
    endloop
  endfacet
  facet normal 0 0 1
    outer loop
      vertex 15.1568 16.4918 4.95
      vertex 6.96996 8.26163 4.95
      vertex 7.24274 7.95868 4.95
    endloop
  endfacet
  facet normal 0 0 1
    outer loop
      vertex 15.1568 16.4918 4.95
      vertex 6.64016 8.50125 4.95
      vertex 6.96996 8.26163 4.95
    endloop
  endfacet
  facet normal 0 0 1
    outer loop
      vertex 15.1568 16.4918 4.95
      vertex 6.26774 8.66706 4.95
      vertex 6.64016 8.50125 4.95
    endloop
  endfacet
  facet normal 0 0 1
    outer loop
      vertex 15.1568 16.4918 4.95
      vertex 5.86899 8.75182 4.95
      vertex 6.26774 8.66706 4.95
    endloop
  endfacet
  facet normal 0 0 1
    outer loop
      vertex 15.1568 16.4918 4.95
      vertex 2.98933 8.75182 4.95
      vertex 5.86899 8.75182 4.95
    endloop
  endfacet
  facet normal -0 0 1
    outer loop
      vertex -15.1568 16.4918 4.95
      vertex 2.98933 8.75182 4.95
      vertex 15.1568 16.4918 4.95
    endloop
  endfacet
  facet normal 0 -0 1
    outer loop
      vertex -3.539 8.75182 4.95
      vertex 2.98933 8.75182 4.95
      vertex -15.1568 16.4918 4.95
    endloop
  endfacet
  facet normal -0 0 1
    outer loop
      vertex -1.79283 6.8125 4.95
      vertex 1.24316 0.1185 4.95
      vertex 1.24316 6.8125 4.95
    endloop
  endfacet
  facet normal 0 0 1
    outer loop
      vertex -1.79283 -1.4375 4.95
      vertex 1.24316 0.1185 4.95
      vertex -1.79283 6.8125 4.95
    endloop
  endfacet
  facet normal 0 0 1
    outer loop
      vertex 1.18981 -0.865101 4.95
      vertex -1.79283 -1.4375 4.95
      vertex 1.03674 -1.67764 4.95
    endloop
  endfacet
  facet normal 0 0 1
    outer loop
      vertex 1.03674 -1.67764 4.95
      vertex -1.79283 -1.4375 4.95
      vertex 0.840476 -2.20407 4.95
    endloop
  endfacet
  facet normal 0 0 1
    outer loop
      vertex 0.840476 -2.20407 4.95
      vertex -1.79283 -1.4375 4.95
      vertex 0.606766 -2.56793 4.95
    endloop
  endfacet
  facet normal -0 -0 1
    outer loop
      vertex -1.75784 -2.03047 4.95
      vertex 0.606766 -2.56793 4.95
      vertex -1.79283 -1.4375 4.95
    endloop
  endfacet
  facet normal 0 0 1
    outer loop
      vertex -1.79283 6.8125 4.95
      vertex 1.24316 6.8125 4.95
      vertex 1.28577 7.21793 4.95
    endloop
  endfacet
  facet normal 0 0 1
    outer loop
      vertex 0.606766 -2.56793 4.95
      vertex -1.75784 -2.03047 4.95
      vertex 0.343639 -2.82476 4.95
    endloop
  endfacet
  facet normal 0 0 1
    outer loop
      vertex 0.343639 -2.82476 4.95
      vertex -1.75784 -2.03047 4.95
      vertex 0.0624218 -2.99565 4.95
    endloop
  endfacet
  facet normal 0 0 1
    outer loop
      vertex 0.0624218 -2.99565 4.95
      vertex -1.75784 -2.03047 4.95
      vertex -0.270569 -3.10326 4.95
    endloop
  endfacet
  facet normal 0 0 1
    outer loop
      vertex -0.270569 -3.10326 4.95
      vertex -1.75784 -2.03047 4.95
      vertex -0.719408 -3.14668 4.95
    endloop
  endfacet
  facet normal -0 -0 1
    outer loop
      vertex -1.66231 -2.49583 4.95
      vertex -0.719408 -3.14668 4.95
      vertex -1.75784 -2.03047 4.95
    endloop
  endfacet
  facet normal 0 0 1
    outer loop
      vertex -0.719408 -3.14668 4.95
      vertex -1.66231 -2.49583 4.95
      vertex -1.01559 -3.12136 4.95
    endloop
  endfacet
  facet normal -0 -0 1
    outer loop
      vertex -1.56011 -2.74693 4.95
      vertex -1.01559 -3.12136 4.95
      vertex -1.66231 -2.49583 4.95
    endloop
  endfacet
  facet normal 0 0 1
    outer loop
      vertex -1.01559 -3.12136 4.95
      vertex -1.56011 -2.74693 4.95
      vertex -1.20961 -3.0656 4.95
    endloop
  endfacet
  facet normal 0 0 1
    outer loop
      vertex -1.20961 -3.0656 4.95
      vertex -1.56011 -2.74693 4.95
      vertex -1.34577 -2.99141 4.95
    endloop
  endfacet
  facet normal 0 0 1
    outer loop
      vertex -1.83544 7.21793 4.95
      vertex 1.28577 7.21793 4.95
      vertex 1.41175 7.60564 4.95
    endloop
  endfacet
  facet normal 0 0 1
    outer loop
      vertex 1.24316 0.1185 4.95
      vertex -1.79283 -1.4375 4.95
      vertex 1.18981 -0.865101 4.95
    endloop
  endfacet
  facet normal 0 0 1
    outer loop
      vertex -1.96142 7.60564 4.95
      vertex 1.41175 7.60564 4.95
      vertex 1.61558 7.95868 4.95
    endloop
  endfacet
  facet normal 0 0 1
    outer loop
      vertex -2.16525 7.95868 4.95
      vertex 1.61558 7.95868 4.95
      vertex 1.88836 8.26163 4.95
    endloop
  endfacet
  facet normal 0 0 1
    outer loop
      vertex -2.43802 8.26163 4.95
      vertex 1.88836 8.26163 4.95
      vertex 2.21816 8.50125 4.95
    endloop
  endfacet
  facet normal 0 -0 1
    outer loop
      vertex -3.14025 8.66706 4.95
      vertex 2.59058 8.66706 4.95
      vertex -3.539 8.75182 4.95
    endloop
  endfacet
  facet normal 0 0 1
    outer loop
      vertex 1.28577 7.21793 4.95
      vertex -1.83544 7.21793 4.95
      vertex -1.79283 6.8125 4.95
    endloop
  endfacet
  facet normal 0 0 1
    outer loop
      vertex 1.41175 7.60564 4.95
      vertex -1.96142 7.60564 4.95
      vertex -1.83544 7.21793 4.95
    endloop
  endfacet
  facet normal 0 0 1
    outer loop
      vertex 1.61558 7.95868 4.95
      vertex -2.16525 7.95868 4.95
      vertex -1.96142 7.60564 4.95
    endloop
  endfacet
  facet normal 0 0 1
    outer loop
      vertex 1.88836 8.26163 4.95
      vertex -2.43802 8.26163 4.95
      vertex -2.16525 7.95868 4.95
    endloop
  endfacet
  facet normal 0 0 1
    outer loop
      vertex 2.21816 8.50125 4.95
      vertex -2.76783 8.50125 4.95
      vertex -2.43802 8.26163 4.95
    endloop
  endfacet
  facet normal 0 0 1
    outer loop
      vertex 2.21816 8.50125 4.95
      vertex -3.14025 8.66706 4.95
      vertex -2.76783 8.50125 4.95
    endloop
  endfacet
  facet normal 0 0 1
    outer loop
      vertex 2.59058 8.66706 4.95
      vertex -3.14025 8.66706 4.95
      vertex 2.21816 8.50125 4.95
    endloop
  endfacet
  facet normal 0 0 1
    outer loop
      vertex 2.98933 8.75182 4.95
      vertex -3.539 8.75182 4.95
      vertex 2.59058 8.66706 4.95
    endloop
  endfacet
  facet normal 0 0 1
    outer loop
      vertex -3.539 8.75182 4.95
      vertex -15.1568 16.4918 4.95
      vertex -6.41866 8.75182 4.95
    endloop
  endfacet
  facet normal 0 0 1
    outer loop
      vertex -8.12222 7.21793 4.95
      vertex -16.5 15 4.95
      vertex -8.16483 6.8125 4.95
    endloop
  endfacet
  facet normal 0 0 1
    outer loop
      vertex -7.99624 7.60564 4.95
      vertex -16.5 15 4.95
      vertex -8.12222 7.21793 4.95
    endloop
  endfacet
  facet normal 0 0 1
    outer loop
      vertex -7.79241 7.95868 4.95
      vertex -16.5 15 4.95
      vertex -7.99624 7.60564 4.95
    endloop
  endfacet
  facet normal 0 0 1
    outer loop
      vertex -7.51963 8.26163 4.95
      vertex -16.5 15 4.95
      vertex -7.79241 7.95868 4.95
    endloop
  endfacet
  facet normal -0 0 1
    outer loop
      vertex -16.5 15 4.95
      vertex -7.51963 8.26163 4.95
      vertex -15.1568 16.4918 4.95
    endloop
  endfacet
  facet normal 0 0 1
    outer loop
      vertex -7.18983 8.50125 4.95
      vertex -15.1568 16.4918 4.95
      vertex -7.51963 8.26163 4.95
    endloop
  endfacet
  facet normal 0 0 1
    outer loop
      vertex -6.81741 8.66706 4.95
      vertex -15.1568 16.4918 4.95
      vertex -7.18983 8.50125 4.95
    endloop
  endfacet
  facet normal 0 0 1
    outer loop
      vertex -6.41866 8.75182 4.95
      vertex -15.1568 16.4918 4.95
      vertex -6.81741 8.66706 4.95
    endloop
  endfacet
  facet normal 0 0 1
    outer loop
      vertex 16.2135 -15.8817 4.95
      vertex 15.1568 -16.4918 4.95
      vertex 16.0037 -16.1147 4.95
    endloop
  endfacet
  facet normal 0 0 1
    outer loop
      vertex 16.0037 -16.1147 4.95
      vertex 15.1568 -16.4918 4.95
      vertex 15.75 -16.299 4.95
    endloop
  endfacet
  facet normal 0 0 1
    outer loop
      vertex 15.75 -16.299 4.95
      vertex 15.1568 -16.4918 4.95
      vertex 15.4635 -16.4266 4.95
    endloop
  endfacet
  facet normal 0 0 1
    outer loop
      vertex 16.4672 -15.3119 4.95
      vertex 15.1568 -16.4918 4.95
      vertex 16.3703 -15.6101 4.95
    endloop
  endfacet
  facet normal -0 0 1
    outer loop
      vertex 6.96996 -8.30362 4.95
      vertex 15.1568 -16.4918 4.95
      vertex 7.24274 -8.00067 4.95
    endloop
  endfacet
  facet normal -0 0 1
    outer loop
      vertex 6.64016 -8.54324 4.95
      vertex 15.1568 -16.4918 4.95
      vertex 6.96996 -8.30362 4.95
    endloop
  endfacet
  facet normal -0 0 1
    outer loop
      vertex 6.26774 -8.70905 4.95
      vertex 15.1568 -16.4918 4.95
      vertex 6.64016 -8.54324 4.95
    endloop
  endfacet
  facet normal -0 0 1
    outer loop
      vertex 5.86899 -8.79381 4.95
      vertex 15.1568 -16.4918 4.95
      vertex 6.26774 -8.70905 4.95
    endloop
  endfacet
  facet normal -0 0 1
    outer loop
      vertex 3.51733 -8.79381 4.95
      vertex 15.1568 -16.4918 4.95
      vertex 5.86899 -8.79381 4.95
    endloop
  endfacet
  facet normal -0 0 1
    outer loop
      vertex 0.914991 -8.78905 4.95
      vertex 3.51733 -8.79381 4.95
      vertex 3.11858 -8.70905 4.95
    endloop
  endfacet
  facet normal 0 0 1
    outer loop
      vertex 1.60055 -8.54156 4.95
      vertex 3.11858 -8.70905 4.95
      vertex 2.74616 -8.54324 4.95
    endloop
  endfacet
  facet normal 0 0 1
    outer loop
      vertex 1.97297 -8.37574 4.95
      vertex 2.41636 -8.30362 4.95
      vertex 2.30913 -8.18454 4.95
    endloop
  endfacet
  facet normal -0 0 1
    outer loop
      vertex 1.97297 -8.37574 4.95
      vertex 2.74616 -8.54324 4.95
      vertex 2.41636 -8.30362 4.95
    endloop
  endfacet
  facet normal -0 0 1
    outer loop
      vertex 1.60055 -8.54156 4.95
      vertex 2.74616 -8.54324 4.95
      vertex 1.97297 -8.37574 4.95
    endloop
  endfacet
  facet normal 0 0 1
    outer loop
      vertex 3.11858 -8.70905 4.95
      vertex 1.60055 -8.54156 4.95
      vertex 0.914991 -8.78905 4.95
    endloop
  endfacet
  facet normal 0 0 1
    outer loop
      vertex 3.51733 -8.79381 4.95
      vertex 0.914991 -8.78905 4.95
      vertex 0.516239 -8.87381 4.95
    endloop
  endfacet
  facet normal 0 0 1
    outer loop
      vertex -0.245678 -9.02231 4.95
      vertex 3.51733 -8.79381 4.95
      vertex 0.516239 -8.87381 4.95
    endloop
  endfacet
  facet normal 0 0 1
    outer loop
      vertex 3.51733 -8.79381 4.95
      vertex -0.245678 -9.02231 4.95
      vertex 15.1568 -16.4918 4.95
    endloop
  endfacet
  facet normal -0 0 1
    outer loop
      vertex -1.084 -9.07181 4.95
      vertex 15.1568 -16.4918 4.95
      vertex -0.245678 -9.02231 4.95
    endloop
  endfacet
  facet normal 0 0 1
    outer loop
      vertex -15.1568 -16.4918 4.95
      vertex -1.084 -9.07181 4.95
      vertex -1.49166 -9.07181 4.95
    endloop
  endfacet
  facet normal 0 0 1
    outer loop
      vertex -15.1568 -16.4918 4.95
      vertex -1.49166 -9.07181 4.95
      vertex -2.58446 -8.99019 4.95
    endloop
  endfacet
  facet normal 0 0 1
    outer loop
      vertex -15.1568 -16.4918 4.95
      vertex -2.58446 -8.99019 4.95
      vertex -2.98321 -8.90543 4.95
    endloop
  endfacet
  facet normal 0 0 1
    outer loop
      vertex -15.1568 -16.4918 4.95
      vertex -2.98321 -8.90543 4.95
      vertex -3.95065 -8.66056 4.95
    endloop
  endfacet
  facet normal 0 0 1
    outer loop
      vertex -16.5 -15 4.95
      vertex -7.04688 -6.25067 4.95
      vertex -7.05666 -6.23812 4.95
    endloop
  endfacet
  facet normal 0 0 1
    outer loop
      vertex -16.5 -15 4.95
      vertex -7.35756 -5.67187 4.95
      vertex -7.48605 -5.38969 4.95
    endloop
  endfacet
  facet normal 0 0 1
    outer loop
      vertex -7.35756 -5.67187 4.95
      vertex -16.5 -15 4.95
      vertex -7.28047 -5.84119 4.95
    endloop
  endfacet
  facet normal 0 0 1
    outer loop
      vertex -16.5 -15 4.95
      vertex -7.66593 -4.99463 4.95
      vertex -7.66923 -4.98738 4.95
    endloop
  endfacet
  facet normal 0 0 1
    outer loop
      vertex -7.66593 -4.99463 4.95
      vertex -16.5 -15 4.95
      vertex -7.48605 -5.38969 4.95
    endloop
  endfacet
  facet normal 0 0 1
    outer loop
      vertex -16.5 -15 4.95
      vertex -7.91175 -4.09555 4.95
      vertex -8.04046 -3.53885 4.95
    endloop
  endfacet
  facet normal 0 0 1
    outer loop
      vertex -16.5 -15 4.95
      vertex -8.08804 -3.05899 4.95
      vertex -8.1382 -2.30812 4.95
    endloop
  endfacet
  facet normal 0 0 1
    outer loop
      vertex -16.5 -15 4.95
      vertex -8.1382 -2.30812 4.95
      vertex -8.16483 -1.90948 4.95
    endloop
  endfacet
  facet normal 0 0 1
    outer loop
      vertex -8.16483 6.8125 4.95
      vertex -16.5 15 4.95
      vertex -8.16483 -1.90948 4.95
    endloop
  endfacet
  facet normal 0 0 1
    outer loop
      vertex -16.5 -15 4.95
      vertex -8.16483 -1.90948 4.95
      vertex -16.5 15 4.95
    endloop
  endfacet
  facet normal 0 0 1
    outer loop
      vertex -8.08804 -3.05899 4.95
      vertex -16.5 -15 4.95
      vertex -8.08307 -3.13342 4.95
    endloop
  endfacet
  facet normal 0 0 1
    outer loop
      vertex -8.08307 -3.13342 4.95
      vertex -16.5 -15 4.95
      vertex -8.04046 -3.53885 4.95
    endloop
  endfacet
  facet normal 0 0 1
    outer loop
      vertex -1.084 -9.07181 4.95
      vertex -15.1568 -16.4918 4.95
      vertex 15.1568 -16.4918 4.95
    endloop
  endfacet
  facet normal 0 0 1
    outer loop
      vertex -4.32307 -8.49475 4.95
      vertex -15.1568 -16.4918 4.95
      vertex -3.95065 -8.66056 4.95
    endloop
  endfacet
  facet normal 0 0 1
    outer loop
      vertex -5.16514 -8.08662 4.95
      vertex -15.1568 -16.4918 4.95
      vertex -4.32307 -8.49475 4.95
    endloop
  endfacet
  facet normal 0 0 1
    outer loop
      vertex -5.49494 -7.847 4.95
      vertex -15.1568 -16.4918 4.95
      vertex -5.16514 -8.08662 4.95
    endloop
  endfacet
  facet normal 0 0 1
    outer loop
      vertex -6.21163 -7.27562 4.95
      vertex -15.1568 -16.4918 4.95
      vertex -5.49494 -7.847 4.95
    endloop
  endfacet
  facet normal 0 0 1
    outer loop
      vertex -6.48441 -6.97267 4.95
      vertex -15.1568 -16.4918 4.95
      vertex -6.21163 -7.27562 4.95
    endloop
  endfacet
  facet normal 0 0 1
    outer loop
      vertex -7.04688 -6.25067 4.95
      vertex -16.5 -15 4.95
      vertex -6.48441 -6.97267 4.95
    endloop
  endfacet
  facet normal 0 0 1
    outer loop
      vertex -16.5 -15 4.95
      vertex -7.05666 -6.23812 4.95
      vertex -7.26049 -5.88507 4.95
    endloop
  endfacet
  facet normal 0 0 1
    outer loop
      vertex -7.28047 -5.84119 4.95
      vertex -16.5 -15 4.95
      vertex -7.26049 -5.88507 4.95
    endloop
  endfacet
  facet normal 0 0 1
    outer loop
      vertex -7.91175 -4.09555 4.95
      vertex -16.5 -15 4.95
      vertex -7.7952 -4.59967 4.95
    endloop
  endfacet
  facet normal 0 0 1
    outer loop
      vertex -16.5 15 4.95
      vertex -15.1568 16.4918 4.95
      vertex -15.4635 16.4266 4.95
    endloop
  endfacet
  facet normal 0 0 1
    outer loop
      vertex -7.7952 -4.59967 4.95
      vertex -16.5 -15 4.95
      vertex -7.66923 -4.98738 4.95
    endloop
  endfacet
  facet normal 0 0 1
    outer loop
      vertex -16.5 15 4.95
      vertex -15.4635 16.4266 4.95
      vertex -15.75 16.299 4.95
    endloop
  endfacet
  facet normal 0 0 1
    outer loop
      vertex -6.48441 -6.97267 4.95
      vertex -16.5 -15 4.95
      vertex -15.1568 -16.4918 4.95
    endloop
  endfacet
  facet normal 0 0 1
    outer loop
      vertex -16.5 15 4.95
      vertex -15.75 16.299 4.95
      vertex -16.0037 16.1147 4.95
    endloop
  endfacet
  facet normal 0 0 1
    outer loop
      vertex -15.1568 -16.4918 4.95
      vertex -16.5 -15 4.95
      vertex -15.4635 -16.4266 4.95
    endloop
  endfacet
  facet normal 0 0 1
    outer loop
      vertex -16.5 15 4.95
      vertex -16.0037 16.1147 4.95
      vertex -16.2135 15.8817 4.95
    endloop
  endfacet
  facet normal 0 0 1
    outer loop
      vertex -15.4635 -16.4266 4.95
      vertex -16.5 -15 4.95
      vertex -15.75 -16.299 4.95
    endloop
  endfacet
  facet normal 0 0 1
    outer loop
      vertex -16.5 15 4.95
      vertex -16.2135 15.8817 4.95
      vertex -16.3703 15.6101 4.95
    endloop
  endfacet
  facet normal 0 0 1
    outer loop
      vertex -15.75 -16.299 4.95
      vertex -16.5 -15 4.95
      vertex -16.0037 -16.1147 4.95
    endloop
  endfacet
  facet normal 0 0 1
    outer loop
      vertex -16.5 15 4.95
      vertex -16.3703 15.6101 4.95
      vertex -16.4672 15.3119 4.95
    endloop
  endfacet
  facet normal 0 0 1
    outer loop
      vertex -16.0037 -16.1147 4.95
      vertex -16.5 -15 4.95
      vertex -16.2135 -15.8817 4.95
    endloop
  endfacet
  facet normal 0 0 1
    outer loop
      vertex -16.2135 -15.8817 4.95
      vertex -16.5 -15 4.95
      vertex -16.3703 -15.6101 4.95
    endloop
  endfacet
  facet normal 0 0 1
    outer loop
      vertex -16.3703 -15.6101 4.95
      vertex -16.5 -15 4.95
      vertex -16.4672 -15.3119 4.95
    endloop
  endfacet
  facet normal 0 0 1
    outer loop
      vertex -1.34577 -2.99141 4.95
      vertex -1.56011 -2.74693 4.95
      vertex -1.45799 -2.89214 4.95
    endloop
  endfacet
endsolid OpenSCAD_Model
