solid OpenSCAD_Model
  facet normal 0 -1 0
    outer loop
      vertex -16.8136 -19.4836 0
      vertex 16.8136 -19.4836 8.01
      vertex -16.8136 -19.4836 8.01
    endloop
  endfacet
  facet normal 0 -1 -0
    outer loop
      vertex 16.8136 -19.4836 8.01
      vertex -16.8136 -19.4836 0
      vertex 16.8136 -19.4836 0
    endloop
  endfacet
  facet normal 1 -0 0
    outer loop
      vertex 19.5 -16.5 8.01
      vertex 19.5 16.5 0
      vertex 19.5 16.5 8.01
    endloop
  endfacet
  facet normal 1 0 0
    outer loop
      vertex 19.5 16.5 0
      vertex 19.5 -16.5 8.01
      vertex 19.5 -16.5 0
    endloop
  endfacet
  facet normal -0.207914 -0.978147 0
    outer loop
      vertex -17.4271 -19.3532 0
      vertex -16.8136 -19.4836 8.01
      vertex -17.4271 -19.3532 8.01
    endloop
  endfacet
  facet normal -0.207914 -0.978147 -0
    outer loop
      vertex -16.8136 -19.4836 8.01
      vertex -17.4271 -19.3532 0
      vertex -16.8136 -19.4836 0
    endloop
  endfacet
  facet normal 0.207914 0.978147 -0
    outer loop
      vertex 17.4271 19.3532 0
      vertex 16.8136 19.4836 8.01
      vertex 17.4271 19.3532 8.01
    endloop
  endfacet
  facet normal 0.207914 0.978147 0
    outer loop
      vertex 16.8136 19.4836 8.01
      vertex 17.4271 19.3532 0
      vertex 16.8136 19.4836 0
    endloop
  endfacet
  facet normal 0.866027 0.499997 0
    outer loop
      vertex 19.2406 17.7202 8.01
      vertex 18.9271 18.2634 0
      vertex 18.9271 18.2634 8.01
    endloop
  endfacet
  facet normal 0.866027 0.499997 0
    outer loop
      vertex 18.9271 18.2634 0
      vertex 19.2406 17.7202 8.01
      vertex 19.2406 17.7202 0
    endloop
  endfacet
  facet normal 0.994522 0.104529 0
    outer loop
      vertex 19.5 16.5 8.01
      vertex 19.4344 17.1237 0
      vertex 19.4344 17.1237 8.01
    endloop
  endfacet
  facet normal 0.994522 0.104529 0
    outer loop
      vertex 19.4344 17.1237 0
      vertex 19.5 16.5 8.01
      vertex 19.5 16.5 0
    endloop
  endfacet
  facet normal -0.866027 0.499997 0
    outer loop
      vertex -19.2406 17.7202 0
      vertex -18.9271 18.2634 8.01
      vertex -18.9271 18.2634 0
    endloop
  endfacet
  facet normal -0.866027 0.499997 0
    outer loop
      vertex -18.9271 18.2634 8.01
      vertex -19.2406 17.7202 0
      vertex -19.2406 17.7202 8.01
    endloop
  endfacet
  facet normal 0.951056 -0.309018 0
    outer loop
      vertex 19.2406 -17.7202 8.01
      vertex 19.4344 -17.1237 0
      vertex 19.4344 -17.1237 8.01
    endloop
  endfacet
  facet normal 0.951056 -0.309018 0
    outer loop
      vertex 19.4344 -17.1237 0
      vertex 19.2406 -17.7202 8.01
      vertex 19.2406 -17.7202 0
    endloop
  endfacet
  facet normal 0.994522 -0.104529 0
    outer loop
      vertex 19.4344 -17.1237 8.01
      vertex 19.5 -16.5 0
      vertex 19.5 -16.5 8.01
    endloop
  endfacet
  facet normal 0.994522 -0.104529 0
    outer loop
      vertex 19.5 -16.5 0
      vertex 19.4344 -17.1237 8.01
      vertex 19.4344 -17.1237 0
    endloop
  endfacet
  facet normal 0.587785 -0.809017 0
    outer loop
      vertex 18 -19.0981 0
      vertex 18.5074 -18.7294 8.01
      vertex 18 -19.0981 8.01
    endloop
  endfacet
  facet normal 0.587785 -0.809017 0
    outer loop
      vertex 18.5074 -18.7294 8.01
      vertex 18 -19.0981 0
      vertex 18.5074 -18.7294 0
    endloop
  endfacet
  facet normal -0.406736 -0.913546 0
    outer loop
      vertex -18 -19.0981 0
      vertex -17.4271 -19.3532 8.01
      vertex -18 -19.0981 8.01
    endloop
  endfacet
  facet normal -0.406736 -0.913546 -0
    outer loop
      vertex -17.4271 -19.3532 8.01
      vertex -18 -19.0981 0
      vertex -17.4271 -19.3532 0
    endloop
  endfacet
  facet normal 0 1 -0
    outer loop
      vertex 16.8136 19.4836 0
      vertex -16.8136 19.4836 8.01
      vertex 16.8136 19.4836 8.01
    endloop
  endfacet
  facet normal 0 1 0
    outer loop
      vertex -16.8136 19.4836 8.01
      vertex 16.8136 19.4836 0
      vertex -16.8136 19.4836 0
    endloop
  endfacet
  facet normal 0.951056 0.309018 0
    outer loop
      vertex 19.4344 17.1237 8.01
      vertex 19.2406 17.7202 0
      vertex 19.2406 17.7202 8.01
    endloop
  endfacet
  facet normal 0.951056 0.309018 0
    outer loop
      vertex 19.2406 17.7202 0
      vertex 19.4344 17.1237 8.01
      vertex 19.4344 17.1237 0
    endloop
  endfacet
  facet normal 0.587785 0.809017 -0
    outer loop
      vertex 18.5074 18.7294 0
      vertex 18 19.0981 8.01
      vertex 18.5074 18.7294 8.01
    endloop
  endfacet
  facet normal 0.587785 0.809017 0
    outer loop
      vertex 18 19.0981 8.01
      vertex 18.5074 18.7294 0
      vertex 18 19.0981 0
    endloop
  endfacet
  facet normal 0.406736 0.913546 -0
    outer loop
      vertex 18 19.0981 0
      vertex 17.4271 19.3532 8.01
      vertex 18 19.0981 8.01
    endloop
  endfacet
  facet normal 0.406736 0.913546 0
    outer loop
      vertex 17.4271 19.3532 8.01
      vertex 18 19.0981 0
      vertex 17.4271 19.3532 0
    endloop
  endfacet
  facet normal 0.743144 0.669131 0
    outer loop
      vertex 18.9271 18.2634 8.01
      vertex 18.5074 18.7294 0
      vertex 18.5074 18.7294 8.01
    endloop
  endfacet
  facet normal 0.743144 0.669131 0
    outer loop
      vertex 18.5074 18.7294 0
      vertex 18.9271 18.2634 8.01
      vertex 18.9271 18.2634 0
    endloop
  endfacet
  facet normal -1 0 0
    outer loop
      vertex -19.5 -16.5 0
      vertex -19.5 16.5 8.01
      vertex -19.5 16.5 0
    endloop
  endfacet
  facet normal -1 -0 0
    outer loop
      vertex -19.5 16.5 8.01
      vertex -19.5 -16.5 0
      vertex -19.5 -16.5 8.01
    endloop
  endfacet
  facet normal 0.866027 -0.499997 0
    outer loop
      vertex 18.9271 -18.2634 8.01
      vertex 19.2406 -17.7202 0
      vertex 19.2406 -17.7202 8.01
    endloop
  endfacet
  facet normal 0.866027 -0.499997 0
    outer loop
      vertex 19.2406 -17.7202 0
      vertex 18.9271 -18.2634 8.01
      vertex 18.9271 -18.2634 0
    endloop
  endfacet
  facet normal 0.743144 -0.669131 0
    outer loop
      vertex 18.5074 -18.7294 8.01
      vertex 18.9271 -18.2634 0
      vertex 18.9271 -18.2634 8.01
    endloop
  endfacet
  facet normal 0.743144 -0.669131 0
    outer loop
      vertex 18.9271 -18.2634 0
      vertex 18.5074 -18.7294 8.01
      vertex 18.5074 -18.7294 0
    endloop
  endfacet
  facet normal -0.743144 0.669131 0
    outer loop
      vertex -18.9271 18.2634 0
      vertex -18.5074 18.7294 8.01
      vertex -18.5074 18.7294 0
    endloop
  endfacet
  facet normal -0.743144 0.669131 0
    outer loop
      vertex -18.5074 18.7294 8.01
      vertex -18.9271 18.2634 0
      vertex -18.9271 18.2634 8.01
    endloop
  endfacet
  facet normal -0.743144 -0.669131 0
    outer loop
      vertex -18.5074 -18.7294 0
      vertex -18.9271 -18.2634 8.01
      vertex -18.9271 -18.2634 0
    endloop
  endfacet
  facet normal -0.743144 -0.669131 0
    outer loop
      vertex -18.9271 -18.2634 8.01
      vertex -18.5074 -18.7294 0
      vertex -18.5074 -18.7294 8.01
    endloop
  endfacet
  facet normal 0 0 -1
    outer loop
      vertex 16.8136 -19.4836 0
      vertex 19.5 -16.5 0
      vertex 19.4344 -17.1237 0
    endloop
  endfacet
  facet normal 0 0 -1
    outer loop
      vertex -19.5 -16.5 0
      vertex 19.5 -16.5 0
      vertex 16.8136 -19.4836 0
    endloop
  endfacet
  facet normal 0 0 -1
    outer loop
      vertex 16.8136 -19.4836 0
      vertex 19.4344 -17.1237 0
      vertex 19.2406 -17.7202 0
    endloop
  endfacet
  facet normal 0 0 -1
    outer loop
      vertex 19.5 -16.5 0
      vertex -19.5 -16.5 0
      vertex 19.5 16.5 0
    endloop
  endfacet
  facet normal 0 0 -1
    outer loop
      vertex 16.8136 -19.4836 0
      vertex 19.2406 -17.7202 0
      vertex 18.9271 -18.2634 0
    endloop
  endfacet
  facet normal 0 0 -1
    outer loop
      vertex 19.5 16.5 0
      vertex 16.8136 19.4836 0
      vertex 19.4344 17.1237 0
    endloop
  endfacet
  facet normal 0 0 -1
    outer loop
      vertex 16.8136 -19.4836 0
      vertex 18.9271 -18.2634 0
      vertex 18.5074 -18.7294 0
    endloop
  endfacet
  facet normal 0 0 -1
    outer loop
      vertex 19.4344 17.1237 0
      vertex 16.8136 19.4836 0
      vertex 19.2406 17.7202 0
    endloop
  endfacet
  facet normal 0 0 -1
    outer loop
      vertex 16.8136 -19.4836 0
      vertex 18.5074 -18.7294 0
      vertex 18 -19.0981 0
    endloop
  endfacet
  facet normal 0 0 -1
    outer loop
      vertex 19.2406 17.7202 0
      vertex 16.8136 19.4836 0
      vertex 18.9271 18.2634 0
    endloop
  endfacet
  facet normal 0 0 -1
    outer loop
      vertex 16.8136 -19.4836 0
      vertex 18 -19.0981 0
      vertex 17.4271 -19.3532 0
    endloop
  endfacet
  facet normal 0 0 -1
    outer loop
      vertex 18.9271 18.2634 0
      vertex 16.8136 19.4836 0
      vertex 18.5074 18.7294 0
    endloop
  endfacet
  facet normal 0 0 -1
    outer loop
      vertex 18.5074 18.7294 0
      vertex 16.8136 19.4836 0
      vertex 18 19.0981 0
    endloop
  endfacet
  facet normal 0 0 -1
    outer loop
      vertex 18 19.0981 0
      vertex 16.8136 19.4836 0
      vertex 17.4271 19.3532 0
    endloop
  endfacet
  facet normal 0 0 -1
    outer loop
      vertex -19.5 -16.5 0
      vertex 16.8136 -19.4836 0
      vertex -16.8136 -19.4836 0
    endloop
  endfacet
  facet normal 0 0 -1
    outer loop
      vertex -19.5 16.5 0
      vertex 19.5 16.5 0
      vertex -19.5 -16.5 0
    endloop
  endfacet
  facet normal 0 0 -1
    outer loop
      vertex -19.5 -16.5 0
      vertex -16.8136 -19.4836 0
      vertex -17.4271 -19.3532 0
    endloop
  endfacet
  facet normal 0 0 -1
    outer loop
      vertex 19.5 16.5 0
      vertex -19.5 16.5 0
      vertex 16.8136 19.4836 0
    endloop
  endfacet
  facet normal 0 0 -1
    outer loop
      vertex -19.5 -16.5 0
      vertex -17.4271 -19.3532 0
      vertex -18 -19.0981 0
    endloop
  endfacet
  facet normal -0 0 -1
    outer loop
      vertex 16.8136 19.4836 0
      vertex -19.5 16.5 0
      vertex -16.8136 19.4836 0
    endloop
  endfacet
  facet normal 0 0 -1
    outer loop
      vertex -19.5 -16.5 0
      vertex -18 -19.0981 0
      vertex -18.5074 -18.7294 0
    endloop
  endfacet
  facet normal 0 0 -1
    outer loop
      vertex -16.8136 19.4836 0
      vertex -19.5 16.5 0
      vertex -17.4271 19.3532 0
    endloop
  endfacet
  facet normal 0 0 -1
    outer loop
      vertex -19.5 -16.5 0
      vertex -18.5074 -18.7294 0
      vertex -18.9271 -18.2634 0
    endloop
  endfacet
  facet normal 0 0 -1
    outer loop
      vertex -17.4271 19.3532 0
      vertex -19.5 16.5 0
      vertex -18 19.0981 0
    endloop
  endfacet
  facet normal 0 0 -1
    outer loop
      vertex -19.5 -16.5 0
      vertex -18.9271 -18.2634 0
      vertex -19.2406 -17.7202 0
    endloop
  endfacet
  facet normal 0 0 -1
    outer loop
      vertex -18 19.0981 0
      vertex -19.5 16.5 0
      vertex -18.5074 18.7294 0
    endloop
  endfacet
  facet normal 0 0 -1
    outer loop
      vertex -19.5 -16.5 0
      vertex -19.2406 -17.7202 0
      vertex -19.4344 -17.1237 0
    endloop
  endfacet
  facet normal 0 0 -1
    outer loop
      vertex -18.5074 18.7294 0
      vertex -19.5 16.5 0
      vertex -18.9271 18.2634 0
    endloop
  endfacet
  facet normal 0 0 -1
    outer loop
      vertex -18.9271 18.2634 0
      vertex -19.5 16.5 0
      vertex -19.2406 17.7202 0
    endloop
  endfacet
  facet normal 0 0 -1
    outer loop
      vertex -19.2406 17.7202 0
      vertex -19.5 16.5 0
      vertex -19.4344 17.1237 0
    endloop
  endfacet
  facet normal -0.994522 0.104529 0
    outer loop
      vertex -19.5 16.5 0
      vertex -19.4344 17.1237 8.01
      vertex -19.4344 17.1237 0
    endloop
  endfacet
  facet normal -0.994522 0.104529 0
    outer loop
      vertex -19.4344 17.1237 8.01
      vertex -19.5 16.5 0
      vertex -19.5 16.5 8.01
    endloop
  endfacet
  facet normal 0 0 1
    outer loop
      vertex 16.2135 15.8817 8.01
      vertex 19.5 16.5 8.01
      vertex 19.4344 17.1237 8.01
    endloop
  endfacet
  facet normal 0 0 1
    outer loop
      vertex 19.5 16.5 8.01
      vertex 16.5 15 8.01
      vertex 19.5 -16.5 8.01
    endloop
  endfacet
  facet normal 0 0 1
    outer loop
      vertex 16.2135 15.8817 8.01
      vertex 19.4344 17.1237 8.01
      vertex 19.2406 17.7202 8.01
    endloop
  endfacet
  facet normal -0 0 1
    outer loop
      vertex 16.5 -15 8.01
      vertex 19.5 -16.5 8.01
      vertex 16.5 15 8.01
    endloop
  endfacet
  facet normal 0 0 1
    outer loop
      vertex 16.2135 15.8817 8.01
      vertex 19.2406 17.7202 8.01
      vertex 18.9271 18.2634 8.01
    endloop
  endfacet
  facet normal -0 0 1
    outer loop
      vertex 16.4672 -15.3119 8.01
      vertex 19.5 -16.5 8.01
      vertex 16.5 -15 8.01
    endloop
  endfacet
  facet normal 0 0 1
    outer loop
      vertex 16.0037 16.1147 8.01
      vertex 18.9271 18.2634 8.01
      vertex 18.5074 18.7294 8.01
    endloop
  endfacet
  facet normal -0 0 1
    outer loop
      vertex 16.3703 -15.6101 8.01
      vertex 19.5 -16.5 8.01
      vertex 16.4672 -15.3119 8.01
    endloop
  endfacet
  facet normal 0 0 1
    outer loop
      vertex 16.0037 16.1147 8.01
      vertex 18.5074 18.7294 8.01
      vertex 18 19.0981 8.01
    endloop
  endfacet
  facet normal -0 0 1
    outer loop
      vertex 16.2135 -15.8817 8.01
      vertex 19.5 -16.5 8.01
      vertex 16.3703 -15.6101 8.01
    endloop
  endfacet
  facet normal 0 0 1
    outer loop
      vertex 16.0037 16.1147 8.01
      vertex 18 19.0981 8.01
      vertex 17.4271 19.3532 8.01
    endloop
  endfacet
  facet normal 0 0 1
    outer loop
      vertex 19.5 -16.5 8.01
      vertex 16.2135 -15.8817 8.01
      vertex 19.4344 -17.1237 8.01
    endloop
  endfacet
  facet normal 0 0 1
    outer loop
      vertex 15.75 16.299 8.01
      vertex 17.4271 19.3532 8.01
      vertex 16.8136 19.4836 8.01
    endloop
  endfacet
  facet normal 0 0 1
    outer loop
      vertex 19.4344 -17.1237 8.01
      vertex 16.2135 -15.8817 8.01
      vertex 19.2406 -17.7202 8.01
    endloop
  endfacet
  facet normal 0 0 1
    outer loop
      vertex 19.2406 -17.7202 8.01
      vertex 16.2135 -15.8817 8.01
      vertex 18.9271 -18.2634 8.01
    endloop
  endfacet
  facet normal 0 0 1
    outer loop
      vertex 19.5 16.5 8.01
      vertex 16.4672 15.3119 8.01
      vertex 16.5 15 8.01
    endloop
  endfacet
  facet normal 0 0 1
    outer loop
      vertex 19.5 16.5 8.01
      vertex 16.3703 15.6101 8.01
      vertex 16.4672 15.3119 8.01
    endloop
  endfacet
  facet normal 0 0 1
    outer loop
      vertex 19.5 16.5 8.01
      vertex 16.2135 15.8817 8.01
      vertex 16.3703 15.6101 8.01
    endloop
  endfacet
  facet normal 0 0 1
    outer loop
      vertex 18.9271 18.2634 8.01
      vertex 16.0037 16.1147 8.01
      vertex 16.2135 15.8817 8.01
    endloop
  endfacet
  facet normal 0 0 1
    outer loop
      vertex 17.4271 19.3532 8.01
      vertex 15.75 16.299 8.01
      vertex 16.0037 16.1147 8.01
    endloop
  endfacet
  facet normal 0 0 1
    outer loop
      vertex 16.8136 19.4836 8.01
      vertex 15.4635 16.4266 8.01
      vertex 15.75 16.299 8.01
    endloop
  endfacet
  facet normal 0 0 1
    outer loop
      vertex 16.8136 19.4836 8.01
      vertex 15.1568 16.4918 8.01
      vertex 15.4635 16.4266 8.01
    endloop
  endfacet
  facet normal 0 0 1
    outer loop
      vertex 16.8136 19.4836 8.01
      vertex -15.1568 16.4918 8.01
      vertex 15.1568 16.4918 8.01
    endloop
  endfacet
  facet normal 0 0 1
    outer loop
      vertex -16.0037 16.1147 8.01
      vertex -18.9271 18.2634 8.01
      vertex -16.2135 15.8817 8.01
    endloop
  endfacet
  facet normal -0 0 1
    outer loop
      vertex -18.9271 18.2634 8.01
      vertex -16.0037 16.1147 8.01
      vertex -18.5074 18.7294 8.01
    endloop
  endfacet
  facet normal -0 0 1
    outer loop
      vertex -18.5074 18.7294 8.01
      vertex -16.0037 16.1147 8.01
      vertex -18 19.0981 8.01
    endloop
  endfacet
  facet normal -0 0 1
    outer loop
      vertex -18 19.0981 8.01
      vertex -16.0037 16.1147 8.01
      vertex -17.4271 19.3532 8.01
    endloop
  endfacet
  facet normal 0 0 1
    outer loop
      vertex -15.75 16.299 8.01
      vertex -17.4271 19.3532 8.01
      vertex -16.0037 16.1147 8.01
    endloop
  endfacet
  facet normal -0 0 1
    outer loop
      vertex -17.4271 19.3532 8.01
      vertex -15.75 16.299 8.01
      vertex -16.8136 19.4836 8.01
    endloop
  endfacet
  facet normal 0 0 1
    outer loop
      vertex -15.4635 16.4266 8.01
      vertex -16.8136 19.4836 8.01
      vertex -15.75 16.299 8.01
    endloop
  endfacet
  facet normal 0 0 1
    outer loop
      vertex -15.1568 16.4918 8.01
      vertex -16.8136 19.4836 8.01
      vertex -15.4635 16.4266 8.01
    endloop
  endfacet
  facet normal -0 0 1
    outer loop
      vertex -16.8136 19.4836 8.01
      vertex -15.1568 16.4918 8.01
      vertex 16.8136 19.4836 8.01
    endloop
  endfacet
  facet normal -0 0 1
    outer loop
      vertex 16.0037 -16.1147 8.01
      vertex 18.9271 -18.2634 8.01
      vertex 16.2135 -15.8817 8.01
    endloop
  endfacet
  facet normal 0 0 1
    outer loop
      vertex 18.9271 -18.2634 8.01
      vertex 16.0037 -16.1147 8.01
      vertex 18.5074 -18.7294 8.01
    endloop
  endfacet
  facet normal 0 0 1
    outer loop
      vertex 18.5074 -18.7294 8.01
      vertex 16.0037 -16.1147 8.01
      vertex 18 -19.0981 8.01
    endloop
  endfacet
  facet normal 0 0 1
    outer loop
      vertex 18 -19.0981 8.01
      vertex 16.0037 -16.1147 8.01
      vertex 17.4271 -19.3532 8.01
    endloop
  endfacet
  facet normal -0 0 1
    outer loop
      vertex 15.75 -16.299 8.01
      vertex 17.4271 -19.3532 8.01
      vertex 16.0037 -16.1147 8.01
    endloop
  endfacet
  facet normal 0 0 1
    outer loop
      vertex 17.4271 -19.3532 8.01
      vertex 15.75 -16.299 8.01
      vertex 16.8136 -19.4836 8.01
    endloop
  endfacet
  facet normal -0 0 1
    outer loop
      vertex 15.4635 -16.4266 8.01
      vertex 16.8136 -19.4836 8.01
      vertex 15.75 -16.299 8.01
    endloop
  endfacet
  facet normal -0 0 1
    outer loop
      vertex 15.1568 -16.4918 8.01
      vertex 16.8136 -19.4836 8.01
      vertex 15.4635 -16.4266 8.01
    endloop
  endfacet
  facet normal -0 0 1
    outer loop
      vertex -15.1568 -16.4918 8.01
      vertex 16.8136 -19.4836 8.01
      vertex 15.1568 -16.4918 8.01
    endloop
  endfacet
  facet normal 0 0 1
    outer loop
      vertex -15.1568 -16.4918 8.01
      vertex -16.8136 -19.4836 8.01
      vertex 16.8136 -19.4836 8.01
    endloop
  endfacet
  facet normal 0 0 1
    outer loop
      vertex -15.4635 -16.4266 8.01
      vertex -16.8136 -19.4836 8.01
      vertex -15.1568 -16.4918 8.01
    endloop
  endfacet
  facet normal 0 0 1
    outer loop
      vertex -15.75 -16.299 8.01
      vertex -16.8136 -19.4836 8.01
      vertex -15.4635 -16.4266 8.01
    endloop
  endfacet
  facet normal 0 0 1
    outer loop
      vertex -17.4271 -19.3532 8.01
      vertex -15.75 -16.299 8.01
      vertex -16.0037 -16.1147 8.01
    endloop
  endfacet
  facet normal 0 0 1
    outer loop
      vertex -18.9271 -18.2634 8.01
      vertex -16.0037 -16.1147 8.01
      vertex -16.2135 -15.8817 8.01
    endloop
  endfacet
  facet normal 0 0 1
    outer loop
      vertex -19.5 -16.5 8.01
      vertex -16.2135 -15.8817 8.01
      vertex -16.3703 -15.6101 8.01
    endloop
  endfacet
  facet normal 0 0 1
    outer loop
      vertex -19.5 -16.5 8.01
      vertex -16.3703 -15.6101 8.01
      vertex -16.4672 -15.3119 8.01
    endloop
  endfacet
  facet normal 0 0 1
    outer loop
      vertex -19.5 -16.5 8.01
      vertex -16.4672 -15.3119 8.01
      vertex -16.5 -15 8.01
    endloop
  endfacet
  facet normal 0 0 1
    outer loop
      vertex -16.5 15 8.01
      vertex -19.5 16.5 8.01
      vertex -16.5 -15 8.01
    endloop
  endfacet
  facet normal -0 0 1
    outer loop
      vertex -19.2406 17.7202 8.01
      vertex -16.2135 15.8817 8.01
      vertex -18.9271 18.2634 8.01
    endloop
  endfacet
  facet normal 0 0 1
    outer loop
      vertex -19.5 -16.5 8.01
      vertex -16.5 -15 8.01
      vertex -19.5 16.5 8.01
    endloop
  endfacet
  facet normal -0 0 1
    outer loop
      vertex -19.4344 17.1237 8.01
      vertex -16.2135 15.8817 8.01
      vertex -19.2406 17.7202 8.01
    endloop
  endfacet
  facet normal 0 0 1
    outer loop
      vertex -16.2135 -15.8817 8.01
      vertex -19.5 -16.5 8.01
      vertex -19.4344 -17.1237 8.01
    endloop
  endfacet
  facet normal -0 0 1
    outer loop
      vertex -19.5 16.5 8.01
      vertex -16.2135 15.8817 8.01
      vertex -19.4344 17.1237 8.01
    endloop
  endfacet
  facet normal 0 0 1
    outer loop
      vertex -15.75 -16.299 8.01
      vertex -17.4271 -19.3532 8.01
      vertex -16.8136 -19.4836 8.01
    endloop
  endfacet
  facet normal 0 0 1
    outer loop
      vertex -16.2135 15.8817 8.01
      vertex -19.5 16.5 8.01
      vertex -16.3703 15.6101 8.01
    endloop
  endfacet
  facet normal 0 0 1
    outer loop
      vertex -16.0037 -16.1147 8.01
      vertex -18 -19.0981 8.01
      vertex -17.4271 -19.3532 8.01
    endloop
  endfacet
  facet normal 0 0 1
    outer loop
      vertex -16.3703 15.6101 8.01
      vertex -19.5 16.5 8.01
      vertex -16.4672 15.3119 8.01
    endloop
  endfacet
  facet normal 0 0 1
    outer loop
      vertex -16.0037 -16.1147 8.01
      vertex -18.5074 -18.7294 8.01
      vertex -18 -19.0981 8.01
    endloop
  endfacet
  facet normal 0 0 1
    outer loop
      vertex -16.4672 15.3119 8.01
      vertex -19.5 16.5 8.01
      vertex -16.5 15 8.01
    endloop
  endfacet
  facet normal 0 0 1
    outer loop
      vertex -16.0037 -16.1147 8.01
      vertex -18.9271 -18.2634 8.01
      vertex -18.5074 -18.7294 8.01
    endloop
  endfacet
  facet normal 0 0 1
    outer loop
      vertex -16.2135 -15.8817 8.01
      vertex -19.2406 -17.7202 8.01
      vertex -18.9271 -18.2634 8.01
    endloop
  endfacet
  facet normal 0 0 1
    outer loop
      vertex -16.2135 -15.8817 8.01
      vertex -19.4344 -17.1237 8.01
      vertex -19.2406 -17.7202 8.01
    endloop
  endfacet
  facet normal 0.406736 -0.913546 0
    outer loop
      vertex 17.4271 -19.3532 0
      vertex 18 -19.0981 8.01
      vertex 17.4271 -19.3532 8.01
    endloop
  endfacet
  facet normal 0.406736 -0.913546 0
    outer loop
      vertex 18 -19.0981 8.01
      vertex 17.4271 -19.3532 0
      vertex 18 -19.0981 0
    endloop
  endfacet
  facet normal 0.207914 -0.978147 0
    outer loop
      vertex 16.8136 -19.4836 0
      vertex 17.4271 -19.3532 8.01
      vertex 16.8136 -19.4836 8.01
    endloop
  endfacet
  facet normal 0.207914 -0.978147 0
    outer loop
      vertex 17.4271 -19.3532 8.01
      vertex 16.8136 -19.4836 0
      vertex 17.4271 -19.3532 0
    endloop
  endfacet
  facet normal -0.406736 0.913546 0
    outer loop
      vertex -17.4271 19.3532 0
      vertex -18 19.0981 8.01
      vertex -17.4271 19.3532 8.01
    endloop
  endfacet
  facet normal -0.406736 0.913546 0
    outer loop
      vertex -18 19.0981 8.01
      vertex -17.4271 19.3532 0
      vertex -18 19.0981 0
    endloop
  endfacet
  facet normal -0.207914 0.978147 0
    outer loop
      vertex -16.8136 19.4836 0
      vertex -17.4271 19.3532 8.01
      vertex -16.8136 19.4836 8.01
    endloop
  endfacet
  facet normal -0.207914 0.978147 0
    outer loop
      vertex -17.4271 19.3532 8.01
      vertex -16.8136 19.4836 0
      vertex -17.4271 19.3532 0
    endloop
  endfacet
  facet normal -0.587785 0.809017 0
    outer loop
      vertex -18 19.0981 0
      vertex -18.5074 18.7294 8.01
      vertex -18 19.0981 8.01
    endloop
  endfacet
  facet normal -0.587785 0.809017 0
    outer loop
      vertex -18.5074 18.7294 8.01
      vertex -18 19.0981 0
      vertex -18.5074 18.7294 0
    endloop
  endfacet
  facet normal -0.587785 -0.809017 0
    outer loop
      vertex -18.5074 -18.7294 0
      vertex -18 -19.0981 8.01
      vertex -18.5074 -18.7294 8.01
    endloop
  endfacet
  facet normal -0.587785 -0.809017 -0
    outer loop
      vertex -18 -19.0981 8.01
      vertex -18.5074 -18.7294 0
      vertex -18 -19.0981 0
    endloop
  endfacet
  facet normal -0.994522 -0.104529 0
    outer loop
      vertex -19.4344 -17.1237 0
      vertex -19.5 -16.5 8.01
      vertex -19.5 -16.5 0
    endloop
  endfacet
  facet normal -0.994522 -0.104529 0
    outer loop
      vertex -19.5 -16.5 8.01
      vertex -19.4344 -17.1237 0
      vertex -19.4344 -17.1237 8.01
    endloop
  endfacet
  facet normal -0.951056 0.309018 0
    outer loop
      vertex -19.4344 17.1237 0
      vertex -19.2406 17.7202 8.01
      vertex -19.2406 17.7202 0
    endloop
  endfacet
  facet normal -0.951056 0.309018 0
    outer loop
      vertex -19.2406 17.7202 8.01
      vertex -19.4344 17.1237 0
      vertex -19.4344 17.1237 8.01
    endloop
  endfacet
  facet normal -0.951056 -0.309018 0
    outer loop
      vertex -19.2406 -17.7202 0
      vertex -19.4344 -17.1237 8.01
      vertex -19.4344 -17.1237 0
    endloop
  endfacet
  facet normal -0.951056 -0.309018 0
    outer loop
      vertex -19.4344 -17.1237 8.01
      vertex -19.2406 -17.7202 0
      vertex -19.2406 -17.7202 8.01
    endloop
  endfacet
  facet normal -0.866027 -0.499997 0
    outer loop
      vertex -18.9271 -18.2634 0
      vertex -19.2406 -17.7202 8.01
      vertex -19.2406 -17.7202 0
    endloop
  endfacet
  facet normal -0.866027 -0.499997 0
    outer loop
      vertex -19.2406 -17.7202 8.01
      vertex -18.9271 -18.2634 0
      vertex -18.9271 -18.2634 8.01
    endloop
  endfacet
  facet normal -0.994522 -0.104532 0
    outer loop
      vertex 16.5 15 4.95
      vertex 16.4672 15.3119 8.01
      vertex 16.4672 15.3119 4.95
    endloop
  endfacet
  facet normal -0.994522 -0.104532 0
    outer loop
      vertex 16.4672 15.3119 8.01
      vertex 16.5 15 4.95
      vertex 16.5 15 8.01
    endloop
  endfacet
  facet normal 0 1 -0
    outer loop
      vertex 15.1568 -16.4918 4.95
      vertex -15.1568 -16.4918 8.01
      vertex 15.1568 -16.4918 8.01
    endloop
  endfacet
  facet normal 0 1 0
    outer loop
      vertex -15.1568 -16.4918 8.01
      vertex 15.1568 -16.4918 4.95
      vertex -15.1568 -16.4918 4.95
    endloop
  endfacet
  facet normal -0.207915 -0.978147 0
    outer loop
      vertex 15.1568 16.4918 4.95
      vertex 15.4635 16.4266 8.01
      vertex 15.1568 16.4918 8.01
    endloop
  endfacet
  facet normal -0.207915 -0.978147 -0
    outer loop
      vertex 15.4635 16.4266 8.01
      vertex 15.1568 16.4918 4.95
      vertex 15.4635 16.4266 4.95
    endloop
  endfacet
  facet normal -1 0 0
    outer loop
      vertex 16.5 -15 4.95
      vertex 16.5 15 8.01
      vertex 16.5 15 4.95
    endloop
  endfacet
  facet normal -1 -0 0
    outer loop
      vertex 16.5 15 8.01
      vertex 16.5 -15 4.95
      vertex 16.5 -15 8.01
    endloop
  endfacet
  facet normal 0 -1 0
    outer loop
      vertex -15.1568 16.4918 4.95
      vertex 15.1568 16.4918 8.01
      vertex -15.1568 16.4918 8.01
    endloop
  endfacet
  facet normal 0 -1 -0
    outer loop
      vertex 15.1568 16.4918 8.01
      vertex -15.1568 16.4918 4.95
      vertex 15.1568 16.4918 4.95
    endloop
  endfacet
  facet normal -0.743146 -0.669129 0
    outer loop
      vertex 16.2135 15.8817 4.95
      vertex 16.0037 16.1147 8.01
      vertex 16.0037 16.1147 4.95
    endloop
  endfacet
  facet normal -0.743146 -0.669129 0
    outer loop
      vertex 16.0037 16.1147 8.01
      vertex 16.2135 15.8817 4.95
      vertex 16.2135 15.8817 8.01
    endloop
  endfacet
  facet normal -0.587788 0.809015 0
    outer loop
      vertex 16.0037 -16.1147 4.95
      vertex 15.75 -16.299 8.01
      vertex 16.0037 -16.1147 8.01
    endloop
  endfacet
  facet normal -0.587788 0.809015 0
    outer loop
      vertex 15.75 -16.299 8.01
      vertex 16.0037 -16.1147 4.95
      vertex 15.75 -16.299 4.95
    endloop
  endfacet
  facet normal 0.994522 0.104532 0
    outer loop
      vertex -16.4672 -15.3119 8.01
      vertex -16.5 -15 4.95
      vertex -16.5 -15 8.01
    endloop
  endfacet
  facet normal 0.994522 0.104532 0
    outer loop
      vertex -16.5 -15 4.95
      vertex -16.4672 -15.3119 8.01
      vertex -16.4672 -15.3119 4.95
    endloop
  endfacet
  facet normal 0.207915 0.978147 -0
    outer loop
      vertex -15.1568 -16.4918 4.95
      vertex -15.4635 -16.4266 8.01
      vertex -15.1568 -16.4918 8.01
    endloop
  endfacet
  facet normal 0.207915 0.978147 0
    outer loop
      vertex -15.4635 -16.4266 8.01
      vertex -15.1568 -16.4918 4.95
      vertex -15.4635 -16.4266 4.95
    endloop
  endfacet
  facet normal 1 -0 0
    outer loop
      vertex -16.5 -15 8.01
      vertex -16.5 15 4.95
      vertex -16.5 15 8.01
    endloop
  endfacet
  facet normal 1 0 0
    outer loop
      vertex -16.5 15 4.95
      vertex -16.5 -15 8.01
      vertex -16.5 -15 4.95
    endloop
  endfacet
  facet normal 0.587786 -0.809016 0
    outer loop
      vertex -16.0037 16.1147 4.95
      vertex -15.75 16.299 8.01
      vertex -16.0037 16.1147 8.01
    endloop
  endfacet
  facet normal 0.587786 -0.809016 0
    outer loop
      vertex -15.75 16.299 8.01
      vertex -16.0037 16.1147 4.95
      vertex -15.75 16.299 4.95
    endloop
  endfacet
  facet normal -0.406735 -0.913546 0
    outer loop
      vertex 15.4635 16.4266 4.95
      vertex 15.75 16.299 8.01
      vertex 15.4635 16.4266 8.01
    endloop
  endfacet
  facet normal -0.406735 -0.913546 -0
    outer loop
      vertex 15.75 16.299 8.01
      vertex 15.4635 16.4266 4.95
      vertex 15.75 16.299 4.95
    endloop
  endfacet
  facet normal -0.587788 -0.809015 0
    outer loop
      vertex 15.75 16.299 4.95
      vertex 16.0037 16.1147 8.01
      vertex 15.75 16.299 8.01
    endloop
  endfacet
  facet normal -0.587788 -0.809015 -0
    outer loop
      vertex 16.0037 16.1147 8.01
      vertex 15.75 16.299 4.95
      vertex 16.0037 16.1147 4.95
    endloop
  endfacet
  facet normal -0.866024 -0.500002 0
    outer loop
      vertex 16.3703 15.6101 4.95
      vertex 16.2135 15.8817 8.01
      vertex 16.2135 15.8817 4.95
    endloop
  endfacet
  facet normal -0.866024 -0.500002 0
    outer loop
      vertex 16.2135 15.8817 8.01
      vertex 16.3703 15.6101 4.95
      vertex 16.3703 15.6101 8.01
    endloop
  endfacet
  facet normal -0.951057 -0.309016 0
    outer loop
      vertex 16.4672 15.3119 4.95
      vertex 16.3703 15.6101 8.01
      vertex 16.3703 15.6101 4.95
    endloop
  endfacet
  facet normal -0.951057 -0.309016 0
    outer loop
      vertex 16.3703 15.6101 8.01
      vertex 16.4672 15.3119 4.95
      vertex 16.4672 15.3119 8.01
    endloop
  endfacet
  facet normal -0.951057 0.309016 0
    outer loop
      vertex 16.3703 -15.6101 4.95
      vertex 16.4672 -15.3119 8.01
      vertex 16.4672 -15.3119 4.95
    endloop
  endfacet
  facet normal -0.951057 0.309016 0
    outer loop
      vertex 16.4672 -15.3119 8.01
      vertex 16.3703 -15.6101 4.95
      vertex 16.3703 -15.6101 8.01
    endloop
  endfacet
  facet normal 0.406735 0.913546 -0
    outer loop
      vertex -15.4635 -16.4266 4.95
      vertex -15.75 -16.299 8.01
      vertex -15.4635 -16.4266 8.01
    endloop
  endfacet
  facet normal 0.406735 0.913546 0
    outer loop
      vertex -15.75 -16.299 8.01
      vertex -15.4635 -16.4266 4.95
      vertex -15.75 -16.299 4.95
    endloop
  endfacet
  facet normal 0.994522 -0.104532 0
    outer loop
      vertex -16.5 15 8.01
      vertex -16.4672 15.3119 4.95
      vertex -16.4672 15.3119 8.01
    endloop
  endfacet
  facet normal 0.994522 -0.104532 0
    outer loop
      vertex -16.4672 15.3119 4.95
      vertex -16.5 15 8.01
      vertex -16.5 15 4.95
    endloop
  endfacet
  facet normal 0.207915 -0.978147 0
    outer loop
      vertex -15.4635 16.4266 4.95
      vertex -15.1568 16.4918 8.01
      vertex -15.4635 16.4266 8.01
    endloop
  endfacet
  facet normal 0.207915 -0.978147 0
    outer loop
      vertex -15.1568 16.4918 8.01
      vertex -15.4635 16.4266 4.95
      vertex -15.1568 16.4918 4.95
    endloop
  endfacet
  facet normal 0.406736 -0.913546 0
    outer loop
      vertex -15.75 16.299 4.95
      vertex -15.4635 16.4266 8.01
      vertex -15.75 16.299 8.01
    endloop
  endfacet
  facet normal 0.406736 -0.913546 0
    outer loop
      vertex -15.4635 16.4266 8.01
      vertex -15.75 16.299 4.95
      vertex -15.4635 16.4266 4.95
    endloop
  endfacet
  facet normal -0.994522 0.104532 0
    outer loop
      vertex 16.4672 -15.3119 4.95
      vertex 16.5 -15 8.01
      vertex 16.5 -15 4.95
    endloop
  endfacet
  facet normal -0.994522 0.104532 0
    outer loop
      vertex 16.5 -15 8.01
      vertex 16.4672 -15.3119 4.95
      vertex 16.4672 -15.3119 8.01
    endloop
  endfacet
  facet normal -0.406735 0.913546 0
    outer loop
      vertex 15.75 -16.299 4.95
      vertex 15.4635 -16.4266 8.01
      vertex 15.75 -16.299 8.01
    endloop
  endfacet
  facet normal -0.406735 0.913546 0
    outer loop
      vertex 15.4635 -16.4266 8.01
      vertex 15.75 -16.299 4.95
      vertex 15.4635 -16.4266 4.95
    endloop
  endfacet
  facet normal -0.207915 0.978147 0
    outer loop
      vertex 15.4635 -16.4266 4.95
      vertex 15.1568 -16.4918 8.01
      vertex 15.4635 -16.4266 8.01
    endloop
  endfacet
  facet normal -0.207915 0.978147 0
    outer loop
      vertex 15.1568 -16.4918 8.01
      vertex 15.4635 -16.4266 4.95
      vertex 15.1568 -16.4918 4.95
    endloop
  endfacet
  facet normal 0.743146 0.669129 0
    outer loop
      vertex -16.0037 -16.1147 8.01
      vertex -16.2135 -15.8817 4.95
      vertex -16.2135 -15.8817 8.01
    endloop
  endfacet
  facet normal 0.743146 0.669129 0
    outer loop
      vertex -16.2135 -15.8817 4.95
      vertex -16.0037 -16.1147 8.01
      vertex -16.0037 -16.1147 4.95
    endloop
  endfacet
  facet normal 0.951057 -0.309016 0
    outer loop
      vertex -16.4672 15.3119 8.01
      vertex -16.3703 15.6101 4.95
      vertex -16.3703 15.6101 8.01
    endloop
  endfacet
  facet normal 0.951057 -0.309016 0
    outer loop
      vertex -16.3703 15.6101 4.95
      vertex -16.4672 15.3119 8.01
      vertex -16.4672 15.3119 4.95
    endloop
  endfacet
  facet normal 0.866024 -0.500002 0
    outer loop
      vertex -16.3703 15.6101 8.01
      vertex -16.2135 15.8817 4.95
      vertex -16.2135 15.8817 8.01
    endloop
  endfacet
  facet normal 0.866024 -0.500002 0
    outer loop
      vertex -16.2135 15.8817 4.95
      vertex -16.3703 15.6101 8.01
      vertex -16.3703 15.6101 4.95
    endloop
  endfacet
  facet normal 0.743146 -0.669129 0
    outer loop
      vertex -16.2135 15.8817 8.01
      vertex -16.0037 16.1147 4.95
      vertex -16.0037 16.1147 8.01
    endloop
  endfacet
  facet normal 0.743146 -0.669129 0
    outer loop
      vertex -16.0037 16.1147 4.95
      vertex -16.2135 15.8817 8.01
      vertex -16.2135 15.8817 4.95
    endloop
  endfacet
  facet normal -0.866024 0.500002 0
    outer loop
      vertex 16.2135 -15.8817 4.95
      vertex 16.3703 -15.6101 8.01
      vertex 16.3703 -15.6101 4.95
    endloop
  endfacet
  facet normal -0.866024 0.500002 0
    outer loop
      vertex 16.3703 -15.6101 8.01
      vertex 16.2135 -15.8817 4.95
      vertex 16.2135 -15.8817 8.01
    endloop
  endfacet
  facet normal -0.743146 0.669129 0
    outer loop
      vertex 16.0037 -16.1147 4.95
      vertex 16.2135 -15.8817 8.01
      vertex 16.2135 -15.8817 4.95
    endloop
  endfacet
  facet normal -0.743146 0.669129 0
    outer loop
      vertex 16.2135 -15.8817 8.01
      vertex 16.0037 -16.1147 4.95
      vertex 16.0037 -16.1147 8.01
    endloop
  endfacet
  facet normal 0.951057 0.309016 0
    outer loop
      vertex -16.3703 -15.6101 8.01
      vertex -16.4672 -15.3119 4.95
      vertex -16.4672 -15.3119 8.01
    endloop
  endfacet
  facet normal 0.951057 0.309016 0
    outer loop
      vertex -16.4672 -15.3119 4.95
      vertex -16.3703 -15.6101 8.01
      vertex -16.3703 -15.6101 4.95
    endloop
  endfacet
  facet normal 0.866024 0.500002 0
    outer loop
      vertex -16.2135 -15.8817 8.01
      vertex -16.3703 -15.6101 4.95
      vertex -16.3703 -15.6101 8.01
    endloop
  endfacet
  facet normal 0.866024 0.500002 0
    outer loop
      vertex -16.3703 -15.6101 4.95
      vertex -16.2135 -15.8817 8.01
      vertex -16.2135 -15.8817 4.95
    endloop
  endfacet
  facet normal 0.587788 0.809015 -0
    outer loop
      vertex -15.75 -16.299 4.95
      vertex -16.0037 -16.1147 8.01
      vertex -15.75 -16.299 8.01
    endloop
  endfacet
  facet normal 0.587788 0.809015 0
    outer loop
      vertex -16.0037 -16.1147 8.01
      vertex -15.75 -16.299 4.95
      vertex -16.0037 -16.1147 4.95
    endloop
  endfacet
  facet normal 0.147418 -0.693552 0.705162
    outer loop
      vertex -0.677582 6.6205 3
      vertex -0.881412 8.55982 4.95
      vertex -1.28016 8.47506 4.95
    endloop
  endfacet
  facet normal -0.416767 -0.57363 0.705162
    outer loop
      vertex 5.09965 7.52568 4.95
      vertex 4.76985 7.7653 4.95
      vertex 3.79485 6.07655 3
    endloop
  endfacet
  facet normal -0.176819 -0.685337 0.706434
    outer loop
      vertex 2.59993 8.59061 4.95
      vertex 2.95592 6.48874 3
      vertex 3.5585 8.3433 4.95
    endloop
  endfacet
  facet normal -0.176819 -0.685337 0.706434
    outer loop
      vertex 2.95592 6.48874 3
      vertex 2.59993 8.59061 4.95
      vertex 1.99734 6.73605 3
    endloop
  endfacet
  facet normal 0.526923 -0.474446 0.705162
    outer loop
      vertex -2.95332 5.15474 3
      vertex -3.3558 5.60173 3.60149
      vertex -3.39529 5.47585 3.5463
    endloop
  endfacet
  facet normal -0.288396 -0.647746 0.705162
    outer loop
      vertex 3.93092 8.17749 4.95
      vertex 3.5585 8.3433 4.95
      vertex 2.95592 6.48874 3
    endloop
  endfacet
  facet normal 0 0 1
    outer loop
      vertex 5.83316 1.5965 3
      vertex 3.30997 1.99411 3
      vertex 3.36116 1.12349 3
    endloop
  endfacet
  facet normal 0 0 1
    outer loop
      vertex 4.51416 5.4995 3
      vertex 3.15642 2.745 3
      vertex 3.30997 1.99411 3
    endloop
  endfacet
  facet normal 0 0 1
    outer loop
      vertex 2.09709 4.28256 3
      vertex 3.79485 6.07655 3
      vertex 2.95592 6.48874 3
    endloop
  endfacet
  facet normal 0 0 1
    outer loop
      vertex 4.51416 5.4995 3
      vertex 2.90047 3.37611 3
      vertex 3.15642 2.745 3
    endloop
  endfacet
  facet normal 0 0 1
    outer loop
      vertex 4.51416 5.4995 3
      vertex 2.54216 3.8875 3
      vertex 2.90047 3.37611 3
    endloop
  endfacet
  facet normal 0 0 1
    outer loop
      vertex 3.79485 6.07655 3
      vertex 2.09709 4.28256 3
      vertex 2.54216 3.8875 3
    endloop
  endfacet
  facet normal 0 0 1
    outer loop
      vertex 1.58092 4.56474 3
      vertex 2.95592 6.48874 3
      vertex 1.99734 6.73605 3
    endloop
  endfacet
  facet normal 0 0 1
    outer loop
      vertex 2.95592 6.48874 3
      vertex 1.58092 4.56474 3
      vertex 2.09709 4.28256 3
    endloop
  endfacet
  facet normal 0 0 1
    outer loop
      vertex 1.99734 6.73605 3
      vertex 0.993591 4.73405 3
      vertex 1.58092 4.56474 3
    endloop
  endfacet
  facet normal 0 0 1
    outer loop
      vertex 0.919159 6.8185 3
      vertex 0.993591 4.73405 3
      vertex 1.99734 6.73605 3
    endloop
  endfacet
  facet normal 0 0 1
    outer loop
      vertex 0.919159 6.8185 3
      vertex 0.335159 4.7905 3
      vertex 0.993591 4.73405 3
    endloop
  endfacet
  facet normal -0 0 1
    outer loop
      vertex 0.0824738 6.769 3
      vertex 0.335159 4.7905 3
      vertex 0.919159 6.8185 3
    endloop
  endfacet
  facet normal -0 0 1
    outer loop
      vertex -0.677582 6.6205 3
      vertex 0.335159 4.7905 3
      vertex 0.0824738 6.769 3
    endloop
  endfacet
  facet normal 0 0 1
    outer loop
      vertex 0.335159 4.7905 3
      vertex -0.677582 6.6205 3
      vertex -0.496765 4.70805 3
    endloop
  endfacet
  facet normal -0 0 1
    outer loop
      vertex -1.36101 6.37299 3
      vertex -0.496765 4.70805 3
      vertex -0.677582 6.6205 3
    endloop
  endfacet
  facet normal 0 0 1
    outer loop
      vertex -0.496765 4.70805 3
      vertex -1.36101 6.37299 3
      vertex -1.24358 4.46074 3
    endloop
  endfacet
  facet normal -0 0 1
    outer loop
      vertex -1.96782 6.02649 3
      vertex -1.24358 4.46074 3
      vertex -1.36101 6.37299 3
    endloop
  endfacet
  facet normal -0 0 1
    outer loop
      vertex -2.4987 5.61055 3
      vertex -1.24358 4.46074 3
      vertex -1.96782 6.02649 3
    endloop
  endfacet
  facet normal 0 0 1
    outer loop
      vertex -1.24358 4.46074 3
      vertex -2.4987 5.61055 3
      vertex -1.78496 4.12349 3
    endloop
  endfacet
  facet normal -0 0 1
    outer loop
      vertex -2.95332 5.15474 3
      vertex -1.78496 4.12349 3
      vertex -2.4987 5.61055 3
    endloop
  endfacet
  facet normal 0 0 1
    outer loop
      vertex -1.78496 4.12349 3
      vertex -2.95332 5.15474 3
      vertex -1.90526 4.04855 3
    endloop
  endfacet
  facet normal -0 0 1
    outer loop
      vertex -3.23136 4.7905 3
      vertex -1.90526 4.04855 3
      vertex -2.95332 5.15474 3
    endloop
  endfacet
  facet normal -0 0 1
    outer loop
      vertex -3.29429 4.70805 3
      vertex -1.90526 4.04855 3
      vertex -3.23136 4.7905 3
    endloop
  endfacet
  facet normal 0 0 1
    outer loop
      vertex -1.90526 4.04855 3
      vertex -3.29429 4.70805 3
      vertex -2.48183 3.4715 3
    endloop
  endfacet
  facet normal -0 0 1
    outer loop
      vertex -3.3317 4.65906 3
      vertex -2.48183 3.4715 3
      vertex -3.29429 4.70805 3
    endloop
  endfacet
  facet normal -0 0 1
    outer loop
      vertex -3.63382 4.12349 3
      vertex -2.48183 3.4715 3
      vertex -3.44357 4.46074 3
    endloop
  endfacet
  facet normal 0 0 1
    outer loop
      vertex -2.48183 3.4715 3
      vertex -3.3317 4.65906 3
      vertex -3.44357 4.46074 3
    endloop
  endfacet
  facet normal 0 0 1
    outer loop
      vertex -2.48183 3.4715 3
      vertex -3.63382 4.12349 3
      vertex -2.94951 2.7308 3
    endloop
  endfacet
  facet normal -0 0 1
    outer loop
      vertex -3.77283 4.12349 3
      vertex -2.94951 2.7308 3
      vertex -3.63382 4.12349 3
    endloop
  endfacet
  facet normal 0 0 1
    outer loop
      vertex -2.94951 2.7308 3
      vertex -3.77283 4.12349 3
      vertex -3.28357 1.82874 3
    endloop
  endfacet
  facet normal 0 0 1
    outer loop
      vertex -3.28357 1.82874 3
      vertex -3.77283 4.12349 3
      vertex -3.48401 0.765305 3
    endloop
  endfacet
  facet normal 0 0 1
    outer loop
      vertex -6.02283 6.5405 3
      vertex -3.48401 0.765305 3
      vertex -3.77283 4.12349 3
    endloop
  endfacet
  facet normal 0 0 1
    outer loop
      vertex -3.48401 0.765305 3
      vertex -6.02283 6.5405 3
      vertex -3.55083 -0.459488 3
    endloop
  endfacet
  facet normal -0 0 1
    outer loop
      vertex -6.02283 6.5405 3
      vertex -3.77283 4.12349 3
      vertex -4.07883 6.5405 3
    endloop
  endfacet
  facet normal 0 0 1
    outer loop
      vertex -3.55083 -0.459488 3
      vertex -6.02283 6.5405 3
      vertex -6.02283 -7.1265 3
    endloop
  endfacet
  facet normal 0 0 1
    outer loop
      vertex -3.55083 -0.459488 3
      vertex -6.02283 -7.1265 3
      vertex -3.55083 -7.1265 3
    endloop
  endfacet
  facet normal -0 0 1
    outer loop
      vertex 3.30997 1.99411 3
      vertex 5.83316 1.5965 3
      vertex 5.80613 1.99411 3
    endloop
  endfacet
  facet normal 0 0 1
    outer loop
      vertex 3.30997 1.99411 3
      vertex 5.80613 1.99411 3
      vertex 5.75507 2.745 3
    endloop
  endfacet
  facet normal 0 0 1
    outer loop
      vertex 3.30997 1.99411 3
      vertex 5.75507 2.745 3
      vertex 5.75072 2.80905 3
    endloop
  endfacet
  facet normal 0 0 1
    outer loop
      vertex 3.30997 1.99411 3
      vertex 5.75072 2.80905 3
      vertex 5.61775 3.37611 3
    endloop
  endfacet
  facet normal 0 0 1
    outer loop
      vertex 5.4925 3.8875 3
      vertex 5.61775 3.37611 3
      vertex 5.50342 3.86374 3
    endloop
  endfacet
  facet normal 0 0 1
    outer loop
      vertex 3.30997 1.99411 3
      vertex 5.61775 3.37611 3
      vertex 5.4925 3.8875 3
    endloop
  endfacet
  facet normal 0 0 1
    outer loop
      vertex 3.30997 1.99411 3
      vertex 5.4925 3.8875 3
      vertex 5.31092 4.28256 3
    endloop
  endfacet
  facet normal 0 0 1
    outer loop
      vertex 3.30997 1.99411 3
      vertex 5.31092 4.28256 3
      vertex 5.18122 4.56474 3
    endloop
  endfacet
  facet normal 0 0 1
    outer loop
      vertex 5.06784 4.7905 3
      vertex 5.18122 4.56474 3
      vertex 5.1034 4.73405 3
    endloop
  endfacet
  facet normal 0 0 1
    outer loop
      vertex 5.06784 4.7905 3
      vertex 5.1034 4.73405 3
      vertex 5.09122 4.76056 3
    endloop
  endfacet
  facet normal 0 0 1
    outer loop
      vertex 3.30997 1.99411 3
      vertex 5.18122 4.56474 3
      vertex 5.06784 4.7905 3
    endloop
  endfacet
  facet normal 0 0 1
    outer loop
      vertex 3.30997 1.99411 3
      vertex 5.06784 4.7905 3
      vertex 4.51416 5.4995 3
    endloop
  endfacet
  facet normal 0 0 1
    outer loop
      vertex 2.54216 3.8875 3
      vertex 4.51416 5.4995 3
      vertex 3.79485 6.07655 3
    endloop
  endfacet
  facet normal 0 0 1
    outer loop
      vertex 5.83316 1.5965 3
      vertex 3.36116 1.12349 3
      vertex 5.83316 -7.1265 3
    endloop
  endfacet
  facet normal 0 0 1
    outer loop
      vertex 5.83316 -7.1265 3
      vertex 3.36116 1.12349 3
      vertex 3.36116 -7.1265 3
    endloop
  endfacet
  facet normal 0.562146 -0.429106 0.707008
    outer loop
      vertex -3.52254 5.00205 3.35991
      vertex -2.95332 5.15474 3
      vertex -3.39529 5.47585 3.5463
    endloop
  endfacet
  facet normal 0.562146 -0.429106 0.707008
    outer loop
      vertex -2.95332 5.15474 3
      vertex -3.52254 5.00205 3.35991
      vertex -3.23136 4.7905 3
    endloop
  endfacet
  facet normal -0.526923 -0.474445 0.705162
    outer loop
      vertex 6.09174 6.64568 4.95
      vertex 5.81896 6.94863 4.95
      vertex 4.51416 5.4995 3
    endloop
  endfacet
  facet normal 0.350632 -0.614054 0.707103
    outer loop
      vertex -2.72265 7.52582 4.67633
      vertex -1.36101 6.37299 3
      vertex -2.33601 8.06173 4.95
    endloop
  endfacet
  facet normal 0.350632 -0.614054 0.707103
    outer loop
      vertex -2.72265 7.52582 4.67633
      vertex -2.33601 8.06173 4.95
      vertex -2.66817 7.87207 4.95
    endloop
  endfacet
  facet normal 0.350632 -0.614054 0.707103
    outer loop
      vertex -1.36101 6.37299 3
      vertex -2.72265 7.52582 4.67633
      vertex -2.75774 7.39467 4.57984
    endloop
  endfacet
  facet normal 0.350632 -0.614054 0.707103
    outer loop
      vertex -1.36101 6.37299 3
      vertex -2.75774 7.39467 4.57984
      vertex -1.96782 6.02649 3
    endloop
  endfacet
  facet normal 0.0417822 -0.70624 0.706738
    outer loop
      vertex 0.715329 8.75781 4.95
      vertex 0.0824738 6.769 3
      vertex 0.919159 6.8185 3
    endloop
  endfacet
  facet normal 0.0417822 -0.70624 0.706738
    outer loop
      vertex 0.0824738 6.769 3
      vertex 0.715329 8.75781 4.95
      vertex -0.121357 8.70831 4.95
    endloop
  endfacet
  facet normal -0.442835 -0.552004 0.706533
    outer loop
      vertex 5.09965 7.52568 4.95
      vertex 4.51416 5.4995 3
      vertex 5.81896 6.94863 4.95
    endloop
  endfacet
  facet normal -0.442835 -0.552004 0.706533
    outer loop
      vertex 4.51416 5.4995 3
      vertex 5.09965 7.52568 4.95
      vertex 3.79485 6.07655 3
    endloop
  endfacet
  facet normal 0.501014 -0.499705 0.706597
    outer loop
      vertex -3.3558 5.60173 3.60149
      vertex -2.4987 5.61055 3
      vertex -3.11822 6.29859 3.92585
    endloop
  endfacet
  facet normal 0.501014 -0.499706 0.706597
    outer loop
      vertex -2.4987 5.61055 3
      vertex -3.3558 5.60173 3.60149
      vertex -2.95332 5.15474 3
    endloop
  endfacet
  facet normal 0.416767 -0.573631 0.705162
    outer loop
      vertex -2.82018 7.10088 4.37776
      vertex -1.96782 6.02649 3
      vertex -2.75774 7.39467 4.57984
    endloop
  endfacet
  facet normal 0.416765 -0.573632 0.705162
    outer loop
      vertex -1.96782 6.02649 3
      vertex -2.82018 7.10088 4.37776
      vertex -2.85068 7.00701 4.31942
    endloop
  endfacet
  facet normal -0.0539223 -0.705191 0.706964
    outer loop
      vertex 1.12299 8.75781 4.95
      vertex 1.99734 6.73605 3
      vertex 2.20118 8.67537 4.95
    endloop
  endfacet
  facet normal -0.0539223 -0.705191 0.706964
    outer loop
      vertex 1.99734 6.73605 3
      vertex 1.12299 8.75781 4.95
      vertex 0.919159 6.8185 3
    endloop
  endfacet
  facet normal 0.436609 -0.557265 0.706277
    outer loop
      vertex -2.91741 6.78736 4.18736
      vertex -1.96782 6.02649 3
      vertex -2.85068 7.00701 4.31942
    endloop
  endfacet
  facet normal 0.436609 -0.557266 0.706277
    outer loop
      vertex -3.11822 6.29859 3.92585
      vertex -1.96782 6.02649 3
      vertex -2.91741 6.78736 4.18736
    endloop
  endfacet
  facet normal 0.436609 -0.557266 0.706277
    outer loop
      vertex -1.96782 6.02649 3
      vertex -3.11822 6.29859 3.92585
      vertex -2.4987 5.61055 3
    endloop
  endfacet
  facet normal -0.557472 -0.435346 0.706894
    outer loop
      vertex 6.09174 6.64568 4.95
      vertex 5.06784 4.7905 3
      vertex 6.64542 5.93668 4.95
    endloop
  endfacet
  facet normal -0.557472 -0.435346 0.706894
    outer loop
      vertex 5.06784 4.7905 3
      vertex 6.09174 6.64568 4.95
      vertex 4.51416 5.4995 3
    endloop
  endfacet
  facet normal -0.312164 -0.635353 0.706314
    outer loop
      vertex 3.93092 8.17749 4.95
      vertex 3.79485 6.07655 3
      vertex 4.76985 7.7653 4.95
    endloop
  endfacet
  facet normal -0.312164 -0.635353 0.706314
    outer loop
      vertex 3.79485 6.07655 3
      vertex 3.93092 8.17749 4.95
      vertex 2.95592 6.48874 3
    endloop
  endfacet
  facet normal 0.135854 -0.695336 0.705727
    outer loop
      vertex -0.881412 8.55982 4.95
      vertex 0.0824738 6.769 3
      vertex -0.121357 8.70831 4.95
    endloop
  endfacet
  facet normal 0.135854 -0.695336 0.705727
    outer loop
      vertex 0.0824738 6.769 3
      vertex -0.881412 8.55982 4.95
      vertex -0.677582 6.6205 3
    endloop
  endfacet
  facet normal 0 -0.709046 0.705162
    outer loop
      vertex 0.919159 6.8185 3
      vertex 1.12299 8.75781 4.95
      vertex 0.715329 8.75781 4.95
    endloop
  endfacet
  facet normal -0.147418 -0.693552 0.705162
    outer loop
      vertex 2.59993 8.59061 4.95
      vertex 2.20118 8.67537 4.95
      vertex 1.99734 6.73605 3
    endloop
  endfacet
  facet normal 0.288396 -0.647746 0.705162
    outer loop
      vertex -1.36101 6.37299 3
      vertex -1.96359 8.22755 4.95
      vertex -2.33601 8.06173 4.95
    endloop
  endfacet
  facet normal 0.240851 -0.665032 0.706911
    outer loop
      vertex -1.96359 8.22755 4.95
      vertex -0.677582 6.6205 3
      vertex -1.28016 8.47506 4.95
    endloop
  endfacet
  facet normal 0.240851 -0.665032 0.706911
    outer loop
      vertex -0.677582 6.6205 3
      vertex -1.96359 8.22755 4.95
      vertex -1.36101 6.37299 3
    endloop
  endfacet
  facet normal -0.222295 0.671262 0.707101
    outer loop
      vertex -0.496765 4.70805 3
      vertex -0.414174 2.68129 4.95
      vertex -0.089135 2.78893 4.95
    endloop
  endfacet
  facet normal -0.222296 0.671262 0.707101
    outer loop
      vertex -0.414174 2.68129 4.95
      vertex -0.496765 4.70805 3
      vertex -1.24358 4.46074 3
    endloop
  endfacet
  facet normal 0.617254 -0.348202 0.705516
    outer loop
      vertex -3.62562 4.54179 3.19928
      vertex -3.3317 4.65906 3
      vertex -3.58079 4.76996 3.27267
    endloop
  endfacet
  facet normal 0.617254 -0.348203 0.705516
    outer loop
      vertex -3.3317 4.65906 3
      vertex -3.62562 4.54179 3.19928
      vertex -3.44357 4.46074 3
    endloop
  endfacet
  facet normal 0.614053 -0.354522 0.705162
    outer loop
      vertex -3.3317 4.65906 3
      vertex -3.56845 4.83107 3.29265
      vertex -3.58079 4.76996 3.27267
    endloop
  endfacet
  facet normal 0.562141 -0.429113 0.707008
    outer loop
      vertex -3.56845 4.83107 3.29265
      vertex -3.29429 4.70805 3
      vertex -3.55134 4.89481 3.31772
    endloop
  endfacet
  facet normal 0.562141 -0.429112 0.707008
    outer loop
      vertex -3.29429 4.70805 3
      vertex -3.56845 4.83107 3.29265
      vertex -3.3317 4.65906 3
    endloop
  endfacet
  facet normal -0.50056 0.500137 0.706614
    outer loop
      vertex -1.29501 3.27486 3.97991
      vertex -0.95561 2.24397 4.95
      vertex -0.690872 2.50893 4.95
    endloop
  endfacet
  facet normal -0.50056 0.500137 0.706614
    outer loop
      vertex -2.48183 3.4715 3
      vertex -1.29501 3.27486 3.97991
      vertex -1.90526 4.04855 3
    endloop
  endfacet
  facet normal -0.50056 0.500137 0.706614
    outer loop
      vertex -1.29501 3.27486 3.97991
      vertex -2.48183 3.4715 3
      vertex -0.95561 2.24397 4.95
    endloop
  endfacet
  facet normal 0.707107 -0 0.707107
    outer loop
      vertex -7.97283 -7.1265 4.95
      vertex -6.02283 6.5405 3
      vertex -7.97283 6.5405 4.95
    endloop
  endfacet
  facet normal 0.707107 0 0.707107
    outer loop
      vertex -6.02283 6.5405 3
      vertex -7.97283 -7.1265 4.95
      vertex -6.02283 -7.1265 3
    endloop
  endfacet
  facet normal 0 -0.709046 0.705162
    outer loop
      vertex -3.63382 4.12349 3
      vertex -3.68921 4.21814 3.09518
      vertex -3.77283 4.12349 3
    endloop
  endfacet
  facet normal -0.373978 0.600351 0.706908
    outer loop
      vertex -1.29501 3.27486 3.97991
      vertex -1.78496 4.12349 3
      vertex -1.90526 4.04855 3
    endloop
  endfacet
  facet normal 0.617253 -0.348205 0.705516
    outer loop
      vertex -3.68921 4.21814 3.09518
      vertex -3.44357 4.46074 3
      vertex -3.62562 4.54179 3.19928
    endloop
  endfacet
  facet normal 0.617253 -0.348205 0.705516
    outer loop
      vertex -3.44357 4.46074 3
      vertex -3.68921 4.21814 3.09518
      vertex -3.63382 4.12349 3
    endloop
  endfacet
  facet normal -0.37398 0.60035 0.706908
    outer loop
      vertex -1.29501 3.27486 3.97991
      vertex -0.414174 2.68129 4.95
      vertex -1.24358 4.46074 3
    endloop
  endfacet
  facet normal -0.37398 0.60035 0.706908
    outer loop
      vertex -0.414174 2.68129 4.95
      vertex -1.29501 3.27486 3.97991
      vertex -0.690872 2.50893 4.95
    endloop
  endfacet
  facet normal -0.37398 0.60035 0.706908
    outer loop
      vertex -1.29501 3.27486 3.97991
      vertex -1.24358 4.46074 3
      vertex -1.78496 4.12349 3
    endloop
  endfacet
  facet normal -0.59853 0.377919 0.706356
    outer loop
      vertex -2.48183 3.4715 3
      vertex -1.19517 1.86456 4.95
      vertex -0.95561 2.24397 4.95
    endloop
  endfacet
  facet normal -0.59853 0.377919 0.706356
    outer loop
      vertex -1.19517 1.86456 4.95
      vertex -2.48183 3.4715 3
      vertex -2.94951 2.7308 3
    endloop
  endfacet
  facet normal -0.663782 0.245816 0.706377
    outer loop
      vertex -2.94951 2.7308 3
      vertex -1.39443 1.3265 4.95
      vertex -1.19517 1.86456 4.95
    endloop
  endfacet
  facet normal -0.663782 0.245816 0.706377
    outer loop
      vertex -1.39443 1.3265 4.95
      vertex -2.94951 2.7308 3
      vertex -3.28357 1.82874 3
    endloop
  endfacet
  facet normal -0.70273 -0.0889675 0.705872
    outer loop
      vertex -4.07883 6.5405 3
      vertex -3.52254 5.00205 3.35991
      vertex -3.39529 5.47585 3.5463
    endloop
  endfacet
  facet normal -0.702731 -0.088968 0.705871
    outer loop
      vertex -3.52254 5.00205 3.35991
      vertex -4.07883 6.5405 3
      vertex -3.55134 4.89481 3.31772
    endloop
  endfacet
  facet normal -0.70273 -0.0889677 0.705872
    outer loop
      vertex -3.77283 4.12349 3
      vertex -3.62562 4.54179 3.19928
      vertex -3.58079 4.76996 3.27267
    endloop
  endfacet
  facet normal -0.70273 -0.0889682 0.705872
    outer loop
      vertex -3.62562 4.54179 3.19928
      vertex -3.77283 4.12349 3
      vertex -3.68921 4.21814 3.09518
    endloop
  endfacet
  facet normal -0.70273 -0.0889674 0.705872
    outer loop
      vertex -4.07883 6.5405 3
      vertex -3.58079 4.76996 3.27267
      vertex -3.56845 4.83107 3.29265
    endloop
  endfacet
  facet normal -0.70273 -0.0889675 0.705872
    outer loop
      vertex -3.55134 4.89481 3.31772
      vertex -4.07883 6.5405 3
      vertex -3.56845 4.83107 3.29265
    endloop
  endfacet
  facet normal -0.70273 -0.0889676 0.705872
    outer loop
      vertex -3.58079 4.76996 3.27267
      vertex -4.07883 6.5405 3
      vertex -3.77283 4.12349 3
    endloop
  endfacet
  facet normal -0.702731 -0.0889683 0.705871
    outer loop
      vertex -3.3558 5.60173 3.60149
      vertex -4.07883 6.5405 3
      vertex -3.39529 5.47585 3.5463
    endloop
  endfacet
  facet normal -0.702731 -0.0889675 0.705872
    outer loop
      vertex -3.11822 6.29859 3.92585
      vertex -4.07883 6.5405 3
      vertex -3.3558 5.60173 3.60149
    endloop
  endfacet
  facet normal -0.702731 -0.0889676 0.705872
    outer loop
      vertex -4.07883 6.5405 3
      vertex -3.11822 6.29859 3.92585
      vertex -2.91741 6.78736 4.18736
    endloop
  endfacet
  facet normal -0.674343 -0.219108 0.705162
    outer loop
      vertex -2.85068 7.00701 4.31942
      vertex -4.07883 6.5405 3
      vertex -2.91741 6.78736 4.18736
    endloop
  endfacet
  facet normal -0.674342 -0.219111 0.705162
    outer loop
      vertex -4.07883 6.5405 3
      vertex -2.85068 7.00701 4.31942
      vertex -2.82018 7.10088 4.37776
    endloop
  endfacet
  facet normal 0.705162 -0.0741162 0.705162
    outer loop
      vertex -6.02283 6.5405 3
      vertex -7.93021 6.94592 4.95
      vertex -7.97283 6.5405 4.95
    endloop
  endfacet
  facet normal 0 -0.709046 0.705162
    outer loop
      vertex -6.02283 6.5405 3
      vertex -3.875 8.47981 4.95
      vertex -6.22666 8.47981 4.95
    endloop
  endfacet
  facet normal 0 -0.709046 0.705162
    outer loop
      vertex -3.875 8.47981 4.95
      vertex -6.02283 6.5405 3
      vertex -4.07883 6.5405 3
    endloop
  endfacet
  facet normal 0.526923 -0.474445 0.705162
    outer loop
      vertex -6.02283 6.5405 3
      vertex -7.32763 7.98963 4.95
      vertex -7.60041 7.68668 4.95
    endloop
  endfacet
  facet normal -0.147418 -0.693552 0.705162
    outer loop
      vertex -3.47624 8.39506 4.95
      vertex -3.875 8.47981 4.95
      vertex -4.07883 6.5405 3
    endloop
  endfacet
  facet normal 0.147418 -0.693552 0.705162
    outer loop
      vertex -6.02283 6.5405 3
      vertex -6.22666 8.47981 4.95
      vertex -6.62541 8.39506 4.95
    endloop
  endfacet
  facet normal 0.674343 -0.219108 0.705162
    outer loop
      vertex -6.02283 6.5405 3
      vertex -7.80424 7.33363 4.95
      vertex -7.93021 6.94592 4.95
    endloop
  endfacet
  facet normal -0.416767 -0.57363 0.705162
    outer loop
      vertex -2.77402 7.98963 4.95
      vertex -3.10383 8.22925 4.95
      vertex -4.07883 6.5405 3
    endloop
  endfacet
  facet normal -0.288396 -0.647746 0.705162
    outer loop
      vertex -3.10383 8.22925 4.95
      vertex -3.47624 8.39506 4.95
      vertex -4.07883 6.5405 3
    endloop
  endfacet
  facet normal 0.288396 -0.647746 0.705162
    outer loop
      vertex -6.02283 6.5405 3
      vertex -6.62541 8.39506 4.95
      vertex -6.99783 8.22925 4.95
    endloop
  endfacet
  facet normal 0.614053 -0.354522 0.705162
    outer loop
      vertex -6.02283 6.5405 3
      vertex -7.60041 7.68668 4.95
      vertex -7.80424 7.33363 4.95
    endloop
  endfacet
  facet normal -0.614052 -0.354523 0.705162
    outer loop
      vertex -2.75774 7.39467 4.57984
      vertex -4.07883 6.5405 3
      vertex -2.82018 7.10088 4.37776
    endloop
  endfacet
  facet normal -0.614053 -0.354521 0.705162
    outer loop
      vertex -4.07883 6.5405 3
      vertex -2.75774 7.39467 4.57984
      vertex -2.72265 7.52582 4.67633
    endloop
  endfacet
  facet normal -0.526924 -0.474445 0.705162
    outer loop
      vertex -2.77402 7.98963 4.95
      vertex -2.72265 7.52582 4.67633
      vertex -2.66817 7.87207 4.95
    endloop
  endfacet
  facet normal -0.526924 -0.474445 0.705162
    outer loop
      vertex -2.72265 7.52582 4.67633
      vertex -2.77402 7.98963 4.95
      vertex -4.07883 6.5405 3
    endloop
  endfacet
  facet normal 0.416767 -0.57363 0.705162
    outer loop
      vertex -6.02283 6.5405 3
      vertex -6.99783 8.22925 4.95
      vertex -7.32763 7.98963 4.95
    endloop
  endfacet
  facet normal -0.694965 0.13099 0.707012
    outer loop
      vertex -3.48401 0.765305 3
      vertex -1.39443 1.3265 4.95
      vertex -3.28357 1.82874 3
    endloop
  endfacet
  facet normal -0.694965 0.13099 0.707012
    outer loop
      vertex -1.39443 1.3265 4.95
      vertex -3.48401 0.765305 3
      vertex -1.54778 0.512901 4.95
    endloop
  endfacet
  facet normal -0.706581 0.0385474 0.706581
    outer loop
      vertex -3.55083 -0.459488 3
      vertex -1.54778 0.512901 4.95
      vertex -3.48401 0.765305 3
    endloop
  endfacet
  facet normal -0.706581 0.0385474 0.706581
    outer loop
      vertex -1.54778 0.512901 4.95
      vertex -3.55083 -0.459488 3
      vertex -1.60083 -0.459488 4.95
    endloop
  endfacet
  facet normal -0.705162 0.0741158 0.705162
    outer loop
      vertex -1.64344 -7.53192 4.95
      vertex -1.60083 -7.1265 4.95
      vertex -3.55083 -7.1265 3
    endloop
  endfacet
  facet normal 0.705162 0.0741162 0.705162
    outer loop
      vertex -7.93021 -7.53192 4.95
      vertex -6.02283 -7.1265 3
      vertex -7.97283 -7.1265 4.95
    endloop
  endfacet
  facet normal -0.526924 0.474445 0.705162
    outer loop
      vertex -2.24602 -8.57563 4.95
      vertex -1.97324 -8.27268 4.95
      vertex -3.55083 -7.1265 3
    endloop
  endfacet
  facet normal -0.674343 0.219108 0.705162
    outer loop
      vertex -1.76941 -7.91963 4.95
      vertex -1.64344 -7.53192 4.95
      vertex -3.55083 -7.1265 3
    endloop
  endfacet
  facet normal 0.526924 0.474445 0.705162
    outer loop
      vertex -7.32763 -8.57563 4.95
      vertex -6.02283 -7.1265 3
      vertex -7.60041 -8.27268 4.95
    endloop
  endfacet
  facet normal 0.416767 0.573631 0.705162
    outer loop
      vertex -6.99783 -8.81524 4.95
      vertex -6.02283 -7.1265 3
      vertex -7.32763 -8.57563 4.95
    endloop
  endfacet
  facet normal 0.674343 0.219108 0.705162
    outer loop
      vertex -7.80424 -7.91963 4.95
      vertex -6.02283 -7.1265 3
      vertex -7.93021 -7.53192 4.95
    endloop
  endfacet
  facet normal -0.707107 0 0.707107
    outer loop
      vertex -3.55083 -7.1265 3
      vertex -1.60083 -0.459488 4.95
      vertex -3.55083 -0.459488 3
    endloop
  endfacet
  facet normal -0.707107 0 0.707107
    outer loop
      vertex -1.60083 -0.459488 4.95
      vertex -3.55083 -7.1265 3
      vertex -1.60083 -7.1265 4.95
    endloop
  endfacet
  facet normal 0 0.709046 0.705162
    outer loop
      vertex -3.55083 -7.1265 3
      vertex -6.22666 -9.06581 4.95
      vertex -3.347 -9.06581 4.95
    endloop
  endfacet
  facet normal 0 0.709046 0.705162
    outer loop
      vertex -6.22666 -9.06581 4.95
      vertex -3.55083 -7.1265 3
      vertex -6.02283 -7.1265 3
    endloop
  endfacet
  facet normal 0.614053 0.354522 0.705162
    outer loop
      vertex -7.60041 -8.27268 4.95
      vertex -6.02283 -7.1265 3
      vertex -7.80424 -7.91963 4.95
    endloop
  endfacet
  facet normal 0.288396 0.647746 0.705162
    outer loop
      vertex -6.62541 -8.98106 4.95
      vertex -6.02283 -7.1265 3
      vertex -6.99783 -8.81524 4.95
    endloop
  endfacet
  facet normal 0.147418 0.693552 0.705162
    outer loop
      vertex -6.22666 -9.06581 4.95
      vertex -6.02283 -7.1265 3
      vertex -6.62541 -8.98106 4.95
    endloop
  endfacet
  facet normal -0.416766 0.573631 0.705162
    outer loop
      vertex -2.57583 -8.81524 4.95
      vertex -2.24602 -8.57563 4.95
      vertex -3.55083 -7.1265 3
    endloop
  endfacet
  facet normal -0.614053 0.354522 0.705162
    outer loop
      vertex -1.97324 -8.27268 4.95
      vertex -1.76941 -7.91963 4.95
      vertex -3.55083 -7.1265 3
    endloop
  endfacet
  facet normal -0.147418 0.693552 0.705162
    outer loop
      vertex -3.347 -9.06581 4.95
      vertex -2.94824 -8.98106 4.95
      vertex -3.55083 -7.1265 3
    endloop
  endfacet
  facet normal -0.288397 0.647745 0.705162
    outer loop
      vertex -2.94824 -8.98106 4.95
      vertex -2.57583 -8.81524 4.95
      vertex -3.55083 -7.1265 3
    endloop
  endfacet
  facet normal -0.0697328 0.703666 0.7071
    outer loop
      vertex 0.335159 4.7905 3
      vertex -0.089135 2.78893 4.95
      vertex 0.349912 2.83244 4.95
    endloop
  endfacet
  facet normal -0.0697329 0.703666 0.7071
    outer loop
      vertex -0.089135 2.78893 4.95
      vertex 0.335159 4.7905 3
      vertex -0.496765 4.70805 3
    endloop
  endfacet
  facet normal 0.562146 -0.429107 0.707008
    outer loop
      vertex -3.55134 4.89481 3.31772
      vertex -3.23136 4.7905 3
      vertex -3.52254 5.00205 3.35991
    endloop
  endfacet
  facet normal 0.562146 -0.429107 0.707008
    outer loop
      vertex -3.23136 4.7905 3
      vertex -3.55134 4.89481 3.31772
      vertex -3.29429 4.70805 3
    endloop
  endfacet
  facet normal 0.0603987 0.704588 0.707041
    outer loop
      vertex 0.993591 4.73405 3
      vertex 0.349912 2.83244 4.95
      vertex 0.640697 2.80752 4.95
    endloop
  endfacet
  facet normal 0.0603989 0.704588 0.707041
    outer loop
      vertex 0.349912 2.83244 4.95
      vertex 0.993591 4.73405 3
      vertex 0.335159 4.7905 3
    endloop
  endfacet
  facet normal -0.642522 -0.295298 0.707081
    outer loop
      vertex 6.87263 5.55369 4.95
      vertex 5.1034 4.73405 3
      vertex 6.88481 5.52719 4.95
    endloop
  endfacet
  facet normal -0.642522 -0.295298 0.707081
    outer loop
      vertex 5.1034 4.73405 3
      vertex 6.87263 5.55369 4.95
      vertex 5.09122 4.76056 3
    endloop
  endfacet
  facet normal -0.557471 -0.435347 0.706894
    outer loop
      vertex 6.64542 5.93668 4.95
      vertex 5.09122 4.76056 3
      vertex 6.6688 5.90674 4.95
    endloop
  endfacet
  facet normal -0.557471 -0.435347 0.706894
    outer loop
      vertex 5.09122 4.76056 3
      vertex 6.64542 5.93668 4.95
      vertex 5.06784 4.7905 3
    endloop
  endfacet
  facet normal -0.614053 -0.354522 0.705162
    outer loop
      vertex 6.87263 5.55369 4.95
      vertex 6.6688 5.90674 4.95
      vertex 5.09122 4.76056 3
    endloop
  endfacet
  facet normal 0.19592 0.679629 0.706908
    outer loop
      vertex 0.993591 4.73405 3
      vertex 0.832126 2.75233 4.95
      vertex 1.58092 4.56474 3
    endloop
  endfacet
  facet normal 0.19592 0.679629 0.706908
    outer loop
      vertex 0.832126 2.75233 4.95
      vertex 0.993591 4.73405 3
      vertex 0.640697 2.80752 4.95
    endloop
  endfacet
  facet normal -0.642514 -0.295316 0.707081
    outer loop
      vertex 6.88481 5.52719 4.95
      vertex 5.18122 4.56474 3
      vertex 6.96263 5.35788 4.95
    endloop
  endfacet
  facet normal -0.642514 -0.295316 0.707081
    outer loop
      vertex 5.18122 4.56474 3
      vertex 6.88481 5.52719 4.95
      vertex 5.1034 4.73405 3
    endloop
  endfacet
  facet normal 0.33923 0.620531 0.707011
    outer loop
      vertex 1.58092 4.56474 3
      vertex 0.966261 2.679 4.95
      vertex 2.09709 4.28256 3
    endloop
  endfacet
  facet normal 0.339231 0.620531 0.707011
    outer loop
      vertex 0.966261 2.679 4.95
      vertex 1.58092 4.56474 3
      vertex 0.832126 2.75233 4.95
    endloop
  endfacet
  facet normal -0.642514 -0.295317 0.707081
    outer loop
      vertex 6.96263 5.35788 4.95
      vertex 5.31092 4.28256 3
      vertex 7.09233 5.0757 4.95
    endloop
  endfacet
  facet normal -0.642514 -0.295317 0.707081
    outer loop
      vertex 5.31092 4.28256 3
      vertex 6.96263 5.35788 4.95
      vertex 5.18122 4.56474 3
    endloop
  endfacet
  facet normal 0.469416 0.52883 0.707098
    outer loop
      vertex 2.09709 4.28256 3
      vertex 1.07729 2.58044 4.95
      vertex 2.54216 3.8875 3
    endloop
  endfacet
  facet normal 0.469416 0.52883 0.707098
    outer loop
      vertex 1.07729 2.58044 4.95
      vertex 2.09709 4.28256 3
      vertex 0.966261 2.679 4.95
    endloop
  endfacet
  facet normal -0.642515 -0.295315 0.707081
    outer loop
      vertex 7.09233 5.0757 4.95
      vertex 5.4925 3.8875 3
      vertex 7.27391 4.68063 4.95
    endloop
  endfacet
  facet normal -0.642515 -0.295315 0.707081
    outer loop
      vertex 5.4925 3.8875 3
      vertex 7.09233 5.0757 4.95
      vertex 5.31092 4.28256 3
    endloop
  endfacet
  facet normal 0.579147 0.405786 0.707055
    outer loop
      vertex 2.54216 3.8875 3
      vertex 1.17888 2.43546 4.95
      vertex 2.90047 3.37611 3
    endloop
  endfacet
  facet normal 0.579147 0.405787 0.707055
    outer loop
      vertex 1.17888 2.43546 4.95
      vertex 2.54216 3.8875 3
      vertex 1.07729 2.58044 4.95
    endloop
  endfacet
  facet normal -0.68851 -0.161439 0.70703
    outer loop
      vertex 7.41081 4.26917 4.95
      vertex 5.61775 3.37611 3
      vertex 7.52514 3.78154 4.95
    endloop
  endfacet
  facet normal -0.68851 -0.161439 0.70703
    outer loop
      vertex 5.61775 3.37611 3
      vertex 7.41081 4.26917 4.95
      vertex 5.50342 3.86374 3
    endloop
  endfacet
  facet normal -0.642506 -0.295333 0.707081
    outer loop
      vertex 7.27391 4.68063 4.95
      vertex 5.50342 3.86374 3
      vertex 7.28483 4.65687 4.95
    endloop
  endfacet
  facet normal -0.642506 -0.295333 0.707081
    outer loop
      vertex 5.50342 3.86374 3
      vertex 7.27391 4.68063 4.95
      vertex 5.4925 3.8875 3
    endloop
  endfacet
  facet normal -0.674343 -0.219108 0.705162
    outer loop
      vertex 7.41081 4.26917 4.95
      vertex 7.28483 4.65687 4.95
      vertex 5.50342 3.86374 3
    endloop
  endfacet
  facet normal 0.655455 0.265821 0.706907
    outer loop
      vertex 1.17888 2.43546 4.95
      vertex 3.15642 2.745 3
      vertex 2.90047 3.37611 3
    endloop
  endfacet
  facet normal 0.655455 0.265821 0.706907
    outer loop
      vertex 3.15642 2.745 3
      vertex 1.17888 2.43546 4.95
      vertex 1.28082 2.18409 4.95
    endloop
  endfacet
  facet normal -0.706291 -0.0480128 0.706291
    outer loop
      vertex 5.75507 2.745 3
      vertex 7.70072 2.80905 4.95
      vertex 5.75072 2.80905 3
    endloop
  endfacet
  facet normal -0.706291 -0.0480128 0.706291
    outer loop
      vertex 7.70072 2.80905 4.95
      vertex 5.75507 2.745 3
      vertex 7.70507 2.745 4.95
    endloop
  endfacet
  facet normal -0.705162 -0.0741162 0.705162
    outer loop
      vertex 7.70072 2.80905 4.95
      vertex 7.6581 3.21448 4.95
      vertex 5.75072 2.80905 3
    endloop
  endfacet
  facet normal -0.68851 -0.16144 0.70703
    outer loop
      vertex 7.52514 3.78154 4.95
      vertex 5.75072 2.80905 3
      vertex 7.6581 3.21448 4.95
    endloop
  endfacet
  facet normal -0.68851 -0.16144 0.70703
    outer loop
      vertex 5.75072 2.80905 3
      vertex 7.52514 3.78154 4.95
      vertex 5.61775 3.37611 3
    endloop
  endfacet
  facet normal 0.692781 0.141667 0.707096
    outer loop
      vertex 1.28082 2.18409 4.95
      vertex 3.30997 1.99411 3
      vertex 3.15642 2.745 3
    endloop
  endfacet
  facet normal 0.692781 0.141667 0.707096
    outer loop
      vertex 3.30997 1.99411 3
      vertex 1.28082 2.18409 4.95
      vertex 1.37623 1.71754 4.95
    endloop
  endfacet
  facet normal -0.706291 -0.048022 0.706291
    outer loop
      vertex 5.80613 1.99411 3
      vertex 7.70507 2.745 4.95
      vertex 5.75507 2.745 3
    endloop
  endfacet
  facet normal -0.706291 -0.048022 0.706291
    outer loop
      vertex 7.70507 2.745 4.95
      vertex 5.80613 1.99411 3
      vertex 7.75613 1.99411 4.95
    endloop
  endfacet
  facet normal 0.706496 0.0415426 0.706496
    outer loop
      vertex 3.36116 1.12349 3
      vertex 1.37623 1.71754 4.95
      vertex 1.41116 1.12349 4.95
    endloop
  endfacet
  facet normal 0.706496 0.0415426 0.706496
    outer loop
      vertex 1.37623 1.71754 4.95
      vertex 3.36116 1.12349 3
      vertex 3.30997 1.99411 3
    endloop
  endfacet
  facet normal -0.707107 0 0.707107
    outer loop
      vertex 5.83316 -7.1265 3
      vertex 7.78316 1.5965 4.95
      vertex 5.83316 1.5965 3
    endloop
  endfacet
  facet normal -0.707107 0 0.707107
    outer loop
      vertex 7.78316 1.5965 4.95
      vertex 5.83316 -7.1265 3
      vertex 7.78316 -7.1265 4.95
    endloop
  endfacet
  facet normal -0.706291 -0.0480225 0.706291
    outer loop
      vertex 5.83316 1.5965 3
      vertex 7.75613 1.99411 4.95
      vertex 5.80613 1.99411 3
    endloop
  endfacet
  facet normal -0.706291 -0.0480225 0.706291
    outer loop
      vertex 7.75613 1.99411 4.95
      vertex 5.83316 1.5965 3
      vertex 7.78316 1.5965 4.95
    endloop
  endfacet
  facet normal 0.707107 -0 0.707107
    outer loop
      vertex 1.41116 -7.1265 4.95
      vertex 3.36116 1.12349 3
      vertex 1.41116 1.12349 4.95
    endloop
  endfacet
  facet normal 0.707107 0 0.707107
    outer loop
      vertex 3.36116 1.12349 3
      vertex 1.41116 -7.1265 4.95
      vertex 3.36116 -7.1265 3
    endloop
  endfacet
  facet normal -0.416766 0.573631 0.705162
    outer loop
      vertex 6.80816 -8.81524 4.95
      vertex 7.13796 -8.57563 4.95
      vertex 5.83316 -7.1265 3
    endloop
  endfacet
  facet normal 0.705162 0.0741158 0.705162
    outer loop
      vertex 1.45377 -7.53192 4.95
      vertex 3.36116 -7.1265 3
      vertex 1.41116 -7.1265 4.95
    endloop
  endfacet
  facet normal 0.526924 0.474445 0.705162
    outer loop
      vertex 2.05636 -8.57563 4.95
      vertex 3.36116 -7.1265 3
      vertex 1.78358 -8.27268 4.95
    endloop
  endfacet
  facet normal 0.416767 0.573631 0.705162
    outer loop
      vertex 2.38616 -8.81524 4.95
      vertex 3.36116 -7.1265 3
      vertex 2.05636 -8.57563 4.95
    endloop
  endfacet
  facet normal -0.614053 0.354522 0.705162
    outer loop
      vertex 7.41074 -8.27268 4.95
      vertex 7.61457 -7.91963 4.95
      vertex 5.83316 -7.1265 3
    endloop
  endfacet
  facet normal -0.674343 0.219108 0.705162
    outer loop
      vertex 7.61457 -7.91963 4.95
      vertex 7.74055 -7.53192 4.95
      vertex 5.83316 -7.1265 3
    endloop
  endfacet
  facet normal -0.705162 0.0741162 0.705162
    outer loop
      vertex 7.74055 -7.53192 4.95
      vertex 7.78316 -7.1265 4.95
      vertex 5.83316 -7.1265 3
    endloop
  endfacet
  facet normal 0.674343 0.219108 0.705162
    outer loop
      vertex 1.57975 -7.91963 4.95
      vertex 3.36116 -7.1265 3
      vertex 1.45377 -7.53192 4.95
    endloop
  endfacet
  facet normal 0 0.709046 0.705162
    outer loop
      vertex 5.83316 -7.1265 3
      vertex 3.15733 -9.06581 4.95
      vertex 6.03699 -9.06581 4.95
    endloop
  endfacet
  facet normal 0 0.709046 0.705162
    outer loop
      vertex 3.15733 -9.06581 4.95
      vertex 5.83316 -7.1265 3
      vertex 3.36116 -7.1265 3
    endloop
  endfacet
  facet normal 0.614053 0.354522 0.705162
    outer loop
      vertex 1.78358 -8.27268 4.95
      vertex 3.36116 -7.1265 3
      vertex 1.57975 -7.91963 4.95
    endloop
  endfacet
  facet normal 0.288396 0.647746 0.705162
    outer loop
      vertex 2.75858 -8.98106 4.95
      vertex 3.36116 -7.1265 3
      vertex 2.38616 -8.81524 4.95
    endloop
  endfacet
  facet normal 0.147418 0.693552 0.705162
    outer loop
      vertex 3.15733 -9.06581 4.95
      vertex 3.36116 -7.1265 3
      vertex 2.75858 -8.98106 4.95
    endloop
  endfacet
  facet normal -0.526924 0.474445 0.705162
    outer loop
      vertex 7.13796 -8.57563 4.95
      vertex 7.41074 -8.27268 4.95
      vertex 5.83316 -7.1265 3
    endloop
  endfacet
  facet normal -0.147418 0.693552 0.705162
    outer loop
      vertex 6.03699 -9.06581 4.95
      vertex 6.43574 -8.98106 4.95
      vertex 5.83316 -7.1265 3
    endloop
  endfacet
  facet normal -0.288397 0.647745 0.705162
    outer loop
      vertex 6.43574 -8.98106 4.95
      vertex 6.80816 -8.81524 4.95
      vertex 5.83316 -7.1265 3
    endloop
  endfacet
  facet normal 0 0 1
    outer loop
      vertex -1.19517 1.86456 4.95
      vertex 1.41116 1.12349 4.95
      vertex 1.37623 1.71754 4.95
    endloop
  endfacet
  facet normal 0 0 1
    outer loop
      vertex 15.1568 16.4918 4.95
      vertex 16.5 15 4.95
      vertex 16.4672 15.3119 4.95
    endloop
  endfacet
  facet normal 0 0 1
    outer loop
      vertex 16.5 15 4.95
      vertex 7.78316 1.5965 4.95
      vertex 16.5 -15 4.95
    endloop
  endfacet
  facet normal 0 0 1
    outer loop
      vertex 15.1568 16.4918 4.95
      vertex 16.4672 15.3119 4.95
      vertex 16.3703 15.6101 4.95
    endloop
  endfacet
  facet normal -0 0 1
    outer loop
      vertex 7.78316 -7.1265 4.95
      vertex 16.5 -15 4.95
      vertex 7.78316 1.5965 4.95
    endloop
  endfacet
  facet normal 0 0 1
    outer loop
      vertex 15.1568 16.4918 4.95
      vertex 16.3703 15.6101 4.95
      vertex 16.2135 15.8817 4.95
    endloop
  endfacet
  facet normal -0 0 1
    outer loop
      vertex 7.74055 -7.53192 4.95
      vertex 16.5 -15 4.95
      vertex 7.78316 -7.1265 4.95
    endloop
  endfacet
  facet normal 0 0 1
    outer loop
      vertex 15.1568 16.4918 4.95
      vertex 16.2135 15.8817 4.95
      vertex 16.0037 16.1147 4.95
    endloop
  endfacet
  facet normal -0 0 1
    outer loop
      vertex 7.61457 -7.91963 4.95
      vertex 16.5 -15 4.95
      vertex 7.74055 -7.53192 4.95
    endloop
  endfacet
  facet normal 0 0 1
    outer loop
      vertex 15.1568 16.4918 4.95
      vertex 16.0037 16.1147 4.95
      vertex 15.75 16.299 4.95
    endloop
  endfacet
  facet normal -0 0 1
    outer loop
      vertex 7.41074 -8.27268 4.95
      vertex 16.5 -15 4.95
      vertex 7.61457 -7.91963 4.95
    endloop
  endfacet
  facet normal 0 0 1
    outer loop
      vertex 15.1568 16.4918 4.95
      vertex 15.75 16.299 4.95
      vertex 15.4635 16.4266 4.95
    endloop
  endfacet
  facet normal 0 -0 1
    outer loop
      vertex 15.1568 -16.4918 4.95
      vertex 16.5 -15 4.95
      vertex 7.41074 -8.27268 4.95
    endloop
  endfacet
  facet normal 0 0 1
    outer loop
      vertex 16.5 15 4.95
      vertex 15.1568 16.4918 4.95
      vertex 6.09174 6.64568 4.95
    endloop
  endfacet
  facet normal 0 0 1
    outer loop
      vertex 16.5 -15 4.95
      vertex 15.1568 -16.4918 4.95
      vertex 16.4672 -15.3119 4.95
    endloop
  endfacet
  facet normal 0 0 1
    outer loop
      vertex 16.3703 -15.6101 4.95
      vertex 15.1568 -16.4918 4.95
      vertex 16.2135 -15.8817 4.95
    endloop
  endfacet
  facet normal 0 0 1
    outer loop
      vertex 16.5 15 4.95
      vertex 7.75613 1.99411 4.95
      vertex 7.78316 1.5965 4.95
    endloop
  endfacet
  facet normal 0 0 1
    outer loop
      vertex 16.5 15 4.95
      vertex 7.70507 2.745 4.95
      vertex 7.75613 1.99411 4.95
    endloop
  endfacet
  facet normal 0 0 1
    outer loop
      vertex 16.5 15 4.95
      vertex 7.70072 2.80905 4.95
      vertex 7.70507 2.745 4.95
    endloop
  endfacet
  facet normal 0 0 1
    outer loop
      vertex 16.5 15 4.95
      vertex 7.6581 3.21448 4.95
      vertex 7.70072 2.80905 4.95
    endloop
  endfacet
  facet normal 0 0 1
    outer loop
      vertex 16.5 15 4.95
      vertex 7.52514 3.78154 4.95
      vertex 7.6581 3.21448 4.95
    endloop
  endfacet
  facet normal 0 0 1
    outer loop
      vertex 16.5 15 4.95
      vertex 7.41081 4.26917 4.95
      vertex 7.52514 3.78154 4.95
    endloop
  endfacet
  facet normal 0 0 1
    outer loop
      vertex 16.5 15 4.95
      vertex 7.28483 4.65687 4.95
      vertex 7.41081 4.26917 4.95
    endloop
  endfacet
  facet normal 0 0 1
    outer loop
      vertex 16.5 15 4.95
      vertex 7.27391 4.68063 4.95
      vertex 7.28483 4.65687 4.95
    endloop
  endfacet
  facet normal 0 0 1
    outer loop
      vertex 16.5 15 4.95
      vertex 7.09233 5.0757 4.95
      vertex 7.27391 4.68063 4.95
    endloop
  endfacet
  facet normal 0 0 1
    outer loop
      vertex 16.5 15 4.95
      vertex 6.96263 5.35788 4.95
      vertex 7.09233 5.0757 4.95
    endloop
  endfacet
  facet normal 0 0 1
    outer loop
      vertex 16.5 15 4.95
      vertex 6.88481 5.52719 4.95
      vertex 6.96263 5.35788 4.95
    endloop
  endfacet
  facet normal 0 0 1
    outer loop
      vertex 16.5 15 4.95
      vertex 6.87263 5.55369 4.95
      vertex 6.88481 5.52719 4.95
    endloop
  endfacet
  facet normal 0 0 1
    outer loop
      vertex 16.5 15 4.95
      vertex 6.6688 5.90674 4.95
      vertex 6.87263 5.55369 4.95
    endloop
  endfacet
  facet normal 0 0 1
    outer loop
      vertex 16.5 15 4.95
      vertex 6.64542 5.93668 4.95
      vertex 6.6688 5.90674 4.95
    endloop
  endfacet
  facet normal 0 0 1
    outer loop
      vertex 16.5 15 4.95
      vertex 6.09174 6.64568 4.95
      vertex 6.64542 5.93668 4.95
    endloop
  endfacet
  facet normal 0 0 1
    outer loop
      vertex 15.1568 16.4918 4.95
      vertex 5.81896 6.94863 4.95
      vertex 6.09174 6.64568 4.95
    endloop
  endfacet
  facet normal 0 0 1
    outer loop
      vertex 15.1568 16.4918 4.95
      vertex 5.09965 7.52568 4.95
      vertex 5.81896 6.94863 4.95
    endloop
  endfacet
  facet normal 0 0 1
    outer loop
      vertex 15.1568 16.4918 4.95
      vertex 4.76985 7.7653 4.95
      vertex 5.09965 7.52568 4.95
    endloop
  endfacet
  facet normal 0 0 1
    outer loop
      vertex 15.1568 16.4918 4.95
      vertex 3.93092 8.17749 4.95
      vertex 4.76985 7.7653 4.95
    endloop
  endfacet
  facet normal 0 0 1
    outer loop
      vertex 15.1568 16.4918 4.95
      vertex 3.5585 8.3433 4.95
      vertex 3.93092 8.17749 4.95
    endloop
  endfacet
  facet normal 0 0 1
    outer loop
      vertex 15.1568 16.4918 4.95
      vertex 2.59993 8.59061 4.95
      vertex 3.5585 8.3433 4.95
    endloop
  endfacet
  facet normal 0 0 1
    outer loop
      vertex 15.1568 16.4918 4.95
      vertex 2.20118 8.67537 4.95
      vertex 2.59993 8.59061 4.95
    endloop
  endfacet
  facet normal 0 0 1
    outer loop
      vertex 15.1568 16.4918 4.95
      vertex 1.12299 8.75781 4.95
      vertex 2.20118 8.67537 4.95
    endloop
  endfacet
  facet normal 0 0 1
    outer loop
      vertex 15.1568 16.4918 4.95
      vertex 0.715329 8.75781 4.95
      vertex 1.12299 8.75781 4.95
    endloop
  endfacet
  facet normal -0 0 1
    outer loop
      vertex -15.1568 16.4918 4.95
      vertex 0.715329 8.75781 4.95
      vertex 15.1568 16.4918 4.95
    endloop
  endfacet
  facet normal 0 0 1
    outer loop
      vertex 0.715329 8.75781 4.95
      vertex -15.1568 16.4918 4.95
      vertex -0.121357 8.70831 4.95
    endloop
  endfacet
  facet normal 0 -0 1
    outer loop
      vertex -3.875 8.47981 4.95
      vertex -0.121357 8.70831 4.95
      vertex -15.1568 16.4918 4.95
    endloop
  endfacet
  facet normal 0 0 1
    outer loop
      vertex -0.121357 8.70831 4.95
      vertex -3.875 8.47981 4.95
      vertex -0.881412 8.55982 4.95
    endloop
  endfacet
  facet normal 0 0 1
    outer loop
      vertex -0.881412 8.55982 4.95
      vertex -3.875 8.47981 4.95
      vertex -1.28016 8.47506 4.95
    endloop
  endfacet
  facet normal 0 0 1
    outer loop
      vertex -2.33601 8.06173 4.95
      vertex -2.77402 7.98963 4.95
      vertex -2.66817 7.87207 4.95
    endloop
  endfacet
  facet normal -0 -0 1
    outer loop
      vertex -3.10383 8.22925 4.95
      vertex -1.96359 8.22755 4.95
      vertex -3.47624 8.39506 4.95
    endloop
  endfacet
  facet normal 0 0 1
    outer loop
      vertex -2.33601 8.06173 4.95
      vertex -3.10383 8.22925 4.95
      vertex -2.77402 7.98963 4.95
    endloop
  endfacet
  facet normal 0 0 1
    outer loop
      vertex -1.96359 8.22755 4.95
      vertex -3.10383 8.22925 4.95
      vertex -2.33601 8.06173 4.95
    endloop
  endfacet
  facet normal 0 0 1
    outer loop
      vertex -1.28016 8.47506 4.95
      vertex -3.47624 8.39506 4.95
      vertex -1.96359 8.22755 4.95
    endloop
  endfacet
  facet normal 0 -0 1
    outer loop
      vertex -3.47624 8.39506 4.95
      vertex -1.28016 8.47506 4.95
      vertex -3.875 8.47981 4.95
    endloop
  endfacet
  facet normal 0 0 1
    outer loop
      vertex -3.875 8.47981 4.95
      vertex -15.1568 16.4918 4.95
      vertex -6.22666 8.47981 4.95
    endloop
  endfacet
  facet normal 0 0 1
    outer loop
      vertex -7.93021 6.94592 4.95
      vertex -16.5 15 4.95
      vertex -7.97283 6.5405 4.95
    endloop
  endfacet
  facet normal 0 0 1
    outer loop
      vertex -7.80424 7.33363 4.95
      vertex -16.5 15 4.95
      vertex -7.93021 6.94592 4.95
    endloop
  endfacet
  facet normal 0 0 1
    outer loop
      vertex -7.60041 7.68668 4.95
      vertex -16.5 15 4.95
      vertex -7.80424 7.33363 4.95
    endloop
  endfacet
  facet normal 0 0 1
    outer loop
      vertex -7.32763 7.98963 4.95
      vertex -16.5 15 4.95
      vertex -7.60041 7.68668 4.95
    endloop
  endfacet
  facet normal -0 0 1
    outer loop
      vertex -16.5 15 4.95
      vertex -7.32763 7.98963 4.95
      vertex -15.1568 16.4918 4.95
    endloop
  endfacet
  facet normal 0 0 1
    outer loop
      vertex -6.99783 8.22925 4.95
      vertex -15.1568 16.4918 4.95
      vertex -7.32763 7.98963 4.95
    endloop
  endfacet
  facet normal 0 0 1
    outer loop
      vertex -6.62541 8.39506 4.95
      vertex -15.1568 16.4918 4.95
      vertex -6.99783 8.22925 4.95
    endloop
  endfacet
  facet normal 0 0 1
    outer loop
      vertex -6.22666 8.47981 4.95
      vertex -15.1568 16.4918 4.95
      vertex -6.62541 8.39506 4.95
    endloop
  endfacet
  facet normal 0 0 1
    outer loop
      vertex 16.2135 -15.8817 4.95
      vertex 15.1568 -16.4918 4.95
      vertex 16.0037 -16.1147 4.95
    endloop
  endfacet
  facet normal 0 0 1
    outer loop
      vertex 16.0037 -16.1147 4.95
      vertex 15.1568 -16.4918 4.95
      vertex 15.75 -16.299 4.95
    endloop
  endfacet
  facet normal 0 0 1
    outer loop
      vertex 15.75 -16.299 4.95
      vertex 15.1568 -16.4918 4.95
      vertex 15.4635 -16.4266 4.95
    endloop
  endfacet
  facet normal 0 0 1
    outer loop
      vertex 16.4672 -15.3119 4.95
      vertex 15.1568 -16.4918 4.95
      vertex 16.3703 -15.6101 4.95
    endloop
  endfacet
  facet normal -0 0 1
    outer loop
      vertex 7.13796 -8.57563 4.95
      vertex 15.1568 -16.4918 4.95
      vertex 7.41074 -8.27268 4.95
    endloop
  endfacet
  facet normal -0 0 1
    outer loop
      vertex 6.80816 -8.81524 4.95
      vertex 15.1568 -16.4918 4.95
      vertex 7.13796 -8.57563 4.95
    endloop
  endfacet
  facet normal -0 0 1
    outer loop
      vertex 6.43574 -8.98106 4.95
      vertex 15.1568 -16.4918 4.95
      vertex 6.80816 -8.81524 4.95
    endloop
  endfacet
  facet normal -0 0 1
    outer loop
      vertex 6.03699 -9.06581 4.95
      vertex 15.1568 -16.4918 4.95
      vertex 6.43574 -8.98106 4.95
    endloop
  endfacet
  facet normal -0 0 1
    outer loop
      vertex 3.15733 -9.06581 4.95
      vertex 15.1568 -16.4918 4.95
      vertex 6.03699 -9.06581 4.95
    endloop
  endfacet
  facet normal 0 0 1
    outer loop
      vertex -3.347 -9.06581 4.95
      vertex 3.15733 -9.06581 4.95
      vertex 2.75858 -8.98106 4.95
    endloop
  endfacet
  facet normal 0 0 1
    outer loop
      vertex -2.94824 -8.98106 4.95
      vertex 2.75858 -8.98106 4.95
      vertex 2.38616 -8.81524 4.95
    endloop
  endfacet
  facet normal 0 0 1
    outer loop
      vertex 0.349912 2.83244 4.95
      vertex 1.37623 1.71754 4.95
      vertex 1.28082 2.18409 4.95
    endloop
  endfacet
  facet normal 0 0 1
    outer loop
      vertex 0.640697 2.80752 4.95
      vertex 1.28082 2.18409 4.95
      vertex 1.17888 2.43546 4.95
    endloop
  endfacet
  facet normal 0 0 1
    outer loop
      vertex 0.832126 2.75233 4.95
      vertex 1.17888 2.43546 4.95
      vertex 1.07729 2.58044 4.95
    endloop
  endfacet
  facet normal 0 0 1
    outer loop
      vertex 0.832126 2.75233 4.95
      vertex 1.07729 2.58044 4.95
      vertex 0.966261 2.679 4.95
    endloop
  endfacet
  facet normal 0 0 1
    outer loop
      vertex 1.17888 2.43546 4.95
      vertex 0.832126 2.75233 4.95
      vertex 0.640697 2.80752 4.95
    endloop
  endfacet
  facet normal 0 0 1
    outer loop
      vertex 1.28082 2.18409 4.95
      vertex 0.640697 2.80752 4.95
      vertex 0.349912 2.83244 4.95
    endloop
  endfacet
  facet normal 0 0 1
    outer loop
      vertex 1.37623 1.71754 4.95
      vertex 0.349912 2.83244 4.95
      vertex -0.089135 2.78893 4.95
    endloop
  endfacet
  facet normal 0 0 1
    outer loop
      vertex 1.41116 1.12349 4.95
      vertex -1.60083 -0.459488 4.95
      vertex 1.41116 -7.1265 4.95
    endloop
  endfacet
  facet normal 0 0 1
    outer loop
      vertex 1.37623 1.71754 4.95
      vertex -0.089135 2.78893 4.95
      vertex -0.414174 2.68129 4.95
    endloop
  endfacet
  facet normal 0 0 1
    outer loop
      vertex 1.37623 1.71754 4.95
      vertex -0.414174 2.68129 4.95
      vertex -0.690872 2.50893 4.95
    endloop
  endfacet
  facet normal 0 0 1
    outer loop
      vertex 1.37623 1.71754 4.95
      vertex -0.690872 2.50893 4.95
      vertex -0.95561 2.24397 4.95
    endloop
  endfacet
  facet normal 0 0 1
    outer loop
      vertex 1.37623 1.71754 4.95
      vertex -0.95561 2.24397 4.95
      vertex -1.19517 1.86456 4.95
    endloop
  endfacet
  facet normal 0 0 1
    outer loop
      vertex 1.41116 1.12349 4.95
      vertex -1.19517 1.86456 4.95
      vertex -1.39443 1.3265 4.95
    endloop
  endfacet
  facet normal 0 0 1
    outer loop
      vertex 1.41116 1.12349 4.95
      vertex -1.39443 1.3265 4.95
      vertex -1.54778 0.512901 4.95
    endloop
  endfacet
  facet normal 0 0 1
    outer loop
      vertex 1.41116 1.12349 4.95
      vertex -1.54778 0.512901 4.95
      vertex -1.60083 -0.459488 4.95
    endloop
  endfacet
  facet normal 0 0 1
    outer loop
      vertex -1.60083 -7.1265 4.95
      vertex 1.41116 -7.1265 4.95
      vertex -1.60083 -0.459488 4.95
    endloop
  endfacet
  facet normal 0 0 1
    outer loop
      vertex 1.41116 -7.1265 4.95
      vertex -1.60083 -7.1265 4.95
      vertex 1.45377 -7.53192 4.95
    endloop
  endfacet
  facet normal 0 0 1
    outer loop
      vertex -1.64344 -7.53192 4.95
      vertex 1.45377 -7.53192 4.95
      vertex -1.60083 -7.1265 4.95
    endloop
  endfacet
  facet normal 0 0 1
    outer loop
      vertex 1.45377 -7.53192 4.95
      vertex -1.64344 -7.53192 4.95
      vertex 1.57975 -7.91963 4.95
    endloop
  endfacet
  facet normal 0 0 1
    outer loop
      vertex -1.76941 -7.91963 4.95
      vertex 1.57975 -7.91963 4.95
      vertex -1.64344 -7.53192 4.95
    endloop
  endfacet
  facet normal 0 0 1
    outer loop
      vertex 1.57975 -7.91963 4.95
      vertex -1.76941 -7.91963 4.95
      vertex 1.78358 -8.27268 4.95
    endloop
  endfacet
  facet normal 0 0 1
    outer loop
      vertex -1.97324 -8.27268 4.95
      vertex 1.78358 -8.27268 4.95
      vertex -1.76941 -7.91963 4.95
    endloop
  endfacet
  facet normal 0 0 1
    outer loop
      vertex 1.78358 -8.27268 4.95
      vertex -1.97324 -8.27268 4.95
      vertex 2.05636 -8.57563 4.95
    endloop
  endfacet
  facet normal 0 0 1
    outer loop
      vertex -2.24602 -8.57563 4.95
      vertex 2.05636 -8.57563 4.95
      vertex -1.97324 -8.27268 4.95
    endloop
  endfacet
  facet normal 0 0 1
    outer loop
      vertex 2.05636 -8.57563 4.95
      vertex -2.24602 -8.57563 4.95
      vertex 2.38616 -8.81524 4.95
    endloop
  endfacet
  facet normal 0 0 1
    outer loop
      vertex -2.57583 -8.81524 4.95
      vertex 2.38616 -8.81524 4.95
      vertex -2.24602 -8.57563 4.95
    endloop
  endfacet
  facet normal 0 0 1
    outer loop
      vertex -2.94824 -8.98106 4.95
      vertex 2.38616 -8.81524 4.95
      vertex -2.57583 -8.81524 4.95
    endloop
  endfacet
  facet normal 0 0 1
    outer loop
      vertex 2.75858 -8.98106 4.95
      vertex -2.94824 -8.98106 4.95
      vertex -3.347 -9.06581 4.95
    endloop
  endfacet
  facet normal 0 0 1
    outer loop
      vertex 3.15733 -9.06581 4.95
      vertex -3.347 -9.06581 4.95
      vertex 15.1568 -16.4918 4.95
    endloop
  endfacet
  facet normal 0 0 1
    outer loop
      vertex -15.1568 -16.4918 4.95
      vertex -3.347 -9.06581 4.95
      vertex -6.22666 -9.06581 4.95
    endloop
  endfacet
  facet normal 0 0 1
    outer loop
      vertex -15.1568 -16.4918 4.95
      vertex -6.22666 -9.06581 4.95
      vertex -6.62541 -8.98106 4.95
    endloop
  endfacet
  facet normal 0 0 1
    outer loop
      vertex -16.5 -15 4.95
      vertex -7.97283 6.5405 4.95
      vertex -16.5 15 4.95
    endloop
  endfacet
  facet normal 0 0 1
    outer loop
      vertex -3.347 -9.06581 4.95
      vertex -15.1568 -16.4918 4.95
      vertex 15.1568 -16.4918 4.95
    endloop
  endfacet
  facet normal 0 0 1
    outer loop
      vertex -6.99783 -8.81524 4.95
      vertex -15.1568 -16.4918 4.95
      vertex -6.62541 -8.98106 4.95
    endloop
  endfacet
  facet normal 0 0 1
    outer loop
      vertex -7.32763 -8.57563 4.95
      vertex -15.1568 -16.4918 4.95
      vertex -6.99783 -8.81524 4.95
    endloop
  endfacet
  facet normal 0 0 1
    outer loop
      vertex -7.60041 -8.27268 4.95
      vertex -15.1568 -16.4918 4.95
      vertex -7.32763 -8.57563 4.95
    endloop
  endfacet
  facet normal 0 0 1
    outer loop
      vertex -16.5 -15 4.95
      vertex -7.60041 -8.27268 4.95
      vertex -7.80424 -7.91963 4.95
    endloop
  endfacet
  facet normal 0 0 1
    outer loop
      vertex -16.5 -15 4.95
      vertex -7.80424 -7.91963 4.95
      vertex -7.93021 -7.53192 4.95
    endloop
  endfacet
  facet normal 0 0 1
    outer loop
      vertex -7.97283 6.5405 4.95
      vertex -16.5 -15 4.95
      vertex -7.97283 -7.1265 4.95
    endloop
  endfacet
  facet normal 0 0 1
    outer loop
      vertex -16.5 15 4.95
      vertex -15.1568 16.4918 4.95
      vertex -15.4635 16.4266 4.95
    endloop
  endfacet
  facet normal 0 0 1
    outer loop
      vertex -7.97283 -7.1265 4.95
      vertex -16.5 -15 4.95
      vertex -7.93021 -7.53192 4.95
    endloop
  endfacet
  facet normal 0 0 1
    outer loop
      vertex -16.5 15 4.95
      vertex -15.4635 16.4266 4.95
      vertex -15.75 16.299 4.95
    endloop
  endfacet
  facet normal 0 0 1
    outer loop
      vertex -7.60041 -8.27268 4.95
      vertex -16.5 -15 4.95
      vertex -15.1568 -16.4918 4.95
    endloop
  endfacet
  facet normal 0 0 1
    outer loop
      vertex -16.5 15 4.95
      vertex -15.75 16.299 4.95
      vertex -16.0037 16.1147 4.95
    endloop
  endfacet
  facet normal 0 0 1
    outer loop
      vertex -15.1568 -16.4918 4.95
      vertex -16.5 -15 4.95
      vertex -15.4635 -16.4266 4.95
    endloop
  endfacet
  facet normal 0 0 1
    outer loop
      vertex -16.5 15 4.95
      vertex -16.0037 16.1147 4.95
      vertex -16.2135 15.8817 4.95
    endloop
  endfacet
  facet normal 0 0 1
    outer loop
      vertex -15.4635 -16.4266 4.95
      vertex -16.5 -15 4.95
      vertex -15.75 -16.299 4.95
    endloop
  endfacet
  facet normal 0 0 1
    outer loop
      vertex -16.5 15 4.95
      vertex -16.2135 15.8817 4.95
      vertex -16.3703 15.6101 4.95
    endloop
  endfacet
  facet normal 0 0 1
    outer loop
      vertex -15.75 -16.299 4.95
      vertex -16.5 -15 4.95
      vertex -16.0037 -16.1147 4.95
    endloop
  endfacet
  facet normal 0 0 1
    outer loop
      vertex -16.5 15 4.95
      vertex -16.3703 15.6101 4.95
      vertex -16.4672 15.3119 4.95
    endloop
  endfacet
  facet normal 0 0 1
    outer loop
      vertex -16.0037 -16.1147 4.95
      vertex -16.5 -15 4.95
      vertex -16.2135 -15.8817 4.95
    endloop
  endfacet
  facet normal 0 0 1
    outer loop
      vertex -16.2135 -15.8817 4.95
      vertex -16.5 -15 4.95
      vertex -16.3703 -15.6101 4.95
    endloop
  endfacet
  facet normal 0 0 1
    outer loop
      vertex -16.3703 -15.6101 4.95
      vertex -16.5 -15 4.95
      vertex -16.4672 -15.3119 4.95
    endloop
  endfacet
endsolid OpenSCAD_Model
