solid OpenSCAD_Model
  facet normal 0 -1 0
    outer loop
      vertex -16.8658 -19.9808 0
      vertex 16.8658 -19.9808 8.01
      vertex -16.8658 -19.9808 8.01
    endloop
  endfacet
  facet normal 0 -1 -0
    outer loop
      vertex 16.8658 -19.9808 8.01
      vertex -16.8658 -19.9808 0
      vertex 16.8658 -19.9808 0
    endloop
  endfacet
  facet normal -0.207913 -0.978147 0
    outer loop
      vertex -17.5816 -19.8287 0
      vertex -16.8658 -19.9808 8.01
      vertex -17.5816 -19.8287 8.01
    endloop
  endfacet
  facet normal -0.207913 -0.978147 -0
    outer loop
      vertex -16.8658 -19.9808 8.01
      vertex -17.5816 -19.8287 0
      vertex -16.8658 -19.9808 0
    endloop
  endfacet
  facet normal 1 -0 0
    outer loop
      vertex 20 -16.5 8.01
      vertex 20 16.5 0
      vertex 20 16.5 8.01
    endloop
  endfacet
  facet normal 1 0 0
    outer loop
      vertex 20 16.5 0
      vertex 20 -16.5 8.01
      vertex 20 -16.5 0
    endloop
  endfacet
  facet normal 0.207913 -0.978147 0
    outer loop
      vertex 16.8658 -19.9808 0
      vertex 17.5816 -19.8287 8.01
      vertex 16.8658 -19.9808 8.01
    endloop
  endfacet
  facet normal 0.207913 -0.978147 0
    outer loop
      vertex 17.5816 -19.8287 8.01
      vertex 16.8658 -19.9808 0
      vertex 17.5816 -19.8287 0
    endloop
  endfacet
  facet normal 0.951057 0.309017 0
    outer loop
      vertex 19.9235 17.2277 8.01
      vertex 19.6974 17.9236 0
      vertex 19.6974 17.9236 8.01
    endloop
  endfacet
  facet normal 0.951057 0.309017 0
    outer loop
      vertex 19.6974 17.9236 0
      vertex 19.9235 17.2277 8.01
      vertex 19.9235 17.2277 0
    endloop
  endfacet
  facet normal -0.866025 0.5 0
    outer loop
      vertex -19.6974 17.9236 0
      vertex -19.3316 18.5572 8.01
      vertex -19.3316 18.5572 0
    endloop
  endfacet
  facet normal -0.866025 0.5 0
    outer loop
      vertex -19.3316 18.5572 8.01
      vertex -19.6974 17.9236 0
      vertex -19.6974 17.9236 8.01
    endloop
  endfacet
  facet normal 0 1 -0
    outer loop
      vertex 16.8658 19.9808 0
      vertex -16.8658 19.9808 8.01
      vertex 16.8658 19.9808 8.01
    endloop
  endfacet
  facet normal 0 1 0
    outer loop
      vertex -16.8658 19.9808 8.01
      vertex 16.8658 19.9808 0
      vertex -16.8658 19.9808 0
    endloop
  endfacet
  facet normal 0.587787 -0.809016 0
    outer loop
      vertex 18.25 -19.5311 0
      vertex 18.842 -19.101 8.01
      vertex 18.25 -19.5311 8.01
    endloop
  endfacet
  facet normal 0.587787 -0.809016 0
    outer loop
      vertex 18.842 -19.101 8.01
      vertex 18.25 -19.5311 0
      vertex 18.842 -19.101 0
    endloop
  endfacet
  facet normal -0.587787 -0.809016 0
    outer loop
      vertex -18.842 -19.101 0
      vertex -18.25 -19.5311 8.01
      vertex -18.842 -19.101 8.01
    endloop
  endfacet
  facet normal -0.587787 -0.809016 -0
    outer loop
      vertex -18.25 -19.5311 8.01
      vertex -18.842 -19.101 0
      vertex -18.25 -19.5311 0
    endloop
  endfacet
  facet normal 0 0 -1
    outer loop
      vertex 16.8658 -19.9808 0
      vertex 20 -16.5 0
      vertex 19.9235 -17.2277 0
    endloop
  endfacet
  facet normal 0 0 -1
    outer loop
      vertex -20 -16.5 0
      vertex 20 -16.5 0
      vertex 16.8658 -19.9808 0
    endloop
  endfacet
  facet normal 0 0 -1
    outer loop
      vertex 16.8658 -19.9808 0
      vertex 19.9235 -17.2277 0
      vertex 19.6974 -17.9236 0
    endloop
  endfacet
  facet normal 0 0 -1
    outer loop
      vertex 20 -16.5 0
      vertex -20 -16.5 0
      vertex 20 16.5 0
    endloop
  endfacet
  facet normal 0 0 -1
    outer loop
      vertex 16.8658 -19.9808 0
      vertex 19.6974 -17.9236 0
      vertex 19.3316 -18.5572 0
    endloop
  endfacet
  facet normal 0 0 -1
    outer loop
      vertex 20 16.5 0
      vertex 16.8658 19.9808 0
      vertex 19.9235 17.2277 0
    endloop
  endfacet
  facet normal 0 0 -1
    outer loop
      vertex 16.8658 -19.9808 0
      vertex 19.3316 -18.5572 0
      vertex 18.842 -19.101 0
    endloop
  endfacet
  facet normal 0 0 -1
    outer loop
      vertex 19.9235 17.2277 0
      vertex 16.8658 19.9808 0
      vertex 19.6974 17.9236 0
    endloop
  endfacet
  facet normal 0 0 -1
    outer loop
      vertex 16.8658 -19.9808 0
      vertex 18.842 -19.101 0
      vertex 18.25 -19.5311 0
    endloop
  endfacet
  facet normal 0 0 -1
    outer loop
      vertex 19.6974 17.9236 0
      vertex 16.8658 19.9808 0
      vertex 19.3316 18.5572 0
    endloop
  endfacet
  facet normal 0 0 -1
    outer loop
      vertex 16.8658 -19.9808 0
      vertex 18.25 -19.5311 0
      vertex 17.5816 -19.8287 0
    endloop
  endfacet
  facet normal 0 0 -1
    outer loop
      vertex 19.3316 18.5572 0
      vertex 16.8658 19.9808 0
      vertex 18.842 19.101 0
    endloop
  endfacet
  facet normal 0 0 -1
    outer loop
      vertex 18.842 19.101 0
      vertex 16.8658 19.9808 0
      vertex 18.25 19.5311 0
    endloop
  endfacet
  facet normal 0 0 -1
    outer loop
      vertex 18.25 19.5311 0
      vertex 16.8658 19.9808 0
      vertex 17.5816 19.8287 0
    endloop
  endfacet
  facet normal 0 0 -1
    outer loop
      vertex -20 -16.5 0
      vertex 16.8658 -19.9808 0
      vertex -16.8658 -19.9808 0
    endloop
  endfacet
  facet normal 0 0 -1
    outer loop
      vertex -20 16.5 0
      vertex 20 16.5 0
      vertex -20 -16.5 0
    endloop
  endfacet
  facet normal 0 0 -1
    outer loop
      vertex -20 -16.5 0
      vertex -16.8658 -19.9808 0
      vertex -17.5816 -19.8287 0
    endloop
  endfacet
  facet normal 0 0 -1
    outer loop
      vertex 20 16.5 0
      vertex -20 16.5 0
      vertex 16.8658 19.9808 0
    endloop
  endfacet
  facet normal 0 0 -1
    outer loop
      vertex -20 -16.5 0
      vertex -17.5816 -19.8287 0
      vertex -18.25 -19.5311 0
    endloop
  endfacet
  facet normal -0 0 -1
    outer loop
      vertex 16.8658 19.9808 0
      vertex -20 16.5 0
      vertex -16.8658 19.9808 0
    endloop
  endfacet
  facet normal 0 0 -1
    outer loop
      vertex -20 -16.5 0
      vertex -18.25 -19.5311 0
      vertex -18.842 -19.101 0
    endloop
  endfacet
  facet normal 0 0 -1
    outer loop
      vertex -16.8658 19.9808 0
      vertex -20 16.5 0
      vertex -17.5816 19.8287 0
    endloop
  endfacet
  facet normal 0 0 -1
    outer loop
      vertex -20 -16.5 0
      vertex -18.842 -19.101 0
      vertex -19.3316 -18.5572 0
    endloop
  endfacet
  facet normal 0 0 -1
    outer loop
      vertex -17.5816 19.8287 0
      vertex -20 16.5 0
      vertex -18.25 19.5311 0
    endloop
  endfacet
  facet normal 0 0 -1
    outer loop
      vertex -20 -16.5 0
      vertex -19.3316 -18.5572 0
      vertex -19.6974 -17.9236 0
    endloop
  endfacet
  facet normal 0 0 -1
    outer loop
      vertex -18.25 19.5311 0
      vertex -20 16.5 0
      vertex -18.842 19.101 0
    endloop
  endfacet
  facet normal 0 0 -1
    outer loop
      vertex -20 -16.5 0
      vertex -19.6974 -17.9236 0
      vertex -19.9235 -17.2277 0
    endloop
  endfacet
  facet normal 0 0 -1
    outer loop
      vertex -18.842 19.101 0
      vertex -20 16.5 0
      vertex -19.3316 18.5572 0
    endloop
  endfacet
  facet normal 0 0 -1
    outer loop
      vertex -19.3316 18.5572 0
      vertex -20 16.5 0
      vertex -19.6974 17.9236 0
    endloop
  endfacet
  facet normal 0 0 -1
    outer loop
      vertex -19.6974 17.9236 0
      vertex -20 16.5 0
      vertex -19.9235 17.2277 0
    endloop
  endfacet
  facet normal -1 0 0
    outer loop
      vertex -20 -16.5 0
      vertex -20 16.5 8.01
      vertex -20 16.5 0
    endloop
  endfacet
  facet normal -1 -0 0
    outer loop
      vertex -20 16.5 8.01
      vertex -20 -16.5 0
      vertex -20 -16.5 8.01
    endloop
  endfacet
  facet normal -0.406734 0.913546 0
    outer loop
      vertex -17.5816 19.8287 0
      vertex -18.25 19.5311 8.01
      vertex -17.5816 19.8287 8.01
    endloop
  endfacet
  facet normal -0.406734 0.913546 0
    outer loop
      vertex -18.25 19.5311 8.01
      vertex -17.5816 19.8287 0
      vertex -18.25 19.5311 0
    endloop
  endfacet
  facet normal 0.587787 0.809016 -0
    outer loop
      vertex 18.842 19.101 0
      vertex 18.25 19.5311 8.01
      vertex 18.842 19.101 8.01
    endloop
  endfacet
  facet normal 0.587787 0.809016 0
    outer loop
      vertex 18.25 19.5311 8.01
      vertex 18.842 19.101 0
      vertex 18.25 19.5311 0
    endloop
  endfacet
  facet normal 0.951057 -0.309017 0
    outer loop
      vertex 19.6974 -17.9236 8.01
      vertex 19.9235 -17.2277 0
      vertex 19.9235 -17.2277 8.01
    endloop
  endfacet
  facet normal 0.951057 -0.309017 0
    outer loop
      vertex 19.9235 -17.2277 0
      vertex 19.6974 -17.9236 8.01
      vertex 19.6974 -17.9236 0
    endloop
  endfacet
  facet normal 0.994522 -0.10453 0
    outer loop
      vertex 19.9235 -17.2277 8.01
      vertex 20 -16.5 0
      vertex 20 -16.5 8.01
    endloop
  endfacet
  facet normal 0.994522 -0.10453 0
    outer loop
      vertex 20 -16.5 0
      vertex 19.9235 -17.2277 8.01
      vertex 19.9235 -17.2277 0
    endloop
  endfacet
  facet normal 0.406734 -0.913546 0
    outer loop
      vertex 17.5816 -19.8287 0
      vertex 18.25 -19.5311 8.01
      vertex 17.5816 -19.8287 8.01
    endloop
  endfacet
  facet normal 0.406734 -0.913546 0
    outer loop
      vertex 18.25 -19.5311 8.01
      vertex 17.5816 -19.8287 0
      vertex 18.25 -19.5311 0
    endloop
  endfacet
  facet normal -0.406734 -0.913546 0
    outer loop
      vertex -18.25 -19.5311 0
      vertex -17.5816 -19.8287 8.01
      vertex -18.25 -19.5311 8.01
    endloop
  endfacet
  facet normal -0.406734 -0.913546 -0
    outer loop
      vertex -17.5816 -19.8287 8.01
      vertex -18.25 -19.5311 0
      vertex -17.5816 -19.8287 0
    endloop
  endfacet
  facet normal -0.994522 0.10453 0
    outer loop
      vertex -20 16.5 0
      vertex -19.9235 17.2277 8.01
      vertex -19.9235 17.2277 0
    endloop
  endfacet
  facet normal -0.994522 0.10453 0
    outer loop
      vertex -19.9235 17.2277 8.01
      vertex -20 16.5 0
      vertex -20 16.5 8.01
    endloop
  endfacet
  facet normal -0.743146 0.66913 0
    outer loop
      vertex -19.3316 18.5572 0
      vertex -18.842 19.101 8.01
      vertex -18.842 19.101 0
    endloop
  endfacet
  facet normal -0.743146 0.66913 0
    outer loop
      vertex -18.842 19.101 8.01
      vertex -19.3316 18.5572 0
      vertex -19.3316 18.5572 8.01
    endloop
  endfacet
  facet normal -0.207913 0.978147 0
    outer loop
      vertex -16.8658 19.9808 0
      vertex -17.5816 19.8287 8.01
      vertex -16.8658 19.9808 8.01
    endloop
  endfacet
  facet normal -0.207913 0.978147 0
    outer loop
      vertex -17.5816 19.8287 8.01
      vertex -16.8658 19.9808 0
      vertex -17.5816 19.8287 0
    endloop
  endfacet
  facet normal -0.587787 0.809016 0
    outer loop
      vertex -18.25 19.5311 0
      vertex -18.842 19.101 8.01
      vertex -18.25 19.5311 8.01
    endloop
  endfacet
  facet normal -0.587787 0.809016 0
    outer loop
      vertex -18.842 19.101 8.01
      vertex -18.25 19.5311 0
      vertex -18.842 19.101 0
    endloop
  endfacet
  facet normal 0.207913 0.978147 -0
    outer loop
      vertex 17.5816 19.8287 0
      vertex 16.8658 19.9808 8.01
      vertex 17.5816 19.8287 8.01
    endloop
  endfacet
  facet normal 0.207913 0.978147 0
    outer loop
      vertex 16.8658 19.9808 8.01
      vertex 17.5816 19.8287 0
      vertex 16.8658 19.9808 0
    endloop
  endfacet
  facet normal 0.743146 0.66913 0
    outer loop
      vertex 19.3316 18.5572 8.01
      vertex 18.842 19.101 0
      vertex 18.842 19.101 8.01
    endloop
  endfacet
  facet normal 0.743146 0.66913 0
    outer loop
      vertex 18.842 19.101 0
      vertex 19.3316 18.5572 8.01
      vertex 19.3316 18.5572 0
    endloop
  endfacet
  facet normal 0.866025 0.5 0
    outer loop
      vertex 19.6974 17.9236 8.01
      vertex 19.3316 18.5572 0
      vertex 19.3316 18.5572 8.01
    endloop
  endfacet
  facet normal 0.866025 0.5 0
    outer loop
      vertex 19.3316 18.5572 0
      vertex 19.6974 17.9236 8.01
      vertex 19.6974 17.9236 0
    endloop
  endfacet
  facet normal 0.994522 0.10453 0
    outer loop
      vertex 20 16.5 8.01
      vertex 19.9235 17.2277 0
      vertex 19.9235 17.2277 8.01
    endloop
  endfacet
  facet normal 0.994522 0.10453 0
    outer loop
      vertex 19.9235 17.2277 0
      vertex 20 16.5 8.01
      vertex 20 16.5 0
    endloop
  endfacet
  facet normal 0.866025 -0.5 0
    outer loop
      vertex 19.3316 -18.5572 8.01
      vertex 19.6974 -17.9236 0
      vertex 19.6974 -17.9236 8.01
    endloop
  endfacet
  facet normal 0.866025 -0.5 0
    outer loop
      vertex 19.6974 -17.9236 0
      vertex 19.3316 -18.5572 8.01
      vertex 19.3316 -18.5572 0
    endloop
  endfacet
  facet normal 0.743146 -0.66913 0
    outer loop
      vertex 18.842 -19.101 8.01
      vertex 19.3316 -18.5572 0
      vertex 19.3316 -18.5572 8.01
    endloop
  endfacet
  facet normal 0.743146 -0.66913 0
    outer loop
      vertex 19.3316 -18.5572 0
      vertex 18.842 -19.101 8.01
      vertex 18.842 -19.101 0
    endloop
  endfacet
  facet normal -0.866025 -0.5 0
    outer loop
      vertex -19.3316 -18.5572 0
      vertex -19.6974 -17.9236 8.01
      vertex -19.6974 -17.9236 0
    endloop
  endfacet
  facet normal -0.866025 -0.5 0
    outer loop
      vertex -19.6974 -17.9236 8.01
      vertex -19.3316 -18.5572 0
      vertex -19.3316 -18.5572 8.01
    endloop
  endfacet
  facet normal -0.994522 -0.10453 0
    outer loop
      vertex -19.9235 -17.2277 0
      vertex -20 -16.5 8.01
      vertex -20 -16.5 0
    endloop
  endfacet
  facet normal -0.994522 -0.10453 0
    outer loop
      vertex -20 -16.5 8.01
      vertex -19.9235 -17.2277 0
      vertex -19.9235 -17.2277 8.01
    endloop
  endfacet
  facet normal -0.743146 -0.66913 0
    outer loop
      vertex -18.842 -19.101 0
      vertex -19.3316 -18.5572 8.01
      vertex -19.3316 -18.5572 0
    endloop
  endfacet
  facet normal -0.743146 -0.66913 0
    outer loop
      vertex -19.3316 -18.5572 8.01
      vertex -18.842 -19.101 0
      vertex -18.842 -19.101 8.01
    endloop
  endfacet
  facet normal -0.951057 0.309017 0
    outer loop
      vertex -19.9235 17.2277 0
      vertex -19.6974 17.9236 8.01
      vertex -19.6974 17.9236 0
    endloop
  endfacet
  facet normal -0.951057 0.309017 0
    outer loop
      vertex -19.6974 17.9236 8.01
      vertex -19.9235 17.2277 0
      vertex -19.9235 17.2277 8.01
    endloop
  endfacet
  facet normal 0.406734 0.913546 -0
    outer loop
      vertex 18.25 19.5311 0
      vertex 17.5816 19.8287 8.01
      vertex 18.25 19.5311 8.01
    endloop
  endfacet
  facet normal 0.406734 0.913546 0
    outer loop
      vertex 17.5816 19.8287 8.01
      vertex 18.25 19.5311 0
      vertex 17.5816 19.8287 0
    endloop
  endfacet
  facet normal -0.951057 -0.309017 0
    outer loop
      vertex -19.6974 -17.9236 0
      vertex -19.9235 -17.2277 8.01
      vertex -19.9235 -17.2277 0
    endloop
  endfacet
  facet normal -0.951057 -0.309017 0
    outer loop
      vertex -19.9235 -17.2277 8.01
      vertex -19.6974 -17.9236 0
      vertex -19.6974 -17.9236 8.01
    endloop
  endfacet
  facet normal 0 0 1
    outer loop
      vertex 17.9925 16.5 8.01
      vertex 20 16.5 8.01
      vertex 19.9235 17.2277 8.01
    endloop
  endfacet
  facet normal 0 0 1
    outer loop
      vertex 20 16.5 8.01
      vertex 17.9925 16.5 8.01
      vertex 20 -16.5 8.01
    endloop
  endfacet
  facet normal 0 0 1
    outer loop
      vertex 17.9599 16.8103 8.01
      vertex 19.9235 17.2277 8.01
      vertex 19.6974 17.9236 8.01
    endloop
  endfacet
  facet normal 0 0 1
    outer loop
      vertex 17.9925 -16.5 8.01
      vertex 20 -16.5 8.01
      vertex 17.9925 16.5 8.01
    endloop
  endfacet
  facet normal 0 0 1
    outer loop
      vertex 17.8635 17.1071 8.01
      vertex 19.6974 17.9236 8.01
      vertex 19.3316 18.5572 8.01
    endloop
  endfacet
  facet normal 0 0 1
    outer loop
      vertex 20 -16.5 8.01
      vertex 17.9925 -16.5 8.01
      vertex 19.9235 -17.2277 8.01
    endloop
  endfacet
  facet normal 0 0 1
    outer loop
      vertex 17.7075 17.3773 8.01
      vertex 19.3316 18.5572 8.01
      vertex 18.842 19.101 8.01
    endloop
  endfacet
  facet normal -0 0 1
    outer loop
      vertex 17.9599 -16.8103 8.01
      vertex 19.9235 -17.2277 8.01
      vertex 17.9925 -16.5 8.01
    endloop
  endfacet
  facet normal 0 0 1
    outer loop
      vertex 17.4987 17.6092 8.01
      vertex 18.842 19.101 8.01
      vertex 18.25 19.5311 8.01
    endloop
  endfacet
  facet normal 0 0 1
    outer loop
      vertex 19.9235 -17.2277 8.01
      vertex 17.9599 -16.8103 8.01
      vertex 19.6974 -17.9236 8.01
    endloop
  endfacet
  facet normal -0 0 1
    outer loop
      vertex 17.8635 -17.1071 8.01
      vertex 19.6974 -17.9236 8.01
      vertex 17.9599 -16.8103 8.01
    endloop
  endfacet
  facet normal 0 0 1
    outer loop
      vertex 19.9235 17.2277 8.01
      vertex 17.9599 16.8103 8.01
      vertex 17.9925 16.5 8.01
    endloop
  endfacet
  facet normal 0 0 1
    outer loop
      vertex 19.6974 17.9236 8.01
      vertex 17.8635 17.1071 8.01
      vertex 17.9599 16.8103 8.01
    endloop
  endfacet
  facet normal 0 0 1
    outer loop
      vertex 19.3316 18.5572 8.01
      vertex 17.7075 17.3773 8.01
      vertex 17.8635 17.1071 8.01
    endloop
  endfacet
  facet normal 0 0 1
    outer loop
      vertex 17.2463 17.7926 8.01
      vertex 18.25 19.5311 8.01
      vertex 17.5816 19.8287 8.01
    endloop
  endfacet
  facet normal 0 0 1
    outer loop
      vertex 18.842 19.101 8.01
      vertex 17.4987 17.6092 8.01
      vertex 17.7075 17.3773 8.01
    endloop
  endfacet
  facet normal 0 0 1
    outer loop
      vertex 18.25 19.5311 8.01
      vertex 17.2463 17.7926 8.01
      vertex 17.4987 17.6092 8.01
    endloop
  endfacet
  facet normal 0 0 1
    outer loop
      vertex 17.5816 19.8287 8.01
      vertex 16.9612 17.9195 8.01
      vertex 17.2463 17.7926 8.01
    endloop
  endfacet
  facet normal 0 0 1
    outer loop
      vertex 16.8658 19.9808 8.01
      vertex 16.9612 17.9195 8.01
      vertex 17.5816 19.8287 8.01
    endloop
  endfacet
  facet normal 0 0 1
    outer loop
      vertex 16.8658 19.9808 8.01
      vertex 16.656 17.9844 8.01
      vertex 16.9612 17.9195 8.01
    endloop
  endfacet
  facet normal 0 0 1
    outer loop
      vertex 16.8658 19.9808 8.01
      vertex -16.656 17.9844 8.01
      vertex 16.656 17.9844 8.01
    endloop
  endfacet
  facet normal -0 0 1
    outer loop
      vertex -16.8658 19.9808 8.01
      vertex -16.656 17.9844 8.01
      vertex 16.8658 19.9808 8.01
    endloop
  endfacet
  facet normal 0 0 1
    outer loop
      vertex -16.8658 19.9808 8.01
      vertex -16.9612 17.9195 8.01
      vertex -16.656 17.9844 8.01
    endloop
  endfacet
  facet normal -0 0 1
    outer loop
      vertex -17.5816 19.8287 8.01
      vertex -16.9612 17.9195 8.01
      vertex -16.8658 19.9808 8.01
    endloop
  endfacet
  facet normal 0 0 1
    outer loop
      vertex -16.9612 17.9195 8.01
      vertex -17.5816 19.8287 8.01
      vertex -17.2463 17.7926 8.01
    endloop
  endfacet
  facet normal -0 0 1
    outer loop
      vertex -18.25 19.5311 8.01
      vertex -17.2463 17.7926 8.01
      vertex -17.5816 19.8287 8.01
    endloop
  endfacet
  facet normal 0 0 1
    outer loop
      vertex -17.2463 17.7926 8.01
      vertex -18.25 19.5311 8.01
      vertex -17.4987 17.6092 8.01
    endloop
  endfacet
  facet normal -0 0 1
    outer loop
      vertex -18.842 19.101 8.01
      vertex -17.4987 17.6092 8.01
      vertex -18.25 19.5311 8.01
    endloop
  endfacet
  facet normal 0 0 1
    outer loop
      vertex -17.4987 17.6092 8.01
      vertex -18.842 19.101 8.01
      vertex -17.7075 17.3773 8.01
    endloop
  endfacet
  facet normal -0 0 1
    outer loop
      vertex -19.6974 17.9236 8.01
      vertex -17.8635 17.1071 8.01
      vertex -19.3316 18.5572 8.01
    endloop
  endfacet
  facet normal 0 0 1
    outer loop
      vertex -17.7075 17.3773 8.01
      vertex -19.3316 18.5572 8.01
      vertex -17.8635 17.1071 8.01
    endloop
  endfacet
  facet normal -0 0 1
    outer loop
      vertex -19.3316 18.5572 8.01
      vertex -17.7075 17.3773 8.01
      vertex -18.842 19.101 8.01
    endloop
  endfacet
  facet normal 0 0 1
    outer loop
      vertex 19.6974 -17.9236 8.01
      vertex 17.8635 -17.1071 8.01
      vertex 19.3316 -18.5572 8.01
    endloop
  endfacet
  facet normal -0 0 1
    outer loop
      vertex 17.7075 -17.3773 8.01
      vertex 19.3316 -18.5572 8.01
      vertex 17.8635 -17.1071 8.01
    endloop
  endfacet
  facet normal 0 0 1
    outer loop
      vertex 19.3316 -18.5572 8.01
      vertex 17.7075 -17.3773 8.01
      vertex 18.842 -19.101 8.01
    endloop
  endfacet
  facet normal -0 0 1
    outer loop
      vertex 17.4987 -17.6092 8.01
      vertex 18.842 -19.101 8.01
      vertex 17.7075 -17.3773 8.01
    endloop
  endfacet
  facet normal 0 0 1
    outer loop
      vertex 18.842 -19.101 8.01
      vertex 17.4987 -17.6092 8.01
      vertex 18.25 -19.5311 8.01
    endloop
  endfacet
  facet normal -0 0 1
    outer loop
      vertex 17.2463 -17.7926 8.01
      vertex 18.25 -19.5311 8.01
      vertex 17.4987 -17.6092 8.01
    endloop
  endfacet
  facet normal 0 0 1
    outer loop
      vertex 18.25 -19.5311 8.01
      vertex 17.2463 -17.7926 8.01
      vertex 17.5816 -19.8287 8.01
    endloop
  endfacet
  facet normal -0 0 1
    outer loop
      vertex 16.9612 -17.9195 8.01
      vertex 17.5816 -19.8287 8.01
      vertex 17.2463 -17.7926 8.01
    endloop
  endfacet
  facet normal 0 0 1
    outer loop
      vertex 16.9612 -17.9195 8.01
      vertex 16.8658 -19.9808 8.01
      vertex 17.5816 -19.8287 8.01
    endloop
  endfacet
  facet normal -0 0 1
    outer loop
      vertex 16.656 -17.9844 8.01
      vertex 16.8658 -19.9808 8.01
      vertex 16.9612 -17.9195 8.01
    endloop
  endfacet
  facet normal -0 0 1
    outer loop
      vertex -16.656 -17.9844 8.01
      vertex 16.8658 -19.9808 8.01
      vertex 16.656 -17.9844 8.01
    endloop
  endfacet
  facet normal 0 0 1
    outer loop
      vertex -16.656 -17.9844 8.01
      vertex -16.8658 -19.9808 8.01
      vertex 16.8658 -19.9808 8.01
    endloop
  endfacet
  facet normal 0 0 1
    outer loop
      vertex -16.9612 -17.9195 8.01
      vertex -16.8658 -19.9808 8.01
      vertex -16.656 -17.9844 8.01
    endloop
  endfacet
  facet normal 0 0 1
    outer loop
      vertex -17.5816 -19.8287 8.01
      vertex -16.9612 -17.9195 8.01
      vertex -17.2463 -17.7926 8.01
    endloop
  endfacet
  facet normal 0 0 1
    outer loop
      vertex -18.25 -19.5311 8.01
      vertex -17.2463 -17.7926 8.01
      vertex -17.4987 -17.6092 8.01
    endloop
  endfacet
  facet normal 0 0 1
    outer loop
      vertex -16.9612 -17.9195 8.01
      vertex -17.5816 -19.8287 8.01
      vertex -16.8658 -19.9808 8.01
    endloop
  endfacet
  facet normal 0 0 1
    outer loop
      vertex -18.842 -19.101 8.01
      vertex -17.4987 -17.6092 8.01
      vertex -17.7075 -17.3773 8.01
    endloop
  endfacet
  facet normal 0 0 1
    outer loop
      vertex -19.3316 -18.5572 8.01
      vertex -17.7075 -17.3773 8.01
      vertex -17.8635 -17.1071 8.01
    endloop
  endfacet
  facet normal 0 0 1
    outer loop
      vertex -19.6974 -17.9236 8.01
      vertex -17.8635 -17.1071 8.01
      vertex -17.9599 -16.8103 8.01
    endloop
  endfacet
  facet normal 0 0 1
    outer loop
      vertex -17.2463 -17.7926 8.01
      vertex -18.25 -19.5311 8.01
      vertex -17.5816 -19.8287 8.01
    endloop
  endfacet
  facet normal 0 0 1
    outer loop
      vertex -19.9235 -17.2277 8.01
      vertex -17.9599 -16.8103 8.01
      vertex -17.9925 -16.5 8.01
    endloop
  endfacet
  facet normal 0 0 1
    outer loop
      vertex -17.9925 16.5 8.01
      vertex -20 16.5 8.01
      vertex -17.9925 -16.5 8.01
    endloop
  endfacet
  facet normal 0 0 1
    outer loop
      vertex -17.8635 17.1071 8.01
      vertex -19.6974 17.9236 8.01
      vertex -17.9599 16.8103 8.01
    endloop
  endfacet
  facet normal 0 0 1
    outer loop
      vertex -20 -16.5 8.01
      vertex -17.9925 -16.5 8.01
      vertex -20 16.5 8.01
    endloop
  endfacet
  facet normal -0 0 1
    outer loop
      vertex -19.9235 17.2277 8.01
      vertex -17.9599 16.8103 8.01
      vertex -19.6974 17.9236 8.01
    endloop
  endfacet
  facet normal 0 -0 1
    outer loop
      vertex -19.9235 -17.2277 8.01
      vertex -17.9925 -16.5 8.01
      vertex -20 -16.5 8.01
    endloop
  endfacet
  facet normal 0 0 1
    outer loop
      vertex -17.9599 16.8103 8.01
      vertex -19.9235 17.2277 8.01
      vertex -17.9925 16.5 8.01
    endloop
  endfacet
  facet normal 0 0 1
    outer loop
      vertex -17.4987 -17.6092 8.01
      vertex -18.842 -19.101 8.01
      vertex -18.25 -19.5311 8.01
    endloop
  endfacet
  facet normal 0 0 1
    outer loop
      vertex -17.9925 16.5 8.01
      vertex -19.9235 17.2277 8.01
      vertex -20 16.5 8.01
    endloop
  endfacet
  facet normal 0 0 1
    outer loop
      vertex -17.7075 -17.3773 8.01
      vertex -19.3316 -18.5572 8.01
      vertex -18.842 -19.101 8.01
    endloop
  endfacet
  facet normal 0 0 1
    outer loop
      vertex -17.8635 -17.1071 8.01
      vertex -19.6974 -17.9236 8.01
      vertex -19.3316 -18.5572 8.01
    endloop
  endfacet
  facet normal 0 0 1
    outer loop
      vertex -17.9599 -16.8103 8.01
      vertex -19.9235 -17.2277 8.01
      vertex -19.6974 -17.9236 8.01
    endloop
  endfacet
  facet normal 0.983079 -0 0.183182
    outer loop
      vertex -17.9925 -16.5 8.01
      vertex -16.525 16.5 0.134165
      vertex -17.9925 16.5 8.01
    endloop
  endfacet
  facet normal 0.983079 0 0.183182
    outer loop
      vertex -16.525 16.5 0.134165
      vertex -17.9925 -16.5 8.01
      vertex -16.525 -16.5 0.134165
    endloop
  endfacet
  facet normal -0.935134 -0.303846 0.182212
    outer loop
      vertex 16.525 16.5111 0.146862
      vertex 17.9599 16.8103 8.01
      vertex 17.8635 17.1071 8.01
    endloop
  endfacet
  facet normal -0.935146 -0.30381 0.182213
    outer loop
      vertex 17.9599 16.8103 8.01
      vertex 16.525 16.5111 0.146862
      vertex 16.525 16.5053 0.137162
    endloop
  endfacet
  facet normal 0.204427 0.961773 0.182212
    outer loop
      vertex -16.656 -17.9844 8.01
      vertex -16.5081 -16.525 0.141069
      vertex -16.9612 -17.9195 8.01
    endloop
  endfacet
  facet normal 0.204439 0.961771 0.182212
    outer loop
      vertex -16.5081 -16.525 0.141069
      vertex -16.656 -17.9844 8.01
      vertex -16.5026 -16.525 0.134904
    endloop
  endfacet
  facet normal -0.399928 0.898252 0.182212
    outer loop
      vertex 16.5144 -16.525 0.15492
      vertex 16.9612 -17.9195 8.01
      vertex 17.2463 -17.7926 8.01
    endloop
  endfacet
  facet normal -0.399997 0.898221 0.182211
    outer loop
      vertex 16.9612 -17.9195 8.01
      vertex 16.5144 -16.525 0.15492
      vertex 16.5081 -16.525 0.141069
    endloop
  endfacet
  facet normal -0.204427 -0.961773 0.182212
    outer loop
      vertex 16.656 17.9844 8.01
      vertex 16.5081 16.525 0.141069
      vertex 16.9612 17.9195 8.01
    endloop
  endfacet
  facet normal -0.204439 -0.961771 0.182212
    outer loop
      vertex 16.5081 16.525 0.141069
      vertex 16.656 17.9844 8.01
      vertex 16.5026 16.525 0.134904
    endloop
  endfacet
  facet normal 0.851515 0.491652 0.182212
    outer loop
      vertex -17.8635 -17.1071 8.01
      vertex -16.525 -16.5182 0.165837
      vertex -16.525 -16.5111 0.146862
    endloop
  endfacet
  facet normal 0.851528 0.491629 0.182212
    outer loop
      vertex -16.525 -16.5182 0.165837
      vertex -17.8635 -17.1071 8.01
      vertex -17.7075 -17.3773 8.01
    endloop
  endfacet
  facet normal 0 0.983259 0.182212
    outer loop
      vertex 16.5026 -16.525 0.134904
      vertex -16.656 -17.9844 8.01
      vertex 16.656 -17.9844 8.01
    endloop
  endfacet
  facet normal 0 0.983259 0.182212
    outer loop
      vertex -16.656 -17.9844 8.01
      vertex 16.5026 -16.525 0.134904
      vertex -16.5026 -16.525 0.134904
    endloop
  endfacet
  facet normal -0.983079 0 0.183182
    outer loop
      vertex 16.525 -16.5 0.134165
      vertex 17.9925 16.5 8.01
      vertex 16.525 16.5 0.134165
    endloop
  endfacet
  facet normal -0.983079 0 0.183182
    outer loop
      vertex 17.9925 16.5 8.01
      vertex 16.525 -16.5 0.134165
      vertex 17.9925 -16.5 8.01
    endloop
  endfacet
  facet normal -0.577949 -0.795471 0.182212
    outer loop
      vertex 17.2463 17.7926 8.01
      vertex 16.5225 16.525 0.180536
      vertex 17.4987 17.6092 8.01
    endloop
  endfacet
  facet normal -0.577854 -0.795539 0.182215
    outer loop
      vertex 16.5225 16.525 0.180536
      vertex 17.2463 17.7926 8.01
      vertex 16.5144 16.525 0.15492
    endloop
  endfacet
  facet normal 0.577949 0.795471 0.182212
    outer loop
      vertex -17.2463 -17.7926 8.01
      vertex -16.5225 -16.525 0.180536
      vertex -17.4987 -17.6092 8.01
    endloop
  endfacet
  facet normal 0.577854 0.795539 0.182215
    outer loop
      vertex -16.5225 -16.525 0.180536
      vertex -17.2463 -17.7926 8.01
      vertex -16.5144 -16.525 0.15492
    endloop
  endfacet
  facet normal 0.977873 0.102779 0.182212
    outer loop
      vertex -17.9925 -16.5 8.01
      vertex -16.525 -16.5053 0.137162
      vertex -16.525 -16.5 0.134165
    endloop
  endfacet
  facet normal 0.977873 0.102778 0.182212
    outer loop
      vertex -16.525 -16.5053 0.137162
      vertex -17.9925 -16.5 8.01
      vertex -17.9599 -16.8103 8.01
    endloop
  endfacet
  facet normal 0 -0.983259 0.182212
    outer loop
      vertex -16.5026 16.525 0.134904
      vertex 16.656 17.9844 8.01
      vertex -16.656 17.9844 8.01
    endloop
  endfacet
  facet normal 0 -0.983259 0.182212
    outer loop
      vertex 16.656 17.9844 8.01
      vertex -16.5026 16.525 0.134904
      vertex 16.5026 16.525 0.134904
    endloop
  endfacet
  facet normal -0.977873 0.102779 0.182212
    outer loop
      vertex 16.525 -16.5053 0.137162
      vertex 17.9925 -16.5 8.01
      vertex 16.525 -16.5 0.134165
    endloop
  endfacet
  facet normal -0.977873 0.102778 0.182212
    outer loop
      vertex 17.9925 -16.5 8.01
      vertex 16.525 -16.5053 0.137162
      vertex 17.9599 -16.8103 8.01
    endloop
  endfacet
  facet normal -0.977873 -0.102779 0.182212
    outer loop
      vertex 17.9925 16.5 8.01
      vertex 16.525 16.5053 0.137162
      vertex 16.525 16.5 0.134165
    endloop
  endfacet
  facet normal -0.977873 -0.102778 0.182212
    outer loop
      vertex 16.525 16.5053 0.137162
      vertex 17.9925 16.5 8.01
      vertex 17.9599 16.8103 8.01
    endloop
  endfacet
  facet normal -0.399928 -0.898252 0.182212
    outer loop
      vertex 16.9612 17.9195 8.01
      vertex 16.5144 16.525 0.15492
      vertex 17.2463 17.7926 8.01
    endloop
  endfacet
  facet normal -0.399997 -0.898221 0.182211
    outer loop
      vertex 16.5144 16.525 0.15492
      vertex 16.9612 17.9195 8.01
      vertex 16.5081 16.525 0.141069
    endloop
  endfacet
  facet normal 0.399928 0.898252 0.182212
    outer loop
      vertex -16.9612 -17.9195 8.01
      vertex -16.5144 -16.525 0.15492
      vertex -17.2463 -17.7926 8.01
    endloop
  endfacet
  facet normal 0.399997 0.898221 0.182211
    outer loop
      vertex -16.5144 -16.525 0.15492
      vertex -16.9612 -17.9195 8.01
      vertex -16.5081 -16.525 0.141069
    endloop
  endfacet
  facet normal 0.730673 0.657963 0.182211
    outer loop
      vertex -17.7075 -17.3773 8.01
      vertex -16.525 -16.525 0.190521
      vertex -16.525 -16.5182 0.165837
    endloop
  endfacet
  facet normal 0.730704 0.657929 0.182212
    outer loop
      vertex -17.4987 -17.6092 8.01
      vertex -16.525 -16.525 0.190521
      vertex -17.7075 -17.3773 8.01
    endloop
  endfacet
  facet normal 0.730905 0.657707 0.182207
    outer loop
      vertex -16.525 -16.525 0.190521
      vertex -17.4987 -17.6092 8.01
      vertex -16.5225 -16.525 0.180536
    endloop
  endfacet
  facet normal 0.935146 0.30381 0.182213
    outer loop
      vertex -17.9599 -16.8103 8.01
      vertex -16.525 -16.5111 0.146862
      vertex -16.525 -16.5053 0.137162
    endloop
  endfacet
  facet normal 0.935134 0.303846 0.182212
    outer loop
      vertex -16.525 -16.5111 0.146862
      vertex -17.9599 -16.8103 8.01
      vertex -17.8635 -17.1071 8.01
    endloop
  endfacet
  facet normal 0.730673 -0.657963 0.182211
    outer loop
      vertex -17.7075 17.3773 8.01
      vertex -16.525 16.5182 0.165837
      vertex -16.525 16.525 0.190521
    endloop
  endfacet
  facet normal 0.730704 -0.657929 0.182212
    outer loop
      vertex -16.525 16.525 0.190521
      vertex -17.4987 17.6092 8.01
      vertex -17.7075 17.3773 8.01
    endloop
  endfacet
  facet normal 0.730905 -0.657707 0.182207
    outer loop
      vertex -17.4987 17.6092 8.01
      vertex -16.525 16.525 0.190521
      vertex -16.5225 16.525 0.180536
    endloop
  endfacet
  facet normal -0.935146 0.30381 0.182213
    outer loop
      vertex 16.525 -16.5111 0.146862
      vertex 17.9599 -16.8103 8.01
      vertex 16.525 -16.5053 0.137162
    endloop
  endfacet
  facet normal -0.935134 0.303846 0.182212
    outer loop
      vertex 17.9599 -16.8103 8.01
      vertex 16.525 -16.5111 0.146862
      vertex 17.8635 -17.1071 8.01
    endloop
  endfacet
  facet normal -0.851528 -0.491629 0.182212
    outer loop
      vertex 16.525 16.5182 0.165837
      vertex 17.8635 17.1071 8.01
      vertex 17.7075 17.3773 8.01
    endloop
  endfacet
  facet normal -0.851515 -0.491652 0.182212
    outer loop
      vertex 17.8635 17.1071 8.01
      vertex 16.525 16.5182 0.165837
      vertex 16.525 16.5111 0.146862
    endloop
  endfacet
  facet normal -0.577949 0.795471 0.182212
    outer loop
      vertex 16.5225 -16.525 0.180536
      vertex 17.2463 -17.7926 8.01
      vertex 17.4987 -17.6092 8.01
    endloop
  endfacet
  facet normal -0.577854 0.795539 0.182215
    outer loop
      vertex 17.2463 -17.7926 8.01
      vertex 16.5225 -16.525 0.180536
      vertex 16.5144 -16.525 0.15492
    endloop
  endfacet
  facet normal 0.399928 -0.898252 0.182212
    outer loop
      vertex -16.5144 16.525 0.15492
      vertex -16.9612 17.9195 8.01
      vertex -17.2463 17.7926 8.01
    endloop
  endfacet
  facet normal 0.399997 -0.898221 0.182211
    outer loop
      vertex -16.9612 17.9195 8.01
      vertex -16.5144 16.525 0.15492
      vertex -16.5081 16.525 0.141069
    endloop
  endfacet
  facet normal -0.851515 0.491652 0.182212
    outer loop
      vertex 16.525 -16.5182 0.165837
      vertex 17.8635 -17.1071 8.01
      vertex 16.525 -16.5111 0.146862
    endloop
  endfacet
  facet normal -0.851528 0.491629 0.182212
    outer loop
      vertex 17.8635 -17.1071 8.01
      vertex 16.525 -16.5182 0.165837
      vertex 17.7075 -17.3773 8.01
    endloop
  endfacet
  facet normal -0.730905 -0.657707 0.182207
    outer loop
      vertex 16.525 16.525 0.190521
      vertex 17.4987 17.6092 8.01
      vertex 16.5225 16.525 0.180536
    endloop
  endfacet
  facet normal -0.730704 -0.657929 0.182212
    outer loop
      vertex 17.4987 17.6092 8.01
      vertex 16.525 16.525 0.190521
      vertex 17.7075 17.3773 8.01
    endloop
  endfacet
  facet normal -0.730673 -0.657963 0.182211
    outer loop
      vertex 17.7075 17.3773 8.01
      vertex 16.525 16.525 0.190521
      vertex 16.525 16.5182 0.165837
    endloop
  endfacet
  facet normal -0.204427 0.961773 0.182212
    outer loop
      vertex 16.5081 -16.525 0.141069
      vertex 16.656 -17.9844 8.01
      vertex 16.9612 -17.9195 8.01
    endloop
  endfacet
  facet normal -0.204439 0.961771 0.182212
    outer loop
      vertex 16.656 -17.9844 8.01
      vertex 16.5081 -16.525 0.141069
      vertex 16.5026 -16.525 0.134904
    endloop
  endfacet
  facet normal -0.730905 0.657707 0.182207
    outer loop
      vertex 17.4987 -17.6092 8.01
      vertex 16.525 -16.525 0.190521
      vertex 16.5225 -16.525 0.180536
    endloop
  endfacet
  facet normal -0.730704 0.657929 0.182212
    outer loop
      vertex 16.525 -16.525 0.190521
      vertex 17.4987 -17.6092 8.01
      vertex 17.7075 -17.3773 8.01
    endloop
  endfacet
  facet normal -0.730673 0.657963 0.182211
    outer loop
      vertex 16.525 -16.5182 0.165837
      vertex 16.525 -16.525 0.190521
      vertex 17.7075 -17.3773 8.01
    endloop
  endfacet
  facet normal 0.851528 -0.491629 0.182212
    outer loop
      vertex -17.8635 17.1071 8.01
      vertex -16.525 16.5182 0.165837
      vertex -17.7075 17.3773 8.01
    endloop
  endfacet
  facet normal 0.851515 -0.491652 0.182212
    outer loop
      vertex -16.525 16.5182 0.165837
      vertex -17.8635 17.1071 8.01
      vertex -16.525 16.5111 0.146862
    endloop
  endfacet
  facet normal 0.577949 -0.795471 0.182212
    outer loop
      vertex -16.5225 16.525 0.180536
      vertex -17.2463 17.7926 8.01
      vertex -17.4987 17.6092 8.01
    endloop
  endfacet
  facet normal 0.577854 -0.795539 0.182215
    outer loop
      vertex -17.2463 17.7926 8.01
      vertex -16.5225 16.525 0.180536
      vertex -16.5144 16.525 0.15492
    endloop
  endfacet
  facet normal 0.204427 -0.961773 0.182212
    outer loop
      vertex -16.5081 16.525 0.141069
      vertex -16.656 17.9844 8.01
      vertex -16.9612 17.9195 8.01
    endloop
  endfacet
  facet normal 0.204439 -0.961771 0.182212
    outer loop
      vertex -16.656 17.9844 8.01
      vertex -16.5081 16.525 0.141069
      vertex -16.5026 16.525 0.134904
    endloop
  endfacet
  facet normal 0.935134 -0.303846 0.182212
    outer loop
      vertex -17.9599 16.8103 8.01
      vertex -16.525 16.5111 0.146862
      vertex -17.8635 17.1071 8.01
    endloop
  endfacet
  facet normal 0.935146 -0.30381 0.182213
    outer loop
      vertex -16.525 16.5111 0.146862
      vertex -17.9599 16.8103 8.01
      vertex -16.525 16.5053 0.137162
    endloop
  endfacet
  facet normal 0.977873 -0.102778 0.182212
    outer loop
      vertex -17.9925 16.5 8.01
      vertex -16.525 16.5053 0.137162
      vertex -17.9599 16.8103 8.01
    endloop
  endfacet
  facet normal 0.977873 -0.102779 0.182212
    outer loop
      vertex -16.525 16.5053 0.137162
      vertex -17.9925 16.5 8.01
      vertex -16.525 16.5 0.134165
    endloop
  endfacet
  facet normal -0.147418 -0.693552 0.705162
    outer loop
      vertex 2.54059 8.54206 4.95
      vertex 2.14183 8.62682 4.95
      vertex 1.938 6.6875 3
    endloop
  endfacet
  facet normal -0.707107 0 0.707107
    outer loop
      vertex 1.938 -6.97849 3
      vertex 3.888 6.6875 4.95
      vertex 1.938 6.6875 3
    endloop
  endfacet
  facet normal -0.707107 0 0.707107
    outer loop
      vertex 3.888 6.6875 4.95
      vertex 1.938 -6.97849 3
      vertex 3.888 -6.97849 4.95
    endloop
  endfacet
  facet normal 0.526924 0.474445 0.705162
    outer loop
      vertex -5.47779 3.29437 4.95
      vertex -4.17299 4.7435 3
      vertex -5.75057 3.59732 4.95
    endloop
  endfacet
  facet normal 0.705162 0.0741162 0.705162
    outer loop
      vertex -6.08038 4.33807 4.95
      vertex -4.17299 4.7435 3
      vertex -6.12299 4.7435 4.95
    endloop
  endfacet
  facet normal 0.705162 -0.0741162 0.705162
    outer loop
      vertex -4.17299 6.6875 3
      vertex -6.08038 7.09293 4.95
      vertex -6.12299 6.6875 4.95
    endloop
  endfacet
  facet normal 0.707107 -0 0.707107
    outer loop
      vertex -6.12299 4.7435 4.95
      vertex -4.17299 6.6875 3
      vertex -6.12299 6.6875 4.95
    endloop
  endfacet
  facet normal 0.707107 0 0.707107
    outer loop
      vertex -4.17299 6.6875 3
      vertex -6.12299 4.7435 4.95
      vertex -4.17299 4.7435 3
    endloop
  endfacet
  facet normal 0 0 1
    outer loop
      vertex 1.938 6.6875 3
      vertex -0.533981 4.7435 3
      vertex 1.938 -6.97849 3
    endloop
  endfacet
  facet normal -0 0 1
    outer loop
      vertex -4.17299 6.6875 3
      vertex -0.533981 4.7435 3
      vertex 1.938 6.6875 3
    endloop
  endfacet
  facet normal 0 0 1
    outer loop
      vertex -0.533981 4.7435 3
      vertex -4.17299 6.6875 3
      vertex -4.17299 4.7435 3
    endloop
  endfacet
  facet normal 0 0 1
    outer loop
      vertex 1.938 -6.97849 3
      vertex -0.533981 4.7435 3
      vertex -0.533981 -6.97849 3
    endloop
  endfacet
  facet normal -0.614052 -0.354523 0.705162
    outer loop
      vertex 3.71942 7.48064 4.95
      vertex 3.51559 7.83368 4.95
      vertex 1.938 6.6875 3
    endloop
  endfacet
  facet normal 0.147418 -0.693552 0.705162
    outer loop
      vertex -4.17299 6.6875 3
      vertex -4.37682 8.62682 4.95
      vertex -4.77557 8.54206 4.95
    endloop
  endfacet
  facet normal 0.416767 0.57363 0.705162
    outer loop
      vertex -5.14799 3.05475 4.95
      vertex -4.17299 4.7435 3
      vertex -5.47779 3.29437 4.95
    endloop
  endfacet
  facet normal 0.614053 -0.354522 0.705162
    outer loop
      vertex -4.17299 6.6875 3
      vertex -5.75057 7.83368 4.95
      vertex -5.9544 7.48064 4.95
    endloop
  endfacet
  facet normal -0.416767 -0.573631 0.705162
    outer loop
      vertex 3.24281 8.13663 4.95
      vertex 2.913 8.37625 4.95
      vertex 1.938 6.6875 3
    endloop
  endfacet
  facet normal -0.705162 -0.0741158 0.705162
    outer loop
      vertex 3.888 6.6875 4.95
      vertex 3.84539 7.09293 4.95
      vertex 1.938 6.6875 3
    endloop
  endfacet
  facet normal 0 -0.709046 0.705162
    outer loop
      vertex -4.17299 6.6875 3
      vertex 2.14183 8.62682 4.95
      vertex -4.37682 8.62682 4.95
    endloop
  endfacet
  facet normal 0 -0.709046 0.705162
    outer loop
      vertex 2.14183 8.62682 4.95
      vertex -4.17299 6.6875 3
      vertex 1.938 6.6875 3
    endloop
  endfacet
  facet normal 0.526924 -0.474445 0.705162
    outer loop
      vertex -4.17299 6.6875 3
      vertex -5.47779 8.13663 4.95
      vertex -5.75057 7.83368 4.95
    endloop
  endfacet
  facet normal 0.288396 0.647746 0.705162
    outer loop
      vertex -4.77557 2.88894 4.95
      vertex -4.17299 4.7435 3
      vertex -5.14799 3.05475 4.95
    endloop
  endfacet
  facet normal -0 0.709046 0.705162
    outer loop
      vertex -4.17299 4.7435 3
      vertex -2.48398 2.80418 4.95
      vertex -0.533981 4.7435 3
    endloop
  endfacet
  facet normal 0 0.709046 0.705162
    outer loop
      vertex -2.48398 2.80418 4.95
      vertex -4.17299 4.7435 3
      vertex -4.37682 2.80418 4.95
    endloop
  endfacet
  facet normal 0.674343 0.219108 0.705162
    outer loop
      vertex -5.9544 3.95036 4.95
      vertex -4.17299 4.7435 3
      vertex -6.08038 4.33807 4.95
    endloop
  endfacet
  facet normal 0.614053 0.354523 0.705162
    outer loop
      vertex -5.75057 3.59732 4.95
      vertex -4.17299 4.7435 3
      vertex -5.9544 3.95036 4.95
    endloop
  endfacet
  facet normal -0.288396 -0.647746 0.705162
    outer loop
      vertex 2.913 8.37625 4.95
      vertex 2.54059 8.54206 4.95
      vertex 1.938 6.6875 3
    endloop
  endfacet
  facet normal -0.526924 -0.474445 0.705162
    outer loop
      vertex 3.51559 7.83368 4.95
      vertex 3.24281 8.13663 4.95
      vertex 1.938 6.6875 3
    endloop
  endfacet
  facet normal -0.674343 -0.219108 0.705162
    outer loop
      vertex 3.84539 7.09293 4.95
      vertex 3.71942 7.48064 4.95
      vertex 1.938 6.6875 3
    endloop
  endfacet
  facet normal 0.288396 -0.647746 0.705162
    outer loop
      vertex -4.17299 6.6875 3
      vertex -4.77557 8.54206 4.95
      vertex -5.14799 8.37625 4.95
    endloop
  endfacet
  facet normal 0.674343 -0.219108 0.705162
    outer loop
      vertex -4.17299 6.6875 3
      vertex -5.9544 7.48064 4.95
      vertex -6.08038 7.09293 4.95
    endloop
  endfacet
  facet normal 0.147419 0.693552 0.705162
    outer loop
      vertex -4.37682 2.80418 4.95
      vertex -4.17299 4.7435 3
      vertex -4.77557 2.88894 4.95
    endloop
  endfacet
  facet normal 0.416767 -0.573631 0.705162
    outer loop
      vertex -4.17299 6.6875 3
      vertex -5.14799 8.37625 4.95
      vertex -5.47779 8.13663 4.95
    endloop
  endfacet
  facet normal 0.707107 0 0.707107
    outer loop
      vertex -0.533981 -6.97849 3
      vertex -2.48398 2.80418 4.95
      vertex -2.48398 -6.97849 4.95
    endloop
  endfacet
  facet normal 0.707107 0 0.707107
    outer loop
      vertex -2.48398 2.80418 4.95
      vertex -0.533981 -6.97849 3
      vertex -0.533981 4.7435 3
    endloop
  endfacet
  facet normal 0.705162 0.0741158 0.705162
    outer loop
      vertex -2.44137 -7.38391 4.95
      vertex -0.533981 -6.97849 3
      vertex -2.48398 -6.97849 4.95
    endloop
  endfacet
  facet normal 0 0.709046 0.705162
    outer loop
      vertex 1.938 -6.97849 3
      vertex -0.737812 -8.9178 4.95
      vertex 2.14183 -8.9178 4.95
    endloop
  endfacet
  facet normal 0 0.709046 0.705162
    outer loop
      vertex -0.737812 -8.9178 4.95
      vertex 1.938 -6.97849 3
      vertex -0.533981 -6.97849 3
    endloop
  endfacet
  facet normal 0.147418 0.693552 0.705162
    outer loop
      vertex -0.737812 -8.9178 4.95
      vertex -0.533981 -6.97849 3
      vertex -1.13656 -8.83305 4.95
    endloop
  endfacet
  facet normal 0.288396 0.647746 0.705162
    outer loop
      vertex -1.13656 -8.83305 4.95
      vertex -0.533981 -6.97849 3
      vertex -1.50898 -8.66723 4.95
    endloop
  endfacet
  facet normal -0.614052 0.354523 0.705162
    outer loop
      vertex 3.51559 -8.12467 4.95
      vertex 3.71942 -7.77162 4.95
      vertex 1.938 -6.97849 3
    endloop
  endfacet
  facet normal 0.614052 0.354523 0.705162
    outer loop
      vertex -2.11156 -8.12467 4.95
      vertex -0.533981 -6.97849 3
      vertex -2.31539 -7.77162 4.95
    endloop
  endfacet
  facet normal 0.416767 0.573631 0.705162
    outer loop
      vertex -1.50898 -8.66723 4.95
      vertex -0.533981 -6.97849 3
      vertex -1.83879 -8.42762 4.95
    endloop
  endfacet
  facet normal -0.705162 0.0741158 0.705162
    outer loop
      vertex 3.84539 -7.38391 4.95
      vertex 3.888 -6.97849 4.95
      vertex 1.938 -6.97849 3
    endloop
  endfacet
  facet normal -0.416766 0.573631 0.705162
    outer loop
      vertex 2.913 -8.66723 4.95
      vertex 3.24281 -8.42762 4.95
      vertex 1.938 -6.97849 3
    endloop
  endfacet
  facet normal -0.674343 0.219108 0.705162
    outer loop
      vertex 3.71942 -7.77162 4.95
      vertex 3.84539 -7.38391 4.95
      vertex 1.938 -6.97849 3
    endloop
  endfacet
  facet normal -0.526924 0.474445 0.705162
    outer loop
      vertex 3.24281 -8.42762 4.95
      vertex 3.51559 -8.12467 4.95
      vertex 1.938 -6.97849 3
    endloop
  endfacet
  facet normal -0.147418 0.693552 0.705162
    outer loop
      vertex 2.14183 -8.9178 4.95
      vertex 2.54059 -8.83305 4.95
      vertex 1.938 -6.97849 3
    endloop
  endfacet
  facet normal 0.674343 0.219108 0.705162
    outer loop
      vertex -2.31539 -7.77162 4.95
      vertex -0.533981 -6.97849 3
      vertex -2.44137 -7.38391 4.95
    endloop
  endfacet
  facet normal -0.288397 0.647745 0.705162
    outer loop
      vertex 2.54059 -8.83305 4.95
      vertex 2.913 -8.66723 4.95
      vertex 1.938 -6.97849 3
    endloop
  endfacet
  facet normal 0.526924 0.474445 0.705162
    outer loop
      vertex -1.83879 -8.42762 4.95
      vertex -0.533981 -6.97849 3
      vertex -2.11156 -8.12467 4.95
    endloop
  endfacet
  facet normal 1 0 0
    outer loop
      vertex 16.525 16.5 0.134165
      vertex 16.525 16.525 0.190521
      vertex 16.525 16.525 4.95
    endloop
  endfacet
  facet normal 1 0 0
    outer loop
      vertex 16.525 16.525 0.190521
      vertex 16.525 16.5 0.134165
      vertex 16.525 16.5182 0.165837
    endloop
  endfacet
  facet normal 1 0 0
    outer loop
      vertex 16.525 16.5182 0.165837
      vertex 16.525 16.5 0.134165
      vertex 16.525 16.5111 0.146862
    endloop
  endfacet
  facet normal 1 0 0
    outer loop
      vertex 16.525 16.5111 0.146862
      vertex 16.525 16.5 0.134165
      vertex 16.525 16.5053 0.137162
    endloop
  endfacet
  facet normal 1 0 0
    outer loop
      vertex 16.525 16.525 4.95
      vertex 16.525 -16.5 0.134165
      vertex 16.525 16.5 0.134165
    endloop
  endfacet
  facet normal 1 -0 0
    outer loop
      vertex 16.525 -16.525 4.95
      vertex 16.525 -16.5 0.134165
      vertex 16.525 16.525 4.95
    endloop
  endfacet
  facet normal 1 -0 0
    outer loop
      vertex 16.525 -16.525 0.190521
      vertex 16.525 -16.5 0.134165
      vertex 16.525 -16.525 4.95
    endloop
  endfacet
  facet normal 1 -0 -0
    outer loop
      vertex 16.525 -16.5182 0.165837
      vertex 16.525 -16.5 0.134165
      vertex 16.525 -16.525 0.190521
    endloop
  endfacet
  facet normal 1 -0 -0
    outer loop
      vertex 16.525 -16.5111 0.146862
      vertex 16.525 -16.5 0.134165
      vertex 16.525 -16.5182 0.165837
    endloop
  endfacet
  facet normal 1 0 0
    outer loop
      vertex 16.525 -16.5 0.134165
      vertex 16.525 -16.5111 0.146862
      vertex 16.525 -16.5053 0.137162
    endloop
  endfacet
  facet normal -1 0 0
    outer loop
      vertex -16.525 16.5 0.134165
      vertex -16.525 16.525 0.190521
      vertex -16.525 16.5182 0.165837
    endloop
  endfacet
  facet normal -1 0 0
    outer loop
      vertex -16.525 16.5 0.134165
      vertex -16.525 16.5182 0.165837
      vertex -16.525 16.5111 0.146862
    endloop
  endfacet
  facet normal -1 0 0
    outer loop
      vertex -16.525 16.5 0.134165
      vertex -16.525 16.5111 0.146862
      vertex -16.525 16.5053 0.137162
    endloop
  endfacet
  facet normal -1 -0 0
    outer loop
      vertex -16.525 16.525 0.190521
      vertex -16.525 16.5 0.134165
      vertex -16.525 16.525 4.95
    endloop
  endfacet
  facet normal -1 0 0
    outer loop
      vertex -16.525 -16.5 0.134165
      vertex -16.525 16.525 4.95
      vertex -16.525 16.5 0.134165
    endloop
  endfacet
  facet normal -1 0 0
    outer loop
      vertex -16.525 -16.5111 0.146862
      vertex -16.525 -16.5 0.134165
      vertex -16.525 -16.5053 0.137162
    endloop
  endfacet
  facet normal -1 0 0
    outer loop
      vertex -16.525 -16.5 0.134165
      vertex -16.525 -16.5111 0.146862
      vertex -16.525 -16.5182 0.165837
    endloop
  endfacet
  facet normal -1 0 0
    outer loop
      vertex -16.525 -16.5 0.134165
      vertex -16.525 -16.5182 0.165837
      vertex -16.525 -16.525 0.190521
    endloop
  endfacet
  facet normal -1 0 0
    outer loop
      vertex -16.525 -16.5 0.134165
      vertex -16.525 -16.525 0.190521
      vertex -16.525 -16.525 4.95
    endloop
  endfacet
  facet normal -1 0 0
    outer loop
      vertex -16.525 -16.5 0.134165
      vertex -16.525 -16.525 4.95
      vertex -16.525 16.525 4.95
    endloop
  endfacet
  facet normal 0 -1 0
    outer loop
      vertex -16.5026 -16.525 0.134904
      vertex -16.525 -16.525 4.95
      vertex -16.525 -16.525 0.190521
    endloop
  endfacet
  facet normal 0 -1 0
    outer loop
      vertex -16.525 -16.525 4.95
      vertex -16.5026 -16.525 0.134904
      vertex 16.525 -16.525 4.95
    endloop
  endfacet
  facet normal 0 -1 0
    outer loop
      vertex -16.5026 -16.525 0.134904
      vertex -16.525 -16.525 0.190521
      vertex -16.5225 -16.525 0.180536
    endloop
  endfacet
  facet normal 0 -1 0
    outer loop
      vertex 16.5026 -16.525 0.134904
      vertex 16.525 -16.525 4.95
      vertex -16.5026 -16.525 0.134904
    endloop
  endfacet
  facet normal 0 -1 0
    outer loop
      vertex -16.5026 -16.525 0.134904
      vertex -16.5225 -16.525 0.180536
      vertex -16.5144 -16.525 0.15492
    endloop
  endfacet
  facet normal 0 -1 -0
    outer loop
      vertex 16.525 -16.525 4.95
      vertex 16.5026 -16.525 0.134904
      vertex 16.525 -16.525 0.190521
    endloop
  endfacet
  facet normal 0 -1 0
    outer loop
      vertex -16.5026 -16.525 0.134904
      vertex -16.5144 -16.525 0.15492
      vertex -16.5081 -16.525 0.141069
    endloop
  endfacet
  facet normal 0 -1 0
    outer loop
      vertex 16.525 -16.525 0.190521
      vertex 16.5026 -16.525 0.134904
      vertex 16.5225 -16.525 0.180536
    endloop
  endfacet
  facet normal 0 -1 0
    outer loop
      vertex 16.5225 -16.525 0.180536
      vertex 16.5026 -16.525 0.134904
      vertex 16.5144 -16.525 0.15492
    endloop
  endfacet
  facet normal 0 -1 0
    outer loop
      vertex 16.5144 -16.525 0.15492
      vertex 16.5026 -16.525 0.134904
      vertex 16.5081 -16.525 0.141069
    endloop
  endfacet
  facet normal 0 1 0
    outer loop
      vertex 16.5026 16.525 0.134904
      vertex 16.525 16.525 4.95
      vertex 16.525 16.525 0.190521
    endloop
  endfacet
  facet normal 0 1 0
    outer loop
      vertex 16.525 16.525 4.95
      vertex 16.5026 16.525 0.134904
      vertex -16.525 16.525 4.95
    endloop
  endfacet
  facet normal 0 1 0
    outer loop
      vertex 16.5026 16.525 0.134904
      vertex 16.525 16.525 0.190521
      vertex 16.5225 16.525 0.180536
    endloop
  endfacet
  facet normal 0 1 -0
    outer loop
      vertex -16.5026 16.525 0.134904
      vertex -16.525 16.525 4.95
      vertex 16.5026 16.525 0.134904
    endloop
  endfacet
  facet normal 0 1 0
    outer loop
      vertex 16.5026 16.525 0.134904
      vertex 16.5225 16.525 0.180536
      vertex 16.5144 16.525 0.15492
    endloop
  endfacet
  facet normal 0 1 0
    outer loop
      vertex -16.525 16.525 4.95
      vertex -16.5026 16.525 0.134904
      vertex -16.525 16.525 0.190521
    endloop
  endfacet
  facet normal 0 1 0
    outer loop
      vertex 16.5026 16.525 0.134904
      vertex 16.5144 16.525 0.15492
      vertex 16.5081 16.525 0.141069
    endloop
  endfacet
  facet normal 0 1 0
    outer loop
      vertex -16.525 16.525 0.190521
      vertex -16.5026 16.525 0.134904
      vertex -16.5225 16.525 0.180536
    endloop
  endfacet
  facet normal 0 1 0
    outer loop
      vertex -16.5225 16.525 0.180536
      vertex -16.5026 16.525 0.134904
      vertex -16.5144 16.525 0.15492
    endloop
  endfacet
  facet normal 0 1 0
    outer loop
      vertex -16.5144 16.525 0.15492
      vertex -16.5026 16.525 0.134904
      vertex -16.5081 16.525 0.141069
    endloop
  endfacet
  facet normal 0 0 1
    outer loop
      vertex -2.48398 2.80418 4.95
      vertex -4.37682 2.80418 4.95
      vertex -2.48398 -6.97849 4.95
    endloop
  endfacet
  facet normal 0 0 1
    outer loop
      vertex 16.525 16.525 4.95
      vertex 3.888 6.6875 4.95
      vertex 16.525 -16.525 4.95
    endloop
  endfacet
  facet normal 0 0 1
    outer loop
      vertex 16.525 16.525 4.95
      vertex 3.84539 7.09293 4.95
      vertex 3.888 6.6875 4.95
    endloop
  endfacet
  facet normal 0 0 1
    outer loop
      vertex 16.525 16.525 4.95
      vertex 3.71942 7.48064 4.95
      vertex 3.84539 7.09293 4.95
    endloop
  endfacet
  facet normal 0 0 1
    outer loop
      vertex 16.525 16.525 4.95
      vertex 3.51559 7.83368 4.95
      vertex 3.71942 7.48064 4.95
    endloop
  endfacet
  facet normal 0 0 1
    outer loop
      vertex 16.525 16.525 4.95
      vertex 3.24281 8.13663 4.95
      vertex 3.51559 7.83368 4.95
    endloop
  endfacet
  facet normal 0 0 1
    outer loop
      vertex 16.525 16.525 4.95
      vertex 2.913 8.37625 4.95
      vertex 3.24281 8.13663 4.95
    endloop
  endfacet
  facet normal 0 0 1
    outer loop
      vertex 16.525 16.525 4.95
      vertex 2.54059 8.54206 4.95
      vertex 2.913 8.37625 4.95
    endloop
  endfacet
  facet normal 0 0 1
    outer loop
      vertex 16.525 16.525 4.95
      vertex 2.14183 8.62682 4.95
      vertex 2.54059 8.54206 4.95
    endloop
  endfacet
  facet normal -0 0 1
    outer loop
      vertex -16.525 16.525 4.95
      vertex 2.14183 8.62682 4.95
      vertex 16.525 16.525 4.95
    endloop
  endfacet
  facet normal 0 0 1
    outer loop
      vertex 2.14183 8.62682 4.95
      vertex -16.525 16.525 4.95
      vertex -4.37682 8.62682 4.95
    endloop
  endfacet
  facet normal 0 0 1
    outer loop
      vertex -6.12299 6.6875 4.95
      vertex -16.525 16.525 4.95
      vertex -6.12299 4.7435 4.95
    endloop
  endfacet
  facet normal 0 0 1
    outer loop
      vertex -6.08038 7.09293 4.95
      vertex -16.525 16.525 4.95
      vertex -6.12299 6.6875 4.95
    endloop
  endfacet
  facet normal 0 0 1
    outer loop
      vertex -5.9544 7.48064 4.95
      vertex -16.525 16.525 4.95
      vertex -6.08038 7.09293 4.95
    endloop
  endfacet
  facet normal 0 0 1
    outer loop
      vertex -5.75057 7.83368 4.95
      vertex -16.525 16.525 4.95
      vertex -5.9544 7.48064 4.95
    endloop
  endfacet
  facet normal 0 0 1
    outer loop
      vertex -5.47779 8.13663 4.95
      vertex -16.525 16.525 4.95
      vertex -5.75057 7.83368 4.95
    endloop
  endfacet
  facet normal 0 0 1
    outer loop
      vertex -5.14799 8.37625 4.95
      vertex -16.525 16.525 4.95
      vertex -5.47779 8.13663 4.95
    endloop
  endfacet
  facet normal 0 0 1
    outer loop
      vertex -4.77557 8.54206 4.95
      vertex -16.525 16.525 4.95
      vertex -5.14799 8.37625 4.95
    endloop
  endfacet
  facet normal 0 0 1
    outer loop
      vertex -4.37682 8.62682 4.95
      vertex -16.525 16.525 4.95
      vertex -4.77557 8.54206 4.95
    endloop
  endfacet
  facet normal -0 0 1
    outer loop
      vertex 3.888 -6.97849 4.95
      vertex 16.525 -16.525 4.95
      vertex 3.888 6.6875 4.95
    endloop
  endfacet
  facet normal -0 0 1
    outer loop
      vertex 3.84539 -7.38391 4.95
      vertex 16.525 -16.525 4.95
      vertex 3.888 -6.97849 4.95
    endloop
  endfacet
  facet normal -0 0 1
    outer loop
      vertex 3.71942 -7.77162 4.95
      vertex 16.525 -16.525 4.95
      vertex 3.84539 -7.38391 4.95
    endloop
  endfacet
  facet normal -0 0 1
    outer loop
      vertex 3.51559 -8.12467 4.95
      vertex 16.525 -16.525 4.95
      vertex 3.71942 -7.77162 4.95
    endloop
  endfacet
  facet normal -0 0 1
    outer loop
      vertex 3.24281 -8.42762 4.95
      vertex 16.525 -16.525 4.95
      vertex 3.51559 -8.12467 4.95
    endloop
  endfacet
  facet normal -0 0 1
    outer loop
      vertex 2.913 -8.66723 4.95
      vertex 16.525 -16.525 4.95
      vertex 3.24281 -8.42762 4.95
    endloop
  endfacet
  facet normal -0 0 1
    outer loop
      vertex 2.54059 -8.83305 4.95
      vertex 16.525 -16.525 4.95
      vertex 2.913 -8.66723 4.95
    endloop
  endfacet
  facet normal -0 0 1
    outer loop
      vertex 2.14183 -8.9178 4.95
      vertex 16.525 -16.525 4.95
      vertex 2.54059 -8.83305 4.95
    endloop
  endfacet
  facet normal -0 0 1
    outer loop
      vertex -0.737812 -8.9178 4.95
      vertex 16.525 -16.525 4.95
      vertex 2.14183 -8.9178 4.95
    endloop
  endfacet
  facet normal 0 0 1
    outer loop
      vertex -16.525 -16.525 4.95
      vertex -0.737812 -8.9178 4.95
      vertex -1.13656 -8.83305 4.95
    endloop
  endfacet
  facet normal 0 0 1
    outer loop
      vertex -4.77557 2.88894 4.95
      vertex -2.48398 -6.97849 4.95
      vertex -4.37682 2.80418 4.95
    endloop
  endfacet
  facet normal 0 0 1
    outer loop
      vertex -5.14799 3.05475 4.95
      vertex -2.48398 -6.97849 4.95
      vertex -4.77557 2.88894 4.95
    endloop
  endfacet
  facet normal 0 0 1
    outer loop
      vertex -5.47779 3.29437 4.95
      vertex -2.48398 -6.97849 4.95
      vertex -5.14799 3.05475 4.95
    endloop
  endfacet
  facet normal 0 0 1
    outer loop
      vertex -16.525 -16.525 4.95
      vertex -2.48398 -6.97849 4.95
      vertex -5.47779 3.29437 4.95
    endloop
  endfacet
  facet normal 0 0 1
    outer loop
      vertex -16.525 -16.525 4.95
      vertex -5.47779 3.29437 4.95
      vertex -5.75057 3.59732 4.95
    endloop
  endfacet
  facet normal 0 0 1
    outer loop
      vertex -16.525 -16.525 4.95
      vertex -5.75057 3.59732 4.95
      vertex -5.9544 3.95036 4.95
    endloop
  endfacet
  facet normal 0 0 1
    outer loop
      vertex -16.525 -16.525 4.95
      vertex -5.9544 3.95036 4.95
      vertex -6.08038 4.33807 4.95
    endloop
  endfacet
  facet normal 0 0 1
    outer loop
      vertex -16.525 16.525 4.95
      vertex -6.08038 4.33807 4.95
      vertex -6.12299 4.7435 4.95
    endloop
  endfacet
  facet normal 0 0 1
    outer loop
      vertex -16.525 -16.525 4.95
      vertex -6.08038 4.33807 4.95
      vertex -16.525 16.525 4.95
    endloop
  endfacet
  facet normal 0 0 1
    outer loop
      vertex -2.48398 -6.97849 4.95
      vertex -16.525 -16.525 4.95
      vertex -2.44137 -7.38391 4.95
    endloop
  endfacet
  facet normal 0 0 1
    outer loop
      vertex -2.44137 -7.38391 4.95
      vertex -16.525 -16.525 4.95
      vertex -2.31539 -7.77162 4.95
    endloop
  endfacet
  facet normal 0 0 1
    outer loop
      vertex -0.737812 -8.9178 4.95
      vertex -16.525 -16.525 4.95
      vertex 16.525 -16.525 4.95
    endloop
  endfacet
  facet normal 0 0 1
    outer loop
      vertex -1.50898 -8.66723 4.95
      vertex -16.525 -16.525 4.95
      vertex -1.13656 -8.83305 4.95
    endloop
  endfacet
  facet normal 0 0 1
    outer loop
      vertex -1.83879 -8.42762 4.95
      vertex -16.525 -16.525 4.95
      vertex -1.50898 -8.66723 4.95
    endloop
  endfacet
  facet normal 0 0 1
    outer loop
      vertex -2.11156 -8.12467 4.95
      vertex -16.525 -16.525 4.95
      vertex -1.83879 -8.42762 4.95
    endloop
  endfacet
  facet normal 0 0 1
    outer loop
      vertex -2.31539 -7.77162 4.95
      vertex -16.525 -16.525 4.95
      vertex -2.11156 -8.12467 4.95
    endloop
  endfacet
endsolid OpenSCAD_Model
