solid OpenSCAD_Model
  facet normal 0 -1 0
    outer loop
      vertex -16.8136 -19.4836 0
      vertex 16.8136 -19.4836 8.01
      vertex -16.8136 -19.4836 8.01
    endloop
  endfacet
  facet normal 0 -1 -0
    outer loop
      vertex 16.8136 -19.4836 8.01
      vertex -16.8136 -19.4836 0
      vertex 16.8136 -19.4836 0
    endloop
  endfacet
  facet normal 1 -0 0
    outer loop
      vertex 19.5 -16.5 8.01
      vertex 19.5 16.5 0
      vertex 19.5 16.5 8.01
    endloop
  endfacet
  facet normal 1 0 0
    outer loop
      vertex 19.5 16.5 0
      vertex 19.5 -16.5 8.01
      vertex 19.5 -16.5 0
    endloop
  endfacet
  facet normal -0.207914 -0.978147 0
    outer loop
      vertex -17.4271 -19.3532 0
      vertex -16.8136 -19.4836 8.01
      vertex -17.4271 -19.3532 8.01
    endloop
  endfacet
  facet normal -0.207914 -0.978147 -0
    outer loop
      vertex -16.8136 -19.4836 8.01
      vertex -17.4271 -19.3532 0
      vertex -16.8136 -19.4836 0
    endloop
  endfacet
  facet normal 0.207914 0.978147 -0
    outer loop
      vertex 17.4271 19.3532 0
      vertex 16.8136 19.4836 8.01
      vertex 17.4271 19.3532 8.01
    endloop
  endfacet
  facet normal 0.207914 0.978147 0
    outer loop
      vertex 16.8136 19.4836 8.01
      vertex 17.4271 19.3532 0
      vertex 16.8136 19.4836 0
    endloop
  endfacet
  facet normal 0.866027 0.499997 0
    outer loop
      vertex 19.2406 17.7202 8.01
      vertex 18.9271 18.2634 0
      vertex 18.9271 18.2634 8.01
    endloop
  endfacet
  facet normal 0.866027 0.499997 0
    outer loop
      vertex 18.9271 18.2634 0
      vertex 19.2406 17.7202 8.01
      vertex 19.2406 17.7202 0
    endloop
  endfacet
  facet normal 0.994522 0.104529 0
    outer loop
      vertex 19.5 16.5 8.01
      vertex 19.4344 17.1237 0
      vertex 19.4344 17.1237 8.01
    endloop
  endfacet
  facet normal 0.994522 0.104529 0
    outer loop
      vertex 19.4344 17.1237 0
      vertex 19.5 16.5 8.01
      vertex 19.5 16.5 0
    endloop
  endfacet
  facet normal -0.866027 0.499997 0
    outer loop
      vertex -19.2406 17.7202 0
      vertex -18.9271 18.2634 8.01
      vertex -18.9271 18.2634 0
    endloop
  endfacet
  facet normal -0.866027 0.499997 0
    outer loop
      vertex -18.9271 18.2634 8.01
      vertex -19.2406 17.7202 0
      vertex -19.2406 17.7202 8.01
    endloop
  endfacet
  facet normal 0.951056 -0.309018 0
    outer loop
      vertex 19.2406 -17.7202 8.01
      vertex 19.4344 -17.1237 0
      vertex 19.4344 -17.1237 8.01
    endloop
  endfacet
  facet normal 0.951056 -0.309018 0
    outer loop
      vertex 19.4344 -17.1237 0
      vertex 19.2406 -17.7202 8.01
      vertex 19.2406 -17.7202 0
    endloop
  endfacet
  facet normal 0.994522 -0.104529 0
    outer loop
      vertex 19.4344 -17.1237 8.01
      vertex 19.5 -16.5 0
      vertex 19.5 -16.5 8.01
    endloop
  endfacet
  facet normal 0.994522 -0.104529 0
    outer loop
      vertex 19.5 -16.5 0
      vertex 19.4344 -17.1237 8.01
      vertex 19.4344 -17.1237 0
    endloop
  endfacet
  facet normal 0.587785 -0.809017 0
    outer loop
      vertex 18 -19.0981 0
      vertex 18.5074 -18.7294 8.01
      vertex 18 -19.0981 8.01
    endloop
  endfacet
  facet normal 0.587785 -0.809017 0
    outer loop
      vertex 18.5074 -18.7294 8.01
      vertex 18 -19.0981 0
      vertex 18.5074 -18.7294 0
    endloop
  endfacet
  facet normal -0.406736 -0.913546 0
    outer loop
      vertex -18 -19.0981 0
      vertex -17.4271 -19.3532 8.01
      vertex -18 -19.0981 8.01
    endloop
  endfacet
  facet normal -0.406736 -0.913546 -0
    outer loop
      vertex -17.4271 -19.3532 8.01
      vertex -18 -19.0981 0
      vertex -17.4271 -19.3532 0
    endloop
  endfacet
  facet normal 0 1 -0
    outer loop
      vertex 16.8136 19.4836 0
      vertex -16.8136 19.4836 8.01
      vertex 16.8136 19.4836 8.01
    endloop
  endfacet
  facet normal 0 1 0
    outer loop
      vertex -16.8136 19.4836 8.01
      vertex 16.8136 19.4836 0
      vertex -16.8136 19.4836 0
    endloop
  endfacet
  facet normal 0.951056 0.309018 0
    outer loop
      vertex 19.4344 17.1237 8.01
      vertex 19.2406 17.7202 0
      vertex 19.2406 17.7202 8.01
    endloop
  endfacet
  facet normal 0.951056 0.309018 0
    outer loop
      vertex 19.2406 17.7202 0
      vertex 19.4344 17.1237 8.01
      vertex 19.4344 17.1237 0
    endloop
  endfacet
  facet normal 0.587785 0.809017 -0
    outer loop
      vertex 18.5074 18.7294 0
      vertex 18 19.0981 8.01
      vertex 18.5074 18.7294 8.01
    endloop
  endfacet
  facet normal 0.587785 0.809017 0
    outer loop
      vertex 18 19.0981 8.01
      vertex 18.5074 18.7294 0
      vertex 18 19.0981 0
    endloop
  endfacet
  facet normal 0.406736 0.913546 -0
    outer loop
      vertex 18 19.0981 0
      vertex 17.4271 19.3532 8.01
      vertex 18 19.0981 8.01
    endloop
  endfacet
  facet normal 0.406736 0.913546 0
    outer loop
      vertex 17.4271 19.3532 8.01
      vertex 18 19.0981 0
      vertex 17.4271 19.3532 0
    endloop
  endfacet
  facet normal 0.743144 0.669131 0
    outer loop
      vertex 18.9271 18.2634 8.01
      vertex 18.5074 18.7294 0
      vertex 18.5074 18.7294 8.01
    endloop
  endfacet
  facet normal 0.743144 0.669131 0
    outer loop
      vertex 18.5074 18.7294 0
      vertex 18.9271 18.2634 8.01
      vertex 18.9271 18.2634 0
    endloop
  endfacet
  facet normal -0.994522 -0.104529 0
    outer loop
      vertex -19.4344 -17.1237 0
      vertex -19.5 -16.5 8.01
      vertex -19.5 -16.5 0
    endloop
  endfacet
  facet normal -0.994522 -0.104529 0
    outer loop
      vertex -19.5 -16.5 8.01
      vertex -19.4344 -17.1237 0
      vertex -19.4344 -17.1237 8.01
    endloop
  endfacet
  facet normal -1 0 0
    outer loop
      vertex -19.5 -16.5 0
      vertex -19.5 16.5 8.01
      vertex -19.5 16.5 0
    endloop
  endfacet
  facet normal -1 -0 0
    outer loop
      vertex -19.5 16.5 8.01
      vertex -19.5 -16.5 0
      vertex -19.5 -16.5 8.01
    endloop
  endfacet
  facet normal 0.866027 -0.499997 0
    outer loop
      vertex 18.9271 -18.2634 8.01
      vertex 19.2406 -17.7202 0
      vertex 19.2406 -17.7202 8.01
    endloop
  endfacet
  facet normal 0.866027 -0.499997 0
    outer loop
      vertex 19.2406 -17.7202 0
      vertex 18.9271 -18.2634 8.01
      vertex 18.9271 -18.2634 0
    endloop
  endfacet
  facet normal 0.743144 -0.669131 0
    outer loop
      vertex 18.5074 -18.7294 8.01
      vertex 18.9271 -18.2634 0
      vertex 18.9271 -18.2634 8.01
    endloop
  endfacet
  facet normal 0.743144 -0.669131 0
    outer loop
      vertex 18.9271 -18.2634 0
      vertex 18.5074 -18.7294 8.01
      vertex 18.5074 -18.7294 0
    endloop
  endfacet
  facet normal -0.743144 0.669131 0
    outer loop
      vertex -18.9271 18.2634 0
      vertex -18.5074 18.7294 8.01
      vertex -18.5074 18.7294 0
    endloop
  endfacet
  facet normal -0.743144 0.669131 0
    outer loop
      vertex -18.5074 18.7294 8.01
      vertex -18.9271 18.2634 0
      vertex -18.9271 18.2634 8.01
    endloop
  endfacet
  facet normal -0.743144 -0.669131 0
    outer loop
      vertex -18.5074 -18.7294 0
      vertex -18.9271 -18.2634 8.01
      vertex -18.9271 -18.2634 0
    endloop
  endfacet
  facet normal -0.743144 -0.669131 0
    outer loop
      vertex -18.9271 -18.2634 8.01
      vertex -18.5074 -18.7294 0
      vertex -18.5074 -18.7294 8.01
    endloop
  endfacet
  facet normal -0.994522 0.104529 0
    outer loop
      vertex -19.5 16.5 0
      vertex -19.4344 17.1237 8.01
      vertex -19.4344 17.1237 0
    endloop
  endfacet
  facet normal -0.994522 0.104529 0
    outer loop
      vertex -19.4344 17.1237 8.01
      vertex -19.5 16.5 0
      vertex -19.5 16.5 8.01
    endloop
  endfacet
  facet normal 0 0 1
    outer loop
      vertex 16.2135 15.8817 8.01
      vertex 19.5 16.5 8.01
      vertex 19.4344 17.1237 8.01
    endloop
  endfacet
  facet normal 0 0 1
    outer loop
      vertex 19.5 16.5 8.01
      vertex 16.5 15 8.01
      vertex 19.5 -16.5 8.01
    endloop
  endfacet
  facet normal 0 0 1
    outer loop
      vertex 16.2135 15.8817 8.01
      vertex 19.4344 17.1237 8.01
      vertex 19.2406 17.7202 8.01
    endloop
  endfacet
  facet normal -0 0 1
    outer loop
      vertex 16.5 -15 8.01
      vertex 19.5 -16.5 8.01
      vertex 16.5 15 8.01
    endloop
  endfacet
  facet normal 0 0 1
    outer loop
      vertex 16.2135 15.8817 8.01
      vertex 19.2406 17.7202 8.01
      vertex 18.9271 18.2634 8.01
    endloop
  endfacet
  facet normal -0 0 1
    outer loop
      vertex 16.4672 -15.3119 8.01
      vertex 19.5 -16.5 8.01
      vertex 16.5 -15 8.01
    endloop
  endfacet
  facet normal 0 0 1
    outer loop
      vertex 16.0037 16.1147 8.01
      vertex 18.9271 18.2634 8.01
      vertex 18.5074 18.7294 8.01
    endloop
  endfacet
  facet normal -0 0 1
    outer loop
      vertex 16.3703 -15.6101 8.01
      vertex 19.5 -16.5 8.01
      vertex 16.4672 -15.3119 8.01
    endloop
  endfacet
  facet normal 0 0 1
    outer loop
      vertex 16.0037 16.1147 8.01
      vertex 18.5074 18.7294 8.01
      vertex 18 19.0981 8.01
    endloop
  endfacet
  facet normal -0 0 1
    outer loop
      vertex 16.2135 -15.8817 8.01
      vertex 19.5 -16.5 8.01
      vertex 16.3703 -15.6101 8.01
    endloop
  endfacet
  facet normal 0 0 1
    outer loop
      vertex 16.0037 16.1147 8.01
      vertex 18 19.0981 8.01
      vertex 17.4271 19.3532 8.01
    endloop
  endfacet
  facet normal 0 0 1
    outer loop
      vertex 19.5 -16.5 8.01
      vertex 16.2135 -15.8817 8.01
      vertex 19.4344 -17.1237 8.01
    endloop
  endfacet
  facet normal 0 0 1
    outer loop
      vertex 15.75 16.299 8.01
      vertex 17.4271 19.3532 8.01
      vertex 16.8136 19.4836 8.01
    endloop
  endfacet
  facet normal 0 0 1
    outer loop
      vertex 19.4344 -17.1237 8.01
      vertex 16.2135 -15.8817 8.01
      vertex 19.2406 -17.7202 8.01
    endloop
  endfacet
  facet normal 0 0 1
    outer loop
      vertex 19.2406 -17.7202 8.01
      vertex 16.2135 -15.8817 8.01
      vertex 18.9271 -18.2634 8.01
    endloop
  endfacet
  facet normal 0 0 1
    outer loop
      vertex 19.5 16.5 8.01
      vertex 16.4672 15.3119 8.01
      vertex 16.5 15 8.01
    endloop
  endfacet
  facet normal 0 0 1
    outer loop
      vertex 19.5 16.5 8.01
      vertex 16.3703 15.6101 8.01
      vertex 16.4672 15.3119 8.01
    endloop
  endfacet
  facet normal 0 0 1
    outer loop
      vertex 19.5 16.5 8.01
      vertex 16.2135 15.8817 8.01
      vertex 16.3703 15.6101 8.01
    endloop
  endfacet
  facet normal 0 0 1
    outer loop
      vertex 18.9271 18.2634 8.01
      vertex 16.0037 16.1147 8.01
      vertex 16.2135 15.8817 8.01
    endloop
  endfacet
  facet normal 0 0 1
    outer loop
      vertex 17.4271 19.3532 8.01
      vertex 15.75 16.299 8.01
      vertex 16.0037 16.1147 8.01
    endloop
  endfacet
  facet normal 0 0 1
    outer loop
      vertex 16.8136 19.4836 8.01
      vertex 15.4635 16.4266 8.01
      vertex 15.75 16.299 8.01
    endloop
  endfacet
  facet normal 0 0 1
    outer loop
      vertex 16.8136 19.4836 8.01
      vertex 15.1568 16.4918 8.01
      vertex 15.4635 16.4266 8.01
    endloop
  endfacet
  facet normal 0 0 1
    outer loop
      vertex 16.8136 19.4836 8.01
      vertex -15.1568 16.4918 8.01
      vertex 15.1568 16.4918 8.01
    endloop
  endfacet
  facet normal 0 0 1
    outer loop
      vertex -16.0037 16.1147 8.01
      vertex -18.9271 18.2634 8.01
      vertex -16.2135 15.8817 8.01
    endloop
  endfacet
  facet normal -0 0 1
    outer loop
      vertex -18.9271 18.2634 8.01
      vertex -16.0037 16.1147 8.01
      vertex -18.5074 18.7294 8.01
    endloop
  endfacet
  facet normal -0 0 1
    outer loop
      vertex -18.5074 18.7294 8.01
      vertex -16.0037 16.1147 8.01
      vertex -18 19.0981 8.01
    endloop
  endfacet
  facet normal -0 0 1
    outer loop
      vertex -18 19.0981 8.01
      vertex -16.0037 16.1147 8.01
      vertex -17.4271 19.3532 8.01
    endloop
  endfacet
  facet normal 0 0 1
    outer loop
      vertex -15.75 16.299 8.01
      vertex -17.4271 19.3532 8.01
      vertex -16.0037 16.1147 8.01
    endloop
  endfacet
  facet normal -0 0 1
    outer loop
      vertex -17.4271 19.3532 8.01
      vertex -15.75 16.299 8.01
      vertex -16.8136 19.4836 8.01
    endloop
  endfacet
  facet normal 0 0 1
    outer loop
      vertex -15.4635 16.4266 8.01
      vertex -16.8136 19.4836 8.01
      vertex -15.75 16.299 8.01
    endloop
  endfacet
  facet normal 0 0 1
    outer loop
      vertex -15.1568 16.4918 8.01
      vertex -16.8136 19.4836 8.01
      vertex -15.4635 16.4266 8.01
    endloop
  endfacet
  facet normal -0 0 1
    outer loop
      vertex -16.8136 19.4836 8.01
      vertex -15.1568 16.4918 8.01
      vertex 16.8136 19.4836 8.01
    endloop
  endfacet
  facet normal -0 0 1
    outer loop
      vertex 16.0037 -16.1147 8.01
      vertex 18.9271 -18.2634 8.01
      vertex 16.2135 -15.8817 8.01
    endloop
  endfacet
  facet normal 0 0 1
    outer loop
      vertex 18.9271 -18.2634 8.01
      vertex 16.0037 -16.1147 8.01
      vertex 18.5074 -18.7294 8.01
    endloop
  endfacet
  facet normal 0 0 1
    outer loop
      vertex 18.5074 -18.7294 8.01
      vertex 16.0037 -16.1147 8.01
      vertex 18 -19.0981 8.01
    endloop
  endfacet
  facet normal 0 0 1
    outer loop
      vertex 18 -19.0981 8.01
      vertex 16.0037 -16.1147 8.01
      vertex 17.4271 -19.3532 8.01
    endloop
  endfacet
  facet normal -0 0 1
    outer loop
      vertex 15.75 -16.299 8.01
      vertex 17.4271 -19.3532 8.01
      vertex 16.0037 -16.1147 8.01
    endloop
  endfacet
  facet normal 0 0 1
    outer loop
      vertex 17.4271 -19.3532 8.01
      vertex 15.75 -16.299 8.01
      vertex 16.8136 -19.4836 8.01
    endloop
  endfacet
  facet normal -0 0 1
    outer loop
      vertex 15.4635 -16.4266 8.01
      vertex 16.8136 -19.4836 8.01
      vertex 15.75 -16.299 8.01
    endloop
  endfacet
  facet normal -0 0 1
    outer loop
      vertex 15.1568 -16.4918 8.01
      vertex 16.8136 -19.4836 8.01
      vertex 15.4635 -16.4266 8.01
    endloop
  endfacet
  facet normal -0 0 1
    outer loop
      vertex -15.1568 -16.4918 8.01
      vertex 16.8136 -19.4836 8.01
      vertex 15.1568 -16.4918 8.01
    endloop
  endfacet
  facet normal 0 0 1
    outer loop
      vertex -15.1568 -16.4918 8.01
      vertex -16.8136 -19.4836 8.01
      vertex 16.8136 -19.4836 8.01
    endloop
  endfacet
  facet normal 0 0 1
    outer loop
      vertex -15.4635 -16.4266 8.01
      vertex -16.8136 -19.4836 8.01
      vertex -15.1568 -16.4918 8.01
    endloop
  endfacet
  facet normal 0 0 1
    outer loop
      vertex -15.75 -16.299 8.01
      vertex -16.8136 -19.4836 8.01
      vertex -15.4635 -16.4266 8.01
    endloop
  endfacet
  facet normal 0 0 1
    outer loop
      vertex -17.4271 -19.3532 8.01
      vertex -15.75 -16.299 8.01
      vertex -16.0037 -16.1147 8.01
    endloop
  endfacet
  facet normal 0 0 1
    outer loop
      vertex -18.9271 -18.2634 8.01
      vertex -16.0037 -16.1147 8.01
      vertex -16.2135 -15.8817 8.01
    endloop
  endfacet
  facet normal 0 0 1
    outer loop
      vertex -19.5 -16.5 8.01
      vertex -16.2135 -15.8817 8.01
      vertex -16.3703 -15.6101 8.01
    endloop
  endfacet
  facet normal 0 0 1
    outer loop
      vertex -19.5 -16.5 8.01
      vertex -16.3703 -15.6101 8.01
      vertex -16.4672 -15.3119 8.01
    endloop
  endfacet
  facet normal 0 0 1
    outer loop
      vertex -19.5 -16.5 8.01
      vertex -16.4672 -15.3119 8.01
      vertex -16.5 -15 8.01
    endloop
  endfacet
  facet normal 0 0 1
    outer loop
      vertex -16.5 15 8.01
      vertex -19.5 16.5 8.01
      vertex -16.5 -15 8.01
    endloop
  endfacet
  facet normal -0 0 1
    outer loop
      vertex -19.2406 17.7202 8.01
      vertex -16.2135 15.8817 8.01
      vertex -18.9271 18.2634 8.01
    endloop
  endfacet
  facet normal 0 0 1
    outer loop
      vertex -19.5 -16.5 8.01
      vertex -16.5 -15 8.01
      vertex -19.5 16.5 8.01
    endloop
  endfacet
  facet normal -0 0 1
    outer loop
      vertex -19.4344 17.1237 8.01
      vertex -16.2135 15.8817 8.01
      vertex -19.2406 17.7202 8.01
    endloop
  endfacet
  facet normal 0 0 1
    outer loop
      vertex -16.2135 -15.8817 8.01
      vertex -19.5 -16.5 8.01
      vertex -19.4344 -17.1237 8.01
    endloop
  endfacet
  facet normal -0 0 1
    outer loop
      vertex -19.5 16.5 8.01
      vertex -16.2135 15.8817 8.01
      vertex -19.4344 17.1237 8.01
    endloop
  endfacet
  facet normal 0 0 1
    outer loop
      vertex -15.75 -16.299 8.01
      vertex -17.4271 -19.3532 8.01
      vertex -16.8136 -19.4836 8.01
    endloop
  endfacet
  facet normal 0 0 1
    outer loop
      vertex -16.2135 15.8817 8.01
      vertex -19.5 16.5 8.01
      vertex -16.3703 15.6101 8.01
    endloop
  endfacet
  facet normal 0 0 1
    outer loop
      vertex -16.0037 -16.1147 8.01
      vertex -18 -19.0981 8.01
      vertex -17.4271 -19.3532 8.01
    endloop
  endfacet
  facet normal 0 0 1
    outer loop
      vertex -16.3703 15.6101 8.01
      vertex -19.5 16.5 8.01
      vertex -16.4672 15.3119 8.01
    endloop
  endfacet
  facet normal 0 0 1
    outer loop
      vertex -16.0037 -16.1147 8.01
      vertex -18.5074 -18.7294 8.01
      vertex -18 -19.0981 8.01
    endloop
  endfacet
  facet normal 0 0 1
    outer loop
      vertex -16.4672 15.3119 8.01
      vertex -19.5 16.5 8.01
      vertex -16.5 15 8.01
    endloop
  endfacet
  facet normal 0 0 1
    outer loop
      vertex -16.0037 -16.1147 8.01
      vertex -18.9271 -18.2634 8.01
      vertex -18.5074 -18.7294 8.01
    endloop
  endfacet
  facet normal 0 0 1
    outer loop
      vertex -16.2135 -15.8817 8.01
      vertex -19.2406 -17.7202 8.01
      vertex -18.9271 -18.2634 8.01
    endloop
  endfacet
  facet normal 0 0 1
    outer loop
      vertex -16.2135 -15.8817 8.01
      vertex -19.4344 -17.1237 8.01
      vertex -19.2406 -17.7202 8.01
    endloop
  endfacet
  facet normal 0.406736 -0.913546 0
    outer loop
      vertex 17.4271 -19.3532 0
      vertex 18 -19.0981 8.01
      vertex 17.4271 -19.3532 8.01
    endloop
  endfacet
  facet normal 0.406736 -0.913546 0
    outer loop
      vertex 18 -19.0981 8.01
      vertex 17.4271 -19.3532 0
      vertex 18 -19.0981 0
    endloop
  endfacet
  facet normal 0.207914 -0.978147 0
    outer loop
      vertex 16.8136 -19.4836 0
      vertex 17.4271 -19.3532 8.01
      vertex 16.8136 -19.4836 8.01
    endloop
  endfacet
  facet normal 0.207914 -0.978147 0
    outer loop
      vertex 17.4271 -19.3532 8.01
      vertex 16.8136 -19.4836 0
      vertex 17.4271 -19.3532 0
    endloop
  endfacet
  facet normal -0.406736 0.913546 0
    outer loop
      vertex -17.4271 19.3532 0
      vertex -18 19.0981 8.01
      vertex -17.4271 19.3532 8.01
    endloop
  endfacet
  facet normal -0.406736 0.913546 0
    outer loop
      vertex -18 19.0981 8.01
      vertex -17.4271 19.3532 0
      vertex -18 19.0981 0
    endloop
  endfacet
  facet normal -0.207914 0.978147 0
    outer loop
      vertex -16.8136 19.4836 0
      vertex -17.4271 19.3532 8.01
      vertex -16.8136 19.4836 8.01
    endloop
  endfacet
  facet normal -0.207914 0.978147 0
    outer loop
      vertex -17.4271 19.3532 8.01
      vertex -16.8136 19.4836 0
      vertex -17.4271 19.3532 0
    endloop
  endfacet
  facet normal -0.587785 0.809017 0
    outer loop
      vertex -18 19.0981 0
      vertex -18.5074 18.7294 8.01
      vertex -18 19.0981 8.01
    endloop
  endfacet
  facet normal -0.587785 0.809017 0
    outer loop
      vertex -18.5074 18.7294 8.01
      vertex -18 19.0981 0
      vertex -18.5074 18.7294 0
    endloop
  endfacet
  facet normal -0.587785 -0.809017 0
    outer loop
      vertex -18.5074 -18.7294 0
      vertex -18 -19.0981 8.01
      vertex -18.5074 -18.7294 8.01
    endloop
  endfacet
  facet normal -0.587785 -0.809017 -0
    outer loop
      vertex -18 -19.0981 8.01
      vertex -18.5074 -18.7294 0
      vertex -18 -19.0981 0
    endloop
  endfacet
  facet normal 0 0 -1
    outer loop
      vertex 16.8136 -19.4836 0
      vertex 19.5 -16.5 0
      vertex 19.4344 -17.1237 0
    endloop
  endfacet
  facet normal 0 0 -1
    outer loop
      vertex -19.5 -16.5 0
      vertex 19.5 -16.5 0
      vertex 16.8136 -19.4836 0
    endloop
  endfacet
  facet normal 0 0 -1
    outer loop
      vertex 16.8136 -19.4836 0
      vertex 19.4344 -17.1237 0
      vertex 19.2406 -17.7202 0
    endloop
  endfacet
  facet normal 0 0 -1
    outer loop
      vertex 19.5 -16.5 0
      vertex -19.5 -16.5 0
      vertex 19.5 16.5 0
    endloop
  endfacet
  facet normal 0 0 -1
    outer loop
      vertex 16.8136 -19.4836 0
      vertex 19.2406 -17.7202 0
      vertex 18.9271 -18.2634 0
    endloop
  endfacet
  facet normal 0 0 -1
    outer loop
      vertex 19.5 16.5 0
      vertex 16.8136 19.4836 0
      vertex 19.4344 17.1237 0
    endloop
  endfacet
  facet normal 0 0 -1
    outer loop
      vertex 16.8136 -19.4836 0
      vertex 18.9271 -18.2634 0
      vertex 18.5074 -18.7294 0
    endloop
  endfacet
  facet normal 0 0 -1
    outer loop
      vertex 19.4344 17.1237 0
      vertex 16.8136 19.4836 0
      vertex 19.2406 17.7202 0
    endloop
  endfacet
  facet normal 0 0 -1
    outer loop
      vertex 16.8136 -19.4836 0
      vertex 18.5074 -18.7294 0
      vertex 18 -19.0981 0
    endloop
  endfacet
  facet normal 0 0 -1
    outer loop
      vertex 19.2406 17.7202 0
      vertex 16.8136 19.4836 0
      vertex 18.9271 18.2634 0
    endloop
  endfacet
  facet normal 0 0 -1
    outer loop
      vertex 16.8136 -19.4836 0
      vertex 18 -19.0981 0
      vertex 17.4271 -19.3532 0
    endloop
  endfacet
  facet normal 0 0 -1
    outer loop
      vertex 18.9271 18.2634 0
      vertex 16.8136 19.4836 0
      vertex 18.5074 18.7294 0
    endloop
  endfacet
  facet normal 0 0 -1
    outer loop
      vertex 18.5074 18.7294 0
      vertex 16.8136 19.4836 0
      vertex 18 19.0981 0
    endloop
  endfacet
  facet normal 0 0 -1
    outer loop
      vertex 18 19.0981 0
      vertex 16.8136 19.4836 0
      vertex 17.4271 19.3532 0
    endloop
  endfacet
  facet normal 0 0 -1
    outer loop
      vertex -19.5 -16.5 0
      vertex 16.8136 -19.4836 0
      vertex -16.8136 -19.4836 0
    endloop
  endfacet
  facet normal 0 0 -1
    outer loop
      vertex -19.5 16.5 0
      vertex 19.5 16.5 0
      vertex -19.5 -16.5 0
    endloop
  endfacet
  facet normal 0 0 -1
    outer loop
      vertex -19.5 -16.5 0
      vertex -16.8136 -19.4836 0
      vertex -17.4271 -19.3532 0
    endloop
  endfacet
  facet normal 0 0 -1
    outer loop
      vertex 19.5 16.5 0
      vertex -19.5 16.5 0
      vertex 16.8136 19.4836 0
    endloop
  endfacet
  facet normal 0 0 -1
    outer loop
      vertex -19.5 -16.5 0
      vertex -17.4271 -19.3532 0
      vertex -18 -19.0981 0
    endloop
  endfacet
  facet normal -0 0 -1
    outer loop
      vertex 16.8136 19.4836 0
      vertex -19.5 16.5 0
      vertex -16.8136 19.4836 0
    endloop
  endfacet
  facet normal 0 0 -1
    outer loop
      vertex -19.5 -16.5 0
      vertex -18 -19.0981 0
      vertex -18.5074 -18.7294 0
    endloop
  endfacet
  facet normal 0 0 -1
    outer loop
      vertex -16.8136 19.4836 0
      vertex -19.5 16.5 0
      vertex -17.4271 19.3532 0
    endloop
  endfacet
  facet normal 0 0 -1
    outer loop
      vertex -19.5 -16.5 0
      vertex -18.5074 -18.7294 0
      vertex -18.9271 -18.2634 0
    endloop
  endfacet
  facet normal 0 0 -1
    outer loop
      vertex -17.4271 19.3532 0
      vertex -19.5 16.5 0
      vertex -18 19.0981 0
    endloop
  endfacet
  facet normal 0 0 -1
    outer loop
      vertex -19.5 -16.5 0
      vertex -18.9271 -18.2634 0
      vertex -19.2406 -17.7202 0
    endloop
  endfacet
  facet normal 0 0 -1
    outer loop
      vertex -18 19.0981 0
      vertex -19.5 16.5 0
      vertex -18.5074 18.7294 0
    endloop
  endfacet
  facet normal 0 0 -1
    outer loop
      vertex -19.5 -16.5 0
      vertex -19.2406 -17.7202 0
      vertex -19.4344 -17.1237 0
    endloop
  endfacet
  facet normal 0 0 -1
    outer loop
      vertex -18.5074 18.7294 0
      vertex -19.5 16.5 0
      vertex -18.9271 18.2634 0
    endloop
  endfacet
  facet normal 0 0 -1
    outer loop
      vertex -18.9271 18.2634 0
      vertex -19.5 16.5 0
      vertex -19.2406 17.7202 0
    endloop
  endfacet
  facet normal 0 0 -1
    outer loop
      vertex -19.2406 17.7202 0
      vertex -19.5 16.5 0
      vertex -19.4344 17.1237 0
    endloop
  endfacet
  facet normal -0.951056 -0.309018 0
    outer loop
      vertex -19.2406 -17.7202 0
      vertex -19.4344 -17.1237 8.01
      vertex -19.4344 -17.1237 0
    endloop
  endfacet
  facet normal -0.951056 -0.309018 0
    outer loop
      vertex -19.4344 -17.1237 8.01
      vertex -19.2406 -17.7202 0
      vertex -19.2406 -17.7202 8.01
    endloop
  endfacet
  facet normal -0.951056 0.309018 0
    outer loop
      vertex -19.4344 17.1237 0
      vertex -19.2406 17.7202 8.01
      vertex -19.2406 17.7202 0
    endloop
  endfacet
  facet normal -0.951056 0.309018 0
    outer loop
      vertex -19.2406 17.7202 8.01
      vertex -19.4344 17.1237 0
      vertex -19.4344 17.1237 8.01
    endloop
  endfacet
  facet normal -0.866027 -0.499997 0
    outer loop
      vertex -18.9271 -18.2634 0
      vertex -19.2406 -17.7202 8.01
      vertex -19.2406 -17.7202 0
    endloop
  endfacet
  facet normal -0.866027 -0.499997 0
    outer loop
      vertex -19.2406 -17.7202 8.01
      vertex -18.9271 -18.2634 0
      vertex -18.9271 -18.2634 8.01
    endloop
  endfacet
  facet normal -0.994522 -0.104532 0
    outer loop
      vertex 16.5 15 4.95
      vertex 16.4672 15.3119 8.01
      vertex 16.4672 15.3119 4.95
    endloop
  endfacet
  facet normal -0.994522 -0.104532 0
    outer loop
      vertex 16.4672 15.3119 8.01
      vertex 16.5 15 4.95
      vertex 16.5 15 8.01
    endloop
  endfacet
  facet normal 0 1 -0
    outer loop
      vertex 15.1568 -16.4918 4.95
      vertex -15.1568 -16.4918 8.01
      vertex 15.1568 -16.4918 8.01
    endloop
  endfacet
  facet normal 0 1 0
    outer loop
      vertex -15.1568 -16.4918 8.01
      vertex 15.1568 -16.4918 4.95
      vertex -15.1568 -16.4918 4.95
    endloop
  endfacet
  facet normal -0.207915 -0.978147 0
    outer loop
      vertex 15.1568 16.4918 4.95
      vertex 15.4635 16.4266 8.01
      vertex 15.1568 16.4918 8.01
    endloop
  endfacet
  facet normal -0.207915 -0.978147 -0
    outer loop
      vertex 15.4635 16.4266 8.01
      vertex 15.1568 16.4918 4.95
      vertex 15.4635 16.4266 4.95
    endloop
  endfacet
  facet normal -1 0 0
    outer loop
      vertex 16.5 -15 4.95
      vertex 16.5 15 8.01
      vertex 16.5 15 4.95
    endloop
  endfacet
  facet normal -1 -0 0
    outer loop
      vertex 16.5 15 8.01
      vertex 16.5 -15 4.95
      vertex 16.5 -15 8.01
    endloop
  endfacet
  facet normal 0 -1 0
    outer loop
      vertex -15.1568 16.4918 4.95
      vertex 15.1568 16.4918 8.01
      vertex -15.1568 16.4918 8.01
    endloop
  endfacet
  facet normal 0 -1 -0
    outer loop
      vertex 15.1568 16.4918 8.01
      vertex -15.1568 16.4918 4.95
      vertex 15.1568 16.4918 4.95
    endloop
  endfacet
  facet normal -0.743146 -0.669129 0
    outer loop
      vertex 16.2135 15.8817 4.95
      vertex 16.0037 16.1147 8.01
      vertex 16.0037 16.1147 4.95
    endloop
  endfacet
  facet normal -0.743146 -0.669129 0
    outer loop
      vertex 16.0037 16.1147 8.01
      vertex 16.2135 15.8817 4.95
      vertex 16.2135 15.8817 8.01
    endloop
  endfacet
  facet normal -0.587788 0.809015 0
    outer loop
      vertex 16.0037 -16.1147 4.95
      vertex 15.75 -16.299 8.01
      vertex 16.0037 -16.1147 8.01
    endloop
  endfacet
  facet normal -0.587788 0.809015 0
    outer loop
      vertex 15.75 -16.299 8.01
      vertex 16.0037 -16.1147 4.95
      vertex 15.75 -16.299 4.95
    endloop
  endfacet
  facet normal 0.994522 0.104532 0
    outer loop
      vertex -16.4672 -15.3119 8.01
      vertex -16.5 -15 4.95
      vertex -16.5 -15 8.01
    endloop
  endfacet
  facet normal 0.994522 0.104532 0
    outer loop
      vertex -16.5 -15 4.95
      vertex -16.4672 -15.3119 8.01
      vertex -16.4672 -15.3119 4.95
    endloop
  endfacet
  facet normal 0.207915 0.978147 -0
    outer loop
      vertex -15.1568 -16.4918 4.95
      vertex -15.4635 -16.4266 8.01
      vertex -15.1568 -16.4918 8.01
    endloop
  endfacet
  facet normal 0.207915 0.978147 0
    outer loop
      vertex -15.4635 -16.4266 8.01
      vertex -15.1568 -16.4918 4.95
      vertex -15.4635 -16.4266 4.95
    endloop
  endfacet
  facet normal 1 -0 0
    outer loop
      vertex -16.5 -15 8.01
      vertex -16.5 15 4.95
      vertex -16.5 15 8.01
    endloop
  endfacet
  facet normal 1 0 0
    outer loop
      vertex -16.5 15 4.95
      vertex -16.5 -15 8.01
      vertex -16.5 -15 4.95
    endloop
  endfacet
  facet normal 0.587786 -0.809016 0
    outer loop
      vertex -16.0037 16.1147 4.95
      vertex -15.75 16.299 8.01
      vertex -16.0037 16.1147 8.01
    endloop
  endfacet
  facet normal 0.587786 -0.809016 0
    outer loop
      vertex -15.75 16.299 8.01
      vertex -16.0037 16.1147 4.95
      vertex -15.75 16.299 4.95
    endloop
  endfacet
  facet normal -0.406735 -0.913546 0
    outer loop
      vertex 15.4635 16.4266 4.95
      vertex 15.75 16.299 8.01
      vertex 15.4635 16.4266 8.01
    endloop
  endfacet
  facet normal -0.406735 -0.913546 -0
    outer loop
      vertex 15.75 16.299 8.01
      vertex 15.4635 16.4266 4.95
      vertex 15.75 16.299 4.95
    endloop
  endfacet
  facet normal -0.587788 -0.809015 0
    outer loop
      vertex 15.75 16.299 4.95
      vertex 16.0037 16.1147 8.01
      vertex 15.75 16.299 8.01
    endloop
  endfacet
  facet normal -0.587788 -0.809015 -0
    outer loop
      vertex 16.0037 16.1147 8.01
      vertex 15.75 16.299 4.95
      vertex 16.0037 16.1147 4.95
    endloop
  endfacet
  facet normal -0.866024 -0.500002 0
    outer loop
      vertex 16.3703 15.6101 4.95
      vertex 16.2135 15.8817 8.01
      vertex 16.2135 15.8817 4.95
    endloop
  endfacet
  facet normal -0.866024 -0.500002 0
    outer loop
      vertex 16.2135 15.8817 8.01
      vertex 16.3703 15.6101 4.95
      vertex 16.3703 15.6101 8.01
    endloop
  endfacet
  facet normal -0.951057 -0.309016 0
    outer loop
      vertex 16.4672 15.3119 4.95
      vertex 16.3703 15.6101 8.01
      vertex 16.3703 15.6101 4.95
    endloop
  endfacet
  facet normal -0.951057 -0.309016 0
    outer loop
      vertex 16.3703 15.6101 8.01
      vertex 16.4672 15.3119 4.95
      vertex 16.4672 15.3119 8.01
    endloop
  endfacet
  facet normal -0.951057 0.309016 0
    outer loop
      vertex 16.3703 -15.6101 4.95
      vertex 16.4672 -15.3119 8.01
      vertex 16.4672 -15.3119 4.95
    endloop
  endfacet
  facet normal -0.951057 0.309016 0
    outer loop
      vertex 16.4672 -15.3119 8.01
      vertex 16.3703 -15.6101 4.95
      vertex 16.3703 -15.6101 8.01
    endloop
  endfacet
  facet normal -0.207915 0.978147 0
    outer loop
      vertex 15.4635 -16.4266 4.95
      vertex 15.1568 -16.4918 8.01
      vertex 15.4635 -16.4266 8.01
    endloop
  endfacet
  facet normal -0.207915 0.978147 0
    outer loop
      vertex 15.1568 -16.4918 8.01
      vertex 15.4635 -16.4266 4.95
      vertex 15.1568 -16.4918 4.95
    endloop
  endfacet
  facet normal 0.406735 0.913546 -0
    outer loop
      vertex -15.4635 -16.4266 4.95
      vertex -15.75 -16.299 8.01
      vertex -15.4635 -16.4266 8.01
    endloop
  endfacet
  facet normal 0.406735 0.913546 0
    outer loop
      vertex -15.75 -16.299 8.01
      vertex -15.4635 -16.4266 4.95
      vertex -15.75 -16.299 4.95
    endloop
  endfacet
  facet normal 0.994522 -0.104532 0
    outer loop
      vertex -16.5 15 8.01
      vertex -16.4672 15.3119 4.95
      vertex -16.4672 15.3119 8.01
    endloop
  endfacet
  facet normal 0.994522 -0.104532 0
    outer loop
      vertex -16.4672 15.3119 4.95
      vertex -16.5 15 8.01
      vertex -16.5 15 4.95
    endloop
  endfacet
  facet normal 0.207915 -0.978147 0
    outer loop
      vertex -15.4635 16.4266 4.95
      vertex -15.1568 16.4918 8.01
      vertex -15.4635 16.4266 8.01
    endloop
  endfacet
  facet normal 0.207915 -0.978147 0
    outer loop
      vertex -15.1568 16.4918 8.01
      vertex -15.4635 16.4266 4.95
      vertex -15.1568 16.4918 4.95
    endloop
  endfacet
  facet normal 0.406736 -0.913546 0
    outer loop
      vertex -15.75 16.299 4.95
      vertex -15.4635 16.4266 8.01
      vertex -15.75 16.299 8.01
    endloop
  endfacet
  facet normal 0.406736 -0.913546 0
    outer loop
      vertex -15.4635 16.4266 8.01
      vertex -15.75 16.299 4.95
      vertex -15.4635 16.4266 4.95
    endloop
  endfacet
  facet normal -0.994522 0.104532 0
    outer loop
      vertex 16.4672 -15.3119 4.95
      vertex 16.5 -15 8.01
      vertex 16.5 -15 4.95
    endloop
  endfacet
  facet normal -0.994522 0.104532 0
    outer loop
      vertex 16.5 -15 8.01
      vertex 16.4672 -15.3119 4.95
      vertex 16.4672 -15.3119 8.01
    endloop
  endfacet
  facet normal -0.406735 0.913546 0
    outer loop
      vertex 15.75 -16.299 4.95
      vertex 15.4635 -16.4266 8.01
      vertex 15.75 -16.299 8.01
    endloop
  endfacet
  facet normal -0.406735 0.913546 0
    outer loop
      vertex 15.4635 -16.4266 8.01
      vertex 15.75 -16.299 4.95
      vertex 15.4635 -16.4266 4.95
    endloop
  endfacet
  facet normal 0.743146 0.669129 0
    outer loop
      vertex -16.0037 -16.1147 8.01
      vertex -16.2135 -15.8817 4.95
      vertex -16.2135 -15.8817 8.01
    endloop
  endfacet
  facet normal 0.743146 0.669129 0
    outer loop
      vertex -16.2135 -15.8817 4.95
      vertex -16.0037 -16.1147 8.01
      vertex -16.0037 -16.1147 4.95
    endloop
  endfacet
  facet normal 0.951057 -0.309016 0
    outer loop
      vertex -16.4672 15.3119 8.01
      vertex -16.3703 15.6101 4.95
      vertex -16.3703 15.6101 8.01
    endloop
  endfacet
  facet normal 0.951057 -0.309016 0
    outer loop
      vertex -16.3703 15.6101 4.95
      vertex -16.4672 15.3119 8.01
      vertex -16.4672 15.3119 4.95
    endloop
  endfacet
  facet normal 0.866024 -0.500002 0
    outer loop
      vertex -16.3703 15.6101 8.01
      vertex -16.2135 15.8817 4.95
      vertex -16.2135 15.8817 8.01
    endloop
  endfacet
  facet normal 0.866024 -0.500002 0
    outer loop
      vertex -16.2135 15.8817 4.95
      vertex -16.3703 15.6101 8.01
      vertex -16.3703 15.6101 4.95
    endloop
  endfacet
  facet normal 0.743146 -0.669129 0
    outer loop
      vertex -16.2135 15.8817 8.01
      vertex -16.0037 16.1147 4.95
      vertex -16.0037 16.1147 8.01
    endloop
  endfacet
  facet normal 0.743146 -0.669129 0
    outer loop
      vertex -16.0037 16.1147 4.95
      vertex -16.2135 15.8817 8.01
      vertex -16.2135 15.8817 4.95
    endloop
  endfacet
  facet normal -0.866024 0.500002 0
    outer loop
      vertex 16.2135 -15.8817 4.95
      vertex 16.3703 -15.6101 8.01
      vertex 16.3703 -15.6101 4.95
    endloop
  endfacet
  facet normal -0.866024 0.500002 0
    outer loop
      vertex 16.3703 -15.6101 8.01
      vertex 16.2135 -15.8817 4.95
      vertex 16.2135 -15.8817 8.01
    endloop
  endfacet
  facet normal -0.743146 0.669129 0
    outer loop
      vertex 16.0037 -16.1147 4.95
      vertex 16.2135 -15.8817 8.01
      vertex 16.2135 -15.8817 4.95
    endloop
  endfacet
  facet normal -0.743146 0.669129 0
    outer loop
      vertex 16.2135 -15.8817 8.01
      vertex 16.0037 -16.1147 4.95
      vertex 16.0037 -16.1147 8.01
    endloop
  endfacet
  facet normal 0.951057 0.309016 0
    outer loop
      vertex -16.3703 -15.6101 8.01
      vertex -16.4672 -15.3119 4.95
      vertex -16.4672 -15.3119 8.01
    endloop
  endfacet
  facet normal 0.951057 0.309016 0
    outer loop
      vertex -16.4672 -15.3119 4.95
      vertex -16.3703 -15.6101 8.01
      vertex -16.3703 -15.6101 4.95
    endloop
  endfacet
  facet normal 0.866024 0.500002 0
    outer loop
      vertex -16.2135 -15.8817 8.01
      vertex -16.3703 -15.6101 4.95
      vertex -16.3703 -15.6101 8.01
    endloop
  endfacet
  facet normal 0.866024 0.500002 0
    outer loop
      vertex -16.3703 -15.6101 4.95
      vertex -16.2135 -15.8817 8.01
      vertex -16.2135 -15.8817 4.95
    endloop
  endfacet
  facet normal 0.587788 0.809015 -0
    outer loop
      vertex -15.75 -16.299 4.95
      vertex -16.0037 -16.1147 8.01
      vertex -15.75 -16.299 8.01
    endloop
  endfacet
  facet normal 0.587788 0.809015 0
    outer loop
      vertex -16.0037 -16.1147 8.01
      vertex -15.75 -16.299 4.95
      vertex -16.0037 -16.1147 4.95
    endloop
  endfacet
  facet normal -0.147418 -0.693552 0.705162
    outer loop
      vertex 2.52458 8.54206 4.95
      vertex 2.12583 8.62682 4.95
      vertex 1.922 6.6875 3
    endloop
  endfacet
  facet normal -0.707107 0 0.707107
    outer loop
      vertex 1.922 -6.97949 3
      vertex 3.872 6.6875 4.95
      vertex 1.922 6.6875 3
    endloop
  endfacet
  facet normal -0.707107 0 0.707107
    outer loop
      vertex 3.872 6.6875 4.95
      vertex 1.922 -6.97949 3
      vertex 3.872 -6.97949 4.95
    endloop
  endfacet
  facet normal 0.526924 0.474445 0.705162
    outer loop
      vertex -5.4938 3.29437 4.95
      vertex -4.189 4.7435 3
      vertex -5.76658 3.59732 4.95
    endloop
  endfacet
  facet normal 0.705162 0.0741162 0.705162
    outer loop
      vertex -6.09638 4.33807 4.95
      vertex -4.189 4.7435 3
      vertex -6.139 4.7435 4.95
    endloop
  endfacet
  facet normal 0.705162 -0.0741162 0.705162
    outer loop
      vertex -4.189 6.6875 3
      vertex -6.09638 7.09293 4.95
      vertex -6.139 6.6875 4.95
    endloop
  endfacet
  facet normal 0.707107 -0 0.707107
    outer loop
      vertex -6.139 4.7435 4.95
      vertex -4.189 6.6875 3
      vertex -6.139 6.6875 4.95
    endloop
  endfacet
  facet normal 0.707107 0 0.707107
    outer loop
      vertex -4.189 6.6875 3
      vertex -6.139 4.7435 4.95
      vertex -4.189 4.7435 3
    endloop
  endfacet
  facet normal 0 0 1
    outer loop
      vertex 1.922 6.6875 3
      vertex -0.549988 4.7435 3
      vertex 1.922 -6.97949 3
    endloop
  endfacet
  facet normal -0 0 1
    outer loop
      vertex -4.189 6.6875 3
      vertex -0.549988 4.7435 3
      vertex 1.922 6.6875 3
    endloop
  endfacet
  facet normal 0 0 1
    outer loop
      vertex -0.549988 4.7435 3
      vertex -4.189 6.6875 3
      vertex -4.189 4.7435 3
    endloop
  endfacet
  facet normal 0 0 1
    outer loop
      vertex 1.922 -6.97949 3
      vertex -0.549988 4.7435 3
      vertex -0.549988 -6.97949 3
    endloop
  endfacet
  facet normal -0.614052 -0.354523 0.705162
    outer loop
      vertex 3.70341 7.48064 4.95
      vertex 3.49958 7.83368 4.95
      vertex 1.922 6.6875 3
    endloop
  endfacet
  facet normal 0.147418 -0.693552 0.705162
    outer loop
      vertex -4.189 6.6875 3
      vertex -4.39283 8.62682 4.95
      vertex -4.79158 8.54206 4.95
    endloop
  endfacet
  facet normal 0.416767 0.57363 0.705162
    outer loop
      vertex -5.164 3.05475 4.95
      vertex -4.189 4.7435 3
      vertex -5.4938 3.29437 4.95
    endloop
  endfacet
  facet normal 0.614053 -0.354522 0.705162
    outer loop
      vertex -4.189 6.6875 3
      vertex -5.76658 7.83368 4.95
      vertex -5.97041 7.48064 4.95
    endloop
  endfacet
  facet normal -0.416767 -0.573631 0.705162
    outer loop
      vertex 3.2268 8.13663 4.95
      vertex 2.897 8.37625 4.95
      vertex 1.922 6.6875 3
    endloop
  endfacet
  facet normal -0.705162 -0.0741158 0.705162
    outer loop
      vertex 3.872 6.6875 4.95
      vertex 3.82938 7.09293 4.95
      vertex 1.922 6.6875 3
    endloop
  endfacet
  facet normal 0 -0.709046 0.705162
    outer loop
      vertex -4.189 6.6875 3
      vertex 2.12583 8.62682 4.95
      vertex -4.39283 8.62682 4.95
    endloop
  endfacet
  facet normal 0 -0.709046 0.705162
    outer loop
      vertex 2.12583 8.62682 4.95
      vertex -4.189 6.6875 3
      vertex 1.922 6.6875 3
    endloop
  endfacet
  facet normal 0.526924 -0.474445 0.705162
    outer loop
      vertex -4.189 6.6875 3
      vertex -5.4938 8.13663 4.95
      vertex -5.76658 7.83368 4.95
    endloop
  endfacet
  facet normal 0.288396 0.647746 0.705162
    outer loop
      vertex -4.79158 2.88894 4.95
      vertex -4.189 4.7435 3
      vertex -5.164 3.05475 4.95
    endloop
  endfacet
  facet normal -0 0.709046 0.705162
    outer loop
      vertex -4.189 4.7435 3
      vertex -2.49999 2.80418 4.95
      vertex -0.549988 4.7435 3
    endloop
  endfacet
  facet normal 0 0.709046 0.705162
    outer loop
      vertex -2.49999 2.80418 4.95
      vertex -4.189 4.7435 3
      vertex -4.39283 2.80418 4.95
    endloop
  endfacet
  facet normal 0.674343 0.219108 0.705162
    outer loop
      vertex -5.97041 3.95036 4.95
      vertex -4.189 4.7435 3
      vertex -6.09638 4.33807 4.95
    endloop
  endfacet
  facet normal 0.614053 0.354523 0.705162
    outer loop
      vertex -5.76658 3.59732 4.95
      vertex -4.189 4.7435 3
      vertex -5.97041 3.95036 4.95
    endloop
  endfacet
  facet normal -0.288396 -0.647746 0.705162
    outer loop
      vertex 2.897 8.37625 4.95
      vertex 2.52458 8.54206 4.95
      vertex 1.922 6.6875 3
    endloop
  endfacet
  facet normal -0.526924 -0.474445 0.705162
    outer loop
      vertex 3.49958 7.83368 4.95
      vertex 3.2268 8.13663 4.95
      vertex 1.922 6.6875 3
    endloop
  endfacet
  facet normal -0.674343 -0.219108 0.705162
    outer loop
      vertex 3.82938 7.09293 4.95
      vertex 3.70341 7.48064 4.95
      vertex 1.922 6.6875 3
    endloop
  endfacet
  facet normal 0.288396 -0.647746 0.705162
    outer loop
      vertex -4.189 6.6875 3
      vertex -4.79158 8.54206 4.95
      vertex -5.164 8.37625 4.95
    endloop
  endfacet
  facet normal 0.674343 -0.219108 0.705162
    outer loop
      vertex -4.189 6.6875 3
      vertex -5.97041 7.48064 4.95
      vertex -6.09638 7.09293 4.95
    endloop
  endfacet
  facet normal 0.147419 0.693552 0.705162
    outer loop
      vertex -4.39283 2.80418 4.95
      vertex -4.189 4.7435 3
      vertex -4.79158 2.88894 4.95
    endloop
  endfacet
  facet normal 0.416767 -0.573631 0.705162
    outer loop
      vertex -4.189 6.6875 3
      vertex -5.164 8.37625 4.95
      vertex -5.4938 8.13663 4.95
    endloop
  endfacet
  facet normal 0.707107 0 0.707107
    outer loop
      vertex -0.549988 -6.97949 3
      vertex -2.49999 2.80418 4.95
      vertex -2.49999 -6.97949 4.95
    endloop
  endfacet
  facet normal 0.707107 0 0.707107
    outer loop
      vertex -2.49999 2.80418 4.95
      vertex -0.549988 -6.97949 3
      vertex -0.549988 4.7435 3
    endloop
  endfacet
  facet normal 0.705162 0.0741158 0.705162
    outer loop
      vertex -2.45738 -7.38492 4.95
      vertex -0.549988 -6.97949 3
      vertex -2.49999 -6.97949 4.95
    endloop
  endfacet
  facet normal 0 0.709046 0.705162
    outer loop
      vertex 1.922 -6.97949 3
      vertex -0.753818 -8.91881 4.95
      vertex 2.12583 -8.91881 4.95
    endloop
  endfacet
  facet normal 0 0.709046 0.705162
    outer loop
      vertex -0.753818 -8.91881 4.95
      vertex 1.922 -6.97949 3
      vertex -0.549988 -6.97949 3
    endloop
  endfacet
  facet normal 0.147418 0.693552 0.705162
    outer loop
      vertex -0.753818 -8.91881 4.95
      vertex -0.549988 -6.97949 3
      vertex -1.15257 -8.83405 4.95
    endloop
  endfacet
  facet normal 0.288396 0.647746 0.705162
    outer loop
      vertex -1.15257 -8.83405 4.95
      vertex -0.549988 -6.97949 3
      vertex -1.52499 -8.66824 4.95
    endloop
  endfacet
  facet normal -0.614052 0.354523 0.705162
    outer loop
      vertex 3.49958 -8.12567 4.95
      vertex 3.70341 -7.77263 4.95
      vertex 1.922 -6.97949 3
    endloop
  endfacet
  facet normal 0.614052 0.354523 0.705162
    outer loop
      vertex -2.12757 -8.12567 4.95
      vertex -0.549988 -6.97949 3
      vertex -2.3314 -7.77263 4.95
    endloop
  endfacet
  facet normal 0.416767 0.573631 0.705162
    outer loop
      vertex -1.52499 -8.66824 4.95
      vertex -0.549988 -6.97949 3
      vertex -1.85479 -8.42862 4.95
    endloop
  endfacet
  facet normal -0.705162 0.0741158 0.705162
    outer loop
      vertex 3.82938 -7.38492 4.95
      vertex 3.872 -6.97949 4.95
      vertex 1.922 -6.97949 3
    endloop
  endfacet
  facet normal -0.416766 0.573631 0.705162
    outer loop
      vertex 2.897 -8.66824 4.95
      vertex 3.2268 -8.42862 4.95
      vertex 1.922 -6.97949 3
    endloop
  endfacet
  facet normal -0.674343 0.219108 0.705162
    outer loop
      vertex 3.70341 -7.77263 4.95
      vertex 3.82938 -7.38492 4.95
      vertex 1.922 -6.97949 3
    endloop
  endfacet
  facet normal -0.526924 0.474445 0.705162
    outer loop
      vertex 3.2268 -8.42862 4.95
      vertex 3.49958 -8.12567 4.95
      vertex 1.922 -6.97949 3
    endloop
  endfacet
  facet normal -0.147418 0.693552 0.705162
    outer loop
      vertex 2.12583 -8.91881 4.95
      vertex 2.52458 -8.83405 4.95
      vertex 1.922 -6.97949 3
    endloop
  endfacet
  facet normal 0.674343 0.219108 0.705162
    outer loop
      vertex -2.3314 -7.77263 4.95
      vertex -0.549988 -6.97949 3
      vertex -2.45738 -7.38492 4.95
    endloop
  endfacet
  facet normal -0.288397 0.647745 0.705162
    outer loop
      vertex 2.52458 -8.83405 4.95
      vertex 2.897 -8.66824 4.95
      vertex 1.922 -6.97949 3
    endloop
  endfacet
  facet normal 0.526924 0.474445 0.705162
    outer loop
      vertex -1.85479 -8.42862 4.95
      vertex -0.549988 -6.97949 3
      vertex -2.12757 -8.12567 4.95
    endloop
  endfacet
  facet normal 0 0 1
    outer loop
      vertex -2.49999 2.80418 4.95
      vertex -4.39283 2.80418 4.95
      vertex -2.49999 -6.97949 4.95
    endloop
  endfacet
  facet normal 0 0 1
    outer loop
      vertex 15.1568 16.4918 4.95
      vertex 16.5 15 4.95
      vertex 16.4672 15.3119 4.95
    endloop
  endfacet
  facet normal 0 0 1
    outer loop
      vertex 16.5 15 4.95
      vertex 3.872 6.6875 4.95
      vertex 16.5 -15 4.95
    endloop
  endfacet
  facet normal 0 0 1
    outer loop
      vertex 15.1568 16.4918 4.95
      vertex 16.4672 15.3119 4.95
      vertex 16.3703 15.6101 4.95
    endloop
  endfacet
  facet normal -0 0 1
    outer loop
      vertex 3.872 -6.97949 4.95
      vertex 16.5 -15 4.95
      vertex 3.872 6.6875 4.95
    endloop
  endfacet
  facet normal 0 0 1
    outer loop
      vertex 15.1568 16.4918 4.95
      vertex 16.3703 15.6101 4.95
      vertex 16.2135 15.8817 4.95
    endloop
  endfacet
  facet normal -0 0 1
    outer loop
      vertex 3.82938 -7.38492 4.95
      vertex 16.5 -15 4.95
      vertex 3.872 -6.97949 4.95
    endloop
  endfacet
  facet normal 0 0 1
    outer loop
      vertex 15.1568 16.4918 4.95
      vertex 16.2135 15.8817 4.95
      vertex 16.0037 16.1147 4.95
    endloop
  endfacet
  facet normal -0 0 1
    outer loop
      vertex 3.70341 -7.77263 4.95
      vertex 16.5 -15 4.95
      vertex 3.82938 -7.38492 4.95
    endloop
  endfacet
  facet normal 0 0 1
    outer loop
      vertex 15.1568 16.4918 4.95
      vertex 16.0037 16.1147 4.95
      vertex 15.75 16.299 4.95
    endloop
  endfacet
  facet normal 0 -0 1
    outer loop
      vertex 15.1568 -16.4918 4.95
      vertex 16.5 -15 4.95
      vertex 3.70341 -7.77263 4.95
    endloop
  endfacet
  facet normal 0 0 1
    outer loop
      vertex 15.1568 16.4918 4.95
      vertex 15.75 16.299 4.95
      vertex 15.4635 16.4266 4.95
    endloop
  endfacet
  facet normal 0 0 1
    outer loop
      vertex 16.4672 -15.3119 4.95
      vertex 15.1568 -16.4918 4.95
      vertex 16.3703 -15.6101 4.95
    endloop
  endfacet
  facet normal 0 0 1
    outer loop
      vertex 16.5 15 4.95
      vertex 15.1568 16.4918 4.95
      vertex 3.70341 7.48064 4.95
    endloop
  endfacet
  facet normal 0 0 1
    outer loop
      vertex 16.3703 -15.6101 4.95
      vertex 15.1568 -16.4918 4.95
      vertex 16.2135 -15.8817 4.95
    endloop
  endfacet
  facet normal 0 0 1
    outer loop
      vertex 16.0037 -16.1147 4.95
      vertex 15.1568 -16.4918 4.95
      vertex 15.75 -16.299 4.95
    endloop
  endfacet
  facet normal 0 0 1
    outer loop
      vertex 16.5 15 4.95
      vertex 3.82938 7.09293 4.95
      vertex 3.872 6.6875 4.95
    endloop
  endfacet
  facet normal 0 0 1
    outer loop
      vertex 16.5 15 4.95
      vertex 3.70341 7.48064 4.95
      vertex 3.82938 7.09293 4.95
    endloop
  endfacet
  facet normal 0 0 1
    outer loop
      vertex 15.1568 16.4918 4.95
      vertex 3.49958 7.83368 4.95
      vertex 3.70341 7.48064 4.95
    endloop
  endfacet
  facet normal 0 0 1
    outer loop
      vertex 15.1568 16.4918 4.95
      vertex 3.2268 8.13663 4.95
      vertex 3.49958 7.83368 4.95
    endloop
  endfacet
  facet normal 0 0 1
    outer loop
      vertex 15.1568 16.4918 4.95
      vertex 2.897 8.37625 4.95
      vertex 3.2268 8.13663 4.95
    endloop
  endfacet
  facet normal 0 0 1
    outer loop
      vertex 15.1568 16.4918 4.95
      vertex 2.52458 8.54206 4.95
      vertex 2.897 8.37625 4.95
    endloop
  endfacet
  facet normal 0 0 1
    outer loop
      vertex 15.1568 16.4918 4.95
      vertex 2.12583 8.62682 4.95
      vertex 2.52458 8.54206 4.95
    endloop
  endfacet
  facet normal -0 0 1
    outer loop
      vertex -15.1568 16.4918 4.95
      vertex 2.12583 8.62682 4.95
      vertex 15.1568 16.4918 4.95
    endloop
  endfacet
  facet normal 0 0 1
    outer loop
      vertex 2.12583 8.62682 4.95
      vertex -15.1568 16.4918 4.95
      vertex -4.39283 8.62682 4.95
    endloop
  endfacet
  facet normal 0 0 1
    outer loop
      vertex -6.09638 7.09293 4.95
      vertex -16.5 15 4.95
      vertex -6.139 6.6875 4.95
    endloop
  endfacet
  facet normal 0 0 1
    outer loop
      vertex -5.97041 7.48064 4.95
      vertex -16.5 15 4.95
      vertex -6.09638 7.09293 4.95
    endloop
  endfacet
  facet normal 0 0 1
    outer loop
      vertex -5.76658 7.83368 4.95
      vertex -16.5 15 4.95
      vertex -5.97041 7.48064 4.95
    endloop
  endfacet
  facet normal -0 0 1
    outer loop
      vertex -16.5 15 4.95
      vertex -5.76658 7.83368 4.95
      vertex -15.1568 16.4918 4.95
    endloop
  endfacet
  facet normal 0 0 1
    outer loop
      vertex -5.4938 8.13663 4.95
      vertex -15.1568 16.4918 4.95
      vertex -5.76658 7.83368 4.95
    endloop
  endfacet
  facet normal 0 0 1
    outer loop
      vertex -5.164 8.37625 4.95
      vertex -15.1568 16.4918 4.95
      vertex -5.4938 8.13663 4.95
    endloop
  endfacet
  facet normal 0 0 1
    outer loop
      vertex -4.79158 8.54206 4.95
      vertex -15.1568 16.4918 4.95
      vertex -5.164 8.37625 4.95
    endloop
  endfacet
  facet normal 0 0 1
    outer loop
      vertex -4.39283 8.62682 4.95
      vertex -15.1568 16.4918 4.95
      vertex -4.79158 8.54206 4.95
    endloop
  endfacet
  facet normal 0 0 1
    outer loop
      vertex 15.75 -16.299 4.95
      vertex 15.1568 -16.4918 4.95
      vertex 15.4635 -16.4266 4.95
    endloop
  endfacet
  facet normal 0 0 1
    outer loop
      vertex 16.2135 -15.8817 4.95
      vertex 15.1568 -16.4918 4.95
      vertex 16.0037 -16.1147 4.95
    endloop
  endfacet
  facet normal 0 0 1
    outer loop
      vertex 16.5 -15 4.95
      vertex 15.1568 -16.4918 4.95
      vertex 16.4672 -15.3119 4.95
    endloop
  endfacet
  facet normal -0 0 1
    outer loop
      vertex 3.49958 -8.12567 4.95
      vertex 15.1568 -16.4918 4.95
      vertex 3.70341 -7.77263 4.95
    endloop
  endfacet
  facet normal -0 0 1
    outer loop
      vertex 3.2268 -8.42862 4.95
      vertex 15.1568 -16.4918 4.95
      vertex 3.49958 -8.12567 4.95
    endloop
  endfacet
  facet normal -0 0 1
    outer loop
      vertex 2.897 -8.66824 4.95
      vertex 15.1568 -16.4918 4.95
      vertex 3.2268 -8.42862 4.95
    endloop
  endfacet
  facet normal -0 0 1
    outer loop
      vertex 2.52458 -8.83405 4.95
      vertex 15.1568 -16.4918 4.95
      vertex 2.897 -8.66824 4.95
    endloop
  endfacet
  facet normal -0 0 1
    outer loop
      vertex 2.12583 -8.91881 4.95
      vertex 15.1568 -16.4918 4.95
      vertex 2.52458 -8.83405 4.95
    endloop
  endfacet
  facet normal -0 0 1
    outer loop
      vertex -0.753818 -8.91881 4.95
      vertex 15.1568 -16.4918 4.95
      vertex 2.12583 -8.91881 4.95
    endloop
  endfacet
  facet normal 0 0 1
    outer loop
      vertex -15.1568 -16.4918 4.95
      vertex -0.753818 -8.91881 4.95
      vertex -1.15257 -8.83405 4.95
    endloop
  endfacet
  facet normal 0 0 1
    outer loop
      vertex -15.1568 -16.4918 4.95
      vertex -1.15257 -8.83405 4.95
      vertex -1.52499 -8.66824 4.95
    endloop
  endfacet
  facet normal 0 0 1
    outer loop
      vertex -4.79158 2.88894 4.95
      vertex -2.49999 -6.97949 4.95
      vertex -4.39283 2.80418 4.95
    endloop
  endfacet
  facet normal 0 0 1
    outer loop
      vertex -5.164 3.05475 4.95
      vertex -2.49999 -6.97949 4.95
      vertex -4.79158 2.88894 4.95
    endloop
  endfacet
  facet normal 0 0 1
    outer loop
      vertex -5.4938 3.29437 4.95
      vertex -2.49999 -6.97949 4.95
      vertex -5.164 3.05475 4.95
    endloop
  endfacet
  facet normal 0 0 1
    outer loop
      vertex -16.5 -15 4.95
      vertex -2.49999 -6.97949 4.95
      vertex -5.4938 3.29437 4.95
    endloop
  endfacet
  facet normal 0 0 1
    outer loop
      vertex -16.5 -15 4.95
      vertex -5.4938 3.29437 4.95
      vertex -5.76658 3.59732 4.95
    endloop
  endfacet
  facet normal 0 0 1
    outer loop
      vertex -16.5 -15 4.95
      vertex -5.76658 3.59732 4.95
      vertex -5.97041 3.95036 4.95
    endloop
  endfacet
  facet normal 0 0 1
    outer loop
      vertex -16.5 -15 4.95
      vertex -5.97041 3.95036 4.95
      vertex -6.09638 4.33807 4.95
    endloop
  endfacet
  facet normal 0 0 1
    outer loop
      vertex -6.139 6.6875 4.95
      vertex -16.5 15 4.95
      vertex -6.139 4.7435 4.95
    endloop
  endfacet
  facet normal 0 0 1
    outer loop
      vertex -6.139 4.7435 4.95
      vertex -16.5 15 4.95
      vertex -6.09638 4.33807 4.95
    endloop
  endfacet
  facet normal 0 0 1
    outer loop
      vertex -16.5 -15 4.95
      vertex -6.09638 4.33807 4.95
      vertex -16.5 15 4.95
    endloop
  endfacet
  facet normal 0 0 1
    outer loop
      vertex -0.753818 -8.91881 4.95
      vertex -15.1568 -16.4918 4.95
      vertex 15.1568 -16.4918 4.95
    endloop
  endfacet
  facet normal 0 0 1
    outer loop
      vertex -1.85479 -8.42862 4.95
      vertex -15.1568 -16.4918 4.95
      vertex -1.52499 -8.66824 4.95
    endloop
  endfacet
  facet normal 0 0 1
    outer loop
      vertex -2.12757 -8.12567 4.95
      vertex -15.1568 -16.4918 4.95
      vertex -1.85479 -8.42862 4.95
    endloop
  endfacet
  facet normal 0 0 1
    outer loop
      vertex -2.3314 -7.77263 4.95
      vertex -15.1568 -16.4918 4.95
      vertex -2.12757 -8.12567 4.95
    endloop
  endfacet
  facet normal 0 0 1
    outer loop
      vertex -2.49999 -6.97949 4.95
      vertex -16.5 -15 4.95
      vertex -2.45738 -7.38492 4.95
    endloop
  endfacet
  facet normal 0 0 1
    outer loop
      vertex -16.5 15 4.95
      vertex -15.1568 16.4918 4.95
      vertex -15.4635 16.4266 4.95
    endloop
  endfacet
  facet normal 0 0 1
    outer loop
      vertex -2.45738 -7.38492 4.95
      vertex -16.5 -15 4.95
      vertex -2.3314 -7.77263 4.95
    endloop
  endfacet
  facet normal 0 0 1
    outer loop
      vertex -16.5 15 4.95
      vertex -15.4635 16.4266 4.95
      vertex -15.75 16.299 4.95
    endloop
  endfacet
  facet normal 0 0 1
    outer loop
      vertex -2.3314 -7.77263 4.95
      vertex -16.5 -15 4.95
      vertex -15.1568 -16.4918 4.95
    endloop
  endfacet
  facet normal 0 0 1
    outer loop
      vertex -16.5 15 4.95
      vertex -15.75 16.299 4.95
      vertex -16.0037 16.1147 4.95
    endloop
  endfacet
  facet normal 0 0 1
    outer loop
      vertex -15.1568 -16.4918 4.95
      vertex -16.5 -15 4.95
      vertex -15.4635 -16.4266 4.95
    endloop
  endfacet
  facet normal 0 0 1
    outer loop
      vertex -16.5 15 4.95
      vertex -16.0037 16.1147 4.95
      vertex -16.2135 15.8817 4.95
    endloop
  endfacet
  facet normal 0 0 1
    outer loop
      vertex -15.4635 -16.4266 4.95
      vertex -16.5 -15 4.95
      vertex -15.75 -16.299 4.95
    endloop
  endfacet
  facet normal 0 0 1
    outer loop
      vertex -16.5 15 4.95
      vertex -16.2135 15.8817 4.95
      vertex -16.3703 15.6101 4.95
    endloop
  endfacet
  facet normal 0 0 1
    outer loop
      vertex -15.75 -16.299 4.95
      vertex -16.5 -15 4.95
      vertex -16.0037 -16.1147 4.95
    endloop
  endfacet
  facet normal 0 0 1
    outer loop
      vertex -16.5 15 4.95
      vertex -16.3703 15.6101 4.95
      vertex -16.4672 15.3119 4.95
    endloop
  endfacet
  facet normal 0 0 1
    outer loop
      vertex -16.0037 -16.1147 4.95
      vertex -16.5 -15 4.95
      vertex -16.2135 -15.8817 4.95
    endloop
  endfacet
  facet normal 0 0 1
    outer loop
      vertex -16.2135 -15.8817 4.95
      vertex -16.5 -15 4.95
      vertex -16.3703 -15.6101 4.95
    endloop
  endfacet
  facet normal 0 0 1
    outer loop
      vertex -16.3703 -15.6101 4.95
      vertex -16.5 -15 4.95
      vertex -16.4672 -15.3119 4.95
    endloop
  endfacet
endsolid OpenSCAD_Model
