solid OpenSCAD_Model
  facet normal 0 -1 0
    outer loop
      vertex -16.8136 -19.4836 0
      vertex 16.8136 -19.4836 8.01
      vertex -16.8136 -19.4836 8.01
    endloop
  endfacet
  facet normal 0 -1 -0
    outer loop
      vertex 16.8136 -19.4836 8.01
      vertex -16.8136 -19.4836 0
      vertex 16.8136 -19.4836 0
    endloop
  endfacet
  facet normal 1 -0 0
    outer loop
      vertex 19.5 -16.5 8.01
      vertex 19.5 16.5 0
      vertex 19.5 16.5 8.01
    endloop
  endfacet
  facet normal 1 0 0
    outer loop
      vertex 19.5 16.5 0
      vertex 19.5 -16.5 8.01
      vertex 19.5 -16.5 0
    endloop
  endfacet
  facet normal -0.207914 -0.978147 0
    outer loop
      vertex -17.4271 -19.3532 0
      vertex -16.8136 -19.4836 8.01
      vertex -17.4271 -19.3532 8.01
    endloop
  endfacet
  facet normal -0.207914 -0.978147 -0
    outer loop
      vertex -16.8136 -19.4836 8.01
      vertex -17.4271 -19.3532 0
      vertex -16.8136 -19.4836 0
    endloop
  endfacet
  facet normal 0.207914 0.978147 -0
    outer loop
      vertex 17.4271 19.3532 0
      vertex 16.8136 19.4836 8.01
      vertex 17.4271 19.3532 8.01
    endloop
  endfacet
  facet normal 0.207914 0.978147 0
    outer loop
      vertex 16.8136 19.4836 8.01
      vertex 17.4271 19.3532 0
      vertex 16.8136 19.4836 0
    endloop
  endfacet
  facet normal 0.866027 0.499997 0
    outer loop
      vertex 19.2406 17.7202 8.01
      vertex 18.9271 18.2634 0
      vertex 18.9271 18.2634 8.01
    endloop
  endfacet
  facet normal 0.866027 0.499997 0
    outer loop
      vertex 18.9271 18.2634 0
      vertex 19.2406 17.7202 8.01
      vertex 19.2406 17.7202 0
    endloop
  endfacet
  facet normal 0.994522 0.104529 0
    outer loop
      vertex 19.5 16.5 8.01
      vertex 19.4344 17.1237 0
      vertex 19.4344 17.1237 8.01
    endloop
  endfacet
  facet normal 0.994522 0.104529 0
    outer loop
      vertex 19.4344 17.1237 0
      vertex 19.5 16.5 8.01
      vertex 19.5 16.5 0
    endloop
  endfacet
  facet normal -0.866027 0.499997 0
    outer loop
      vertex -19.2406 17.7202 0
      vertex -18.9271 18.2634 8.01
      vertex -18.9271 18.2634 0
    endloop
  endfacet
  facet normal -0.866027 0.499997 0
    outer loop
      vertex -18.9271 18.2634 8.01
      vertex -19.2406 17.7202 0
      vertex -19.2406 17.7202 8.01
    endloop
  endfacet
  facet normal 0.951056 -0.309018 0
    outer loop
      vertex 19.2406 -17.7202 8.01
      vertex 19.4344 -17.1237 0
      vertex 19.4344 -17.1237 8.01
    endloop
  endfacet
  facet normal 0.951056 -0.309018 0
    outer loop
      vertex 19.4344 -17.1237 0
      vertex 19.2406 -17.7202 8.01
      vertex 19.2406 -17.7202 0
    endloop
  endfacet
  facet normal 0.994522 -0.104529 0
    outer loop
      vertex 19.4344 -17.1237 8.01
      vertex 19.5 -16.5 0
      vertex 19.5 -16.5 8.01
    endloop
  endfacet
  facet normal 0.994522 -0.104529 0
    outer loop
      vertex 19.5 -16.5 0
      vertex 19.4344 -17.1237 8.01
      vertex 19.4344 -17.1237 0
    endloop
  endfacet
  facet normal 0.587785 -0.809017 0
    outer loop
      vertex 18 -19.0981 0
      vertex 18.5074 -18.7294 8.01
      vertex 18 -19.0981 8.01
    endloop
  endfacet
  facet normal 0.587785 -0.809017 0
    outer loop
      vertex 18.5074 -18.7294 8.01
      vertex 18 -19.0981 0
      vertex 18.5074 -18.7294 0
    endloop
  endfacet
  facet normal -0.406736 -0.913546 0
    outer loop
      vertex -18 -19.0981 0
      vertex -17.4271 -19.3532 8.01
      vertex -18 -19.0981 8.01
    endloop
  endfacet
  facet normal -0.406736 -0.913546 -0
    outer loop
      vertex -17.4271 -19.3532 8.01
      vertex -18 -19.0981 0
      vertex -17.4271 -19.3532 0
    endloop
  endfacet
  facet normal 0 1 -0
    outer loop
      vertex 16.8136 19.4836 0
      vertex -16.8136 19.4836 8.01
      vertex 16.8136 19.4836 8.01
    endloop
  endfacet
  facet normal 0 1 0
    outer loop
      vertex -16.8136 19.4836 8.01
      vertex 16.8136 19.4836 0
      vertex -16.8136 19.4836 0
    endloop
  endfacet
  facet normal 0.951056 0.309018 0
    outer loop
      vertex 19.4344 17.1237 8.01
      vertex 19.2406 17.7202 0
      vertex 19.2406 17.7202 8.01
    endloop
  endfacet
  facet normal 0.951056 0.309018 0
    outer loop
      vertex 19.2406 17.7202 0
      vertex 19.4344 17.1237 8.01
      vertex 19.4344 17.1237 0
    endloop
  endfacet
  facet normal 0.587785 0.809017 -0
    outer loop
      vertex 18.5074 18.7294 0
      vertex 18 19.0981 8.01
      vertex 18.5074 18.7294 8.01
    endloop
  endfacet
  facet normal 0.587785 0.809017 0
    outer loop
      vertex 18 19.0981 8.01
      vertex 18.5074 18.7294 0
      vertex 18 19.0981 0
    endloop
  endfacet
  facet normal 0.406736 0.913546 -0
    outer loop
      vertex 18 19.0981 0
      vertex 17.4271 19.3532 8.01
      vertex 18 19.0981 8.01
    endloop
  endfacet
  facet normal 0.406736 0.913546 0
    outer loop
      vertex 17.4271 19.3532 8.01
      vertex 18 19.0981 0
      vertex 17.4271 19.3532 0
    endloop
  endfacet
  facet normal 0.743144 0.669131 0
    outer loop
      vertex 18.9271 18.2634 8.01
      vertex 18.5074 18.7294 0
      vertex 18.5074 18.7294 8.01
    endloop
  endfacet
  facet normal 0.743144 0.669131 0
    outer loop
      vertex 18.5074 18.7294 0
      vertex 18.9271 18.2634 8.01
      vertex 18.9271 18.2634 0
    endloop
  endfacet
  facet normal -1 0 0
    outer loop
      vertex -19.5 -16.5 0
      vertex -19.5 16.5 8.01
      vertex -19.5 16.5 0
    endloop
  endfacet
  facet normal -1 -0 0
    outer loop
      vertex -19.5 16.5 8.01
      vertex -19.5 -16.5 0
      vertex -19.5 -16.5 8.01
    endloop
  endfacet
  facet normal 0.866027 -0.499997 0
    outer loop
      vertex 18.9271 -18.2634 8.01
      vertex 19.2406 -17.7202 0
      vertex 19.2406 -17.7202 8.01
    endloop
  endfacet
  facet normal 0.866027 -0.499997 0
    outer loop
      vertex 19.2406 -17.7202 0
      vertex 18.9271 -18.2634 8.01
      vertex 18.9271 -18.2634 0
    endloop
  endfacet
  facet normal 0.743144 -0.669131 0
    outer loop
      vertex 18.5074 -18.7294 8.01
      vertex 18.9271 -18.2634 0
      vertex 18.9271 -18.2634 8.01
    endloop
  endfacet
  facet normal 0.743144 -0.669131 0
    outer loop
      vertex 18.9271 -18.2634 0
      vertex 18.5074 -18.7294 8.01
      vertex 18.5074 -18.7294 0
    endloop
  endfacet
  facet normal -0.743144 0.669131 0
    outer loop
      vertex -18.9271 18.2634 0
      vertex -18.5074 18.7294 8.01
      vertex -18.5074 18.7294 0
    endloop
  endfacet
  facet normal -0.743144 0.669131 0
    outer loop
      vertex -18.5074 18.7294 8.01
      vertex -18.9271 18.2634 0
      vertex -18.9271 18.2634 8.01
    endloop
  endfacet
  facet normal -0.743144 -0.669131 0
    outer loop
      vertex -18.5074 -18.7294 0
      vertex -18.9271 -18.2634 8.01
      vertex -18.9271 -18.2634 0
    endloop
  endfacet
  facet normal -0.743144 -0.669131 0
    outer loop
      vertex -18.9271 -18.2634 8.01
      vertex -18.5074 -18.7294 0
      vertex -18.5074 -18.7294 8.01
    endloop
  endfacet
  facet normal 0 0 -1
    outer loop
      vertex 16.8136 -19.4836 0
      vertex 19.5 -16.5 0
      vertex 19.4344 -17.1237 0
    endloop
  endfacet
  facet normal 0 0 -1
    outer loop
      vertex -19.5 -16.5 0
      vertex 19.5 -16.5 0
      vertex 16.8136 -19.4836 0
    endloop
  endfacet
  facet normal 0 0 -1
    outer loop
      vertex 16.8136 -19.4836 0
      vertex 19.4344 -17.1237 0
      vertex 19.2406 -17.7202 0
    endloop
  endfacet
  facet normal 0 0 -1
    outer loop
      vertex 19.5 -16.5 0
      vertex -19.5 -16.5 0
      vertex 19.5 16.5 0
    endloop
  endfacet
  facet normal 0 0 -1
    outer loop
      vertex 16.8136 -19.4836 0
      vertex 19.2406 -17.7202 0
      vertex 18.9271 -18.2634 0
    endloop
  endfacet
  facet normal 0 0 -1
    outer loop
      vertex 19.5 16.5 0
      vertex 16.8136 19.4836 0
      vertex 19.4344 17.1237 0
    endloop
  endfacet
  facet normal 0 0 -1
    outer loop
      vertex 16.8136 -19.4836 0
      vertex 18.9271 -18.2634 0
      vertex 18.5074 -18.7294 0
    endloop
  endfacet
  facet normal 0 0 -1
    outer loop
      vertex 19.4344 17.1237 0
      vertex 16.8136 19.4836 0
      vertex 19.2406 17.7202 0
    endloop
  endfacet
  facet normal 0 0 -1
    outer loop
      vertex 16.8136 -19.4836 0
      vertex 18.5074 -18.7294 0
      vertex 18 -19.0981 0
    endloop
  endfacet
  facet normal 0 0 -1
    outer loop
      vertex 19.2406 17.7202 0
      vertex 16.8136 19.4836 0
      vertex 18.9271 18.2634 0
    endloop
  endfacet
  facet normal 0 0 -1
    outer loop
      vertex 16.8136 -19.4836 0
      vertex 18 -19.0981 0
      vertex 17.4271 -19.3532 0
    endloop
  endfacet
  facet normal 0 0 -1
    outer loop
      vertex 18.9271 18.2634 0
      vertex 16.8136 19.4836 0
      vertex 18.5074 18.7294 0
    endloop
  endfacet
  facet normal 0 0 -1
    outer loop
      vertex 18.5074 18.7294 0
      vertex 16.8136 19.4836 0
      vertex 18 19.0981 0
    endloop
  endfacet
  facet normal 0 0 -1
    outer loop
      vertex 18 19.0981 0
      vertex 16.8136 19.4836 0
      vertex 17.4271 19.3532 0
    endloop
  endfacet
  facet normal 0 0 -1
    outer loop
      vertex -19.5 -16.5 0
      vertex 16.8136 -19.4836 0
      vertex -16.8136 -19.4836 0
    endloop
  endfacet
  facet normal 0 0 -1
    outer loop
      vertex -19.5 16.5 0
      vertex 19.5 16.5 0
      vertex -19.5 -16.5 0
    endloop
  endfacet
  facet normal 0 0 -1
    outer loop
      vertex -19.5 -16.5 0
      vertex -16.8136 -19.4836 0
      vertex -17.4271 -19.3532 0
    endloop
  endfacet
  facet normal 0 0 -1
    outer loop
      vertex 19.5 16.5 0
      vertex -19.5 16.5 0
      vertex 16.8136 19.4836 0
    endloop
  endfacet
  facet normal 0 0 -1
    outer loop
      vertex -19.5 -16.5 0
      vertex -17.4271 -19.3532 0
      vertex -18 -19.0981 0
    endloop
  endfacet
  facet normal -0 0 -1
    outer loop
      vertex 16.8136 19.4836 0
      vertex -19.5 16.5 0
      vertex -16.8136 19.4836 0
    endloop
  endfacet
  facet normal 0 0 -1
    outer loop
      vertex -19.5 -16.5 0
      vertex -18 -19.0981 0
      vertex -18.5074 -18.7294 0
    endloop
  endfacet
  facet normal 0 0 -1
    outer loop
      vertex -16.8136 19.4836 0
      vertex -19.5 16.5 0
      vertex -17.4271 19.3532 0
    endloop
  endfacet
  facet normal 0 0 -1
    outer loop
      vertex -19.5 -16.5 0
      vertex -18.5074 -18.7294 0
      vertex -18.9271 -18.2634 0
    endloop
  endfacet
  facet normal 0 0 -1
    outer loop
      vertex -17.4271 19.3532 0
      vertex -19.5 16.5 0
      vertex -18 19.0981 0
    endloop
  endfacet
  facet normal 0 0 -1
    outer loop
      vertex -19.5 -16.5 0
      vertex -18.9271 -18.2634 0
      vertex -19.2406 -17.7202 0
    endloop
  endfacet
  facet normal 0 0 -1
    outer loop
      vertex -18 19.0981 0
      vertex -19.5 16.5 0
      vertex -18.5074 18.7294 0
    endloop
  endfacet
  facet normal 0 0 -1
    outer loop
      vertex -19.5 -16.5 0
      vertex -19.2406 -17.7202 0
      vertex -19.4344 -17.1237 0
    endloop
  endfacet
  facet normal 0 0 -1
    outer loop
      vertex -18.5074 18.7294 0
      vertex -19.5 16.5 0
      vertex -18.9271 18.2634 0
    endloop
  endfacet
  facet normal 0 0 -1
    outer loop
      vertex -18.9271 18.2634 0
      vertex -19.5 16.5 0
      vertex -19.2406 17.7202 0
    endloop
  endfacet
  facet normal 0 0 -1
    outer loop
      vertex -19.2406 17.7202 0
      vertex -19.5 16.5 0
      vertex -19.4344 17.1237 0
    endloop
  endfacet
  facet normal -0.994522 0.104529 0
    outer loop
      vertex -19.5 16.5 0
      vertex -19.4344 17.1237 8.01
      vertex -19.4344 17.1237 0
    endloop
  endfacet
  facet normal -0.994522 0.104529 0
    outer loop
      vertex -19.4344 17.1237 8.01
      vertex -19.5 16.5 0
      vertex -19.5 16.5 8.01
    endloop
  endfacet
  facet normal 0 0 1
    outer loop
      vertex 16.2135 15.8817 8.01
      vertex 19.5 16.5 8.01
      vertex 19.4344 17.1237 8.01
    endloop
  endfacet
  facet normal 0 0 1
    outer loop
      vertex 19.5 16.5 8.01
      vertex 16.5 15 8.01
      vertex 19.5 -16.5 8.01
    endloop
  endfacet
  facet normal 0 0 1
    outer loop
      vertex 16.2135 15.8817 8.01
      vertex 19.4344 17.1237 8.01
      vertex 19.2406 17.7202 8.01
    endloop
  endfacet
  facet normal -0 0 1
    outer loop
      vertex 16.5 -15 8.01
      vertex 19.5 -16.5 8.01
      vertex 16.5 15 8.01
    endloop
  endfacet
  facet normal 0 0 1
    outer loop
      vertex 16.2135 15.8817 8.01
      vertex 19.2406 17.7202 8.01
      vertex 18.9271 18.2634 8.01
    endloop
  endfacet
  facet normal -0 0 1
    outer loop
      vertex 16.4672 -15.3119 8.01
      vertex 19.5 -16.5 8.01
      vertex 16.5 -15 8.01
    endloop
  endfacet
  facet normal 0 0 1
    outer loop
      vertex 16.0037 16.1147 8.01
      vertex 18.9271 18.2634 8.01
      vertex 18.5074 18.7294 8.01
    endloop
  endfacet
  facet normal -0 0 1
    outer loop
      vertex 16.3703 -15.6101 8.01
      vertex 19.5 -16.5 8.01
      vertex 16.4672 -15.3119 8.01
    endloop
  endfacet
  facet normal 0 0 1
    outer loop
      vertex 16.0037 16.1147 8.01
      vertex 18.5074 18.7294 8.01
      vertex 18 19.0981 8.01
    endloop
  endfacet
  facet normal -0 0 1
    outer loop
      vertex 16.2135 -15.8817 8.01
      vertex 19.5 -16.5 8.01
      vertex 16.3703 -15.6101 8.01
    endloop
  endfacet
  facet normal 0 0 1
    outer loop
      vertex 16.0037 16.1147 8.01
      vertex 18 19.0981 8.01
      vertex 17.4271 19.3532 8.01
    endloop
  endfacet
  facet normal 0 0 1
    outer loop
      vertex 19.5 -16.5 8.01
      vertex 16.2135 -15.8817 8.01
      vertex 19.4344 -17.1237 8.01
    endloop
  endfacet
  facet normal 0 0 1
    outer loop
      vertex 15.75 16.299 8.01
      vertex 17.4271 19.3532 8.01
      vertex 16.8136 19.4836 8.01
    endloop
  endfacet
  facet normal 0 0 1
    outer loop
      vertex 19.4344 -17.1237 8.01
      vertex 16.2135 -15.8817 8.01
      vertex 19.2406 -17.7202 8.01
    endloop
  endfacet
  facet normal 0 0 1
    outer loop
      vertex 19.2406 -17.7202 8.01
      vertex 16.2135 -15.8817 8.01
      vertex 18.9271 -18.2634 8.01
    endloop
  endfacet
  facet normal 0 0 1
    outer loop
      vertex 19.5 16.5 8.01
      vertex 16.4672 15.3119 8.01
      vertex 16.5 15 8.01
    endloop
  endfacet
  facet normal 0 0 1
    outer loop
      vertex 19.5 16.5 8.01
      vertex 16.3703 15.6101 8.01
      vertex 16.4672 15.3119 8.01
    endloop
  endfacet
  facet normal 0 0 1
    outer loop
      vertex 19.5 16.5 8.01
      vertex 16.2135 15.8817 8.01
      vertex 16.3703 15.6101 8.01
    endloop
  endfacet
  facet normal 0 0 1
    outer loop
      vertex 18.9271 18.2634 8.01
      vertex 16.0037 16.1147 8.01
      vertex 16.2135 15.8817 8.01
    endloop
  endfacet
  facet normal 0 0 1
    outer loop
      vertex 17.4271 19.3532 8.01
      vertex 15.75 16.299 8.01
      vertex 16.0037 16.1147 8.01
    endloop
  endfacet
  facet normal 0 0 1
    outer loop
      vertex 16.8136 19.4836 8.01
      vertex 15.4635 16.4266 8.01
      vertex 15.75 16.299 8.01
    endloop
  endfacet
  facet normal 0 0 1
    outer loop
      vertex 16.8136 19.4836 8.01
      vertex 15.1568 16.4918 8.01
      vertex 15.4635 16.4266 8.01
    endloop
  endfacet
  facet normal 0 0 1
    outer loop
      vertex 16.8136 19.4836 8.01
      vertex -15.1568 16.4918 8.01
      vertex 15.1568 16.4918 8.01
    endloop
  endfacet
  facet normal 0 0 1
    outer loop
      vertex -16.0037 16.1147 8.01
      vertex -18.9271 18.2634 8.01
      vertex -16.2135 15.8817 8.01
    endloop
  endfacet
  facet normal -0 0 1
    outer loop
      vertex -18.9271 18.2634 8.01
      vertex -16.0037 16.1147 8.01
      vertex -18.5074 18.7294 8.01
    endloop
  endfacet
  facet normal -0 0 1
    outer loop
      vertex -18.5074 18.7294 8.01
      vertex -16.0037 16.1147 8.01
      vertex -18 19.0981 8.01
    endloop
  endfacet
  facet normal -0 0 1
    outer loop
      vertex -18 19.0981 8.01
      vertex -16.0037 16.1147 8.01
      vertex -17.4271 19.3532 8.01
    endloop
  endfacet
  facet normal 0 0 1
    outer loop
      vertex -15.75 16.299 8.01
      vertex -17.4271 19.3532 8.01
      vertex -16.0037 16.1147 8.01
    endloop
  endfacet
  facet normal -0 0 1
    outer loop
      vertex -17.4271 19.3532 8.01
      vertex -15.75 16.299 8.01
      vertex -16.8136 19.4836 8.01
    endloop
  endfacet
  facet normal 0 0 1
    outer loop
      vertex -15.4635 16.4266 8.01
      vertex -16.8136 19.4836 8.01
      vertex -15.75 16.299 8.01
    endloop
  endfacet
  facet normal 0 0 1
    outer loop
      vertex -15.1568 16.4918 8.01
      vertex -16.8136 19.4836 8.01
      vertex -15.4635 16.4266 8.01
    endloop
  endfacet
  facet normal -0 0 1
    outer loop
      vertex -16.8136 19.4836 8.01
      vertex -15.1568 16.4918 8.01
      vertex 16.8136 19.4836 8.01
    endloop
  endfacet
  facet normal -0 0 1
    outer loop
      vertex 16.0037 -16.1147 8.01
      vertex 18.9271 -18.2634 8.01
      vertex 16.2135 -15.8817 8.01
    endloop
  endfacet
  facet normal 0 0 1
    outer loop
      vertex 18.9271 -18.2634 8.01
      vertex 16.0037 -16.1147 8.01
      vertex 18.5074 -18.7294 8.01
    endloop
  endfacet
  facet normal 0 0 1
    outer loop
      vertex 18.5074 -18.7294 8.01
      vertex 16.0037 -16.1147 8.01
      vertex 18 -19.0981 8.01
    endloop
  endfacet
  facet normal 0 0 1
    outer loop
      vertex 18 -19.0981 8.01
      vertex 16.0037 -16.1147 8.01
      vertex 17.4271 -19.3532 8.01
    endloop
  endfacet
  facet normal -0 0 1
    outer loop
      vertex 15.75 -16.299 8.01
      vertex 17.4271 -19.3532 8.01
      vertex 16.0037 -16.1147 8.01
    endloop
  endfacet
  facet normal 0 0 1
    outer loop
      vertex 17.4271 -19.3532 8.01
      vertex 15.75 -16.299 8.01
      vertex 16.8136 -19.4836 8.01
    endloop
  endfacet
  facet normal -0 0 1
    outer loop
      vertex 15.4635 -16.4266 8.01
      vertex 16.8136 -19.4836 8.01
      vertex 15.75 -16.299 8.01
    endloop
  endfacet
  facet normal -0 0 1
    outer loop
      vertex 15.1568 -16.4918 8.01
      vertex 16.8136 -19.4836 8.01
      vertex 15.4635 -16.4266 8.01
    endloop
  endfacet
  facet normal -0 0 1
    outer loop
      vertex -15.1568 -16.4918 8.01
      vertex 16.8136 -19.4836 8.01
      vertex 15.1568 -16.4918 8.01
    endloop
  endfacet
  facet normal 0 0 1
    outer loop
      vertex -15.1568 -16.4918 8.01
      vertex -16.8136 -19.4836 8.01
      vertex 16.8136 -19.4836 8.01
    endloop
  endfacet
  facet normal 0 0 1
    outer loop
      vertex -15.4635 -16.4266 8.01
      vertex -16.8136 -19.4836 8.01
      vertex -15.1568 -16.4918 8.01
    endloop
  endfacet
  facet normal 0 0 1
    outer loop
      vertex -15.75 -16.299 8.01
      vertex -16.8136 -19.4836 8.01
      vertex -15.4635 -16.4266 8.01
    endloop
  endfacet
  facet normal 0 0 1
    outer loop
      vertex -17.4271 -19.3532 8.01
      vertex -15.75 -16.299 8.01
      vertex -16.0037 -16.1147 8.01
    endloop
  endfacet
  facet normal 0 0 1
    outer loop
      vertex -18.9271 -18.2634 8.01
      vertex -16.0037 -16.1147 8.01
      vertex -16.2135 -15.8817 8.01
    endloop
  endfacet
  facet normal 0 0 1
    outer loop
      vertex -19.5 -16.5 8.01
      vertex -16.2135 -15.8817 8.01
      vertex -16.3703 -15.6101 8.01
    endloop
  endfacet
  facet normal 0 0 1
    outer loop
      vertex -19.5 -16.5 8.01
      vertex -16.3703 -15.6101 8.01
      vertex -16.4672 -15.3119 8.01
    endloop
  endfacet
  facet normal 0 0 1
    outer loop
      vertex -19.5 -16.5 8.01
      vertex -16.4672 -15.3119 8.01
      vertex -16.5 -15 8.01
    endloop
  endfacet
  facet normal 0 0 1
    outer loop
      vertex -16.5 15 8.01
      vertex -19.5 16.5 8.01
      vertex -16.5 -15 8.01
    endloop
  endfacet
  facet normal -0 0 1
    outer loop
      vertex -19.2406 17.7202 8.01
      vertex -16.2135 15.8817 8.01
      vertex -18.9271 18.2634 8.01
    endloop
  endfacet
  facet normal 0 0 1
    outer loop
      vertex -19.5 -16.5 8.01
      vertex -16.5 -15 8.01
      vertex -19.5 16.5 8.01
    endloop
  endfacet
  facet normal -0 0 1
    outer loop
      vertex -19.4344 17.1237 8.01
      vertex -16.2135 15.8817 8.01
      vertex -19.2406 17.7202 8.01
    endloop
  endfacet
  facet normal 0 0 1
    outer loop
      vertex -16.2135 -15.8817 8.01
      vertex -19.5 -16.5 8.01
      vertex -19.4344 -17.1237 8.01
    endloop
  endfacet
  facet normal -0 0 1
    outer loop
      vertex -19.5 16.5 8.01
      vertex -16.2135 15.8817 8.01
      vertex -19.4344 17.1237 8.01
    endloop
  endfacet
  facet normal 0 0 1
    outer loop
      vertex -15.75 -16.299 8.01
      vertex -17.4271 -19.3532 8.01
      vertex -16.8136 -19.4836 8.01
    endloop
  endfacet
  facet normal 0 0 1
    outer loop
      vertex -16.2135 15.8817 8.01
      vertex -19.5 16.5 8.01
      vertex -16.3703 15.6101 8.01
    endloop
  endfacet
  facet normal 0 0 1
    outer loop
      vertex -16.0037 -16.1147 8.01
      vertex -18 -19.0981 8.01
      vertex -17.4271 -19.3532 8.01
    endloop
  endfacet
  facet normal 0 0 1
    outer loop
      vertex -16.3703 15.6101 8.01
      vertex -19.5 16.5 8.01
      vertex -16.4672 15.3119 8.01
    endloop
  endfacet
  facet normal 0 0 1
    outer loop
      vertex -16.0037 -16.1147 8.01
      vertex -18.5074 -18.7294 8.01
      vertex -18 -19.0981 8.01
    endloop
  endfacet
  facet normal 0 0 1
    outer loop
      vertex -16.4672 15.3119 8.01
      vertex -19.5 16.5 8.01
      vertex -16.5 15 8.01
    endloop
  endfacet
  facet normal 0 0 1
    outer loop
      vertex -16.0037 -16.1147 8.01
      vertex -18.9271 -18.2634 8.01
      vertex -18.5074 -18.7294 8.01
    endloop
  endfacet
  facet normal 0 0 1
    outer loop
      vertex -16.2135 -15.8817 8.01
      vertex -19.2406 -17.7202 8.01
      vertex -18.9271 -18.2634 8.01
    endloop
  endfacet
  facet normal 0 0 1
    outer loop
      vertex -16.2135 -15.8817 8.01
      vertex -19.4344 -17.1237 8.01
      vertex -19.2406 -17.7202 8.01
    endloop
  endfacet
  facet normal 0.406736 -0.913546 0
    outer loop
      vertex 17.4271 -19.3532 0
      vertex 18 -19.0981 8.01
      vertex 17.4271 -19.3532 8.01
    endloop
  endfacet
  facet normal 0.406736 -0.913546 0
    outer loop
      vertex 18 -19.0981 8.01
      vertex 17.4271 -19.3532 0
      vertex 18 -19.0981 0
    endloop
  endfacet
  facet normal 0.207914 -0.978147 0
    outer loop
      vertex 16.8136 -19.4836 0
      vertex 17.4271 -19.3532 8.01
      vertex 16.8136 -19.4836 8.01
    endloop
  endfacet
  facet normal 0.207914 -0.978147 0
    outer loop
      vertex 17.4271 -19.3532 8.01
      vertex 16.8136 -19.4836 0
      vertex 17.4271 -19.3532 0
    endloop
  endfacet
  facet normal -0.406736 0.913546 0
    outer loop
      vertex -17.4271 19.3532 0
      vertex -18 19.0981 8.01
      vertex -17.4271 19.3532 8.01
    endloop
  endfacet
  facet normal -0.406736 0.913546 0
    outer loop
      vertex -18 19.0981 8.01
      vertex -17.4271 19.3532 0
      vertex -18 19.0981 0
    endloop
  endfacet
  facet normal -0.207914 0.978147 0
    outer loop
      vertex -16.8136 19.4836 0
      vertex -17.4271 19.3532 8.01
      vertex -16.8136 19.4836 8.01
    endloop
  endfacet
  facet normal -0.207914 0.978147 0
    outer loop
      vertex -17.4271 19.3532 8.01
      vertex -16.8136 19.4836 0
      vertex -17.4271 19.3532 0
    endloop
  endfacet
  facet normal -0.587785 0.809017 0
    outer loop
      vertex -18 19.0981 0
      vertex -18.5074 18.7294 8.01
      vertex -18 19.0981 8.01
    endloop
  endfacet
  facet normal -0.587785 0.809017 0
    outer loop
      vertex -18.5074 18.7294 8.01
      vertex -18 19.0981 0
      vertex -18.5074 18.7294 0
    endloop
  endfacet
  facet normal -0.587785 -0.809017 0
    outer loop
      vertex -18.5074 -18.7294 0
      vertex -18 -19.0981 8.01
      vertex -18.5074 -18.7294 8.01
    endloop
  endfacet
  facet normal -0.587785 -0.809017 -0
    outer loop
      vertex -18 -19.0981 8.01
      vertex -18.5074 -18.7294 0
      vertex -18 -19.0981 0
    endloop
  endfacet
  facet normal -0.994522 -0.104529 0
    outer loop
      vertex -19.4344 -17.1237 0
      vertex -19.5 -16.5 8.01
      vertex -19.5 -16.5 0
    endloop
  endfacet
  facet normal -0.994522 -0.104529 0
    outer loop
      vertex -19.5 -16.5 8.01
      vertex -19.4344 -17.1237 0
      vertex -19.4344 -17.1237 8.01
    endloop
  endfacet
  facet normal -0.951056 0.309018 0
    outer loop
      vertex -19.4344 17.1237 0
      vertex -19.2406 17.7202 8.01
      vertex -19.2406 17.7202 0
    endloop
  endfacet
  facet normal -0.951056 0.309018 0
    outer loop
      vertex -19.2406 17.7202 8.01
      vertex -19.4344 17.1237 0
      vertex -19.4344 17.1237 8.01
    endloop
  endfacet
  facet normal -0.951056 -0.309018 0
    outer loop
      vertex -19.2406 -17.7202 0
      vertex -19.4344 -17.1237 8.01
      vertex -19.4344 -17.1237 0
    endloop
  endfacet
  facet normal -0.951056 -0.309018 0
    outer loop
      vertex -19.4344 -17.1237 8.01
      vertex -19.2406 -17.7202 0
      vertex -19.2406 -17.7202 8.01
    endloop
  endfacet
  facet normal -0.866027 -0.499997 0
    outer loop
      vertex -18.9271 -18.2634 0
      vertex -19.2406 -17.7202 8.01
      vertex -19.2406 -17.7202 0
    endloop
  endfacet
  facet normal -0.866027 -0.499997 0
    outer loop
      vertex -19.2406 -17.7202 8.01
      vertex -18.9271 -18.2634 0
      vertex -18.9271 -18.2634 8.01
    endloop
  endfacet
  facet normal -0.994522 -0.104532 0
    outer loop
      vertex 16.5 15 4.95
      vertex 16.4672 15.3119 8.01
      vertex 16.4672 15.3119 4.95
    endloop
  endfacet
  facet normal -0.994522 -0.104532 0
    outer loop
      vertex 16.4672 15.3119 8.01
      vertex 16.5 15 4.95
      vertex 16.5 15 8.01
    endloop
  endfacet
  facet normal 0 1 -0
    outer loop
      vertex 15.1568 -16.4918 4.95
      vertex -15.1568 -16.4918 8.01
      vertex 15.1568 -16.4918 8.01
    endloop
  endfacet
  facet normal 0 1 0
    outer loop
      vertex -15.1568 -16.4918 8.01
      vertex 15.1568 -16.4918 4.95
      vertex -15.1568 -16.4918 4.95
    endloop
  endfacet
  facet normal -0.207915 -0.978147 0
    outer loop
      vertex 15.1568 16.4918 4.95
      vertex 15.4635 16.4266 8.01
      vertex 15.1568 16.4918 8.01
    endloop
  endfacet
  facet normal -0.207915 -0.978147 -0
    outer loop
      vertex 15.4635 16.4266 8.01
      vertex 15.1568 16.4918 4.95
      vertex 15.4635 16.4266 4.95
    endloop
  endfacet
  facet normal -1 0 0
    outer loop
      vertex 16.5 -15 4.95
      vertex 16.5 15 8.01
      vertex 16.5 15 4.95
    endloop
  endfacet
  facet normal -1 -0 0
    outer loop
      vertex 16.5 15 8.01
      vertex 16.5 -15 4.95
      vertex 16.5 -15 8.01
    endloop
  endfacet
  facet normal 0 -1 0
    outer loop
      vertex -15.1568 16.4918 4.95
      vertex 15.1568 16.4918 8.01
      vertex -15.1568 16.4918 8.01
    endloop
  endfacet
  facet normal 0 -1 -0
    outer loop
      vertex 15.1568 16.4918 8.01
      vertex -15.1568 16.4918 4.95
      vertex 15.1568 16.4918 4.95
    endloop
  endfacet
  facet normal -0.743146 -0.669129 0
    outer loop
      vertex 16.2135 15.8817 4.95
      vertex 16.0037 16.1147 8.01
      vertex 16.0037 16.1147 4.95
    endloop
  endfacet
  facet normal -0.743146 -0.669129 0
    outer loop
      vertex 16.0037 16.1147 8.01
      vertex 16.2135 15.8817 4.95
      vertex 16.2135 15.8817 8.01
    endloop
  endfacet
  facet normal -0.587788 0.809015 0
    outer loop
      vertex 16.0037 -16.1147 4.95
      vertex 15.75 -16.299 8.01
      vertex 16.0037 -16.1147 8.01
    endloop
  endfacet
  facet normal -0.587788 0.809015 0
    outer loop
      vertex 15.75 -16.299 8.01
      vertex 16.0037 -16.1147 4.95
      vertex 15.75 -16.299 4.95
    endloop
  endfacet
  facet normal 0.994522 0.104532 0
    outer loop
      vertex -16.4672 -15.3119 8.01
      vertex -16.5 -15 4.95
      vertex -16.5 -15 8.01
    endloop
  endfacet
  facet normal 0.994522 0.104532 0
    outer loop
      vertex -16.5 -15 4.95
      vertex -16.4672 -15.3119 8.01
      vertex -16.4672 -15.3119 4.95
    endloop
  endfacet
  facet normal 0.207915 0.978147 -0
    outer loop
      vertex -15.1568 -16.4918 4.95
      vertex -15.4635 -16.4266 8.01
      vertex -15.1568 -16.4918 8.01
    endloop
  endfacet
  facet normal 0.207915 0.978147 0
    outer loop
      vertex -15.4635 -16.4266 8.01
      vertex -15.1568 -16.4918 4.95
      vertex -15.4635 -16.4266 4.95
    endloop
  endfacet
  facet normal 1 -0 0
    outer loop
      vertex -16.5 -15 8.01
      vertex -16.5 15 4.95
      vertex -16.5 15 8.01
    endloop
  endfacet
  facet normal 1 0 0
    outer loop
      vertex -16.5 15 4.95
      vertex -16.5 -15 8.01
      vertex -16.5 -15 4.95
    endloop
  endfacet
  facet normal 0.587786 -0.809016 0
    outer loop
      vertex -16.0037 16.1147 4.95
      vertex -15.75 16.299 8.01
      vertex -16.0037 16.1147 8.01
    endloop
  endfacet
  facet normal 0.587786 -0.809016 0
    outer loop
      vertex -15.75 16.299 8.01
      vertex -16.0037 16.1147 4.95
      vertex -15.75 16.299 4.95
    endloop
  endfacet
  facet normal -0.406735 -0.913546 0
    outer loop
      vertex 15.4635 16.4266 4.95
      vertex 15.75 16.299 8.01
      vertex 15.4635 16.4266 8.01
    endloop
  endfacet
  facet normal -0.406735 -0.913546 -0
    outer loop
      vertex 15.75 16.299 8.01
      vertex 15.4635 16.4266 4.95
      vertex 15.75 16.299 4.95
    endloop
  endfacet
  facet normal -0.587788 -0.809015 0
    outer loop
      vertex 15.75 16.299 4.95
      vertex 16.0037 16.1147 8.01
      vertex 15.75 16.299 8.01
    endloop
  endfacet
  facet normal -0.587788 -0.809015 -0
    outer loop
      vertex 16.0037 16.1147 8.01
      vertex 15.75 16.299 4.95
      vertex 16.0037 16.1147 4.95
    endloop
  endfacet
  facet normal -0.866024 -0.500002 0
    outer loop
      vertex 16.3703 15.6101 4.95
      vertex 16.2135 15.8817 8.01
      vertex 16.2135 15.8817 4.95
    endloop
  endfacet
  facet normal -0.866024 -0.500002 0
    outer loop
      vertex 16.2135 15.8817 8.01
      vertex 16.3703 15.6101 4.95
      vertex 16.3703 15.6101 8.01
    endloop
  endfacet
  facet normal -0.951057 -0.309016 0
    outer loop
      vertex 16.4672 15.3119 4.95
      vertex 16.3703 15.6101 8.01
      vertex 16.3703 15.6101 4.95
    endloop
  endfacet
  facet normal -0.951057 -0.309016 0
    outer loop
      vertex 16.3703 15.6101 8.01
      vertex 16.4672 15.3119 4.95
      vertex 16.4672 15.3119 8.01
    endloop
  endfacet
  facet normal -0.951057 0.309016 0
    outer loop
      vertex 16.3703 -15.6101 4.95
      vertex 16.4672 -15.3119 8.01
      vertex 16.4672 -15.3119 4.95
    endloop
  endfacet
  facet normal -0.951057 0.309016 0
    outer loop
      vertex 16.4672 -15.3119 8.01
      vertex 16.3703 -15.6101 4.95
      vertex 16.3703 -15.6101 8.01
    endloop
  endfacet
  facet normal 0.406735 0.913546 -0
    outer loop
      vertex -15.4635 -16.4266 4.95
      vertex -15.75 -16.299 8.01
      vertex -15.4635 -16.4266 8.01
    endloop
  endfacet
  facet normal 0.406735 0.913546 0
    outer loop
      vertex -15.75 -16.299 8.01
      vertex -15.4635 -16.4266 4.95
      vertex -15.75 -16.299 4.95
    endloop
  endfacet
  facet normal 0.994522 -0.104532 0
    outer loop
      vertex -16.5 15 8.01
      vertex -16.4672 15.3119 4.95
      vertex -16.4672 15.3119 8.01
    endloop
  endfacet
  facet normal 0.994522 -0.104532 0
    outer loop
      vertex -16.4672 15.3119 4.95
      vertex -16.5 15 8.01
      vertex -16.5 15 4.95
    endloop
  endfacet
  facet normal 0.207915 -0.978147 0
    outer loop
      vertex -15.4635 16.4266 4.95
      vertex -15.1568 16.4918 8.01
      vertex -15.4635 16.4266 8.01
    endloop
  endfacet
  facet normal 0.207915 -0.978147 0
    outer loop
      vertex -15.1568 16.4918 8.01
      vertex -15.4635 16.4266 4.95
      vertex -15.1568 16.4918 4.95
    endloop
  endfacet
  facet normal 0.406736 -0.913546 0
    outer loop
      vertex -15.75 16.299 4.95
      vertex -15.4635 16.4266 8.01
      vertex -15.75 16.299 8.01
    endloop
  endfacet
  facet normal 0.406736 -0.913546 0
    outer loop
      vertex -15.4635 16.4266 8.01
      vertex -15.75 16.299 4.95
      vertex -15.4635 16.4266 4.95
    endloop
  endfacet
  facet normal -0.994522 0.104532 0
    outer loop
      vertex 16.4672 -15.3119 4.95
      vertex 16.5 -15 8.01
      vertex 16.5 -15 4.95
    endloop
  endfacet
  facet normal -0.994522 0.104532 0
    outer loop
      vertex 16.5 -15 8.01
      vertex 16.4672 -15.3119 4.95
      vertex 16.4672 -15.3119 8.01
    endloop
  endfacet
  facet normal -0.406735 0.913546 0
    outer loop
      vertex 15.75 -16.299 4.95
      vertex 15.4635 -16.4266 8.01
      vertex 15.75 -16.299 8.01
    endloop
  endfacet
  facet normal -0.406735 0.913546 0
    outer loop
      vertex 15.4635 -16.4266 8.01
      vertex 15.75 -16.299 4.95
      vertex 15.4635 -16.4266 4.95
    endloop
  endfacet
  facet normal -0.207915 0.978147 0
    outer loop
      vertex 15.4635 -16.4266 4.95
      vertex 15.1568 -16.4918 8.01
      vertex 15.4635 -16.4266 8.01
    endloop
  endfacet
  facet normal -0.207915 0.978147 0
    outer loop
      vertex 15.1568 -16.4918 8.01
      vertex 15.4635 -16.4266 4.95
      vertex 15.1568 -16.4918 4.95
    endloop
  endfacet
  facet normal 0.743146 0.669129 0
    outer loop
      vertex -16.0037 -16.1147 8.01
      vertex -16.2135 -15.8817 4.95
      vertex -16.2135 -15.8817 8.01
    endloop
  endfacet
  facet normal 0.743146 0.669129 0
    outer loop
      vertex -16.2135 -15.8817 4.95
      vertex -16.0037 -16.1147 8.01
      vertex -16.0037 -16.1147 4.95
    endloop
  endfacet
  facet normal 0.951057 -0.309016 0
    outer loop
      vertex -16.4672 15.3119 8.01
      vertex -16.3703 15.6101 4.95
      vertex -16.3703 15.6101 8.01
    endloop
  endfacet
  facet normal 0.951057 -0.309016 0
    outer loop
      vertex -16.3703 15.6101 4.95
      vertex -16.4672 15.3119 8.01
      vertex -16.4672 15.3119 4.95
    endloop
  endfacet
  facet normal 0.866024 -0.500002 0
    outer loop
      vertex -16.3703 15.6101 8.01
      vertex -16.2135 15.8817 4.95
      vertex -16.2135 15.8817 8.01
    endloop
  endfacet
  facet normal 0.866024 -0.500002 0
    outer loop
      vertex -16.2135 15.8817 4.95
      vertex -16.3703 15.6101 8.01
      vertex -16.3703 15.6101 4.95
    endloop
  endfacet
  facet normal 0.743146 -0.669129 0
    outer loop
      vertex -16.2135 15.8817 8.01
      vertex -16.0037 16.1147 4.95
      vertex -16.0037 16.1147 8.01
    endloop
  endfacet
  facet normal 0.743146 -0.669129 0
    outer loop
      vertex -16.0037 16.1147 4.95
      vertex -16.2135 15.8817 8.01
      vertex -16.2135 15.8817 4.95
    endloop
  endfacet
  facet normal -0.743146 0.669129 0
    outer loop
      vertex 16.0037 -16.1147 4.95
      vertex 16.2135 -15.8817 8.01
      vertex 16.2135 -15.8817 4.95
    endloop
  endfacet
  facet normal -0.743146 0.669129 0
    outer loop
      vertex 16.2135 -15.8817 8.01
      vertex 16.0037 -16.1147 4.95
      vertex 16.0037 -16.1147 8.01
    endloop
  endfacet
  facet normal 0.587788 0.809015 -0
    outer loop
      vertex -15.75 -16.299 4.95
      vertex -16.0037 -16.1147 8.01
      vertex -15.75 -16.299 8.01
    endloop
  endfacet
  facet normal 0.587788 0.809015 0
    outer loop
      vertex -16.0037 -16.1147 8.01
      vertex -15.75 -16.299 4.95
      vertex -16.0037 -16.1147 4.95
    endloop
  endfacet
  facet normal -0.866024 0.500002 0
    outer loop
      vertex 16.2135 -15.8817 4.95
      vertex 16.3703 -15.6101 8.01
      vertex 16.3703 -15.6101 4.95
    endloop
  endfacet
  facet normal -0.866024 0.500002 0
    outer loop
      vertex 16.3703 -15.6101 8.01
      vertex 16.2135 -15.8817 4.95
      vertex 16.2135 -15.8817 8.01
    endloop
  endfacet
  facet normal 0.866024 0.500002 0
    outer loop
      vertex -16.2135 -15.8817 8.01
      vertex -16.3703 -15.6101 4.95
      vertex -16.3703 -15.6101 8.01
    endloop
  endfacet
  facet normal 0.866024 0.500002 0
    outer loop
      vertex -16.3703 -15.6101 4.95
      vertex -16.2135 -15.8817 8.01
      vertex -16.2135 -15.8817 4.95
    endloop
  endfacet
  facet normal 0.951057 0.309016 0
    outer loop
      vertex -16.3703 -15.6101 8.01
      vertex -16.4672 -15.3119 4.95
      vertex -16.4672 -15.3119 8.01
    endloop
  endfacet
  facet normal 0.951057 0.309016 0
    outer loop
      vertex -16.4672 -15.3119 4.95
      vertex -16.3703 -15.6101 8.01
      vertex -16.3703 -15.6101 4.95
    endloop
  endfacet
  facet normal 0.707107 0 0.707107
    outer loop
      vertex 1.52519 -11.976 3
      vertex -0.424808 -6.47131 4.95
      vertex -0.424808 -11.976 4.95
    endloop
  endfacet
  facet normal 0.707107 0 0.707107
    outer loop
      vertex -0.424808 -6.47131 4.95
      vertex 1.52519 -11.976 3
      vertex 1.52519 -4.532 3
    endloop
  endfacet
  facet normal -0.147418 0.693552 0.705162
    outer loop
      vertex 4.20102 -13.9153 4.95
      vertex 4.59977 -13.8306 4.95
      vertex 3.99719 -11.976 3
    endloop
  endfacet
  facet normal 0.705162 0.0741159 0.705162
    outer loop
      vertex -0.382195 -12.3814 4.95
      vertex 1.52519 -11.976 3
      vertex -0.424808 -11.976 4.95
    endloop
  endfacet
  facet normal -0.674343 0.219108 0.705162
    outer loop
      vertex 5.7786 -12.7691 4.95
      vertex 5.90458 -12.3814 4.95
      vertex 3.99719 -11.976 3
    endloop
  endfacet
  facet normal -0 0 1
    outer loop
      vertex -5.66679 11.542 3
      vertex -3.19479 11.181 3
      vertex -3.19479 11.542 3
    endloop
  endfacet
  facet normal 0 0 1
    outer loop
      vertex -3.19479 11.181 3
      vertex -4.30942 7.64955 3
      vertex -3.68129 7.38924 3
    endloop
  endfacet
  facet normal 0 0 1
    outer loop
      vertex -3.19479 11.181 3
      vertex -4.80579 8.01399 3
      vertex -4.30942 7.64955 3
    endloop
  endfacet
  facet normal 0 0 1
    outer loop
      vertex -3.19479 11.181 3
      vertex -5.18248 8.5 3
      vertex -4.80579 8.01399 3
    endloop
  endfacet
  facet normal 0 0 1
    outer loop
      vertex -3.19479 11.181 3
      vertex -5.45777 9.1545 3
      vertex -5.18248 8.5 3
    endloop
  endfacet
  facet normal 0 0 1
    outer loop
      vertex -5.18248 8.5 3
      vertex -5.45777 9.1545 3
      vertex -5.45154 9.125 3
    endloop
  endfacet
  facet normal 0 0 1
    outer loop
      vertex -3.19479 11.181 3
      vertex -5.47647 9.243 3
      vertex -5.45777 9.1545 3
    endloop
  endfacet
  facet normal 0 0 1
    outer loop
      vertex -3.19479 11.181 3
      vertex -5.50764 9.39049 3
      vertex -5.47647 9.243 3
    endloop
  endfacet
  facet normal 0 0 1
    outer loop
      vertex -3.19479 11.181 3
      vertex -5.55127 9.59698 3
      vertex -5.50764 9.39049 3
    endloop
  endfacet
  facet normal 0 0 1
    outer loop
      vertex -3.19479 11.181 3
      vertex -5.60959 9.87299 3
      vertex -5.55127 9.59698 3
    endloop
  endfacet
  facet normal 0 0 1
    outer loop
      vertex -3.19479 11.181 3
      vertex -5.63324 10.229 3
      vertex -5.60959 9.87299 3
    endloop
  endfacet
  facet normal 0 0 1
    outer loop
      vertex -5.60959 9.87299 3
      vertex -5.63324 10.229 3
      vertex -5.61298 9.88899 3
    endloop
  endfacet
  facet normal 0 0 1
    outer loop
      vertex -3.19479 11.181 3
      vertex -5.65922 10.665 3
      vertex -5.63324 10.229 3
    endloop
  endfacet
  facet normal 0 0 1
    outer loop
      vertex -3.19479 11.181 3
      vertex -5.66679 11.542 3
      vertex -5.66679 10.792 3
    endloop
  endfacet
  facet normal 0 0 1
    outer loop
      vertex -3.19479 11.181 3
      vertex -5.66679 10.792 3
      vertex -5.65922 10.665 3
    endloop
  endfacet
  facet normal -0 0 1
    outer loop
      vertex -5.41879 -2.58699 3
      vertex 1.52519 -4.532 3
      vertex 1.52519 -2.58699 3
    endloop
  endfacet
  facet normal 0 0 1
    outer loop
      vertex 1.52519 -4.532 3
      vertex -5.41879 -2.58699 3
      vertex -5.41879 -4.532 3
    endloop
  endfacet
  facet normal 0 0 1
    outer loop
      vertex 1.52519 -2.58699 3
      vertex 3.99719 9.125 3
      vertex 1.52519 7.181 3
    endloop
  endfacet
  facet normal -0 0 1
    outer loop
      vertex -1.4458 9.125 3
      vertex 1.52519 7.181 3
      vertex 3.99719 9.125 3
    endloop
  endfacet
  facet normal 0 0 1
    outer loop
      vertex -2.0298 7.181 3
      vertex -1.4458 9.125 3
      vertex -1.89491 9.1545 3
    endloop
  endfacet
  facet normal 0 0 1
    outer loop
      vertex -1.4458 9.125 3
      vertex -2.0298 7.181 3
      vertex 1.52519 7.181 3
    endloop
  endfacet
  facet normal 0 0 1
    outer loop
      vertex -2.27129 9.243 3
      vertex -2.0298 7.181 3
      vertex -1.89491 9.1545 3
    endloop
  endfacet
  facet normal 0 0 1
    outer loop
      vertex -2.92142 7.23305 3
      vertex -2.27129 9.243 3
      vertex -2.57492 9.39049 3
    endloop
  endfacet
  facet normal 0 0 1
    outer loop
      vertex -3.68129 7.38924 3
      vertex -2.57492 9.39049 3
      vertex -2.80579 9.59698 3
    endloop
  endfacet
  facet normal 0 0 1
    outer loop
      vertex -2.27129 9.243 3
      vertex -2.92142 7.23305 3
      vertex -2.0298 7.181 3
    endloop
  endfacet
  facet normal 0 0 1
    outer loop
      vertex -3.68129 7.38924 3
      vertex -2.80579 9.59698 3
      vertex -2.97598 9.87299 3
    endloop
  endfacet
  facet normal 0 0 1
    outer loop
      vertex -3.68129 7.38924 3
      vertex -2.97598 9.87299 3
      vertex -3.09755 10.229 3
    endloop
  endfacet
  facet normal 0 0 1
    outer loop
      vertex -3.68129 7.38924 3
      vertex -3.09755 10.229 3
      vertex -3.17049 10.665 3
    endloop
  endfacet
  facet normal 0 0 1
    outer loop
      vertex -2.57492 9.39049 3
      vertex -3.68129 7.38924 3
      vertex -2.92142 7.23305 3
    endloop
  endfacet
  facet normal 0 0 1
    outer loop
      vertex -3.68129 7.38924 3
      vertex -3.17049 10.665 3
      vertex -3.19479 11.181 3
    endloop
  endfacet
  facet normal 0 0 1
    outer loop
      vertex 3.99719 9.125 3
      vertex 1.52519 -2.58699 3
      vertex 3.99719 -11.976 3
    endloop
  endfacet
  facet normal -0 0 1
    outer loop
      vertex 1.52519 -4.532 3
      vertex 3.99719 -11.976 3
      vertex 1.52519 -2.58699 3
    endloop
  endfacet
  facet normal 0 0 1
    outer loop
      vertex 3.99719 -11.976 3
      vertex 1.52519 -4.532 3
      vertex 1.52519 -11.976 3
    endloop
  endfacet
  facet normal 0.526924 0.474445 0.705162
    outer loop
      vertex 0.220388 -13.4251 4.95
      vertex 1.52519 -11.976 3
      vertex -0.0523902 -13.1222 4.95
    endloop
  endfacet
  facet normal 0.416767 0.573631 0.705162
    outer loop
      vertex 0.550192 -13.6647 4.95
      vertex 1.52519 -11.976 3
      vertex 0.220388 -13.4251 4.95
    endloop
  endfacet
  facet normal -0.526924 0.474445 0.705162
    outer loop
      vertex 5.302 -13.4251 4.95
      vertex 5.57477 -13.1222 4.95
      vertex 3.99719 -11.976 3
    endloop
  endfacet
  facet normal -0.707107 0 0.707107
    outer loop
      vertex 3.99719 -11.976 3
      vertex 5.94719 9.125 4.95
      vertex 3.99719 9.125 3
    endloop
  endfacet
  facet normal -0.707107 0 0.707107
    outer loop
      vertex 5.94719 9.125 4.95
      vertex 3.99719 -11.976 3
      vertex 5.94719 -11.976 4.95
    endloop
  endfacet
  facet normal -0.705162 0.0741163 0.705162
    outer loop
      vertex 5.90458 -12.3814 4.95
      vertex 5.94719 -11.976 4.95
      vertex 3.99719 -11.976 3
    endloop
  endfacet
  facet normal 0.674343 0.219108 0.705162
    outer loop
      vertex -0.256221 -12.7691 4.95
      vertex 1.52519 -11.976 3
      vertex -0.382195 -12.3814 4.95
    endloop
  endfacet
  facet normal -0.614053 0.354522 0.705162
    outer loop
      vertex 5.57477 -13.1222 4.95
      vertex 5.7786 -12.7691 4.95
      vertex 3.99719 -11.976 3
    endloop
  endfacet
  facet normal 0 0.709046 0.705162
    outer loop
      vertex 3.99719 -11.976 3
      vertex 1.32136 -13.9153 4.95
      vertex 4.20102 -13.9153 4.95
    endloop
  endfacet
  facet normal 0 0.709046 0.705162
    outer loop
      vertex 1.32136 -13.9153 4.95
      vertex 3.99719 -11.976 3
      vertex 1.52519 -11.976 3
    endloop
  endfacet
  facet normal 0.614053 0.354523 0.705162
    outer loop
      vertex -0.0523902 -13.1222 4.95
      vertex 1.52519 -11.976 3
      vertex -0.256221 -12.7691 4.95
    endloop
  endfacet
  facet normal 0.288396 0.647746 0.705162
    outer loop
      vertex 0.92261 -13.8306 4.95
      vertex 1.52519 -11.976 3
      vertex 0.550192 -13.6647 4.95
    endloop
  endfacet
  facet normal 0.147418 0.693552 0.705162
    outer loop
      vertex 1.32136 -13.9153 4.95
      vertex 1.52519 -11.976 3
      vertex 0.92261 -13.8306 4.95
    endloop
  endfacet
  facet normal -0.288397 0.647745 0.705162
    outer loop
      vertex 4.59977 -13.8306 4.95
      vertex 4.97219 -13.6647 4.95
      vertex 3.99719 -11.976 3
    endloop
  endfacet
  facet normal -0.416766 0.573631 0.705162
    outer loop
      vertex 4.97219 -13.6647 4.95
      vertex 5.302 -13.4251 4.95
      vertex 3.99719 -11.976 3
    endloop
  endfacet
  facet normal 0.705162 -0.0741162 0.705162
    outer loop
      vertex -5.41879 -2.58699 3
      vertex -7.32618 -2.18156 4.95
      vertex -7.36879 -2.58699 4.95
    endloop
  endfacet
  facet normal 0 -0.709046 0.705162
    outer loop
      vertex -5.41879 -2.58699 3
      vertex -0.424808 -0.647673 4.95
      vertex -5.62262 -0.647673 4.95
    endloop
  endfacet
  facet normal 0 -0.709046 0.705162
    outer loop
      vertex -0.424808 -0.647673 4.95
      vertex -5.41879 -2.58699 3
      vertex 1.52519 -2.58699 3
    endloop
  endfacet
  facet normal 0.147418 -0.693552 0.705162
    outer loop
      vertex -5.41879 -2.58699 3
      vertex -5.62262 -0.647673 4.95
      vertex -6.02138 -0.73243 4.95
    endloop
  endfacet
  facet normal 0.707107 -0 0.707107
    outer loop
      vertex -7.36879 -4.532 4.95
      vertex -5.41879 -2.58699 3
      vertex -7.36879 -2.58699 4.95
    endloop
  endfacet
  facet normal 0.707107 0 0.707107
    outer loop
      vertex -5.41879 -2.58699 3
      vertex -7.36879 -4.532 4.95
      vertex -5.41879 -4.532 3
    endloop
  endfacet
  facet normal 0.526924 -0.474445 0.705162
    outer loop
      vertex -5.41879 -2.58699 3
      vertex -6.7236 -1.13786 4.95
      vertex -6.99638 -1.44081 4.95
    endloop
  endfacet
  facet normal 0.614053 -0.354523 0.705162
    outer loop
      vertex -5.41879 -2.58699 3
      vertex -6.99638 -1.44081 4.95
      vertex -7.20021 -1.79385 4.95
    endloop
  endfacet
  facet normal 0.614053 0.354522 0.705162
    outer loop
      vertex -6.99638 -5.67818 4.95
      vertex -5.41879 -4.532 3
      vertex -7.20021 -5.32513 4.95
    endloop
  endfacet
  facet normal 0.288396 0.647746 0.705162
    outer loop
      vertex -6.02138 -6.38656 4.95
      vertex -5.41879 -4.532 3
      vertex -6.39379 -6.22075 4.95
    endloop
  endfacet
  facet normal 0.674343 -0.219108 0.705162
    outer loop
      vertex -5.41879 -2.58699 3
      vertex -7.20021 -1.79385 4.95
      vertex -7.32618 -2.18156 4.95
    endloop
  endfacet
  facet normal 0.147418 0.693552 0.705162
    outer loop
      vertex -5.62262 -6.47131 4.95
      vertex -5.41879 -4.532 3
      vertex -6.02138 -6.38656 4.95
    endloop
  endfacet
  facet normal 0.288396 -0.647746 0.705162
    outer loop
      vertex -5.41879 -2.58699 3
      vertex -6.02138 -0.73243 4.95
      vertex -6.39379 -0.898242 4.95
    endloop
  endfacet
  facet normal 0.416767 -0.57363 0.705162
    outer loop
      vertex -5.41879 -2.58699 3
      vertex -6.39379 -0.898242 4.95
      vertex -6.7236 -1.13786 4.95
    endloop
  endfacet
  facet normal 0.416767 0.57363 0.705162
    outer loop
      vertex -6.39379 -6.22075 4.95
      vertex -5.41879 -4.532 3
      vertex -6.7236 -5.98113 4.95
    endloop
  endfacet
  facet normal 0.705162 0.0741162 0.705162
    outer loop
      vertex -7.32618 -4.93743 4.95
      vertex -5.41879 -4.532 3
      vertex -7.36879 -4.532 4.95
    endloop
  endfacet
  facet normal -0 0.709046 0.705162
    outer loop
      vertex -5.41879 -4.532 3
      vertex -0.424808 -6.47131 4.95
      vertex 1.52519 -4.532 3
    endloop
  endfacet
  facet normal 0 0.709046 0.705162
    outer loop
      vertex -0.424808 -6.47131 4.95
      vertex -5.41879 -4.532 3
      vertex -5.62262 -6.47131 4.95
    endloop
  endfacet
  facet normal 0.674343 0.219108 0.705162
    outer loop
      vertex -7.20021 -5.32513 4.95
      vertex -5.41879 -4.532 3
      vertex -7.32618 -4.93743 4.95
    endloop
  endfacet
  facet normal 0.526923 0.474445 0.705162
    outer loop
      vertex -6.7236 -5.98113 4.95
      vertex -5.41879 -4.532 3
      vertex -6.99638 -5.67818 4.95
    endloop
  endfacet
  facet normal 0.707107 -0 0.707107
    outer loop
      vertex -0.424808 -0.647673 4.95
      vertex 1.52519 7.181 3
      vertex -0.424808 5.24168 4.95
    endloop
  endfacet
  facet normal 0.707107 0 0.707107
    outer loop
      vertex 1.52519 7.181 3
      vertex -0.424808 -0.647673 4.95
      vertex 1.52519 -2.58699 3
    endloop
  endfacet
  facet normal 0.691831 0.146187 0.707106
    outer loop
      vertex -5.47647 9.243 3
      vertex -7.36516 8.74907 4.95
      vertex -5.45777 9.1545 3
    endloop
  endfacet
  facet normal 0.691831 0.146187 0.707106
    outer loop
      vertex -7.36516 8.74907 4.95
      vertex -5.47647 9.243 3
      vertex -7.38386 8.83757 4.95
    endloop
  endfacet
  facet normal -0.162321 -0.689422 0.705938
    outer loop
      vertex -1.84489 10.427 4.25449
      vertex -1.7064 10.5746 4.43046
      vertex -1.73773 10.5453 4.3947
    endloop
  endfacet
  facet normal -0.162137 -0.689525 0.70588
    outer loop
      vertex -1.84489 10.427 4.25449
      vertex -1.89491 9.1545 3
      vertex -1.7064 10.5746 4.43046
    endloop
  endfacet
  facet normal -0.162136 -0.689525 0.70588
    outer loop
      vertex -1.89491 9.1545 3
      vertex -1.84489 10.427 4.25449
      vertex -2.27129 9.243 3
    endloop
  endfacet
  facet normal 0.69183 0.146189 0.707106
    outer loop
      vertex -5.50764 9.39049 3
      vertex -7.38386 8.83757 4.95
      vertex -5.47647 9.243 3
    endloop
  endfacet
  facet normal 0.69183 0.146189 0.707106
    outer loop
      vertex -7.38386 8.83757 4.95
      vertex -5.50764 9.39049 3
      vertex -7.41502 8.98506 4.95
    endloop
  endfacet
  facet normal -0.309502 -0.636743 0.706234
    outer loop
      vertex -1.91075 10.3611 4.16627
      vertex -1.84489 10.427 4.25449
      vertex -1.87705 10.3984 4.21467
    endloop
  endfacet
  facet normal -0.309354 -0.636849 0.706204
    outer loop
      vertex -1.91075 10.3611 4.16627
      vertex -2.27129 9.243 3
      vertex -1.84489 10.427 4.25449
    endloop
  endfacet
  facet normal -0.309352 -0.63685 0.706204
    outer loop
      vertex -2.27129 9.243 3
      vertex -1.91075 10.3611 4.16627
      vertex -2.57492 9.39049 3
    endloop
  endfacet
  facet normal 0.69183 0.146192 0.707106
    outer loop
      vertex -5.55127 9.59698 3
      vertex -7.41502 8.98506 4.95
      vertex -5.50764 9.39049 3
    endloop
  endfacet
  facet normal 0.69183 0.146192 0.707106
    outer loop
      vertex -7.41502 8.98506 4.95
      vertex -5.55127 9.59698 3
      vertex -7.45866 9.19156 4.95
    endloop
  endfacet
  facet normal -0.471412 -0.527042 0.707105
    outer loop
      vertex -2.57492 9.39049 3
      vertex -1.91075 10.3611 4.16627
      vertex -2.80579 9.59698 3
    endloop
  endfacet
  facet normal -0.000229199 -0.709034 0.705174
    outer loop
      vertex -1.4458 9.125 3
      vertex -1.2393 11.0643 4.95
      vertex -1.2423 11.0612 4.94685
    endloop
  endfacet
  facet normal 0 -0.709046 0.705162
    outer loop
      vertex -1.2393 11.0643 4.95
      vertex -1.4458 9.125 3
      vertex 3.99719 9.125 3
    endloop
  endfacet
  facet normal 0 -0.709046 0.705162
    outer loop
      vertex -1.2393 11.0643 4.95
      vertex 3.99719 9.125 3
      vertex 4.20102 11.0643 4.95
    endloop
  endfacet
  facet normal 0.649506 0.279608 0.70708
    outer loop
      vertex -7.23295 8.33186 4.95
      vertex -5.18248 8.5 3
      vertex -5.45154 9.125 3
    endloop
  endfacet
  facet normal 0.649506 0.279608 0.70708
    outer loop
      vertex -5.18248 8.5 3
      vertex -7.23295 8.33186 4.95
      vertex -6.96389 7.70686 4.95
    endloop
  endfacet
  facet normal -0.147418 -0.693552 0.705162
    outer loop
      vertex 4.59977 10.9796 4.95
      vertex 4.20102 11.0643 4.95
      vertex 3.99719 9.125 3
    endloop
  endfacet
  facet normal 0.142709 0.694291 0.705404
    outer loop
      vertex -3.88512 5.44992 4.95
      vertex -2.92142 7.23305 3
      vertex -3.68129 7.38924 3
    endloop
  endfacet
  facet normal 0.142709 0.694291 0.705404
    outer loop
      vertex -2.92142 7.23305 3
      vertex -3.88512 5.44992 4.95
      vertex -3.12525 5.29373 4.95
    endloop
  endfacet
  facet normal 0.559022 0.433285 0.706936
    outer loop
      vertex -5.18248 8.5 3
      vertex -6.38337 6.86781 4.95
      vertex -4.80579 8.01399 3
    endloop
  endfacet
  facet normal 0.559022 0.433285 0.706936
    outer loop
      vertex -6.38337 6.86781 4.95
      vertex -5.18248 8.5 3
      vertex -6.76006 7.35382 4.95
    endloop
  endfacet
  facet normal 0.147418 0.693552 0.705162
    outer loop
      vertex -3.88512 5.44992 4.95
      vertex -3.68129 7.38924 3
      vertex -4.28387 5.53468 4.95
    endloop
  endfacet
  facet normal -0.705162 -0.0741163 0.705162
    outer loop
      vertex 5.94719 9.125 4.95
      vertex 5.90458 9.53043 4.95
      vertex 3.99719 9.125 3
    endloop
  endfacet
  facet normal 0.416767 0.57363 0.705162
    outer loop
      vertex -5.28442 5.9608 4.95
      vertex -4.30942 7.64955 3
      vertex -5.61422 6.20042 4.95
    endloop
  endfacet
  facet normal -0 0.709046 0.705162
    outer loop
      vertex -2.0298 7.181 3
      vertex -0.424808 5.24168 4.95
      vertex 1.52519 7.181 3
    endloop
  endfacet
  facet normal 0 0.709046 0.705162
    outer loop
      vertex -0.424808 5.24168 4.95
      vertex -2.0298 7.181 3
      vertex -2.23363 5.24168 4.95
    endloop
  endfacet
  facet normal -0.674343 -0.219108 0.705162
    outer loop
      vertex 5.90458 9.53043 4.95
      vertex 5.7786 9.91814 4.95
      vertex 3.99719 9.125 3
    endloop
  endfacet
  facet normal -0.416767 -0.573631 0.705162
    outer loop
      vertex 5.302 10.5741 4.95
      vertex 4.97219 10.8137 4.95
      vertex 3.99719 9.125 3
    endloop
  endfacet
  facet normal -0.288396 -0.647746 0.705162
    outer loop
      vertex 4.97219 10.8137 4.95
      vertex 4.59977 10.9796 4.95
      vertex 3.99719 9.125 3
    endloop
  endfacet
  facet normal 0.271138 0.654244 0.706009
    outer loop
      vertex -4.912 5.79499 4.95
      vertex -3.68129 7.38924 3
      vertex -4.30942 7.64955 3
    endloop
  endfacet
  facet normal 0.271138 0.654244 0.706009
    outer loop
      vertex -3.68129 7.38924 3
      vertex -4.912 5.79499 4.95
      vertex -4.28387 5.53468 4.95
    endloop
  endfacet
  facet normal 0.419525 0.571392 0.705344
    outer loop
      vertex -4.80579 8.01399 3
      vertex -5.61422 6.20042 4.95
      vertex -4.30942 7.64955 3
    endloop
  endfacet
  facet normal 0.419525 0.571392 0.705344
    outer loop
      vertex -5.61422 6.20042 4.95
      vertex -4.80579 8.01399 3
      vertex -6.11059 6.56486 4.95
    endloop
  endfacet
  facet normal 0.0412291 0.706285 0.706726
    outer loop
      vertex -2.92142 7.23305 3
      vertex -2.23363 5.24168 4.95
      vertex -2.0298 7.181 3
    endloop
  endfacet
  facet normal 0.0412291 0.706285 0.706726
    outer loop
      vertex -2.23363 5.24168 4.95
      vertex -2.92142 7.23305 3
      vertex -3.12525 5.29373 4.95
    endloop
  endfacet
  facet normal -0.614053 -0.354522 0.705162
    outer loop
      vertex 5.7786 9.91814 4.95
      vertex 5.57477 10.2712 4.95
      vertex 3.99719 9.125 3
    endloop
  endfacet
  facet normal 0.674343 0.219108 0.705162
    outer loop
      vertex -7.23295 8.33186 4.95
      vertex -5.45154 9.125 3
      vertex -7.35893 8.71957 4.95
    endloop
  endfacet
  facet normal 0.288396 0.647746 0.705162
    outer loop
      vertex -4.912 5.79499 4.95
      vertex -4.30942 7.64955 3
      vertex -5.28442 5.9608 4.95
    endloop
  endfacet
  facet normal 0.526923 0.474445 0.705162
    outer loop
      vertex -6.11059 6.56486 4.95
      vertex -4.80579 8.01399 3
      vertex -6.38337 6.86781 4.95
    endloop
  endfacet
  facet normal -0.526924 -0.474445 0.705162
    outer loop
      vertex 5.57477 10.2712 4.95
      vertex 5.302 10.5741 4.95
      vertex 3.99719 9.125 3
    endloop
  endfacet
  facet normal 0.614053 0.354522 0.705162
    outer loop
      vertex -6.76006 7.35382 4.95
      vertex -5.18248 8.5 3
      vertex -6.96389 7.70686 4.95
    endloop
  endfacet
  facet normal 0.69183 0.146189 0.707106
    outer loop
      vertex -5.60959 9.87299 3
      vertex -7.45866 9.19156 4.95
      vertex -5.55127 9.59698 3
    endloop
  endfacet
  facet normal 0.69183 0.146189 0.707106
    outer loop
      vertex -7.45866 9.19156 4.95
      vertex -5.60959 9.87299 3
      vertex -7.51698 9.46756 4.95
    endloop
  endfacet
  facet normal -0.602741 -0.37167 0.706091
    outer loop
      vertex -2.97598 9.87299 3
      vertex -1.91075 10.3611 4.16627
      vertex -1.87705 10.3984 4.21467
    endloop
  endfacet
  facet normal -0.602736 -0.371678 0.706091
    outer loop
      vertex -1.91075 10.3611 4.16627
      vertex -2.97598 9.87299 3
      vertex -2.80579 9.59698 3
    endloop
  endfacet
  facet normal 0.691832 0.146182 0.707106
    outer loop
      vertex -5.45777 9.1545 3
      vertex -7.35893 8.71957 4.95
      vertex -5.45154 9.125 3
    endloop
  endfacet
  facet normal 0.691832 0.146182 0.707106
    outer loop
      vertex -7.35893 8.71957 4.95
      vertex -5.45777 9.1545 3
      vertex -7.36516 8.74907 4.95
    endloop
  endfacet
  facet normal -0.046353 -0.705857 0.706836
    outer loop
      vertex -1.4571 10.8502 4.72212
      vertex -1.4458 9.125 3
      vertex -1.2423 11.0612 4.94685
    endloop
  endfacet
  facet normal -0.0463565 -0.705857 0.706836
    outer loop
      vertex -1.7064 10.5746 4.43046
      vertex -1.4458 9.125 3
      vertex -1.4571 10.8502 4.72212
    endloop
  endfacet
  facet normal -0.0463569 -0.705857 0.706836
    outer loop
      vertex -1.4458 9.125 3
      vertex -1.7064 10.5746 4.43046
      vertex -1.89491 9.1545 3
    endloop
  endfacet
  facet normal 0.70648 0.042104 0.70648
    outer loop
      vertex -5.63324 10.229 3
      vertex -7.56298 9.88899 4.95
      vertex -5.61298 9.88899 3
    endloop
  endfacet
  facet normal 0.70648 0.042104 0.70648
    outer loop
      vertex -7.56298 9.88899 4.95
      vertex -5.63324 10.229 3
      vertex -7.58324 10.229 4.95
    endloop
  endfacet
  facet normal -0.670549 -0.228918 0.705663
    outer loop
      vertex -1.73773 10.5453 4.3947
      vertex -1.87705 10.3984 4.21467
      vertex -1.84489 10.427 4.25449
    endloop
  endfacet
  facet normal -0.670518 -0.228966 0.705677
    outer loop
      vertex -3.09755 10.229 3
      vertex -1.87705 10.3984 4.21467
      vertex -1.73773 10.5453 4.3947
    endloop
  endfacet
  facet normal -0.670518 -0.228966 0.705677
    outer loop
      vertex -1.87705 10.3984 4.21467
      vertex -3.09755 10.229 3
      vertex -2.97598 9.87299 3
    endloop
  endfacet
  facet normal 0.691827 0.146205 0.707106
    outer loop
      vertex -5.61298 9.88899 3
      vertex -7.51698 9.46756 4.95
      vertex -5.60959 9.87299 3
    endloop
  endfacet
  facet normal 0.691827 0.146205 0.707106
    outer loop
      vertex -7.51698 9.46756 4.95
      vertex -5.61298 9.88899 3
      vertex -7.52036 9.48357 4.95
    endloop
  endfacet
  facet normal 0.705162 0.0741163 0.705162
    outer loop
      vertex -7.52036 9.48357 4.95
      vertex -5.61298 9.88899 3
      vertex -7.56298 9.88899 4.95
    endloop
  endfacet
  facet normal 0.70648 0.0421059 0.70648
    outer loop
      vertex -7.58324 10.229 4.95
      vertex -5.65922 10.665 3
      vertex -7.60922 10.665 4.95
    endloop
  endfacet
  facet normal 0.70648 0.0421059 0.70648
    outer loop
      vertex -5.65922 10.665 3
      vertex -7.58324 10.229 4.95
      vertex -5.63324 10.229 3
    endloop
  endfacet
  facet normal -0.697749 -0.116723 0.706769
    outer loop
      vertex -3.17049 10.665 3
      vertex -1.7064 10.5746 4.43046
      vertex -1.4571 10.8502 4.72212
    endloop
  endfacet
  facet normal -0.697748 -0.116732 0.706768
    outer loop
      vertex -1.7064 10.5746 4.43046
      vertex -3.17049 10.665 3
      vertex -1.73773 10.5453 4.3947
    endloop
  endfacet
  facet normal -0.697749 -0.116723 0.706769
    outer loop
      vertex -1.73773 10.5453 4.3947
      vertex -3.17049 10.665 3
      vertex -3.09755 10.229 3
    endloop
  endfacet
  facet normal 0.70648 0.0421072 0.70648
    outer loop
      vertex -7.60922 10.665 4.95
      vertex -5.66679 10.792 3
      vertex -7.61679 10.792 4.95
    endloop
  endfacet
  facet normal 0.70648 0.0421072 0.70648
    outer loop
      vertex -5.66679 10.792 3
      vertex -7.60922 10.665 4.95
      vertex -5.65922 10.665 3
    endloop
  endfacet
  facet normal 0.707107 -0 0.707107
    outer loop
      vertex -7.61679 10.792 4.95
      vertex -5.66679 11.542 3
      vertex -7.61679 11.542 4.95
    endloop
  endfacet
  facet normal 0.707107 0 0.707107
    outer loop
      vertex -5.66679 11.542 3
      vertex -7.61679 10.792 4.95
      vertex -5.66679 10.792 3
    endloop
  endfacet
  facet normal -0.706715 -0.0332907 0.706715
    outer loop
      vertex -1.4571 10.8502 4.72212
      vertex -1.24479 11.181 4.95
      vertex -3.19479 11.181 3
    endloop
  endfacet
  facet normal -0.706747 -0.0332922 0.706682
    outer loop
      vertex -1.24479 11.181 4.95
      vertex -1.2423 11.0612 4.94685
      vertex -1.2393 11.0643 4.95
    endloop
  endfacet
  facet normal -0.706713 -0.0332924 0.706716
    outer loop
      vertex -1.24479 11.181 4.95
      vertex -1.4571 10.8502 4.72212
      vertex -1.2423 11.0612 4.94685
    endloop
  endfacet
  facet normal -0.706715 -0.0332909 0.706715
    outer loop
      vertex -1.4571 10.8502 4.72212
      vertex -3.19479 11.181 3
      vertex -3.17049 10.665 3
    endloop
  endfacet
  facet normal -0.288396 -0.647746 0.705162
    outer loop
      vertex -2.21979 13.2307 4.95
      vertex -2.59221 13.3966 4.95
      vertex -3.19479 11.542 3
    endloop
  endfacet
  facet normal 0 -0.709046 0.705162
    outer loop
      vertex -5.66679 11.542 3
      vertex -2.99096 13.4813 4.95
      vertex -5.87062 13.4813 4.95
    endloop
  endfacet
  facet normal 0 -0.709046 0.705162
    outer loop
      vertex -2.99096 13.4813 4.95
      vertex -5.66679 11.542 3
      vertex -3.19479 11.542 3
    endloop
  endfacet
  facet normal -0.147418 -0.693552 0.705162
    outer loop
      vertex -2.59221 13.3966 4.95
      vertex -2.99096 13.4813 4.95
      vertex -3.19479 11.542 3
    endloop
  endfacet
  facet normal -0.614053 -0.354522 0.705162
    outer loop
      vertex -1.41338 12.3351 4.95
      vertex -1.61721 12.6882 4.95
      vertex -3.19479 11.542 3
    endloop
  endfacet
  facet normal 0.674343 -0.219108 0.705162
    outer loop
      vertex -5.66679 11.542 3
      vertex -7.44821 12.3351 4.95
      vertex -7.57418 11.9474 4.95
    endloop
  endfacet
  facet normal 0.614053 -0.354522 0.705162
    outer loop
      vertex -5.66679 11.542 3
      vertex -7.24438 12.6882 4.95
      vertex -7.44821 12.3351 4.95
    endloop
  endfacet
  facet normal -0.674343 -0.219108 0.705162
    outer loop
      vertex -1.28741 11.9474 4.95
      vertex -1.41338 12.3351 4.95
      vertex -3.19479 11.542 3
    endloop
  endfacet
  facet normal 0.147418 -0.693552 0.705162
    outer loop
      vertex -5.66679 11.542 3
      vertex -5.87062 13.4813 4.95
      vertex -6.26938 13.3966 4.95
    endloop
  endfacet
  facet normal 0.705162 -0.0741163 0.705162
    outer loop
      vertex -5.66679 11.542 3
      vertex -7.57418 11.9474 4.95
      vertex -7.61679 11.542 4.95
    endloop
  endfacet
  facet normal -0.526924 -0.474445 0.705162
    outer loop
      vertex -1.61721 12.6882 4.95
      vertex -1.88999 12.9911 4.95
      vertex -3.19479 11.542 3
    endloop
  endfacet
  facet normal -0.416767 -0.573631 0.705162
    outer loop
      vertex -1.88999 12.9911 4.95
      vertex -2.21979 13.2307 4.95
      vertex -3.19479 11.542 3
    endloop
  endfacet
  facet normal 0.288396 -0.647746 0.705162
    outer loop
      vertex -5.66679 11.542 3
      vertex -6.26938 13.3966 4.95
      vertex -6.64179 13.2307 4.95
    endloop
  endfacet
  facet normal -0.707107 0 0.707107
    outer loop
      vertex -3.19479 11.181 3
      vertex -1.24479 11.542 4.95
      vertex -3.19479 11.542 3
    endloop
  endfacet
  facet normal -0.707107 0 0.707107
    outer loop
      vertex -1.24479 11.542 4.95
      vertex -3.19479 11.181 3
      vertex -1.24479 11.181 4.95
    endloop
  endfacet
  facet normal -0.705162 -0.0741159 0.705162
    outer loop
      vertex -1.24479 11.542 4.95
      vertex -1.28741 11.9474 4.95
      vertex -3.19479 11.542 3
    endloop
  endfacet
  facet normal 0.416767 -0.573631 0.705162
    outer loop
      vertex -5.66679 11.542 3
      vertex -6.64179 13.2307 4.95
      vertex -6.9716 12.9911 4.95
    endloop
  endfacet
  facet normal 0.526924 -0.474445 0.705162
    outer loop
      vertex -5.66679 11.542 3
      vertex -6.9716 12.9911 4.95
      vertex -7.24438 12.6882 4.95
    endloop
  endfacet
  facet normal -0 0 1
    outer loop
      vertex -2.23363 5.24168 4.95
      vertex -0.424808 -0.647673 4.95
      vertex -0.424808 5.24168 4.95
    endloop
  endfacet
  facet normal 0 0 1
    outer loop
      vertex -3.12525 5.29373 4.95
      vertex -0.424808 -0.647673 4.95
      vertex -2.23363 5.24168 4.95
    endloop
  endfacet
  facet normal 0 0 1
    outer loop
      vertex -5.62262 -0.647673 4.95
      vertex -3.12525 5.29373 4.95
      vertex -3.88512 5.44992 4.95
    endloop
  endfacet
  facet normal 0 0 1
    outer loop
      vertex -5.62262 -0.647673 4.95
      vertex -3.88512 5.44992 4.95
      vertex -4.28387 5.53468 4.95
    endloop
  endfacet
  facet normal 0 0 1
    outer loop
      vertex -5.62262 -0.647673 4.95
      vertex -4.28387 5.53468 4.95
      vertex -4.912 5.79499 4.95
    endloop
  endfacet
  facet normal 0 0 1
    outer loop
      vertex -5.62262 -0.647673 4.95
      vertex -4.912 5.79499 4.95
      vertex -5.28442 5.9608 4.95
    endloop
  endfacet
  facet normal 0 0 1
    outer loop
      vertex -6.02138 -0.73243 4.95
      vertex -5.28442 5.9608 4.95
      vertex -5.61422 6.20042 4.95
    endloop
  endfacet
  facet normal 0 0 1
    outer loop
      vertex -3.12525 5.29373 4.95
      vertex -5.62262 -0.647673 4.95
      vertex -0.424808 -0.647673 4.95
    endloop
  endfacet
  facet normal 0 0 1
    outer loop
      vertex -5.28442 5.9608 4.95
      vertex -6.02138 -0.73243 4.95
      vertex -5.62262 -0.647673 4.95
    endloop
  endfacet
  facet normal 0 0 1
    outer loop
      vertex -6.39379 -0.898242 4.95
      vertex -5.61422 6.20042 4.95
      vertex -6.11059 6.56486 4.95
    endloop
  endfacet
  facet normal 0 0 1
    outer loop
      vertex -6.7236 -1.13786 4.95
      vertex -6.11059 6.56486 4.95
      vertex -6.38337 6.86781 4.95
    endloop
  endfacet
  facet normal 0 0 1
    outer loop
      vertex -5.61422 6.20042 4.95
      vertex -6.39379 -0.898242 4.95
      vertex -6.02138 -0.73243 4.95
    endloop
  endfacet
  facet normal 0 0 1
    outer loop
      vertex -6.11059 6.56486 4.95
      vertex -6.7236 -1.13786 4.95
      vertex -6.39379 -0.898242 4.95
    endloop
  endfacet
  facet normal 0 0 1
    outer loop
      vertex -6.76006 7.35382 4.95
      vertex -6.7236 -1.13786 4.95
      vertex -6.38337 6.86781 4.95
    endloop
  endfacet
  facet normal 0 0 1
    outer loop
      vertex -6.99638 -1.44081 4.95
      vertex -6.76006 7.35382 4.95
      vertex -6.96389 7.70686 4.95
    endloop
  endfacet
  facet normal 0 0 1
    outer loop
      vertex -6.76006 7.35382 4.95
      vertex -6.99638 -1.44081 4.95
      vertex -6.7236 -1.13786 4.95
    endloop
  endfacet
  facet normal 0 0 1
    outer loop
      vertex -6.96389 7.70686 4.95
      vertex -7.20021 -1.79385 4.95
      vertex -6.99638 -1.44081 4.95
    endloop
  endfacet
  facet normal 0 0 1
    outer loop
      vertex -7.23295 8.33186 4.95
      vertex -7.20021 -1.79385 4.95
      vertex -6.96389 7.70686 4.95
    endloop
  endfacet
  facet normal 0 0 1
    outer loop
      vertex -16.5 15 4.95
      vertex -7.20021 -1.79385 4.95
      vertex -7.23295 8.33186 4.95
    endloop
  endfacet
  facet normal 0 0 1
    outer loop
      vertex -16.5 15 4.95
      vertex -7.23295 8.33186 4.95
      vertex -7.35893 8.71957 4.95
    endloop
  endfacet
  facet normal 0 0 1
    outer loop
      vertex -16.5 15 4.95
      vertex -7.35893 8.71957 4.95
      vertex -7.36516 8.74907 4.95
    endloop
  endfacet
  facet normal 0 0 1
    outer loop
      vertex -7.20021 -1.79385 4.95
      vertex -16.5 15 4.95
      vertex -7.32618 -2.18156 4.95
    endloop
  endfacet
  facet normal 0 0 1
    outer loop
      vertex -16.5 -15 4.95
      vertex -7.32618 -2.18156 4.95
      vertex -16.5 15 4.95
    endloop
  endfacet
  facet normal 0 0 1
    outer loop
      vertex -16.5 15 4.95
      vertex -7.36516 8.74907 4.95
      vertex -7.38386 8.83757 4.95
    endloop
  endfacet
  facet normal 0 0 1
    outer loop
      vertex -0.424808 -6.47131 4.95
      vertex -5.62262 -6.47131 4.95
      vertex -0.424808 -11.976 4.95
    endloop
  endfacet
  facet normal 0 0 1
    outer loop
      vertex 15.1568 16.4918 4.95
      vertex 16.5 15 4.95
      vertex 16.4672 15.3119 4.95
    endloop
  endfacet
  facet normal 0 0 1
    outer loop
      vertex 16.5 15 4.95
      vertex 5.94719 9.125 4.95
      vertex 16.5 -15 4.95
    endloop
  endfacet
  facet normal 0 0 1
    outer loop
      vertex 15.1568 16.4918 4.95
      vertex 16.4672 15.3119 4.95
      vertex 16.3703 15.6101 4.95
    endloop
  endfacet
  facet normal -0 0 1
    outer loop
      vertex 5.94719 -11.976 4.95
      vertex 16.5 -15 4.95
      vertex 5.94719 9.125 4.95
    endloop
  endfacet
  facet normal 0 0 1
    outer loop
      vertex 15.1568 16.4918 4.95
      vertex 16.3703 15.6101 4.95
      vertex 16.2135 15.8817 4.95
    endloop
  endfacet
  facet normal 0 -0 1
    outer loop
      vertex 15.1568 -16.4918 4.95
      vertex 16.5 -15 4.95
      vertex 5.94719 -11.976 4.95
    endloop
  endfacet
  facet normal 0 0 1
    outer loop
      vertex 15.1568 16.4918 4.95
      vertex 16.2135 15.8817 4.95
      vertex 16.0037 16.1147 4.95
    endloop
  endfacet
  facet normal 0 0 1
    outer loop
      vertex 16.5 -15 4.95
      vertex 15.1568 -16.4918 4.95
      vertex 16.4672 -15.3119 4.95
    endloop
  endfacet
  facet normal 0 0 1
    outer loop
      vertex 15.1568 16.4918 4.95
      vertex 16.0037 16.1147 4.95
      vertex 15.75 16.299 4.95
    endloop
  endfacet
  facet normal 0 0 1
    outer loop
      vertex 16.4672 -15.3119 4.95
      vertex 15.1568 -16.4918 4.95
      vertex 16.3703 -15.6101 4.95
    endloop
  endfacet
  facet normal 0 0 1
    outer loop
      vertex 15.1568 16.4918 4.95
      vertex 15.75 16.299 4.95
      vertex 15.4635 16.4266 4.95
    endloop
  endfacet
  facet normal 0 0 1
    outer loop
      vertex 16.3703 -15.6101 4.95
      vertex 15.1568 -16.4918 4.95
      vertex 16.2135 -15.8817 4.95
    endloop
  endfacet
  facet normal 0 0 1
    outer loop
      vertex 5.7786 9.91814 4.95
      vertex 16.5 15 4.95
      vertex 15.1568 16.4918 4.95
    endloop
  endfacet
  facet normal 0 0 1
    outer loop
      vertex 16.2135 -15.8817 4.95
      vertex 15.1568 -16.4918 4.95
      vertex 16.0037 -16.1147 4.95
    endloop
  endfacet
  facet normal 0 0 1
    outer loop
      vertex 16.0037 -16.1147 4.95
      vertex 15.1568 -16.4918 4.95
      vertex 15.75 -16.299 4.95
    endloop
  endfacet
  facet normal 0 0 1
    outer loop
      vertex 16.5 15 4.95
      vertex 5.90458 9.53043 4.95
      vertex 5.94719 9.125 4.95
    endloop
  endfacet
  facet normal 0 0 1
    outer loop
      vertex 16.5 15 4.95
      vertex 5.7786 9.91814 4.95
      vertex 5.90458 9.53043 4.95
    endloop
  endfacet
  facet normal 0 0 1
    outer loop
      vertex 15.1568 16.4918 4.95
      vertex 5.57477 10.2712 4.95
      vertex 5.7786 9.91814 4.95
    endloop
  endfacet
  facet normal 0 0 1
    outer loop
      vertex 15.1568 16.4918 4.95
      vertex 5.302 10.5741 4.95
      vertex 5.57477 10.2712 4.95
    endloop
  endfacet
  facet normal 0 0 1
    outer loop
      vertex 15.1568 16.4918 4.95
      vertex 4.97219 10.8137 4.95
      vertex 5.302 10.5741 4.95
    endloop
  endfacet
  facet normal 0 0 1
    outer loop
      vertex 15.1568 16.4918 4.95
      vertex 4.59977 10.9796 4.95
      vertex 4.97219 10.8137 4.95
    endloop
  endfacet
  facet normal 0 0 1
    outer loop
      vertex 15.1568 16.4918 4.95
      vertex 4.20102 11.0643 4.95
      vertex 4.59977 10.9796 4.95
    endloop
  endfacet
  facet normal -0 0 1
    outer loop
      vertex -2.21979 13.2307 4.95
      vertex 4.20102 11.0643 4.95
      vertex 15.1568 16.4918 4.95
    endloop
  endfacet
  facet normal -0 0 1
    outer loop
      vertex -1.24479 11.181 4.95
      vertex 4.20102 11.0643 4.95
      vertex -1.24479 11.542 4.95
    endloop
  endfacet
  facet normal 0 0 1
    outer loop
      vertex 4.20102 11.0643 4.95
      vertex -1.28741 11.9474 4.95
      vertex -1.24479 11.542 4.95
    endloop
  endfacet
  facet normal 0 0 1
    outer loop
      vertex 4.20102 11.0643 4.95
      vertex -1.41338 12.3351 4.95
      vertex -1.28741 11.9474 4.95
    endloop
  endfacet
  facet normal 0 0 1
    outer loop
      vertex 4.20102 11.0643 4.95
      vertex -1.61721 12.6882 4.95
      vertex -1.41338 12.3351 4.95
    endloop
  endfacet
  facet normal 0 0 1
    outer loop
      vertex 4.20102 11.0643 4.95
      vertex -1.88999 12.9911 4.95
      vertex -1.61721 12.6882 4.95
    endloop
  endfacet
  facet normal 0 0 1
    outer loop
      vertex 4.20102 11.0643 4.95
      vertex -2.21979 13.2307 4.95
      vertex -1.88999 12.9911 4.95
    endloop
  endfacet
  facet normal 0 0 1
    outer loop
      vertex 15.1568 16.4918 4.95
      vertex -2.59221 13.3966 4.95
      vertex -2.21979 13.2307 4.95
    endloop
  endfacet
  facet normal 0 0 1
    outer loop
      vertex 15.1568 16.4918 4.95
      vertex -2.99096 13.4813 4.95
      vertex -2.59221 13.3966 4.95
    endloop
  endfacet
  facet normal -0 0 1
    outer loop
      vertex -15.1568 16.4918 4.95
      vertex -2.99096 13.4813 4.95
      vertex 15.1568 16.4918 4.95
    endloop
  endfacet
  facet normal 0 0 1
    outer loop
      vertex -7.57418 11.9474 4.95
      vertex -16.5 15 4.95
      vertex -7.61679 11.542 4.95
    endloop
  endfacet
  facet normal -0 0 1
    outer loop
      vertex -16.5 15 4.95
      vertex -7.57418 11.9474 4.95
      vertex -15.1568 16.4918 4.95
    endloop
  endfacet
  facet normal 0 0 1
    outer loop
      vertex -7.44821 12.3351 4.95
      vertex -15.1568 16.4918 4.95
      vertex -7.57418 11.9474 4.95
    endloop
  endfacet
  facet normal 0 0 1
    outer loop
      vertex -7.24438 12.6882 4.95
      vertex -15.1568 16.4918 4.95
      vertex -7.44821 12.3351 4.95
    endloop
  endfacet
  facet normal 0 0 1
    outer loop
      vertex -6.9716 12.9911 4.95
      vertex -15.1568 16.4918 4.95
      vertex -7.24438 12.6882 4.95
    endloop
  endfacet
  facet normal 0 0 1
    outer loop
      vertex -6.64179 13.2307 4.95
      vertex -15.1568 16.4918 4.95
      vertex -6.9716 12.9911 4.95
    endloop
  endfacet
  facet normal 0 0 1
    outer loop
      vertex -6.26938 13.3966 4.95
      vertex -15.1568 16.4918 4.95
      vertex -6.64179 13.2307 4.95
    endloop
  endfacet
  facet normal 0 0 1
    outer loop
      vertex -5.87062 13.4813 4.95
      vertex -15.1568 16.4918 4.95
      vertex -6.26938 13.3966 4.95
    endloop
  endfacet
  facet normal 0 0 1
    outer loop
      vertex -2.99096 13.4813 4.95
      vertex -15.1568 16.4918 4.95
      vertex -5.87062 13.4813 4.95
    endloop
  endfacet
  facet normal 0 0 1
    outer loop
      vertex 15.75 -16.299 4.95
      vertex 15.1568 -16.4918 4.95
      vertex 15.4635 -16.4266 4.95
    endloop
  endfacet
  facet normal -0 0 1
    outer loop
      vertex 5.90458 -12.3814 4.95
      vertex 15.1568 -16.4918 4.95
      vertex 5.94719 -11.976 4.95
    endloop
  endfacet
  facet normal -0 0 1
    outer loop
      vertex 5.7786 -12.7691 4.95
      vertex 15.1568 -16.4918 4.95
      vertex 5.90458 -12.3814 4.95
    endloop
  endfacet
  facet normal -0 0 1
    outer loop
      vertex 5.57477 -13.1222 4.95
      vertex 15.1568 -16.4918 4.95
      vertex 5.7786 -12.7691 4.95
    endloop
  endfacet
  facet normal -0 0 1
    outer loop
      vertex 5.302 -13.4251 4.95
      vertex 15.1568 -16.4918 4.95
      vertex 5.57477 -13.1222 4.95
    endloop
  endfacet
  facet normal -0 0 1
    outer loop
      vertex 4.97219 -13.6647 4.95
      vertex 15.1568 -16.4918 4.95
      vertex 5.302 -13.4251 4.95
    endloop
  endfacet
  facet normal -0 0 1
    outer loop
      vertex 4.59977 -13.8306 4.95
      vertex 15.1568 -16.4918 4.95
      vertex 4.97219 -13.6647 4.95
    endloop
  endfacet
  facet normal -0 0 1
    outer loop
      vertex 4.20102 -13.9153 4.95
      vertex 15.1568 -16.4918 4.95
      vertex 4.59977 -13.8306 4.95
    endloop
  endfacet
  facet normal -0 0 1
    outer loop
      vertex 1.32136 -13.9153 4.95
      vertex 15.1568 -16.4918 4.95
      vertex 4.20102 -13.9153 4.95
    endloop
  endfacet
  facet normal 0 0 1
    outer loop
      vertex -5.62262 -6.47131 4.95
      vertex -0.382195 -12.3814 4.95
      vertex -0.424808 -11.976 4.95
    endloop
  endfacet
  facet normal 0 0 1
    outer loop
      vertex -6.02138 -6.38656 4.95
      vertex -0.382195 -12.3814 4.95
      vertex -5.62262 -6.47131 4.95
    endloop
  endfacet
  facet normal 0 0 1
    outer loop
      vertex -15.1568 -16.4918 4.95
      vertex -0.382195 -12.3814 4.95
      vertex -6.02138 -6.38656 4.95
    endloop
  endfacet
  facet normal 0 0 1
    outer loop
      vertex -0.382195 -12.3814 4.95
      vertex -15.1568 -16.4918 4.95
      vertex -0.256221 -12.7691 4.95
    endloop
  endfacet
  facet normal 0 0 1
    outer loop
      vertex -15.1568 -16.4918 4.95
      vertex -6.02138 -6.38656 4.95
      vertex -6.39379 -6.22075 4.95
    endloop
  endfacet
  facet normal 0 0 1
    outer loop
      vertex -0.256221 -12.7691 4.95
      vertex -15.1568 -16.4918 4.95
      vertex -0.0523902 -13.1222 4.95
    endloop
  endfacet
  facet normal 0 0 1
    outer loop
      vertex -15.1568 -16.4918 4.95
      vertex -6.39379 -6.22075 4.95
      vertex -6.7236 -5.98113 4.95
    endloop
  endfacet
  facet normal 0 0 1
    outer loop
      vertex -16.5 15 4.95
      vertex -7.38386 8.83757 4.95
      vertex -7.41502 8.98506 4.95
    endloop
  endfacet
  facet normal 0 0 1
    outer loop
      vertex -16.5 15 4.95
      vertex -7.41502 8.98506 4.95
      vertex -7.45866 9.19156 4.95
    endloop
  endfacet
  facet normal 0 0 1
    outer loop
      vertex -16.5 15 4.95
      vertex -7.45866 9.19156 4.95
      vertex -7.51698 9.46756 4.95
    endloop
  endfacet
  facet normal 0 0 1
    outer loop
      vertex -16.5 15 4.95
      vertex -7.51698 9.46756 4.95
      vertex -7.52036 9.48357 4.95
    endloop
  endfacet
  facet normal 0 0 1
    outer loop
      vertex -16.5 15 4.95
      vertex -7.52036 9.48357 4.95
      vertex -7.56298 9.88899 4.95
    endloop
  endfacet
  facet normal 0 0 1
    outer loop
      vertex -16.5 15 4.95
      vertex -7.56298 9.88899 4.95
      vertex -7.58324 10.229 4.95
    endloop
  endfacet
  facet normal 0 0 1
    outer loop
      vertex -16.5 15 4.95
      vertex -7.58324 10.229 4.95
      vertex -7.60922 10.665 4.95
    endloop
  endfacet
  facet normal 0 0 1
    outer loop
      vertex -16.5 15 4.95
      vertex -7.60922 10.665 4.95
      vertex -7.61679 10.792 4.95
    endloop
  endfacet
  facet normal 0 0 1
    outer loop
      vertex -7.61679 11.542 4.95
      vertex -16.5 15 4.95
      vertex -7.61679 10.792 4.95
    endloop
  endfacet
  facet normal 0 0 1
    outer loop
      vertex -7.32618 -2.18156 4.95
      vertex -16.5 -15 4.95
      vertex -7.36879 -2.58699 4.95
    endloop
  endfacet
  facet normal 0 0 1
    outer loop
      vertex -7.36879 -2.58699 4.95
      vertex -16.5 -15 4.95
      vertex -7.36879 -4.532 4.95
    endloop
  endfacet
  facet normal 0 0 1
    outer loop
      vertex 1.32136 -13.9153 4.95
      vertex -15.1568 -16.4918 4.95
      vertex 15.1568 -16.4918 4.95
    endloop
  endfacet
  facet normal 0 0 1
    outer loop
      vertex 0.92261 -13.8306 4.95
      vertex -15.1568 -16.4918 4.95
      vertex 1.32136 -13.9153 4.95
    endloop
  endfacet
  facet normal 0 0 1
    outer loop
      vertex 0.550192 -13.6647 4.95
      vertex -15.1568 -16.4918 4.95
      vertex 0.92261 -13.8306 4.95
    endloop
  endfacet
  facet normal 0 0 1
    outer loop
      vertex 0.220388 -13.4251 4.95
      vertex -15.1568 -16.4918 4.95
      vertex 0.550192 -13.6647 4.95
    endloop
  endfacet
  facet normal 0 0 1
    outer loop
      vertex -0.0523902 -13.1222 4.95
      vertex -15.1568 -16.4918 4.95
      vertex 0.220388 -13.4251 4.95
    endloop
  endfacet
  facet normal 0 0 1
    outer loop
      vertex -16.5 -15 4.95
      vertex -6.7236 -5.98113 4.95
      vertex -6.99638 -5.67818 4.95
    endloop
  endfacet
  facet normal 0 0 1
    outer loop
      vertex -16.5 -15 4.95
      vertex -6.99638 -5.67818 4.95
      vertex -7.20021 -5.32513 4.95
    endloop
  endfacet
  facet normal 0 0 1
    outer loop
      vertex -7.36879 -4.532 4.95
      vertex -16.5 -15 4.95
      vertex -7.32618 -4.93743 4.95
    endloop
  endfacet
  facet normal 0 0 1
    outer loop
      vertex -16.5 15 4.95
      vertex -15.1568 16.4918 4.95
      vertex -15.4635 16.4266 4.95
    endloop
  endfacet
  facet normal 0 0 1
    outer loop
      vertex -7.32618 -4.93743 4.95
      vertex -16.5 -15 4.95
      vertex -7.20021 -5.32513 4.95
    endloop
  endfacet
  facet normal 0 0 1
    outer loop
      vertex -16.5 15 4.95
      vertex -15.4635 16.4266 4.95
      vertex -15.75 16.299 4.95
    endloop
  endfacet
  facet normal 0 0 1
    outer loop
      vertex -6.7236 -5.98113 4.95
      vertex -16.5 -15 4.95
      vertex -15.1568 -16.4918 4.95
    endloop
  endfacet
  facet normal 0 0 1
    outer loop
      vertex -16.5 15 4.95
      vertex -15.75 16.299 4.95
      vertex -16.0037 16.1147 4.95
    endloop
  endfacet
  facet normal 0 0 1
    outer loop
      vertex -15.1568 -16.4918 4.95
      vertex -16.5 -15 4.95
      vertex -15.4635 -16.4266 4.95
    endloop
  endfacet
  facet normal 0 0 1
    outer loop
      vertex -16.5 15 4.95
      vertex -16.0037 16.1147 4.95
      vertex -16.2135 15.8817 4.95
    endloop
  endfacet
  facet normal 0 0 1
    outer loop
      vertex -15.4635 -16.4266 4.95
      vertex -16.5 -15 4.95
      vertex -15.75 -16.299 4.95
    endloop
  endfacet
  facet normal 0 0 1
    outer loop
      vertex -16.5 15 4.95
      vertex -16.2135 15.8817 4.95
      vertex -16.3703 15.6101 4.95
    endloop
  endfacet
  facet normal 0 0 1
    outer loop
      vertex -15.75 -16.299 4.95
      vertex -16.5 -15 4.95
      vertex -16.0037 -16.1147 4.95
    endloop
  endfacet
  facet normal 0 0 1
    outer loop
      vertex -16.5 15 4.95
      vertex -16.3703 15.6101 4.95
      vertex -16.4672 15.3119 4.95
    endloop
  endfacet
  facet normal 0 0 1
    outer loop
      vertex -16.0037 -16.1147 4.95
      vertex -16.5 -15 4.95
      vertex -16.2135 -15.8817 4.95
    endloop
  endfacet
  facet normal 0 0 1
    outer loop
      vertex -16.2135 -15.8817 4.95
      vertex -16.5 -15 4.95
      vertex -16.3703 -15.6101 4.95
    endloop
  endfacet
  facet normal 0 0 1
    outer loop
      vertex -16.3703 -15.6101 4.95
      vertex -16.5 -15 4.95
      vertex -16.4672 -15.3119 4.95
    endloop
  endfacet
  facet normal 0 0 1
    outer loop
      vertex 4.20102 11.0643 4.95
      vertex -1.24479 11.181 4.95
      vertex -1.2393 11.0643 4.95
    endloop
  endfacet
endsolid OpenSCAD_Model
