solid OpenSCAD_Model
  facet normal 0 -1 0
    outer loop
      vertex -16.8136 -19.4836 0
      vertex 16.8136 -19.4836 8.01
      vertex -16.8136 -19.4836 8.01
    endloop
  endfacet
  facet normal 0 -1 -0
    outer loop
      vertex 16.8136 -19.4836 8.01
      vertex -16.8136 -19.4836 0
      vertex 16.8136 -19.4836 0
    endloop
  endfacet
  facet normal 1 -0 0
    outer loop
      vertex 19.5 -16.5 8.01
      vertex 19.5 16.5 0
      vertex 19.5 16.5 8.01
    endloop
  endfacet
  facet normal 1 0 0
    outer loop
      vertex 19.5 16.5 0
      vertex 19.5 -16.5 8.01
      vertex 19.5 -16.5 0
    endloop
  endfacet
  facet normal -0.207914 -0.978147 0
    outer loop
      vertex -17.4271 -19.3532 0
      vertex -16.8136 -19.4836 8.01
      vertex -17.4271 -19.3532 8.01
    endloop
  endfacet
  facet normal -0.207914 -0.978147 -0
    outer loop
      vertex -16.8136 -19.4836 8.01
      vertex -17.4271 -19.3532 0
      vertex -16.8136 -19.4836 0
    endloop
  endfacet
  facet normal 0.207914 0.978147 -0
    outer loop
      vertex 17.4271 19.3532 0
      vertex 16.8136 19.4836 8.01
      vertex 17.4271 19.3532 8.01
    endloop
  endfacet
  facet normal 0.207914 0.978147 0
    outer loop
      vertex 16.8136 19.4836 8.01
      vertex 17.4271 19.3532 0
      vertex 16.8136 19.4836 0
    endloop
  endfacet
  facet normal 0.866027 0.499997 0
    outer loop
      vertex 19.2406 17.7202 8.01
      vertex 18.9271 18.2634 0
      vertex 18.9271 18.2634 8.01
    endloop
  endfacet
  facet normal 0.866027 0.499997 0
    outer loop
      vertex 18.9271 18.2634 0
      vertex 19.2406 17.7202 8.01
      vertex 19.2406 17.7202 0
    endloop
  endfacet
  facet normal 0.994522 0.104529 0
    outer loop
      vertex 19.5 16.5 8.01
      vertex 19.4344 17.1237 0
      vertex 19.4344 17.1237 8.01
    endloop
  endfacet
  facet normal 0.994522 0.104529 0
    outer loop
      vertex 19.4344 17.1237 0
      vertex 19.5 16.5 8.01
      vertex 19.5 16.5 0
    endloop
  endfacet
  facet normal -0.866027 0.499997 0
    outer loop
      vertex -19.2406 17.7202 0
      vertex -18.9271 18.2634 8.01
      vertex -18.9271 18.2634 0
    endloop
  endfacet
  facet normal -0.866027 0.499997 0
    outer loop
      vertex -18.9271 18.2634 8.01
      vertex -19.2406 17.7202 0
      vertex -19.2406 17.7202 8.01
    endloop
  endfacet
  facet normal 0.951056 -0.309018 0
    outer loop
      vertex 19.2406 -17.7202 8.01
      vertex 19.4344 -17.1237 0
      vertex 19.4344 -17.1237 8.01
    endloop
  endfacet
  facet normal 0.951056 -0.309018 0
    outer loop
      vertex 19.4344 -17.1237 0
      vertex 19.2406 -17.7202 8.01
      vertex 19.2406 -17.7202 0
    endloop
  endfacet
  facet normal 0.994522 -0.104529 0
    outer loop
      vertex 19.4344 -17.1237 8.01
      vertex 19.5 -16.5 0
      vertex 19.5 -16.5 8.01
    endloop
  endfacet
  facet normal 0.994522 -0.104529 0
    outer loop
      vertex 19.5 -16.5 0
      vertex 19.4344 -17.1237 8.01
      vertex 19.4344 -17.1237 0
    endloop
  endfacet
  facet normal 0.587785 -0.809017 0
    outer loop
      vertex 18 -19.0981 0
      vertex 18.5074 -18.7294 8.01
      vertex 18 -19.0981 8.01
    endloop
  endfacet
  facet normal 0.587785 -0.809017 0
    outer loop
      vertex 18.5074 -18.7294 8.01
      vertex 18 -19.0981 0
      vertex 18.5074 -18.7294 0
    endloop
  endfacet
  facet normal -0.406736 -0.913546 0
    outer loop
      vertex -18 -19.0981 0
      vertex -17.4271 -19.3532 8.01
      vertex -18 -19.0981 8.01
    endloop
  endfacet
  facet normal -0.406736 -0.913546 -0
    outer loop
      vertex -17.4271 -19.3532 8.01
      vertex -18 -19.0981 0
      vertex -17.4271 -19.3532 0
    endloop
  endfacet
  facet normal 0 1 -0
    outer loop
      vertex 16.8136 19.4836 0
      vertex -16.8136 19.4836 8.01
      vertex 16.8136 19.4836 8.01
    endloop
  endfacet
  facet normal 0 1 0
    outer loop
      vertex -16.8136 19.4836 8.01
      vertex 16.8136 19.4836 0
      vertex -16.8136 19.4836 0
    endloop
  endfacet
  facet normal 0.951056 0.309018 0
    outer loop
      vertex 19.4344 17.1237 8.01
      vertex 19.2406 17.7202 0
      vertex 19.2406 17.7202 8.01
    endloop
  endfacet
  facet normal 0.951056 0.309018 0
    outer loop
      vertex 19.2406 17.7202 0
      vertex 19.4344 17.1237 8.01
      vertex 19.4344 17.1237 0
    endloop
  endfacet
  facet normal 0.587785 0.809017 -0
    outer loop
      vertex 18.5074 18.7294 0
      vertex 18 19.0981 8.01
      vertex 18.5074 18.7294 8.01
    endloop
  endfacet
  facet normal 0.587785 0.809017 0
    outer loop
      vertex 18 19.0981 8.01
      vertex 18.5074 18.7294 0
      vertex 18 19.0981 0
    endloop
  endfacet
  facet normal 0.406736 0.913546 -0
    outer loop
      vertex 18 19.0981 0
      vertex 17.4271 19.3532 8.01
      vertex 18 19.0981 8.01
    endloop
  endfacet
  facet normal 0.406736 0.913546 0
    outer loop
      vertex 17.4271 19.3532 8.01
      vertex 18 19.0981 0
      vertex 17.4271 19.3532 0
    endloop
  endfacet
  facet normal 0.743144 0.669131 0
    outer loop
      vertex 18.9271 18.2634 8.01
      vertex 18.5074 18.7294 0
      vertex 18.5074 18.7294 8.01
    endloop
  endfacet
  facet normal 0.743144 0.669131 0
    outer loop
      vertex 18.5074 18.7294 0
      vertex 18.9271 18.2634 8.01
      vertex 18.9271 18.2634 0
    endloop
  endfacet
  facet normal -1 0 0
    outer loop
      vertex -19.5 -16.5 0
      vertex -19.5 16.5 8.01
      vertex -19.5 16.5 0
    endloop
  endfacet
  facet normal -1 -0 0
    outer loop
      vertex -19.5 16.5 8.01
      vertex -19.5 -16.5 0
      vertex -19.5 -16.5 8.01
    endloop
  endfacet
  facet normal 0.866027 -0.499997 0
    outer loop
      vertex 18.9271 -18.2634 8.01
      vertex 19.2406 -17.7202 0
      vertex 19.2406 -17.7202 8.01
    endloop
  endfacet
  facet normal 0.866027 -0.499997 0
    outer loop
      vertex 19.2406 -17.7202 0
      vertex 18.9271 -18.2634 8.01
      vertex 18.9271 -18.2634 0
    endloop
  endfacet
  facet normal 0.743144 -0.669131 0
    outer loop
      vertex 18.5074 -18.7294 8.01
      vertex 18.9271 -18.2634 0
      vertex 18.9271 -18.2634 8.01
    endloop
  endfacet
  facet normal 0.743144 -0.669131 0
    outer loop
      vertex 18.9271 -18.2634 0
      vertex 18.5074 -18.7294 8.01
      vertex 18.5074 -18.7294 0
    endloop
  endfacet
  facet normal -0.743144 0.669131 0
    outer loop
      vertex -18.9271 18.2634 0
      vertex -18.5074 18.7294 8.01
      vertex -18.5074 18.7294 0
    endloop
  endfacet
  facet normal -0.743144 0.669131 0
    outer loop
      vertex -18.5074 18.7294 8.01
      vertex -18.9271 18.2634 0
      vertex -18.9271 18.2634 8.01
    endloop
  endfacet
  facet normal -0.743144 -0.669131 0
    outer loop
      vertex -18.5074 -18.7294 0
      vertex -18.9271 -18.2634 8.01
      vertex -18.9271 -18.2634 0
    endloop
  endfacet
  facet normal -0.743144 -0.669131 0
    outer loop
      vertex -18.9271 -18.2634 8.01
      vertex -18.5074 -18.7294 0
      vertex -18.5074 -18.7294 8.01
    endloop
  endfacet
  facet normal 0 0 -1
    outer loop
      vertex 16.8136 -19.4836 0
      vertex 19.5 -16.5 0
      vertex 19.4344 -17.1237 0
    endloop
  endfacet
  facet normal 0 0 -1
    outer loop
      vertex -19.5 -16.5 0
      vertex 19.5 -16.5 0
      vertex 16.8136 -19.4836 0
    endloop
  endfacet
  facet normal 0 0 -1
    outer loop
      vertex 16.8136 -19.4836 0
      vertex 19.4344 -17.1237 0
      vertex 19.2406 -17.7202 0
    endloop
  endfacet
  facet normal 0 0 -1
    outer loop
      vertex 19.5 -16.5 0
      vertex -19.5 -16.5 0
      vertex 19.5 16.5 0
    endloop
  endfacet
  facet normal 0 0 -1
    outer loop
      vertex 16.8136 -19.4836 0
      vertex 19.2406 -17.7202 0
      vertex 18.9271 -18.2634 0
    endloop
  endfacet
  facet normal 0 0 -1
    outer loop
      vertex 19.5 16.5 0
      vertex 16.8136 19.4836 0
      vertex 19.4344 17.1237 0
    endloop
  endfacet
  facet normal 0 0 -1
    outer loop
      vertex 16.8136 -19.4836 0
      vertex 18.9271 -18.2634 0
      vertex 18.5074 -18.7294 0
    endloop
  endfacet
  facet normal 0 0 -1
    outer loop
      vertex 19.4344 17.1237 0
      vertex 16.8136 19.4836 0
      vertex 19.2406 17.7202 0
    endloop
  endfacet
  facet normal 0 0 -1
    outer loop
      vertex 16.8136 -19.4836 0
      vertex 18.5074 -18.7294 0
      vertex 18 -19.0981 0
    endloop
  endfacet
  facet normal 0 0 -1
    outer loop
      vertex 19.2406 17.7202 0
      vertex 16.8136 19.4836 0
      vertex 18.9271 18.2634 0
    endloop
  endfacet
  facet normal 0 0 -1
    outer loop
      vertex 16.8136 -19.4836 0
      vertex 18 -19.0981 0
      vertex 17.4271 -19.3532 0
    endloop
  endfacet
  facet normal 0 0 -1
    outer loop
      vertex 18.9271 18.2634 0
      vertex 16.8136 19.4836 0
      vertex 18.5074 18.7294 0
    endloop
  endfacet
  facet normal 0 0 -1
    outer loop
      vertex 18.5074 18.7294 0
      vertex 16.8136 19.4836 0
      vertex 18 19.0981 0
    endloop
  endfacet
  facet normal 0 0 -1
    outer loop
      vertex 18 19.0981 0
      vertex 16.8136 19.4836 0
      vertex 17.4271 19.3532 0
    endloop
  endfacet
  facet normal 0 0 -1
    outer loop
      vertex -19.5 -16.5 0
      vertex 16.8136 -19.4836 0
      vertex -16.8136 -19.4836 0
    endloop
  endfacet
  facet normal 0 0 -1
    outer loop
      vertex -19.5 16.5 0
      vertex 19.5 16.5 0
      vertex -19.5 -16.5 0
    endloop
  endfacet
  facet normal 0 0 -1
    outer loop
      vertex -19.5 -16.5 0
      vertex -16.8136 -19.4836 0
      vertex -17.4271 -19.3532 0
    endloop
  endfacet
  facet normal 0 0 -1
    outer loop
      vertex 19.5 16.5 0
      vertex -19.5 16.5 0
      vertex 16.8136 19.4836 0
    endloop
  endfacet
  facet normal 0 0 -1
    outer loop
      vertex -19.5 -16.5 0
      vertex -17.4271 -19.3532 0
      vertex -18 -19.0981 0
    endloop
  endfacet
  facet normal -0 0 -1
    outer loop
      vertex 16.8136 19.4836 0
      vertex -19.5 16.5 0
      vertex -16.8136 19.4836 0
    endloop
  endfacet
  facet normal 0 0 -1
    outer loop
      vertex -19.5 -16.5 0
      vertex -18 -19.0981 0
      vertex -18.5074 -18.7294 0
    endloop
  endfacet
  facet normal 0 0 -1
    outer loop
      vertex -16.8136 19.4836 0
      vertex -19.5 16.5 0
      vertex -17.4271 19.3532 0
    endloop
  endfacet
  facet normal 0 0 -1
    outer loop
      vertex -19.5 -16.5 0
      vertex -18.5074 -18.7294 0
      vertex -18.9271 -18.2634 0
    endloop
  endfacet
  facet normal 0 0 -1
    outer loop
      vertex -17.4271 19.3532 0
      vertex -19.5 16.5 0
      vertex -18 19.0981 0
    endloop
  endfacet
  facet normal 0 0 -1
    outer loop
      vertex -19.5 -16.5 0
      vertex -18.9271 -18.2634 0
      vertex -19.2406 -17.7202 0
    endloop
  endfacet
  facet normal 0 0 -1
    outer loop
      vertex -18 19.0981 0
      vertex -19.5 16.5 0
      vertex -18.5074 18.7294 0
    endloop
  endfacet
  facet normal 0 0 -1
    outer loop
      vertex -19.5 -16.5 0
      vertex -19.2406 -17.7202 0
      vertex -19.4344 -17.1237 0
    endloop
  endfacet
  facet normal 0 0 -1
    outer loop
      vertex -18.5074 18.7294 0
      vertex -19.5 16.5 0
      vertex -18.9271 18.2634 0
    endloop
  endfacet
  facet normal 0 0 -1
    outer loop
      vertex -18.9271 18.2634 0
      vertex -19.5 16.5 0
      vertex -19.2406 17.7202 0
    endloop
  endfacet
  facet normal 0 0 -1
    outer loop
      vertex -19.2406 17.7202 0
      vertex -19.5 16.5 0
      vertex -19.4344 17.1237 0
    endloop
  endfacet
  facet normal -0.994522 0.104529 0
    outer loop
      vertex -19.5 16.5 0
      vertex -19.4344 17.1237 8.01
      vertex -19.4344 17.1237 0
    endloop
  endfacet
  facet normal -0.994522 0.104529 0
    outer loop
      vertex -19.4344 17.1237 8.01
      vertex -19.5 16.5 0
      vertex -19.5 16.5 8.01
    endloop
  endfacet
  facet normal 0 0 1
    outer loop
      vertex 16.2135 15.8817 8.01
      vertex 19.5 16.5 8.01
      vertex 19.4344 17.1237 8.01
    endloop
  endfacet
  facet normal 0 0 1
    outer loop
      vertex 19.5 16.5 8.01
      vertex 16.5 15 8.01
      vertex 19.5 -16.5 8.01
    endloop
  endfacet
  facet normal 0 0 1
    outer loop
      vertex 16.2135 15.8817 8.01
      vertex 19.4344 17.1237 8.01
      vertex 19.2406 17.7202 8.01
    endloop
  endfacet
  facet normal -0 0 1
    outer loop
      vertex 16.5 -15 8.01
      vertex 19.5 -16.5 8.01
      vertex 16.5 15 8.01
    endloop
  endfacet
  facet normal 0 0 1
    outer loop
      vertex 16.2135 15.8817 8.01
      vertex 19.2406 17.7202 8.01
      vertex 18.9271 18.2634 8.01
    endloop
  endfacet
  facet normal -0 0 1
    outer loop
      vertex 16.4672 -15.3119 8.01
      vertex 19.5 -16.5 8.01
      vertex 16.5 -15 8.01
    endloop
  endfacet
  facet normal 0 0 1
    outer loop
      vertex 16.0037 16.1147 8.01
      vertex 18.9271 18.2634 8.01
      vertex 18.5074 18.7294 8.01
    endloop
  endfacet
  facet normal -0 0 1
    outer loop
      vertex 16.3703 -15.6101 8.01
      vertex 19.5 -16.5 8.01
      vertex 16.4672 -15.3119 8.01
    endloop
  endfacet
  facet normal 0 0 1
    outer loop
      vertex 16.0037 16.1147 8.01
      vertex 18.5074 18.7294 8.01
      vertex 18 19.0981 8.01
    endloop
  endfacet
  facet normal -0 0 1
    outer loop
      vertex 16.2135 -15.8817 8.01
      vertex 19.5 -16.5 8.01
      vertex 16.3703 -15.6101 8.01
    endloop
  endfacet
  facet normal 0 0 1
    outer loop
      vertex 16.0037 16.1147 8.01
      vertex 18 19.0981 8.01
      vertex 17.4271 19.3532 8.01
    endloop
  endfacet
  facet normal 0 0 1
    outer loop
      vertex 19.5 -16.5 8.01
      vertex 16.2135 -15.8817 8.01
      vertex 19.4344 -17.1237 8.01
    endloop
  endfacet
  facet normal 0 0 1
    outer loop
      vertex 15.75 16.299 8.01
      vertex 17.4271 19.3532 8.01
      vertex 16.8136 19.4836 8.01
    endloop
  endfacet
  facet normal 0 0 1
    outer loop
      vertex 19.4344 -17.1237 8.01
      vertex 16.2135 -15.8817 8.01
      vertex 19.2406 -17.7202 8.01
    endloop
  endfacet
  facet normal 0 0 1
    outer loop
      vertex 19.2406 -17.7202 8.01
      vertex 16.2135 -15.8817 8.01
      vertex 18.9271 -18.2634 8.01
    endloop
  endfacet
  facet normal 0 0 1
    outer loop
      vertex 19.5 16.5 8.01
      vertex 16.4672 15.3119 8.01
      vertex 16.5 15 8.01
    endloop
  endfacet
  facet normal 0 0 1
    outer loop
      vertex 19.5 16.5 8.01
      vertex 16.3703 15.6101 8.01
      vertex 16.4672 15.3119 8.01
    endloop
  endfacet
  facet normal 0 0 1
    outer loop
      vertex 19.5 16.5 8.01
      vertex 16.2135 15.8817 8.01
      vertex 16.3703 15.6101 8.01
    endloop
  endfacet
  facet normal 0 0 1
    outer loop
      vertex 18.9271 18.2634 8.01
      vertex 16.0037 16.1147 8.01
      vertex 16.2135 15.8817 8.01
    endloop
  endfacet
  facet normal 0 0 1
    outer loop
      vertex 17.4271 19.3532 8.01
      vertex 15.75 16.299 8.01
      vertex 16.0037 16.1147 8.01
    endloop
  endfacet
  facet normal 0 0 1
    outer loop
      vertex 16.8136 19.4836 8.01
      vertex 15.4635 16.4266 8.01
      vertex 15.75 16.299 8.01
    endloop
  endfacet
  facet normal 0 0 1
    outer loop
      vertex 16.8136 19.4836 8.01
      vertex 15.1568 16.4918 8.01
      vertex 15.4635 16.4266 8.01
    endloop
  endfacet
  facet normal 0 0 1
    outer loop
      vertex 16.8136 19.4836 8.01
      vertex -15.1568 16.4918 8.01
      vertex 15.1568 16.4918 8.01
    endloop
  endfacet
  facet normal 0 0 1
    outer loop
      vertex -16.0037 16.1147 8.01
      vertex -18.9271 18.2634 8.01
      vertex -16.2135 15.8817 8.01
    endloop
  endfacet
  facet normal -0 0 1
    outer loop
      vertex -18.9271 18.2634 8.01
      vertex -16.0037 16.1147 8.01
      vertex -18.5074 18.7294 8.01
    endloop
  endfacet
  facet normal -0 0 1
    outer loop
      vertex -18.5074 18.7294 8.01
      vertex -16.0037 16.1147 8.01
      vertex -18 19.0981 8.01
    endloop
  endfacet
  facet normal -0 0 1
    outer loop
      vertex -18 19.0981 8.01
      vertex -16.0037 16.1147 8.01
      vertex -17.4271 19.3532 8.01
    endloop
  endfacet
  facet normal 0 0 1
    outer loop
      vertex -15.75 16.299 8.01
      vertex -17.4271 19.3532 8.01
      vertex -16.0037 16.1147 8.01
    endloop
  endfacet
  facet normal -0 0 1
    outer loop
      vertex -17.4271 19.3532 8.01
      vertex -15.75 16.299 8.01
      vertex -16.8136 19.4836 8.01
    endloop
  endfacet
  facet normal 0 0 1
    outer loop
      vertex -15.4635 16.4266 8.01
      vertex -16.8136 19.4836 8.01
      vertex -15.75 16.299 8.01
    endloop
  endfacet
  facet normal 0 0 1
    outer loop
      vertex -15.1568 16.4918 8.01
      vertex -16.8136 19.4836 8.01
      vertex -15.4635 16.4266 8.01
    endloop
  endfacet
  facet normal -0 0 1
    outer loop
      vertex -16.8136 19.4836 8.01
      vertex -15.1568 16.4918 8.01
      vertex 16.8136 19.4836 8.01
    endloop
  endfacet
  facet normal -0 0 1
    outer loop
      vertex 16.0037 -16.1147 8.01
      vertex 18.9271 -18.2634 8.01
      vertex 16.2135 -15.8817 8.01
    endloop
  endfacet
  facet normal 0 0 1
    outer loop
      vertex 18.9271 -18.2634 8.01
      vertex 16.0037 -16.1147 8.01
      vertex 18.5074 -18.7294 8.01
    endloop
  endfacet
  facet normal 0 0 1
    outer loop
      vertex 18.5074 -18.7294 8.01
      vertex 16.0037 -16.1147 8.01
      vertex 18 -19.0981 8.01
    endloop
  endfacet
  facet normal 0 0 1
    outer loop
      vertex 18 -19.0981 8.01
      vertex 16.0037 -16.1147 8.01
      vertex 17.4271 -19.3532 8.01
    endloop
  endfacet
  facet normal -0 0 1
    outer loop
      vertex 15.75 -16.299 8.01
      vertex 17.4271 -19.3532 8.01
      vertex 16.0037 -16.1147 8.01
    endloop
  endfacet
  facet normal 0 0 1
    outer loop
      vertex 17.4271 -19.3532 8.01
      vertex 15.75 -16.299 8.01
      vertex 16.8136 -19.4836 8.01
    endloop
  endfacet
  facet normal -0 0 1
    outer loop
      vertex 15.4635 -16.4266 8.01
      vertex 16.8136 -19.4836 8.01
      vertex 15.75 -16.299 8.01
    endloop
  endfacet
  facet normal -0 0 1
    outer loop
      vertex 15.1568 -16.4918 8.01
      vertex 16.8136 -19.4836 8.01
      vertex 15.4635 -16.4266 8.01
    endloop
  endfacet
  facet normal -0 0 1
    outer loop
      vertex -15.1568 -16.4918 8.01
      vertex 16.8136 -19.4836 8.01
      vertex 15.1568 -16.4918 8.01
    endloop
  endfacet
  facet normal 0 0 1
    outer loop
      vertex -15.1568 -16.4918 8.01
      vertex -16.8136 -19.4836 8.01
      vertex 16.8136 -19.4836 8.01
    endloop
  endfacet
  facet normal 0 0 1
    outer loop
      vertex -15.4635 -16.4266 8.01
      vertex -16.8136 -19.4836 8.01
      vertex -15.1568 -16.4918 8.01
    endloop
  endfacet
  facet normal 0 0 1
    outer loop
      vertex -15.75 -16.299 8.01
      vertex -16.8136 -19.4836 8.01
      vertex -15.4635 -16.4266 8.01
    endloop
  endfacet
  facet normal 0 0 1
    outer loop
      vertex -17.4271 -19.3532 8.01
      vertex -15.75 -16.299 8.01
      vertex -16.0037 -16.1147 8.01
    endloop
  endfacet
  facet normal 0 0 1
    outer loop
      vertex -18.9271 -18.2634 8.01
      vertex -16.0037 -16.1147 8.01
      vertex -16.2135 -15.8817 8.01
    endloop
  endfacet
  facet normal 0 0 1
    outer loop
      vertex -19.5 -16.5 8.01
      vertex -16.2135 -15.8817 8.01
      vertex -16.3703 -15.6101 8.01
    endloop
  endfacet
  facet normal 0 0 1
    outer loop
      vertex -19.5 -16.5 8.01
      vertex -16.3703 -15.6101 8.01
      vertex -16.4672 -15.3119 8.01
    endloop
  endfacet
  facet normal 0 0 1
    outer loop
      vertex -19.5 -16.5 8.01
      vertex -16.4672 -15.3119 8.01
      vertex -16.5 -15 8.01
    endloop
  endfacet
  facet normal 0 0 1
    outer loop
      vertex -16.5 15 8.01
      vertex -19.5 16.5 8.01
      vertex -16.5 -15 8.01
    endloop
  endfacet
  facet normal -0 0 1
    outer loop
      vertex -19.2406 17.7202 8.01
      vertex -16.2135 15.8817 8.01
      vertex -18.9271 18.2634 8.01
    endloop
  endfacet
  facet normal 0 0 1
    outer loop
      vertex -19.5 -16.5 8.01
      vertex -16.5 -15 8.01
      vertex -19.5 16.5 8.01
    endloop
  endfacet
  facet normal -0 0 1
    outer loop
      vertex -19.4344 17.1237 8.01
      vertex -16.2135 15.8817 8.01
      vertex -19.2406 17.7202 8.01
    endloop
  endfacet
  facet normal 0 0 1
    outer loop
      vertex -16.2135 -15.8817 8.01
      vertex -19.5 -16.5 8.01
      vertex -19.4344 -17.1237 8.01
    endloop
  endfacet
  facet normal -0 0 1
    outer loop
      vertex -19.5 16.5 8.01
      vertex -16.2135 15.8817 8.01
      vertex -19.4344 17.1237 8.01
    endloop
  endfacet
  facet normal 0 0 1
    outer loop
      vertex -15.75 -16.299 8.01
      vertex -17.4271 -19.3532 8.01
      vertex -16.8136 -19.4836 8.01
    endloop
  endfacet
  facet normal 0 0 1
    outer loop
      vertex -16.2135 15.8817 8.01
      vertex -19.5 16.5 8.01
      vertex -16.3703 15.6101 8.01
    endloop
  endfacet
  facet normal 0 0 1
    outer loop
      vertex -16.0037 -16.1147 8.01
      vertex -18 -19.0981 8.01
      vertex -17.4271 -19.3532 8.01
    endloop
  endfacet
  facet normal 0 0 1
    outer loop
      vertex -16.3703 15.6101 8.01
      vertex -19.5 16.5 8.01
      vertex -16.4672 15.3119 8.01
    endloop
  endfacet
  facet normal 0 0 1
    outer loop
      vertex -16.0037 -16.1147 8.01
      vertex -18.5074 -18.7294 8.01
      vertex -18 -19.0981 8.01
    endloop
  endfacet
  facet normal 0 0 1
    outer loop
      vertex -16.4672 15.3119 8.01
      vertex -19.5 16.5 8.01
      vertex -16.5 15 8.01
    endloop
  endfacet
  facet normal 0 0 1
    outer loop
      vertex -16.0037 -16.1147 8.01
      vertex -18.9271 -18.2634 8.01
      vertex -18.5074 -18.7294 8.01
    endloop
  endfacet
  facet normal 0 0 1
    outer loop
      vertex -16.2135 -15.8817 8.01
      vertex -19.2406 -17.7202 8.01
      vertex -18.9271 -18.2634 8.01
    endloop
  endfacet
  facet normal 0 0 1
    outer loop
      vertex -16.2135 -15.8817 8.01
      vertex -19.4344 -17.1237 8.01
      vertex -19.2406 -17.7202 8.01
    endloop
  endfacet
  facet normal 0.406736 -0.913546 0
    outer loop
      vertex 17.4271 -19.3532 0
      vertex 18 -19.0981 8.01
      vertex 17.4271 -19.3532 8.01
    endloop
  endfacet
  facet normal 0.406736 -0.913546 0
    outer loop
      vertex 18 -19.0981 8.01
      vertex 17.4271 -19.3532 0
      vertex 18 -19.0981 0
    endloop
  endfacet
  facet normal 0.207914 -0.978147 0
    outer loop
      vertex 16.8136 -19.4836 0
      vertex 17.4271 -19.3532 8.01
      vertex 16.8136 -19.4836 8.01
    endloop
  endfacet
  facet normal 0.207914 -0.978147 0
    outer loop
      vertex 17.4271 -19.3532 8.01
      vertex 16.8136 -19.4836 0
      vertex 17.4271 -19.3532 0
    endloop
  endfacet
  facet normal -0.406736 0.913546 0
    outer loop
      vertex -17.4271 19.3532 0
      vertex -18 19.0981 8.01
      vertex -17.4271 19.3532 8.01
    endloop
  endfacet
  facet normal -0.406736 0.913546 0
    outer loop
      vertex -18 19.0981 8.01
      vertex -17.4271 19.3532 0
      vertex -18 19.0981 0
    endloop
  endfacet
  facet normal -0.207914 0.978147 0
    outer loop
      vertex -16.8136 19.4836 0
      vertex -17.4271 19.3532 8.01
      vertex -16.8136 19.4836 8.01
    endloop
  endfacet
  facet normal -0.207914 0.978147 0
    outer loop
      vertex -17.4271 19.3532 8.01
      vertex -16.8136 19.4836 0
      vertex -17.4271 19.3532 0
    endloop
  endfacet
  facet normal -0.587785 0.809017 0
    outer loop
      vertex -18 19.0981 0
      vertex -18.5074 18.7294 8.01
      vertex -18 19.0981 8.01
    endloop
  endfacet
  facet normal -0.587785 0.809017 0
    outer loop
      vertex -18.5074 18.7294 8.01
      vertex -18 19.0981 0
      vertex -18.5074 18.7294 0
    endloop
  endfacet
  facet normal -0.587785 -0.809017 0
    outer loop
      vertex -18.5074 -18.7294 0
      vertex -18 -19.0981 8.01
      vertex -18.5074 -18.7294 8.01
    endloop
  endfacet
  facet normal -0.587785 -0.809017 -0
    outer loop
      vertex -18 -19.0981 8.01
      vertex -18.5074 -18.7294 0
      vertex -18 -19.0981 0
    endloop
  endfacet
  facet normal -0.994522 -0.104529 0
    outer loop
      vertex -19.4344 -17.1237 0
      vertex -19.5 -16.5 8.01
      vertex -19.5 -16.5 0
    endloop
  endfacet
  facet normal -0.994522 -0.104529 0
    outer loop
      vertex -19.5 -16.5 8.01
      vertex -19.4344 -17.1237 0
      vertex -19.4344 -17.1237 8.01
    endloop
  endfacet
  facet normal -0.951056 0.309018 0
    outer loop
      vertex -19.4344 17.1237 0
      vertex -19.2406 17.7202 8.01
      vertex -19.2406 17.7202 0
    endloop
  endfacet
  facet normal -0.951056 0.309018 0
    outer loop
      vertex -19.2406 17.7202 8.01
      vertex -19.4344 17.1237 0
      vertex -19.4344 17.1237 8.01
    endloop
  endfacet
  facet normal -0.951056 -0.309018 0
    outer loop
      vertex -19.2406 -17.7202 0
      vertex -19.4344 -17.1237 8.01
      vertex -19.4344 -17.1237 0
    endloop
  endfacet
  facet normal -0.951056 -0.309018 0
    outer loop
      vertex -19.4344 -17.1237 8.01
      vertex -19.2406 -17.7202 0
      vertex -19.2406 -17.7202 8.01
    endloop
  endfacet
  facet normal -0.866027 -0.499997 0
    outer loop
      vertex -18.9271 -18.2634 0
      vertex -19.2406 -17.7202 8.01
      vertex -19.2406 -17.7202 0
    endloop
  endfacet
  facet normal -0.866027 -0.499997 0
    outer loop
      vertex -19.2406 -17.7202 8.01
      vertex -18.9271 -18.2634 0
      vertex -18.9271 -18.2634 8.01
    endloop
  endfacet
  facet normal -0.994522 -0.104532 0
    outer loop
      vertex 16.5 15 4.95
      vertex 16.4672 15.3119 8.01
      vertex 16.4672 15.3119 4.95
    endloop
  endfacet
  facet normal -0.994522 -0.104532 0
    outer loop
      vertex 16.4672 15.3119 8.01
      vertex 16.5 15 4.95
      vertex 16.5 15 8.01
    endloop
  endfacet
  facet normal 0 1 -0
    outer loop
      vertex 15.1568 -16.4918 4.95
      vertex -15.1568 -16.4918 8.01
      vertex 15.1568 -16.4918 8.01
    endloop
  endfacet
  facet normal 0 1 0
    outer loop
      vertex -15.1568 -16.4918 8.01
      vertex 15.1568 -16.4918 4.95
      vertex -15.1568 -16.4918 4.95
    endloop
  endfacet
  facet normal -0.207915 -0.978147 0
    outer loop
      vertex 15.1568 16.4918 4.95
      vertex 15.4635 16.4266 8.01
      vertex 15.1568 16.4918 8.01
    endloop
  endfacet
  facet normal -0.207915 -0.978147 -0
    outer loop
      vertex 15.4635 16.4266 8.01
      vertex 15.1568 16.4918 4.95
      vertex 15.4635 16.4266 4.95
    endloop
  endfacet
  facet normal -1 0 0
    outer loop
      vertex 16.5 -15 4.95
      vertex 16.5 15 8.01
      vertex 16.5 15 4.95
    endloop
  endfacet
  facet normal -1 -0 0
    outer loop
      vertex 16.5 15 8.01
      vertex 16.5 -15 4.95
      vertex 16.5 -15 8.01
    endloop
  endfacet
  facet normal 0 -1 0
    outer loop
      vertex -15.1568 16.4918 4.95
      vertex 15.1568 16.4918 8.01
      vertex -15.1568 16.4918 8.01
    endloop
  endfacet
  facet normal 0 -1 -0
    outer loop
      vertex 15.1568 16.4918 8.01
      vertex -15.1568 16.4918 4.95
      vertex 15.1568 16.4918 4.95
    endloop
  endfacet
  facet normal -0.743146 -0.669129 0
    outer loop
      vertex 16.2135 15.8817 4.95
      vertex 16.0037 16.1147 8.01
      vertex 16.0037 16.1147 4.95
    endloop
  endfacet
  facet normal -0.743146 -0.669129 0
    outer loop
      vertex 16.0037 16.1147 8.01
      vertex 16.2135 15.8817 4.95
      vertex 16.2135 15.8817 8.01
    endloop
  endfacet
  facet normal -0.587788 0.809015 0
    outer loop
      vertex 16.0037 -16.1147 4.95
      vertex 15.75 -16.299 8.01
      vertex 16.0037 -16.1147 8.01
    endloop
  endfacet
  facet normal -0.587788 0.809015 0
    outer loop
      vertex 15.75 -16.299 8.01
      vertex 16.0037 -16.1147 4.95
      vertex 15.75 -16.299 4.95
    endloop
  endfacet
  facet normal 0.994522 0.104532 0
    outer loop
      vertex -16.4672 -15.3119 8.01
      vertex -16.5 -15 4.95
      vertex -16.5 -15 8.01
    endloop
  endfacet
  facet normal 0.994522 0.104532 0
    outer loop
      vertex -16.5 -15 4.95
      vertex -16.4672 -15.3119 8.01
      vertex -16.4672 -15.3119 4.95
    endloop
  endfacet
  facet normal 0.207915 0.978147 -0
    outer loop
      vertex -15.1568 -16.4918 4.95
      vertex -15.4635 -16.4266 8.01
      vertex -15.1568 -16.4918 8.01
    endloop
  endfacet
  facet normal 0.207915 0.978147 0
    outer loop
      vertex -15.4635 -16.4266 8.01
      vertex -15.1568 -16.4918 4.95
      vertex -15.4635 -16.4266 4.95
    endloop
  endfacet
  facet normal 1 -0 0
    outer loop
      vertex -16.5 -15 8.01
      vertex -16.5 15 4.95
      vertex -16.5 15 8.01
    endloop
  endfacet
  facet normal 1 0 0
    outer loop
      vertex -16.5 15 4.95
      vertex -16.5 -15 8.01
      vertex -16.5 -15 4.95
    endloop
  endfacet
  facet normal 0.587786 -0.809016 0
    outer loop
      vertex -16.0037 16.1147 4.95
      vertex -15.75 16.299 8.01
      vertex -16.0037 16.1147 8.01
    endloop
  endfacet
  facet normal 0.587786 -0.809016 0
    outer loop
      vertex -15.75 16.299 8.01
      vertex -16.0037 16.1147 4.95
      vertex -15.75 16.299 4.95
    endloop
  endfacet
  facet normal -0.406735 -0.913546 0
    outer loop
      vertex 15.4635 16.4266 4.95
      vertex 15.75 16.299 8.01
      vertex 15.4635 16.4266 8.01
    endloop
  endfacet
  facet normal -0.406735 -0.913546 -0
    outer loop
      vertex 15.75 16.299 8.01
      vertex 15.4635 16.4266 4.95
      vertex 15.75 16.299 4.95
    endloop
  endfacet
  facet normal -0.587788 -0.809015 0
    outer loop
      vertex 15.75 16.299 4.95
      vertex 16.0037 16.1147 8.01
      vertex 15.75 16.299 8.01
    endloop
  endfacet
  facet normal -0.587788 -0.809015 -0
    outer loop
      vertex 16.0037 16.1147 8.01
      vertex 15.75 16.299 4.95
      vertex 16.0037 16.1147 4.95
    endloop
  endfacet
  facet normal -0.866024 -0.500002 0
    outer loop
      vertex 16.3703 15.6101 4.95
      vertex 16.2135 15.8817 8.01
      vertex 16.2135 15.8817 4.95
    endloop
  endfacet
  facet normal -0.866024 -0.500002 0
    outer loop
      vertex 16.2135 15.8817 8.01
      vertex 16.3703 15.6101 4.95
      vertex 16.3703 15.6101 8.01
    endloop
  endfacet
  facet normal -0.951057 -0.309016 0
    outer loop
      vertex 16.4672 15.3119 4.95
      vertex 16.3703 15.6101 8.01
      vertex 16.3703 15.6101 4.95
    endloop
  endfacet
  facet normal -0.951057 -0.309016 0
    outer loop
      vertex 16.3703 15.6101 8.01
      vertex 16.4672 15.3119 4.95
      vertex 16.4672 15.3119 8.01
    endloop
  endfacet
  facet normal -0.951057 0.309016 0
    outer loop
      vertex 16.3703 -15.6101 4.95
      vertex 16.4672 -15.3119 8.01
      vertex 16.4672 -15.3119 4.95
    endloop
  endfacet
  facet normal -0.951057 0.309016 0
    outer loop
      vertex 16.4672 -15.3119 8.01
      vertex 16.3703 -15.6101 4.95
      vertex 16.3703 -15.6101 8.01
    endloop
  endfacet
  facet normal 0.406735 0.913546 -0
    outer loop
      vertex -15.4635 -16.4266 4.95
      vertex -15.75 -16.299 8.01
      vertex -15.4635 -16.4266 8.01
    endloop
  endfacet
  facet normal 0.406735 0.913546 0
    outer loop
      vertex -15.75 -16.299 8.01
      vertex -15.4635 -16.4266 4.95
      vertex -15.75 -16.299 4.95
    endloop
  endfacet
  facet normal 0.994522 -0.104532 0
    outer loop
      vertex -16.5 15 8.01
      vertex -16.4672 15.3119 4.95
      vertex -16.4672 15.3119 8.01
    endloop
  endfacet
  facet normal 0.994522 -0.104532 0
    outer loop
      vertex -16.4672 15.3119 4.95
      vertex -16.5 15 8.01
      vertex -16.5 15 4.95
    endloop
  endfacet
  facet normal 0.207915 -0.978147 0
    outer loop
      vertex -15.4635 16.4266 4.95
      vertex -15.1568 16.4918 8.01
      vertex -15.4635 16.4266 8.01
    endloop
  endfacet
  facet normal 0.207915 -0.978147 0
    outer loop
      vertex -15.1568 16.4918 8.01
      vertex -15.4635 16.4266 4.95
      vertex -15.1568 16.4918 4.95
    endloop
  endfacet
  facet normal 0.406736 -0.913546 0
    outer loop
      vertex -15.75 16.299 4.95
      vertex -15.4635 16.4266 8.01
      vertex -15.75 16.299 8.01
    endloop
  endfacet
  facet normal 0.406736 -0.913546 0
    outer loop
      vertex -15.4635 16.4266 8.01
      vertex -15.75 16.299 4.95
      vertex -15.4635 16.4266 4.95
    endloop
  endfacet
  facet normal -0.994522 0.104532 0
    outer loop
      vertex 16.4672 -15.3119 4.95
      vertex 16.5 -15 8.01
      vertex 16.5 -15 4.95
    endloop
  endfacet
  facet normal -0.994522 0.104532 0
    outer loop
      vertex 16.5 -15 8.01
      vertex 16.4672 -15.3119 4.95
      vertex 16.4672 -15.3119 8.01
    endloop
  endfacet
  facet normal -0.406735 0.913546 0
    outer loop
      vertex 15.75 -16.299 4.95
      vertex 15.4635 -16.4266 8.01
      vertex 15.75 -16.299 8.01
    endloop
  endfacet
  facet normal -0.406735 0.913546 0
    outer loop
      vertex 15.4635 -16.4266 8.01
      vertex 15.75 -16.299 4.95
      vertex 15.4635 -16.4266 4.95
    endloop
  endfacet
  facet normal -0.207915 0.978147 0
    outer loop
      vertex 15.4635 -16.4266 4.95
      vertex 15.1568 -16.4918 8.01
      vertex 15.4635 -16.4266 8.01
    endloop
  endfacet
  facet normal -0.207915 0.978147 0
    outer loop
      vertex 15.1568 -16.4918 8.01
      vertex 15.4635 -16.4266 4.95
      vertex 15.1568 -16.4918 4.95
    endloop
  endfacet
  facet normal 0.743146 0.669129 0
    outer loop
      vertex -16.0037 -16.1147 8.01
      vertex -16.2135 -15.8817 4.95
      vertex -16.2135 -15.8817 8.01
    endloop
  endfacet
  facet normal 0.743146 0.669129 0
    outer loop
      vertex -16.2135 -15.8817 4.95
      vertex -16.0037 -16.1147 8.01
      vertex -16.0037 -16.1147 4.95
    endloop
  endfacet
  facet normal 0.951057 -0.309016 0
    outer loop
      vertex -16.4672 15.3119 8.01
      vertex -16.3703 15.6101 4.95
      vertex -16.3703 15.6101 8.01
    endloop
  endfacet
  facet normal 0.951057 -0.309016 0
    outer loop
      vertex -16.3703 15.6101 4.95
      vertex -16.4672 15.3119 8.01
      vertex -16.4672 15.3119 4.95
    endloop
  endfacet
  facet normal 0.866024 -0.500002 0
    outer loop
      vertex -16.3703 15.6101 8.01
      vertex -16.2135 15.8817 4.95
      vertex -16.2135 15.8817 8.01
    endloop
  endfacet
  facet normal 0.866024 -0.500002 0
    outer loop
      vertex -16.2135 15.8817 4.95
      vertex -16.3703 15.6101 8.01
      vertex -16.3703 15.6101 4.95
    endloop
  endfacet
  facet normal 0.743146 -0.669129 0
    outer loop
      vertex -16.2135 15.8817 8.01
      vertex -16.0037 16.1147 4.95
      vertex -16.0037 16.1147 8.01
    endloop
  endfacet
  facet normal 0.743146 -0.669129 0
    outer loop
      vertex -16.0037 16.1147 4.95
      vertex -16.2135 15.8817 8.01
      vertex -16.2135 15.8817 4.95
    endloop
  endfacet
  facet normal -0.866024 0.500002 0
    outer loop
      vertex 16.2135 -15.8817 4.95
      vertex 16.3703 -15.6101 8.01
      vertex 16.3703 -15.6101 4.95
    endloop
  endfacet
  facet normal -0.866024 0.500002 0
    outer loop
      vertex 16.3703 -15.6101 8.01
      vertex 16.2135 -15.8817 4.95
      vertex 16.2135 -15.8817 8.01
    endloop
  endfacet
  facet normal -0.743146 0.669129 0
    outer loop
      vertex 16.0037 -16.1147 4.95
      vertex 16.2135 -15.8817 8.01
      vertex 16.2135 -15.8817 4.95
    endloop
  endfacet
  facet normal -0.743146 0.669129 0
    outer loop
      vertex 16.2135 -15.8817 8.01
      vertex 16.0037 -16.1147 4.95
      vertex 16.0037 -16.1147 8.01
    endloop
  endfacet
  facet normal 0.951057 0.309016 0
    outer loop
      vertex -16.3703 -15.6101 8.01
      vertex -16.4672 -15.3119 4.95
      vertex -16.4672 -15.3119 8.01
    endloop
  endfacet
  facet normal 0.951057 0.309016 0
    outer loop
      vertex -16.4672 -15.3119 4.95
      vertex -16.3703 -15.6101 8.01
      vertex -16.3703 -15.6101 4.95
    endloop
  endfacet
  facet normal 0.866024 0.500002 0
    outer loop
      vertex -16.2135 -15.8817 8.01
      vertex -16.3703 -15.6101 4.95
      vertex -16.3703 -15.6101 8.01
    endloop
  endfacet
  facet normal 0.866024 0.500002 0
    outer loop
      vertex -16.3703 -15.6101 4.95
      vertex -16.2135 -15.8817 8.01
      vertex -16.2135 -15.8817 4.95
    endloop
  endfacet
  facet normal 0.587788 0.809015 -0
    outer loop
      vertex -15.75 -16.299 4.95
      vertex -16.0037 -16.1147 8.01
      vertex -15.75 -16.299 8.01
    endloop
  endfacet
  facet normal 0.587788 0.809015 0
    outer loop
      vertex -16.0037 -16.1147 8.01
      vertex -15.75 -16.299 4.95
      vertex -16.0037 -16.1147 4.95
    endloop
  endfacet
  facet normal 0.663198 -0.247246 0.706426
    outer loop
      vertex 0.840476 -5.38832 4.95
      vertex 2.92516 -5.368 3
      vertex 1.03674 -4.86189 4.95
    endloop
  endfacet
  facet normal 0.663198 -0.247247 0.706426
    outer loop
      vertex 2.92516 -5.368 3
      vertex 0.840476 -5.38832 4.95
      vertex 2.59016 -6.26656 3
    endloop
  endfacet
  facet normal -0 0 1
    outer loop
      vertex -6.21483 3.62823 3
      vertex -3.74283 -4.62175 3
      vertex -3.74283 3.62823 3
    endloop
  endfacet
  facet normal 0 -0 1
    outer loop
      vertex -6.1882 -5.49237 3
      vertex -3.74283 -4.62175 3
      vertex -6.21483 -5.09375 3
    endloop
  endfacet
  facet normal 0 -0 1
    outer loop
      vertex -6.13804 -6.24324 3
      vertex -3.74283 -4.62175 3
      vertex -6.1882 -5.49237 3
    endloop
  endfacet
  facet normal 0 -0 1
    outer loop
      vertex -5.88452 -7.38574 3
      vertex -3.74283 -4.62175 3
      vertex -6.00437 -6.87437 3
    endloop
  endfacet
  facet normal 0 -0 1
    outer loop
      vertex -5.57615 -8.06299 3
      vertex -3.74283 -4.62175 3
      vertex -5.70464 -7.78081 3
    endloop
  endfacet
  facet normal 0 0 1
    outer loop
      vertex -3.74283 -4.62175 3
      vertex -5.4693 -8.28874 3
      vertex -4.90683 -9.01074 3
    endloop
  endfacet
  facet normal 0 0 1
    outer loop
      vertex -5.4693 -8.28874 3
      vertex -5.49906 -8.2323 3
      vertex -5.47908 -8.27618 3
    endloop
  endfacet
  facet normal 0 0 1
    outer loop
      vertex -5.4693 -8.28874 3
      vertex -5.57615 -8.06299 3
      vertex -5.49906 -8.2323 3
    endloop
  endfacet
  facet normal 0 -0 1
    outer loop
      vertex -5.4693 -8.28874 3
      vertex -3.74283 -4.62175 3
      vertex -5.57615 -8.06299 3
    endloop
  endfacet
  facet normal 0 0 1
    outer loop
      vertex -3.74283 -4.62175 3
      vertex -5.88452 -7.38574 3
      vertex -5.70464 -7.78081 3
    endloop
  endfacet
  facet normal 0 0 1
    outer loop
      vertex -5.88452 -7.38574 3
      vertex -6.00437 -6.87437 3
      vertex -5.88782 -7.37849 3
    endloop
  endfacet
  facet normal 0 0 1
    outer loop
      vertex -3.74283 -4.62175 3
      vertex -6.13307 -6.31767 3
      vertex -6.00437 -6.87437 3
    endloop
  endfacet
  facet normal 0 -0 1
    outer loop
      vertex -6.13307 -6.31767 3
      vertex -3.74283 -4.62175 3
      vertex -6.13804 -6.24324 3
    endloop
  endfacet
  facet normal 0 0 1
    outer loop
      vertex -3.74283 -4.62175 3
      vertex -6.21483 3.62823 3
      vertex -6.21483 -5.09375 3
    endloop
  endfacet
  facet normal 0 0 1
    outer loop
      vertex -3.74283 -4.62175 3
      vertex -4.90683 -9.01074 3
      vertex -4.19014 -9.58212 3
    endloop
  endfacet
  facet normal -0 0 1
    outer loop
      vertex 3.19316 -3.06573 3
      vertex 5.66516 -10.0387 3
      vertex 5.66516 10.1842 3
    endloop
  endfacet
  facet normal 0 0 1
    outer loop
      vertex 5.66516 -10.0387 3
      vertex 3.41516 -7.62175 3
      vertex 3.72116 -10.0387 3
    endloop
  endfacet
  facet normal -0 0 1
    outer loop
      vertex 3.12616 -4.30106 3
      vertex 5.66516 -10.0387 3
      vertex 3.19316 -3.06573 3
    endloop
  endfacet
  facet normal 0 0 1
    outer loop
      vertex 3.19316 -3.06573 3
      vertex 5.66516 10.1842 3
      vertex 3.19316 10.1842 3
    endloop
  endfacet
  facet normal 0 0 1
    outer loop
      vertex 5.66516 -10.0387 3
      vertex 3.12616 -4.30106 3
      vertex 3.41516 -7.62175 3
    endloop
  endfacet
  facet normal -0 0 1
    outer loop
      vertex 2.92516 -5.368 3
      vertex 3.41516 -7.62175 3
      vertex 3.12616 -4.30106 3
    endloop
  endfacet
  facet normal -0 0 1
    outer loop
      vertex 2.59016 -6.26656 3
      vertex 3.41516 -7.62175 3
      vertex 2.92516 -5.368 3
    endloop
  endfacet
  facet normal 0 0 1
    outer loop
      vertex 3.41516 -7.62175 3
      vertex 2.59016 -6.26656 3
      vertex 3.27615 -7.62175 3
    endloop
  endfacet
  facet normal -0 0 1
    outer loop
      vertex 2.12115 -6.99675 3
      vertex 3.27615 -7.62175 3
      vertex 2.59016 -6.26656 3
    endloop
  endfacet
  facet normal 0 0 1
    outer loop
      vertex 3.27615 -7.62175 3
      vertex 2.12115 -6.99675 3
      vertex 3.08198 -7.96574 3
    endloop
  endfacet
  facet normal 0 0 1
    outer loop
      vertex 3.08198 -7.96574 3
      vertex 2.12115 -6.99675 3
      vertex 2.97385 -8.1573 3
    endloop
  endfacet
  facet normal 0 0 1
    outer loop
      vertex 2.97385 -8.1573 3
      vertex 2.12115 -6.99675 3
      vertex 2.9351 -8.20799 3
    endloop
  endfacet
  facet normal -0 0 1
    outer loop
      vertex 1.54204 -7.562 3
      vertex 2.9351 -8.20799 3
      vertex 2.12115 -6.99675 3
    endloop
  endfacet
  facet normal 0 0 1
    outer loop
      vertex 2.9351 -8.20799 3
      vertex 1.54204 -7.562 3
      vertex 2.87337 -8.28874 3
    endloop
  endfacet
  facet normal 0 0 1
    outer loop
      vertex 2.87337 -8.28874 3
      vertex 1.54204 -7.562 3
      vertex 2.59491 -8.653 3
    endloop
  endfacet
  facet normal -0 0 1
    outer loop
      vertex 1.44371 -7.62175 3
      vertex 2.59491 -8.653 3
      vertex 1.54204 -7.562 3
    endloop
  endfacet
  facet normal 0 0 1
    outer loop
      vertex 2.59491 -8.653 3
      vertex 1.44371 -7.62175 3
      vertex 2.13934 -9.10881 3
    endloop
  endfacet
  facet normal -0 0 1
    outer loop
      vertex 0.877655 -7.96574 3
      vertex 2.13934 -9.10881 3
      vertex 1.44371 -7.62175 3
    endloop
  endfacet
  facet normal 0 0 1
    outer loop
      vertex 2.13934 -9.10881 3
      vertex 0.877655 -7.96574 3
      vertex 1.60716 -9.52475 3
    endloop
  endfacet
  facet normal 0 0 1
    outer loop
      vertex 1.60716 -9.52475 3
      vertex 0.877655 -7.96574 3
      vertex 0.997971 -9.87125 3
    endloop
  endfacet
  facet normal -0 0 1
    outer loop
      vertex 0.128036 -8.20799 3
      vertex 0.997971 -9.87125 3
      vertex 0.877655 -7.96574 3
    endloop
  endfacet
  facet normal 0 0 1
    outer loop
      vertex 0.997971 -9.87125 3
      vertex 0.128036 -8.20799 3
      vertex 0.312408 -10.1187 3
    endloop
  endfacet
  facet normal -0 0 1
    outer loop
      vertex -0.706818 -8.28874 3
      vertex 0.312408 -10.1187 3
      vertex 0.128036 -8.20799 3
    endloop
  endfacet
  facet normal 0 0 1
    outer loop
      vertex 0.312408 -10.1187 3
      vertex -0.706818 -8.28874 3
      vertex -0.449509 -10.2672 3
    endloop
  endfacet
  facet normal 0 0 1
    outer loop
      vertex -0.706818 -8.28874 3
      vertex -1.28783 -10.3167 3
      vertex -0.449509 -10.2672 3
    endloop
  endfacet
  facet normal 0 0 1
    outer loop
      vertex -1.3672 -8.2323 3
      vertex -1.28783 -10.3167 3
      vertex -0.706818 -8.28874 3
    endloop
  endfacet
  facet normal 0 0 1
    outer loop
      vertex -2.38063 -10.2351 3
      vertex -1.3672 -8.2323 3
      vertex -1.95633 -8.06299 3
    endloop
  endfacet
  facet normal 0 0 1
    outer loop
      vertex -1.3672 -8.2323 3
      vertex -2.38063 -10.2351 3
      vertex -1.28783 -10.3167 3
    endloop
  endfacet
  facet normal 0 0 1
    outer loop
      vertex -3.34807 -9.99025 3
      vertex -1.95633 -8.06299 3
      vertex -2.4742 -7.78081 3
    endloop
  endfacet
  facet normal 0 0 1
    outer loop
      vertex -4.19014 -9.58212 3
      vertex -2.4742 -7.78081 3
      vertex -2.92082 -7.38574 3
    endloop
  endfacet
  facet normal 0 0 1
    outer loop
      vertex -4.19014 -9.58212 3
      vertex -2.92082 -7.38574 3
      vertex -3.28046 -6.87437 3
    endloop
  endfacet
  facet normal 0 0 1
    outer loop
      vertex -1.95633 -8.06299 3
      vertex -3.34807 -9.99025 3
      vertex -2.38063 -10.2351 3
    endloop
  endfacet
  facet normal 0 0 1
    outer loop
      vertex -4.19014 -9.58212 3
      vertex -3.28046 -6.87437 3
      vertex -3.53732 -6.24324 3
    endloop
  endfacet
  facet normal 0 0 1
    outer loop
      vertex -4.19014 -9.58212 3
      vertex -3.53732 -6.24324 3
      vertex -3.69145 -5.49237 3
    endloop
  endfacet
  facet normal 0 0 1
    outer loop
      vertex -2.4742 -7.78081 3
      vertex -4.19014 -9.58212 3
      vertex -3.34807 -9.99025 3
    endloop
  endfacet
  facet normal 0 0 1
    outer loop
      vertex -4.19014 -9.58212 3
      vertex -3.69145 -5.49237 3
      vertex -3.74283 -4.62175 3
    endloop
  endfacet
  facet normal -0.707107 0 0.707107
    outer loop
      vertex 5.66516 -10.0387 3
      vertex 7.61516 10.1842 4.95
      vertex 5.66516 10.1842 3
    endloop
  endfacet
  facet normal -0.707107 0 0.707107
    outer loop
      vertex 7.61516 10.1842 4.95
      vertex 5.66516 -10.0387 3
      vertex 7.61516 -10.0387 4.95
    endloop
  endfacet
  facet normal 0.694977 -0.130929 0.707011
    outer loop
      vertex 1.03674 -4.86189 4.95
      vertex 3.12616 -4.30106 3
      vertex 1.18981 -4.04935 4.95
    endloop
  endfacet
  facet normal 0.694977 -0.130929 0.707011
    outer loop
      vertex 3.12616 -4.30106 3
      vertex 1.03674 -4.86189 4.95
      vertex 2.92516 -5.368 3
    endloop
  endfacet
  facet normal 0.595441 -0.382457 0.706524
    outer loop
      vertex 0.606766 -5.75218 4.95
      vertex 2.59016 -6.26656 3
      vertex 0.840476 -5.38832 4.95
    endloop
  endfacet
  facet normal 0.595441 -0.382457 0.706524
    outer loop
      vertex 2.59016 -6.26656 3
      vertex 0.606766 -5.75218 4.95
      vertex 2.12115 -6.99675 3
    endloop
  endfacet
  facet normal -0.288397 0.647745 0.705162
    outer loop
      vertex 6.26774 -11.8933 4.95
      vertex 6.64016 -11.7275 4.95
      vertex 5.66516 -10.0387 3
    endloop
  endfacet
  facet normal 0.614052 0.354523 0.705162
    outer loop
      vertex 2.39839 -10.8952 4.58245
      vertex 3.72116 -10.0387 3
      vertex 2.46119 -10.5997 4.37921
    endloop
  endfacet
  facet normal 0.614051 0.354525 0.705162
    outer loop
      vertex 3.72116 -10.0387 3
      vertex 2.39839 -10.8952 4.58245
      vertex 2.3635 -11.0251 4.67816
    endloop
  endfacet
  facet normal 0.674343 0.219109 0.705162
    outer loop
      vertex 2.49139 -10.5068 4.32146
      vertex 3.72116 -10.0387 3
      vertex 2.55866 -10.2858 4.18848
    endloop
  endfacet
  facet normal 0.674343 0.219108 0.705162
    outer loop
      vertex 3.72116 -10.0387 3
      vertex 2.49139 -10.5068 4.32146
      vertex 2.46119 -10.5997 4.37921
    endloop
  endfacet
  facet normal -0.614053 0.354522 0.705162
    outer loop
      vertex 7.24274 -11.1849 4.95
      vertex 7.44657 -10.8319 4.95
      vertex 5.66516 -10.0387 3
    endloop
  endfacet
  facet normal -0.526924 0.474445 0.705162
    outer loop
      vertex 6.96996 -11.4879 4.95
      vertex 7.24274 -11.1849 4.95
      vertex 5.66516 -10.0387 3
    endloop
  endfacet
  facet normal 0.416767 0.573631 0.705162
    outer loop
      vertex 2.74616 -11.7275 4.95
      vertex 3.72116 -10.0387 3
      vertex 2.41636 -11.4879 4.95
    endloop
  endfacet
  facet normal -0.674343 0.219108 0.705162
    outer loop
      vertex 7.44657 -10.8319 4.95
      vertex 7.57255 -10.4442 4.95
      vertex 5.66516 -10.0387 3
    endloop
  endfacet
  facet normal -0.705162 0.0741163 0.705162
    outer loop
      vertex 7.57255 -10.4442 4.95
      vertex 7.61516 -10.0387 4.95
      vertex 5.66516 -10.0387 3
    endloop
  endfacet
  facet normal -0.416766 0.573631 0.705162
    outer loop
      vertex 6.64016 -11.7275 4.95
      vertex 6.96996 -11.4879 4.95
      vertex 5.66516 -10.0387 3
    endloop
  endfacet
  facet normal 0 0.709046 0.705162
    outer loop
      vertex 5.66516 -10.0387 3
      vertex 3.51733 -11.9781 4.95
      vertex 5.86899 -11.9781 4.95
    endloop
  endfacet
  facet normal 0 0.709046 0.705162
    outer loop
      vertex 3.51733 -11.9781 4.95
      vertex 5.66516 -10.0387 3
      vertex 3.72116 -10.0387 3
    endloop
  endfacet
  facet normal -0.147418 0.693552 0.705162
    outer loop
      vertex 5.86899 -11.9781 4.95
      vertex 6.26774 -11.8933 4.95
      vertex 5.66516 -10.0387 3
    endloop
  endfacet
  facet normal 0.702731 0.0889678 0.705871
    outer loop
      vertex 3.26637 -8.04784 3.20184
      vertex 3.41516 -7.62175 3
      vertex 3.33153 -7.71642 3.09519
    endloop
  endfacet
  facet normal 0.70273 0.0889681 0.705872
    outer loop
      vertex 3.41516 -7.62175 3
      vertex 3.26637 -8.04784 3.20184
      vertex 3.72116 -10.0387 3
    endloop
  endfacet
  facet normal 0.702731 0.0889684 0.705871
    outer loop
      vertex 3.22303 -8.26825 3.27276
      vertex 3.72116 -10.0387 3
      vertex 3.26637 -8.04784 3.20184
    endloop
  endfacet
  facet normal 0.702729 0.0889676 0.705873
    outer loop
      vertex 3.21069 -8.32938 3.29275
      vertex 3.72116 -10.0387 3
      vertex 3.22303 -8.26825 3.27276
    endloop
  endfacet
  facet normal 0.702729 0.0889674 0.705873
    outer loop
      vertex 3.19295 -8.39533 3.31873
      vertex 3.72116 -10.0387 3
      vertex 3.21069 -8.32938 3.29275
    endloop
  endfacet
  facet normal 0.702732 0.0889689 0.70587
    outer loop
      vertex 3.16469 -8.5004 3.3601
      vertex 3.72116 -10.0387 3
      vertex 3.19295 -8.39533 3.31873
    endloop
  endfacet
  facet normal 0.70273 0.0889681 0.705872
    outer loop
      vertex 3.03723 -8.97436 3.54674
      vertex 3.72116 -10.0387 3
      vertex 3.16469 -8.5004 3.3601
    endloop
  endfacet
  facet normal 0.702731 0.0889686 0.705871
    outer loop
      vertex 2.9977 -9.10035 3.60196
      vertex 3.72116 -10.0387 3
      vertex 3.03723 -8.97436 3.54674
    endloop
  endfacet
  facet normal 0.70273 0.0889679 0.705872
    outer loop
      vertex 2.75957 -9.79765 3.92692
      vertex 3.72116 -10.0387 3
      vertex 2.9977 -9.10035 3.60196
    endloop
  endfacet
  facet normal 0.70273 0.0889679 0.705872
    outer loop
      vertex 3.72116 -10.0387 3
      vertex 2.75957 -9.79765 3.92692
      vertex 2.55866 -10.2858 4.18848
    endloop
  endfacet
  facet normal 0.288396 0.647746 0.705162
    outer loop
      vertex 3.11858 -11.8933 4.95
      vertex 3.72116 -10.0387 3
      vertex 2.74616 -11.7275 4.95
    endloop
  endfacet
  facet normal 0.526924 0.474444 0.705162
    outer loop
      vertex 2.3635 -11.0251 4.67816
      vertex 2.41636 -11.4879 4.95
      vertex 3.72116 -10.0387 3
    endloop
  endfacet
  facet normal 0.526925 0.474444 0.705161
    outer loop
      vertex 2.41636 -11.4879 4.95
      vertex 2.3635 -11.0251 4.67816
      vertex 2.30913 -11.3688 4.95
    endloop
  endfacet
  facet normal 0.147418 0.693552 0.705162
    outer loop
      vertex 3.51733 -11.9781 4.95
      vertex 3.72116 -10.0387 3
      vertex 3.11858 -11.8933 4.95
    endloop
  endfacet
  facet normal 0 0.709046 0.705162
    outer loop
      vertex 3.33153 -7.71642 3.09519
      vertex 3.41516 -7.62175 3
      vertex 3.27615 -7.62175 3
    endloop
  endfacet
  facet normal 0.367267 -0.604352 0.707017
    outer loop
      vertex 1.44371 -7.62175 3
      vertex 1.54204 -7.562 3
      vertex 1.01458 -6.87847 3.85827
    endloop
  endfacet
  facet normal 0.526924 0.474445 0.705162
    outer loop
      vertex -6.21163 -10.4599 4.95
      vertex -4.90683 -9.01074 3
      vertex -6.48441 -10.1569 4.95
    endloop
  endfacet
  facet normal 0 0.709046 0.705162
    outer loop
      vertex -1.084 -12.2561 4.95
      vertex -1.28783 -10.3167 3
      vertex -1.49166 -12.2561 4.95
    endloop
  endfacet
  facet normal -0.3496 0.614647 0.707099
    outer loop
      vertex 2.3635 -11.0251 4.67816
      vertex 1.97297 -11.56 4.95
      vertex 2.30913 -11.3688 4.95
    endloop
  endfacet
  facet normal -0.349597 0.614649 0.707098
    outer loop
      vertex 0.997971 -9.87125 3
      vertex 2.3635 -11.0251 4.67816
      vertex 2.39839 -10.8952 4.58245
    endloop
  endfacet
  facet normal -0.349599 0.614647 0.707099
    outer loop
      vertex 0.997971 -9.87125 3
      vertex 2.39839 -10.8952 4.58245
      vertex 1.60716 -9.52475 3
    endloop
  endfacet
  facet normal -0.3496 0.614647 0.707099
    outer loop
      vertex 2.3635 -11.0251 4.67816
      vertex 0.997971 -9.87125 3
      vertex 1.97297 -11.56 4.95
    endloop
  endfacet
  facet normal -0.0417012 0.706247 0.706737
    outer loop
      vertex -0.449509 -10.2672 3
      vertex -1.084 -12.2561 4.95
      vertex -0.245678 -12.2066 4.95
    endloop
  endfacet
  facet normal -0.0417012 0.706247 0.706737
    outer loop
      vertex -1.084 -12.2561 4.95
      vertex -0.449509 -10.2672 3
      vertex -1.28783 -10.3167 3
    endloop
  endfacet
  facet normal -0.561848 0.429506 0.707002
    outer loop
      vertex 2.59491 -8.653 3
      vertex 3.16469 -8.5004 3.3601
      vertex 2.87337 -8.28874 3
    endloop
  endfacet
  facet normal -0.561848 0.429506 0.707002
    outer loop
      vertex 3.16469 -8.5004 3.3601
      vertex 2.59491 -8.653 3
      vertex 3.03723 -8.97436 3.54674
    endloop
  endfacet
  facet normal 0.557972 0.434682 0.706908
    outer loop
      vertex -5.4693 -8.28874 3
      vertex -6.48441 -10.1569 4.95
      vertex -4.90683 -9.01074 3
    endloop
  endfacet
  facet normal 0.557972 0.434682 0.706908
    outer loop
      vertex -6.48441 -10.1569 4.95
      vertex -5.4693 -8.28874 3
      vertex -7.04688 -9.43492 4.95
    endloop
  endfacet
  facet normal 0.147418 0.693552 0.705162
    outer loop
      vertex -2.58446 -12.1744 4.95
      vertex -2.38063 -10.2351 3
      vertex -2.98321 -12.0897 4.95
    endloop
  endfacet
  facet normal 0.308803 0.637141 0.706181
    outer loop
      vertex -4.19014 -9.58212 3
      vertex -4.32307 -11.679 4.95
      vertex -3.34807 -9.99025 3
    endloop
  endfacet
  facet normal 0.308803 0.637141 0.706181
    outer loop
      vertex -4.32307 -11.679 4.95
      vertex -4.19014 -9.58212 3
      vertex -5.16514 -11.2709 4.95
    endloop
  endfacet
  facet normal -0.526924 0.474445 0.705162
    outer loop
      vertex 2.9977 -9.10035 3.60196
      vertex 3.03723 -8.97436 3.54674
      vertex 2.59491 -8.653 3
    endloop
  endfacet
  facet normal -0.147418 0.693552 0.705162
    outer loop
      vertex 0.516239 -12.0581 4.95
      vertex 0.914991 -11.9733 4.95
      vertex 0.312408 -10.1187 3
    endloop
  endfacet
  facet normal -0.135531 0.695385 0.705742
    outer loop
      vertex -0.449509 -10.2672 3
      vertex 0.516239 -12.0581 4.95
      vertex 0.312408 -10.1187 3
    endloop
  endfacet
  facet normal -0.135531 0.695385 0.705742
    outer loop
      vertex 0.516239 -12.0581 4.95
      vertex -0.449509 -10.2672 3
      vertex -0.245678 -12.2066 4.95
    endloop
  endfacet
  facet normal 0.441195 0.553396 0.70647
    outer loop
      vertex -4.90683 -9.01074 3
      vertex -5.49494 -11.0313 4.95
      vertex -4.19014 -9.58212 3
    endloop
  endfacet
  facet normal 0.441195 0.553396 0.70647
    outer loop
      vertex -5.49494 -11.0313 4.95
      vertex -4.90683 -9.01074 3
      vertex -6.21163 -10.4599 4.95
    endloop
  endfacet
  facet normal 0.0526776 0.705303 0.706946
    outer loop
      vertex -2.38063 -10.2351 3
      vertex -1.49166 -12.2561 4.95
      vertex -1.28783 -10.3167 3
    endloop
  endfacet
  facet normal 0.0526776 0.705303 0.706946
    outer loop
      vertex -1.49166 -12.2561 4.95
      vertex -2.38063 -10.2351 3
      vertex -2.58446 -12.1744 4.95
    endloop
  endfacet
  facet normal -0.24017 0.665266 0.706922
    outer loop
      vertex 0.312408 -10.1187 3
      vertex 1.60055 -11.7258 4.95
      vertex 0.997971 -9.87125 3
    endloop
  endfacet
  facet normal -0.24017 0.665266 0.706922
    outer loop
      vertex 1.60055 -11.7258 4.95
      vertex 0.312408 -10.1187 3
      vertex 0.914991 -11.9733 4.95
    endloop
  endfacet
  facet normal -0.50048 0.500212 0.706616
    outer loop
      vertex 2.13934 -9.10881 3
      vertex 2.9977 -9.10035 3.60196
      vertex 2.59491 -8.653 3
    endloop
  endfacet
  facet normal -0.500481 0.500212 0.706617
    outer loop
      vertex 2.9977 -9.10035 3.60196
      vertex 2.13934 -9.10881 3
      vertex 2.75957 -9.79765 3.92692
    endloop
  endfacet
  facet normal 0.416767 0.573631 0.705162
    outer loop
      vertex -5.16514 -11.2709 4.95
      vertex -4.19014 -9.58212 3
      vertex -5.49494 -11.0313 4.95
    endloop
  endfacet
  facet normal 0.288396 0.647746 0.705162
    outer loop
      vertex -3.95065 -11.8448 4.95
      vertex -3.34807 -9.99025 3
      vertex -4.32307 -11.679 4.95
    endloop
  endfacet
  facet normal -0.288397 0.647745 0.705162
    outer loop
      vertex 1.60055 -11.7258 4.95
      vertex 1.97297 -11.56 4.95
      vertex 0.997971 -9.87125 3
    endloop
  endfacet
  facet normal -0.416767 0.573631 0.705162
    outer loop
      vertex 2.46119 -10.5997 4.37921
      vertex 1.60716 -9.52475 3
      vertex 2.39839 -10.8952 4.58245
    endloop
  endfacet
  facet normal -0.416768 0.57363 0.705162
    outer loop
      vertex 1.60716 -9.52475 3
      vertex 2.46119 -10.5997 4.37921
      vertex 2.49139 -10.5068 4.32146
    endloop
  endfacet
  facet normal -0.435967 0.557805 0.706248
    outer loop
      vertex 1.60716 -9.52475 3
      vertex 2.75957 -9.79765 3.92692
      vertex 2.13934 -9.10881 3
    endloop
  endfacet
  facet normal -0.435967 0.557805 0.706248
    outer loop
      vertex 2.75957 -9.79765 3.92692
      vertex 1.60716 -9.52475 3
      vertex 2.55866 -10.2858 4.18848
    endloop
  endfacet
  facet normal -0.435966 0.557806 0.706248
    outer loop
      vertex 2.55866 -10.2858 4.18848
      vertex 1.60716 -9.52475 3
      vertex 2.49139 -10.5068 4.32146
    endloop
  endfacet
  facet normal 0.173698 0.686241 0.70633
    outer loop
      vertex -3.34807 -9.99025 3
      vertex -2.98321 -12.0897 4.95
      vertex -2.38063 -10.2351 3
    endloop
  endfacet
  facet normal 0.173698 0.686241 0.70633
    outer loop
      vertex -2.98321 -12.0897 4.95
      vertex -3.34807 -9.99025 3
      vertex -3.95065 -11.8448 4.95
    endloop
  endfacet
  facet normal -0.561844 0.429512 0.707001
    outer loop
      vertex 2.9351 -8.20799 3
      vertex 3.21069 -8.32938 3.29275
      vertex 2.97385 -8.1573 3
    endloop
  endfacet
  facet normal -0.561846 0.429509 0.707002
    outer loop
      vertex 3.21069 -8.32938 3.29275
      vertex 2.9351 -8.20799 3
      vertex 3.19295 -8.39533 3.31873
    endloop
  endfacet
  facet normal 0.217438 -0.672846 0.707106
    outer loop
      vertex 0.0624218 -6.1799 4.95
      vertex 0.128036 -8.20799 3
      vertex 0.877655 -7.96574 3
    endloop
  endfacet
  facet normal 0.217438 -0.672846 0.707106
    outer loop
      vertex 0.128036 -8.20799 3
      vertex 0.0624218 -6.1799 4.95
      vertex -0.270569 -6.28751 4.95
    endloop
  endfacet
  facet normal -0.617167 0.348376 0.705507
    outer loop
      vertex 2.97385 -8.1573 3
      vertex 3.26637 -8.04784 3.20184
      vertex 3.08198 -7.96574 3
    endloop
  endfacet
  facet normal -0.617167 0.348376 0.705507
    outer loop
      vertex 3.26637 -8.04784 3.20184
      vertex 2.97385 -8.1573 3
      vertex 3.22303 -8.26825 3.27276
    endloop
  endfacet
  facet normal -0.61405 0.354527 0.705162
    outer loop
      vertex 3.21069 -8.32938 3.29275
      vertex 3.22303 -8.26825 3.27276
      vertex 2.97385 -8.1573 3
    endloop
  endfacet
  facet normal 0.494104 -0.506228 0.70682
    outer loop
      vertex 2.12115 -6.99675 3
      vertex 1.01458 -6.87847 3.85827
      vertex 1.54204 -7.562 3
    endloop
  endfacet
  facet normal 0.494103 -0.506228 0.70682
    outer loop
      vertex 0.606766 -5.75218 4.95
      vertex 1.01458 -6.87847 3.85827
      vertex 2.12115 -6.99675 3
    endloop
  endfacet
  facet normal 0.494104 -0.506228 0.70682
    outer loop
      vertex 1.01458 -6.87847 3.85827
      vertex 0.606766 -5.75218 4.95
      vertex 0.343639 -6.00901 4.95
    endloop
  endfacet
  facet normal -0.617167 0.348376 0.705506
    outer loop
      vertex 3.08198 -7.96574 3
      vertex 3.33153 -7.71642 3.09519
      vertex 3.27615 -7.62175 3
    endloop
  endfacet
  facet normal -0.617167 0.348376 0.705507
    outer loop
      vertex 3.33153 -7.71642 3.09519
      vertex 3.08198 -7.96574 3
      vertex 3.26637 -8.04784 3.20184
    endloop
  endfacet
  facet normal 0.367267 -0.604352 0.707017
    outer loop
      vertex 1.01458 -6.87847 3.85827
      vertex 0.877655 -7.96574 3
      vertex 1.44371 -7.62175 3
    endloop
  endfacet
  facet normal 0.367267 -0.604352 0.707017
    outer loop
      vertex 0.0624218 -6.1799 4.95
      vertex 1.01458 -6.87847 3.85827
      vertex 0.343639 -6.00901 4.95
    endloop
  endfacet
  facet normal 0.367267 -0.604352 0.707017
    outer loop
      vertex 1.01458 -6.87847 3.85827
      vertex 0.0624218 -6.1799 4.95
      vertex 0.877655 -7.96574 3
    endloop
  endfacet
  facet normal 0.706587 -0.0383239 0.706587
    outer loop
      vertex 1.18981 -4.04935 4.95
      vertex 3.19316 -3.06573 3
      vertex 1.24316 -3.06573 4.95
    endloop
  endfacet
  facet normal 0.706587 -0.0383239 0.706587
    outer loop
      vertex 3.19316 -3.06573 3
      vertex 1.18981 -4.04935 4.95
      vertex 3.12616 -4.30106 3
    endloop
  endfacet
  facet normal -0.56185 0.429503 0.707002
    outer loop
      vertex 2.87337 -8.28874 3
      vertex 3.19295 -8.39533 3.31873
      vertex 2.9351 -8.20799 3
    endloop
  endfacet
  facet normal -0.56185 0.429503 0.707002
    outer loop
      vertex 3.19295 -8.39533 3.31873
      vertex 2.87337 -8.28874 3
      vertex 3.16469 -8.5004 3.3601
    endloop
  endfacet
  facet normal 0.0680769 -0.703834 0.707095
    outer loop
      vertex -0.270569 -6.28751 4.95
      vertex -0.706818 -8.28874 3
      vertex 0.128036 -8.20799 3
    endloop
  endfacet
  facet normal 0.068077 -0.703834 0.707095
    outer loop
      vertex -0.706818 -8.28874 3
      vertex -0.270569 -6.28751 4.95
      vertex -0.719408 -6.33093 4.95
    endloop
  endfacet
  facet normal 0.64355 0.293021 0.707094
    outer loop
      vertex -5.49906 -8.2323 3
      vertex -7.26049 -9.06932 4.95
      vertex -5.47908 -8.27618 3
    endloop
  endfacet
  facet normal 0.64355 0.293021 0.707094
    outer loop
      vertex -7.26049 -9.06932 4.95
      vertex -5.49906 -8.2323 3
      vertex -7.28047 -9.02544 4.95
    endloop
  endfacet
  facet normal 0.614053 0.354522 0.705162
    outer loop
      vertex -7.05666 -9.42237 4.95
      vertex -5.47908 -8.27618 3
      vertex -7.26049 -9.06932 4.95
    endloop
  endfacet
  facet normal 0.55796 0.434698 0.706908
    outer loop
      vertex -5.47908 -8.27618 3
      vertex -7.04688 -9.43492 4.95
      vertex -5.4693 -8.28874 3
    endloop
  endfacet
  facet normal 0.55796 0.434698 0.706908
    outer loop
      vertex -7.04688 -9.43492 4.95
      vertex -5.47908 -8.27618 3
      vertex -7.05666 -9.42237 4.95
    endloop
  endfacet
  facet normal -0.0602217 -0.704605 0.70704
    outer loop
      vertex -1.01559 -6.30561 4.95
      vertex -0.706818 -8.28874 3
      vertex -0.719408 -6.33093 4.95
    endloop
  endfacet
  facet normal -0.0602217 -0.704605 0.70704
    outer loop
      vertex -0.706818 -8.28874 3
      vertex -1.01559 -6.30561 4.95
      vertex -1.3672 -8.2323 3
    endloop
  endfacet
  facet normal -0.19537 -0.679798 0.706899
    outer loop
      vertex -1.20961 -6.24985 4.95
      vertex -1.3672 -8.2323 3
      vertex -1.01559 -6.30561 4.95
    endloop
  endfacet
  facet normal -0.19537 -0.679798 0.706899
    outer loop
      vertex -1.3672 -8.2323 3
      vertex -1.20961 -6.24985 4.95
      vertex -1.95633 -8.06299 3
    endloop
  endfacet
  facet normal 0.643551 0.293019 0.707094
    outer loop
      vertex -5.57615 -8.06299 3
      vertex -7.28047 -9.02544 4.95
      vertex -5.49906 -8.2323 3
    endloop
  endfacet
  facet normal 0.643551 0.293019 0.707094
    outer loop
      vertex -7.28047 -9.02544 4.95
      vertex -5.57615 -8.06299 3
      vertex -7.35756 -8.85612 4.95
    endloop
  endfacet
  facet normal -0.33838 -0.621009 0.706999
    outer loop
      vertex -1.34577 -6.17566 4.95
      vertex -1.95633 -8.06299 3
      vertex -1.20961 -6.24985 4.95
    endloop
  endfacet
  facet normal -0.338381 -0.621008 0.706999
    outer loop
      vertex -1.95633 -8.06299 3
      vertex -1.34577 -6.17566 4.95
      vertex -2.4742 -7.78081 3
    endloop
  endfacet
  facet normal 0.643549 0.293023 0.707094
    outer loop
      vertex -5.70464 -7.78081 3
      vertex -7.35756 -8.85612 4.95
      vertex -5.57615 -8.06299 3
    endloop
  endfacet
  facet normal 0.643549 0.293023 0.707094
    outer loop
      vertex -7.35756 -8.85612 4.95
      vertex -5.70464 -7.78081 3
      vertex -7.48605 -8.57394 4.95
    endloop
  endfacet
  facet normal 0.64355 0.293021 0.707094
    outer loop
      vertex -5.88452 -7.38574 3
      vertex -7.48605 -8.57394 4.95
      vertex -5.70464 -7.78081 3
    endloop
  endfacet
  facet normal 0.64355 0.293021 0.707094
    outer loop
      vertex -7.48605 -8.57394 4.95
      vertex -5.88452 -7.38574 3
      vertex -7.66593 -8.17888 4.95
    endloop
  endfacet
  facet normal -0.468503 -0.529646 0.707093
    outer loop
      vertex -1.45799 -6.07639 4.95
      vertex -2.4742 -7.78081 3
      vertex -1.34577 -6.17566 4.95
    endloop
  endfacet
  facet normal -0.468503 -0.529646 0.707093
    outer loop
      vertex -2.4742 -7.78081 3
      vertex -1.45799 -6.07639 4.95
      vertex -2.92082 -7.38574 3
    endloop
  endfacet
  facet normal 0.688989 0.159289 0.707051
    outer loop
      vertex -6.00437 -6.87437 3
      vertex -7.7952 -7.78392 4.95
      vertex -5.88782 -7.37849 3
    endloop
  endfacet
  facet normal 0.688989 0.159289 0.707051
    outer loop
      vertex -7.7952 -7.78392 4.95
      vertex -6.00437 -6.87437 3
      vertex -7.91175 -7.2798 4.95
    endloop
  endfacet
  facet normal 0.643532 0.293061 0.707094
    outer loop
      vertex -5.88782 -7.37849 3
      vertex -7.66593 -8.17888 4.95
      vertex -5.88452 -7.38574 3
    endloop
  endfacet
  facet normal 0.643532 0.293061 0.707094
    outer loop
      vertex -7.66593 -8.17888 4.95
      vertex -5.88782 -7.37849 3
      vertex -7.66923 -8.17163 4.95
    endloop
  endfacet
  facet normal -0.578427 -0.406795 0.707065
    outer loop
      vertex -1.56011 -5.93118 4.95
      vertex -2.92082 -7.38574 3
      vertex -1.45799 -6.07639 4.95
    endloop
  endfacet
  facet normal -0.578426 -0.406795 0.707065
    outer loop
      vertex -2.92082 -7.38574 3
      vertex -1.56011 -5.93118 4.95
      vertex -3.28046 -6.87437 3
    endloop
  endfacet
  facet normal 0.674343 0.219108 0.705162
    outer loop
      vertex -7.66923 -8.17163 4.95
      vertex -5.88782 -7.37849 3
      vertex -7.7952 -7.78392 4.95
    endloop
  endfacet
  facet normal 0.688989 0.15929 0.707051
    outer loop
      vertex -6.13307 -6.31767 3
      vertex -7.91175 -7.2798 4.95
      vertex -6.00437 -6.87437 3
    endloop
  endfacet
  facet normal 0.688989 0.159291 0.707051
    outer loop
      vertex -7.91175 -7.2798 4.95
      vertex -6.13307 -6.31767 3
      vertex -8.04046 -6.7231 4.95
    endloop
  endfacet
  facet normal -0.655113 -0.266626 0.706921
    outer loop
      vertex -3.53732 -6.24324 3
      vertex -1.56011 -5.93118 4.95
      vertex -1.66231 -5.68008 4.95
    endloop
  endfacet
  facet normal -0.655113 -0.266626 0.706921
    outer loop
      vertex -1.56011 -5.93118 4.95
      vertex -3.53732 -6.24324 3
      vertex -3.28046 -6.87437 3
    endloop
  endfacet
  facet normal 0.706319 0.0471767 0.706319
    outer loop
      vertex -8.08307 -6.31767 4.95
      vertex -6.13804 -6.24324 3
      vertex -8.08804 -6.24324 4.95
    endloop
  endfacet
  facet normal 0.706319 0.0471767 0.706319
    outer loop
      vertex -6.13804 -6.24324 3
      vertex -8.08307 -6.31767 4.95
      vertex -6.13307 -6.31767 3
    endloop
  endfacet
  facet normal 0.705162 0.0741154 0.705162
    outer loop
      vertex -8.04046 -6.7231 4.95
      vertex -6.13307 -6.31767 3
      vertex -8.08307 -6.31767 4.95
    endloop
  endfacet
  facet normal 0.706319 0.0471816 0.706319
    outer loop
      vertex -8.08804 -6.24324 4.95
      vertex -6.1882 -5.49237 3
      vertex -8.1382 -5.49237 4.95
    endloop
  endfacet
  facet normal 0.706319 0.0471816 0.706319
    outer loop
      vertex -6.1882 -5.49237 3
      vertex -8.08804 -6.24324 4.95
      vertex -6.13804 -6.24324 3
    endloop
  endfacet
  facet normal -0.692673 -0.142183 0.707098
    outer loop
      vertex -3.69145 -5.49237 3
      vertex -1.66231 -5.68008 4.95
      vertex -1.75784 -5.21472 4.95
    endloop
  endfacet
  facet normal -0.692673 -0.142183 0.707098
    outer loop
      vertex -1.66231 -5.68008 4.95
      vertex -3.69145 -5.49237 3
      vertex -3.53732 -6.24324 3
    endloop
  endfacet
  facet normal 0.707107 -0 0.707107
    outer loop
      vertex -8.16483 -5.09375 4.95
      vertex -6.21483 3.62823 3
      vertex -8.16483 3.62823 4.95
    endloop
  endfacet
  facet normal 0.707107 0 0.707107
    outer loop
      vertex -6.21483 3.62823 3
      vertex -8.16483 -5.09375 4.95
      vertex -6.21483 -5.09375 3
    endloop
  endfacet
  facet normal 0.706319 0.0471816 0.706319
    outer loop
      vertex -8.1382 -5.49237 4.95
      vertex -6.21483 -5.09375 3
      vertex -8.16483 -5.09375 4.95
    endloop
  endfacet
  facet normal 0.706319 0.0471816 0.706319
    outer loop
      vertex -6.21483 -5.09375 3
      vertex -8.1382 -5.49237 4.95
      vertex -6.1882 -5.49237 3
    endloop
  endfacet
  facet normal -0.706492 -0.0416909 0.706492
    outer loop
      vertex -3.74283 -4.62175 3
      vertex -1.75784 -5.21472 4.95
      vertex -1.79283 -4.62175 4.95
    endloop
  endfacet
  facet normal -0.706492 -0.0416909 0.706492
    outer loop
      vertex -1.75784 -5.21472 4.95
      vertex -3.74283 -4.62175 3
      vertex -3.69145 -5.49237 3
    endloop
  endfacet
  facet normal 0.614053 -0.354522 0.705162
    outer loop
      vertex -6.21483 3.62823 3
      vertex -7.79241 4.77442 4.95
      vertex -7.99624 4.42137 4.95
    endloop
  endfacet
  facet normal -0.705162 -0.0741158 0.705162
    outer loop
      vertex -1.79283 3.62823 4.95
      vertex -1.83544 4.03366 4.95
      vertex -3.74283 3.62823 3
    endloop
  endfacet
  facet normal 0.705162 -0.0741154 0.705162
    outer loop
      vertex -6.21483 3.62823 3
      vertex -8.12222 4.03366 4.95
      vertex -8.16483 3.62823 4.95
    endloop
  endfacet
  facet normal 0.147418 -0.693552 0.705162
    outer loop
      vertex -6.21483 3.62823 3
      vertex -6.41866 5.56755 4.95
      vertex -6.81741 5.48279 4.95
    endloop
  endfacet
  facet normal 0.674343 -0.219109 0.705162
    outer loop
      vertex -6.21483 3.62823 3
      vertex -7.99624 4.42137 4.95
      vertex -8.12222 4.03366 4.95
    endloop
  endfacet
  facet normal -0.147418 -0.693552 0.705162
    outer loop
      vertex -3.14025 5.48279 4.95
      vertex -3.539 5.56755 4.95
      vertex -3.74283 3.62823 3
    endloop
  endfacet
  facet normal 0 -0.709046 0.705162
    outer loop
      vertex -6.21483 3.62823 3
      vertex -3.539 5.56755 4.95
      vertex -6.41866 5.56755 4.95
    endloop
  endfacet
  facet normal 0 -0.709046 0.705162
    outer loop
      vertex -3.539 5.56755 4.95
      vertex -6.21483 3.62823 3
      vertex -3.74283 3.62823 3
    endloop
  endfacet
  facet normal 0.288396 -0.647746 0.705162
    outer loop
      vertex -6.21483 3.62823 3
      vertex -6.81741 5.48279 4.95
      vertex -7.18983 5.31698 4.95
    endloop
  endfacet
  facet normal -0.526924 -0.474445 0.705162
    outer loop
      vertex -2.16525 4.77442 4.95
      vertex -2.43802 5.07737 4.95
      vertex -3.74283 3.62823 3
    endloop
  endfacet
  facet normal -0.707107 0 0.707107
    outer loop
      vertex -3.74283 -4.62175 3
      vertex -1.79283 3.62823 4.95
      vertex -3.74283 3.62823 3
    endloop
  endfacet
  facet normal -0.707107 0 0.707107
    outer loop
      vertex -1.79283 3.62823 4.95
      vertex -3.74283 -4.62175 3
      vertex -1.79283 -4.62175 4.95
    endloop
  endfacet
  facet normal 0.416767 -0.57363 0.705162
    outer loop
      vertex -6.21483 3.62823 3
      vertex -7.18983 5.31698 4.95
      vertex -7.51963 5.07737 4.95
    endloop
  endfacet
  facet normal 0.526923 -0.474445 0.705162
    outer loop
      vertex -6.21483 3.62823 3
      vertex -7.51963 5.07737 4.95
      vertex -7.79241 4.77442 4.95
    endloop
  endfacet
  facet normal -0.288396 -0.647746 0.705162
    outer loop
      vertex -2.76783 5.31698 4.95
      vertex -3.14025 5.48279 4.95
      vertex -3.74283 3.62823 3
    endloop
  endfacet
  facet normal -0.614052 -0.354523 0.705162
    outer loop
      vertex -1.96142 4.42137 4.95
      vertex -2.16525 4.77442 4.95
      vertex -3.74283 3.62823 3
    endloop
  endfacet
  facet normal -0.674343 -0.219108 0.705162
    outer loop
      vertex -1.83544 4.03366 4.95
      vertex -1.96142 4.42137 4.95
      vertex -3.74283 3.62823 3
    endloop
  endfacet
  facet normal -0.416767 -0.57363 0.705162
    outer loop
      vertex -2.43802 5.07737 4.95
      vertex -2.76783 5.31698 4.95
      vertex -3.74283 3.62823 3
    endloop
  endfacet
  facet normal 0.707107 -0 0.707107
    outer loop
      vertex 1.24316 -3.06573 4.95
      vertex 3.19316 10.1842 3
      vertex 1.24316 10.1842 4.95
    endloop
  endfacet
  facet normal 0.707107 0 0.707107
    outer loop
      vertex 3.19316 10.1842 3
      vertex 1.24316 -3.06573 4.95
      vertex 3.19316 -3.06573 3
    endloop
  endfacet
  facet normal 0.705162 -0.0741159 0.705162
    outer loop
      vertex 3.19316 10.1842 3
      vertex 1.28577 10.5897 4.95
      vertex 1.24316 10.1842 4.95
    endloop
  endfacet
  facet normal 0.147418 -0.693552 0.705162
    outer loop
      vertex 3.19316 10.1842 3
      vertex 2.98933 12.1236 4.95
      vertex 2.59058 12.0388 4.95
    endloop
  endfacet
  facet normal 0 -0.709046 0.705162
    outer loop
      vertex 3.19316 10.1842 3
      vertex 5.86899 12.1236 4.95
      vertex 2.98933 12.1236 4.95
    endloop
  endfacet
  facet normal 0 -0.709046 0.705162
    outer loop
      vertex 5.86899 12.1236 4.95
      vertex 3.19316 10.1842 3
      vertex 5.66516 10.1842 3
    endloop
  endfacet
  facet normal 0.526924 -0.474445 0.705162
    outer loop
      vertex 3.19316 10.1842 3
      vertex 1.88836 11.6334 4.95
      vertex 1.61558 11.3304 4.95
    endloop
  endfacet
  facet normal -0.614053 -0.354522 0.705162
    outer loop
      vertex 7.44657 10.9774 4.95
      vertex 7.24274 11.3304 4.95
      vertex 5.66516 10.1842 3
    endloop
  endfacet
  facet normal -0.705162 -0.0741163 0.705162
    outer loop
      vertex 7.61516 10.1842 4.95
      vertex 7.57255 10.5897 4.95
      vertex 5.66516 10.1842 3
    endloop
  endfacet
  facet normal 0.288396 -0.647746 0.705162
    outer loop
      vertex 3.19316 10.1842 3
      vertex 2.59058 12.0388 4.95
      vertex 2.21816 11.873 4.95
    endloop
  endfacet
  facet normal 0.674343 -0.219108 0.705162
    outer loop
      vertex 3.19316 10.1842 3
      vertex 1.41175 10.9774 4.95
      vertex 1.28577 10.5897 4.95
    endloop
  endfacet
  facet normal -0.416767 -0.573631 0.705162
    outer loop
      vertex 6.96996 11.6334 4.95
      vertex 6.64016 11.873 4.95
      vertex 5.66516 10.1842 3
    endloop
  endfacet
  facet normal 0.416767 -0.573631 0.705162
    outer loop
      vertex 3.19316 10.1842 3
      vertex 2.21816 11.873 4.95
      vertex 1.88836 11.6334 4.95
    endloop
  endfacet
  facet normal 0.614053 -0.354522 0.705162
    outer loop
      vertex 3.19316 10.1842 3
      vertex 1.61558 11.3304 4.95
      vertex 1.41175 10.9774 4.95
    endloop
  endfacet
  facet normal -0.674343 -0.219108 0.705162
    outer loop
      vertex 7.57255 10.5897 4.95
      vertex 7.44657 10.9774 4.95
      vertex 5.66516 10.1842 3
    endloop
  endfacet
  facet normal -0.288396 -0.647746 0.705162
    outer loop
      vertex 6.64016 11.873 4.95
      vertex 6.26774 12.0388 4.95
      vertex 5.66516 10.1842 3
    endloop
  endfacet
  facet normal -0.147418 -0.693552 0.705162
    outer loop
      vertex 6.26774 12.0388 4.95
      vertex 5.86899 12.1236 4.95
      vertex 5.66516 10.1842 3
    endloop
  endfacet
  facet normal -0.526924 -0.474445 0.705162
    outer loop
      vertex 7.24274 11.3304 4.95
      vertex 6.96996 11.6334 4.95
      vertex 5.66516 10.1842 3
    endloop
  endfacet
  facet normal 0 0 1
    outer loop
      vertex 15.1568 16.4918 4.95
      vertex 16.5 15 4.95
      vertex 16.4672 15.3119 4.95
    endloop
  endfacet
  facet normal 0 0 1
    outer loop
      vertex 7.61516 -10.0387 4.95
      vertex 16.5 15 4.95
      vertex 7.61516 10.1842 4.95
    endloop
  endfacet
  facet normal 0 0 1
    outer loop
      vertex 15.1568 16.4918 4.95
      vertex 16.4672 15.3119 4.95
      vertex 16.3703 15.6101 4.95
    endloop
  endfacet
  facet normal 0 0 1
    outer loop
      vertex 16.5 15 4.95
      vertex 7.61516 -10.0387 4.95
      vertex 16.5 -15 4.95
    endloop
  endfacet
  facet normal 0 0 1
    outer loop
      vertex 15.1568 16.4918 4.95
      vertex 16.3703 15.6101 4.95
      vertex 16.2135 15.8817 4.95
    endloop
  endfacet
  facet normal -0 0 1
    outer loop
      vertex 7.57255 -10.4442 4.95
      vertex 16.5 -15 4.95
      vertex 7.61516 -10.0387 4.95
    endloop
  endfacet
  facet normal 0 0 1
    outer loop
      vertex 15.1568 16.4918 4.95
      vertex 16.2135 15.8817 4.95
      vertex 16.0037 16.1147 4.95
    endloop
  endfacet
  facet normal -0 0 1
    outer loop
      vertex 7.44657 -10.8319 4.95
      vertex 16.5 -15 4.95
      vertex 7.57255 -10.4442 4.95
    endloop
  endfacet
  facet normal 0 0 1
    outer loop
      vertex 15.1568 16.4918 4.95
      vertex 16.0037 16.1147 4.95
      vertex 15.75 16.299 4.95
    endloop
  endfacet
  facet normal 0 0 1
    outer loop
      vertex 16.4672 -15.3119 4.95
      vertex 15.1568 -16.4918 4.95
      vertex 16.3703 -15.6101 4.95
    endloop
  endfacet
  facet normal 0 0 1
    outer loop
      vertex 15.1568 16.4918 4.95
      vertex 15.75 16.299 4.95
      vertex 15.4635 16.4266 4.95
    endloop
  endfacet
  facet normal 0 0 1
    outer loop
      vertex 16.3703 -15.6101 4.95
      vertex 15.1568 -16.4918 4.95
      vertex 16.2135 -15.8817 4.95
    endloop
  endfacet
  facet normal 0 0 1
    outer loop
      vertex 7.44657 10.9774 4.95
      vertex 16.5 15 4.95
      vertex 15.1568 16.4918 4.95
    endloop
  endfacet
  facet normal 0 0 1
    outer loop
      vertex 16.0037 -16.1147 4.95
      vertex 15.1568 -16.4918 4.95
      vertex 15.75 -16.299 4.95
    endloop
  endfacet
  facet normal 0 0 1
    outer loop
      vertex 16.5 -15 4.95
      vertex 15.1568 -16.4918 4.95
      vertex 16.4672 -15.3119 4.95
    endloop
  endfacet
  facet normal 0 0 1
    outer loop
      vertex 16.5 15 4.95
      vertex 7.57255 10.5897 4.95
      vertex 7.61516 10.1842 4.95
    endloop
  endfacet
  facet normal 0 0 1
    outer loop
      vertex 16.5 15 4.95
      vertex 7.44657 10.9774 4.95
      vertex 7.57255 10.5897 4.95
    endloop
  endfacet
  facet normal 0 0 1
    outer loop
      vertex 15.1568 16.4918 4.95
      vertex 7.24274 11.3304 4.95
      vertex 7.44657 10.9774 4.95
    endloop
  endfacet
  facet normal 0 0 1
    outer loop
      vertex 15.1568 16.4918 4.95
      vertex 6.96996 11.6334 4.95
      vertex 7.24274 11.3304 4.95
    endloop
  endfacet
  facet normal 0 0 1
    outer loop
      vertex 15.1568 16.4918 4.95
      vertex 6.64016 11.873 4.95
      vertex 6.96996 11.6334 4.95
    endloop
  endfacet
  facet normal 0 0 1
    outer loop
      vertex 15.1568 16.4918 4.95
      vertex 6.26774 12.0388 4.95
      vertex 6.64016 11.873 4.95
    endloop
  endfacet
  facet normal 0 0 1
    outer loop
      vertex 15.1568 16.4918 4.95
      vertex 5.86899 12.1236 4.95
      vertex 6.26774 12.0388 4.95
    endloop
  endfacet
  facet normal 0 0 1
    outer loop
      vertex 15.1568 16.4918 4.95
      vertex 2.98933 12.1236 4.95
      vertex 5.86899 12.1236 4.95
    endloop
  endfacet
  facet normal -0 0 1
    outer loop
      vertex -15.1568 16.4918 4.95
      vertex 2.98933 12.1236 4.95
      vertex 15.1568 16.4918 4.95
    endloop
  endfacet
  facet normal -0 0 1
    outer loop
      vertex -1.79283 3.62823 4.95
      vertex 1.24316 -3.06573 4.95
      vertex 1.24316 10.1842 4.95
    endloop
  endfacet
  facet normal 0 0 1
    outer loop
      vertex -1.79283 -4.62175 4.95
      vertex 1.24316 -3.06573 4.95
      vertex -1.79283 3.62823 4.95
    endloop
  endfacet
  facet normal 0 0 1
    outer loop
      vertex 1.24316 -3.06573 4.95
      vertex -1.79283 -4.62175 4.95
      vertex 1.18981 -4.04935 4.95
    endloop
  endfacet
  facet normal 0 0 1
    outer loop
      vertex 1.18981 -4.04935 4.95
      vertex -1.79283 -4.62175 4.95
      vertex 1.03674 -4.86189 4.95
    endloop
  endfacet
  facet normal 0 0 1
    outer loop
      vertex 1.03674 -4.86189 4.95
      vertex -1.79283 -4.62175 4.95
      vertex 0.840476 -5.38832 4.95
    endloop
  endfacet
  facet normal 0 0 1
    outer loop
      vertex 0.840476 -5.38832 4.95
      vertex -1.79283 -4.62175 4.95
      vertex 0.606766 -5.75218 4.95
    endloop
  endfacet
  facet normal -0 -0 1
    outer loop
      vertex -1.75784 -5.21472 4.95
      vertex 0.606766 -5.75218 4.95
      vertex -1.79283 -4.62175 4.95
    endloop
  endfacet
  facet normal 0 0 1
    outer loop
      vertex 0.606766 -5.75218 4.95
      vertex -1.75784 -5.21472 4.95
      vertex 0.343639 -6.00901 4.95
    endloop
  endfacet
  facet normal 0 0 1
    outer loop
      vertex -3.539 5.56755 4.95
      vertex 1.24316 10.1842 4.95
      vertex 1.28577 10.5897 4.95
    endloop
  endfacet
  facet normal 0 0 1
    outer loop
      vertex 0.343639 -6.00901 4.95
      vertex -1.75784 -5.21472 4.95
      vertex 0.0624218 -6.1799 4.95
    endloop
  endfacet
  facet normal 0 0 1
    outer loop
      vertex 0.0624218 -6.1799 4.95
      vertex -1.75784 -5.21472 4.95
      vertex -0.270569 -6.28751 4.95
    endloop
  endfacet
  facet normal 0 0 1
    outer loop
      vertex -0.270569 -6.28751 4.95
      vertex -1.75784 -5.21472 4.95
      vertex -0.719408 -6.33093 4.95
    endloop
  endfacet
  facet normal -0 -0 1
    outer loop
      vertex -1.66231 -5.68008 4.95
      vertex -0.719408 -6.33093 4.95
      vertex -1.75784 -5.21472 4.95
    endloop
  endfacet
  facet normal -0 -0 1
    outer loop
      vertex -1.56011 -5.93118 4.95
      vertex -1.01559 -6.30561 4.95
      vertex -1.66231 -5.68008 4.95
    endloop
  endfacet
  facet normal 0 0 1
    outer loop
      vertex -1.01559 -6.30561 4.95
      vertex -1.56011 -5.93118 4.95
      vertex -1.20961 -6.24985 4.95
    endloop
  endfacet
  facet normal 0 0 1
    outer loop
      vertex -1.20961 -6.24985 4.95
      vertex -1.56011 -5.93118 4.95
      vertex -1.34577 -6.17566 4.95
    endloop
  endfacet
  facet normal 0 0 1
    outer loop
      vertex -0.719408 -6.33093 4.95
      vertex -1.66231 -5.68008 4.95
      vertex -1.01559 -6.30561 4.95
    endloop
  endfacet
  facet normal 0 0 1
    outer loop
      vertex -6.41866 5.56755 4.95
      vertex 1.28577 10.5897 4.95
      vertex 1.41175 10.9774 4.95
    endloop
  endfacet
  facet normal 0 0 1
    outer loop
      vertex 1.24316 10.1842 4.95
      vertex -1.83544 4.03366 4.95
      vertex -1.79283 3.62823 4.95
    endloop
  endfacet
  facet normal 0 0 1
    outer loop
      vertex 1.24316 10.1842 4.95
      vertex -1.96142 4.42137 4.95
      vertex -1.83544 4.03366 4.95
    endloop
  endfacet
  facet normal 0 0 1
    outer loop
      vertex 1.24316 10.1842 4.95
      vertex -2.16525 4.77442 4.95
      vertex -1.96142 4.42137 4.95
    endloop
  endfacet
  facet normal 0 0 1
    outer loop
      vertex 1.24316 10.1842 4.95
      vertex -2.43802 5.07737 4.95
      vertex -2.16525 4.77442 4.95
    endloop
  endfacet
  facet normal 0 0 1
    outer loop
      vertex -15.1568 16.4918 4.95
      vertex 1.41175 10.9774 4.95
      vertex 1.61558 11.3304 4.95
    endloop
  endfacet
  facet normal 0 0 1
    outer loop
      vertex 1.24316 10.1842 4.95
      vertex -2.76783 5.31698 4.95
      vertex -2.43802 5.07737 4.95
    endloop
  endfacet
  facet normal 0 0 1
    outer loop
      vertex 1.24316 10.1842 4.95
      vertex -3.14025 5.48279 4.95
      vertex -2.76783 5.31698 4.95
    endloop
  endfacet
  facet normal 0 0 1
    outer loop
      vertex 1.24316 10.1842 4.95
      vertex -3.539 5.56755 4.95
      vertex -3.14025 5.48279 4.95
    endloop
  endfacet
  facet normal 0 0 1
    outer loop
      vertex 1.28577 10.5897 4.95
      vertex -6.41866 5.56755 4.95
      vertex -3.539 5.56755 4.95
    endloop
  endfacet
  facet normal 0 0 1
    outer loop
      vertex -15.1568 16.4918 4.95
      vertex 1.61558 11.3304 4.95
      vertex 1.88836 11.6334 4.95
    endloop
  endfacet
  facet normal 0 0 1
    outer loop
      vertex 1.41175 10.9774 4.95
      vertex -15.1568 16.4918 4.95
      vertex -6.41866 5.56755 4.95
    endloop
  endfacet
  facet normal 0 0 1
    outer loop
      vertex -15.1568 16.4918 4.95
      vertex 1.88836 11.6334 4.95
      vertex 2.21816 11.873 4.95
    endloop
  endfacet
  facet normal 0 0 1
    outer loop
      vertex -6.41866 5.56755 4.95
      vertex -15.1568 16.4918 4.95
      vertex -6.81741 5.48279 4.95
    endloop
  endfacet
  facet normal 0 0 1
    outer loop
      vertex -8.12222 4.03366 4.95
      vertex -16.5 15 4.95
      vertex -8.16483 3.62823 4.95
    endloop
  endfacet
  facet normal 0 0 1
    outer loop
      vertex -7.99624 4.42137 4.95
      vertex -16.5 15 4.95
      vertex -8.12222 4.03366 4.95
    endloop
  endfacet
  facet normal 0 0 1
    outer loop
      vertex -7.79241 4.77442 4.95
      vertex -16.5 15 4.95
      vertex -7.99624 4.42137 4.95
    endloop
  endfacet
  facet normal 0 0 1
    outer loop
      vertex -7.51963 5.07737 4.95
      vertex -16.5 15 4.95
      vertex -7.79241 4.77442 4.95
    endloop
  endfacet
  facet normal 0 0 1
    outer loop
      vertex -7.18983 5.31698 4.95
      vertex -16.5 15 4.95
      vertex -7.51963 5.07737 4.95
    endloop
  endfacet
  facet normal -0 0 1
    outer loop
      vertex -16.5 15 4.95
      vertex -7.18983 5.31698 4.95
      vertex -15.1568 16.4918 4.95
    endloop
  endfacet
  facet normal 0 0 1
    outer loop
      vertex -6.81741 5.48279 4.95
      vertex -15.1568 16.4918 4.95
      vertex -7.18983 5.31698 4.95
    endloop
  endfacet
  facet normal 0 0 1
    outer loop
      vertex 2.59058 12.0388 4.95
      vertex -15.1568 16.4918 4.95
      vertex 2.21816 11.873 4.95
    endloop
  endfacet
  facet normal 0 0 1
    outer loop
      vertex 2.98933 12.1236 4.95
      vertex -15.1568 16.4918 4.95
      vertex 2.59058 12.0388 4.95
    endloop
  endfacet
  facet normal 0 0 1
    outer loop
      vertex 15.75 -16.299 4.95
      vertex 15.1568 -16.4918 4.95
      vertex 15.4635 -16.4266 4.95
    endloop
  endfacet
  facet normal 0 0 1
    outer loop
      vertex 16.2135 -15.8817 4.95
      vertex 15.1568 -16.4918 4.95
      vertex 16.0037 -16.1147 4.95
    endloop
  endfacet
  facet normal 0 0 1
    outer loop
      vertex 16.5 -15 4.95
      vertex 7.44657 -10.8319 4.95
      vertex 15.1568 -16.4918 4.95
    endloop
  endfacet
  facet normal -0 0 1
    outer loop
      vertex 7.24274 -11.1849 4.95
      vertex 15.1568 -16.4918 4.95
      vertex 7.44657 -10.8319 4.95
    endloop
  endfacet
  facet normal -0 0 1
    outer loop
      vertex 6.96996 -11.4879 4.95
      vertex 15.1568 -16.4918 4.95
      vertex 7.24274 -11.1849 4.95
    endloop
  endfacet
  facet normal -0 0 1
    outer loop
      vertex 6.64016 -11.7275 4.95
      vertex 15.1568 -16.4918 4.95
      vertex 6.96996 -11.4879 4.95
    endloop
  endfacet
  facet normal -0 0 1
    outer loop
      vertex 6.26774 -11.8933 4.95
      vertex 15.1568 -16.4918 4.95
      vertex 6.64016 -11.7275 4.95
    endloop
  endfacet
  facet normal -0 0 1
    outer loop
      vertex 5.86899 -11.9781 4.95
      vertex 15.1568 -16.4918 4.95
      vertex 6.26774 -11.8933 4.95
    endloop
  endfacet
  facet normal -0 0 1
    outer loop
      vertex 3.51733 -11.9781 4.95
      vertex 15.1568 -16.4918 4.95
      vertex 5.86899 -11.9781 4.95
    endloop
  endfacet
  facet normal -0 0 1
    outer loop
      vertex 0.914991 -11.9733 4.95
      vertex 3.51733 -11.9781 4.95
      vertex 3.11858 -11.8933 4.95
    endloop
  endfacet
  facet normal 0 0 1
    outer loop
      vertex 1.97297 -11.56 4.95
      vertex 2.41636 -11.4879 4.95
      vertex 2.30913 -11.3688 4.95
    endloop
  endfacet
  facet normal -0 0 1
    outer loop
      vertex 1.97297 -11.56 4.95
      vertex 2.74616 -11.7275 4.95
      vertex 2.41636 -11.4879 4.95
    endloop
  endfacet
  facet normal -0 0 1
    outer loop
      vertex 1.60055 -11.7258 4.95
      vertex 2.74616 -11.7275 4.95
      vertex 1.97297 -11.56 4.95
    endloop
  endfacet
  facet normal 0 0 1
    outer loop
      vertex 2.74616 -11.7275 4.95
      vertex 1.60055 -11.7258 4.95
      vertex 3.11858 -11.8933 4.95
    endloop
  endfacet
  facet normal 0 0 1
    outer loop
      vertex 0.914991 -11.9733 4.95
      vertex 3.11858 -11.8933 4.95
      vertex 1.60055 -11.7258 4.95
    endloop
  endfacet
  facet normal 0 0 1
    outer loop
      vertex 3.51733 -11.9781 4.95
      vertex 0.914991 -11.9733 4.95
      vertex 0.516239 -12.0581 4.95
    endloop
  endfacet
  facet normal 0 0 1
    outer loop
      vertex 3.51733 -11.9781 4.95
      vertex 0.516239 -12.0581 4.95
      vertex -0.245678 -12.2066 4.95
    endloop
  endfacet
  facet normal 0 0 1
    outer loop
      vertex 3.51733 -11.9781 4.95
      vertex -0.245678 -12.2066 4.95
      vertex 15.1568 -16.4918 4.95
    endloop
  endfacet
  facet normal -0 0 1
    outer loop
      vertex -1.084 -12.2561 4.95
      vertex 15.1568 -16.4918 4.95
      vertex -0.245678 -12.2066 4.95
    endloop
  endfacet
  facet normal 0 0 1
    outer loop
      vertex -15.1568 -16.4918 4.95
      vertex -1.084 -12.2561 4.95
      vertex -1.49166 -12.2561 4.95
    endloop
  endfacet
  facet normal 0 0 1
    outer loop
      vertex -15.1568 -16.4918 4.95
      vertex -1.49166 -12.2561 4.95
      vertex -2.58446 -12.1744 4.95
    endloop
  endfacet
  facet normal 0 0 1
    outer loop
      vertex -15.1568 -16.4918 4.95
      vertex -2.58446 -12.1744 4.95
      vertex -2.98321 -12.0897 4.95
    endloop
  endfacet
  facet normal 0 0 1
    outer loop
      vertex -15.1568 -16.4918 4.95
      vertex -7.04688 -9.43492 4.95
      vertex -7.05666 -9.42237 4.95
    endloop
  endfacet
  facet normal 0 0 1
    outer loop
      vertex -16.5 -15 4.95
      vertex -7.35756 -8.85612 4.95
      vertex -7.48605 -8.57394 4.95
    endloop
  endfacet
  facet normal 0 0 1
    outer loop
      vertex -7.35756 -8.85612 4.95
      vertex -16.5 -15 4.95
      vertex -7.28047 -9.02544 4.95
    endloop
  endfacet
  facet normal 0 0 1
    outer loop
      vertex -16.5 -15 4.95
      vertex -7.66593 -8.17888 4.95
      vertex -7.66923 -8.17163 4.95
    endloop
  endfacet
  facet normal 0 0 1
    outer loop
      vertex -7.66593 -8.17888 4.95
      vertex -16.5 -15 4.95
      vertex -7.48605 -8.57394 4.95
    endloop
  endfacet
  facet normal 0 0 1
    outer loop
      vertex -16.5 -15 4.95
      vertex -7.91175 -7.2798 4.95
      vertex -8.04046 -6.7231 4.95
    endloop
  endfacet
  facet normal 0 0 1
    outer loop
      vertex -16.5 -15 4.95
      vertex -8.08804 -6.24324 4.95
      vertex -8.1382 -5.49237 4.95
    endloop
  endfacet
  facet normal 0 0 1
    outer loop
      vertex -16.5 -15 4.95
      vertex -8.1382 -5.49237 4.95
      vertex -8.16483 -5.09375 4.95
    endloop
  endfacet
  facet normal 0 0 1
    outer loop
      vertex -16.5 -15 4.95
      vertex -8.16483 3.62823 4.95
      vertex -16.5 15 4.95
    endloop
  endfacet
  facet normal 0 0 1
    outer loop
      vertex -8.16483 3.62823 4.95
      vertex -16.5 -15 4.95
      vertex -8.16483 -5.09375 4.95
    endloop
  endfacet
  facet normal 0 0 1
    outer loop
      vertex -8.08804 -6.24324 4.95
      vertex -16.5 -15 4.95
      vertex -8.08307 -6.31767 4.95
    endloop
  endfacet
  facet normal 0 0 1
    outer loop
      vertex -1.084 -12.2561 4.95
      vertex -15.1568 -16.4918 4.95
      vertex 15.1568 -16.4918 4.95
    endloop
  endfacet
  facet normal 0 0 1
    outer loop
      vertex -3.95065 -11.8448 4.95
      vertex -15.1568 -16.4918 4.95
      vertex -2.98321 -12.0897 4.95
    endloop
  endfacet
  facet normal 0 0 1
    outer loop
      vertex -4.32307 -11.679 4.95
      vertex -15.1568 -16.4918 4.95
      vertex -3.95065 -11.8448 4.95
    endloop
  endfacet
  facet normal 0 0 1
    outer loop
      vertex -5.16514 -11.2709 4.95
      vertex -15.1568 -16.4918 4.95
      vertex -4.32307 -11.679 4.95
    endloop
  endfacet
  facet normal 0 0 1
    outer loop
      vertex -5.49494 -11.0313 4.95
      vertex -15.1568 -16.4918 4.95
      vertex -5.16514 -11.2709 4.95
    endloop
  endfacet
  facet normal 0 0 1
    outer loop
      vertex -6.21163 -10.4599 4.95
      vertex -15.1568 -16.4918 4.95
      vertex -5.49494 -11.0313 4.95
    endloop
  endfacet
  facet normal 0 0 1
    outer loop
      vertex -6.48441 -10.1569 4.95
      vertex -15.1568 -16.4918 4.95
      vertex -6.21163 -10.4599 4.95
    endloop
  endfacet
  facet normal 0 0 1
    outer loop
      vertex -7.04688 -9.43492 4.95
      vertex -15.1568 -16.4918 4.95
      vertex -6.48441 -10.1569 4.95
    endloop
  endfacet
  facet normal 0 0 1
    outer loop
      vertex -16.5 -15 4.95
      vertex -7.05666 -9.42237 4.95
      vertex -7.26049 -9.06932 4.95
    endloop
  endfacet
  facet normal 0 0 1
    outer loop
      vertex -7.28047 -9.02544 4.95
      vertex -16.5 -15 4.95
      vertex -7.26049 -9.06932 4.95
    endloop
  endfacet
  facet normal 0 0 1
    outer loop
      vertex -16.5 -15 4.95
      vertex -7.66923 -8.17163 4.95
      vertex -7.7952 -7.78392 4.95
    endloop
  endfacet
  facet normal 0 0 1
    outer loop
      vertex -8.08307 -6.31767 4.95
      vertex -16.5 -15 4.95
      vertex -8.04046 -6.7231 4.95
    endloop
  endfacet
  facet normal 0 0 1
    outer loop
      vertex -16.5 15 4.95
      vertex -15.1568 16.4918 4.95
      vertex -15.4635 16.4266 4.95
    endloop
  endfacet
  facet normal 0 0 1
    outer loop
      vertex -7.91175 -7.2798 4.95
      vertex -16.5 -15 4.95
      vertex -7.7952 -7.78392 4.95
    endloop
  endfacet
  facet normal 0 0 1
    outer loop
      vertex -16.5 15 4.95
      vertex -15.4635 16.4266 4.95
      vertex -15.75 16.299 4.95
    endloop
  endfacet
  facet normal 0 0 1
    outer loop
      vertex -7.05666 -9.42237 4.95
      vertex -16.5 -15 4.95
      vertex -15.1568 -16.4918 4.95
    endloop
  endfacet
  facet normal 0 0 1
    outer loop
      vertex -16.5 15 4.95
      vertex -15.75 16.299 4.95
      vertex -16.0037 16.1147 4.95
    endloop
  endfacet
  facet normal 0 0 1
    outer loop
      vertex -15.1568 -16.4918 4.95
      vertex -16.5 -15 4.95
      vertex -15.4635 -16.4266 4.95
    endloop
  endfacet
  facet normal 0 0 1
    outer loop
      vertex -16.5 15 4.95
      vertex -16.0037 16.1147 4.95
      vertex -16.2135 15.8817 4.95
    endloop
  endfacet
  facet normal 0 0 1
    outer loop
      vertex -15.4635 -16.4266 4.95
      vertex -16.5 -15 4.95
      vertex -15.75 -16.299 4.95
    endloop
  endfacet
  facet normal 0 0 1
    outer loop
      vertex -16.5 15 4.95
      vertex -16.2135 15.8817 4.95
      vertex -16.3703 15.6101 4.95
    endloop
  endfacet
  facet normal 0 0 1
    outer loop
      vertex -15.75 -16.299 4.95
      vertex -16.5 -15 4.95
      vertex -16.0037 -16.1147 4.95
    endloop
  endfacet
  facet normal 0 0 1
    outer loop
      vertex -16.5 15 4.95
      vertex -16.3703 15.6101 4.95
      vertex -16.4672 15.3119 4.95
    endloop
  endfacet
  facet normal 0 0 1
    outer loop
      vertex -16.0037 -16.1147 4.95
      vertex -16.5 -15 4.95
      vertex -16.2135 -15.8817 4.95
    endloop
  endfacet
  facet normal 0 0 1
    outer loop
      vertex -16.2135 -15.8817 4.95
      vertex -16.5 -15 4.95
      vertex -16.3703 -15.6101 4.95
    endloop
  endfacet
  facet normal 0 0 1
    outer loop
      vertex -16.3703 -15.6101 4.95
      vertex -16.5 -15 4.95
      vertex -16.4672 -15.3119 4.95
    endloop
  endfacet
  facet normal 0 0 1
    outer loop
      vertex -1.34577 -6.17566 4.95
      vertex -1.56011 -5.93118 4.95
      vertex -1.45799 -6.07639 4.95
    endloop
  endfacet
endsolid OpenSCAD_Model
